<?xml version="1.0" standalone="no"?>
<!DOCTYPE svg PUBLIC "-//W3C//DTD SVG 1.1//EN" "http://www.w3.org/Graphics/SVG/1.1/DTD/svg11.dtd" >
<svg>
<metadata>
Created by FontForge 20090914 at Tue Mar 13 21:44:24 2018
 By www-data
Copyright 2014 Pria Ravichandran (pria.ravichandran@gmail.com)
</metadata>
<defs>
<font id="Catamaran-Regular" horiz-adv-x="529" >
  <font-face 
    font-family="Catamaran"
    font-weight="400"
    font-stretch="normal"
    units-per-em="1000"
    panose-1="0 0 5 0 0 0 0 0 0 0"
    ascent="770"
    descent="-230"
    x-height="485"
    cap-height="680"
    bbox="-540 -377 2518 1320"
    underline-thickness="50"
    underline-position="-75"
    unicode-range="U+000D-U+FB02"
  />
<missing-glyph horiz-adv-x="658" 
d="M94 696v-696h469v696h-469zM482 632l1 -569h-309v569h308z" />
    <glyph glyph-name=".notdef" horiz-adv-x="658" 
d="M94 696v-696h469v696h-469zM482 632l1 -569h-309v569h308z" />
    <glyph glyph-name="uni0000" horiz-adv-x="0" 
 />
    <glyph glyph-name="uni0000" horiz-adv-x="0" 
 />
    <glyph glyph-name="nonmarkingreturn" unicode="&#xd;" horiz-adv-x="0" 
 />
    <glyph glyph-name="space" unicode=" " horiz-adv-x="233" 
 />
    <glyph glyph-name="exclam" unicode="!" horiz-adv-x="169" 
d="M57 224l57 -28l16 506h-90zM46.5 91.5c-11 -10.333 -16.498 -22.833 -16.498 -37.5s5.5 -27.334 16.5 -38.001s23.833 -16 38.5 -16c15.333 0 28.166 5.33301 38.499 16s15.5 23.334 15.5 38.001s-5.33301 27.167 -16 37.5s-23.334 15.5 -38.001 15.5
s-27.5 -5.16699 -38.5 -15.5z" />
    <glyph glyph-name="quotedbl" unicode="&#x22;" horiz-adv-x="328" 
d="M49.5 695.5c-11 -11 -16.5 -23.501 -16.5 -37.501c0 -13.333 4.5 -25.5 13.5 -36.5s19.833 -16.833 32.5 -17.5c-2 -17.333 -7.83301 -32.333 -17.5 -45s-23.5 -25.334 -41.5 -38.001l21 -37c28 14.667 52 37.834 72 69.501s30 63.5 30 95.5
c0 18.667 -5.5 33.834 -16.5 45.501s-23.833 17.5 -38.5 17.5s-27.5 -5.5 -38.5 -16.5zM206 695.499c-10.667 -11 -15.9971 -23.501 -15.9971 -37.501c0 -13.333 4.5 -25.5 13.5 -36.5s19.833 -16.833 32.5 -17.5c-2.66699 -17.333 -8.83398 -32.333 -18.501 -45
s-23.5 -25.334 -41.5 -38.001l21 -37c28 14.667 51.833 37.834 71.5 69.501s29.5 63.5 29.5 95.5c0 18.667 -5.33301 33.834 -16 45.501s-23.334 17.5 -38.001 17.5s-27.334 -5.5 -38.001 -16.5z" />
    <glyph glyph-name="numbersign" unicode="#" horiz-adv-x="519" 
d="M384 507l-29 -127h-133l31 126l-66 1l-30 -127h-127l9 -61h102l-29 -127h-82l9 -61h58l-30 -129l65 -5l32 134h132l-30 -129l65 -5l31 134h127l-8 61h-105l30 127h83l-8 61h-60l30 126zM340 319l-30 -127h-132l31 127h131z" />
    <glyph glyph-name="dollar" unicode="$" horiz-adv-x="513" 
d="M173 -6c-24 4 -46.833 9.5 -68.5 16.5s-38.5 14.5 -50.5 22.5l19 62c21.333 -10.667 47.166 -20.167 77.499 -28.5s60.166 -12.5 89.499 -12.5c52 0 92.167 10.167 120.5 30.5s42.5 46.833 42.5 79.5c0 23.333 -6.66699 43.833 -20 61.5s-32.5 33.667 -57.5 48
s-59.167 30.833 -102.5 49.5c-62 26.667 -107.5 55.667 -136.5 87s-43.5 69.666 -43.5 114.999c0 36.667 11.5 69.167 34.5 97.5s54.833 48.833 95.5 61.5v107l57 10v-106l30 1c8 0 19.333 -0.666992 34 -2v98l58 10v-118c28 -7.33301 55.333 -17.333 82 -30l-27 -61
c-24.667 11.333 -47.167 20 -67.5 26s-45.166 9 -74.499 9c-44 0 -79.167 -9 -105.5 -27s-39.5 -43 -39.5 -75c0 -24 6.5 -44.5 19.5 -61.5s31.5 -32.5 55.5 -46.5s59.333 -31.667 106 -53c42 -19.333 75.833 -38 101.5 -56s45.167 -38.5 58.5 -61.5s20 -50.5 20 -82.5
c0 -37.333 -11.167 -70.166 -33.5 -98.499s-54.166 -49.5 -95.499 -63.5v-118h-58v106c-15.333 -2.66699 -33 -4 -53 -4h-11v-102h-57v109z" />
    <glyph glyph-name="percent" unicode="%" horiz-adv-x="862" 
d="M545 710l-306 -710l77 -4l306 710zM112 681c-24 -14 -43.165 -33.833 -57.498 -59.5s-21.5 -55.5 -21.5 -89.5c0 -52.667 14.667 -94 44 -124s67.666 -45 114.999 -45c28.667 0 55 7 79 21s43.167 33.667 57.5 59s21.5 55 21.5 89c0 52.667 -14.833 94.167 -44.5 124.5
s-67.834 45.5 -114.501 45.5c-28.667 0 -55 -7 -79 -21zM251.002 613c16 -18 23.999 -45 23.999 -81s-8.16699 -62.833 -24.5 -80.5s-35.833 -26.5 -58.5 -26.5c-24.667 0 -45 9 -61 27s-24 45 -24 81c0 35.333 8.33301 62 25 80s36.334 27 59.001 27c24 0 44 -9 60 -27z
M592.501 317c-24.333 -14 -43.502 -33.667 -57.502 -59s-21 -55 -21 -89c0 -52.667 14.833 -94 44.5 -124s67.834 -45 114.501 -45c28.667 0 55 7 79 21s43 33.667 57 59s21 55 21 89c0 52.667 -14.667 94 -44 124s-67 45 -113 45c-29.333 0 -56.166 -7 -80.499 -21z
M731.999 249.5c16 -18.333 24 -45.168 24 -80.501s-8.16699 -62.166 -24.5 -80.499s-35.833 -27.5 -58.5 -27.5c-24 0 -44.167 9.16699 -60.5 27.5s-24.5 45.5 -24.5 81.5s8.33301 62.833 25 80.5s36.667 26.5 60 26.5s43 -9.16699 59 -27.5z" />
    <glyph glyph-name="ampersand" unicode="&#x26;" horiz-adv-x="668" 
d="M636 51l-81.9961 74.998c28.667 54 45 120.667 49 200l-64 25c-5.33301 -70 -19.666 -128 -42.999 -174l-197 185c-38 35.333 -64.333 63.5 -79 84.5s-22 46.167 -22 75.5c0 28.667 10.167 53.667 30.5 75s47.166 32 80.499 32c25.333 0 46.166 -2.5 62.499 -7.5
s30.833 -10.5 43.5 -16.5s21.334 -10 26.001 -12l28 61c-26.667 13.333 -52.334 23.666 -77.001 30.999s-52.334 11 -83.001 11c-38.667 0 -72.334 -8.16699 -101.001 -24.5s-50.5 -38.166 -65.5 -65.499s-22.5 -57.333 -22.5 -90c0 -38 10.333 -72 31 -102
c-32 -21.333 -57.833 -50.166 -77.5 -86.499s-29.834 -75.5 -30.501 -117.5c0 -47.333 11.167 -87.666 33.5 -120.999s53 -58.5 92 -75.5s82.833 -25.833 131.5 -26.5c90.667 0 161.667 27.667 213 83l81 -74zM300.004 55.998c-48.667 0 -90.333 13.333 -125 40
s-52 65.334 -52 116.001c0.666992 33.333 7.5 63.166 20.5 89.499s30.833 46.833 53.5 61.5c6.66699 -8 19 -20.333 37 -37l224 -205c-38 -43.333 -90.667 -65 -158 -65z" />
    <glyph glyph-name="quotesingle" unicode="'" horiz-adv-x="173" 
d="M49.5 695.5c-11 -11 -16.5 -23.501 -16.5 -37.501c0 -13.333 4.5 -25.5 13.5 -36.5s19.833 -16.833 32.5 -17.5c-2 -17.333 -7.83301 -32.333 -17.5 -45s-23.5 -25.334 -41.5 -38.001l21 -37c28 14.667 52 37.834 72 69.501s30 63.5 30 95.5
c0 18.667 -5.5 33.834 -16.5 45.501s-23.833 17.5 -38.5 17.5s-27.5 -5.5 -38.5 -16.5z" />
    <glyph glyph-name="parenleft" unicode="(" horiz-adv-x="265" 
d="M182 76.5c-16.667 40.333 -30 83.002 -40 128.002s-15 83.833 -15 116.5c0 32 5 70 15 114s23.333 86.167 40 126.5s34.334 71.166 53.001 92.499l-64 23c-40 -52 -70.167 -109.833 -90.5 -173.5s-30.5 -124.834 -30.5 -183.501c0 -59.333 10.333 -121 31 -185
s50.667 -121.667 90 -173l64 23c-18.667 20.667 -36.334 51.167 -53.001 91.5z" />
    <glyph glyph-name="parenright" unicode=")" horiz-adv-x="265" 
d="M82 562.5c16.667 -40.333 30.167 -82.834 40.5 -127.501s15.5 -83 15.5 -115s-5.16699 -70.333 -15.5 -115s-23.833 -87.167 -40.5 -127.5s-34 -71.166 -52 -92.499l64 -23c39.333 54 69.333 112.667 90 176s31 124 31 182c0 59.333 -10.333 120.833 -31 184.5
s-50.667 121.167 -90 172.5l-64 -23c18 -20.667 35.333 -51.167 52 -91.5z" />
    <glyph glyph-name="asterisk" unicode="*" horiz-adv-x="351" 
d="M206 772h-61l-2 -111l-116 25l-17 -52l118 -23l-83 -117l47 -35l84 113l84 -113l46 35l-82 117l117 23l-17 52l-117 -25z" />
    <glyph glyph-name="plus" unicode="+" horiz-adv-x="536" 
d="M496 305h-191v226l-73 3v-229h-202l8 -63h194v-234l73 -4v238h201z" />
    <glyph glyph-name="comma" unicode="," horiz-adv-x="173" 
d="M50 91c-10.667 -10.667 -16 -23 -16 -37c0 -13.333 4.66699 -25.333 14 -36s20 -16.334 32 -17.001c-1.33301 -17.333 -7 -32.333 -17 -45s-24.333 -25.667 -43 -39l21 -37c28.667 14.667 52.834 37.834 72.501 69.501s29.5 63.5 29.5 95.5
c0 18.667 -5.16699 33.667 -15.5 45s-23.5 17 -39.5 17c-14.667 0 -27.334 -5.33301 -38.001 -16z" />
    <glyph glyph-name="hyphen" unicode="-" horiz-adv-x="320" 
d="M282 305h-252l9 -63h251z" />
    <glyph glyph-name="period" unicode="." horiz-adv-x="168" 
d="M122.5 16c10.333 10.667 15.5 23.332 15.5 37.999s-5.16699 27.167 -15.5 37.5s-22.833 15.5 -37.5 15.5c-15.333 0 -28.333 -5.16699 -39 -15.5s-16 -22.833 -16 -37.5c0 -15.333 5.33301 -28.166 16 -38.499s23.667 -15.5 39 -15.5c14.667 -0 27.167 5.33301 37.5 16z
" />
    <glyph glyph-name="slash" unicode="/" horiz-adv-x="402" 
d="M316 710l-306 -710l76 -4l306 710z" />
    <glyph glyph-name="zero" unicode="0" horiz-adv-x="593" 
d="M67 132.5c22.667 -45.667 54 -81.333 94 -107s85.333 -38.5 136 -38.5c50 0 95 13 135 39s71.333 62 94 108s34 97.667 34 155c0 55.333 -11.333 105 -34 149s-54 78.5 -94 103.5s-85 37.5 -135 37.5c-50.667 0 -96 -12.5 -136 -37.5s-71.333 -59.667 -94 -104
s-34 -94.5 -34 -150.5c0 -57.333 11.333 -108.833 34 -154.5zM135 404.501c16 33.667 38.167 59.998 66.5 78.998s60.166 28.5 95.499 28.5s67.166 -9.66699 95.499 -29s50.333 -46.333 66 -81s23.5 -73.667 23.5 -117c0 -44 -7.83301 -83.5 -23.5 -118.5
s-37.667 -62.333 -66 -82s-60.166 -29.5 -95.499 -29.5s-67.166 10.167 -95.499 30.5s-50.5 48.333 -66.5 84s-24 75.834 -24 120.501c0 42.667 8 80.834 24 114.501z" />
    <glyph glyph-name="one" unicode="1" horiz-adv-x="312" 
d="M240 0v566h-53l-177 -82l35 -64l115 54v-474h80z" />
    <glyph glyph-name="two" unicode="2" horiz-adv-x="479" 
d="M118.5 564.5c-28.333 -9.66699 -55.168 -22.166 -80.501 -37.499l23 -64c28.667 16 54 28.5 76 37.5s49 13.5 81 13.5c41.333 0 73.833 -8.83301 97.5 -26.5s35.5 -43.5 35.5 -77.5c0 -28 -8.66699 -54.333 -26 -79s-46.666 -54.667 -87.999 -90l-212 -184v-57h434
l-13 62h-316l149 125c54 45.333 92.333 85.666 115 120.999s34 72 34 110c0 49.333 -18.833 88.5 -56.5 117.5s-88.5 43.5 -152.5 43.5c-38.667 0 -72.167 -4.83301 -100.5 -14.5z" />
    <glyph glyph-name="three" unicode="3" horiz-adv-x="463" 
d="M13 517l38.998 -51.998c20 14 43.333 25.833 70 35.5s55.667 14.5 87 14.5c38 0 68.5 -10 91.5 -30s34.5 -44 34.5 -72c0 -35.333 -15 -63.5 -45 -84.5s-70.667 -31.5 -122 -31.5h-42l12 -59h24c63.333 0 110 -11.333 140 -34s45 -54.667 45 -96
c0 -24 -7 -45.167 -21 -63.5s-32.167 -32.333 -54.5 -42s-46.166 -14.5 -71.499 -14.5c-32.667 0 -60.834 3.66699 -84.501 11s-48.5 19 -74.5 35l-41 -56c28.667 -15.333 60.167 -28.166 94.5 -38.499s68.5 -15.5 102.5 -15.5c45.333 0 85.333 8.16699 120 24.5
s61.5 38.666 80.5 66.999s28.5 59.833 28.5 94.5c0 40 -11.167 74.5 -33.5 103.5s-50.5 47.5 -84.5 55.5c30 10.667 55.167 29.167 75.5 55.5s30.5 56.166 30.5 89.499c0 29.333 -7.66699 56.666 -23 81.999s-38.166 45.5 -68.499 60.5s-67.166 22.5 -110.499 22.5
c-68 0 -134.333 -20.667 -199 -62z" />
    <glyph glyph-name="four" unicode="4" horiz-adv-x="524" 
d="M504 135h-104v436h-55l-335 -436l11 -65h300v-139h79v139h95zM321 433v-298h-226z" />
    <glyph glyph-name="five" unicode="5" horiz-adv-x="496" 
d="M191.5 257.5c19.667 10.333 41.1699 15.5 64.5029 15.5c38.667 0 69.667 -12.333 93 -37s35 -58.667 35 -102c0 -44 -13.833 -79.167 -41.5 -105.5s-64.5 -39.5 -110.5 -39.5c-32 0 -59.833 3.66699 -83.5 11s-48.834 18.666 -75.501 33.999l-40 -56
c28.667 -15.333 60 -28.166 94 -38.499s67.667 -15.5 101 -15.5c49.333 0 91.666 9.33301 126.999 28s62.166 44 80.499 76s27.5 67.333 27.5 106c-0.666992 59.333 -18.667 108 -54 146s-88 57 -158 57c-16.667 0 -34.167 -2.83301 -52.5 -8.5s-35.5 -13.5 -51.5 -23.5
l9 196h260l9 65h-341l-16 -342h76c12 12 27.833 23.167 47.5 33.5z" />
    <glyph glyph-name="six" unicode="6" horiz-adv-x="511" 
d="M378.5 361c32.333 -17.333 57.167 -41.002 74.5 -71.002s26 -63.333 26 -100c0 -38 -9.16699 -72.5 -27.5 -103.5s-43.666 -55.333 -75.999 -73s-68.5 -26.5 -108.5 -26.5c-44.667 0 -84.667 10.333 -120 31s-63.166 51.334 -83.499 92.001s-30.5 89.334 -30.5 146.001
c0 72 18 135.333 54 190s81.667 97.834 137 129.501s111.666 51.167 168.999 58.5l18 -62c-40.667 -4.66699 -81.5 -16.834 -122.5 -36.501s-77.167 -47 -108.5 -82s-52.333 -75.833 -63 -122.5c44.667 37.333 94 56 148 56c43.333 0 81.166 -8.66699 113.499 -26z
M365.501 91.498c25.667 25 38.499 56.167 38.499 93.5c0 42 -12.667 75.667 -38 101s-59.666 38 -102.999 38c-27.333 0 -54.333 -6.83301 -81 -20.5s-50.667 -31.167 -72 -52.5c2.66699 -64 17.5 -112.833 44.5 -146.5s63.5 -50.5 109.5 -50.5c42 0 75.833 12.5 101.5 37.5
z" />
    <glyph glyph-name="seven" unicode="7" horiz-adv-x="440" 
d="M199 -69l221 600l-26 35h-384l10 -65h312l-208 -547z" />
    <glyph glyph-name="eight" unicode="8" horiz-adv-x="516" 
d="M152 620c-30 -15.333 -52.832 -35.4971 -68.499 -60.4971s-23.5 -52.167 -23.5 -81.5c0 -30.667 9.66699 -58.334 29 -83.001s44 -43.334 74 -56.001c-22.667 -5.33301 -44 -16.666 -64 -33.999s-36 -37.833 -48 -61.5s-18 -47.167 -18 -70.5
c0 -34.667 8.83301 -66 26.5 -94s43.5 -50.333 77.5 -67s74.667 -25 122 -25c46.667 0 87 8.5 121 25.5s59.833 39.667 77.5 68s26.5 59.166 26.5 92.499c0 26 -6 50.667 -18 74s-28 43 -48 59s-41.333 27 -64 33c28.667 13.333 53 32.166 73 56.499s30 51.833 30 82.5
c0 29.333 -7.83301 56.5 -23.5 81.5s-38.334 45.167 -68.001 60.5s-65.167 23 -106.5 23s-77 -7.66699 -107 -23zM348.001 549.503c22 -19.667 33.001 -44.167 33.001 -73.5c0 -26.667 -10.833 -50.167 -32.5 -70.5s-51.5 -33.5 -89.5 -39.5
c-38.667 6 -68.834 19.167 -90.501 39.5s-32.5 43.833 -32.5 70.5c0 28.667 10.5 53 31.5 73s50.5 30 88.5 30c39.333 0 70 -9.83301 92 -29.5zM368.502 262.503c25.667 -25 38.5 -55.5 38.5 -91.5c0 -35.333 -14.5 -64 -43.5 -86s-63.833 -33 -104.5 -33
c-42.667 0 -78.167 11 -106.5 33s-42.5 50.667 -42.5 86c0 36 12.667 66.5 38 91.5s62.333 40.5 111 46.5c47.333 -6 83.833 -21.5 109.5 -46.5z" />
    <glyph glyph-name="nine" unicode="9" horiz-adv-x="511" 
d="M365 548c35.333 -20.667 63.167 -51.333 83.5 -92s30.5 -89.334 30.5 -146.001c0 -72 -18 -135.333 -54 -190s-81.667 -97.834 -137 -129.501s-111.666 -51.167 -168.999 -58.5l-18 62c40.667 4.66699 81.5 17 122.5 37s77.167 47.5 108.5 82.5s52.333 75.833 63 122.5
c-46.667 -38 -96 -57 -148 -57c-44 0 -82.167 8.66699 -114.5 26s-57 41 -74 71s-25.5 63.333 -25.5 100c0 38.667 9.16699 73.334 27.5 104.001s43.666 54.834 75.999 72.501s68.5 26.5 108.5 26.5c44.667 0 84.667 -10.333 120 -31zM145.501 281.001
c25 -25.333 59.167 -38.002 102.5 -38.002c28 0 55.333 6.83301 82 20.5s50.667 31.167 72 52.5c-2.66699 64 -17.5 112.833 -44.5 146.5s-63.5 50.5 -109.5 50.5c-42 0 -75.833 -12.667 -101.5 -38s-38.5 -56.666 -38.5 -93.999c0 -41.333 12.5 -74.666 37.5 -99.999z" />
    <glyph glyph-name="colon" unicode=":" horiz-adv-x="168" 
d="M122 364c10.667 10.667 16 23.334 16 38.001s-5.33301 27.5 -16 38.5s-23.334 16.5 -38.001 16.5s-27.334 -5.5 -38.001 -16.5s-16 -23.833 -16 -38.5s5.33301 -27.334 16 -38.001s23.334 -16 38.001 -16s27.334 5.33301 38.001 16zM122.5 43
c10.333 10.667 15.5 23.334 15.5 38.001c0 15.333 -5.16699 28.333 -15.5 39s-23.166 16 -38.499 16c-14.667 0 -27.334 -5.33301 -38.001 -16s-16 -23.667 -16 -39c0 -14.667 5.33301 -27.334 16 -38.001s23.334 -16 38.001 -16c15.333 0 28.166 5.33301 38.499 16z" />
    <glyph glyph-name="semicolon" unicode=";" horiz-adv-x="174" 
d="M128 364c10.667 10.667 16 23.334 16 38.001s-5.33301 27.5 -16 38.5s-23.334 16.5 -38.001 16.5c-15.333 0 -28.333 -5.5 -39 -16.5s-16 -23.833 -16 -38.5s5.33301 -27.334 16 -38.001s23.667 -16 39 -16c14.667 0 27.334 5.33301 38.001 16zM50 119.5
c-10.667 -11 -16 -23.834 -16 -38.501c0 -14 4.5 -26 13.5 -36s19.833 -15.667 32.5 -17c-1.33301 -17.333 -7 -32.333 -17 -45s-24.333 -25.667 -43 -39l21 -37c28.667 14.667 52.834 37.834 72.501 69.501s29.5 63.167 29.5 94.5c0 19.333 -5.16699 35 -15.5 47
s-23.5 18 -39.5 18c-14.667 0 -27.334 -5.5 -38.001 -16.5z" />
    <glyph glyph-name="less" unicode="&#x3c;" horiz-adv-x="329" 
d="M309 80l-204 165l204 165l-23 60l-256 -200v-50l256 -201z" />
    <glyph glyph-name="equal" unicode="=" horiz-adv-x="502" 
d="M464 380h-434l9 -61h433zM464 192h-434l9 -61h433z" />
    <glyph glyph-name="greater" unicode="&#x3e;" horiz-adv-x="329" 
d="M299 270l-256 200l-23 -60l204 -165l-204 -165l23 -61l256 201v50z" />
    <glyph glyph-name="question" unicode="?" horiz-adv-x="412" 
d="M97.5 687.5c-26.333 -9.66699 -55.499 -24.833 -87.499 -45.5l10 -69c30 20.667 57.833 36 83.5 46s53.834 15 84.501 15c38 0 66.667 -8.16699 86 -24.5s29 -41.833 29 -76.5s-15.833 -66.667 -47.5 -96s-73.834 -52.333 -126.501 -69l8 -196l58 -23l10 179
c53.333 24.667 96.166 55.834 128.499 93.501s48.5 75.167 48.5 112.5c0 51.333 -16 92.166 -48 122.499s-79.667 45.5 -143 45.5c-36 0 -67.167 -4.83301 -93.5 -14.5zM125.501 91.501c-10.333 -10.333 -15.5 -22.835 -15.5 -37.502
c0 -15.333 5.16699 -28.166 15.5 -38.499s22.833 -15.5 37.5 -15.5c15.333 -0 28.333 5.33301 39 16s16 23.334 16 38.001s-5.33301 27.167 -16 37.5s-23.667 15.5 -39 15.5c-14.667 0 -27.167 -5.16699 -37.5 -15.5z" />
    <glyph glyph-name="at" unicode="@" horiz-adv-x="764" 
d="M518 415l-73.001 0.00195312c-39.333 0 -76.166 -8.33301 -110.499 -25s-62 -40.334 -83 -71.001s-31.5 -65.667 -31.5 -105c0 -46 14 -82.333 42 -109s69.333 -40 124 -40c16 0 32.333 3 49 9s31.667 13.333 45 22c19.333 -21.333 46.333 -32 81 -32
c52.667 0 94.334 20.667 125.001 62s46 101 46 179c0 55.333 -13.167 105.166 -39.5 149.499s-63 79 -110 104s-100.5 37.5 -160.5 37.5c-78 0 -146.5 -17 -205.5 -51s-104.333 -80 -136 -138s-47.5 -121.667 -47.5 -191c0 -62 15.167 -117.5 45.5 -166.5
s70.166 -87 119.499 -114s101.666 -40.5 156.999 -40.5c76 0 141 14 195 42l-20 59c-21.333 -11.333 -46.833 -20 -76.5 -26s-58.834 -9 -87.501 -9c-47.333 0 -90.666 10.333 -129.999 31s-70.5 50.5 -93.5 89.5s-34.5 84.167 -34.5 135.5
c0 62.667 14.333 118.167 43 166.5s66.834 85.5 114.501 111.5s99.167 39 154.5 39c48.667 0 91.5 -10 128.5 -30s65.5 -47.833 85.5 -83.5s30 -76.5 30 -122.5c0 -52.667 -9 -94.667 -27 -126s-41 -47 -69 -47c-14 0 -26.167 4.66699 -36.5 14s-14.5 24 -12.5 44l24 202z
M316.499 151.502c-15 17.667 -22.501 38.5 -22.501 62.5c0 30 6.83301 56 20.5 78s32 38.833 55 50.5s48.167 17.5 75.5 17.5h31l-22 -171c-0.666992 -3.33301 -1 -8 -1 -14c0 -5.33301 0.666992 -11.333 2 -18c-6.66699 -10 -16.167 -17.833 -28.5 -23.5
s-26.166 -8.5 -41.499 -8.5c-30.667 0 -53.5 8.83301 -68.5 26.5z" />
    <glyph glyph-name="A" unicode="A" horiz-adv-x="609" 
d="M262 680l-252 -680h77l71 193h287l76 -200l78 13l-261 674h-76zM422 257h-242l119 319z" />
    <glyph glyph-name="B" unicode="B" horiz-adv-x="590" 
d="M489 46c46 30.667 69 78.999 69 144.999c0 44 -11.5 80.333 -34.5 109s-55.167 50 -96.5 64c28 16 50.667 35.167 68 57.5s26 48.5 26 78.5c0 64.667 -21 110.834 -63 138.501s-100.667 41.5 -176 41.5h-189v-680h213c76 -0 137 15.333 183 46zM400.5 588.999
c27 -16 40.499 -45.998 40.499 -89.998c0 -40.667 -16.167 -69.834 -48.5 -87.501s-75.166 -26.834 -128.499 -27.501h-92v229h107c54 0 94.5 -8 121.5 -24zM434.999 288.001c28.667 -21.333 43 -54.333 43 -99c0 -82 -57.667 -123 -173 -123h-133v254h143
c51.333 0 91.333 -10.667 120 -32z" />
    <glyph glyph-name="C" unicode="C" horiz-adv-x="557" 
d="M452 683.5c-34.667 7 -64.3301 10.4951 -88.9971 10.4951c-64 0 -120.333 -15.667 -169 -47s-86 -74.166 -112 -128.499s-39 -115.166 -39 -182.499c0 -64 12 -122.667 36 -176s59.667 -95.666 107 -126.999s104.333 -47 171 -47c28.667 0 60.167 3.83301 94.5 11.5
s61.833 16.834 82.5 27.501l-30 60c-20.667 -9.33301 -42.834 -16.666 -66.501 -21.999s-51.5 -8 -83.5 -8c-46.667 0 -87.334 12.5 -122.001 37.5s-61 59 -79 102s-27 90.5 -27 142.5c0 55.333 10.333 105 31 149s49.167 78.333 85.5 103s76.5 37 120.5 37
c31.333 0 56.666 -2.16699 75.999 -6.5s42.333 -11.5 69 -21.5l25 57c-19.333 12 -46.333 21.5 -81 28.5z" />
    <glyph glyph-name="D" unicode="D" horiz-adv-x="671" 
d="M490.5 45c45.667 30 80.166 70.833 103.499 122.5s35 110.5 35 176.5c0 100 -24.667 181 -74 243s-124 93 -224 93h-238v-680h232c64.667 0 119.834 15 165.501 45zM495.499 539c36.333 -49.333 54.502 -114.666 54.502 -195.999
c0 -56.667 -9.33301 -105.834 -28 -147.501s-44.834 -73.667 -78.501 -96s-72.834 -33.5 -117.501 -33.5h-154v547h163c70.667 0 124.167 -24.667 160.5 -74z" />
    <glyph glyph-name="E" unicode="E" horiz-adv-x="523" 
d="M503 0l-10 63h-321v255h244l-9 59h-235v244h301l-9 59h-371v-680h410z" />
    <glyph glyph-name="F" unicode="F" horiz-adv-x="481" 
d="M397 373h-225v248h289l-10 59h-358v-680h79v314h234z" />
    <glyph glyph-name="G" unicode="G" horiz-adv-x="627" 
d="M499 291l-0.000976562 -216.003c-37.333 -13.333 -76 -20 -116 -20c-48.667 0 -92.5 11.5 -131.5 34.5s-69.667 55.833 -92 98.5s-33.5 92.334 -33.5 149.001c0 59.333 12.5 110.833 37.5 154.5s58 77 99 100s85.167 34.5 132.5 34.5c30.667 0 55.667 -2.16699 75 -6.5
s42.333 -11.5 69 -21.5l25 57c-19.333 12 -46.5 21.5 -81.5 28.5s-64.833 10.5 -89.5 10.5c-65.333 0 -124.666 -15.167 -177.999 -45.5s-95.333 -72.666 -126 -126.999s-46 -116.166 -46 -185.499c0 -66 14 -125.5 42 -178.5s67.833 -94.833 119.5 -125.5
s111.5 -46 179.5 -46c33.333 0 68 4.5 104 13.5s64.667 20.167 86 33.5l1 317h-219l-7 -59h150z" />
    <glyph glyph-name="H" unicode="H" horiz-adv-x="663" 
d="M570 0v680h-79v-305h-319v310l-79 -5v-680h79v311h319v-311h79z" />
    <glyph glyph-name="I" unicode="I" horiz-adv-x="264" 
d="M172 0v680h-79v-680h79z" />
    <glyph glyph-name="J" unicode="J" horiz-adv-x="255" 
d="M87 9c-4.66699 -12.667 -12.501 -22.999 -23.501 -30.999s-28.833 -16.333 -53.5 -25l31 -55c34.667 10.667 61.334 22.167 80.001 34.5s32 27.666 40 45.999s12 41.833 12 70.5v631h-79v-614c0 -25.333 -2.33301 -44.333 -7 -57z" />
    <glyph glyph-name="K" unicode="K" horiz-adv-x="609" 
d="M504 0l-255 327l-77 -81v-246h-79v680h79v-330l328 345l54 -47l-253 -265l298 -383h-95z" />
    <glyph glyph-name="L" unicode="L" horiz-adv-x="506" 
d="M488 63h-316v617h-79v-680h403z" />
    <glyph glyph-name="M" unicode="M" horiz-adv-x="763" 
d="M400 229l190 283v-512h80v680h-50l-236 -347l-244 347h-47v-680h79v514l201 -290z" />
    <glyph glyph-name="N" unicode="N" horiz-adv-x="700" 
d="M172 0v534l26 -45l346 -489h64v680h-80v-527l-41 67l-331 460h-63v-680h79z" />
    <glyph glyph-name="O" unicode="O" horiz-adv-x="725" 
d="M199 647c-48.667 -31.333 -86.8311 -73.999 -114.498 -127.999s-41.5 -114.667 -41.5 -182s13.667 -127.666 41 -180.999s65 -95 113 -125s102.333 -45 163 -45c61.333 0.666992 116.666 16.667 165.999 48s87.833 74.166 115.5 128.499s41.5 115.166 41.5 182.499
s-13.667 127.666 -41 180.999s-65.333 95 -114 125s-103.334 45 -164.001 45c-61.333 -1.33301 -116.333 -17.666 -165 -48.999zM157.003 486.501c20.667 43.667 49.167 78 85.5 103s77.5 37.5 123.5 37.5c44.667 0 84.5 -12.167 119.5 -36.5s62.5 -58 82.5 -101
s30 -91.5 30 -145.5c0 -55.333 -10.333 -105 -31 -149s-49.167 -78.333 -85.5 -103s-77.5 -37 -123.5 -37c-44.667 0 -84.5 12.167 -119.5 36.5s-62.5 58 -82.5 101s-30 91.5 -30 145.5c0 55.333 10.333 104.833 31 148.5z" />
    <glyph glyph-name="P" unicode="P" horiz-adv-x="562" 
d="M172 257h95.999c76 0 138.333 18.167 187 54.5s73.334 89.833 74.001 160.5c0 71.333 -22.667 123.833 -68 157.5s-106.333 50.5 -183 50.5h-185v-680h79v257zM404.999 580.5c28.667 -21.667 43 -58.833 43 -111.5c-1.33301 -49.333 -18 -85.833 -50 -109.5
s-74.333 -35.5 -127 -35.5h-99v289h107c55.333 0 97.333 -10.833 126 -32.5z" />
    <glyph glyph-name="Q" unicode="Q" horiz-adv-x="725" 
d="M657 198.5c-17.333 -45 -41.668 -83.832 -73.001 -116.499l63 -61l-47 -41l-64 61c-52.667 -36 -111.334 -54.333 -176.001 -55c-60.667 0 -115 15 -163 45s-85.667 71.667 -113 125s-41 113.666 -41 180.999s13.833 128 41.5 182s65.834 96.667 114.501 128
s103.667 47.666 165 48.999c60.667 0 115.334 -15 164.001 -45s86.667 -71.667 114 -125s41 -113.666 41 -180.999c0 -52.667 -8.66699 -101.5 -26 -146.5zM480.998 92.001l-101 95l55 41l94 -92c22 26 39 56.833 51 92.5s18 74.167 18 115.5c0 54 -10 102.5 -30 145.5
s-47.5 76.667 -82.5 101s-74.833 36.5 -119.5 36.5c-46 0 -87.167 -12.5 -123.5 -37.5s-64.833 -59.333 -85.5 -103s-31 -93.167 -31 -148.5c0 -54 10 -102.5 30 -145.5s47.5 -76.667 82.5 -101s74.833 -36.5 119.5 -36.5c46 0 87 12.333 123 37z" />
    <glyph glyph-name="R" unicode="R" horiz-adv-x="592" 
d="M93 0h79v279h96c23.333 0 47 1.33301 71 4l156 -283h87l-173 304c36.667 15.333 65.667 37.833 87 67.5s32.333 66.5 33 110.5c0 68 -22.667 118 -68 150s-106.333 48 -183 48h-185v-680zM404 583.5c29.333 -19.667 44 -54.5 44 -104.5
c-0.666992 -48 -17.167 -82.5 -49.5 -103.5s-74.833 -31.5 -127.5 -31.5h-99v269h107c54 0 95.667 -9.83301 125 -29.5z" />
    <glyph glyph-name="S" unicode="S" horiz-adv-x="513" 
d="M139 1c38.667 -9.33301 72.666 -14.002 101.999 -14.002c49.333 0 92.166 7.66699 128.499 23s64 36.333 83 63s28.5 57.334 28.5 92.001c0 32 -6.66699 59.5 -20 82.5s-32.833 43.5 -58.5 61.5s-59.5 36.667 -101.5 56c-46.667 21.333 -82 39 -106 53
s-42.5 29.5 -55.5 46.5s-19.5 37.5 -19.5 61.5c0 32 13.167 57 39.5 75s61.5 27 105.5 27c29.333 0 54.166 -3 74.499 -9s42.833 -14.667 67.5 -26l27 61c-23.333 12 -50.166 22 -80.499 30s-61.5 12 -93.5 12c-43.333 0 -81.5 -7.5 -114.5 -22.5s-58.333 -35.5 -76 -61.5
s-26.5 -55 -26.5 -87c0 -45.333 14.5 -83.666 43.5 -114.999s74.5 -60.333 136.5 -87c43.333 -18.667 77.5 -35.167 102.5 -49.5s44.167 -30.333 57.5 -48s20 -38.167 20 -61.5c0 -32.667 -14.167 -59.167 -42.5 -79.5s-68.5 -30.5 -120.5 -30.5
c-29.333 0 -59.166 4.16699 -89.499 12.5s-56.166 17.833 -77.499 28.5l-19 -62c18 -12 46.333 -22.667 85 -32z" />
    <glyph glyph-name="T" unicode="T" horiz-adv-x="563" 
d="M544 680h-534v-62h228v-618h80v618h235z" />
    <glyph glyph-name="U" unicode="U" horiz-adv-x="682" 
d="M83 680v-439.001c0 -48.667 10.5 -92 31.5 -130s51 -68 90 -90s84.5 -33 136.5 -33s97.5 10.833 136.5 32.5s69 51.834 90 90.501s31.5 82 31.5 130v439h-80v-430c0 -58 -16 -105 -48 -141s-75.333 -54 -130 -54c-54 0 -97.333 18 -130 54s-49 83 -49 141v430h-79z" />
    <glyph glyph-name="V" unicode="V" horiz-adv-x="609" 
d="M88 687l-78 -12l261 -675h76l252 680h-77l-212 -575z" />
    <glyph glyph-name="W" unicode="W" horiz-adv-x="857" 
d="M847 680l-186 -680h-76l-156 562l-147 -562h-76l-196 675l78 12l157 -579l147 572h77l154 -572l148 572h76z" />
    <glyph glyph-name="X" unicode="X" horiz-adv-x="589" 
d="M95 0l201 287l183 -287h86l-215 333l229 347h-85l-185 -290l-207 307l-66 -33l218 -320l-244 -344h85z" />
    <glyph glyph-name="Y" unicode="Y" horiz-adv-x="563" 
d="M314 0l1 277l238 403h-85l-193 -329l-191 345l-74 -32l225 -391v-273h79z" />
    <glyph glyph-name="Z" unicode="Z" horiz-adv-x="562" 
d="M523 63h-413l429 555l-7 62h-482l12 -62h389l-428 -555l8 -63h499z" />
    <glyph glyph-name="bracketleft" unicode="[" horiz-adv-x="296" 
d="M100 -88h186l-11 58h-100v667h100l11 59h-186v-784z" />
    <glyph glyph-name="backslash" unicode="\" horiz-adv-x="402" 
d="M392 0l-305 710l-77 -4l306 -710z" />
    <glyph glyph-name="bracketright" unicode="]" horiz-adv-x="295" 
d="M195 696h-185l11 -59h98v-667h-98l-11 -58h185v784z" />
    <glyph glyph-name="asciicircum" unicode="^" horiz-adv-x="422" 
d="M211 323l122 -180h79l-169 247h-64l-169 -247h79z" />
    <glyph glyph-name="underscore" unicode="_" horiz-adv-x="440" 
d="M401 63h-371l9 -63h371z" />
    <glyph glyph-name="grave" unicode="`" horiz-adv-x="161" 
d="M98 589l53 15l-54 141h-87z" />
    <glyph glyph-name="a" unicode="a" horiz-adv-x="488" 
d="M170.5 420.5c20.333 5.66699 44.834 8.49902 73.501 8.49902c36.667 0 63.5 -10.333 80.5 -31s25.5 -49 25.5 -85v-27h-125c-52.667 0 -95 -13 -127 -39s-48 -62.333 -48 -109c0 -44.667 14.167 -81 42.5 -109s69.5 -42 123.5 -42c25.333 0 51.333 6.16699 78 18.5
s49 26.833 67 43.5l10 -49h59v335c0 31.333 -8 59.333 -24 84s-38.333 44 -67 58s-61.334 21 -98.001 21c-22 0 -49.833 -4 -83.5 -12s-59.167 -18 -76.5 -30l23 -60c24 10.667 46.167 18.834 66.5 24.501zM149.501 205.499c17.667 18.333 42.167 27.5 73.5 27.5h128v-110
c-18 -21.333 -38.833 -38.666 -62.5 -51.999s-48.5 -20 -74.5 -20c-30 0 -52.667 8.66699 -68 26s-23 37.666 -23 60.999c0 26.667 8.83301 49.167 26.5 67.5z" />
    <glyph glyph-name="b" unicode="b" 
d="M434.5 427.5c41 -47 61.499 -109.167 61.499 -186.5c0 -49.333 -9.5 -93.166 -28.5 -131.499s-46 -68.333 -81 -90s-76.167 -32.5 -123.5 -32.5c-20 0 -41.167 4.16699 -63.5 12.5s-43.166 20.166 -62.499 35.499l-17 -35h-47v696l79 10v-245c18 12 37 21.167 57 27.5
s38.667 9.5 56 9.5c72 0 128.5 -23.5 169.5 -70.5zM375.999 106c26 34.667 39.334 79.332 40.001 133.999c0 57.333 -12.833 103.5 -38.5 138.5s-62.834 52.5 -111.501 52.5c-24 0 -45 -3.66699 -63 -11s-35 -18.666 -51 -33.999v-289c16 -14 33 -24.667 51 -32
s38.667 -11 62 -11c48 0 85 17.333 111 52z" />
    <glyph glyph-name="c" unicode="c" horiz-adv-x="458" 
d="M338 62c-18.667 -5.33301 -42.667 -8.00195 -72 -8.00195c-48.667 0 -86.334 17.667 -113.001 53s-40 81.333 -40 138c0.666992 54 15 98.5 43 133.5s66 52.5 114 52.5c28 0 50.833 -2.66699 68.5 -8s39.834 -13.666 66.501 -24.999l24 56
c-19.333 12.667 -44.833 23.167 -76.5 31.5s-58.5 12.5 -80.5 12.5c-48 0 -90 -10.833 -126 -32.5s-63.833 -51.667 -83.5 -90s-29.5 -82.166 -29.5 -131.499c0 -50 9.33301 -94.5 28 -133.5s45.667 -69.333 81 -91s77 -32.5 125 -32.5c22 0 49 4.16699 81 12.5
s58 18.833 78 31.5l-25 57c-23.333 -12 -44.333 -20.667 -63 -26z" />
    <glyph glyph-name="d" unicode="d" horiz-adv-x="530" 
d="M458 705v-704.998h-48l-15 37c-20 -16 -41.667 -28.333 -65 -37s-45.333 -13 -66 -13c-72 0 -128.5 23.5 -169.5 70.5s-61.5 109.5 -61.5 187.5c0 49.333 9.5 93.166 28.5 131.499s46 68.166 81 89.499s76.167 32 123.5 32c17.333 0 35.833 -3.33301 55.5 -10
s38.5 -15.667 56.5 -27v235zM326.5 65.502c18.333 7.66699 35.499 19.5 51.499 35.5v287c-32 28.667 -70 43 -114 43c-48 0 -85 -17.167 -111 -51.5s-39.333 -78.833 -40 -133.5c0 -58 12.833 -104.5 38.5 -139.5s62.834 -52.5 111.501 -52.5c24 0 45.167 3.83301 63.5 11.5
z" />
    <glyph glyph-name="e" unicode="e" horiz-adv-x="499" 
d="M415.5 424c-33.667 49.333 -85.8311 73.999 -156.498 73.999c-46.667 0 -87.167 -10.833 -121.5 -32.5s-60.333 -51.667 -78 -90s-26.5 -82.166 -26.5 -131.499c0 -78 21.667 -140.333 65 -187s106.333 -70 189 -70c33.333 0 63.666 4.5 90.999 13.5
s54.666 21.167 81.999 36.5l-25 58c-30 -14.667 -55.833 -25.334 -77.5 -32.001s-45.5 -10 -71.5 -10c-57.333 0 -99.833 15.833 -127.5 47.5s-42.5 74.834 -44.5 129.501h352c0 80 -16.833 144.667 -50.5 194zM158.503 391.499c23.667 26.333 56.166 39.501 97.499 39.501
c76.667 0 120.667 -49 132 -147h-272c4.66699 45.333 18.834 81.166 42.501 107.499z" />
    <glyph glyph-name="f" unicode="f" horiz-adv-x="299" 
d="M90 417l-0.00195312 -417h79v417h115l-26 60h-89v71c0 55.333 22.667 83 68 83c6.66699 0 14.334 -1 23.001 -3s15.667 -4.33301 21 -7l18 64c-8.66699 4.66699 -19.667 8.66699 -33 12s-26.666 5 -39.999 5c-42 0 -75.167 -13.5 -99.5 -40.5s-36.5 -63.167 -36.5 -108.5
v-76h-74l1 -60h73z" />
    <glyph glyph-name="g" unicode="g" horiz-adv-x="526" 
d="M458 485l-0.00195312 -537.997c0 -34 -8.66699 -64.333 -26 -91s-42.666 -47.667 -75.999 -63s-72.333 -23 -117 -23c-22.667 0 -51.5 4.16699 -86.5 12.5s-62.5 18.833 -82.5 31.5l24 58c26 -12.667 49.167 -22 69.5 -28s44.5 -9 72.5 -9c42 0 76.167 9.66699 102.5 29
s39.5 47.333 39.5 84v77c-18 -12 -37.167 -21.333 -57.5 -28s-39.166 -10 -56.499 -10c-72 0 -128.5 23.5 -169.5 70.5s-61.5 109.5 -61.5 187.5c0 49.333 9.5 93.166 28.5 131.499s46 68.166 81 89.499s76.167 32 123.5 32c20 0 41.333 -4.33301 64 -13
s43.667 -20.334 63 -35.001l17 35h48zM326.498 65.5029c18.333 7.66699 35.499 19.5 51.499 35.5v287c-32 28.667 -70 43 -114 43c-48 0 -85 -17.167 -111 -51.5s-39.333 -78.833 -40 -133.5c0 -58 12.833 -104.5 38.5 -139.5s62.834 -52.5 111.501 -52.5
c24 0 45.167 3.83301 63.5 11.5z" />
    <glyph glyph-name="h" unicode="h" horiz-adv-x="539" 
d="M442.5 453.5c25 -31 37.5 -72.5 37.5 -124.5v-328h-79v317c0 36 -6.66699 64 -20 84s-35.666 30 -66.999 30c-24 0 -51.167 -8.33301 -81.5 -25s-57.166 -37.667 -80.499 -63v-344h-79v696l79 10v-283c23.333 22.667 51.166 41.167 83.499 55.5s63.166 21.5 92.499 21.5
c51.333 0 89.5 -15.5 114.5 -46.5z" />
    <glyph glyph-name="i" unicode="i" horiz-adv-x="205" 
d="M140 597.5c10.667 10.333 16 22.8311 16 37.498s-5.33301 27.334 -16 38.001s-23.334 16 -38.001 16c-15.333 0 -28 -5.16699 -38 -15.5s-15 -23.166 -15 -38.499s5 -28 15 -38s22.667 -15 38 -15c14.667 0 27.334 5.16699 38.001 15.5zM143 -0.00195312v485h-80v-485h80
z" />
    <glyph glyph-name="j" unicode="j" horiz-adv-x="228" 
d="M76.5 597c-10.333 10 -15.5 22.6689 -15.5 38.002s5.16699 28.166 15.5 38.499s23.166 15.5 38.499 15.5c14.667 0 27.334 -5.33301 38.001 -16s16 -23.334 16 -38.001s-5.33301 -27.167 -16 -37.5s-23.334 -15.5 -38.001 -15.5c-15.333 0 -28.166 5 -38.499 15z
M155 -29.998c0 -36.667 -2.83203 -65.6689 -8.49902 -87.002s-17.334 -39.666 -35.001 -54.999s-44.5 -29 -80.5 -41l-31 57c22.667 8 39.334 17 50.001 27s17.667 22.333 21 37s4.66602 35.334 3.99902 62.001v515h80v-515z" />
    <glyph glyph-name="k" unicode="k" horiz-adv-x="472" 
d="M152 0v182l67 67l160 -249h93l-200 301l148 147l-48 50l-220 -221v429l-79 -10v-696h79z" />
    <glyph glyph-name="l" unicode="l" horiz-adv-x="224" 
d="M152 0v706l-79 -10v-696h79z" />
    <glyph glyph-name="m" unicode="m" horiz-adv-x="818" 
d="M724 453.5c24 -31 35.999 -72.498 35.999 -124.498v-328h-79v317c0 36 -6 64 -18 84s-32.667 30 -62 30c-20.667 0 -44.5 -7.5 -71.5 -22.5s-52.167 -34.167 -75.5 -57.5c0.666992 -4.66699 1 -12.334 1 -23.001v-328h-79v317c0 36 -6 64 -18 84s-32.667 30 -62 30
c-21.333 0 -46.5 -8.33301 -75.5 -25s-55.167 -37.667 -78.5 -63v-344h-79v485h59l13 -69c23.333 24 51.166 44 83.499 60s62.833 24 91.5 24c32.667 0 59.834 -7.33301 81.501 -22s37.834 -35.334 48.501 -62.001c23.333 24 51 44 83 60s62.333 24 91 24
c49.333 0 86 -15.5 110 -46.5z" />
    <glyph glyph-name="n" unicode="n" 
d="M142 344c23.333 25.333 50.168 46.333 80.501 63s57.5 25 81.5 25c31.333 0 53.666 -10 66.999 -30s20 -48 20 -84v-317h79v328c0 52 -12.5 93.5 -37.5 124.5s-63.167 46.5 -114.5 46.5c-30.667 0 -63 -8 -97 -24s-62.667 -36 -86 -60l-13 69h-59v-485h79v344z" />
    <glyph glyph-name="o" unicode="o" horiz-adv-x="536" 
d="M474.5 109.5c-19.667 -38.333 -47.8311 -68.333 -84.498 -90s-79.334 -32.5 -128.001 -32.5c-46.667 0 -87.334 10.833 -122.001 32.5s-61.167 52 -79.5 91s-27.5 83.5 -27.5 133.5c0.666992 49.333 10.5 93.166 29.5 131.499s46.5 68.333 82.5 90s78 32.5 126 32.5
c72.667 0 129.667 -23.167 171 -69.5s62 -108.833 62 -187.5c0 -49.333 -9.83301 -93.166 -29.5 -131.499zM380.003 106.5c28 35 42.333 79.5 43 133.5c0 57.333 -13.333 103.5 -40 138.5s-64.334 52.5 -113.001 52.5c-48 0 -86 -17.5 -114 -52.5s-42.333 -79.5 -43 -133.5
c0 -56.667 13.333 -102.667 40 -138s64.334 -53 113.001 -53c48 0 86 17.5 114 52.5z" />
    <glyph glyph-name="p" unicode="p" horiz-adv-x="525" 
d="M430.5 427.5c41 -47 61.5 -109.168 61.5 -186.501c0 -49.333 -9.5 -93.166 -28.5 -131.499s-46 -68.333 -81 -90s-76.167 -32.5 -123.5 -32.5c-35.333 0 -72.333 12.333 -111 37v-232l-79 -11v704h47l17 -34c20 14.667 41.333 26.167 64 34.5s44 12.5 64 12.5
c72 0 128.5 -23.5 169.5 -70.5zM372 105.999c26 34.667 39.334 79.332 40.001 133.999c0 57.333 -12.833 103.5 -38.5 138.5s-62.834 52.5 -111.501 52.5c-24 0 -45 -3.66699 -63 -11s-35 -18.666 -51 -33.999v-289c16 -14 33 -24.667 51 -32s38.667 -11 62 -11
c48 0 85 17.333 111 52z" />
    <glyph glyph-name="q" unicode="q" horiz-adv-x="526" 
d="M458 485v-693.998l-80 -10v244c-18 -12 -37.167 -21.333 -57.5 -28s-39.166 -10 -56.499 -10c-72 0 -128.5 23.5 -169.5 70.5s-61.5 109.5 -61.5 187.5c0 49.333 9.5 93.166 28.5 131.499s46 68.166 81 89.499s76.167 32 123.5 32c20 0 41.167 -4.16699 63.5 -12.5
s43.166 -19.833 62.499 -34.5l18 34h48zM326.5 65.502c18.333 7.66699 35.499 19.5 51.499 35.5v287c-32 28.667 -70 43 -114 43c-48 0 -85 -17.167 -111 -51.5s-39.333 -78.833 -40 -133.5c0 -58 12.833 -104.5 38.5 -139.5s62.834 -52.5 111.501 -52.5
c24 0 45.167 3.83301 63.5 11.5z" />
    <glyph glyph-name="r" unicode="r" horiz-adv-x="324" 
d="M142 334c22.667 23.333 50.332 43.834 82.999 61.501s62.334 26.5 89.001 26.5l-19 63c-23.333 0 -50.333 -8.33301 -81 -25s-57 -34.334 -79 -53.001l-25 78h-47v-485h79v334z" />
    <glyph glyph-name="s" unicode="s" horiz-adv-x="420" 
d="M112 -2c31.333 -7.33301 58.3311 -11 80.998 -11c62.667 0 110.834 12.333 144.501 37s50.5 59.334 50.5 104.001c0 62.667 -54.333 114 -163 154c-36 12 -63.667 24.333 -83 37s-29.333 27.667 -30 45c0 20.667 9.5 37.5 28.5 50.5s43.5 19.5 73.5 19.5
c24.667 0 46.667 -3 66 -9s40 -14 62 -24l25 54c-17.333 12.667 -41.166 23 -71.499 31s-56.833 12 -79.5 12c-56 0 -100.167 -12.167 -132.5 -36.5s-48.5 -57.833 -48.5 -100.5c0 -35.333 14.667 -64.333 44 -87s67.333 -41.667 114 -57c80 -26.667 120 -58 120 -94
c0 -22.667 -10.667 -40.334 -32 -53.001s-50.333 -19 -87 -19c-42 0 -85.667 11.333 -131 34l-25 -57c18 -12.667 42.667 -22.667 74 -30z" />
    <glyph glyph-name="t" unicode="t" horiz-adv-x="320" 
d="M166 477v145.999l-79 -22v-124h-71l1 -60h70v-291c0 -45.333 12.167 -80.166 36.5 -104.499s57.5 -36.5 99.5 -36.5c25.333 0 50 5.66699 74 17l-18 62c-16.667 -6.66699 -31.334 -10 -44.001 -10c-23.333 0 -40.666 7.33301 -51.999 22s-17 35 -17 61v280h114l-26 60
h-88z" />
    <glyph glyph-name="u" unicode="u" 
d="M387 142c-23.333 -25.333 -50.168 -46.333 -80.501 -63s-57.5 -25 -81.5 -25c-31.333 0 -53.666 10 -66.999 30s-20 48 -20 84v317h-79v-328c0 -52 12.5 -93.5 37.5 -124.5s63.167 -46.5 114.5 -46.5c30.667 0 63 8 97 24s62.667 36 86 60l13 -70h59v486h-79v-344z" />
    <glyph glyph-name="v" unicode="v" horiz-adv-x="456" 
d="M265 0l181 485h-80l-139 -378l-145 394l-72 -30l178 -471h77z" />
    <glyph glyph-name="w" unicode="w" horiz-adv-x="672" 
d="M519 0l143 485h-80l-102 -372l-108 372h-80l-102 -372l-108 387l-72 -30l141 -470h77l103 369l110 -369h78z" />
    <glyph glyph-name="x" unicode="x" horiz-adv-x="450" 
d="M99 0l119 187l120 -187h87l-152 233l167 252h-87l-124 -192l-131 206l-71 -30l146 -223l-163 -246h89z" />
    <glyph glyph-name="y" unicode="y" horiz-adv-x="456" 
d="M126.5 -125.5c-15 -10.333 -38.167 -22.832 -69.5 -37.499l24 -57c35.333 7.33301 66.5 21.666 93.5 42.999s46.167 47 57.5 77l214 585h-80l-139 -375l-147 390l-70 -30l180 -467l-30 -83c-7.33301 -20 -18.5 -35.167 -33.5 -45.5z" />
    <glyph glyph-name="z" unicode="z" horiz-adv-x="433" 
d="M408 485h-363l19 -63h246l-289 -381l10 -41h379l-10 62h-282l294 381z" />
    <glyph glyph-name="braceleft" unicode="{" horiz-adv-x="272" 
d="M191 349c8.66699 16.667 12.999 38.998 12.999 66.998c0 19.333 -6 43 -18 71s-18 50.333 -18 67c0 12.667 5.33301 23.5 16 32.5s26.334 13.5 47.001 13.5h24l7 59h-26c-44 0 -77.5 -9 -100.5 -27s-34.5 -44 -34.5 -78c0 -22 5.33301 -45.667 16 -71
c10 -26.667 15 -51 15 -73s-6.5 -40.167 -19.5 -54.5s-28.5 -21.5 -46.5 -21.5h-36v-52h36c18 0 34 -6.66699 48 -20s21 -30.333 21 -51c0 -18.667 -5.66699 -42 -17 -70c-12 -28 -18 -52 -18 -72c0 -74 45.333 -111 136 -111h26l-7 59h-24c-20 0 -35.5 4.5 -46.5 13.5
s-16.5 20.167 -16.5 33.5c0 16.667 6 39.334 18 68.001c12 28 18 51.333 18 70c0 25.333 -4.83301 47.5 -14.5 66.5s-23.5 33.167 -41.5 42.5c20 8.66699 34.333 21.334 43 38.001z" />
    <glyph glyph-name="bar" unicode="|" horiz-adv-x="264" 
d="M93 711v-711l78 -6v711z" />
    <glyph glyph-name="braceright" unicode="}" horiz-adv-x="271" 
d="M81 267.5c-9.33301 -17 -13.999 -39.167 -13.999 -66.5c0 -19.333 6 -43 18 -71c12.667 -27.333 19 -49.333 19 -66c0 -12.667 -5.33301 -23.667 -16 -33s-26.334 -14 -47.001 -14h-24l-7 -60h26c44 0 77.5 9.16699 100.5 27.5s34.5 44.833 34.5 79.5
c0 21.333 -5.33301 45 -16 71s-16 50 -16 72s6.5 40.333 19.5 55s28.5 22 46.5 22h36v51h-36c-18 0 -34 6.83301 -48 20.5s-21 30.5 -21 50.5c0 19.333 6 43 18 71c12 27.333 18 51 18 71c0 74 -45.333 111 -136 111h-26l7 -59h24c20 0 35.5 -4.5 46.5 -13.5
s16.5 -20.167 16.5 -33.5c0 -17.333 -6.33301 -40 -19 -68c-12 -28 -18 -51 -18 -69c0 -26 5 -48.5 15 -67.5s24.333 -33.167 43 -42.5c-20 -8.66699 -34.667 -21.5 -44 -38.5z" />
    <glyph glyph-name="asciitilde" unicode="~" horiz-adv-x="407" 
d="M93 197c2.66699 26.667 17.001 40.001 43.001 40.001c18 0 39 -7 63 -21c23.333 -14.667 48.666 -22 75.999 -22c30 0 54.5 8.66699 73.5 26s28.5 45.333 28.5 84h-65c-0.666992 -14.667 -5 -25.334 -13 -32.001s-17.667 -10 -29 -10c-17.333 0 -37 7.33301 -59 22
c-21.333 14.667 -47.666 22 -78.999 22c-30.667 0 -55.334 -8.66699 -74.001 -26s-28 -45 -28 -83h63z" />
    <glyph glyph-name="uni00A0" unicode="&#xa0;" horiz-adv-x="236" 
 />
    <glyph glyph-name="exclamdown" unicode="&#xa1;" horiz-adv-x="169" 
d="M123 609.5c10.667 11 16 23.833 16 38.5s-5.33301 27.334 -16 38.001s-23.334 16 -38.001 16s-27.5 -5.33301 -38.5 -16s-16.5 -23.334 -16.5 -38.001s5.5 -27.5 16.5 -38.5s23.833 -16.5 38.5 -16.5s27.334 5.5 38.001 16.5zM114 478l-58 27l-16 -505h90z" />
    <glyph glyph-name="cent" unicode="&#xa2;" horiz-adv-x="458" 
d="M426 31c-14 -9.33301 -31.167 -17.3311 -51.5 -23.998s-40.833 -11.667 -61.5 -15v-104h-70v100c-65.333 5.33301 -116.666 31.166 -153.999 77.499s-56 105.833 -56 178.5c0.666992 70 19.667 128 57 174s88.333 72.333 153 79v100l69 10v-113
c21.333 -3.33301 42.666 -8.5 63.999 -15.5s39 -15.167 53 -24.5l-24 -56c-26.667 11.333 -48.834 19.666 -66.501 24.999s-40.5 8 -68.5 8c-48 0 -86 -17.5 -114 -52.5s-42.333 -79.5 -43 -133.5c0 -56.667 13.333 -102.667 40 -138s64.334 -53 113.001 -53
c29.333 0 53.333 2.66699 72 8s39.667 14 63 26z" />
    <glyph glyph-name="sterling" unicode="&#xa3;" horiz-adv-x="450" 
d="M440 0l-10 62.999h-255c20.667 24.667 31 64.667 31 120v137h159l-27 60h-132v150c0 56.667 22.667 85 68 85c11.333 0 26 -3.66699 44 -11l18 62c-8.66699 4.66699 -20 8.83398 -34 12.501s-27.333 5.5 -40 5.5c-42.667 0 -76 -14.167 -100 -42.5
s-36 -66.833 -36 -115.5v-146h-73l1 -60h72v-173c0 -56 -23.333 -84 -70 -84l7 -63h377z" />
    <glyph glyph-name="currency" unicode="&#xa4;" horiz-adv-x="673" 
d="M643 -11l-102 106c28.667 42 43.334 90.333 44.001 145c0 57.333 -14.333 107.333 -43 150l101 104l-45 56l-105 -106c-43.333 36 -94.333 54 -153 54c-58.667 -0.666992 -111 -19.334 -157 -56.001l-107 108l-46 -56l104 -105c-14 -20 -24.833 -42.5 -32.5 -67.5
s-11.5 -50.833 -11.5 -77.5c0 -55.333 14 -105.666 42 -150.999l-102 -104l46 -55l105 107c42.667 -35.333 92.667 -53.333 150 -54c30.667 0 59.667 4.83301 87 14.5s51.666 23.167 72.999 40.5l107 -108zM481.5 146.5c-15 -27.667 -35.499 -49.334 -61.499 -65.001
s-55 -23.5 -87 -23.5c-48.667 0 -87.834 17.667 -117.501 53s-44.5 80 -44.5 134c0 34 7.5 64.833 22.5 92.5s35.333 49.5 61 65.5s54.5 24 86.5 24s60.5 -8.16699 85.5 -24.5s44.167 -38.666 57.5 -66.999s20 -60.166 20 -95.499c0 -34.667 -7.5 -65.834 -22.5 -93.501z
" />
    <glyph glyph-name="yen" unicode="&#xa5;" horiz-adv-x="563" 
d="M503 249h-188l-1 -113h180l9 -61h-189v-75h-79v75h-166l-9 61h175v113h-166l-9 61h154l-204 354l74 32l191 -345l193 329h85l-219 -370h160z" />
    <glyph glyph-name="brokenbar" unicode="&#xa6;" horiz-adv-x="264" 
d="M93 711v-299l78 -6v299zM93 293v-293l78 -6v294z" />
    <glyph glyph-name="section" unicode="&#xa7;" horiz-adv-x="573" 
d="M522.5 176c-11.667 -22.667 -28.499 -41.9951 -50.499 -57.9951c6 -16.667 9 -36 9 -58c0 -34.667 -9.5 -65.5 -28.5 -92.5s-46.667 -48.167 -83 -63.5s-79.166 -23 -128.499 -23c-29.333 0 -63.333 4.66699 -102 14s-67 20 -85 32l19 62
c21.333 -10.667 47.166 -20.167 77.499 -28.5s60.166 -12.5 89.499 -12.5c52 0 92.167 10.167 120.5 30.5s42.5 47.166 42.5 80.499c0 23.333 -6.66699 43.666 -20 60.999s-32.5 33.166 -57.5 47.499s-59.167 30.833 -102.5 49.5c-62 26.667 -107.5 55.834 -136.5 87.501
s-43.5 70.167 -43.5 115.5c0 26 6 50.167 18 72.5s29 41.166 51 56.499c-6.66699 18 -10 38.333 -10 61c0 32 9 61 27 87s43.5 46.5 76.5 61.5s71.167 22.5 114.5 22.5c30.667 0 61.167 -4 91.5 -12s57.833 -18 82.5 -30l-27 -62c-22.667 11.333 -44.667 20 -66 26
s-47 9 -77 9c-44 0 -79.167 -9 -105.5 -27s-39.5 -42.667 -39.5 -74c0 -24 6.66699 -44.5 20 -61.5s32 -32.667 56 -47s59.333 -32.166 106 -53.499c63.333 -28.667 109 -57.334 137 -86.001s42 -66.334 42 -113.001c0 -26.667 -5.83301 -51.334 -17.5 -74.001z
M379.501 219.005c21 -12.667 38.5 -25.998 52.5 -39.998c20 19.333 30 42.666 30 69.999c0 23.333 -6.66699 43.666 -20 60.999s-32.5 33.166 -57.5 47.499s-59.167 30.833 -102.5 49.5c-60 26 -103.667 53.333 -131 82c-20.667 -17.333 -31 -40 -31 -68
c0 -24 6.5 -44.5 19.5 -61.5s31.667 -32.667 56 -47s59.5 -32.166 105.5 -53.499c31.333 -14 57.5 -27.333 78.5 -40z" />
    <glyph glyph-name="dieresis" unicode="&#xa8;" horiz-adv-x="283" 
d="M94 628.5c9.33301 9.66699 14 21.1689 14 34.502s-4.66699 24.666 -14 33.999s-21 14 -35 14c-13.333 0 -24.833 -4.83301 -34.5 -14.5s-14.5 -20.834 -14.5 -33.501c0 -13.333 4.83301 -24.833 14.5 -34.5s21.167 -14.5 34.5 -14.5c14 0 25.667 4.83301 35 14.5z
M259 628.502c9.33301 9.66699 14.002 21.167 14.002 34.5s-4.66699 24.666 -14 33.999s-21 14 -35 14c-12.667 0 -23.834 -4.66699 -33.501 -14s-14.5 -20.666 -14.5 -33.999s4.66699 -24.833 14 -34.5s20.666 -14.5 33.999 -14.5c14 0 25.667 4.83301 35 14.5z" />
    <glyph glyph-name="copyright" unicode="&#xa9;" horiz-adv-x="799" 
d="M722 520c-30 55.333 -72.8291 99.166 -128.496 131.499s-120.167 48.5 -193.5 48.5s-137.833 -16.167 -193.5 -48.5s-98.5 -76.166 -128.5 -131.499s-45 -116.666 -45 -183.999s15.167 -128.666 45.5 -183.999s73.166 -99 128.499 -131s119.666 -48 192.999 -48
s137.666 16 192.999 48s98.166 75.667 128.499 131s45.5 116.666 45.5 183.999s-15 128.666 -45 183.999zM135.004 495c24.667 46.667 59.834 83.334 105.501 110.001s98.834 40 159.501 40s114 -13.333 160 -40s81.333 -63.334 106 -110.001s37 -99.334 37 -158.001
s-12.333 -111.334 -37 -158.001s-60 -83.334 -106 -110.001s-99.333 -40 -160 -40s-113.834 13.333 -159.501 40s-80.834 63.334 -105.501 110.001s-37 99.334 -37 158.001s12.333 111.334 37 158.001zM490.004 116.5c28.667 7.66699 52.332 18.168 70.999 31.501l-24 57
c-24 -12.667 -43.667 -21.5 -59 -26.5s-36.666 -7.5 -63.999 -7.5c-48 0 -82.833 14.333 -104.5 43s-32.5 71.334 -32.5 128.001c0 49.333 11.833 89 35.5 119s58.5 45 104.5 45c28 0 49.5 -2.33301 64.5 -7s34.833 -13.334 59.5 -26.001l24 58
c-18 13.333 -41.333 23.666 -70 30.999s-54.334 11 -77.001 11c-45.333 0 -84.666 -9.83301 -117.999 -29.5s-58.833 -47 -76.5 -82s-26.5 -75.167 -26.5 -120.5c0 -70.667 18.833 -127.667 56.5 -171s91.167 -65 160.5 -65c22 0 47.333 3.83301 76 11.5z" />
    <glyph glyph-name="ordfeminine" unicode="&#xaa;" horiz-adv-x="331" 
d="M89 629.5c11.333 4.33301 23 7.66895 35 10.002s24.333 3.5 37 3.5c23.333 0 41 -6.33301 53 -19s18 -29.334 18 -50.001v-11h-78c-36 0 -65.167 -8.66699 -87.5 -26s-33.5 -41.333 -33.5 -72c0 -29.333 10.667 -53.666 32 -72.999s49 -29 83 -29
c17.333 0 34.333 4.16699 51 12.5s30.667 18.166 42 29.499l14 -33h44v209c0 21.333 -5.83301 41.333 -17.5 60s-28.167 33.5 -49.5 44.5s-45.333 16.5 -72 16.5c-15.333 0 -34 -2.83301 -56 -8.5s-38.667 -12.5 -50 -20.5l14 -52
c2.66699 1.33301 9.66699 4.16602 21 8.49902zM117 500.503c12.667 8.33301 28.332 12.5 46.999 12.5h69v-46c-11.333 -13.333 -24.333 -24.333 -39 -33s-29.667 -13 -45 -13s-27.666 4.5 -36.999 13.5s-14 19.5 -14 31.5c0 14.667 6.33301 26.167 19 34.5z" />
    <glyph glyph-name="guillemotleft" unicode="&#xab;" horiz-adv-x="373" 
d="M30 223l145 -139l22 52l-106 109l106 109l-22 53l-145 -139v-45zM186 223l146 -139l21 52l-106 109l106 109l-21 53l-146 -139v-45z" />
    <glyph glyph-name="logicalnot" unicode="&#xac;" horiz-adv-x="514" 
d="M476 406h-466l8 -63h395v-226l71 -5v244z" />
    <glyph glyph-name="softhyphen" unicode="&#xad;" horiz-adv-x="120" 
 />
    <glyph glyph-name="registered" unicode="&#xae;" horiz-adv-x="712" 
d="M640.5 650.5c-26.333 49 -64 87.5 -113 115.5s-105.833 42 -170.5 42c-65.333 0 -122.5 -14 -171.5 -42s-86.667 -66.5 -113 -115.5s-39.5 -103.5 -39.5 -163.5c0 -59.333 13.167 -113.333 39.5 -162s64 -87 113 -115s106.167 -42 171.5 -42c64.667 0 121.5 14 170.5 42
s86.667 66.333 113 115s39.5 102.667 39.5 162c0 60 -13.167 114.5 -39.5 163.5zM125 626.5c21.333 40.333 51.833 71.834 91.5 94.501s86.5 34 140.5 34c53.333 0 99.833 -11.333 139.5 -34s70.167 -54.334 91.5 -95.001s32 -86.667 32 -138
c0 -50.667 -10.667 -96.167 -32 -136.5s-51.833 -72.166 -91.5 -95.499s-86.167 -35 -139.5 -35c-54 0 -100.833 11.667 -140.5 35s-70.167 55.166 -91.5 95.499s-32 85.833 -32 136.5c0 52 10.667 98.167 32 138.5zM424 473.001c19.333 8.66699 34.833 21.167 46.5 37.5
s17.5 36.5 17.5 60.5c0 37.333 -12.5 64.833 -37.5 82.5s-58.833 26.5 -101.5 26.5h-110v-376h60v154h39c14 0 23.333 0.333008 28 1l83 -155h69zM403.5 620.001c15 -7.33301 22.5 -24.332 22.5 -50.999c0 -24.667 -8.5 -41.334 -25.5 -50.001s-40.833 -13 -71.5 -13h-30
v125h34c32 0 55.5 -3.66699 70.5 -11z" />
    <glyph glyph-name="macron" unicode="&#xaf;" horiz-adv-x="266" 
d="M10 633h246l-7 63h-239v-63z" />
    <glyph glyph-name="degree" unicode="&#xb0;" horiz-adv-x="240" 
d="M42.5 677c-21.667 -20.667 -32.5 -45.667 -32.5 -75c0 -30 10.833 -54.833 32.5 -74.5s47.5 -29.5 77.5 -29.5c30.667 0 56.667 9.83301 78 29.5s32 44.5 32 74.5c0 29.333 -10.833 54.333 -32.5 75s-47.5 31 -77.5 31s-55.833 -10.333 -77.5 -31zM80.5 562.5
c-10.333 11 -15.5 24.168 -15.5 39.501s5.16699 28.166 15.5 38.499s23.5 15.5 39.5 15.5c15.333 0 28.5 -5.33301 39.5 -16s16.5 -23.667 16.5 -39c0 -14.667 -5.5 -27.5 -16.5 -38.5s-24.167 -16.5 -39.5 -16.5c-16 0 -29.167 5.5 -39.5 16.5z" />
    <glyph glyph-name="plusminus" unicode="&#xb1;" horiz-adv-x="486" 
d="M448 359h-170v172l-70 3v-175h-178l9 -58h169v-180l70 -5v185h178zM449 59h-418l8 -58h417z" />
    <glyph glyph-name="twosuperior" unicode="&#xb2;" horiz-adv-x="357" 
d="M23 729l27 -53.998c16 10 34.833 18.833 56.5 26.5s42.834 11.5 63.501 11.5c26.667 0 47 -6.83301 61 -20.5s21 -29.834 21 -48.501c0 -20.667 -6 -40.667 -18 -60s-31.333 -41 -58 -65l-151 -130v-53h312l-8 55h-216l102 87c38.667 33.333 66.5 62.666 83.5 87.999
s25.5 51.333 25.5 78c0 20.667 -5.16699 40.667 -15.5 60s-26.833 35.333 -49.5 48s-51.334 19 -86.001 19c-49.333 0 -99.333 -14 -150 -42z" />
    <glyph glyph-name="threesuperior" unicode="&#xb3;" horiz-adv-x="358" 
d="M82 759c-24 -8 -47.6641 -19.3291 -70.9971 -33.9961l28 -49c17.333 11.333 35.166 20.5 53.499 27.5s39.166 10.5 62.499 10.5c27.333 0 48.5 -6.33301 63.5 -19s22.5 -28.667 22.5 -48c0 -24.667 -9.5 -44.334 -28.5 -59.001s-47.5 -22 -85.5 -22h-31l8 -56h18
c44.667 0 77.167 -7.66699 97.5 -23s30.5 -38.333 30.5 -69c0 -25.333 -9.66699 -45.333 -29 -60s-43.666 -22 -72.999 -22c-24.667 0 -45.334 2.66699 -62.001 8s-35 13.666 -55 24.999l-31 -49c53.333 -28 102.666 -42 147.999 -42c34.667 0 65 6.16699 91 18.5
s46.167 29.166 60.5 50.499s21.5 45.333 21.5 72c0 30.667 -8.33301 57 -25 79s-37.667 35.667 -63 41c22 7.33301 40.667 21 56 41s23 42.667 23 68c0 35.333 -13.167 64.666 -39.5 87.999s-63.833 35 -112.5 35c-28 0 -54 -4 -78 -12z" />
    <glyph glyph-name="acute" unicode="&#xb4;" horiz-adv-x="161" 
d="M63 589l88 156h-87l-54 -141z" />
    <glyph glyph-name="mu" unicode="&#xb5;" horiz-adv-x="539" 
d="M476 486l0.00195312 -485h-59l-13 69c-23.333 -24 -52 -44 -86 -60s-66.333 -24 -97 -24c-28.667 0 -53 5 -73 15v-209l-79 -11v704h79v-317c0 -36 6.66699 -64 20 -84s35.666 -30 66.999 -30c24 0 51.167 8.33301 81.5 25s57.166 37.667 80.499 63v344h79z" />
    <glyph glyph-name="paragraph" unicode="&#xb6;" horiz-adv-x="837" 
d="M408 618h220v-618h79v618h98v62h-522c-76.667 0 -137.5 -16.833 -182.5 -50.5s-67.5 -86.167 -67.5 -157.5c0 -70.667 24.5 -124.167 73.5 -160.5s111.5 -54.5 187.5 -54.5h35v-257h79v618z" />
    <glyph glyph-name="periodcentered" unicode="&#xb7;" horiz-adv-x="168" 
d="M122.5 224c10.333 10.667 15.5 23.332 15.5 37.999s-5.16699 27.334 -15.5 38.001s-22.833 16 -37.5 16c-15.333 0 -28.333 -5.16699 -39 -15.5s-16 -23.166 -16 -38.499c0 -14.667 5.33301 -27.334 16 -38.001s23.667 -16 39 -16c14.667 0 27.167 5.33301 37.5 16z" />
    <glyph glyph-name="cedilla" unicode="&#xb8;" horiz-adv-x="215" 
d="M115.5 -98c17 -9.33301 25.498 -20.332 25.498 -32.999c0 -10.667 -5.33301 -19 -16 -25s-22.667 -9 -36 -9c-9.33301 0 -19.666 1.66699 -30.999 5s-21 6.66602 -29 9.99902l-19 -50c9.33301 -6 21.833 -11 37.5 -15s29.5 -6 41.5 -6c32.667 0 60.167 7.83301 82.5 23.5
s33.5 38.5 33.5 68.5c0 18 -7.66699 35 -23 51s-33.666 26 -54.999 30l24 61h-63l-36 -93c25.333 -2.66699 46.5 -8.66699 63.5 -18z" />
    <glyph glyph-name="onesuperior" unicode="&#xb9;" horiz-adv-x="263" 
d="M190 336v429h-46l-134 -66l29 -49l80 41v-355h71z" />
    <glyph glyph-name="ordmasculine" unicode="&#xba;" horiz-adv-x="383" 
d="M77 655.5c-29.333 -31 -44 -72.167 -44 -123.5c0 -52.667 14.167 -94 42.5 -124s66.5 -45 114.5 -45c46.667 0 85.167 15.333 115.5 46s45.5 71.667 45.5 123c0 52.667 -14.5 94.167 -43.5 124.5s-67.833 45.5 -116.5 45.5c-46.667 0 -84.667 -15.5 -114 -46.5zM253 614
c16 -18.667 24 -46 24 -82c0 -36.667 -8.5 -64.167 -25.5 -82.5s-37.5 -27.5 -61.5 -27.5s-44.167 9.5 -60.5 28.5s-24.5 46.167 -24.5 81.5c0 36.667 8.5 64.167 25.5 82.5s37.167 27.5 60.5 27.5c25.333 0 46 -9.33301 62 -28z" />
    <glyph glyph-name="guillemotright" unicode="&#xbb;" horiz-adv-x="374" 
d="M188 268l-145 139l-23 -53l106 -109l-106 -109l23 -52l145 139v45zM344 268l-145 139l-22 -53l106 -109l-106 -109l22 -52l145 139v45z" />
    <glyph glyph-name="onequarter" unicode="&#xbc;" horiz-adv-x="772" 
d="M190 336v429h-46l-134 -66l29 -49l80 41v-355h71zM556 700l-506 -834h80l504 834h-78zM672 -77h75l5 57h-80v341h-48l-252 -341l7 -57h224v-87h69v87zM603 196v-216h-157z" />
    <glyph glyph-name="onehalf" unicode="&#xbd;" horiz-adv-x="793" 
d="M190 336v429h-46l-134 -66l29 -49l80 41v-355h71zM541 700l-506 -834h80l504 834h-78zM458 283l28 -53.999c15.333 10 33.833 18.833 55.5 26.5s42.834 11.5 63.501 11.5c27.333 0 48 -6.83301 62 -20.5s21 -29.834 21 -48.501c0 -20.667 -6 -40.667 -18 -60
s-31.333 -41 -58 -65l-151 -130v-53h312l-8 55h-217l103 87c38 33.333 65.5 62.5 82.5 87.5s25.5 51.167 25.5 78.5c0 20.667 -5.16699 40.667 -15.5 60s-26.833 35.333 -49.5 48s-51.334 19 -86.001 19c-47.333 0 -97.333 -14 -150 -42z" />
    <glyph glyph-name="threequarters" unicode="&#xbe;" horiz-adv-x="795" 
d="M82 759c-24 -8 -47.6641 -19.3291 -70.9971 -33.9961l28 -49c17.333 11.333 35.166 20.5 53.499 27.5s39.166 10.5 62.499 10.5c27.333 0 48.5 -6.5 63.5 -19.5s22.5 -28.833 22.5 -47.5c0 -26.667 -10.5 -46.834 -31.5 -60.501s-48.5 -20.5 -82.5 -20.5h-31l8 -56h18
c44.667 0 77.167 -7.66699 97.5 -23s30.5 -38.333 30.5 -69c0 -25.333 -9.66699 -45.333 -29 -60s-43.666 -22 -72.999 -22c-24.667 0 -45.334 2.66699 -62.001 8s-35 13.666 -55 24.999l-31 -49c53.333 -28 102.666 -42 147.999 -42c34.667 0 65 6.16699 91 18.5
s46.167 29.166 60.5 50.499s21.5 45.333 21.5 72c0 30.667 -8.33301 57 -25 79s-37.667 35.667 -63 41c22 7.33301 40.667 21 56 41s23 42.667 23 68c0 35.333 -13.167 64.666 -39.5 87.999s-63.833 35 -112.5 35c-28 0 -54 -4 -78 -12zM618.003 700.004l-506 -834h80
l504 834h-78zM694.003 -19.9961v341h-48l-251 -341l6 -57h224v-87h69v87h75l6 57h-81zM625.003 -19.9961h-157l157 216v-216z" />
    <glyph glyph-name="questiondown" unicode="&#xbf;" horiz-adv-x="412" 
d="M287 539c10.667 10.667 16 23.667 16 39c0 14.667 -5.33301 27.5 -16 38.5s-23.334 16.5 -38.001 16.5s-27.5 -5.5 -38.5 -16.5s-16.5 -23.833 -16.5 -38.5s5.5 -27.5 16.5 -38.5s23.833 -16.5 38.5 -16.5s27.334 5.33301 38.001 16zM315.5 -55.5
c27 9.66699 55.832 24.5 86.499 44.5l-10 71c-30 -21.333 -58 -37 -84 -47s-54 -15 -84 -15c-38 0 -66.667 8.16699 -86 24.5s-29 41.833 -29 76.5s15.833 66.667 47.5 96s73.834 52.333 126.501 69l-8 196l-58 24l-9 -179c-53.333 -24.667 -96.333 -56 -129 -94
s-49 -76 -49 -114c0 -51.333 15.833 -92 47.5 -122s79.5 -45 143.5 -45c36 0 67.5 4.83301 94.5 14.5z" />
    <glyph glyph-name="Agrave" unicode="&#xc0;" horiz-adv-x="609" 
d="M262 680l-252 -680h77l71 193h287l76 -200l78 13l-261 674h-76zM422 257h-242l119 319zM295 739l53 15l-54 141h-87z" />
    <glyph glyph-name="Aacute" unicode="&#xc1;" horiz-adv-x="609" 
d="M262 680l-252 -680h77l71 193h287l76 -200l78 13l-261 674h-76zM422 257h-242l119 319zM306 739l88 156h-87l-54 -141z" />
    <glyph glyph-name="Acircumflex" unicode="&#xc2;" horiz-adv-x="609" 
d="M262 680l-252 -680h77l71 193h287l76 -200l78 13l-261 674h-76zM422 257h-242l119 319zM294 837l75 -98l72 10l-116 146h-63l-114 -146l71 -10z" />
    <glyph glyph-name="Atilde" unicode="&#xc3;" horiz-adv-x="609" 
d="M262 680l-252 -680h77l71 193h287l76 -200l78 13l-261 674h-76zM422 257h-242l119 319zM373 823.5c-6.66699 -7 -14.665 -10.5 -23.998 -10.5c-17.333 0 -33.666 7.66699 -48.999 23c-14.667 14 -36 21 -64 21c-59.333 0 -89 -32.667 -89 -98h55
c0.666992 12.667 4.66699 22.667 12 30s15.666 11 24.999 11c16.667 0 33.667 -7.66699 51 -23c15.333 -14.667 35 -22 59 -22c27.333 0 49.166 7.66699 65.499 23s24.5 40.333 24.5 75h-55c-0.666992 -12.667 -4.33398 -22.5 -11.001 -29.5z" />
    <glyph glyph-name="Adieresis" unicode="&#xc4;" horiz-adv-x="609" 
d="M262 680l-252 -680h77l71 193h287l76 -200l78 13l-261 674h-76zM422 257h-242l119 319zM247 778.5c9.33301 9.66699 14 21.1689 14 34.502s-4.66699 24.666 -14 33.999s-21 14 -35 14c-13.333 0 -24.833 -4.83301 -34.5 -14.5s-14.5 -20.834 -14.5 -33.501
c0 -13.333 4.83301 -24.833 14.5 -34.5s21.167 -14.5 34.5 -14.5c14 0 25.667 4.83301 35 14.5zM412 778.502c9.33301 9.66699 14.002 21.167 14.002 34.5s-4.66699 24.666 -14 33.999s-21 14 -35 14c-12.667 0 -23.834 -4.66699 -33.501 -14s-14.5 -20.666 -14.5 -33.999
s4.66699 -24.833 14 -34.5s20.666 -14.5 33.999 -14.5c14 0 25.667 4.83301 35 14.5z" />
    <glyph glyph-name="Aring" unicode="&#xc5;" horiz-adv-x="609" 
d="M262 680l-252 -680h77l71 193h287l76 -200l78 13l-261 674h-76zM422 257h-242l119 319zM232.5 892.5c-18.333 -17 -27.5 -38.167 -27.5 -63.5c0 -24 9.16699 -44.167 27.5 -60.5s40.5 -24.5 66.5 -24.5c25.333 0 47 8.16699 65 24.5s27 36.5 27 60.5
c0 25.333 -9 46.5 -27 63.5s-39.667 25.5 -65 25.5c-26 0 -48.167 -8.5 -66.5 -25.5zM268.5 800c-8.33301 8 -12.501 17.667 -12.501 29c0 12.667 4.16699 23 12.5 31s18.5 12 30.5 12s22 -4 30 -12s12 -18.333 12 -31c0 -11.333 -4.16699 -21 -12.5 -29
s-18.166 -12 -29.499 -12c-12 0 -22.167 4 -30.5 12z" />
    <glyph glyph-name="AE" unicode="&#xc6;" horiz-adv-x="875" 
d="M445 0h410l-8 63h-322v255h244l-9 59h-235v244h302l-9 59h-383l-425 -675l74 -13l122 201h239v-193zM445 572v-315h-198z" />
    <glyph glyph-name="Ccedilla" unicode="&#xc7;" horiz-adv-x="557" 
d="M423 -78c15.333 -16 22.9971 -32.998 22.9971 -50.998c0 -30 -11.167 -52.833 -33.5 -68.5s-49.833 -23.5 -82.5 -23.5c-12 0 -25.833 2 -41.5 6s-28.167 9 -37.5 15l19 50c8 -3.33301 17.667 -6.66602 29 -9.99902s21.666 -5 30.999 -5c13.333 0 25.333 3 36 9
s16 14.333 16 25c0 12.667 -8.5 23.667 -25.5 33s-38.167 15.333 -63.5 18l26 68c-58.667 6 -108.834 25.167 -150.501 57.5s-73 73.833 -94 124.5s-31.5 106 -31.5 166c0 67.333 13 128.166 39 182.499s63.333 97.166 112 128.499s105 47 169 47
c24.667 0 54.334 -3.5 89.001 -10.5s61.667 -16.5 81 -28.5l-25 -57c-26.667 10 -49.667 17.167 -69 21.5s-44.666 6.5 -75.999 6.5c-44 0 -84.167 -12.333 -120.5 -37s-64.833 -59 -85.5 -103s-31 -93.667 -31 -149c0 -52 9 -99.5 27 -142.5s44.333 -77 79 -102
s75.334 -37.5 122.001 -37.5c32 0 59.833 2.66699 83.5 8s45.834 12.666 66.501 21.999l30 -60c-17.333 -9.33301 -40.166 -17.5 -68.499 -24.5s-56.166 -11.5 -83.499 -13.5l-14 -35c21.333 -4 39.666 -14 54.999 -30z" />
    <glyph glyph-name="Egrave" unicode="&#xc8;" horiz-adv-x="523" 
d="M503 0l-10 63h-321v255h244l-9 59h-235v244h301l-9 59h-371v-680h410zM283 739l53 15l-54 141h-87z" />
    <glyph glyph-name="Eacute" unicode="&#xc9;" horiz-adv-x="523" 
d="M503 0l-10 63h-321v255h244l-9 59h-235v244h301l-9 59h-371v-680h410zM294 739l88 156h-87l-54 -141z" />
    <glyph glyph-name="Ecircumflex" unicode="&#xca;" horiz-adv-x="523" 
d="M503 0l-10 63h-321v255h244l-9 59h-235v244h301l-9 59h-371v-680h410zM282 837l75 -98l72 10l-116 146h-63l-114 -146l71 -10z" />
    <glyph glyph-name="Edieresis" unicode="&#xcb;" horiz-adv-x="523" 
d="M503 0l-10 63h-321v255h244l-9 59h-235v244h301l-9 59h-371v-680h410zM235 778.5c9.33301 9.66699 14 21.1689 14 34.502s-4.66699 24.666 -14 33.999s-21 14 -35 14c-13.333 0 -24.833 -4.83301 -34.5 -14.5s-14.5 -20.834 -14.5 -33.501
c0 -13.333 4.83301 -24.833 14.5 -34.5s21.167 -14.5 34.5 -14.5c14 0 25.667 4.83301 35 14.5zM400 778.502c9.33301 9.66699 14.002 21.167 14.002 34.5s-4.66699 24.666 -14 33.999s-21 14 -35 14c-12.667 0 -23.834 -4.66699 -33.501 -14s-14.5 -20.666 -14.5 -33.999
s4.66699 -24.833 14 -34.5s20.666 -14.5 33.999 -14.5c14 0 25.667 4.83301 35 14.5z" />
    <glyph glyph-name="Igrave" unicode="&#xcc;" horiz-adv-x="264" 
d="M172 0v680h-79v-680h79zM130 739l53 15l-54 141h-87z" />
    <glyph glyph-name="Iacute" unicode="&#xcd;" horiz-adv-x="264" 
d="M172 0v680h-79v-680h79zM141 739l88 156h-87l-54 -141z" />
    <glyph glyph-name="Icircumflex" unicode="&#xce;" horiz-adv-x="264" 
d="M172 0v680h-79v-680h79zM129 837l75 -98l72 10l-116 146h-63l-114 -146l71 -10z" />
    <glyph glyph-name="Idieresis" unicode="&#xcf;" horiz-adv-x="264" 
d="M172 0v680h-79v-680h79zM82 778.5c9.33301 9.66699 14 21.1689 14 34.502s-4.66699 24.666 -14 33.999s-21 14 -35 14c-13.333 0 -24.833 -4.83301 -34.5 -14.5s-14.5 -20.834 -14.5 -33.501c0 -13.333 4.83301 -24.833 14.5 -34.5s21.167 -14.5 34.5 -14.5
c14 0 25.667 4.83301 35 14.5zM247 778.502c9.33301 9.66699 14.002 21.167 14.002 34.5s-4.66699 24.666 -14 33.999s-21 14 -35 14c-12.667 0 -23.834 -4.66699 -33.501 -14s-14.5 -20.666 -14.5 -33.999s4.66699 -24.833 14 -34.5s20.666 -14.5 33.999 -14.5
c14 0 25.667 4.83301 35 14.5z" />
    <glyph glyph-name="Eth" unicode="&#xd0;" horiz-adv-x="671" 
d="M555 587c49.333 -62 74.001 -143 74.001 -243c0 -66 -11.667 -124.833 -35 -176.5s-57.833 -92.5 -103.5 -122.5s-100.834 -45 -165.501 -45h-232v305h-64l-9 62h73v313h238c100 0 174.667 -31 224 -93zM443.501 99.5c33.667 22.333 59.832 54.333 78.499 96
s28 90.834 28 147.501c0 81.333 -18.167 146.666 -54.5 195.999s-89.833 74 -160.5 74h-163v-246h101l9 -62h-110v-239h154c44.667 0 83.834 11.167 117.501 33.5z" />
    <glyph glyph-name="Ntilde" unicode="&#xd1;" horiz-adv-x="700" 
d="M172 0v534l26 -45l346 -489h64v680h-80v-527l-41 67l-331 460h-63v-680h79zM426 823.5c-6.66699 -7 -14.665 -10.5 -23.998 -10.5c-17.333 0 -33.666 7.66699 -48.999 23c-14.667 14 -36 21 -64 21c-59.333 0 -89 -32.667 -89 -98h55
c0.666992 12.667 4.66699 22.667 12 30s15.666 11 24.999 11c16.667 0 33.667 -7.66699 51 -23c15.333 -14.667 35 -22 59 -22c27.333 0 49.166 7.66699 65.499 23s24.5 40.333 24.5 75h-55c-0.666992 -12.667 -4.33398 -22.5 -11.001 -29.5z" />
    <glyph glyph-name="Ograve" unicode="&#xd2;" horiz-adv-x="725" 
d="M199 647c-48.667 -31.333 -86.8311 -73.999 -114.498 -127.999s-41.5 -114.667 -41.5 -182s13.667 -127.666 41 -180.999s65 -95 113 -125s102.333 -45 163 -45c61.333 0.666992 116.666 16.667 165.999 48s87.833 74.166 115.5 128.499s41.5 115.166 41.5 182.499
s-13.667 127.666 -41 180.999s-65.333 95 -114 125s-103.334 45 -164.001 45c-61.333 -1.33301 -116.333 -17.666 -165 -48.999zM157.003 486.501c20.667 43.667 49.167 78 85.5 103s77.5 37.5 123.5 37.5c44.667 0 84.5 -12.167 119.5 -36.5s62.5 -58 82.5 -101
s30 -91.5 30 -145.5c0 -55.333 -10.333 -105 -31 -149s-49.167 -78.333 -85.5 -103s-77.5 -37 -123.5 -37c-44.667 0 -84.5 12.167 -119.5 36.5s-62.5 58 -82.5 101s-30 91.5 -30 145.5c0 55.333 10.333 104.833 31 148.5zM360.003 739.001l53 15l-54 141h-87z" />
    <glyph glyph-name="Oacute" unicode="&#xd3;" horiz-adv-x="725" 
d="M199 647c-48.667 -31.333 -86.8311 -73.999 -114.498 -127.999s-41.5 -114.667 -41.5 -182s13.667 -127.666 41 -180.999s65 -95 113 -125s102.333 -45 163 -45c61.333 0.666992 116.666 16.667 165.999 48s87.833 74.166 115.5 128.499s41.5 115.166 41.5 182.499
s-13.667 127.666 -41 180.999s-65.333 95 -114 125s-103.334 45 -164.001 45c-61.333 -1.33301 -116.333 -17.666 -165 -48.999zM157.003 486.501c20.667 43.667 49.167 78 85.5 103s77.5 37.5 123.5 37.5c44.667 0 84.5 -12.167 119.5 -36.5s62.5 -58 82.5 -101
s30 -91.5 30 -145.5c0 -55.333 -10.333 -105 -31 -149s-49.167 -78.333 -85.5 -103s-77.5 -37 -123.5 -37c-44.667 0 -84.5 12.167 -119.5 36.5s-62.5 58 -82.5 101s-30 91.5 -30 145.5c0 55.333 10.333 104.833 31 148.5zM371.003 739.001l88 156h-87l-54 -141z" />
    <glyph glyph-name="Ocircumflex" unicode="&#xd4;" horiz-adv-x="725" 
d="M199 647c-48.667 -31.333 -86.8311 -73.999 -114.498 -127.999s-41.5 -114.667 -41.5 -182s13.667 -127.666 41 -180.999s65 -95 113 -125s102.333 -45 163 -45c61.333 0.666992 116.666 16.667 165.999 48s87.833 74.166 115.5 128.499s41.5 115.166 41.5 182.499
s-13.667 127.666 -41 180.999s-65.333 95 -114 125s-103.334 45 -164.001 45c-61.333 -1.33301 -116.333 -17.666 -165 -48.999zM157.003 486.501c20.667 43.667 49.167 78 85.5 103s77.5 37.5 123.5 37.5c44.667 0 84.5 -12.167 119.5 -36.5s62.5 -58 82.5 -101
s30 -91.5 30 -145.5c0 -55.333 -10.333 -105 -31 -149s-49.167 -78.333 -85.5 -103s-77.5 -37 -123.5 -37c-44.667 0 -84.5 12.167 -119.5 36.5s-62.5 58 -82.5 101s-30 91.5 -30 145.5c0 55.333 10.333 104.833 31 148.5zM359.003 837.001l75 -98l72 10l-116 146h-63
l-114 -146l71 -10z" />
    <glyph glyph-name="Otilde" unicode="&#xd5;" horiz-adv-x="725" 
d="M199 647c-48.667 -31.333 -86.8311 -73.999 -114.498 -127.999s-41.5 -114.667 -41.5 -182s13.667 -127.666 41 -180.999s65 -95 113 -125s102.333 -45 163 -45c61.333 0.666992 116.666 16.667 165.999 48s87.833 74.166 115.5 128.499s41.5 115.166 41.5 182.499
s-13.667 127.666 -41 180.999s-65.333 95 -114 125s-103.334 45 -164.001 45c-61.333 -1.33301 -116.333 -17.666 -165 -48.999zM157.003 486.501c20.667 43.667 49.167 78 85.5 103s77.5 37.5 123.5 37.5c44.667 0 84.5 -12.167 119.5 -36.5s62.5 -58 82.5 -101
s30 -91.5 30 -145.5c0 -55.333 -10.333 -105 -31 -149s-49.167 -78.333 -85.5 -103s-77.5 -37 -123.5 -37c-44.667 0 -84.5 12.167 -119.5 36.5s-62.5 58 -82.5 101s-30 91.5 -30 145.5c0 55.333 10.333 104.833 31 148.5zM438.003 823.501
c-6.66699 -7 -14.665 -10.5 -23.998 -10.5c-17.333 0 -33.666 7.66699 -48.999 23c-14.667 14 -36 21 -64 21c-59.333 0 -89 -32.667 -89 -98h55c0.666992 12.667 4.66699 22.667 12 30s15.666 11 24.999 11c16.667 0 33.667 -7.66699 51 -23c15.333 -14.667 35 -22 59 -22
c27.333 0 49.166 7.66699 65.499 23s24.5 40.333 24.5 75h-55c-0.666992 -12.667 -4.33398 -22.5 -11.001 -29.5z" />
    <glyph glyph-name="Odieresis" unicode="&#xd6;" horiz-adv-x="725" 
d="M199 647c-48.667 -31.333 -86.8311 -73.999 -114.498 -127.999s-41.5 -114.667 -41.5 -182s13.667 -127.666 41 -180.999s65 -95 113 -125s102.333 -45 163 -45c61.333 0.666992 116.666 16.667 165.999 48s87.833 74.166 115.5 128.499s41.5 115.166 41.5 182.499
s-13.667 127.666 -41 180.999s-65.333 95 -114 125s-103.334 45 -164.001 45c-61.333 -1.33301 -116.333 -17.666 -165 -48.999zM157.003 486.501c20.667 43.667 49.167 78 85.5 103s77.5 37.5 123.5 37.5c44.667 0 84.5 -12.167 119.5 -36.5s62.5 -58 82.5 -101
s30 -91.5 30 -145.5c0 -55.333 -10.333 -105 -31 -149s-49.167 -78.333 -85.5 -103s-77.5 -37 -123.5 -37c-44.667 0 -84.5 12.167 -119.5 36.5s-62.5 58 -82.5 101s-30 91.5 -30 145.5c0 55.333 10.333 104.833 31 148.5zM312.003 778.501
c9.33301 9.66699 14 21.1689 14 34.502s-4.66699 24.666 -14 33.999s-21 14 -35 14c-13.333 0 -24.833 -4.83301 -34.5 -14.5s-14.5 -20.834 -14.5 -33.501c0 -13.333 4.83301 -24.833 14.5 -34.5s21.167 -14.5 34.5 -14.5c14 0 25.667 4.83301 35 14.5zM477.003 778.503
c9.33301 9.66699 14.002 21.167 14.002 34.5s-4.66699 24.666 -14 33.999s-21 14 -35 14c-12.667 0 -23.834 -4.66699 -33.501 -14s-14.5 -20.666 -14.5 -33.999s4.66699 -24.833 14 -34.5s20.666 -14.5 33.999 -14.5c14 0 25.667 4.83301 35 14.5z" />
    <glyph glyph-name="multiply" unicode="&#xd7;" horiz-adv-x="508" 
d="M292 249l170 -218h-80l-128 163l-143 -163h-81l186 220l-170 218h81l128 -163l143 163h80z" />
    <glyph glyph-name="Oslash" unicode="&#xd8;" horiz-adv-x="725" 
d="M528 651c48.667 -30 86.6641 -71.668 113.997 -125.001s41 -113.666 41 -180.999s-13.833 -128.166 -41.5 -182.499s-66.167 -97.166 -115.5 -128.499s-104.666 -47.333 -165.999 -48c-60.667 0 -115 15 -163 45s-85.667 71.667 -113 125s-41 113.666 -41 180.999
s13.833 128 41.5 182s65.834 96.667 114.501 128s103.667 47.666 165 48.999c60.667 0 115.334 -15 164.001 -45zM151.497 201.499c17 -41 40.833 -73.833 71.5 -98.5l220 510c-24 9.33301 -49.667 14 -77 14c-46 0 -87.167 -12.5 -123.5 -37.5s-64.833 -59.333 -85.5 -103
s-31 -93.167 -31 -148.5c0 -50 8.5 -95.5 25.5 -136.5zM481.497 91.999c36.333 24.667 64.833 59 85.5 103s31 93.667 31 149c0 48 -8 92 -24 132s-38.333 72.667 -67 98l-221 -507c23.333 -8 47.333 -12 72 -12c46 0 87.167 12.333 123.5 37z" />
    <glyph glyph-name="Ugrave" unicode="&#xd9;" horiz-adv-x="682" 
d="M83 680v-439.001c0 -48.667 10.5 -92 31.5 -130s51 -68 90 -90s84.5 -33 136.5 -33s97.5 10.833 136.5 32.5s69 51.834 90 90.501s31.5 82 31.5 130v439h-80v-430c0 -58 -16 -105 -48 -141s-75.333 -54 -130 -54c-54 0 -97.333 18 -130 54s-49 83 -49 141v430h-79z
M337 738.999l53 15l-54 141h-87z" />
    <glyph glyph-name="Uacute" unicode="&#xda;" horiz-adv-x="682" 
d="M83 680v-439.001c0 -48.667 10.5 -92 31.5 -130s51 -68 90 -90s84.5 -33 136.5 -33s97.5 10.833 136.5 32.5s69 51.834 90 90.501s31.5 82 31.5 130v439h-80v-430c0 -58 -16 -105 -48 -141s-75.333 -54 -130 -54c-54 0 -97.333 18 -130 54s-49 83 -49 141v430h-79z
M348 738.999l88 156h-87l-54 -141z" />
    <glyph glyph-name="Ucircumflex" unicode="&#xdb;" horiz-adv-x="682" 
d="M83 680v-439.001c0 -48.667 10.5 -92 31.5 -130s51 -68 90 -90s84.5 -33 136.5 -33s97.5 10.833 136.5 32.5s69 51.834 90 90.501s31.5 82 31.5 130v439h-80v-430c0 -58 -16 -105 -48 -141s-75.333 -54 -130 -54c-54 0 -97.333 18 -130 54s-49 83 -49 141v430h-79z
M336 836.999l75 -98l72 10l-116 146h-63l-114 -146l71 -10z" />
    <glyph glyph-name="Udieresis" unicode="&#xdc;" horiz-adv-x="682" 
d="M83 680v-439.001c0 -48.667 10.5 -92 31.5 -130s51 -68 90 -90s84.5 -33 136.5 -33s97.5 10.833 136.5 32.5s69 51.834 90 90.501s31.5 82 31.5 130v439h-80v-430c0 -58 -16 -105 -48 -141s-75.333 -54 -130 -54c-54 0 -97.333 18 -130 54s-49 83 -49 141v430h-79z
M289 778.499c9.33301 9.66699 14 21.1689 14 34.502s-4.66699 24.666 -14 33.999s-21 14 -35 14c-13.333 0 -24.833 -4.83301 -34.5 -14.5s-14.5 -20.834 -14.5 -33.501c0 -13.333 4.83301 -24.833 14.5 -34.5s21.167 -14.5 34.5 -14.5c14 0 25.667 4.83301 35 14.5z
M454 778.501c9.33301 9.66699 14.002 21.167 14.002 34.5s-4.66699 24.666 -14 33.999s-21 14 -35 14c-12.667 0 -23.834 -4.66699 -33.501 -14s-14.5 -20.666 -14.5 -33.999s4.66699 -24.833 14 -34.5s20.666 -14.5 33.999 -14.5c14 0 25.667 4.83301 35 14.5z" />
    <glyph glyph-name="Yacute" unicode="&#xdd;" horiz-adv-x="563" 
d="M314 0l1 277l238 403h-85l-193 -329l-191 345l-74 -32l225 -391v-273h79zM282 739l88 156h-87l-54 -141z" />
    <glyph glyph-name="Thorn" unicode="&#xde;" horiz-adv-x="562" 
d="M461 549.5c45.333 -33.667 68.001 -86.167 68.001 -157.5c-0.666992 -70.667 -25.334 -124.167 -74.001 -160.5s-111 -54.5 -187 -54.5h-96v-177h-79v680h79v-80h106c76.667 0 137.667 -16.833 183 -50.5zM398.001 279.5c32 23.667 48.667 60.166 50 109.499
c0 52.667 -14.333 89.834 -43 111.501s-70.667 32.5 -126 32.5h-107v-289h99c52.667 0 95 11.833 127 35.5z" />
    <glyph glyph-name="germandbls" unicode="&#xdf;" horiz-adv-x="575" 
d="M152 0l-0.000976562 473.001c0 44 12.167 79.167 36.5 105.5s58.5 39.5 102.5 39.5c36.667 0 67 -10 91 -30s36 -49 36 -87c0 -38.667 -12.333 -67.834 -37 -87.501s-63.334 -29.5 -116.001 -29.5h-29v-64h58c50 0 89.5 -10.833 118.5 -32.5s43.5 -54.5 43.5 -98.5
c0 -43.333 -15.667 -74.666 -47 -93.999s-73 -29 -125 -29h-61v-66h62c76.667 0 137.834 15.333 183.501 46s68.5 78.667 68.5 144c0 41.333 -11.167 76.5 -33.5 105.5s-51.833 50.5 -88.5 64.5c26.667 13.333 47.334 32.5 62.001 57.5s22 53.833 22 86.5
c0 58.667 -19.667 103.667 -59 135s-89 47 -149 47c-66 0 -118.833 -18.833 -158.5 -56.5s-59.5 -89.834 -59.5 -156.501v-473h79z" />
    <glyph glyph-name="agrave" unicode="&#xe0;" horiz-adv-x="488" 
d="M170.5 420.5c20.333 5.66699 44.834 8.49902 73.501 8.49902c36.667 0 63.5 -10.333 80.5 -31s25.5 -49 25.5 -85v-27h-125c-52.667 0 -95 -13 -127 -39s-48 -62.333 -48 -109c0 -44.667 14.167 -81 42.5 -109s69.5 -42 123.5 -42c25.333 0 51.333 6.16699 78 18.5
s49 26.833 67 43.5l10 -49h59v335c0 31.333 -8 59.333 -24 84s-38.333 44 -67 58s-61.334 21 -98.001 21c-22 0 -49.833 -4 -83.5 -12s-59.167 -18 -76.5 -30l23 -60c24 10.667 46.167 18.834 66.5 24.501zM149.501 205.499c17.667 18.333 42.167 27.5 73.5 27.5h128v-110
c-18 -21.333 -38.833 -38.666 -62.5 -51.999s-48.5 -20 -74.5 -20c-30 0 -52.667 8.66699 -68 26s-23 37.666 -23 60.999c0 26.667 8.83301 49.167 26.5 67.5zM241.001 588.999l53 15l-54 141h-87z" />
    <glyph glyph-name="aacute" unicode="&#xe1;" horiz-adv-x="488" 
d="M170.5 420.5c20.333 5.66699 44.834 8.49902 73.501 8.49902c36.667 0 63.5 -10.333 80.5 -31s25.5 -49 25.5 -85v-27h-125c-52.667 0 -95 -13 -127 -39s-48 -62.333 -48 -109c0 -44.667 14.167 -81 42.5 -109s69.5 -42 123.5 -42c25.333 0 51.333 6.16699 78 18.5
s49 26.833 67 43.5l10 -49h59v335c0 31.333 -8 59.333 -24 84s-38.333 44 -67 58s-61.334 21 -98.001 21c-22 0 -49.833 -4 -83.5 -12s-59.167 -18 -76.5 -30l23 -60c24 10.667 46.167 18.834 66.5 24.501zM149.501 205.499c17.667 18.333 42.167 27.5 73.5 27.5h128v-110
c-18 -21.333 -38.833 -38.666 -62.5 -51.999s-48.5 -20 -74.5 -20c-30 0 -52.667 8.66699 -68 26s-23 37.666 -23 60.999c0 26.667 8.83301 49.167 26.5 67.5zM242.001 588.999l88 156h-87l-54 -141z" />
    <glyph glyph-name="acircumflex" unicode="&#xe2;" horiz-adv-x="488" 
d="M170.5 420.5c20.333 5.66699 44.834 8.49902 73.501 8.49902c36.667 0 63.5 -10.333 80.5 -31s25.5 -49 25.5 -85v-27h-125c-52.667 0 -95 -13 -127 -39s-48 -62.333 -48 -109c0 -44.667 14.167 -81 42.5 -109s69.5 -42 123.5 -42c25.333 0 51.333 6.16699 78 18.5
s49 26.833 67 43.5l10 -49h59v335c0 31.333 -8 59.333 -24 84s-38.333 44 -67 58s-61.334 21 -98.001 21c-22 0 -49.833 -4 -83.5 -12s-59.167 -18 -76.5 -30l23 -60c24 10.667 46.167 18.834 66.5 24.501zM149.501 205.499c17.667 18.333 42.167 27.5 73.5 27.5h128v-110
c-18 -21.333 -38.833 -38.666 -62.5 -51.999s-48.5 -20 -74.5 -20c-30 0 -52.667 8.66699 -68 26s-23 37.666 -23 60.999c0 26.667 8.83301 49.167 26.5 67.5zM242.001 686.999l75 -98l72 10l-116 146h-63l-114 -146l71 -10z" />
    <glyph glyph-name="atilde" unicode="&#xe3;" horiz-adv-x="488" 
d="M170.5 420.5c20.333 5.66699 44.834 8.49902 73.501 8.49902c36.667 0 63.5 -10.333 80.5 -31s25.5 -49 25.5 -85v-27h-125c-52.667 0 -95 -13 -127 -39s-48 -62.333 -48 -109c0 -44.667 14.167 -81 42.5 -109s69.5 -42 123.5 -42c25.333 0 51.333 6.16699 78 18.5
s49 26.833 67 43.5l10 -49h59v335c0 31.333 -8 59.333 -24 84s-38.333 44 -67 58s-61.334 21 -98.001 21c-22 0 -49.833 -4 -83.5 -12s-59.167 -18 -76.5 -30l23 -60c24 10.667 46.167 18.834 66.5 24.501zM149.501 205.499c17.667 18.333 42.167 27.5 73.5 27.5h128v-110
c-18 -21.333 -38.833 -38.666 -62.5 -51.999s-48.5 -20 -74.5 -20c-30 0 -52.667 8.66699 -68 26s-23 37.666 -23 60.999c0 26.667 8.83301 49.167 26.5 67.5zM318.001 673.499c-6.66699 -7 -14.665 -10.5 -23.998 -10.5c-17.333 0 -33.666 7.66699 -48.999 23
c-14.667 14 -36 21 -64 21c-59.333 0 -89 -32.667 -89 -98h55c0.666992 12.667 4.66699 22.667 12 30s15.666 11 24.999 11c16.667 0 33.667 -7.66699 51 -23c15.333 -14.667 35 -22 59 -22c27.333 0 49.166 7.66699 65.499 23s24.5 40.333 24.5 75h-55
c-0.666992 -12.667 -4.33398 -22.5 -11.001 -29.5z" />
    <glyph glyph-name="adieresis" unicode="&#xe4;" horiz-adv-x="488" 
d="M170.5 420.5c20.333 5.66699 44.834 8.49902 73.501 8.49902c36.667 0 63.5 -10.333 80.5 -31s25.5 -49 25.5 -85v-27h-125c-52.667 0 -95 -13 -127 -39s-48 -62.333 -48 -109c0 -44.667 14.167 -81 42.5 -109s69.5 -42 123.5 -42c25.333 0 51.333 6.16699 78 18.5
s49 26.833 67 43.5l10 -49h59v335c0 31.333 -8 59.333 -24 84s-38.333 44 -67 58s-61.334 21 -98.001 21c-22 0 -49.833 -4 -83.5 -12s-59.167 -18 -76.5 -30l23 -60c24 10.667 46.167 18.834 66.5 24.501zM149.501 205.499c17.667 18.333 42.167 27.5 73.5 27.5h128v-110
c-18 -21.333 -38.833 -38.666 -62.5 -51.999s-48.5 -20 -74.5 -20c-30 0 -52.667 8.66699 -68 26s-23 37.666 -23 60.999c0 26.667 8.83301 49.167 26.5 67.5zM189.001 628.499c9.33301 9.66699 14 21.1689 14 34.502s-4.66699 24.666 -14 33.999s-21 14 -35 14
c-13.333 0 -24.833 -4.83301 -34.5 -14.5s-14.5 -20.834 -14.5 -33.501c0 -13.333 4.83301 -24.833 14.5 -34.5s21.167 -14.5 34.5 -14.5c14 0 25.667 4.83301 35 14.5zM354.001 628.501c9.33301 9.66699 14.002 21.167 14.002 34.5s-4.66699 24.666 -14 33.999
s-21 14 -35 14c-12.667 0 -23.834 -4.66699 -33.501 -14s-14.5 -20.666 -14.5 -33.999s4.66699 -24.833 14 -34.5s20.666 -14.5 33.999 -14.5c14 0 25.667 4.83301 35 14.5z" />
    <glyph glyph-name="aring" unicode="&#xe5;" horiz-adv-x="488" 
d="M170.5 420.5c20.333 5.66699 44.834 8.49902 73.501 8.49902c36.667 0 63.5 -10.333 80.5 -31s25.5 -49 25.5 -85v-27h-125c-52.667 0 -95 -13 -127 -39s-48 -62.333 -48 -109c0 -44.667 14.167 -81 42.5 -109s69.5 -42 123.5 -42c25.333 0 51.333 6.16699 78 18.5
s49 26.833 67 43.5l10 -49h59v335c0 31.333 -8 59.333 -24 84s-38.333 44 -67 58s-61.334 21 -98.001 21c-22 0 -49.833 -4 -83.5 -12s-59.167 -18 -76.5 -30l23 -60c24 10.667 46.167 18.834 66.5 24.501zM149.501 205.499c17.667 18.333 42.167 27.5 73.5 27.5h128v-110
c-18 -21.333 -38.833 -38.666 -62.5 -51.999s-48.5 -20 -74.5 -20c-30 0 -52.667 8.66699 -68 26s-23 37.666 -23 60.999c0 26.667 8.83301 49.167 26.5 67.5zM178.501 742.499c-18.333 -17 -27.5 -38.167 -27.5 -63.5c0 -24 9.16699 -44.167 27.5 -60.5
s40.5 -24.5 66.5 -24.5c25.333 0 47 8.16699 65 24.5s27 36.5 27 60.5c0 25.333 -9 46.5 -27 63.5s-39.667 25.5 -65 25.5c-26 0 -48.167 -8.5 -66.5 -25.5zM214.501 649.999c-8.33301 8 -12.501 17.667 -12.501 29c0 12.667 4.16699 23 12.5 31s18.5 12 30.5 12
s22 -4 30 -12s12 -18.333 12 -31c0 -11.333 -4.16699 -21 -12.5 -29s-18.166 -12 -29.499 -12c-12 0 -22.167 4 -30.5 12z" />
    <glyph glyph-name="ae" unicode="&#xe6;" horiz-adv-x="815" 
d="M674 63.5c22 7 47.6641 17.834 76.9971 32.501l25 -58c-27.333 -15.333 -54.666 -27.5 -81.999 -36.5s-57.666 -13.5 -90.999 -13.5c-92 0 -160 29 -204 87c-23.333 -25.333 -49.333 -46.333 -78 -63s-63.667 -25 -105 -25c-54 0 -95.167 14 -123.5 42
s-42.5 64.333 -42.5 109c0 46.667 16 83 48 109s74.333 39 127 39h125v26c0 36 -8.5 64.5 -25.5 85.5s-43.833 31.5 -80.5 31.5c-28.667 0 -53.167 -2.83301 -73.5 -8.5s-42.5 -13.834 -66.5 -24.501l-23 60c17.333 12 42.833 22 76.5 30s61.5 12 83.5 12
c36 0 68 -6.83301 96 -20.5s50.333 -32.167 67 -55.5c19.333 24.667 43.5 43.667 72.5 57s61.833 20 98.5 20c70.667 0 122.834 -24.667 156.501 -74s50.5 -114 50.5 -194h-352c2 -54.667 16.833 -98 44.5 -130s70.167 -48 127.5 -48c26 0 50 3.5 72 10.5zM474.497 392.501
c-23.667 -26.333 -37.833 -62.167 -42.5 -107.5h272c-11.333 98 -55.333 147 -132 147c-41.333 0 -73.833 -13.167 -97.5 -39.5zM305.498 72.5c22.333 14.333 43.166 34.166 62.499 59.499c-11.333 29.333 -17.666 63 -18.999 101h-126
c-31.333 0 -55.833 -9.16699 -73.5 -27.5s-26.5 -40.833 -26.5 -67.5c0 -23.333 7.66699 -43.666 23 -60.999s38 -26 68 -26c38.667 0 69.167 7.16699 91.5 21.5z" />
    <glyph glyph-name="ccedilla" unicode="&#xe7;" horiz-adv-x="458" 
d="M364.5 4c-25 -7.33301 -49.165 -12.333 -72.498 -15l-14 -37c21.333 -4 39.666 -14 54.999 -30s23 -33 23 -51c0 -30 -11.167 -52.833 -33.5 -68.5s-49.833 -23.5 -82.5 -23.5c-12 0 -25.833 2 -41.5 6s-28.167 9 -37.5 15l19 50c8 -3.33301 17.667 -6.66602 29 -9.99902
s21.666 -5 30.999 -5c13.333 0 25.333 3 36 9s16 14.333 16 25c0 12.667 -8.5 23.667 -25.5 33s-38.167 15.333 -63.5 18l27 69c-61.333 8.66699 -109.5 35.834 -144.5 81.501s-52.5 103.5 -52.5 173.5c0 49.333 9.83301 93.166 29.5 131.499s47.5 68.333 83.5 90
s78 32.5 126 32.5c22 0 48.833 -4.16699 80.5 -12.5s57.167 -18.833 76.5 -31.5l-24 -56c-26.667 11.333 -48.834 19.666 -66.501 24.999s-40.5 8 -68.5 8c-48 0 -86 -17.5 -114 -52.5s-42.333 -79.5 -43 -133.5c0 -56.667 13.333 -102.667 40 -138s64.334 -53 113.001 -53
c29.333 0 53.333 2.66699 72 8s39.667 14 63 26l25 -57c-16 -10.667 -36.5 -19.667 -61.5 -27z" />
    <glyph glyph-name="egrave" unicode="&#xe8;" horiz-adv-x="499" 
d="M415.5 424c-33.667 49.333 -85.8311 73.999 -156.498 73.999c-46.667 0 -87.167 -10.833 -121.5 -32.5s-60.333 -51.667 -78 -90s-26.5 -82.166 -26.5 -131.499c0 -78 21.667 -140.333 65 -187s106.333 -70 189 -70c33.333 0 63.666 4.5 90.999 13.5
s54.666 21.167 81.999 36.5l-25 58c-30 -14.667 -55.833 -25.334 -77.5 -32.001s-45.5 -10 -71.5 -10c-57.333 0 -99.833 15.833 -127.5 47.5s-42.5 74.834 -44.5 129.501h352c0 80 -16.833 144.667 -50.5 194zM158.503 391.499c23.667 26.333 56.166 39.501 97.499 39.501
c76.667 0 120.667 -49 132 -147h-272c4.66699 45.333 18.834 81.166 42.501 107.499zM254.002 589l53 15l-54 141h-87z" />
    <glyph glyph-name="eacute" unicode="&#xe9;" horiz-adv-x="499" 
d="M415.5 424c-33.667 49.333 -85.8311 73.999 -156.498 73.999c-46.667 0 -87.167 -10.833 -121.5 -32.5s-60.333 -51.667 -78 -90s-26.5 -82.166 -26.5 -131.499c0 -78 21.667 -140.333 65 -187s106.333 -70 189 -70c33.333 0 63.666 4.5 90.999 13.5
s54.666 21.167 81.999 36.5l-25 58c-30 -14.667 -55.833 -25.334 -77.5 -32.001s-45.5 -10 -71.5 -10c-57.333 0 -99.833 15.833 -127.5 47.5s-42.5 74.834 -44.5 129.501h352c0 80 -16.833 144.667 -50.5 194zM158.503 391.499c23.667 26.333 56.166 39.501 97.499 39.501
c76.667 0 120.667 -49 132 -147h-272c4.66699 45.333 18.834 81.166 42.501 107.499zM255.002 589l88 156h-87l-54 -141z" />
    <glyph glyph-name="ecircumflex" unicode="&#xea;" horiz-adv-x="499" 
d="M415.5 424c-33.667 49.333 -85.8311 73.999 -156.498 73.999c-46.667 0 -87.167 -10.833 -121.5 -32.5s-60.333 -51.667 -78 -90s-26.5 -82.166 -26.5 -131.499c0 -78 21.667 -140.333 65 -187s106.333 -70 189 -70c33.333 0 63.666 4.5 90.999 13.5
s54.666 21.167 81.999 36.5l-25 58c-30 -14.667 -55.833 -25.334 -77.5 -32.001s-45.5 -10 -71.5 -10c-57.333 0 -99.833 15.833 -127.5 47.5s-42.5 74.834 -44.5 129.501h352c0 80 -16.833 144.667 -50.5 194zM158.503 391.499c23.667 26.333 56.166 39.501 97.499 39.501
c76.667 0 120.667 -49 132 -147h-272c4.66699 45.333 18.834 81.166 42.501 107.499zM255.002 687l75 -98l72 10l-116 146h-63l-114 -146l71 -10z" />
    <glyph glyph-name="edieresis" unicode="&#xeb;" horiz-adv-x="499" 
d="M415.5 424c-33.667 49.333 -85.8311 73.999 -156.498 73.999c-46.667 0 -87.167 -10.833 -121.5 -32.5s-60.333 -51.667 -78 -90s-26.5 -82.166 -26.5 -131.499c0 -78 21.667 -140.333 65 -187s106.333 -70 189 -70c33.333 0 63.666 4.5 90.999 13.5
s54.666 21.167 81.999 36.5l-25 58c-30 -14.667 -55.833 -25.334 -77.5 -32.001s-45.5 -10 -71.5 -10c-57.333 0 -99.833 15.833 -127.5 47.5s-42.5 74.834 -44.5 129.501h352c0 80 -16.833 144.667 -50.5 194zM158.503 391.499c23.667 26.333 56.166 39.501 97.499 39.501
c76.667 0 120.667 -49 132 -147h-272c4.66699 45.333 18.834 81.166 42.501 107.499zM202.002 628.5c9.33301 9.66699 14 21.1689 14 34.502s-4.66699 24.666 -14 33.999s-21 14 -35 14c-13.333 0 -24.833 -4.83301 -34.5 -14.5s-14.5 -20.834 -14.5 -33.501
c0 -13.333 4.83301 -24.833 14.5 -34.5s21.167 -14.5 34.5 -14.5c14 0 25.667 4.83301 35 14.5zM367.002 628.502c9.33301 9.66699 14.002 21.167 14.002 34.5s-4.66699 24.666 -14 33.999s-21 14 -35 14c-12.667 0 -23.834 -4.66699 -33.501 -14
s-14.5 -20.666 -14.5 -33.999s4.66699 -24.833 14 -34.5s20.666 -14.5 33.999 -14.5c14 0 25.667 4.83301 35 14.5z" />
    <glyph glyph-name="igrave" unicode="&#xec;" horiz-adv-x="205" 
d="M143 0v485h-80v-485h80zM100 589l53 15l-54 141h-87z" />
    <glyph glyph-name="iacute" unicode="&#xed;" horiz-adv-x="205" 
d="M143 0v485h-80v-485h80zM101 589l88 156h-87l-54 -141z" />
    <glyph glyph-name="icircumflex" unicode="&#xee;" horiz-adv-x="205" 
d="M143 0v485h-80v-485h80zM101 687l75 -98l72 10l-116 146h-63l-114 -146l71 -10z" />
    <glyph glyph-name="idieresis" unicode="&#xef;" horiz-adv-x="205" 
d="M143 0v485h-80v-485h80zM48 628.5c9.33301 9.66699 14 21.1689 14 34.502s-4.66699 24.666 -14 33.999s-21 14 -35 14c-13.333 0 -24.833 -4.83301 -34.5 -14.5s-14.5 -20.834 -14.5 -33.501c0 -13.333 4.83301 -24.833 14.5 -34.5s21.167 -14.5 34.5 -14.5
c14 0 25.667 4.83301 35 14.5zM213 628.502c9.33301 9.66699 14.002 21.167 14.002 34.5s-4.66699 24.666 -14 33.999s-21 14 -35 14c-12.667 0 -23.834 -4.66699 -33.501 -14s-14.5 -20.666 -14.5 -33.999s4.66699 -24.833 14 -34.5s20.666 -14.5 33.999 -14.5
c14 0 25.667 4.83301 35 14.5z" />
    <glyph glyph-name="eth" unicode="&#xf0;" horiz-adv-x="536" 
d="M455 474c32.667 -68.667 49.001 -144.665 49.001 -227.998c0 -50 -9.5 -94.5 -28.5 -133.5s-46.667 -69.667 -83 -92s-79.833 -33.5 -130.5 -33.5c-46.667 0 -87.334 10.833 -122.001 32.5s-61.167 52 -79.5 91s-27.5 83.5 -27.5 133.5
c0.666992 49.333 10.5 93.166 29.5 131.499s46.5 68.333 82.5 90s78 32.5 126 32.5c35.333 0 69.333 -9 102 -27c-30 56 -75 105 -135 147l-124 -63l-30 52l95 47c-23.333 12.667 -52.333 26 -87 40l23 56c51.333 -18.667 96 -39.334 134 -62.001l109 54l29 -49l-82 -42
c67.333 -49.333 117.333 -108.333 150 -177zM380.001 106.502c28 35 42.332 79.5 42.999 133.5c0 49.333 -4.66699 94 -14 134c-36.667 38 -83 57 -139 57c-48 0 -86 -17.5 -114 -52.5s-42.333 -79.5 -43 -133.5c0 -56.667 13.333 -102.667 40 -138s64.334 -53 113.001 -53
c48 0 86 17.5 114 52.5z" />
    <glyph glyph-name="ntilde" unicode="&#xf1;" 
d="M142 344c23.333 25.333 50.168 46.333 80.501 63s57.5 25 81.5 25c31.333 0 53.666 -10 66.999 -30s20 -48 20 -84v-317h79v328c0 52 -12.5 93.5 -37.5 124.5s-63.167 46.5 -114.5 46.5c-30.667 0 -63 -8 -97 -24s-62.667 -36 -86 -60l-13 69h-59v-485h79v344z
M349.002 673.5c-6.66699 -7 -14.665 -10.5 -23.998 -10.5c-17.333 0 -33.666 7.66699 -48.999 23c-14.667 14 -36 21 -64 21c-59.333 0 -89 -32.667 -89 -98h55c0.666992 12.667 4.66699 22.667 12 30s15.666 11 24.999 11c16.667 0 33.667 -7.66699 51 -23
c15.333 -14.667 35 -22 59 -22c27.333 0 49.166 7.66699 65.499 23s24.5 40.333 24.5 75h-55c-0.666992 -12.667 -4.33398 -22.5 -11.001 -29.5z" />
    <glyph glyph-name="ograve" unicode="&#xf2;" horiz-adv-x="536" 
d="M474.5 109.5c-19.667 -38.333 -47.8311 -68.333 -84.498 -90s-79.334 -32.5 -128.001 -32.5c-46.667 0 -87.334 10.833 -122.001 32.5s-61.167 52 -79.5 91s-27.5 83.5 -27.5 133.5c0.666992 49.333 10.5 93.166 29.5 131.499s46.5 68.333 82.5 90s78 32.5 126 32.5
c72.667 0 129.667 -23.167 171 -69.5s62 -108.833 62 -187.5c0 -49.333 -9.83301 -93.166 -29.5 -131.499zM380.003 106.5c28 35 42.333 79.5 43 133.5c0 57.333 -13.333 103.5 -40 138.5s-64.334 52.5 -113.001 52.5c-48 0 -86 -17.5 -114 -52.5s-42.333 -79.5 -43 -133.5
c0 -56.667 13.333 -102.667 40 -138s64.334 -53 113.001 -53c48 0 86 17.5 114 52.5zM266.003 589l53 15l-54 141h-87z" />
    <glyph glyph-name="oacute" unicode="&#xf3;" horiz-adv-x="536" 
d="M474.5 109.5c-19.667 -38.333 -47.8311 -68.333 -84.498 -90s-79.334 -32.5 -128.001 -32.5c-46.667 0 -87.334 10.833 -122.001 32.5s-61.167 52 -79.5 91s-27.5 83.5 -27.5 133.5c0.666992 49.333 10.5 93.166 29.5 131.499s46.5 68.333 82.5 90s78 32.5 126 32.5
c72.667 0 129.667 -23.167 171 -69.5s62 -108.833 62 -187.5c0 -49.333 -9.83301 -93.166 -29.5 -131.499zM380.003 106.5c28 35 42.333 79.5 43 133.5c0 57.333 -13.333 103.5 -40 138.5s-64.334 52.5 -113.001 52.5c-48 0 -86 -17.5 -114 -52.5s-42.333 -79.5 -43 -133.5
c0 -56.667 13.333 -102.667 40 -138s64.334 -53 113.001 -53c48 0 86 17.5 114 52.5zM267.003 589l88 156h-87l-54 -141z" />
    <glyph glyph-name="ocircumflex" unicode="&#xf4;" horiz-adv-x="536" 
d="M474.5 109.5c-19.667 -38.333 -47.8311 -68.333 -84.498 -90s-79.334 -32.5 -128.001 -32.5c-46.667 0 -87.334 10.833 -122.001 32.5s-61.167 52 -79.5 91s-27.5 83.5 -27.5 133.5c0.666992 49.333 10.5 93.166 29.5 131.499s46.5 68.333 82.5 90s78 32.5 126 32.5
c72.667 0 129.667 -23.167 171 -69.5s62 -108.833 62 -187.5c0 -49.333 -9.83301 -93.166 -29.5 -131.499zM380.003 106.5c28 35 42.333 79.5 43 133.5c0 57.333 -13.333 103.5 -40 138.5s-64.334 52.5 -113.001 52.5c-48 0 -86 -17.5 -114 -52.5s-42.333 -79.5 -43 -133.5
c0 -56.667 13.333 -102.667 40 -138s64.334 -53 113.001 -53c48 0 86 17.5 114 52.5zM267.003 687l75 -98l72 10l-116 146h-63l-114 -146l71 -10z" />
    <glyph glyph-name="otilde" unicode="&#xf5;" horiz-adv-x="536" 
d="M474.5 109.5c-19.667 -38.333 -47.8311 -68.333 -84.498 -90s-79.334 -32.5 -128.001 -32.5c-46.667 0 -87.334 10.833 -122.001 32.5s-61.167 52 -79.5 91s-27.5 83.5 -27.5 133.5c0.666992 49.333 10.5 93.166 29.5 131.499s46.5 68.333 82.5 90s78 32.5 126 32.5
c72.667 0 129.667 -23.167 171 -69.5s62 -108.833 62 -187.5c0 -49.333 -9.83301 -93.166 -29.5 -131.499zM380.003 106.5c28 35 42.333 79.5 43 133.5c0 57.333 -13.333 103.5 -40 138.5s-64.334 52.5 -113.001 52.5c-48 0 -86 -17.5 -114 -52.5s-42.333 -79.5 -43 -133.5
c0 -56.667 13.333 -102.667 40 -138s64.334 -53 113.001 -53c48 0 86 17.5 114 52.5zM343.003 673.5c-6.66699 -7 -14.665 -10.5 -23.998 -10.5c-17.333 0 -33.666 7.66699 -48.999 23c-14.667 14 -36 21 -64 21c-59.333 0 -89 -32.667 -89 -98h55
c0.666992 12.667 4.66699 22.667 12 30s15.666 11 24.999 11c16.667 0 33.667 -7.66699 51 -23c15.333 -14.667 35 -22 59 -22c27.333 0 49.166 7.66699 65.499 23s24.5 40.333 24.5 75h-55c-0.666992 -12.667 -4.33398 -22.5 -11.001 -29.5z" />
    <glyph glyph-name="odieresis" unicode="&#xf6;" horiz-adv-x="536" 
d="M474.5 109.5c-19.667 -38.333 -47.8311 -68.333 -84.498 -90s-79.334 -32.5 -128.001 -32.5c-46.667 0 -87.334 10.833 -122.001 32.5s-61.167 52 -79.5 91s-27.5 83.5 -27.5 133.5c0.666992 49.333 10.5 93.166 29.5 131.499s46.5 68.333 82.5 90s78 32.5 126 32.5
c72.667 0 129.667 -23.167 171 -69.5s62 -108.833 62 -187.5c0 -49.333 -9.83301 -93.166 -29.5 -131.499zM380.003 106.5c28 35 42.333 79.5 43 133.5c0 57.333 -13.333 103.5 -40 138.5s-64.334 52.5 -113.001 52.5c-48 0 -86 -17.5 -114 -52.5s-42.333 -79.5 -43 -133.5
c0 -56.667 13.333 -102.667 40 -138s64.334 -53 113.001 -53c48 0 86 17.5 114 52.5zM214.003 628.5c9.33301 9.66699 14 21.1689 14 34.502s-4.66699 24.666 -14 33.999s-21 14 -35 14c-13.333 0 -24.833 -4.83301 -34.5 -14.5s-14.5 -20.834 -14.5 -33.501
c0 -13.333 4.83301 -24.833 14.5 -34.5s21.167 -14.5 34.5 -14.5c14 0 25.667 4.83301 35 14.5zM379.003 628.502c9.33301 9.66699 14.002 21.167 14.002 34.5s-4.66699 24.666 -14 33.999s-21 14 -35 14c-12.667 0 -23.834 -4.66699 -33.501 -14
s-14.5 -20.666 -14.5 -33.999s4.66699 -24.833 14 -34.5s20.666 -14.5 33.999 -14.5c14 0 25.667 4.83301 35 14.5z" />
    <glyph glyph-name="divide" unicode="&#xf7;" horiz-adv-x="500" 
d="M292.5 378.5c11.667 12.333 17.5 26.5 17.5 42.5c0 17.333 -5.83301 32 -17.5 44s-25.834 18 -42.501 18c-17.333 0 -32 -6 -44 -18s-18 -26.667 -18 -44c0 -16 6 -30.167 18 -42.5s26.667 -18.5 44 -18.5c16.667 0 30.834 6.16699 42.501 18.5zM462 305h-432l9 -63h431z
M295 67.5c12 12.333 18 26.833 18 43.5s-6 31 -18 43s-26.667 18 -44 18c-16.667 0 -31 -5.83301 -43 -17.5s-18 -26.167 -18 -43.5s6 -32 18 -44s26.333 -18 43 -18c17.333 0 32 6.16699 44 18.5z" />
    <glyph glyph-name="oslash" unicode="&#xf8;" horiz-adv-x="543" 
d="M442 428.5c41.333 -46.333 62.0029 -108.833 62.0029 -187.5c0 -49.333 -9.83301 -93.166 -29.5 -131.499s-47.834 -68.333 -84.501 -90s-79.334 -32.5 -128.001 -32.5c-46.667 0 -87.334 10.833 -122.001 32.5s-61.167 52 -79.5 91s-27.5 83.5 -27.5 133.5
c0.666992 49.333 10.5 93.166 29.5 131.499s46.5 68.333 82.5 90s78 32.5 126 32.5c72.667 0 129.667 -23.167 171 -69.5zM156.003 378.5c-28 -35 -42.333 -79.5 -43 -133.5c0 -63.333 16.333 -113 49 -149l169 323c-18 8 -38.333 12 -61 12c-48 0 -86 -17.5 -114 -52.5z
M380.003 106.5c28 35 42.333 79.5 43 133.5c0 56.667 -12.333 101.667 -37 135l-165 -315c14 -4 29 -6 45 -6c48 0 86 17.5 114 52.5z" />
    <glyph glyph-name="ugrave" unicode="&#xf9;" 
d="M387 142c-23.333 -25.333 -50.168 -46.333 -80.501 -63s-57.5 -25 -81.5 -25c-31.333 0 -53.666 10 -66.999 30s-20 48 -20 84v317h-79v-328c0 -52 12.5 -93.5 37.5 -124.5s63.167 -46.5 114.5 -46.5c30.667 0 63 8 97 24s62.667 36 86 60l13 -70h59v486h-79v-344z
M255.998 589l53 15l-54 141h-87z" />
    <glyph glyph-name="uacute" unicode="&#xfa;" 
d="M387 142c-23.333 -25.333 -50.168 -46.333 -80.501 -63s-57.5 -25 -81.5 -25c-31.333 0 -53.666 10 -66.999 30s-20 48 -20 84v317h-79v-328c0 -52 12.5 -93.5 37.5 -124.5s63.167 -46.5 114.5 -46.5c30.667 0 63 8 97 24s62.667 36 86 60l13 -70h59v486h-79v-344z
M256.998 589l88 156h-87l-54 -141z" />
    <glyph glyph-name="ucircumflex" unicode="&#xfb;" 
d="M387 142c-23.333 -25.333 -50.168 -46.333 -80.501 -63s-57.5 -25 -81.5 -25c-31.333 0 -53.666 10 -66.999 30s-20 48 -20 84v317h-79v-328c0 -52 12.5 -93.5 37.5 -124.5s63.167 -46.5 114.5 -46.5c30.667 0 63 8 97 24s62.667 36 86 60l13 -70h59v486h-79v-344z
M256.998 687l75 -98l72 10l-116 146h-63l-114 -146l71 -10z" />
    <glyph glyph-name="udieresis" unicode="&#xfc;" 
d="M387 142c-23.333 -25.333 -50.168 -46.333 -80.501 -63s-57.5 -25 -81.5 -25c-31.333 0 -53.666 10 -66.999 30s-20 48 -20 84v317h-79v-328c0 -52 12.5 -93.5 37.5 -124.5s63.167 -46.5 114.5 -46.5c30.667 0 63 8 97 24s62.667 36 86 60l13 -70h59v486h-79v-344z
M203.998 628.5c9.33301 9.66699 14 21.1689 14 34.502s-4.66699 24.666 -14 33.999s-21 14 -35 14c-13.333 0 -24.833 -4.83301 -34.5 -14.5s-14.5 -20.834 -14.5 -33.501c0 -13.333 4.83301 -24.833 14.5 -34.5s21.167 -14.5 34.5 -14.5c14 0 25.667 4.83301 35 14.5z
M368.998 628.502c9.33301 9.66699 14.002 21.167 14.002 34.5s-4.66699 24.666 -14 33.999s-21 14 -35 14c-12.667 0 -23.834 -4.66699 -33.501 -14s-14.5 -20.666 -14.5 -33.999s4.66699 -24.833 14 -34.5s20.666 -14.5 33.999 -14.5c14 0 25.667 4.83301 35 14.5z" />
    <glyph glyph-name="yacute" unicode="&#xfd;" horiz-adv-x="456" 
d="M126.5 -125.5c-15 -10.333 -38.167 -22.832 -69.5 -37.499l24 -57c35.333 7.33301 66.5 21.666 93.5 42.999s46.167 47 57.5 77l214 585h-80l-139 -375l-147 390l-70 -30l180 -467l-30 -83c-7.33301 -20 -18.5 -35.167 -33.5 -45.5zM221 589.001l88 156h-87l-54 -141z
" />
    <glyph glyph-name="thorn" unicode="&#xfe;" horiz-adv-x="525" 
d="M430.5 427.5c41 -47 61.5 -109.168 61.5 -186.501c0 -49.333 -9.5 -93.166 -28.5 -131.499s-46 -68.333 -81 -90s-76.167 -32.5 -123.5 -32.5c-35.333 0 -72.333 12.667 -111 38v-233l-79 -11v915l79 10v-246c18 12 36.833 21.333 56.5 28s38.5 10 56.5 10
c72 0 128.5 -23.5 169.5 -70.5zM372 105.999c26 34.667 39.334 79.332 40.001 133.999c0 57.333 -12.833 103.5 -38.5 138.5s-62.834 52.5 -111.501 52.5c-24 0 -45 -3.83301 -63 -11.5s-35 -19.167 -51 -34.5v-289c16 -13.333 33 -23.666 51 -30.999s38.667 -11 62 -11
c48 0 85 17.333 111 52z" />
    <glyph glyph-name="ydieresis" unicode="&#xff;" horiz-adv-x="456" 
d="M126.5 -125.5c-15 -10.333 -38.167 -22.832 -69.5 -37.499l24 -57c35.333 7.33301 66.5 21.666 93.5 42.999s46.167 47 57.5 77l214 585h-80l-139 -375l-147 390l-70 -30l180 -467l-30 -83c-7.33301 -20 -18.5 -35.167 -33.5 -45.5zM168 628.501
c9.33301 9.66699 14 21.1689 14 34.502s-4.66699 24.666 -14 33.999s-21 14 -35 14c-13.333 0 -24.833 -4.83301 -34.5 -14.5s-14.5 -20.834 -14.5 -33.501c0 -13.333 4.83301 -24.833 14.5 -34.5s21.167 -14.5 34.5 -14.5c14 0 25.667 4.83301 35 14.5zM333 628.503
c9.33301 9.66699 14.002 21.167 14.002 34.5s-4.66699 24.666 -14 33.999s-21 14 -35 14c-12.667 0 -23.834 -4.66699 -33.501 -14s-14.5 -20.666 -14.5 -33.999s4.66699 -24.833 14 -34.5s20.666 -14.5 33.999 -14.5c14 0 25.667 4.83301 35 14.5z" />
    <glyph glyph-name="Amacron" unicode="&#x100;" horiz-adv-x="609" 
d="M262 680l-252 -680h77l71 193h287l76 -200l78 13l-261 674h-76zM422 257h-242l119 319zM172 783h246l-8 63h-238v-63z" />
    <glyph glyph-name="amacron" unicode="&#x101;" horiz-adv-x="488" 
d="M170.5 420.5c20.333 5.66699 44.834 8.49902 73.501 8.49902c36.667 0 63.5 -10.333 80.5 -31s25.5 -49 25.5 -85v-27h-125c-52.667 0 -95 -13 -127 -39s-48 -62.333 -48 -109c0 -44.667 14.167 -81 42.5 -109s69.5 -42 123.5 -42c25.333 0 51.333 6.16699 78 18.5
s49 26.833 67 43.5l10 -49h59v335c0 31.333 -8 59.333 -24 84s-38.333 44 -67 58s-61.334 21 -98.001 21c-22 0 -49.833 -4 -83.5 -12s-59.167 -18 -76.5 -30l23 -60c24 10.667 46.167 18.834 66.5 24.501zM149.501 205.499c17.667 18.333 42.167 27.5 73.5 27.5h128v-110
c-18 -21.333 -38.833 -38.666 -62.5 -51.999s-48.5 -20 -74.5 -20c-30 0 -52.667 8.66699 -68 26s-23 37.666 -23 60.999c0 26.667 8.83301 49.167 26.5 67.5zM115.001 632.999h246l-7 63h-239v-63z" />
    <glyph glyph-name="Abreve" unicode="&#x102;" horiz-adv-x="609" 
d="M262 680l-252 -680h77l71 193h287l76 -200l78 13l-261 674h-76zM422 257h-242l119 319zM355 831.5c-14 -16.333 -33.001 -24.5 -57.001 -24.5s-42.833 8.16699 -56.5 24.5s-20.5 34.833 -20.5 55.5h-57c0 -39.333 11.333 -72.166 34 -98.499s56 -39.833 100 -40.5
c44.667 0.666992 78.334 14.167 101.001 40.5s34 59.166 34 98.499h-57c0 -20.667 -7 -39.167 -21 -55.5z" />
    <glyph glyph-name="abreve" unicode="&#x103;" horiz-adv-x="488" 
d="M170.5 420.5c20.333 5.66699 44.834 8.49902 73.501 8.49902c36.667 0 63.5 -10.333 80.5 -31s25.5 -49 25.5 -85v-27h-125c-52.667 0 -95 -13 -127 -39s-48 -62.333 -48 -109c0 -44.667 14.167 -81 42.5 -109s69.5 -42 123.5 -42c25.333 0 51.333 6.16699 78 18.5
s49 26.833 67 43.5l10 -49h59v335c0 31.333 -8 59.333 -24 84s-38.333 44 -67 58s-61.334 21 -98.001 21c-22 0 -49.833 -4 -83.5 -12s-59.167 -18 -76.5 -30l23 -60c24 10.667 46.167 18.834 66.5 24.501zM149.501 205.499c17.667 18.333 42.167 27.5 73.5 27.5h128v-110
c-18 -21.333 -38.833 -38.666 -62.5 -51.999s-48.5 -20 -74.5 -20c-30 0 -52.667 8.66699 -68 26s-23 37.666 -23 60.999c0 26.667 8.83301 49.167 26.5 67.5zM298.001 681.499c-14 -16.333 -33.001 -24.5 -57.001 -24.5s-42.833 8.16699 -56.5 24.5
s-20.5 34.833 -20.5 55.5h-57c0 -39.333 11.333 -72.166 34 -98.499s56 -39.833 100 -40.5c44.667 0.666992 78.334 14.167 101.001 40.5s34 59.166 34 98.499h-57c0 -20.667 -7 -39.167 -21 -55.5z" />
    <glyph glyph-name="Aogonek" unicode="&#x104;" horiz-adv-x="609" 
d="M663 -173c-22.667 -20.667 -51 -31 -85 -31c-31.333 0 -57 9.33301 -77 28s-30 42.667 -30 72c0 16 4.5 33.667 13.5 53s20.5 36 34.5 50l-74 194h-287l-71 -193h-77l252 680h76l261 -674c-16 -12 -30 -28.167 -42 -48.5s-18 -38.833 -18 -55.5
c0 -16 4.33301 -27.833 13 -35.5s20 -11.5 34 -11.5c17.333 0 34.333 6.66699 51 20zM180 257h242l-123 319z" />
    <glyph glyph-name="aogonek" unicode="&#x105;" horiz-adv-x="488" 
d="M494 -179c-22 -20 -50.333 -29.998 -85 -29.998c-31.333 0 -57 9.33301 -77 28s-30 42.667 -30 72c0 20 6.16699 41.167 18.5 63.5s28.166 42.166 47.499 59.499l-7 35c-18 -16.667 -40.333 -31.167 -67 -43.5s-52.667 -18.5 -78 -18.5c-54 0 -95.167 14 -123.5 42
s-42.5 64.333 -42.5 109c0 46.667 16 83 48 109s74.333 39 127 39h125v27c0 36 -8.5 64.333 -25.5 85s-43.833 31 -80.5 31c-28.667 0 -53.167 -2.83301 -73.5 -8.5s-42.5 -13.834 -66.5 -24.501l-23 60c17.333 12 42.833 22 76.5 30s61.5 12 83.5 12
c36.667 0 69.334 -7 98.001 -21s51 -33.333 67 -58s24 -52.667 24 -84v-335c-16 -12 -30 -28.167 -42 -48.5s-18 -38.5 -18 -54.5s4.33301 -27.833 13 -35.5s20 -11.5 34 -11.5c18.667 0 35.667 6.66699 51 20zM351 233.002h-128c-31.333 0 -55.833 -9.16699 -73.5 -27.5
s-26.5 -40.833 -26.5 -67.5c0 -23.333 7.66699 -43.666 23 -60.999s38 -26 68 -26c26 0 50.833 6.66699 74.5 20s44.5 30.666 62.5 51.999v110z" />
    <glyph glyph-name="Cacute" unicode="&#x106;" horiz-adv-x="557" 
d="M452 683.5c-34.667 7 -64.3301 10.4951 -88.9971 10.4951c-64 0 -120.333 -15.667 -169 -47s-86 -74.166 -112 -128.499s-39 -115.166 -39 -182.499c0 -64 12 -122.667 36 -176s59.667 -95.666 107 -126.999s104.333 -47 171 -47c28.667 0 60.167 3.83301 94.5 11.5
s61.833 16.834 82.5 27.501l-30 60c-20.667 -9.33301 -42.834 -16.666 -66.501 -21.999s-51.5 -8 -83.5 -8c-46.667 0 -87.334 12.5 -122.001 37.5s-61 59 -79 102s-27 90.5 -27 142.5c0 55.333 10.333 105 31 149s49.167 78.333 85.5 103s76.5 37 120.5 37
c31.333 0 56.666 -2.16699 75.999 -6.5s42.333 -11.5 69 -21.5l25 57c-19.333 12 -46.333 21.5 -81 28.5zM370.004 738.995l88 156h-87l-54 -141z" />
    <glyph glyph-name="cacute" unicode="&#x107;" horiz-adv-x="458" 
d="M338 62c-18.667 -5.33301 -42.667 -8.00195 -72 -8.00195c-48.667 0 -86.334 17.667 -113.001 53s-40 81.333 -40 138c0.666992 54 15 98.5 43 133.5s66 52.5 114 52.5c28 0 50.833 -2.66699 68.5 -8s39.834 -13.666 66.501 -24.999l24 56
c-19.333 12.667 -44.833 23.167 -76.5 31.5s-58.5 12.5 -80.5 12.5c-48 0 -90 -10.833 -126 -32.5s-63.833 -51.667 -83.5 -90s-29.5 -82.166 -29.5 -131.499c0 -50 9.33301 -94.5 28 -133.5s45.667 -69.333 81 -91s77 -32.5 125 -32.5c22 0 49 4.16699 81 12.5
s58 18.833 78 31.5l-25 57c-23.333 -12 -44.333 -20.667 -63 -26zM254 588.998l88 156h-87l-54 -141z" />
    <glyph glyph-name="Ccaron" unicode="&#x10c;" horiz-adv-x="557" 
d="M452 683.5c-34.667 7 -64.3301 10.4951 -88.9971 10.4951c-64 0 -120.333 -15.667 -169 -47s-86 -74.166 -112 -128.499s-39 -115.166 -39 -182.499c0 -64 12 -122.667 36 -176s59.667 -95.666 107 -126.999s104.333 -47 171 -47c28.667 0 60.167 3.83301 94.5 11.5
s61.833 16.834 82.5 27.501l-30 60c-20.667 -9.33301 -42.834 -16.666 -66.501 -21.999s-51.5 -8 -83.5 -8c-46.667 0 -87.334 12.5 -122.001 37.5s-61 59 -79 102s-27 90.5 -27 142.5c0 55.333 10.333 105 31 149s49.167 78.333 85.5 103s76.5 37 120.5 37
c31.333 0 56.666 -2.16699 75.999 -6.5s42.333 -11.5 69 -21.5l25 57c-19.333 12 -46.333 21.5 -81 28.5zM363.004 796.995l-75 98l-72 -10l116 -146h63l114 146l-71 10z" />
    <glyph glyph-name="ccaron" unicode="&#x10d;" horiz-adv-x="458" 
d="M338 62c-18.667 -5.33301 -42.667 -8.00195 -72 -8.00195c-48.667 0 -86.334 17.667 -113.001 53s-40 81.333 -40 138c0.666992 54 15 98.5 43 133.5s66 52.5 114 52.5c28 0 50.833 -2.66699 68.5 -8s39.834 -13.666 66.501 -24.999l24 56
c-19.333 12.667 -44.833 23.167 -76.5 31.5s-58.5 12.5 -80.5 12.5c-48 0 -90 -10.833 -126 -32.5s-63.833 -51.667 -83.5 -90s-29.5 -82.166 -29.5 -131.499c0 -50 9.33301 -94.5 28 -133.5s45.667 -69.333 81 -91s77 -32.5 125 -32.5c22 0 49 4.16699 81 12.5
s58 18.833 78 31.5l-25 57c-23.333 -12 -44.333 -20.667 -63 -26zM259 646.998l-75 98l-72 -10l116 -146h63l114 146l-71 10z" />
    <glyph glyph-name="Dcaron" unicode="&#x10e;" horiz-adv-x="671" 
d="M490.5 45c45.667 30 80.166 70.833 103.499 122.5s35 110.5 35 176.5c0 100 -24.667 181 -74 243s-124 93 -224 93h-238v-680h232c64.667 0 119.834 15 165.501 45zM495.499 539c36.333 -49.333 54.502 -114.666 54.502 -195.999
c0 -56.667 -9.33301 -105.834 -28 -147.501s-44.834 -73.667 -78.501 -96s-72.834 -33.5 -117.501 -33.5h-154v547h163c70.667 0 124.167 -24.667 160.5 -74zM322.001 797l-75 98l-72 -10l116 -146h63l114 146l-71 10z" />
    <glyph glyph-name="dcaron" unicode="&#x10f;" horiz-adv-x="677" 
d="M630.5 694.5c11 -11.667 16.5 -26.833 16.5 -45.5c0 -32 -10 -63.833 -30 -95.5s-44 -54.834 -72 -69.501l-21 37c18 12.667 31.833 25.334 41.5 38.001s15.5 27.667 17.5 45c-12.667 0.666992 -23.5 6.5 -32.5 17.5s-13.5 23.167 -13.5 36.5c0 14 5.5 26.5 16.5 37.5
s23.833 16.5 38.5 16.5s27.5 -5.83301 38.5 -17.5zM378 696.001l80 9.00195v-705h-48l-15 37c-20 -16 -41.667 -28.333 -65 -37s-45.333 -13 -66 -13c-72 0 -128.5 23.5 -169.5 70.5s-61.5 109.5 -61.5 187.5c0 49.333 9.5 93.166 28.5 131.499s46 68.166 81 89.499
s76.167 32 123.5 32c17.333 0 35.833 -3.33301 55.5 -10s38.5 -15.667 56.5 -27v235zM326.5 65.5029c18.333 7.66699 35.499 19.5 51.499 35.5v287c-32 28.667 -70 43 -114 43c-48 0 -85 -17.167 -111 -51.5s-39.333 -78.833 -40 -133.5c0 -58 12.833 -104.5 38.5 -139.5
s62.834 -52.5 111.501 -52.5c24 0 45.167 3.83301 63.5 11.5z" />
    <glyph glyph-name="Dcroat" unicode="&#x110;" horiz-adv-x="671" 
d="M555 587c49.333 -62 74.001 -143 74.001 -243c0 -66 -11.667 -124.833 -35 -176.5s-57.833 -92.5 -103.5 -122.5s-100.834 -45 -165.501 -45h-232v305h-64l-9 62h73v313h238c100 0 174.667 -31 224 -93zM443.501 99.5c33.667 22.333 59.832 54.333 78.499 96
s28 90.834 28 147.501c0 81.333 -18.167 146.666 -54.5 195.999s-89.833 74 -160.5 74h-163v-246h101l9 -62h-110v-239h154c44.667 0 83.834 11.167 117.501 33.5z" />
    <glyph glyph-name="dcroat" unicode="&#x111;" horiz-adv-x="530" 
d="M536 561l-78 0.00195312v-561h-48l-15 37c-20 -16 -41.667 -28.333 -65 -37s-45.333 -13 -66 -13c-72 0 -128.5 23.5 -169.5 70.5s-61.5 109.5 -61.5 187.5c0 49.333 9.5 93.166 28.5 131.499s46 68.166 81 89.499s76.167 32 123.5 32c17.333 0 35.833 -3.33301 55.5 -10
s38.5 -15.667 56.5 -27v100h-93l-9 57h102v78l80 9v-87h70zM326.5 65.502c18.333 7.66699 35.499 19.5 51.499 35.5v287c-32 28.667 -70 43 -114 43c-48 0 -85 -17.167 -111 -51.5s-39.333 -78.833 -40 -133.5c0 -58 12.833 -104.5 38.5 -139.5s62.834 -52.5 111.501 -52.5
c24 0 45.167 3.83301 63.5 11.5z" />
    <glyph glyph-name="Emacron" unicode="&#x112;" horiz-adv-x="523" 
d="M503 0l-10 63h-321v255h244l-9 59h-235v244h301l-9 59h-371v-680h410zM160 783h246l-8 63h-238v-63z" />
    <glyph glyph-name="emacron" unicode="&#x113;" horiz-adv-x="499" 
d="M415.5 424c-33.667 49.333 -85.8311 73.999 -156.498 73.999c-46.667 0 -87.167 -10.833 -121.5 -32.5s-60.333 -51.667 -78 -90s-26.5 -82.166 -26.5 -131.499c0 -78 21.667 -140.333 65 -187s106.333 -70 189 -70c33.333 0 63.666 4.5 90.999 13.5
s54.666 21.167 81.999 36.5l-25 58c-30 -14.667 -55.833 -25.334 -77.5 -32.001s-45.5 -10 -71.5 -10c-57.333 0 -99.833 15.833 -127.5 47.5s-42.5 74.834 -44.5 129.501h352c0 80 -16.833 144.667 -50.5 194zM158.503 391.499c23.667 26.333 56.166 39.501 97.499 39.501
c76.667 0 120.667 -49 132 -147h-272c4.66699 45.333 18.834 81.166 42.501 107.499zM128.002 633h246l-7 63h-239v-63z" />
    <glyph glyph-name="Edotaccent" unicode="&#x116;" horiz-adv-x="523" 
d="M503 0l-10 63h-321v255h244l-9 59h-235v244h301l-9 59h-371v-680h410zM323.5 778c10.333 10.667 15.5 23.334 15.5 38.001s-5.16699 27.5 -15.5 38.5s-22.833 16.5 -37.5 16.5s-27.5 -5.5 -38.5 -16.5s-16.5 -23.833 -16.5 -38.5s5.33301 -27.334 16 -38.001
s23.667 -16 39 -16c14.667 0 27.167 5.33301 37.5 16z" />
    <glyph glyph-name="edotaccent" unicode="&#x117;" horiz-adv-x="499" 
d="M415.5 424c-33.667 49.333 -85.8311 73.999 -156.498 73.999c-46.667 0 -87.167 -10.833 -121.5 -32.5s-60.333 -51.667 -78 -90s-26.5 -82.166 -26.5 -131.499c0 -78 21.667 -140.333 65 -187s106.333 -70 189 -70c33.333 0 63.666 4.5 90.999 13.5
s54.666 21.167 81.999 36.5l-25 58c-30 -14.667 -55.833 -25.334 -77.5 -32.001s-45.5 -10 -71.5 -10c-57.333 0 -99.833 15.833 -127.5 47.5s-42.5 74.834 -44.5 129.501h352c0 80 -16.833 144.667 -50.5 194zM158.503 391.499c23.667 26.333 56.166 39.501 97.499 39.501
c76.667 0 120.667 -49 132 -147h-272c4.66699 45.333 18.834 81.166 42.501 107.499zM294.502 628c10.333 10.667 15.5 23.334 15.5 38.001s-5.16699 27.5 -15.5 38.5s-22.833 16.5 -37.5 16.5s-27.5 -5.5 -38.5 -16.5s-16.5 -23.833 -16.5 -38.5
s5.33301 -27.334 16 -38.001s23.667 -16 39 -16c14.667 0 27.167 5.33301 37.5 16z" />
    <glyph glyph-name="Eogonek" unicode="&#x118;" horiz-adv-x="523" 
d="M506 -177c-22 -20 -50.667 -30 -86 -30c-31.333 0 -57 9.33301 -77 28s-30 42.667 -30 72c0 16.667 5 35.167 15 55.5s22.667 37.5 38 51.5h-273v680h371l9 -59h-301v-244h235l9 -59h-244v-255h321l10 -63h-65c-15.333 -12 -28.5 -27.833 -39.5 -47.5
s-16.5 -37.5 -16.5 -53.5s4.33301 -27.833 13 -35.5s19.667 -11.5 33 -11.5c18 0 35.333 6.66699 52 20z" />
    <glyph glyph-name="eogonek" unicode="&#x119;" horiz-adv-x="499" 
d="M334.5 -48.5c-11 -19.667 -16.501 -37.166 -16.501 -52.499c0 -16 4.33301 -27.833 13 -35.5s19.667 -11.5 33 -11.5c18 0 35.333 6.66699 52 20l26 -49c-22 -20 -50.667 -30 -86 -30c-31.333 0 -57 9.33301 -77 28s-30 42.667 -30 72c0 14 3.66699 29.5 11 46.5
s17 32.833 29 47.5h-2c-82.667 0 -145.667 23.333 -189 70s-65 109 -65 187c0 49.333 8.83301 93.166 26.5 131.499s43.667 68.333 78 90s74.833 32.5 121.5 32.5c70.667 0 122.834 -24.667 156.501 -74s50.5 -114 50.5 -194h-352c2 -54.667 16.833 -97.834 44.5 -129.501
s70.167 -47.5 127.5 -47.5c26 0 49.833 3.33301 71.5 10s47.5 17.334 77.5 32.001l25 -58c-30.667 -17.333 -59.667 -30 -87 -38c-14.667 -12 -27.5 -27.833 -38.5 -47.5zM158.499 391.501c-23.667 -26.333 -37.833 -62.167 -42.5 -107.5h272
c-11.333 98 -55.333 147 -132 147c-41.333 0 -73.833 -13.167 -97.5 -39.5z" />
    <glyph glyph-name="Ecaron" unicode="&#x11a;" horiz-adv-x="523" 
d="M503 0l-10 63h-321v255h244l-9 59h-235v244h301l-9 59h-371v-680h410zM287 797l-75 98l-72 -10l116 -146h63l114 146l-71 10z" />
    <glyph glyph-name="ecaron" unicode="&#x11b;" horiz-adv-x="499" 
d="M415.5 424c-33.667 49.333 -85.8311 73.999 -156.498 73.999c-46.667 0 -87.167 -10.833 -121.5 -32.5s-60.333 -51.667 -78 -90s-26.5 -82.166 -26.5 -131.499c0 -78 21.667 -140.333 65 -187s106.333 -70 189 -70c33.333 0 63.666 4.5 90.999 13.5
s54.666 21.167 81.999 36.5l-25 58c-30 -14.667 -55.833 -25.334 -77.5 -32.001s-45.5 -10 -71.5 -10c-57.333 0 -99.833 15.833 -127.5 47.5s-42.5 74.834 -44.5 129.501h352c0 80 -16.833 144.667 -50.5 194zM158.503 391.499c23.667 26.333 56.166 39.501 97.499 39.501
c76.667 0 120.667 -49 132 -147h-272c4.66699 45.333 18.834 81.166 42.501 107.499zM260.002 647l-75 98l-72 -10l116 -146h63l114 146l-71 10z" />
    <glyph glyph-name="Gbreve" unicode="&#x11e;" horiz-adv-x="627" 
d="M499 291l-0.000976562 -216.003c-37.333 -13.333 -76 -20 -116 -20c-48.667 0 -92.5 11.5 -131.5 34.5s-69.667 55.833 -92 98.5s-33.5 92.334 -33.5 149.001c0 59.333 12.5 110.833 37.5 154.5s58 77 99 100s85.167 34.5 132.5 34.5c30.667 0 55.667 -2.16699 75 -6.5
s42.333 -11.5 69 -21.5l25 57c-19.333 12 -46.5 21.5 -81.5 28.5s-64.833 10.5 -89.5 10.5c-65.333 0 -124.666 -15.167 -177.999 -45.5s-95.333 -72.666 -126 -126.999s-46 -116.166 -46 -185.499c0 -66 14 -125.5 42 -178.5s67.833 -94.833 119.5 -125.5
s111.5 -46 179.5 -46c33.333 0 68 4.5 104 13.5s64.667 20.167 86 33.5l1 317h-219l-7 -59h150zM424.999 831.497c-14 -16.333 -33.001 -24.5 -57.001 -24.5s-42.833 8.16699 -56.5 24.5s-20.5 34.833 -20.5 55.5h-57c0 -39.333 11.333 -72.166 34 -98.499
s56 -39.833 100 -40.5c44.667 0.666992 78.334 14.167 101.001 40.5s34 59.166 34 98.499h-57c0 -20.667 -7 -39.167 -21 -55.5z" />
    <glyph glyph-name="gbreve" unicode="&#x11f;" horiz-adv-x="526" 
d="M458 485l-0.00195312 -537.997c0 -34 -8.66699 -64.333 -26 -91s-42.666 -47.667 -75.999 -63s-72.333 -23 -117 -23c-22.667 0 -51.5 4.16699 -86.5 12.5s-62.5 18.833 -82.5 31.5l24 58c26 -12.667 49.167 -22 69.5 -28s44.5 -9 72.5 -9c42 0 76.167 9.66699 102.5 29
s39.5 47.333 39.5 84v77c-18 -12 -37.167 -21.333 -57.5 -28s-39.166 -10 -56.499 -10c-72 0 -128.5 23.5 -169.5 70.5s-61.5 109.5 -61.5 187.5c0 49.333 9.5 93.166 28.5 131.499s46 68.166 81 89.499s76.167 32 123.5 32c20 0 41.333 -4.33301 64 -13
s43.667 -20.334 63 -35.001l17 35h48zM326.498 65.5029c18.333 7.66699 35.499 19.5 51.499 35.5v287c-32 28.667 -70 43 -114 43c-48 0 -85 -17.167 -111 -51.5s-39.333 -78.833 -40 -133.5c0 -58 12.833 -104.5 38.5 -139.5s62.834 -52.5 111.501 -52.5
c24 0 45.167 3.83301 63.5 11.5zM311.997 681.503c-14 -16.333 -33.001 -24.5 -57.001 -24.5s-42.833 8.16699 -56.5 24.5s-20.5 34.833 -20.5 55.5h-57c0 -39.333 11.333 -72.166 34 -98.499s56 -39.833 100 -40.5c44.667 0.666992 78.334 14.167 101.001 40.5
s34 59.166 34 98.499h-57c0 -20.667 -7 -39.167 -21 -55.5z" />
    <glyph glyph-name="Gcommaaccent" unicode="&#x122;" horiz-adv-x="627" 
d="M499 291l-0.000976562 -216.003c-37.333 -13.333 -76 -20 -116 -20c-48.667 0 -92.5 11.5 -131.5 34.5s-69.667 55.833 -92 98.5s-33.5 92.334 -33.5 149.001c0 59.333 12.5 110.833 37.5 154.5s58 77 99 100s85.167 34.5 132.5 34.5c30.667 0 55.667 -2.16699 75 -6.5
s42.333 -11.5 69 -21.5l25 57c-19.333 12 -46.5 21.5 -81.5 28.5s-64.833 10.5 -89.5 10.5c-65.333 0 -124.666 -15.167 -177.999 -45.5s-95.333 -72.666 -126 -126.999s-46 -116.166 -46 -185.499c0 -66 14 -125.5 42 -178.5s67.833 -94.833 119.5 -125.5
s111.5 -46 179.5 -46c33.333 0 68 4.5 104 13.5s64.667 20.167 86 33.5l1 317h-219l-7 -59h150zM346.999 -37.5029c-10.667 -11 -15.998 -23.834 -15.998 -38.501c0 -13.333 4.5 -25.333 13.5 -36s19.833 -16.334 32.5 -17.001
c-2.66699 -27.333 -21.334 -51.666 -56.001 -72.999l21 -38c27.333 13.333 50.5 34.833 69.5 64.5s28.5 60.167 28.5 91.5c0 18.667 -5.33301 33.834 -16 45.501s-23.667 17.5 -39 17.5c-14.667 0 -27.334 -5.5 -38.001 -16.5z" />
    <glyph glyph-name="gcommaaccent" unicode="&#x123;" horiz-adv-x="526" 
d="M224.5 577.5c-10.333 11.667 -15.5 27.168 -15.5 46.501c0 31.333 9.33301 61.5 28 90.5s41.667 50.5 69 64.5l21 -38c-34 -20.667 -52.667 -45 -56 -73c12 -1.33301 22.667 -7.33301 32 -18s14 -22.334 14 -35.001c0 -14.667 -5.33301 -27.5 -16 -38.5
s-23.334 -16.5 -38.001 -16.5c-15.333 0 -28.166 5.83301 -38.499 17.5zM458 485.001l-0.00195312 -537.997c0 -34 -8.66699 -64.333 -26 -91s-42.666 -47.667 -75.999 -63s-72.333 -23 -117 -23c-22.667 0 -51.5 4.16699 -86.5 12.5s-62.5 18.833 -82.5 31.5l24 58
c26 -12.667 49.167 -22 69.5 -28s44.5 -9 72.5 -9c42 0 76.167 9.66699 102.5 29s39.5 47.333 39.5 84v77c-18 -12 -37.167 -21.333 -57.5 -28s-39.166 -10 -56.499 -10c-72 0 -128.5 23.5 -169.5 70.5s-61.5 109.5 -61.5 187.5c0 49.333 9.5 93.166 28.5 131.499
s46 68.166 81 89.499s76.167 32 123.5 32c20 0 41.333 -4.33301 64 -13s43.667 -20.334 63 -35.001l17 35h48zM326.498 65.5039c18.333 7.66699 35.499 19.5 51.499 35.5v287c-32 28.667 -70 43 -114 43c-48 0 -85 -17.167 -111 -51.5s-39.333 -78.833 -40 -133.5
c0 -58 12.833 -104.5 38.5 -139.5s62.834 -52.5 111.501 -52.5c24 0 45.167 3.83301 63.5 11.5z" />
    <glyph glyph-name="Imacron" unicode="&#x12a;" horiz-adv-x="264" 
d="M172 0v680h-79v-680h79zM7 783h246l-8 63h-238v-63z" />
    <glyph glyph-name="imacron" unicode="&#x12b;" horiz-adv-x="205" 
d="M143 0v485h-80v-485h80zM-26 633h246l-7 63h-239v-63z" />
    <glyph glyph-name="Iogonek" unicode="&#x12e;" horiz-adv-x="264" 
d="M235 -179c-22 -20 -50.666 -30 -85.999 -30c-31.333 0 -57 9.33301 -77 28s-30 42.667 -30 72c0 17.333 4.66699 36.5 14 57.5s21.666 38.167 36.999 51.5v680h79v-680c-16 -12 -30.167 -28.167 -42.5 -48.5s-18.5 -38.5 -18.5 -54.5s4.33301 -27.833 13 -35.5
s19.667 -11.5 33 -11.5c18 0 35.333 6.66699 52 20z" />
    <glyph glyph-name="iogonek" unicode="&#x12f;" horiz-adv-x="205" 
d="M64 628c-10.667 10.667 -16 23.334 -16 38.001s5.5 27.5 16.5 38.5s23.833 16.5 38.5 16.5s27.167 -5.5 37.5 -16.5s15.5 -23.833 15.5 -38.5s-5.16699 -27.334 -15.5 -38.001s-22.833 -16 -37.5 -16c-15.333 0 -28.333 5.33301 -39 16zM206 -179
c-22 -20 -50.667 -30 -86 -30c-31.333 0 -57 9.33301 -77 28s-30 42.667 -30 72c0 18 4.5 37.333 13.5 58s21.167 37.667 36.5 51v485h80v-485c-16 -12 -30.167 -28.167 -42.5 -48.5s-18.5 -38.5 -18.5 -54.5s4.33301 -27.833 13 -35.5s19.667 -11.5 33 -11.5
c18 0 35.333 6.66699 52 20z" />
    <glyph glyph-name="Idotaccent" unicode="&#x130;" horiz-adv-x="264" 
d="M172 0v680h-79v-680h79zM170.5 778c10.333 10.667 15.5 23.334 15.5 38.001s-5.16699 27.5 -15.5 38.5s-22.833 16.5 -37.5 16.5s-27.5 -5.5 -38.5 -16.5s-16.5 -23.833 -16.5 -38.5s5.33301 -27.334 16 -38.001s23.667 -16 39 -16c14.667 0 27.167 5.33301 37.5 16z" />
    <glyph glyph-name="dotlessi" unicode="&#x131;" horiz-adv-x="205" 
d="M143 0v485h-80v-485h80z" />
    <glyph glyph-name="Kcommaaccent" unicode="&#x136;" horiz-adv-x="609" 
d="M504 0l-255 327l-77 -81v-246h-79v680h79v-330l328 345l54 -47l-253 -265l298 -383h-95zM301 -37.5c-10.667 -11 -15.998 -23.834 -15.998 -38.501c0 -13.333 4.5 -25.333 13.5 -36s19.833 -16.334 32.5 -17.001c-2.66699 -27.333 -21.334 -51.666 -56.001 -72.999
l21 -38c27.333 13.333 50.5 34.833 69.5 64.5s28.5 60.167 28.5 91.5c0 18.667 -5.33301 33.834 -16 45.501s-23.667 17.5 -39 17.5c-14.667 0 -27.334 -5.5 -38.001 -16.5z" />
    <glyph glyph-name="kcommaaccent" unicode="&#x137;" horiz-adv-x="472" 
d="M152 0v182l67 67l160 -249h93l-200 301l148 147l-48 50l-220 -221v429l-79 -10v-696h79zM226 -37.5c-10.667 -11 -15.998 -23.834 -15.998 -38.501c0 -13.333 4.5 -25.333 13.5 -36s19.833 -16.334 32.5 -17.001c-2.66699 -27.333 -21.334 -51.666 -56.001 -72.999
l21 -38c27.333 13.333 50.5 34.833 69.5 64.5s28.5 60.167 28.5 91.5c0 18.667 -5.33301 33.834 -16 45.501s-23.667 17.5 -39 17.5c-14.667 0 -27.334 -5.5 -38.001 -16.5z" />
    <glyph glyph-name="Lacute" unicode="&#x139;" horiz-adv-x="506" 
d="M488 63h-316v617h-79v-680h403zM179 739l88 156h-87l-54 -141z" />
    <glyph glyph-name="lacute" unicode="&#x13a;" horiz-adv-x="224" 
d="M139 739l87 156h-86l-54 -141zM152 0v685l-79 -12v-673h79z" />
    <glyph glyph-name="Lcommaaccent" unicode="&#x13b;" horiz-adv-x="506" 
d="M488 63h-316v617h-79v-680h403zM307 -37.5c-10.667 -11 -15.998 -23.834 -15.998 -38.501c0 -13.333 4.5 -25.333 13.5 -36s19.833 -16.334 32.5 -17.001c-2.66699 -27.333 -21.334 -51.666 -56.001 -72.999l21 -38c27.333 13.333 50.5 34.833 69.5 64.5
s28.5 60.167 28.5 91.5c0 18.667 -5.33301 33.834 -16 45.501s-23.667 17.5 -39 17.5c-14.667 0 -27.334 -5.5 -38.001 -16.5z" />
    <glyph glyph-name="lcommaaccent" unicode="&#x13c;" horiz-adv-x="224" 
d="M152 0v706l-79 -10v-696h79zM76 -37.5c-10.667 -11 -15.998 -23.834 -15.998 -38.501c0 -13.333 4.5 -25.333 13.5 -36s19.833 -16.334 32.5 -17.001c-2.66699 -27.333 -21.334 -51.666 -56.001 -72.999l21 -38c27.333 13.333 50.5 34.833 69.5 64.5
s28.5 60.167 28.5 91.5c0 18.667 -5.33301 33.834 -16 45.501s-23.667 17.5 -39 17.5c-14.667 0 -27.334 -5.5 -38.001 -16.5z" />
    <glyph glyph-name="Lcaron" unicode="&#x13d;" horiz-adv-x="506" 
d="M488 63h-316v617h-79v-680h403zM358.5 695.5c-11 -11 -16.5 -23.501 -16.5 -37.501c0 -13.333 4.5 -25.5 13.5 -36.5s19.833 -16.833 32.5 -17.5c-2 -17.333 -7.83301 -32.333 -17.5 -45s-23.5 -25.334 -41.5 -38.001l21 -37c28 14.667 52 37.834 72 69.501
s30 63.5 30 95.5c0 18.667 -5.5 33.834 -16.5 45.501s-23.833 17.5 -38.5 17.5s-27.5 -5.5 -38.5 -16.5z" />
    <glyph glyph-name="lcaron" unicode="&#x13e;" horiz-adv-x="371" 
d="M247.5 695.5c-11 -11 -16.5 -23.501 -16.5 -37.501c0 -13.333 4.5 -25.5 13.5 -36.5s19.833 -16.833 32.5 -17.5c-2 -17.333 -7.83301 -32.333 -17.5 -45s-23.5 -25.334 -41.5 -38.001l21 -37c28 14.667 52 37.834 72 69.501s30 63.5 30 95.5
c0 18.667 -5.5 33.834 -16.5 45.501s-23.833 17.5 -38.5 17.5s-27.5 -5.5 -38.5 -16.5zM152 -0.000976562v706l-79 -10v-696h79z" />
    <glyph glyph-name="Lslash" unicode="&#x141;" horiz-adv-x="501" 
d="M88 0v240l-38 -32l-35 52l73 61v359h79v-293l114 96l35 -51l-149 -126v-243h316l8 -63h-403z" />
    <glyph glyph-name="lslash" unicode="&#x142;" horiz-adv-x="299" 
d="M265 504l-75 -65v267l-79 -10v-322l-111 -93l35 -52l76 65v-294h79v359l109 94z" />
    <glyph glyph-name="Nacute" unicode="&#x143;" horiz-adv-x="700" 
d="M172 0v534l26 -45l346 -489h64v680h-80v-527l-41 67l-331 460h-63v-680h79zM359 739l88 156h-87l-54 -141z" />
    <glyph glyph-name="nacute" unicode="&#x144;" 
d="M142 344c23.333 25.333 50.168 46.333 80.501 63s57.5 25 81.5 25c31.333 0 53.666 -10 66.999 -30s20 -48 20 -84v-317h79v328c0 52 -12.5 93.5 -37.5 124.5s-63.167 46.5 -114.5 46.5c-30.667 0 -63 -8 -97 -24s-62.667 -36 -86 -60l-13 69h-59v-485h79v344z
M273.002 589l88 156h-87l-54 -141z" />
    <glyph glyph-name="Ncommaaccent" unicode="&#x145;" horiz-adv-x="700" 
d="M172 0v534l26 -45l346 -489h64v680h-80v-527l-41 67l-331 460h-63v-680h79zM320 -37.5c-10.667 -11 -15.998 -23.834 -15.998 -38.501c0 -13.333 4.5 -25.333 13.5 -36s19.833 -16.334 32.5 -17.001c-2.66699 -27.333 -21.334 -51.666 -56.001 -72.999l21 -38
c27.333 13.333 50.5 34.833 69.5 64.5s28.5 60.167 28.5 91.5c0 18.667 -5.33301 33.834 -16 45.501s-23.667 17.5 -39 17.5c-14.667 0 -27.334 -5.5 -38.001 -16.5z" />
    <glyph glyph-name="ncommaaccent" unicode="&#x146;" 
d="M142 344c23.333 25.333 50.168 46.333 80.501 63s57.5 25 81.5 25c31.333 0 53.666 -10 66.999 -30s20 -48 20 -84v-317h79v328c0 52 -12.5 93.5 -37.5 124.5s-63.167 46.5 -114.5 46.5c-30.667 0 -63 -8 -97 -24s-62.667 -36 -86 -60l-13 69h-59v-485h79v344z
M237.002 -37.5c-10.667 -11 -15.998 -23.834 -15.998 -38.501c0 -13.333 4.5 -25.333 13.5 -36s19.833 -16.334 32.5 -17.001c-2.66699 -27.333 -21.334 -51.666 -56.001 -72.999l21 -38c27.333 13.333 50.5 34.833 69.5 64.5s28.5 60.167 28.5 91.5
c0 18.667 -5.33301 33.834 -16 45.501s-23.667 17.5 -39 17.5c-14.667 0 -27.334 -5.5 -38.001 -16.5z" />
    <glyph glyph-name="Ncaron" unicode="&#x147;" horiz-adv-x="700" 
d="M172 0v534l26 -45l346 -489h64v680h-80v-527l-41 67l-331 460h-63v-680h79zM352 797l-75 98l-72 -10l116 -146h63l114 146l-71 10z" />
    <glyph glyph-name="ncaron" unicode="&#x148;" 
d="M142 344c23.333 25.333 50.168 46.333 80.501 63s57.5 25 81.5 25c31.333 0 53.666 -10 66.999 -30s20 -48 20 -84v-317h79v328c0 52 -12.5 93.5 -37.5 124.5s-63.167 46.5 -114.5 46.5c-30.667 0 -63 -8 -97 -24s-62.667 -36 -86 -60l-13 69h-59v-485h79v344z
M278.002 647l-75 98l-72 -10l116 -146h63l114 146l-71 10z" />
    <glyph glyph-name="Omacron" unicode="&#x14c;" horiz-adv-x="725" 
d="M199 647c-48.667 -31.333 -86.8311 -73.999 -114.498 -127.999s-41.5 -114.667 -41.5 -182s13.667 -127.666 41 -180.999s65 -95 113 -125s102.333 -45 163 -45c61.333 0.666992 116.666 16.667 165.999 48s87.833 74.166 115.5 128.499s41.5 115.166 41.5 182.499
s-13.667 127.666 -41 180.999s-65.333 95 -114 125s-103.334 45 -164.001 45c-61.333 -1.33301 -116.333 -17.666 -165 -48.999zM157.003 486.501c20.667 43.667 49.167 78 85.5 103s77.5 37.5 123.5 37.5c44.667 0 84.5 -12.167 119.5 -36.5s62.5 -58 82.5 -101
s30 -91.5 30 -145.5c0 -55.333 -10.333 -105 -31 -149s-49.167 -78.333 -85.5 -103s-77.5 -37 -123.5 -37c-44.667 0 -84.5 12.167 -119.5 36.5s-62.5 58 -82.5 101s-30 91.5 -30 145.5c0 55.333 10.333 104.833 31 148.5zM237.003 783.001h246l-8 63h-238v-63z" />
    <glyph glyph-name="omacron" unicode="&#x14d;" horiz-adv-x="536" 
d="M474.5 109.5c-19.667 -38.333 -47.8311 -68.333 -84.498 -90s-79.334 -32.5 -128.001 -32.5c-46.667 0 -87.334 10.833 -122.001 32.5s-61.167 52 -79.5 91s-27.5 83.5 -27.5 133.5c0.666992 49.333 10.5 93.166 29.5 131.499s46.5 68.333 82.5 90s78 32.5 126 32.5
c72.667 0 129.667 -23.167 171 -69.5s62 -108.833 62 -187.5c0 -49.333 -9.83301 -93.166 -29.5 -131.499zM380.003 106.5c28 35 42.333 79.5 43 133.5c0 57.333 -13.333 103.5 -40 138.5s-64.334 52.5 -113.001 52.5c-48 0 -86 -17.5 -114 -52.5s-42.333 -79.5 -43 -133.5
c0 -56.667 13.333 -102.667 40 -138s64.334 -53 113.001 -53c48 0 86 17.5 114 52.5zM140.003 633h246l-7 63h-239v-63z" />
    <glyph glyph-name="Ohungarumlaut" unicode="&#x150;" horiz-adv-x="725" 
d="M199 647c-48.667 -31.333 -86.8311 -73.999 -114.498 -127.999s-41.5 -114.667 -41.5 -182s13.667 -127.666 41 -180.999s65 -95 113 -125s102.333 -45 163 -45c61.333 0.666992 116.666 16.667 165.999 48s87.833 74.166 115.5 128.499s41.5 115.166 41.5 182.499
s-13.667 127.666 -41 180.999s-65.333 95 -114 125s-103.334 45 -164.001 45c-61.333 -1.33301 -116.333 -17.666 -165 -48.999zM157.003 486.501c20.667 43.667 49.167 78 85.5 103s77.5 37.5 123.5 37.5c44.667 0 84.5 -12.167 119.5 -36.5s62.5 -58 82.5 -101
s30 -91.5 30 -145.5c0 -55.333 -10.333 -105 -31 -149s-49.167 -78.333 -85.5 -103s-77.5 -37 -123.5 -37c-44.667 0 -84.5 12.167 -119.5 36.5s-62.5 58 -82.5 101s-30 91.5 -30 145.5c0 55.333 10.333 104.833 31 148.5zM299.003 739.001l88 156h-87l-54 -141z
M452.003 739.001l88 156h-87l-54 -141z" />
    <glyph glyph-name="ohungarumlaut" unicode="&#x151;" horiz-adv-x="536" 
d="M474.5 109.5c-19.667 -38.333 -47.8311 -68.333 -84.498 -90s-79.334 -32.5 -128.001 -32.5c-46.667 0 -87.334 10.833 -122.001 32.5s-61.167 52 -79.5 91s-27.5 83.5 -27.5 133.5c0.666992 49.333 10.5 93.166 29.5 131.499s46.5 68.333 82.5 90s78 32.5 126 32.5
c72.667 0 129.667 -23.167 171 -69.5s62 -108.833 62 -187.5c0 -49.333 -9.83301 -93.166 -29.5 -131.499zM380.003 106.5c28 35 42.333 79.5 43 133.5c0 57.333 -13.333 103.5 -40 138.5s-64.334 52.5 -113.001 52.5c-48 0 -86 -17.5 -114 -52.5s-42.333 -79.5 -43 -133.5
c0 -56.667 13.333 -102.667 40 -138s64.334 -53 113.001 -53c48 0 86 17.5 114 52.5zM205.003 589l88 156h-87l-54 -141zM358.003 589l88 156h-87l-54 -141z" />
    <glyph glyph-name="OE" unicode="&#x152;" horiz-adv-x="932" 
d="M502 0l-0.00195312 11.002c-21.333 -7.33301 -45.333 -13.333 -72 -18s-51 -7 -73 -7c-66.667 0 -123.667 15.667 -171 47s-83 73.666 -107 126.999s-36 112 -36 176c0 67.333 13 128.166 39 182.499s63.333 97.166 112 128.499s105 47 169 47
c18.667 0 41.334 -2.16699 68.001 -6.5s50.334 -10.166 71.001 -17.499v10h371l9 -59h-301v-244h235l9 -59h-244v-255h321l10 -63h-410zM435.498 62.502c23 5 45.166 12.167 66.499 21.5v516c-24 9.33301 -45.667 16 -65 20s-44 6 -74 6c-44 0 -84.167 -12.333 -120.5 -37
s-64.833 -59 -85.5 -103s-31 -93.667 -31 -149c0 -52 9 -99.5 27 -142.5s44.333 -77 79 -102s75.334 -37.5 122.001 -37.5c31.333 0 58.5 2.5 81.5 7.5z" />
    <glyph glyph-name="oe" unicode="&#x153;" horiz-adv-x="794" 
d="M652.5 63c21.667 6.66699 47.4971 17.335 77.4971 32.002l25 -58c-27.333 -15.333 -54.666 -27.5 -81.999 -36.5s-57.666 -13.5 -90.999 -13.5c-64.667 0 -117.334 14.333 -158.001 43c-20 -12 -45.833 -22.167 -77.5 -30.5s-58.167 -12.5 -79.5 -12.5
c-48 0 -89.667 10.833 -125 32.5s-62.333 52 -81 91s-28 83.5 -28 133.5c0 49.333 9.83301 93.166 29.5 131.499s47.5 68.333 83.5 90s78 32.5 126 32.5c20.667 0 45.834 -3.66699 75.501 -11s54.5 -17 74.5 -29c36 26.667 80 40 132 40
c70.667 0 122.834 -24.667 156.501 -74s50.5 -114 50.5 -194h-352c2 -54.667 16.833 -97.834 44.5 -129.501s70.167 -47.5 127.5 -47.5c26 0 49.833 3.33301 71.5 10zM326.997 59.501c16.667 3.66699 32.999 9.16602 48.999 16.499c-32 44 -48 100 -48 168
c0 66.667 15.667 122.334 47 167.001c-34 13.333 -69 20 -105 20c-48 0 -86 -17.5 -114 -52.5s-42.333 -79.5 -43 -133.5c0 -56.667 13.333 -102.667 40 -138s64.334 -53 113.001 -53c24 0 44.333 1.83301 61 5.5zM453.496 391.5
c-23.667 -26.333 -37.833 -62.167 -42.5 -107.5h272c-11.333 98 -55.333 147 -132 147c-41.333 0 -73.833 -13.167 -97.5 -39.5z" />
    <glyph glyph-name="Racute" unicode="&#x154;" horiz-adv-x="592" 
d="M93 0h79v279h96c23.333 0 47 1.33301 71 4l156 -283h87l-173 304c36.667 15.333 65.667 37.833 87 67.5s32.333 66.5 33 110.5c0 68 -22.667 118 -68 150s-106.333 48 -183 48h-185v-680zM404 583.5c29.333 -19.667 44 -54.5 44 -104.5
c-0.666992 -48 -17.167 -82.5 -49.5 -103.5s-74.833 -31.5 -127.5 -31.5h-99v269h107c54 0 95.667 -9.83301 125 -29.5zM286 739l88 156h-87l-54 -141z" />
    <glyph glyph-name="racute" unicode="&#x155;" horiz-adv-x="324" 
d="M142 334c22.667 23.333 50.332 43.834 82.999 61.501s62.334 26.5 89.001 26.5l-19 63c-23.333 0 -50.333 -8.33301 -81 -25s-57 -34.334 -79 -53.001l-25 78h-47v-485h79v334zM160.998 589.001l88 156h-87l-54 -141z" />
    <glyph glyph-name="Rcommaaccent" unicode="&#x156;" horiz-adv-x="592" 
d="M93 0h79v279h96c23.333 0 47 1.33301 71 4l156 -283h87l-173 304c36.667 15.333 65.667 37.833 87 67.5s32.333 66.5 33 110.5c0 68 -22.667 118 -68 150s-106.333 48 -183 48h-185v-680zM404 583.5c29.333 -19.667 44 -54.5 44 -104.5
c-0.666992 -48 -17.167 -82.5 -49.5 -103.5s-74.833 -31.5 -127.5 -31.5h-99v269h107c54 0 95.667 -9.83301 125 -29.5zM289 -37.5c-10.667 -11 -15.998 -23.834 -15.998 -38.501c0 -13.333 4.5 -25.333 13.5 -36s19.833 -16.334 32.5 -17.001
c-2.66699 -27.333 -21.334 -51.666 -56.001 -72.999l21 -38c27.333 13.333 50.5 34.833 69.5 64.5s28.5 60.167 28.5 91.5c0 18.667 -5.33301 33.834 -16 45.501s-23.667 17.5 -39 17.5c-14.667 0 -27.334 -5.5 -38.001 -16.5z" />
    <glyph glyph-name="rcommaaccent" unicode="&#x157;" horiz-adv-x="324" 
d="M142 334c22.667 23.333 50.332 43.834 82.999 61.501s62.334 26.5 89.001 26.5l-19 63c-23.333 0 -50.333 -8.33301 -81 -25s-57 -34.334 -79 -53.001l-25 78h-47v-485h79v334zM66.998 -37.499c-10.667 -11 -15.998 -23.834 -15.998 -38.501
c0 -13.333 4.5 -25.333 13.5 -36s19.833 -16.334 32.5 -17.001c-2.66699 -27.333 -21.334 -51.666 -56.001 -72.999l21 -38c27.333 13.333 50.5 34.833 69.5 64.5s28.5 60.167 28.5 91.5c0 18.667 -5.33301 33.834 -16 45.501s-23.667 17.5 -39 17.5
c-14.667 0 -27.334 -5.5 -38.001 -16.5z" />
    <glyph glyph-name="Rcaron" unicode="&#x158;" horiz-adv-x="592" 
d="M93 0h79v279h96c23.333 0 47 1.33301 71 4l156 -283h87l-173 304c36.667 15.333 65.667 37.833 87 67.5s32.333 66.5 33 110.5c0 68 -22.667 118 -68 150s-106.333 48 -183 48h-185v-680zM404 583.5c29.333 -19.667 44 -54.5 44 -104.5
c-0.666992 -48 -17.167 -82.5 -49.5 -103.5s-74.833 -31.5 -127.5 -31.5h-99v269h107c54 0 95.667 -9.83301 125 -29.5zM279 797l-75 98l-72 -10l116 -146h63l114 146l-71 10z" />
    <glyph glyph-name="rcaron" unicode="&#x159;" horiz-adv-x="324" 
d="M142 334c22.667 23.333 50.332 43.834 82.999 61.501s62.334 26.5 89.001 26.5l-19 63c-23.333 0 -50.333 -8.33301 -81 -25s-57 -34.334 -79 -53.001l-25 78h-47v-485h79v334zM165.998 647.001l-75 98l-72 -10l116 -146h63l114 146l-71 10z" />
    <glyph glyph-name="Sacute" unicode="&#x15a;" horiz-adv-x="513" 
d="M139 1c38.667 -9.33301 72.666 -14.002 101.999 -14.002c49.333 0 92.166 7.66699 128.499 23s64 36.333 83 63s28.5 57.334 28.5 92.001c0 32 -6.66699 59.5 -20 82.5s-32.833 43.5 -58.5 61.5s-59.5 36.667 -101.5 56c-46.667 21.333 -82 39 -106 53
s-42.5 29.5 -55.5 46.5s-19.5 37.5 -19.5 61.5c0 32 13.167 57 39.5 75s61.5 27 105.5 27c29.333 0 54.166 -3 74.499 -9s42.833 -14.667 67.5 -26l27 61c-23.333 12 -50.166 22 -80.499 30s-61.5 12 -93.5 12c-43.333 0 -81.5 -7.5 -114.5 -22.5s-58.333 -35.5 -76 -61.5
s-26.5 -55 -26.5 -87c0 -45.333 14.5 -83.666 43.5 -114.999s74.5 -60.333 136.5 -87c43.333 -18.667 77.5 -35.167 102.5 -49.5s44.167 -30.333 57.5 -48s20 -38.167 20 -61.5c0 -32.667 -14.167 -59.167 -42.5 -79.5s-68.5 -30.5 -120.5 -30.5
c-29.333 0 -59.166 4.16699 -89.499 12.5s-56.166 17.833 -77.499 28.5l-19 -62c18 -12 46.333 -22.667 85 -32zM266.999 738.998l88 156h-87l-54 -141z" />
    <glyph glyph-name="sacute" unicode="&#x15b;" horiz-adv-x="420" 
d="M112 -2c31.333 -7.33301 58.3311 -11 80.998 -11c62.667 0 110.834 12.333 144.501 37s50.5 59.334 50.5 104.001c0 62.667 -54.333 114 -163 154c-36 12 -63.667 24.333 -83 37s-29.333 27.667 -30 45c0 20.667 9.5 37.5 28.5 50.5s43.5 19.5 73.5 19.5
c24.667 0 46.667 -3 66 -9s40 -14 62 -24l25 54c-17.333 12.667 -41.166 23 -71.499 31s-56.833 12 -79.5 12c-56 0 -100.167 -12.167 -132.5 -36.5s-48.5 -57.833 -48.5 -100.5c0 -35.333 14.667 -64.333 44 -87s67.333 -41.667 114 -57c80 -26.667 120 -58 120 -94
c0 -22.667 -10.667 -40.334 -32 -53.001s-50.333 -19 -87 -19c-42 0 -85.667 11.333 -131 34l-25 -57c18 -12.667 42.667 -22.667 74 -30zM211.998 589l88 156h-87l-54 -141z" />
    <glyph glyph-name="Scedilla" unicode="&#x15e;" horiz-adv-x="513" 
d="M424 42.5c-38 -32.333 -90.6621 -50.499 -157.995 -54.499l-14 -36c21.333 -4 39.666 -14 54.999 -30s23 -33 23 -51c0 -30 -11.167 -52.833 -33.5 -68.5s-49.833 -23.5 -82.5 -23.5c-12 0 -25.833 2 -41.5 6s-28.167 9 -37.5 15l19 50
c8 -3.33301 17.667 -6.66602 29 -9.99902s21.666 -5 30.999 -5c13.333 0 25.333 3 36 9s16 14.333 16 25c0 12.667 -8.5 23.667 -25.5 33s-38.167 15.333 -63.5 18l27 69c-28.667 3.33301 -57.334 9.16602 -86.001 17.499s-50 17.166 -64 26.499l19 62
c21.333 -10.667 47.166 -20.167 77.499 -28.5s60.166 -12.5 89.499 -12.5c52 0 92.167 10.167 120.5 30.5s42.5 46.833 42.5 79.5c0 23.333 -6.66699 43.833 -20 61.5s-32.5 33.667 -57.5 48s-59.167 30.833 -102.5 49.5c-62 26.667 -107.5 55.667 -136.5 87
s-43.5 69.666 -43.5 114.999c0 32 8.83301 61 26.5 87s43 46.5 76 61.5s71.167 22.5 114.5 22.5c32 0 63.167 -4 93.5 -12s57.166 -18 80.499 -30l-27 -61c-24.667 11.333 -47.167 20 -67.5 26s-45.166 9 -74.499 9c-44 0 -79.167 -9 -105.5 -27s-39.5 -43 -39.5 -75
c0 -24 6.5 -44.5 19.5 -61.5s31.5 -32.5 55.5 -46.5s59.333 -31.667 106 -53c42 -19.333 75.833 -38 101.5 -56s45.167 -38.5 58.5 -61.5s20 -50.5 20 -82.5c0 -49.333 -19 -90.166 -57 -122.499z" />
    <glyph glyph-name="scedilla" unicode="&#x15f;" horiz-adv-x="420" 
d="M344.5 30c-29 -24.667 -70.1641 -38.6689 -123.497 -42.002l-14 -36c21.333 -4 39.666 -14 54.999 -30s23 -33 23 -51c0 -30 -11.167 -52.833 -33.5 -68.5s-49.833 -23.5 -82.5 -23.5c-12 0 -25.833 2 -41.5 6s-28.167 9 -37.5 15l19 50
c8 -3.33301 17.667 -6.66602 29 -9.99902s21.666 -5 30.999 -5c13.333 0 25.333 3 36 9s16 14.333 16 25c0 12.667 -8.5 23.667 -25.5 33s-38.167 15.333 -63.5 18l27 69c-22 2.66699 -44.167 7.33398 -66.5 14.001s-40.5 15 -54.5 25l25 57c45.333 -22.667 89 -34 131 -34
c36.667 0 65.667 6.33301 87 19s32 30.334 32 53.001c0 36 -40 67.333 -120 94c-46.667 15.333 -84.667 34.333 -114 57s-44 51.667 -44 87c0 42.667 16.167 76.167 48.5 100.5s76.5 36.5 132.5 36.5c22.667 0 49.167 -4 79.5 -12s54.166 -18.333 71.499 -31l-25 -54
c-22 10 -42.667 18 -62 24s-41.333 9 -66 9c-30 0 -54.5 -6.5 -73.5 -19.5s-28.5 -29.833 -28.5 -50.5c0.666992 -17.333 10.667 -32.333 30 -45s47 -25 83 -37c108.667 -40 163 -91.333 163 -154c0 -40.667 -14.5 -73.334 -43.5 -98.001z" />
    <glyph glyph-name="Scaron" unicode="&#x160;" horiz-adv-x="513" 
d="M139 1c38.667 -9.33301 72.666 -14.002 101.999 -14.002c49.333 0 92.166 7.66699 128.499 23s64 36.333 83 63s28.5 57.334 28.5 92.001c0 32 -6.66699 59.5 -20 82.5s-32.833 43.5 -58.5 61.5s-59.5 36.667 -101.5 56c-46.667 21.333 -82 39 -106 53
s-42.5 29.5 -55.5 46.5s-19.5 37.5 -19.5 61.5c0 32 13.167 57 39.5 75s61.5 27 105.5 27c29.333 0 54.166 -3 74.499 -9s42.833 -14.667 67.5 -26l27 61c-23.333 12 -50.166 22 -80.499 30s-61.5 12 -93.5 12c-43.333 0 -81.5 -7.5 -114.5 -22.5s-58.333 -35.5 -76 -61.5
s-26.5 -55 -26.5 -87c0 -45.333 14.5 -83.666 43.5 -114.999s74.5 -60.333 136.5 -87c43.333 -18.667 77.5 -35.167 102.5 -49.5s44.167 -30.333 57.5 -48s20 -38.167 20 -61.5c0 -32.667 -14.167 -59.167 -42.5 -79.5s-68.5 -30.5 -120.5 -30.5
c-29.333 0 -59.166 4.16699 -89.499 12.5s-56.166 17.833 -77.499 28.5l-19 -62c18 -12 46.333 -22.667 85 -32zM259.999 796.998l-75 98l-72 -10l116 -146h63l114 146l-71 10z" />
    <glyph glyph-name="scaron" unicode="&#x161;" horiz-adv-x="420" 
d="M112 -2c31.333 -7.33301 58.3311 -11 80.998 -11c62.667 0 110.834 12.333 144.501 37s50.5 59.334 50.5 104.001c0 62.667 -54.333 114 -163 154c-36 12 -63.667 24.333 -83 37s-29.333 27.667 -30 45c0 20.667 9.5 37.5 28.5 50.5s43.5 19.5 73.5 19.5
c24.667 0 46.667 -3 66 -9s40 -14 62 -24l25 54c-17.333 12.667 -41.166 23 -71.499 31s-56.833 12 -79.5 12c-56 0 -100.167 -12.167 -132.5 -36.5s-48.5 -57.833 -48.5 -100.5c0 -35.333 14.667 -64.333 44 -87s67.333 -41.667 114 -57c80 -26.667 120 -58 120 -94
c0 -22.667 -10.667 -40.334 -32 -53.001s-50.333 -19 -87 -19c-42 0 -85.667 11.333 -131 34l-25 -57c18 -12.667 42.667 -22.667 74 -30zM216.998 647l-75 98l-72 -10l116 -146h63l114 146l-71 10z" />
    <glyph glyph-name="Tcedilla" unicode="&#x162;" horiz-adv-x="563" 
d="M348 -78c15.333 -16 23.002 -33.001 23.002 -51.001c0 -30 -11.167 -52.833 -33.5 -68.5s-49.833 -23.5 -82.5 -23.5c-12 0 -25.833 2 -41.5 6s-28.167 9 -37.5 15l19 50c8 -3.33301 17.667 -6.66602 29 -9.99902s21.666 -5 30.999 -5c13.333 0 25.333 3 36 9
s16 14.333 16 25c0 12.667 -8.5 23.667 -25.5 33s-38.167 15.333 -63.5 18l31 80h-11v618h-228v62h534l9 -62h-235v-618h-6l-19 -48c21.333 -4 39.666 -14 54.999 -30z" />
    <glyph glyph-name="tcedilla" unicode="&#x163;" horiz-adv-x="320" 
d="M259 -78c15.333 -16 23.0029 -33.001 23.0029 -51.001c0 -30 -11.167 -52.833 -33.5 -68.5s-49.833 -23.5 -82.5 -23.5c-12 0 -25.833 2 -41.5 6s-28.167 9 -37.5 15l19 50c8 -3.33301 17.667 -6.66602 29 -9.99902s21.666 -5 30.999 -5c13.333 0 25.333 3 36 9
s16 14.333 16 25c0 12.667 -8.5 23.667 -25.5 33s-38.167 15.333 -63.5 18l30 77c-22.667 10 -40.334 26 -53.001 48s-19 49 -19 81v291h-70l-1 60h71v124l79 22v-146h88l26 -60h-114v-280c0 -26 5.66699 -46.333 17 -61s28.666 -22 51.999 -22
c12.667 0 27.334 3.33301 44.001 10l18 -62c-24 -11.333 -48.667 -17 -74 -17h-6l-13 -33c21.333 -4 39.666 -14 54.999 -30z" />
    <glyph glyph-name="Tcaron" unicode="&#x164;" horiz-adv-x="563" 
d="M544 680h-534v-62h228v-618h80v618h235zM280 797l-75 98l-72 -10l116 -146h63l114 146l-71 10z" />
    <glyph glyph-name="tcaron" unicode="&#x165;" horiz-adv-x="440" 
d="M316.5 695.5c-11 -11 -16.5 -23.501 -16.5 -37.501c0 -13.333 4.5 -25.5 13.5 -36.5s19.833 -16.833 32.5 -17.5c-2 -17.333 -7.83301 -32.333 -17.5 -45s-23.5 -25.334 -41.5 -38.001l21 -37c28 14.667 52 37.834 72 69.501s30 63.5 30 95.5
c0 18.667 -5.5 33.834 -16.5 45.501s-23.833 17.5 -38.5 17.5s-27.5 -5.5 -38.5 -16.5zM166 476.999v145.999l-79 -22v-124h-71l1 -60h70v-291c0 -45.333 12.167 -80.166 36.5 -104.499s57.5 -36.5 99.5 -36.5c25.333 0 50 5.66699 74 17l-18 62
c-16.667 -6.66699 -31.334 -10 -44.001 -10c-23.333 0 -40.666 7.33301 -51.999 22s-17 35 -17 61v280h114l-26 60h-88z" />
    <glyph glyph-name="Umacron" unicode="&#x16a;" horiz-adv-x="682" 
d="M83 680v-439.001c0 -48.667 10.5 -92 31.5 -130s51 -68 90 -90s84.5 -33 136.5 -33s97.5 10.833 136.5 32.5s69 51.834 90 90.501s31.5 82 31.5 130v439h-80v-430c0 -58 -16 -105 -48 -141s-75.333 -54 -130 -54c-54 0 -97.333 18 -130 54s-49 83 -49 141v430h-79z
M214 782.999h246l-8 63h-238v-63z" />
    <glyph glyph-name="umacron" unicode="&#x16b;" 
d="M387 142c-23.333 -25.333 -50.168 -46.333 -80.501 -63s-57.5 -25 -81.5 -25c-31.333 0 -53.666 10 -66.999 30s-20 48 -20 84v317h-79v-328c0 -52 12.5 -93.5 37.5 -124.5s63.167 -46.5 114.5 -46.5c30.667 0 63 8 97 24s62.667 36 86 60l13 -70h59v486h-79v-344z
M129.998 633h246l-7 63h-239v-63z" />
    <glyph glyph-name="Uring" unicode="&#x16e;" horiz-adv-x="682" 
d="M83 680v-439.001c0 -48.667 10.5 -92 31.5 -130s51 -68 90 -90s84.5 -33 136.5 -33s97.5 10.833 136.5 32.5s69 51.834 90 90.501s31.5 82 31.5 130v439h-80v-430c0 -58 -16 -105 -48 -141s-75.333 -54 -130 -54c-54 0 -97.333 18 -130 54s-49 83 -49 141v430h-79z
M274.5 892.499c-18.333 -17 -27.5 -38.167 -27.5 -63.5c0 -24 9.16699 -44.167 27.5 -60.5s40.5 -24.5 66.5 -24.5c25.333 0 47 8.16699 65 24.5s27 36.5 27 60.5c0 25.333 -9 46.5 -27 63.5s-39.667 25.5 -65 25.5c-26 0 -48.167 -8.5 -66.5 -25.5zM310.5 799.999
c-8.33301 8 -12.501 17.667 -12.501 29c0 12.667 4.16699 23 12.5 31s18.5 12 30.5 12s22 -4 30 -12s12 -18.333 12 -31c0 -11.333 -4.16699 -21 -12.5 -29s-18.166 -12 -29.499 -12c-12 0 -22.167 4 -30.5 12z" />
    <glyph glyph-name="uring" unicode="&#x16f;" 
d="M387 142c-23.333 -25.333 -50.168 -46.333 -80.501 -63s-57.5 -25 -81.5 -25c-31.333 0 -53.666 10 -66.999 30s-20 48 -20 84v317h-79v-328c0 -52 12.5 -93.5 37.5 -124.5s63.167 -46.5 114.5 -46.5c30.667 0 63 8 97 24s62.667 36 86 60l13 -70h59v486h-79v-344z
M193.498 742.5c-18.333 -17 -27.5 -38.167 -27.5 -63.5c0 -24 9.16699 -44.167 27.5 -60.5s40.5 -24.5 66.5 -24.5c25.333 0 47 8.16699 65 24.5s27 36.5 27 60.5c0 25.333 -9 46.5 -27 63.5s-39.667 25.5 -65 25.5c-26 0 -48.167 -8.5 -66.5 -25.5zM229.498 650
c-8.33301 8 -12.501 17.667 -12.501 29c0 12.667 4.16699 23 12.5 31s18.5 12 30.5 12s22 -4 30 -12s12 -18.333 12 -31c0 -11.333 -4.16699 -21 -12.5 -29s-18.166 -12 -29.499 -12c-12 0 -22.167 4 -30.5 12z" />
    <glyph glyph-name="Uhungarumlaut" unicode="&#x170;" horiz-adv-x="682" 
d="M83 680v-439.001c0 -48.667 10.5 -92 31.5 -130s51 -68 90 -90s84.5 -33 136.5 -33s97.5 10.833 136.5 32.5s69 51.834 90 90.501s31.5 82 31.5 130v439h-80v-430c0 -58 -16 -105 -48 -141s-75.333 -54 -130 -54c-54 0 -97.333 18 -130 54s-49 83 -49 141v430h-79z
M276 738.999l88 156h-87l-54 -141zM429 738.999l88 156h-87l-54 -141z" />
    <glyph glyph-name="uhungarumlaut" unicode="&#x171;" 
d="M387 142c-23.333 -25.333 -50.168 -46.333 -80.501 -63s-57.5 -25 -81.5 -25c-31.333 0 -53.666 10 -66.999 30s-20 48 -20 84v317h-79v-328c0 -52 12.5 -93.5 37.5 -124.5s63.167 -46.5 114.5 -46.5c30.667 0 63 8 97 24s62.667 36 86 60l13 -70h59v486h-79v-344z
M194.998 589l88 156h-87l-54 -141zM347.998 589l88 156h-87l-54 -141z" />
    <glyph glyph-name="Uogonek" unicode="&#x172;" horiz-adv-x="682" 
d="M599 680l-0.00195312 -439c0 -46 -9.5 -87.5 -28.5 -124.5s-46.167 -66.667 -81.5 -89s-76.666 -35.166 -123.999 -38.499c-12.667 -12.667 -23.167 -27.5 -31.5 -44.5s-12.5 -32.167 -12.5 -45.5c0 -16 4.33301 -27.833 13 -35.5s19.667 -11.5 33 -11.5
c18 0 35.333 6.66699 52 20l26 -49c-22 -20 -50.667 -30 -86 -30c-31.333 0 -57 9.33301 -77 28s-30 42.667 -30 72c0 14.667 4.16699 31.167 12.5 49.5s18.833 34.5 31.5 48.5c-65.333 9.33301 -117.166 36.666 -155.499 81.999s-57.5 101.333 -57.5 168v439h79v-430
c0 -58 16.333 -105 49 -141s76 -54 130 -54c54.667 0 98 18 130 54s48 83 48 141v430h80z" />
    <glyph glyph-name="uogonek" unicode="&#x173;" 
d="M531 -179c-22 -20 -50.665 -30 -85.998 -30c-31.333 0 -57 9.33301 -77 28s-30 42.667 -30 72c0 20 6.33301 41 19 63s28.667 41.667 48 59l-11 57c-23.333 -24 -52 -44 -86 -60s-66.333 -24 -97 -24c-51.333 0 -89.5 15.5 -114.5 46.5s-37.5 72.5 -37.5 124.5v328h79
v-317c0 -36 6.66699 -64 20 -84s35.666 -30 66.999 -30c24 0 51.167 8.33301 81.5 25s57.166 37.667 80.499 63v344h79v-486c-16 -11.333 -29.833 -27.333 -41.5 -48s-17.5 -39 -17.5 -55s4.33301 -27.833 13 -35.5s19.667 -11.5 33 -11.5c18 0 35.333 6.66699 52 20z" />
    <glyph glyph-name="Ydieresis" unicode="&#x178;" horiz-adv-x="563" 
d="M314 0l1 277l238 403h-85l-193 -329l-191 345l-74 -32l225 -391v-273h79zM223 778.5c9.33301 9.66699 14 21.1689 14 34.502s-4.66699 24.666 -14 33.999s-21 14 -35 14c-13.333 0 -24.833 -4.83301 -34.5 -14.5s-14.5 -20.834 -14.5 -33.501
c0 -13.333 4.83301 -24.833 14.5 -34.5s21.167 -14.5 34.5 -14.5c14 0 25.667 4.83301 35 14.5zM388 778.502c9.33301 9.66699 14.002 21.167 14.002 34.5s-4.66699 24.666 -14 33.999s-21 14 -35 14c-12.667 0 -23.834 -4.66699 -33.501 -14s-14.5 -20.666 -14.5 -33.999
s4.66699 -24.833 14 -34.5s20.666 -14.5 33.999 -14.5c14 0 25.667 4.83301 35 14.5z" />
    <glyph glyph-name="Zacute" unicode="&#x179;" horiz-adv-x="562" 
d="M523 63h-413l429 555l-7 62h-482l12 -62h389l-428 -555l8 -63h499zM305 739l88 156h-87l-54 -141z" />
    <glyph glyph-name="zacute" unicode="&#x17a;" horiz-adv-x="433" 
d="M408 485h-363l19 -63h246l-289 -381l10 -41h379l-10 62h-282l294 381zM223 589l88 156h-87l-54 -141z" />
    <glyph glyph-name="Zdotaccent" unicode="&#x17b;" horiz-adv-x="562" 
d="M523 63h-413l429 555l-7 62h-482l12 -62h389l-428 -555l8 -63h499zM334.5 778c10.333 10.667 15.5 23.334 15.5 38.001s-5.16699 27.5 -15.5 38.5s-22.833 16.5 -37.5 16.5s-27.5 -5.5 -38.5 -16.5s-16.5 -23.833 -16.5 -38.5s5.33301 -27.334 16 -38.001
s23.667 -16 39 -16c14.667 0 27.167 5.33301 37.5 16z" />
    <glyph glyph-name="zdotaccent" unicode="&#x17c;" horiz-adv-x="433" 
d="M408 485h-363l19 -63h246l-289 -381l10 -41h379l-10 62h-282l294 381zM262.5 628c10.333 10.667 15.5 23.334 15.5 38.001s-5.16699 27.5 -15.5 38.5s-22.833 16.5 -37.5 16.5s-27.5 -5.5 -38.5 -16.5s-16.5 -23.833 -16.5 -38.5s5.33301 -27.334 16 -38.001
s23.667 -16 39 -16c14.667 0 27.167 5.33301 37.5 16z" />
    <glyph glyph-name="Zcaron" unicode="&#x17d;" horiz-adv-x="562" 
d="M523 63h-413l429 555l-7 62h-482l12 -62h389l-428 -555l8 -63h499zM298 797l-75 98l-72 -10l116 -146h63l114 146l-71 10z" />
    <glyph glyph-name="zcaron" unicode="&#x17e;" horiz-adv-x="433" 
d="M408 485h-363l19 -63h246l-289 -381l10 -41h379l-10 62h-282l294 381zM228 647l-75 98l-72 -10l116 -146h63l114 146l-71 10z" />
    <glyph glyph-name="florin" unicode="&#x192;" horiz-adv-x="340" 
d="M58 415h72.001v-342c0 -55.333 -22.667 -83 -68 -83c-6.66699 0 -14.334 1 -23.001 3s-15.667 4.33301 -21 7l-18 -63c8 -4.66699 19.167 -8.66699 33.5 -12s28.166 -5 41.499 -5c41.333 0 74 13.5 98 40.5s36 63.167 36 108.5v346h115l-26 60h-89v73
c0 26 5.5 46.333 16.5 61s28.167 22 51.5 22c6.66699 0 14.334 -1 23.001 -3s16 -4.33301 22 -7l18 64c-8 4.66699 -19 8.66699 -33 12s-27.667 5 -41 5c-42 0 -75.167 -13.5 -99.5 -40.5s-36.5 -63.167 -36.5 -108.5v-78h-73z" />
    <glyph glyph-name="Scommaaccent" unicode="&#x218;" horiz-adv-x="513" 
d="M139 1c38.667 -9.33301 72.666 -14.002 101.999 -14.002c49.333 0 92.166 7.66699 128.499 23s64 36.333 83 63s28.5 57.334 28.5 92.001c0 32 -6.66699 59.5 -20 82.5s-32.833 43.5 -58.5 61.5s-59.5 36.667 -101.5 56c-46.667 21.333 -82 39 -106 53
s-42.5 29.5 -55.5 46.5s-19.5 37.5 -19.5 61.5c0 32 13.167 57 39.5 75s61.5 27 105.5 27c29.333 0 54.166 -3 74.499 -9s42.833 -14.667 67.5 -26l27 61c-23.333 12 -50.166 22 -80.499 30s-61.5 12 -93.5 12c-43.333 0 -81.5 -7.5 -114.5 -22.5s-58.333 -35.5 -76 -61.5
s-26.5 -55 -26.5 -87c0 -45.333 14.5 -83.666 43.5 -114.999s74.5 -60.333 136.5 -87c43.333 -18.667 77.5 -35.167 102.5 -49.5s44.167 -30.333 57.5 -48s20 -38.167 20 -61.5c0 -32.667 -14.167 -59.167 -42.5 -79.5s-68.5 -30.5 -120.5 -30.5
c-29.333 0 -59.166 4.16699 -89.499 12.5s-56.166 17.833 -77.499 28.5l-19 -62c18 -12 46.333 -22.667 85 -32zM203.999 -37.502c-10.667 -11 -15.998 -23.834 -15.998 -38.501c0 -13.333 4.5 -25.333 13.5 -36s19.833 -16.334 32.5 -17.001
c-2.66699 -27.333 -21.334 -51.666 -56.001 -72.999l21 -38c27.333 13.333 50.5 34.833 69.5 64.5s28.5 60.167 28.5 91.5c0 18.667 -5.33301 33.834 -16 45.501s-23.667 17.5 -39 17.5c-14.667 0 -27.334 -5.5 -38.001 -16.5z" />
    <glyph glyph-name="scommaaccent" unicode="&#x219;" horiz-adv-x="420" 
d="M112 -2c31.333 -7.33301 58.3311 -11 80.998 -11c62.667 0 110.834 12.333 144.501 37s50.5 59.334 50.5 104.001c0 62.667 -54.333 114 -163 154c-36 12 -63.667 24.333 -83 37s-29.333 27.667 -30 45c0 20.667 9.5 37.5 28.5 50.5s43.5 19.5 73.5 19.5
c24.667 0 46.667 -3 66 -9s40 -14 62 -24l25 54c-17.333 12.667 -41.166 23 -71.499 31s-56.833 12 -79.5 12c-56 0 -100.167 -12.167 -132.5 -36.5s-48.5 -57.833 -48.5 -100.5c0 -35.333 14.667 -64.333 44 -87s67.333 -41.667 114 -57c80 -26.667 120 -58 120 -94
c0 -22.667 -10.667 -40.334 -32 -53.001s-50.333 -19 -87 -19c-42 0 -85.667 11.333 -131 34l-25 -57c18 -12.667 42.667 -22.667 74 -30zM158.998 -37.5c-10.667 -11 -15.998 -23.834 -15.998 -38.501c0 -13.333 4.5 -25.333 13.5 -36s19.833 -16.334 32.5 -17.001
c-2.66699 -27.333 -21.334 -51.666 -56.001 -72.999l21 -38c27.333 13.333 50.5 34.833 69.5 64.5s28.5 60.167 28.5 91.5c0 18.667 -5.33301 33.834 -16 45.501s-23.667 17.5 -39 17.5c-14.667 0 -27.334 -5.5 -38.001 -16.5z" />
    <glyph glyph-name="Tcommaaccent" unicode="&#x21a;" horiz-adv-x="563" 
d="M544 680h-534v-62h228v-618h80v618h235zM245 -37.5c-10.667 -11 -15.998 -23.834 -15.998 -38.501c0 -13.333 4.5 -25.333 13.5 -36s19.833 -16.334 32.5 -17.001c-2.66699 -27.333 -21.334 -51.666 -56.001 -72.999l21 -38c27.333 13.333 50.5 34.833 69.5 64.5
s28.5 60.167 28.5 91.5c0 18.667 -5.33301 33.834 -16 45.501s-23.667 17.5 -39 17.5c-14.667 0 -27.334 -5.5 -38.001 -16.5z" />
    <glyph glyph-name="tcommaaccent" unicode="&#x21b;" horiz-adv-x="320" 
d="M166 477v145.999l-79 -22v-124h-71l1 -60h70v-291c0 -45.333 12.167 -80.166 36.5 -104.499s57.5 -36.5 99.5 -36.5c25.333 0 50 5.66699 74 17l-18 62c-16.667 -6.66699 -31.334 -10 -44.001 -10c-23.333 0 -40.666 7.33301 -51.999 22s-17 35 -17 61v280h114l-26 60
h-88zM156 -37.501c-10.667 -11 -15.998 -23.834 -15.998 -38.501c0 -13.333 4.5 -25.333 13.5 -36s19.833 -16.334 32.5 -17.001c-2.66699 -27.333 -21.334 -51.666 -56.001 -72.999l21 -38c27.333 13.333 50.5 34.833 69.5 64.5s28.5 60.167 28.5 91.5
c0 18.667 -5.33301 33.834 -16 45.501s-23.667 17.5 -39 17.5c-14.667 0 -27.334 -5.5 -38.001 -16.5z" />
    <glyph glyph-name="circumflex" unicode="&#x2c6;" horiz-adv-x="313" 
d="M156 687l75 -98l72 10l-116 146h-63l-114 -146l71 -10z" />
    <glyph glyph-name="caron" unicode="&#x2c7;" horiz-adv-x="313" 
d="M157 647l-75 98l-72 -10l116 -146h63l114 146l-71 10z" />
    <glyph glyph-name="uni02C9" unicode="&#x2c9;" horiz-adv-x="266" 
d="M10 633h246l-7 63h-239v-63z" />
    <glyph glyph-name="breve" unicode="&#x2d8;" horiz-adv-x="289" 
d="M201 681.5c-14 -16.333 -33.001 -24.5 -57.001 -24.5s-42.833 8.16699 -56.5 24.5s-20.5 34.833 -20.5 55.5h-57c0 -39.333 11.333 -72.166 34 -98.499s56 -39.833 100 -40.5c44.667 0.666992 78.334 14.167 101.001 40.5s34 59.166 34 98.499h-57
c0 -20.667 -7 -39.167 -21 -55.5z" />
    <glyph glyph-name="dotaccent" unicode="&#x2d9;" horiz-adv-x="128" 
d="M102.5 628c10.333 10.667 15.5 23.334 15.5 38.001s-5.16699 27.5 -15.5 38.5s-22.833 16.5 -37.5 16.5s-27.5 -5.5 -38.5 -16.5s-16.5 -23.833 -16.5 -38.5s5.33301 -27.334 16 -38.001s23.667 -16 39 -16c14.667 0 27.167 5.33301 37.5 16z" />
    <glyph glyph-name="ring" unicode="&#x2da;" horiz-adv-x="206" 
d="M37.5 742.5c-18.333 -17 -27.5 -38.167 -27.5 -63.5c0 -24 9.16699 -44.167 27.5 -60.5s40.5 -24.5 66.5 -24.5c25.333 0 47 8.16699 65 24.5s27 36.5 27 60.5c0 25.333 -9 46.5 -27 63.5s-39.667 25.5 -65 25.5c-26 0 -48.167 -8.5 -66.5 -25.5zM73.5 650
c-8.33301 8 -12.501 17.667 -12.501 29c0 12.667 4.16699 23 12.5 31s18.5 12 30.5 12s22 -4 30 -12s12 -18.333 12 -31c0 -11.333 -4.16699 -21 -12.5 -29s-18.166 -12 -29.499 -12c-12 0 -22.167 4 -30.5 12z" />
    <glyph glyph-name="ogonek" unicode="&#x2db;" horiz-adv-x="213" 
d="M26.5 -49c-11 -21.333 -16.5 -40.667 -16.5 -58c0 -29.333 10 -53.333 30 -72s45.667 -28 77 -28c35.333 0 64 10 86 30l-26 49c-16.667 -13.333 -34 -20 -52 -20c-13.333 0 -24.333 3.83301 -33 11.5s-13 19.5 -13 35.5s5.83301 34.333 17.5 55s25.5 36.667 41.5 48
l-71 2c-16 -14 -29.5 -31.667 -40.5 -53z" />
    <glyph glyph-name="tilde" unicode="&#x2dc;" horiz-adv-x="314" 
d="M236 673.5c-6.66699 -7 -14.665 -10.5 -23.998 -10.5c-17.333 0 -33.666 7.66699 -48.999 23c-14.667 14 -36 21 -64 21c-59.333 0 -89 -32.667 -89 -98h55c0.666992 12.667 4.66699 22.667 12 30s15.666 11 24.999 11c16.667 0 33.667 -7.66699 51 -23
c15.333 -14.667 35 -22 59 -22c27.333 0 49.166 7.66699 65.499 23s24.5 40.333 24.5 75h-55c-0.666992 -12.667 -4.33398 -22.5 -11.001 -29.5z" />
    <glyph glyph-name="hungarumlaut" unicode="&#x2dd;" horiz-adv-x="314" 
d="M63 589l88 156h-87l-54 -141zM216 589l88 156h-87l-54 -141z" />
    <glyph glyph-name="pi" unicode="&#x3c0;" horiz-adv-x="594" 
d="M188 0v422h218v-422h79v422h99v63h-574v-63h98v-422h80z" />
    <glyph glyph-name="tm_Anusvara" unicode="&#xb82;" horiz-adv-x="0" 
d="M82.5 660.5c23 21 34.5 47.167 34.5 78.5c0 32 -11.5 58.5 -34.5 79.5s-50.5 31.5 -82.5 31.5s-59.333 -10.5 -82 -31.5s-34 -47.5 -34 -79.5c0 -31.333 11.5 -57.5 34.5 -78.5s50.167 -31.5 81.5 -31.5c32 0 59.5 10.5 82.5 31.5zM-41 699.5
c-10.667 10.333 -16 23.5 -16 39.5c0 16.667 5.33301 30.334 16 41.001s24.334 16 41.001 16s30.334 -5.33301 41.001 -16s16 -24.334 16 -41.001c0 -16 -5.33301 -29.167 -16 -39.5s-24.334 -15.5 -41.001 -15.5s-30.334 5.16699 -41.001 15.5z" />
    <glyph glyph-name="tm_Visarga" unicode="&#xb83;" horiz-adv-x="680" 
d="M422 338c22.667 20.667 34 46.667 34 78c0 32 -11.333 58.5 -34 79.5s-50 31.5 -82 31.5c-31.333 0 -58.5 -10.5 -81.5 -31.5s-34.5 -47.5 -34.5 -79.5c0 -31.333 11.333 -57.333 34 -78s50 -31 82 -31s59.333 10.333 82 31zM300 376.5c-10.667 10.333 -16 23.5 -16 39.5
c0 16.667 5.33301 30.334 16 41.001s24 16 40 16c16.667 0 30.334 -5.33301 41.001 -16s16 -24.334 16 -41.001c0 -16 -5.33301 -29.167 -16 -39.5s-24.334 -15.5 -41.001 -15.5c-16 0 -29.333 5.16699 -40 15.5zM250.5 17.5c23 21 34.5 47.167 34.5 78.5
c0 32 -11.5 58.5 -34.5 79.5s-50.5 31.5 -82.5 31.5c-31.333 0 -58.333 -10.5 -81 -31.5s-34 -47.5 -34 -79.5c0 -31.333 11.333 -57.5 34 -78.5s49.667 -31.5 81 -31.5c32 0 59.5 10.5 82.5 31.5zM593.5 17.5c23 21 34.5 47.167 34.5 78.5c0 32 -11.5 58.5 -34.5 79.5
s-50.5 31.5 -82.5 31.5c-31.333 0 -58.5 -10.5 -81.5 -31.5s-34.5 -47.5 -34.5 -79.5c0 -31.333 11.5 -57.5 34.5 -78.5s50.167 -31.5 81.5 -31.5c32 0 59.5 10.5 82.5 31.5zM128 56.5c-10.667 10.333 -16 23.5 -16 39.5c0 16.667 5.33301 30.334 16 41.001
s24.334 16 41.001 16c16 0 29.5 -5.33301 40.5 -16s16.5 -24.334 16.5 -41.001c0 -16 -5.5 -29.167 -16.5 -39.5s-24.5 -15.5 -40.5 -15.5c-16.667 0 -30.334 5.16699 -41.001 15.5zM471 56.5c-10.667 10.333 -16 23.5 -16 39.5c0 16.667 5.33301 30.334 16 41.001
s24.334 16 41.001 16c16 0 29.333 -5.33301 40 -16s16 -24.334 16 -41.001c0 -16 -5.33301 -29.167 -16 -39.5s-24 -15.5 -40 -15.5c-16.667 0 -30.334 5.16699 -41.001 15.5z" />
    <glyph glyph-name="tm_A" unicode="&#xb85;" horiz-adv-x="1068" 
d="M975 513v-639h-71v195h-187c-32 -66 -82 -118 -150 -156s-147.333 -57 -238 -57c-57.333 0 -108.5 7.33301 -153.5 22s-80 35 -105 61s-37.5 55 -37.5 87c0 30 10.333 54 31 72s50 27 88 27h507c11.333 32.667 17 67.667 17 105c0 46 -8.5 87 -25.5 123
s-41.5 64.333 -73.5 85s-69.667 31 -113 31c-38.667 0 -72.667 -7.33301 -102 -22c34 -2 61.833 -13.667 83.5 -35s32.5 -48.333 32.5 -81c0 -35.333 -12 -64.5 -36 -87.5s-54.667 -34.5 -92 -34.5s-68.5 11.333 -93.5 34s-37.5 51.334 -37.5 86.001
c0 38 10.833 72.5 32.5 103.5s51.167 55.167 88.5 72.5s78.666 26 123.999 26c57.333 0 107.833 -12.833 151.5 -38.5s77.334 -61.334 101.001 -107.001s35.5 -97.5 35.5 -155.5c0 -36 -4.66699 -71 -14 -105h166v388h71zM393.5 373c-11.667 11.333 -26.501 17 -44.501 17
s-33 -5.66699 -45 -17s-18 -26 -18 -44c0 -17.333 5.83301 -31.833 17.5 -43.5s26.5 -17.5 44.5 -17.5c18.667 0 33.834 5.83301 45.501 17.5s17.5 26.167 17.5 43.5c0 18 -5.83301 32.667 -17.5 44zM510.499 -42c52.333 26.667 93.165 63.668 122.498 111.001h-479
c-30.667 0 -46 -14.333 -46 -43c0 -18.667 9.33301 -36.334 28 -53.001s44.834 -30 78.501 -40s71.834 -15 114.501 -15c68.667 0 129.167 13.333 181.5 40z" />
    <glyph glyph-name="tm_Aa" unicode="&#xb86;" horiz-adv-x="1274" 
d="M1216.5 49c31.667 -32.667 47.498 -75.333 47.498 -128c0 -57.333 -16 -108.5 -48 -153.5s-76.667 -80.333 -134 -106s-122.333 -38.5 -195 -38.5c-44 0 -83.5 6.16699 -118.5 18.5s-62.333 29.5 -82 51.5s-29.5 47 -29.5 75c0 34 12.333 61.667 37 83s56.667 32 96 32
h21v-56h-21c-17.333 0 -31.333 -5.5 -42 -16.5s-16 -25.167 -16 -42.5c0 -24 14.5 -44 43.5 -60s66.167 -24 111.5 -24c58 0 109.833 10.167 155.5 30.5s81.334 48.5 107.001 84.5s38.5 76.667 38.5 122c0 32.667 -9.16699 60 -27.5 82s-43.166 33 -74.499 33
c-32.667 0 -59.334 -11.5 -80.001 -34.5s-31 -52.167 -31 -87.5v-40h-71v195h-187c-32 -66 -82 -118 -150 -156s-147.333 -57 -238 -57c-57.333 0 -108.5 7.33301 -153.5 22s-80 35 -105 61s-37.5 55 -37.5 87c0 30 10.333 54 31 72s50 27 88 27h507
c11.333 32.667 17 67.667 17 105c0 46 -8.5 87 -25.5 123s-41.5 64.333 -73.5 85s-69.667 31 -113 31c-38.667 0 -72.667 -7.33301 -102 -22c34 -2 61.833 -13.667 83.5 -35s32.5 -48.333 32.5 -81c0 -35.333 -12 -64.5 -36 -87.5s-54.667 -34.5 -92 -34.5
s-68.5 11.333 -93.5 34s-37.5 51.334 -37.5 86.001c0 38 10.833 72.5 32.5 103.5s51.167 55.167 88.5 72.5s78.666 26 123.999 26c57.333 0 107.833 -12.833 151.5 -38.5s77.334 -61.334 101.001 -107.001s35.5 -97.5 35.5 -155.5c0 -36 -4.66699 -71 -14 -105h166v388h71
v-463c30.667 32 69.334 48 116.001 48c52 0 93.833 -16.333 125.5 -49zM393.498 373.001c-11.667 11.333 -26.501 17 -44.501 17s-33 -5.66699 -45 -17s-18 -26 -18 -44c0 -17.333 5.83301 -31.833 17.5 -43.5s26.5 -17.5 44.5 -17.5c18.667 0 33.834 5.83301 45.501 17.5
s17.5 26.167 17.5 43.5c0 18 -5.83301 32.667 -17.5 44zM510.497 -41.999c52.333 26.667 93.165 63.668 122.498 111.001h-479c-30.667 0 -46 -14.333 -46 -43c0 -18.667 9.33301 -36.334 28 -53.001s44.834 -30 78.501 -40s71.834 -15 114.501 -15
c68.667 0 129.167 13.333 181.5 40z" />
    <glyph glyph-name="tm_I" unicode="&#xb87;" horiz-adv-x="1042" 
d="M748.5 664.5c62.333 -31 111.333 -74.168 147 -129.501s53.5 -118.666 53.5 -189.999v-493h-71v491c0 60 -14.667 113.167 -44 159.5s-69.666 82.333 -120.999 108s-109.333 38.5 -174 38.5c-68.667 0 -129.834 -12.5 -183.501 -37.5s-95.5 -60.833 -125.5 -107.5
s-45 -101.334 -45 -164.001c0 -75.333 18 -147.333 54 -216c58 18.667 120.333 28 187 28c57.333 0 110.333 -8 159 -24c34.667 60.667 52 121.667 52 183c0 46.667 -13.167 84.667 -39.5 114s-62.5 44 -108.5 44c-38 0 -71 -7.33301 -99 -22h5c36 0 65.667 -11 89 -33
s35 -49.667 35 -83c0 -35.333 -12 -64.5 -36 -87.5s-54.667 -34.5 -92 -34.5c-38 0 -69.333 11.333 -94 34s-37 51.334 -37 86.001c0 38.667 9.5 73.334 28.5 104.001s45.833 54.667 80.5 72s74.667 26 120 26c44.667 0 83.834 -9.33301 117.501 -28s59.667 -44.667 78 -78
s27.5 -71.333 27.5 -114c0 -68 -20.333 -138 -61 -210c42.667 -22 76.5 -49 101.5 -81s37.5 -67.333 37.5 -106c0 -34 -13.5 -61.167 -40.5 -81.5s-62.833 -30.5 -107.5 -30.5c-80.667 0 -159.667 20.667 -237 62c-77.333 -41.333 -152.333 -62 -225 -62
c-44 0 -79.5 10.167 -106.5 30.5s-40.5 47.5 -40.5 81.5c0 37.333 12.333 71.666 37 102.999s59 58 103 80c-42 76.667 -63 157.667 -63 243c0 74 18.333 139 55 195s87.667 99.333 153 130s139 46 221 46c77.333 0 147.166 -15.5 209.499 -46.5zM438 376.499
c-12.667 12.333 -28.667 18.5 -48 18.5s-35.5 -6.16699 -48.5 -18.5s-19.5 -28.166 -19.5 -47.499s6.33301 -35.166 19 -47.499s28.667 -18.5 48 -18.5c20 0 36.333 6.16699 49 18.5s19 28.166 19 47.499s-6.33301 35.166 -19 47.499zM273 68.999
c35.333 -51.333 79.667 -94.668 133 -130.001c55.333 36.667 103 81.334 143 134.001c-38 12 -79 18 -123 18c-54 0 -105 -7.33301 -153 -22zM688.001 -12.5029c-18 23 -42.333 42.833 -73 59.5c-42 -55.333 -91 -103 -147 -143c56.667 -26.667 114.667 -40 174 -40
c22.667 0 40.5 4.5 53.5 13.5s19.5 21.167 19.5 36.5c0 26 -9 50.5 -27 73.5zM343.001 -97.0029c-52.667 38 -98.333 84.334 -137 139.001c-30.667 -16.667 -54.667 -35.834 -72 -57.501s-26 -45.167 -26 -70.5c0 -15.333 6.33301 -27.5 19 -36.5s30.334 -13.5 53.001 -13.5
c53.333 0 107.666 13 162.999 39z" />
    <glyph glyph-name="tm_Ii" unicode="&#xb88;" horiz-adv-x="753" 
d="M500 0h-71v457h-266v-457h-70v513h641l9 -56h-243v-457zM330.5 190c9.66699 9.33301 14.5 20.998 14.5 34.998c0 12.667 -4.83301 23.834 -14.5 33.501s-21.167 14.5 -34.5 14.5s-24.666 -4.66699 -33.999 -14s-14 -20.666 -14 -33.999c0 -14 4.66699 -25.667 14 -35
s20.666 -14 33.999 -14s24.833 4.66699 34.5 14zM666.5 189.998c9.66699 9.33301 14.5 21 14.5 35c0 13.333 -4.83301 24.666 -14.5 33.999s-21.167 14 -34.5 14s-24.5 -4.66699 -33.5 -14s-13.5 -20.666 -13.5 -33.999c0 -14 4.5 -25.667 13.5 -35s20.167 -14 33.5 -14
s24.833 4.66699 34.5 14z" />
    <glyph glyph-name="tm_U" unicode="&#xb89;" horiz-adv-x="986" 
d="M976 57l-0.00195312 -57h-898v57h228c42.667 0 81 9.16699 115 27.5s60.667 44 80 77s29 70.167 29 111.5c0 37.333 -8.83301 70.833 -26.5 100.5s-42.5 53 -74.5 70s-68.333 25.5 -109 25.5c-35.333 0 -67.333 -5.66699 -96 -17s-52.667 -27 -72 -47
c14.667 3.33301 28.334 5 41.001 5c44.667 0 81.5 -13.333 110.5 -40s43.5 -60.334 43.5 -101.001c0 -41.333 -14.5 -75.5 -43.5 -102.5s-65.833 -40.5 -110.5 -40.5c-46.667 0 -85 13.833 -115 41.5s-45 63.167 -45 106.5c0 49.333 12.333 93.5 37 132.5
s58.834 69.5 102.501 91.5s92.834 33 147.501 33c55.333 0 104.666 -11.167 147.999 -33.5s77 -53 101 -92s36 -83.167 36 -132.5c0 -46 -9.66699 -87.667 -29 -125s-47 -67.666 -83 -90.999h483zM126.998 331.5c-16.667 -15.667 -25 -35.5 -25 -59.5
c0 -25.333 8.33301 -46.333 25 -63s38.334 -25 65.001 -25c25.333 0 46 8.16699 62 24.5s24 36.833 24 61.5s-8.16699 45 -24.5 61s-36.833 24 -61.5 24c-26.667 0 -48.334 -7.83301 -65.001 -23.5z" />
    <glyph glyph-name="tm_Uu" unicode="&#xb8a;" horiz-adv-x="1640" 
d="M1630 57l-0.000976562 -56.999h-1552v57h228c42.667 0 81 9.16699 115 27.5s60.667 44 80 77s29 70.167 29 111.5c0 37.333 -8.83301 70.833 -26.5 100.5s-42.5 53 -74.5 70s-68.333 25.5 -109 25.5c-35.333 0 -67.333 -5.66699 -96 -17s-52.667 -27 -72 -47
c14.667 3.33301 28.334 5 41.001 5c44.667 0 81.5 -13.333 110.5 -40s43.5 -60.334 43.5 -101.001c0 -41.333 -14.5 -75.5 -43.5 -102.5s-65.833 -40.5 -110.5 -40.5c-46.667 0 -85 13.833 -115 41.5s-45 63.167 -45 106.5c0 49.333 12.333 93.5 37 132.5
s58.834 69.5 102.501 91.5s92.834 33 147.501 33c55.333 0 104.666 -11.167 147.999 -33.5s77 -53 101 -92s36 -83.167 36 -132.5c0 -46.667 -9.83301 -88.667 -29.5 -126s-47.834 -67.333 -84.501 -90h1139zM794.999 124.001c-34.667 17.333 -61.668 41.5 -81.001 72.5
s-29 65.833 -29 104.5c0 42.667 10.833 81.5 32.5 116.5s51.834 62.333 90.501 82s82.334 29.5 131.001 29.5c39.333 0 75.333 -7.5 108 -22.5s60 -36.167 82 -63.5v70h446l8 -56h-129v-342h-71v342h-183v-342h-71v178c0 32.667 -8.16699 62.167 -24.5 88.5
s-39 47.166 -68 62.499s-61.5 23 -97.5 23c-35.333 0 -66.833 -7.33301 -94.5 -22s-49.167 -34.5 -64.5 -59.5s-23 -53.167 -23 -84.5c0 -37.333 10 -68.666 30 -93.999c-1.33301 8 -2 14.333 -2 19c0 37.333 12.167 67.833 36.5 91.5s55.5 35.5 93.5 35.5
c40 0 73 -11.833 99 -35.5s39 -54.167 39 -91.5c0 -36.667 -13.333 -67.167 -40 -91.5s-60.334 -36.5 -101.001 -36.5c-43.333 0 -82.333 8.66699 -117 26zM126.998 331.501c-16.667 -15.667 -25 -35.5 -25 -59.5c0 -25.333 8.33301 -46.333 25 -63s38.334 -25 65.001 -25
c25.333 0 46 8.16699 62 24.5s24 36.833 24 61.5s-8.16699 45 -24.5 61s-36.833 24 -61.5 24c-26.667 0 -48.334 -7.83301 -65.001 -23.5zM861.998 278.501c-14 -13.667 -21 -31.167 -21 -52.5s7 -39 21 -53s31.667 -21 53 -21s39 7 53 21s21 31.667 21 53
s-7 38.833 -21 52.5s-31.667 20.5 -53 20.5s-39 -6.83301 -53 -20.5z" />
    <glyph glyph-name="tm_E" unicode="&#xb8e;" horiz-adv-x="866" 
d="M856 457l-188 0.000976562v-457h-72v457h-207c-87.333 0 -152.666 -19.667 -195.999 -59s-65 -93 -65 -161c0 -58.667 16.667 -105.667 50 -141c-5.33301 16 -8 31.333 -8 46c0 30.667 7 58.167 21 82.5s33.5 43.333 58.5 57s52.833 20.5 83.5 20.5
c32.667 0 62.167 -6.83301 88.5 -20.5s46.833 -32.667 61.5 -57s22 -51.833 22 -82.5c0 -30 -7.5 -57.167 -22.5 -81.5s-35.833 -43.5 -62.5 -57.5s-56.667 -21 -90 -21c-56.667 0 -105.834 11.167 -147.501 33.5s-73.667 52.833 -96 91.5s-33.5 82 -33.5 130
c0 54.667 12.167 102.667 36.5 144s61 73.666 110 96.999s109.167 35 180.5 35h468zM259 216.001c-19.333 -19.333 -29 -44 -29 -74s9.66699 -54.667 29 -74s44 -29 74 -29s54.833 9.66699 74.5 29s29.5 44 29.5 74s-9.83301 54.667 -29.5 74s-44.5 29 -74.5 29
s-54.667 -9.66699 -74 -29z" />
    <glyph glyph-name="tm_Ee" unicode="&#xb8f;" horiz-adv-x="866" 
d="M856 457h-187.998v-440c0 -41.333 -4.33301 -72.666 -13 -93.999s-27.334 -37 -56.001 -47l-344 -126l-28 52l318 120c21.333 7.33301 35.166 19 41.499 35s9.5 41.333 9.5 76v424h-207c-87.333 0 -152.666 -19.667 -195.999 -59s-65 -93 -65 -161
c0 -58.667 16.667 -105.667 50 -141c-5.33301 16 -8 31.333 -8 46c0 30.667 7 58.167 21 82.5s33.5 43.333 58.5 57s52.833 20.5 83.5 20.5c32.667 0 62.167 -6.83301 88.5 -20.5s46.833 -32.667 61.5 -57s22 -51.833 22 -82.5c0 -30 -7.5 -57.167 -22.5 -81.5
s-35.833 -43.5 -62.5 -57.5s-56.667 -21 -90 -21c-56.667 0 -105.834 11.167 -147.501 33.5s-73.667 52.833 -96 91.5s-33.5 82 -33.5 130c0 54.667 12.167 102.667 36.5 144s61 73.666 110 96.999s109.167 35 180.5 35h468zM259.002 216c-19.333 -19.333 -29 -44 -29 -74
s9.66699 -54.667 29 -74s44 -29 74 -29s54.833 9.66699 74.5 29s29.5 44 29.5 74s-9.83301 54.667 -29.5 74s-44.5 29 -74.5 29s-54.667 -9.66699 -74 -29z" />
    <glyph glyph-name="tm_Ai" unicode="&#xb90;" horiz-adv-x="826" 
d="M721 101c13.333 -26 23.001 -49.998 29.001 -71.998s9 -45.333 9 -70c0 -31.333 -7.83301 -59.5 -23.5 -84.5s-37.167 -44.5 -64.5 -58.5s-58 -21 -92 -21c-35.333 0 -66.666 7.16699 -93.999 21.5s-49.333 34.166 -66 59.499
c-17.333 -25.333 -40.333 -45.166 -69 -59.499s-61.667 -21.5 -99 -21.5c-38 0 -72 7.5 -102 22.5s-53.5 36 -70.5 63s-25.5 57.5 -25.5 91.5c0 57.333 21.167 103.5 63.5 138.5s111.166 58.833 206.499 71.5l180 24c65.333 9.33301 114 27.166 146 53.499
s48.333 58.833 49 97.5c0 32.667 -9.66699 59.5 -29 80.5s-44.666 31.5 -75.999 31.5c-35.333 0 -64.833 -12 -88.5 -36s-35.5 -54 -35.5 -90v-69h-71v69c0 36 -12.833 66 -38.5 90s-57.834 36 -96.501 36c-40 0 -73 -11.333 -99 -34h8c31.333 0 57 -9.16699 77 -27.5
s30 -41.833 30 -70.5c0 -30 -10.167 -54.833 -30.5 -74.5s-46.166 -29.5 -77.499 -29.5c-32 0 -58.5 10 -79.5 30s-31.5 45.667 -31.5 77c0 35.333 8.66699 67.5 26 96.5s41.5 52 72.5 69s65.833 25.5 104.5 25.5c72 0 128.333 -29.333 169 -88c40 58.667 93.667 88 161 88
c35.333 0 66.666 -7.33301 93.999 -22s48.5 -35.167 63.5 -61.5s22.5 -56.5 22.5 -90.5c0 -54.667 -22.333 -100.667 -67 -138s-112.334 -62 -203.001 -74l-180 -25c-70 -9.33301 -120 -26.333 -150 -51s-45 -57.667 -45 -99c0 -32.667 11.667 -59.834 35 -81.501
s52.666 -32.5 87.999 -32.5c38 0 69.5 12.167 94.5 36.5s37.5 54.5 37.5 90.5v69h71v-69c0 -36 11.833 -66.167 35.5 -90.5s53.5 -36.5 89.5 -36.5c32.667 0 58.334 10 77.001 30s28 45 28 75c0 18 -3.16699 39.5 -9.5 64.5s-14.833 48.167 -25.5 69.5zM135.001 370.002
c-10 -9.33301 -15 -21.333 -15 -36c0 -14 5 -25.667 15 -35s22.333 -14 37 -14s26.667 4.66699 36 14s14.333 21 15 35c0 14.667 -4.66699 26.667 -14 36s-21.333 14 -36 14c-15.333 0 -28 -4.66699 -38 -14z" />
    <glyph glyph-name="tm_O" unicode="&#xb92;" horiz-adv-x="819" 
d="M568 49.5c20.667 -19 50.998 -28.499 90.998 -28.499h69v-56h-69c-18 0 -36.333 1.66699 -55 5v-20c0 -32.667 -8 -61.834 -24 -87.501s-38.5 -45.667 -67.5 -60s-62.167 -21.5 -99.5 -21.5c-38.667 0 -72.834 7.16699 -102.501 21.5s-52.667 34.333 -69 60
s-24.5 54.834 -24.5 87.501v50h71v-50c0 -31.333 11.5 -57 34.5 -77s53.167 -30 90.5 -30s67.333 9.83301 90 29.5s34 45.5 34 77.5v48c-21.333 15.333 -37.5 34.5 -48.5 57.5s-16.5 48.833 -16.5 77.5v136h65c0.666992 -26 8.33398 -47.333 23.001 -64s33.667 -25 57 -25
c22.667 0 40.334 9 53.001 27s19 42 19 72c0 36.667 -12.333 69.667 -37 99s-58.5 52.333 -101.5 69s-91.167 25 -144.5 25c-51.333 0 -97.833 -7.5 -139.5 -22.5s-75.5 -35.667 -101.5 -62s-41.667 -56.833 -47 -91.5c22.667 29.333 53.667 44 93 44
c36.667 0 66.834 -11 90.501 -33s35.5 -50.333 35.5 -85c0 -35.333 -12.167 -64.166 -36.5 -86.499s-55.5 -33.5 -93.5 -33.5c-30 0 -57 7.16699 -81 21.5s-42.667 34.166 -56 59.499s-20 54 -20 86c0 50.667 15.167 96.167 45.5 136.5s72.5 71.833 126.5 94.5
s115.333 34 184 34c68 0 129.333 -11 184 -33s97.334 -52.333 128.001 -91s46 -82.334 46 -131.001c0 -48 -13.5 -86.833 -40.5 -116.5s-62.5 -44.5 -106.5 -44.5c-30.667 0 -57.334 8.33301 -80.001 25v-10c0 -36.667 10.333 -64.5 31 -83.5zM163.498 266.001
c-11.667 -11.333 -17.5 -26 -17.5 -44s5.66699 -32.667 17 -44s25.666 -17 42.999 -17h1c18 0 32.833 5.66699 44.5 17s17.834 26 18.501 44c0 18 -5.83301 32.667 -17.5 44s-26.5 17 -44.5 17s-32.833 -5.66699 -44.5 -17z" />
    <glyph glyph-name="tm_Oo" unicode="&#xb93;" horiz-adv-x="819" 
d="M568 49.5c20.667 -19 50.9951 -28.498 90.9951 -28.498h69v-56h-69c-21.333 0 -40.666 2 -57.999 6v-21c0 -32 -8.66699 -60.833 -26 -86.5s-41.333 -45.834 -72 -60.501s-65 -22 -103 -22c-37.333 0 -71 5.83301 -101 17.5s-53.5 28 -70.5 49s-25.5 44.5 -25.5 70.5
c0 34.667 12.5 63.334 37.5 86.001s56.833 34 95.5 34h21v-57h-21c-17.333 0 -31.666 -6 -42.999 -18s-17 -27 -17 -45c0 -22 11.667 -40 35 -54s53 -21 89 -21c39.333 0 71.5 10 96.5 30s37.5 45.667 37.5 77v50c-20 15.333 -35.333 34.166 -46 56.499s-16 47.833 -16 76.5
v136h65c0.666992 -26 8.33398 -47.333 23.001 -64s33.667 -25 57 -25c22.667 0 40.334 9 53.001 27s19 42 19 72c0 36.667 -12.333 69.667 -37 99s-58.5 52.333 -101.5 69s-91.167 25 -144.5 25c-51.333 0 -97.833 -7.5 -139.5 -22.5s-75.5 -35.667 -101.5 -62
s-41.667 -56.833 -47 -91.5c22.667 29.333 53.667 44 93 44c36.667 0 66.834 -11 90.501 -33s35.5 -50.333 35.5 -85c0 -35.333 -12.167 -64.166 -36.5 -86.499s-55.5 -33.5 -93.5 -33.5c-30 0 -57 7.16699 -81 21.5s-42.667 34.166 -56 59.499s-20 54 -20 86
c0 50.667 15.167 96.167 45.5 136.5s72.5 71.833 126.5 94.5s115.333 34 184 34c68 0 129.333 -11 184 -33s97.334 -52.333 128.001 -91s46 -82.334 46 -131.001c0 -48 -13.5 -86.833 -40.5 -116.5s-62.5 -44.5 -106.5 -44.5c-30.667 0 -57.334 8.33301 -80.001 25v-10
c0 -36.667 10.333 -64.5 31 -83.5zM163.495 266.002c-11.667 -11.333 -17.5 -26 -17.5 -44s5.66699 -32.667 17 -44s25.666 -17 42.999 -17h1c18 0 32.833 5.66699 44.5 17s17.834 26 18.501 44c0 18 -5.83301 32.667 -17.5 44s-26.5 17 -44.5 17
s-32.833 -5.66699 -44.5 -17z" />
    <glyph glyph-name="tm_Au" unicode="&#xb94;" horiz-adv-x="2036" 
d="M568 49.5c20.667 -19 50.998 -28.499 90.998 -28.499h69v-56h-69c-18 0 -36.333 1.66699 -55 5v-20c0 -32.667 -8 -61.834 -24 -87.501s-38.5 -45.667 -67.5 -60s-62.167 -21.5 -99.5 -21.5c-38.667 0 -72.834 7.16699 -102.501 21.5s-52.667 34.333 -69 60
s-24.5 54.834 -24.5 87.501v50h71v-50c0 -31.333 11.5 -57 34.5 -77s53.167 -30 90.5 -30s67.333 9.83301 90 29.5s34 45.5 34 77.5v48c-21.333 15.333 -37.5 34.5 -48.5 57.5s-16.5 48.833 -16.5 77.5v136h65c0.666992 -26 8.33398 -47.333 23.001 -64s33.667 -25 57 -25
c22.667 0 40.334 9 53.001 27s19 42 19 72c0 36.667 -12.333 69.667 -37 99s-58.5 52.333 -101.5 69s-91.167 25 -144.5 25c-51.333 0 -97.833 -7.5 -139.5 -22.5s-75.5 -35.667 -101.5 -62s-41.667 -56.833 -47 -91.5c22.667 29.333 53.667 44 93 44
c36.667 0 66.834 -11 90.501 -33s35.5 -50.333 35.5 -85c0 -35.333 -12.167 -64.166 -36.5 -86.499s-55.5 -33.5 -93.5 -33.5c-30 0 -57 7.16699 -81 21.5s-42.667 34.166 -56 59.499s-20 54 -20 86c0 50.667 15.167 96.167 45.5 136.5s72.5 71.833 126.5 94.5
s115.333 34 184 34c68 0 129.333 -11 184 -33s97.334 -52.333 128.001 -91s46 -82.334 46 -131.001c0 -48 -13.5 -86.833 -40.5 -116.5s-62.5 -44.5 -106.5 -44.5c-30.667 0 -57.334 8.33301 -80.001 25v-10c0 -36.667 10.333 -64.5 31 -83.5zM163.498 266.001
c-11.667 -11.333 -17.5 -26 -17.5 -44s5.66699 -32.667 17 -44s25.666 -17 42.999 -17h1c18 0 32.833 5.66699 44.5 17s17.834 26 18.501 44c0 18 -5.83301 32.667 -17.5 44s-26.5 17 -44.5 17s-32.833 -5.66699 -44.5 -17zM2026 457.001l-187.994 -0.000976562v-457h-71
v457h-250v-457h-71v228c0 46 -10.833 87.333 -32.5 124s-51.334 65.334 -89.001 86.001s-79.834 31 -126.501 31c-51.333 0 -95.833 -9.83301 -133.5 -29.5s-66.667 -47 -87 -82s-30.5 -75.167 -30.5 -120.5c0 -58.667 16.667 -105.667 50 -141c-5.33301 16 -8 31.333 -8 46
c0 30.667 7 58.167 21 82.5s33.5 43.333 58.5 57s52.833 20.5 83.5 20.5c32.667 0 62.167 -6.83301 88.5 -20.5s46.833 -32.667 61.5 -57s22 -51.833 22 -82.5c0 -30 -7.5 -57.167 -22.5 -81.5s-35.833 -43.5 -62.5 -57.5s-56.667 -21 -90 -21
c-56.667 0 -105.834 11.167 -147.501 33.5s-73.667 52.833 -96 91.5s-33.5 82 -33.5 130c0 56.667 13.333 107.334 40 152.001s64.667 79.5 114 104.5s106.666 37.5 171.999 37.5c51.333 0 98.666 -10.833 141.999 -32.5s78.666 -51.834 105.999 -90.501v105h572zM1078 216
c-19.333 -19.333 -29 -44 -29 -74s9.66699 -54.667 29 -74s44 -29 74 -29s54.833 9.66699 74.5 29s29.5 44 29.5 74s-9.83301 54.667 -29.5 74s-44.5 29 -74.5 29s-54.667 -9.66699 -74 -29z" />
    <glyph glyph-name="tm_Ka" unicode="&#xb95;" horiz-adv-x="751" 
d="M664.5 254.5c36.333 -29 54.502 -67.165 54.502 -114.498c0 -30.667 -8.66699 -57.834 -26 -81.501s-42.333 -42.334 -75 -56.001s-71.334 -20.5 -116.001 -20.5v57c45.333 0 80.166 9.16699 104.499 27.5s36.5 42.833 36.5 73.5s-11 55.334 -33 74.001
s-53.667 28 -95 28h-38v-37c0 -44 -9.5 -82.833 -28.5 -116.5s-46.333 -59.834 -82 -78.501s-77.167 -28 -124.5 -28c-38.667 0 -73.167 6.83301 -103.5 20.5s-53.833 32.5 -70.5 56.5s-25 51 -25 81c0 35.333 10.5 66 31.5 92s50.833 44.333 89.5 55v226h478l9 -56h-174
v-159h37c64 0 114.167 -14.5 150.5 -43.5zM235.002 457.002v-159h13h158v159h-171zM406.002 242.002l-156 -0.000976562c-42 0 -74.5 -9.16699 -97.5 -27.5s-34.5 -43.166 -34.5 -74.499c0 -28 11.333 -51 34 -69s52.667 -27 90 -27c51.333 0 91.5 14.5 120.5 43.5
s43.5 68.167 43.5 117.5v37z" />
    <glyph glyph-name="tm_Nga" unicode="&#xb99;" horiz-adv-x="980" 
d="M888 513l0.00195312 -513h-544v57h136c48.667 0 85.667 12.667 111 38s38 59 38 101c0 32.667 -8.83301 59.5 -26.5 80.5s-42.167 31.5 -73.5 31.5c-34 0 -61.5 -11.5 -82.5 -34.5s-31.5 -52.167 -31.5 -87.5v-34h-71v305h-181v-457h-70v513h503l8 -56h-189v-134
c15.333 14.667 33.166 26 53.499 34s42.166 12 65.499 12c52 0 93.333 -16 124 -48s46 -73.667 46 -125c0 -58.667 -21 -105 -63 -139h176v456h71z" />
    <glyph glyph-name="tm_Ca" unicode="&#xb9a;" horiz-adv-x="683" 
d="M651 242l-174 0.000976562v-37c0 -44 -9.5 -82.833 -28.5 -116.5s-46.333 -59.834 -82 -78.501s-77.167 -28 -124.5 -28c-38.667 0 -73.167 6.83301 -103.5 20.5s-53.833 32.5 -70.5 56.5s-25 51 -25 81c0 35.333 10.5 66 31.5 92s50.833 44.333 89.5 55v226h478l9 -56
h-174v-159h165zM235 457.001v-159h13h158v159h-171zM406 242.001l-156 -0.000976562c-42 0 -74.5 -9.16699 -97.5 -27.5s-34.5 -43.166 -34.5 -74.499c0 -28 11.333 -51 34 -69s52.667 -27 90 -27c51.333 0 91.5 14.5 120.5 43.5s43.5 68.167 43.5 117.5v37z" />
    <glyph glyph-name="tm_Ja" unicode="&#xb9c;" horiz-adv-x="826" 
d="M732.5 40c27 -26 40.5029 -60.001 40.5029 -102.001c0 -26.667 -7.5 -50.5 -22.5 -71.5s-36 -37.667 -63 -50s-57.167 -18.5 -90.5 -18.5h-111v56h111c30 0 54.333 8 73 24s28 36 28 60s-6.33301 43.333 -19 58s-31.334 22 -56.001 22c-27.333 0 -52.5 -8 -75.5 -24
s-52.5 -41.333 -88.5 -76c-26.667 -26.667 -49.834 -48.167 -69.501 -64.5s-42 -30.166 -67 -41.499s-51.833 -17 -80.5 -17c-38 0 -71.167 7.5 -99.5 22.5s-50.333 36 -66 63s-23.5 57.5 -23.5 91.5c0 57.333 21.167 103.5 63.5 138.5s111.166 58.833 206.499 71.5l180 24
c65.333 9.33301 114 27.166 146 53.499s48.333 58.833 49 97.5c0 32.667 -9.66699 59.5 -29 80.5s-44.666 31.5 -75.999 31.5c-35.333 0 -64.833 -12 -88.5 -36s-35.5 -54 -35.5 -90v-69h-71v69c0 36 -12.833 66 -38.5 90s-57.834 36 -96.501 36c-40 0 -73 -11.333 -99 -34
h8c31.333 0 57 -9.16699 77 -27.5s30 -41.833 30 -70.5c0 -30 -10.167 -54.833 -30.5 -74.5s-46.166 -29.5 -77.499 -29.5c-32 0 -58.5 10 -79.5 30s-31.5 45.667 -31.5 77c0 35.333 8.66699 67.5 26 96.5s41.5 52 72.5 69s65.833 25.5 104.5 25.5
c72 0 128.333 -29.333 169 -88c40 58.667 93.667 88 161 88c35.333 0 66.666 -7.33301 93.999 -22s48.5 -35.167 63.5 -61.5s22.5 -56.5 22.5 -90.5c0 -54.667 -22.333 -100.667 -67 -138s-112.334 -62 -203.001 -74l-180 -25c-70 -9.33301 -120 -26.333 -150 -51
s-45 -57.667 -45 -99c0 -33.333 10.333 -60.666 31 -81.999s48.334 -32 83.001 -32c28.667 0 55.5 8.66699 80.5 26s55.5 43.333 91.5 78c40 38.667 75.333 68.167 106 88.5s65 30.5 103 30.5c46 0 82.5 -13 109.5 -39zM135.003 369.999c-10 -9.33301 -15 -21.333 -15 -36
c0 -14 5 -25.667 15 -35s22.333 -14 37 -14s26.667 4.66699 36 14s14.333 21 15 35c0 14.667 -4.66699 26.667 -14 36s-21.333 14 -36 14c-15.333 0 -28 -4.66699 -38 -14z" />
    <glyph glyph-name="tm_Nya" unicode="&#xb9e;" horiz-adv-x="1234" 
d="M1133.5 292c31.667 -41.333 47.5 -94.667 47.5 -160c0 -80 -21.833 -149.167 -65.5 -207.5s-105.667 -103 -186 -134s-173.833 -46.5 -280.5 -46.5c-116 0 -217.333 17.5 -304 52.5s-153.667 85.333 -201 151s-71 143.167 -71 232.5c0 62.667 13.5 125.667 40.5 189
s61.833 114.666 104.5 153.999l73 -10c-42 -34.667 -76.333 -82.667 -103 -144s-40 -125 -40 -191c0 -77.333 20.5 -143.833 61.5 -199.5s99.167 -98.334 174.5 -128.001s163.666 -44.5 264.999 -44.5c92.667 0 173.334 12.833 242.001 38.5s121.667 62.834 159 111.501
s56 107.334 56 176.001c0 48.667 -8.66699 87.667 -26 117s-45 44 -83 44c-32.667 0 -59.834 -12.333 -81.501 -37s-32.5 -56 -32.5 -94v-162h-70v457h-181c-88 0 -153.667 -19.667 -197 -59s-65 -93 -65 -161c0 -60 17 -107.333 51 -142c-5.33301 16 -8 31.667 -8 47
c0 46.667 15.333 85 46 115s69.667 45 117 45c32.667 0 62 -6.83301 88 -20.5s46.333 -32.667 61 -57s22 -51.833 22 -82.5c0 -30 -7.5 -57.167 -22.5 -81.5s-35.667 -43.5 -62 -57.5s-56.166 -21 -89.499 -21c-56.667 0 -106 11.167 -148 33.5s-74.167 52.833 -96.5 91.5
s-33.5 82 -33.5 130c0 54 12.333 101.833 37 143.5s61.5 74.167 110.5 97.5s109.167 35 180.5 35h441l8 -56h-189v-153c31.333 33.333 70 50 116 50c58 0 102.833 -20.667 134.5 -62zM501.5 215.999c-19.667 -19.333 -29.5 -44 -29.5 -74s9.83301 -54.667 29.5 -74
s44.5 -29 74.5 -29s54.667 9.66699 74 29s29 44 29 74s-9.66699 54.667 -29 74s-44 29 -74 29s-54.833 -9.66699 -74.5 -29z" />
    <glyph glyph-name="tm_Tta" unicode="&#xb9f;" horiz-adv-x="720" 
d="M702 57h-539v461l-70 -5v-513h617z" />
    <glyph glyph-name="tm_Nna" unicode="&#xba3;" horiz-adv-x="1698" 
d="M1688 457l-188.997 0.000976562v-457h-71v457h-98c-52.667 0 -100.667 -10.333 -144 -31c31.333 -32 55.5 -69.5 72.5 -112.5s25.5 -89.5 25.5 -139.5c0 -57.333 -14.667 -103.666 -44 -138.999s-69 -53 -119 -53c-50.667 0 -90.667 17.667 -120 53
s-44 81.666 -44 138.999c0 50 10.5 97 31.5 141s50.167 81.333 87.5 112c-44.667 28 -95.334 42 -152.001 42c-58.667 0 -110.334 -14 -155.001 -42c39.333 -32.667 69.666 -70.667 90.999 -114s32 -89.666 32 -138.999c0 -57.333 -14.667 -103.666 -44 -138.999
s-69.333 -53 -120 -53s-90.667 17.667 -120 53s-44 81.666 -44 138.999c0 48.667 8.16699 94.167 24.5 136.5s39.833 79.833 70.5 112.5c-59.333 30.667 -127.333 46 -204 46c-65.333 0 -122.666 -10.333 -171.999 -31s-87.5 -49.334 -114.5 -86.001s-40.5 -78 -40.5 -124
c0 -57.333 17.333 -103 52 -137c-6.66699 15.333 -10 32.333 -10 51c0 30.667 7 58.167 21 82.5s33.5 43.333 58.5 57s52.833 20.5 83.5 20.5c32.667 0 62.167 -6.83301 88.5 -20.5s46.833 -32.667 61.5 -57s22 -51.833 22 -82.5c0 -30 -7.5 -57.167 -22.5 -81.5
s-35.833 -43.5 -62.5 -57.5s-56.667 -21 -90 -21c-56.667 0 -105.834 10.667 -147.501 32s-73.667 50.666 -96 87.999s-33.5 79.333 -33.5 126c0 58 16.667 110 50 156s80.5 82 141.5 108s131.167 39 210.5 39c98 0 183.333 -21.333 256 -64
c60.667 42.667 131.667 64 213 64c80.667 0 151.667 -21.333 213 -64c58 30.667 122.333 46 193 46h349zM1187.5 292.501c-14.333 36.333 -34.833 67.834 -61.5 94.501c-30 -26 -53.167 -57.333 -69.5 -94s-24.5 -76.334 -24.5 -119.001c0 -38.667 7.66699 -70 23 -94
s37.333 -36 66 -36c28 0 49.667 12 65 36s23 55.333 23 94c0 42.667 -7.16699 82.167 -21.5 118.5zM791.003 291.002c-17.333 36 -42.001 67.333 -74.001 94c-25.333 -26.667 -44.666 -58 -57.999 -94s-20 -75 -20 -117c0 -38.667 7.83301 -70 23.5 -94s37.5 -36 65.5 -36
c28.667 0 50.667 12 66 36s23 55.333 23 94c0 42 -8.66699 81 -26 117zM259.002 68.002c19.333 -19.333 44 -29 74 -29s54.833 9.66699 74.5 29s29.5 44 29.5 74s-9.83301 54.667 -29.5 74s-44.5 29 -74.5 29s-54.667 -9.66699 -74 -29s-29 -44 -29 -74
s9.66699 -54.667 29 -74z" />
    <glyph glyph-name="tm_Ta" unicode="&#xba4;" horiz-adv-x="766" 
d="M618 269.5c33.333 -19 59.168 -45.334 77.501 -79.001s27.5 -72.167 27.5 -115.5c0 -47.333 -11.833 -89.666 -35.5 -126.999s-57 -66.5 -100 -87.5s-92.833 -31.5 -149.5 -31.5h-177c-40.667 0 -73.834 -6.33301 -99.501 -19s-46.167 -30.667 -61.5 -54l-57 32
c15.333 29.333 41.5 52.833 78.5 70.5s81.5 26.5 133.5 26.5h183c42 0 79 8.16699 111 24.5s56.5 38.833 73.5 67.5s25.5 61.334 25.5 98.001c0 48.667 -13.167 88.667 -39.5 120s-61.166 47 -104.499 47h-27v-37c0 -44 -9.5 -82.833 -28.5 -116.5
s-46.333 -59.834 -82 -78.501s-77.167 -28 -124.5 -28c-38.667 0 -73.167 6.83301 -103.5 20.5s-53.833 32.5 -70.5 56.5s-25 51 -25 81c0 35.333 10.5 66 31.5 92s50.833 44.333 89.5 55v226h478l9 -56h-174v-159h26c43.333 0 81.666 -9.5 114.999 -28.5zM235.002 456.999
v-159h13h158v159h-171zM406.002 241.999l-156 -0.000976562c-42 0 -74.5 -9.16699 -97.5 -27.5s-34.5 -43.166 -34.5 -74.499c0 -28 11.333 -51 34 -69s52.667 -27 90 -27c51.333 0 91.5 14.5 120.5 43.5s43.5 68.167 43.5 117.5v37z" />
    <glyph glyph-name="tm_Na" unicode="&#xba8;" horiz-adv-x="765" 
d="M664.5 289.5c32.333 -43 48.499 -98.833 48.499 -167.5c0 -56.667 -10.5 -107.167 -31.5 -151.5s-51.5 -78.833 -91.5 -103.5s-87.333 -37 -142 -37h-136c-76 0 -130 -24.333 -162 -73l-57 31c16 29.333 42.333 53 79 71s81 27 133 27h143c60 0 106.667 21.667 140 65
s50 100.333 50 171c0 52 -9.16699 93.5 -27.5 124.5s-45.5 46.5 -81.5 46.5c-33.333 0 -60.666 -12.333 -81.999 -37s-32 -56 -32 -94v-162h-71v457h-181v-457h-70v513h503l8 -56h-189v-153c14 16 31 28.333 51 37s41.667 13 65 13c56.667 0 101.167 -21.5 133.5 -64.5z" />
    <glyph glyph-name="tm_Nnna" unicode="&#xba9;" horiz-adv-x="1305" 
d="M1295 457l-188 0.00195312v-457h-72v457h-98c-58 0 -110.667 -12.667 -158 -38c36 -32.667 63.833 -69.834 83.5 -111.501s29.5 -86.167 29.5 -133.5c0 -57.333 -14.667 -103.666 -44 -138.999s-69.333 -53 -120 -53s-90.667 17.667 -120 53s-44 81.666 -44 138.999
c0 47.333 9.33301 91.833 28 133.5s45 77.834 79 108.501c-60 35.333 -132 53 -216 53c-65.333 0 -122.666 -10.333 -171.999 -31s-87.5 -49.334 -114.5 -86.001s-40.5 -78 -40.5 -124c0 -57.333 17.333 -103 52 -137c-6.66699 15.333 -10 32.333 -10 51
c0 30.667 7 58.167 21 82.5s33.5 43.333 58.5 57s52.833 20.5 83.5 20.5c32.667 0 62.167 -6.83301 88.5 -20.5s46.833 -32.667 61.5 -57s22 -51.833 22 -82.5c0 -30 -7.5 -57.167 -22.5 -81.5s-35.833 -43.5 -62.5 -57.5s-56.667 -21 -90 -21
c-56.667 0 -105.834 10.667 -147.501 32s-73.667 50.666 -96 87.999s-33.5 79.333 -33.5 126c0 58 16.667 110 50 156s80.5 82 141.5 108s131.167 39 210.5 39c52 0 101 -6.33301 147 -19s87.667 -30.667 125 -54c62 36.667 132 55 210 55h350zM793 287.502
c-16 35 -39 65.5 -69 91.5c-27.333 -26 -48.333 -56.333 -63 -91s-22 -72.667 -22 -114c0 -38.667 7.83301 -70 23.5 -94s37.5 -36 65.5 -36c28.667 0 50.667 12 66 36s23 55.333 23 94c0 40.667 -8 78.5 -24 113.5zM259 68.002c19.333 -19.333 44 -29 74 -29
s54.833 9.66699 74.5 29s29.5 44 29.5 74s-9.83301 54.667 -29.5 74s-44.5 29 -74.5 29s-54.667 -9.66699 -74 -29s-29 -44 -29 -74s9.66699 -54.667 29 -74z" />
    <glyph glyph-name="tm_Pa" unicode="&#xbaa;" horiz-adv-x="718" 
d="M625 513v-513h-532v513l70 5v-461h391v456h71z" />
    <glyph glyph-name="tm_Ma" unicode="&#xbae;" horiz-adv-x="829" 
d="M674.5 492.5c33.667 -25.667 59.166 -61 76.499 -106s26 -96.833 26 -155.5c0 -70 -17.833 -126 -53.5 -168s-88.167 -63 -157.5 -63h-473v513l70 5v-461h213v277c0 64 16.167 112.833 48.5 146.5s75.5 50.5 129.5 50.5c46.667 0 86.834 -12.833 120.501 -38.5z
M668.999 104c22 31.333 32.999 73.667 32.999 127c0 71.333 -12.667 128.833 -38 172.5s-61.333 65.5 -108 65.5c-33.333 0 -59.666 -11 -78.999 -33s-29 -55.333 -29 -100v-279h118c46.667 0 81 15.667 103 47z" />
    <glyph glyph-name="tm_Ya" unicode="&#xbaf;" horiz-adv-x="925" 
d="M832 513v-513h-438v42c-16 -19.333 -34.833 -34.166 -56.5 -44.499s-45.5 -15.5 -71.5 -15.5c-56 0 -100.5 17.667 -133.5 53s-49.5 86.666 -49.5 153.999v324l70 5v-329c0 -96.667 37.667 -145 113 -145c41.333 0 73 14.5 95 43.5s33 67.5 33 115.5v310h71v-456h296v456
h71z" />
    <glyph glyph-name="tm_Ra" unicode="&#xbb0;" horiz-adv-x="683" 
d="M485 457l0.000976562 -440.001c0 -27.333 -1.5 -49 -4.5 -65s-9.5 -30.167 -19.5 -42.5s-25 -23.5 -45 -33.5l-254 -126l-28 57l228 115c21.333 10.667 35.166 23.334 41.499 38.001s9.5 39 9.5 73v424h-250v-457h-70v513h572l8 -56h-188z" />
    <glyph glyph-name="tm_Rra" unicode="&#xbb1;" horiz-adv-x="824" 
d="M716.5 449c37 -54.667 55.4971 -127.333 55.4971 -218c0 -78.667 -13 -148.167 -39 -208.5s-64 -107.5 -114 -141.5s-110.333 -51 -181 -51h-136c-76 0 -130 -24.333 -162 -73l-57 31c16 29.333 42.333 53 79 71s81 27 133 27h143c56 0 103.333 14.667 142 44
s67.834 69.833 87.501 121.5s29.5 111.5 29.5 179.5c0 73.333 -11.167 131.333 -33.5 174s-57.833 64 -106.5 64c-32 0 -59.167 -11.167 -81.5 -33.5s-33.5 -55.5 -33.5 -99.5v-336h-71v313c0 47.333 -9.66699 85.166 -29 113.499s-47.666 42.5 -84.999 42.5
c-35.333 0 -61.5 -12 -78.5 -36s-25.5 -60.333 -25.5 -109v-324h-70v324c0 66.667 14.833 117.834 44.5 153.501s72.834 53.5 129.501 53.5c32 0 60.333 -7.83301 85 -23.5s44.667 -37.5 60 -65.5c16 28 37.333 49.833 64 65.5s56.667 23.5 90 23.5
c70 0 123.5 -27.333 160.5 -82z" />
    <glyph glyph-name="tm_La" unicode="&#xbb2;" horiz-adv-x="1021" 
d="M947.5 378c14.333 -53.333 21.499 -101.325 21.499 -143.992c0 -78.667 -16.333 -140.334 -49 -185.001s-81 -67 -145 -67c-61.333 0 -108 19.667 -140 59s-48 95.666 -48 168.999v47c0 66.667 -19.667 118.667 -59 156s-93.666 56 -162.999 56
c-48 0 -89.833 -9.83301 -125.5 -29.5s-63.167 -46.834 -82.5 -81.501s-29 -74.334 -29 -119.001c0 -59.333 17 -107 51 -143c-5.33301 16 -8 31.333 -8 46c0 30 7 57.167 21 81.5s33.333 43.333 58 57s52.334 20.5 83.001 20.5c32.667 0 62.167 -6.83301 88.5 -20.5
s46.833 -32.667 61.5 -57s22 -51.5 22 -81.5s-7.5 -57.167 -22.5 -81.5s-35.833 -43.5 -62.5 -57.5s-56.667 -21 -90 -21c-56.667 0 -105.834 11.333 -147.501 34s-73.667 53.5 -96 92.5s-33.5 82.5 -33.5 130.5c0 55.333 12.833 105.166 38.5 149.499
s62 79.166 109 104.499s101.833 38 164.5 38c58.667 0 110.167 -11.167 154.5 -33.5s78.5 -54 102.5 -95s36 -89.5 36 -145.5v-47c0 -54.667 9.5 -95.834 28.5 -123.501s48.833 -41.5 89.5 -41.5c79.333 0 119 62.667 119 188c0 42.667 -7 90.667 -21 144
s-34.333 98.666 -61 135.999l71 14c28 -46 49.167 -95.667 63.5 -149zM258.999 216.008c-19.333 -19.333 -29 -44 -29 -74s9.66699 -54.667 29 -74s44 -29 74 -29s54.833 9.66699 74.5 29s29.5 44 29.5 74s-9.83301 54.667 -29.5 74s-44.5 29 -74.5 29
s-54.667 -9.66699 -74 -29z" />
    <glyph glyph-name="tm_Lla" unicode="&#xbb3;" horiz-adv-x="1217" 
d="M1207 457l-187.994 -0.000976562v-457h-71v457h-250v-457h-71v228c0 46 -10.833 87.333 -32.5 124s-51.334 65.334 -89.001 86.001s-79.834 31 -126.501 31c-51.333 0 -95.833 -9.83301 -133.5 -29.5s-66.667 -47 -87 -82s-30.5 -75.167 -30.5 -120.5
c0 -58.667 16.667 -105.667 50 -141c-5.33301 16 -8 31.333 -8 46c0 30.667 7 58.167 21 82.5s33.5 43.333 58.5 57s52.833 20.5 83.5 20.5c32.667 0 62.167 -6.83301 88.5 -20.5s46.833 -32.667 61.5 -57s22 -51.833 22 -82.5c0 -30 -7.5 -57.167 -22.5 -81.5
s-35.833 -43.5 -62.5 -57.5s-56.667 -21 -90 -21c-56.667 0 -105.834 11.167 -147.501 33.5s-73.667 52.833 -96 91.5s-33.5 82 -33.5 130c0 56.667 13.333 107.334 40 152.001s64.667 79.5 114 104.5s106.666 37.5 171.999 37.5c51.333 0 98.666 -10.833 141.999 -32.5
s78.666 -51.834 105.999 -90.501v105h572zM259.006 215.999c-19.333 -19.333 -29 -44 -29 -74s9.66699 -54.667 29 -74s44 -29 74 -29s54.833 9.66699 74.5 29s29.5 44 29.5 74s-9.83301 54.667 -29.5 74s-44.5 29 -74.5 29s-54.667 -9.66699 -74 -29z" />
    <glyph glyph-name="tm_Llla" unicode="&#xbb4;" horiz-adv-x="829" 
d="M448 0v-38.001c0 -27.333 5.16699 -47 15.5 -59s26.166 -18 47.499 -18h163l7 -56h-174c-14.667 -39.333 -40.5 -71 -77.5 -95s-78.5 -36 -124.5 -36c-56 0 -101.167 15.333 -135.5 46s-51.5 70.667 -51.5 120h71c0 -30.667 10.667 -55.667 32 -75s49.333 -29 84 -29
c30 0 56.667 7 80 21s41 34.333 53 61c-41.333 18.667 -62 57.334 -62 116.001v42h-283v513l70 5v-461h213v277c0 64 16.167 112.833 48.5 146.5s75.5 50.5 129.5 50.5c46.667 0 86.834 -12.833 120.501 -38.5s59.167 -61 76.5 -106s26 -96.833 26 -155.5
c0 -70 -17.833 -126 -53.5 -168s-88.167 -63 -157.5 -63h-118zM448 56.999l117.999 0.000976562c46.667 0 81 15.667 103 47s33 73.666 33 126.999c0 71.333 -12.667 128.833 -38 172.5s-61.333 65.5 -108 65.5c-33.333 0 -59.666 -11 -78.999 -33s-29 -55.333 -29 -100
v-279z" />
    <glyph glyph-name="tm_Va" unicode="&#xbb5;" horiz-adv-x="1033" 
d="M940 513v-513h-388l1 57c21.333 26 38.166 55.833 50.499 89.5s18.5 69.834 18.5 108.501c0 41.333 -9.83301 78.166 -29.5 110.499s-47.667 57.666 -84 75.999s-78.166 27.5 -125.499 27.5c-52 0 -97.333 -9.83301 -136 -29.5s-68.167 -47 -88.5 -82
s-30.5 -75.167 -30.5 -120.5c0 -58.667 16.667 -105.667 50 -141c-5.33301 16 -8 31.333 -8 46c0 30.667 7 58.167 21 82.5s33.5 43.333 58.5 57s52.833 20.5 83.5 20.5c32.667 0 62.167 -6.83301 88.5 -20.5s46.833 -32.667 61.5 -57s22 -51.833 22 -82.5
c0 -30 -7.5 -57.167 -22.5 -81.5s-35.833 -43.5 -62.5 -57.5s-56.667 -21 -90 -21c-56.667 0 -105.834 11.167 -147.501 33.5s-73.667 52.833 -96 91.5s-33.5 82 -33.5 130c0 56.667 13.5 107.334 40.5 152.001s65.333 79.5 115 104.5s107.834 37.5 174.501 37.5
c60.667 0 115 -11.833 163 -35.5s85.333 -56.5 112 -98.5s40 -89.333 40 -142c0 -36.667 -5.5 -72 -16.5 -106s-26.167 -64.667 -45.5 -92h233v456h71zM259 216c-19.333 -19.333 -29 -44 -29 -74s9.66699 -54.667 29 -74s44 -29 74 -29s54.833 9.66699 74.5 29
s29.5 44 29.5 74s-9.83301 54.667 -29.5 74s-44.5 29 -74.5 29s-54.667 -9.66699 -74 -29z" />
    <glyph glyph-name="tm_Sha" unicode="&#xbb6;" horiz-adv-x="1049" 
d="M942.5 450c35.667 -42 53.5 -98 53.5 -168c0 -58.667 -8.66699 -110.5 -26 -155.5s-42.833 -80.333 -76.5 -106s-73.834 -38.5 -120.501 -38.5c-54 0 -97 16.833 -129 50.5s-48 82.5 -48 146.5v278h-146v-268c0 -68 -16.667 -119.5 -50 -154.5s-78 -52.5 -134 -52.5
c-55.333 0 -99.666 17.5 -132.999 52.5s-50 86.5 -50 154.5v324l70 5v-329c0 -50 10 -86.667 30 -110s47.667 -35 83 -35s63 11.667 83 35s30 60 30 110v324h406c69.333 0 121.833 -21 157.5 -63zM883 109.5c25.333 43.667 38.001 101.167 38.001 172.5
c0 54 -11 96.667 -33 128s-56.333 47 -103 47h-118v-279c0 -44.667 9.66699 -78.167 29 -100.5s45.666 -33.5 78.999 -33.5c46.667 0 82.667 21.833 108 65.5z" />
    <glyph glyph-name="tm_Ssa" unicode="&#xbb7;" horiz-adv-x="1371" 
d="M1286 0h-205.999v-243h-71v243h-457l1 57c21.333 26 38.166 55.833 50.499 89.5s18.5 69.834 18.5 108.501c0 41.333 -10 78.166 -30 110.499s-48.167 57.666 -84.5 75.999s-77.833 27.5 -124.5 27.5c-52 0 -97.333 -9.83301 -136 -29.5s-68.167 -47 -88.5 -82
s-30.5 -75.167 -30.5 -120.5c0 -58.667 16.667 -105.667 50 -141c-5.33301 16 -8 31.333 -8 46c0 30.667 7 58.167 21 82.5s33.5 43.333 58.5 57s52.833 20.5 83.5 20.5c32.667 0 62.167 -6.83301 88.5 -20.5s46.833 -32.667 61.5 -57s22 -51.833 22 -82.5
c0 -30 -7.5 -57.167 -22.5 -81.5s-35.833 -43.5 -62.5 -57.5s-56.667 -21 -90 -21c-56.667 0 -105.834 11.167 -147.501 33.5s-73.667 52.833 -96 91.5s-33.5 82 -33.5 130c0 56.667 13.5 107.334 40.5 152.001s65.333 79.5 115 104.5s107.834 37.5 174.501 37.5
c60.667 0 115 -11.833 163 -35.5s85.333 -56.5 112 -98.5s40 -89.333 40 -142c0 -36 -5.5 -71.167 -16.5 -105.5s-25.833 -65.166 -44.5 -92.499h372v148c-20 -4 -41 -6 -63 -6c-39.333 0 -74.333 7.33301 -105 22s-54.667 35 -72 61s-26 55 -26 87c0 48 15.5 87 46.5 117
s72.167 45 123.5 45s92 -14.833 122 -44.5s45 -68.834 45 -117.501v-67c51.333 33.333 96.333 85 135 155h71v-457zM1009 270l0.000976562 93.999c0 32 -8.33301 57.5 -25 76.5s-40.334 28.5 -71.001 28.5c-30 0 -53.333 -9.16699 -70 -27.5s-25 -42.5 -25 -72.5
c0 -31.333 11.667 -57.166 35 -77.499s54.333 -30.5 93 -30.5c22 0 43 3 63 9zM1215 56.999v280c-37.333 -50 -82.333 -86.667 -135 -110v-170h135zM259.002 215.999c-19.333 -19.333 -29 -44 -29 -74s9.66699 -54.667 29 -74s44 -29 74 -29s54.833 9.66699 74.5 29
s29.5 44 29.5 74s-9.83301 54.667 -29.5 74s-44.5 29 -74.5 29s-54.667 -9.66699 -74 -29z" />
    <glyph glyph-name="tm_Sa" unicode="&#xbb8;" horiz-adv-x="1311" 
d="M1237.5 378c14.333 -53.333 21.5 -101.325 21.5 -143.992c0 -78.667 -16.333 -140.334 -49 -185.001s-81 -67 -145 -67c-62 0 -108.833 19.667 -140.5 59s-47.5 95.666 -47.5 168.999v122c0 90.667 -32 136 -96 136c-38.667 0 -68.834 -19.5 -90.501 -58.5
s-32.5 -89.833 -32.5 -152.5v-257h-71v257c0 66.667 -19.667 118.667 -59 156s-93.666 56 -162.999 56c-48 0 -89.833 -9.83301 -125.5 -29.5s-63.167 -46.834 -82.5 -81.501s-29 -74.334 -29 -119.001c0 -59.333 17 -107 51 -143c-5.33301 16 -8 31.333 -8 46
c0 30 7 57.167 21 81.5s33.333 43.333 58 57s52.334 20.5 83.001 20.5c32.667 0 62.167 -6.83301 88.5 -20.5s46.833 -32.667 61.5 -57s22 -51.5 22 -81.5s-7.5 -57.167 -22.5 -81.5s-35.833 -43.5 -62.5 -57.5s-56.667 -21 -90 -21c-56.667 0 -105.834 11.333 -147.501 34
s-73.667 53.5 -96 92.5s-33.5 82.5 -33.5 130.5c0 55.333 12.833 105.166 38.5 149.499s62 79.166 109 104.499s101.833 38 164.5 38c59.333 0 111 -11 155 -33s77.667 -53.333 101 -94c14 40 34.5 71.167 61.5 93.5s59.833 33.5 98.5 33.5c54 0 95.333 -18 124 -54
s43 -84 43 -144v-123c0 -54.667 9.5 -95.834 28.5 -123.501s48.833 -41.5 89.5 -41.5c78.667 0 118 62.667 118 188c0 42.667 -7 90.667 -21 144s-34.333 98.666 -61 135.999l72 14c28 -46 49.167 -95.667 63.5 -149zM259 216.008c-19.333 -19.333 -29 -44 -29 -74
s9.66699 -54.667 29 -74s44 -29 74 -29s54.833 9.66699 74.5 29s29.5 44 29.5 74s-9.83301 54.667 -29.5 74s-44.5 29 -74.5 29s-54.667 -9.66699 -74 -29z" />
    <glyph glyph-name="tm_Ha" unicode="&#xbb9;" horiz-adv-x="1579" 
d="M1469.5 448.5c38.333 -55 57.5029 -127.502 57.5029 -217.502c0 -78.667 -13 -148.167 -39 -208.5s-64 -107.5 -114 -141.5s-110.333 -51 -181 -51h-921c-76 0 -130 -24.333 -162 -73l-57 31c16 29.333 42.333 53 79 71s81 27 133 27h928c84 0 148.167 31.5 192.5 94.5
s66.5 146.5 66.5 250.5c0 72 -11.833 129.5 -35.5 172.5s-59.834 64.5 -108.501 64.5c-34 0 -61 -10.833 -81 -32.5s-30 -54.834 -30 -99.501v-336h-71v313c0 46.667 -9.66699 84.334 -29 113.001s-47.666 43 -84.999 43c-34.667 0 -60.5 -11.833 -77.5 -35.5
s-25.5 -60.167 -25.5 -109.5v-324h-357l1 57c21.333 26 38.166 55.833 50.499 89.5s18.5 69.834 18.5 108.501c0 41.333 -10 78.166 -30 110.499s-48.167 57.666 -84.5 75.999s-77.833 27.5 -124.5 27.5c-52 0 -97.333 -9.83301 -136 -29.5s-68.167 -47 -88.5 -82
s-30.5 -75.167 -30.5 -120.5c0 -58.667 16.667 -105.667 50 -141c-5.33301 16 -8 31.333 -8 46c0 30.667 7 58.167 21 82.5s33.5 43.333 58.5 57s52.833 20.5 83.5 20.5c32.667 0 62.167 -6.83301 88.5 -20.5s46.833 -32.667 61.5 -57s22 -51.833 22 -82.5
c0 -30 -7.5 -57.167 -22.5 -81.5s-35.833 -43.5 -62.5 -57.5s-56.667 -21 -90 -21c-56.667 0 -105.834 11.167 -147.501 33.5s-73.667 52.833 -96 91.5s-33.5 82 -33.5 130c0 56.667 13.5 107.334 40.5 152.001s65.333 79.5 115 104.5s107.834 37.5 174.501 37.5
c60.667 0 115 -11.833 163 -35.5s85.333 -56.5 112 -98.5s40 -89.333 40 -142c0 -36 -5.5 -71.167 -16.5 -105.5s-26.167 -65.166 -45.5 -92.499h202v267c0 66.667 14.833 117.834 44.5 153.501s72.834 53.5 129.501 53.5c31.333 0 59.166 -7.33301 83.499 -22
s44.166 -35.334 59.499 -62.001c14.667 26.667 35.167 47.334 61.5 62.001s56.166 22 89.499 22c70.667 0 125.167 -27.5 163.5 -82.5zM259.003 215.998c-19.333 -19.333 -29 -44 -29 -74s9.66699 -54.667 29 -74s44 -29 74 -29s54.833 9.66699 74.5 29s29.5 44 29.5 74
s-9.83301 54.667 -29.5 74s-44.5 29 -74.5 29s-54.667 -9.66699 -74 -29z" />
    <glyph glyph-name="tm_VowelAa" unicode="&#xbbe;" horiz-adv-x="663" 
d="M465 457v-457h-72v457h-230v-457h-70v513h552l8 -56h-188z" />
    <glyph glyph-name="tm_VowelI" unicode="&#xbbf;" horiz-adv-x="256" 
d="M19.5 759.5c45.667 -25 80.999 -59.8291 105.999 -104.496s37.5 -95.334 37.5 -152.001v-503h-70v503c0 45.333 -9.5 85.666 -28.5 120.999s-46 62.833 -81 82.5s-76.167 29.5 -123.5 29.5c-50 0 -89 -10.333 -117 -31s-42 -48 -42 -82s9.66699 -60.833 29 -80.5
s49 -29.5 89 -29.5h44v-49h-44c-60.667 0 -107.667 14.667 -141 44s-50.333 67.666 -51 114.999c0 33.333 9.5 63.166 28.5 89.499s46.167 47 81.5 62s76.333 22.5 123 22.5c60.667 0 113.834 -12.5 159.501 -37.5z" />
    <glyph glyph-name="tm_VowelIi" unicode="&#xbc0;" horiz-adv-x="0" 
d="M-47 852c33.333 -17.333 59.833 -40.498 79.5 -69.498s29.5 -59.5 29.5 -91.5c0 -32.667 -10.333 -59.5 -31 -80.5s-46.667 -31.5 -78 -31.5c-32 0 -58.333 9.66699 -79 29s-31 43.666 -31 72.999s10 53.333 30 72s45.667 28 77 28h6c-30 23.333 -67 35 -111 35
c-46 0 -83.833 -14.167 -113.5 -42.5s-44.5 -64.166 -44.5 -107.499c0 -44.667 12 -81.334 36 -110.001s55.333 -43 94 -43v-53c-39.333 0 -74.5 8.83301 -105.5 26.5s-55.333 42.167 -73 73.5s-26.5 66.666 -26.5 105.999c0 40.667 10 77 30 109s47.667 57.167 83 75.5
s75.333 27.5 120 27.5c38.667 0 74.667 -8.66699 108 -26zM-12 645.002c9.33301 9.33301 14 21 14 35s-4.66699 25.5 -14 34.5s-21 13.5 -35 13.5s-25.667 -4.5 -35 -13.5s-14 -20.5 -14 -34.5s4.66699 -25.667 14 -35s21 -14 35 -14s25.667 4.66699 35 14z" />
    <glyph glyph-name="tm_VowelU" unicode="&#xbc1;" horiz-adv-x="471" 
d="M353.5 492.5c27 -13.667 48 -32.667 63 -57s22.5 -51.5 22.5 -81.5c0 -30.667 -7.5 -58.167 -22.5 -82.5s-35.667 -43.333 -62 -57s-55.833 -20.5 -88.5 -20.5s-62.167 6.83301 -88.5 20.5s-46.833 32.5 -61.5 56.5s-22 51.333 -22 82c0 41.333 13.333 76 40 104h-298v56
h427c33.333 0 63.5 -6.83301 90.5 -20.5zM338.5 279.5c19 19.667 28.5 44.5 28.5 74.5s-9.5 54.667 -28.5 74s-43.167 29 -72.5 29c-30.667 0 -55.667 -9.66699 -75 -29s-29 -44 -29 -74s9.66699 -54.833 29 -74.5s44.333 -29.5 75 -29.5c29.333 0 53.5 9.83301 72.5 29.5z
" />
    <glyph glyph-name="tm_VowelUu" unicode="&#xbc2;" horiz-adv-x="666" 
d="M504 578.5c40 -22.333 71.499 -53.333 94.499 -93s34.5 -84.167 34.5 -133.5c0 -51.333 -13 -97.666 -39 -138.999s-62.167 -73.666 -108.5 -96.999s-98.5 -35 -156.5 -35h-58v56h58c44 0 83.333 9.16699 118 27.5s61.834 43.833 81.501 76.5s29.5 69.667 29.5 111
c0 38 -8.16699 72.167 -24.5 102.5s-39 54.166 -68 71.499s-61.167 26 -96.5 26c-52.667 0 -96.667 -13 -132 -39h26c33.333 0 63.5 -6.83301 90.5 -20.5s48 -32.667 63 -57s22.5 -51.5 22.5 -81.5c0 -46 -15.833 -83.667 -47.5 -113s-72.167 -44 -121.5 -44
c-32.667 0 -62 7.16699 -88 21.5s-46.333 34.333 -61 60s-22 54.167 -22 85.5c0 33.333 5.66699 64.333 17 93h-280v56h312c24 31.333 55 55.666 93 72.999s80.667 26 128 26c50 0 95 -11.167 135 -33.5zM337.999 428.5c-19.333 19 -45.334 28.5 -78.001 28.5h-73
c-14.667 -28 -22 -58.667 -22 -92c0 -32.667 9.83301 -59.5 29.5 -80.5s44.834 -31.5 75.501 -31.5c28.667 0 52 9.33301 70 28s27 43 27 73c0 30.667 -9.66699 55.5 -29 74.5z" />
    <glyph glyph-name="tm_VowelE" unicode="&#xbc6;" horiz-adv-x="787" 
d="M549 635.5c46.667 -26.333 82.5 -64.332 107.5 -113.999s37.5 -108.5 37.5 -176.5v-345h-71v345c0 84.667 -21 150.5 -63 197.5s-101 70.5 -177 70.5c-52 0 -97.167 -12.5 -135.5 -37.5s-67.833 -59.833 -88.5 -104.5s-31 -95.667 -31 -153
c0 -72.667 14 -133.334 42 -182.001v6c0 30.667 7 58.167 21 82.5s33.5 43.333 58.5 57s52.833 20.5 83.5 20.5c32.667 0 62.167 -6.83301 88.5 -20.5s46.833 -32.667 61.5 -57s22 -51.833 22 -82.5c0 -30 -7.5 -57.167 -22.5 -81.5s-35.833 -43.5 -62.5 -57.5
s-56.667 -21 -90 -21c-53.333 0 -101 14.333 -143 43s-74.833 68.5 -98.5 119.5s-35.5 108.833 -35.5 173.5c0 68.667 13.5 130 40.5 184s65.5 96.333 115.5 127s108 46 174 46c64 0 119.333 -13.167 166 -39.5zM259 216.001c-19.333 -19.333 -29 -44 -29 -74
s9.66699 -54.667 29 -74s44 -29 74 -29s54.833 9.66699 74.5 29s29.5 44 29.5 74s-9.83301 54.667 -29.5 74s-44.5 29 -74.5 29s-54.667 -9.66699 -74 -29z" />
    <glyph glyph-name="tm_VowelEe" unicode="&#xbc7;" horiz-adv-x="672" 
d="M577 240c28 -26 41.999 -59.334 41.999 -100.001c0 -30 -8.83301 -57 -26.5 -81s-43.334 -42.833 -77.001 -56.5s-73.5 -20.5 -119.5 -20.5c-70 0 -130.833 15 -182.5 45s-91.334 71.167 -119.001 123.5s-41.5 111.833 -41.5 178.5c0 66 13.833 125.333 41.5 178
s67.334 93.834 119.001 123.501s112.5 44.5 182.5 44.5c46 0 85.833 -6.66699 119.5 -20s59.334 -32 77.001 -56s26.5 -51 26.5 -81c0 -40.667 -14 -74.167 -42 -100.5s-63.667 -39.5 -107 -39.5c-41.333 0 -75.666 13.167 -102.999 39.5s-41 59.833 -41 100.5
c0 20 4.33301 38.5 13 55.5s21 31.5 37 43.5c-50 -2 -93.667 -15.667 -131 -41s-66.166 -59.5 -86.499 -102.5s-30.5 -91.167 -30.5 -144.5s10.167 -101.5 30.5 -144.5s49.5 -77.333 87.5 -103s82 -39.5 132 -41.5c-16.667 12 -29.5 26.5 -38.5 43.5
s-13.5 35.833 -13.5 56.5c0 40.667 13.667 74 41 100s61.666 39 102.999 39c43.333 0 79 -13 107 -39zM530.499 460.999c15 15.333 22.5 34.333 22.5 57c0 23.333 -7.5 42.5 -22.5 57.5s-34.167 22.5 -57.5 22.5s-42.666 -7.5 -57.999 -22.5s-23 -34.167 -23 -57.5
s7.66699 -42.5 23 -57.5s34.666 -22.5 57.999 -22.5s42.5 7.66699 57.5 23zM414.999 197.499c-15.333 -15 -23 -34.167 -23 -57.5s7.66699 -42.5 23 -57.5s34.666 -22.5 57.999 -22.5s42.5 7.66699 57.5 23s22.5 34.333 22.5 57c0 23.333 -7.5 42.5 -22.5 57.5
s-34.167 22.5 -57.5 22.5s-42.666 -7.5 -57.999 -22.5z" />
    <glyph glyph-name="tm_VowelAi" unicode="&#xbc8;" horiz-adv-x="1221" 
d="M1047.5 498c39.667 -22 69.667 -52.665 90 -91.998s30.5 -84.666 30.5 -135.999c0 -42 -7 -88.167 -21 -138.5s-35.333 -98.833 -64 -145.5l-71 14c26.667 38 47 82.167 61 132.5s21 96.5 21 138.5c0 59.333 -16.167 107.166 -48.5 143.499s-79.5 54.5 -141.5 54.5
c-51.333 0 -97.333 -13 -138 -39c40 -32.667 71 -71 93 -115s33 -91 33 -141c0 -57.333 -14.667 -103.666 -44 -138.999s-69.333 -53 -120 -53s-90.667 17.667 -120 53s-44 81.666 -44 138.999c0 48 8.5 93.333 25.5 136s40.5 80 70.5 112c-58.667 31.333 -127 47 -205 47
c-65.333 0 -122.666 -10.333 -171.999 -31s-87.5 -49.334 -114.5 -86.001s-40.5 -78 -40.5 -124c0 -57.333 17.333 -103 52 -137c-6.66699 15.333 -10 32.333 -10 51c0 30.667 7 58.167 21 82.5s33.5 43.333 58.5 57s52.833 20.5 83.5 20.5
c32.667 0 62.167 -6.83301 88.5 -20.5s46.833 -32.667 61.5 -57s22 -51.833 22 -82.5c0 -30 -7.5 -57.167 -22.5 -81.5s-35.833 -43.5 -62.5 -57.5s-56.667 -21 -90 -21c-56.667 0 -105.834 10.667 -147.501 32s-73.667 50.666 -96 87.999s-33.5 79.333 -33.5 126
c0 58 16.667 110 50 156s80.5 82 141.5 108s131.167 39 210.5 39c98 0 183.333 -21.333 256 -64c28 20.667 58.5 36.5 91.5 47.5s66.833 16.5 101.5 16.5c56 0 103.833 -11 143.5 -33zM790.5 292.502c-17.667 36.333 -42.833 67.833 -75.5 94.5
c-24 -26.667 -42.667 -58.167 -56 -94.5s-20 -75.833 -20 -118.5c0 -38.667 7.83301 -70 23.5 -94s37.5 -36 65.5 -36c28.667 0 50.667 12 66 36s23 55.333 23 94c0 42.667 -8.83301 82.167 -26.5 118.5zM259.001 68.002c19.333 -19.333 44 -29 74 -29
s54.833 9.66699 74.5 29s29.5 44 29.5 74s-9.83301 54.667 -29.5 74s-44.5 29 -74.5 29s-54.667 -9.66699 -74 -29s-29 -44 -29 -74s9.66699 -54.667 29 -74z" />
    <glyph glyph-name="tm_VowelO" unicode="&#xbca;" horiz-adv-x="1937" 
d="M549 635.5c46.667 -26.333 82.5 -64.332 107.5 -113.999s37.5 -108.5 37.5 -176.5v-345h-71v345c0 84.667 -21 150.5 -63 197.5s-101 70.5 -177 70.5c-52 0 -97.167 -12.5 -135.5 -37.5s-67.833 -59.833 -88.5 -104.5s-31 -95.667 -31 -153
c0 -72.667 14 -133.334 42 -182.001v6c0 30.667 7 58.167 21 82.5s33.5 43.333 58.5 57s52.833 20.5 83.5 20.5c32.667 0 62.167 -6.83301 88.5 -20.5s46.833 -32.667 61.5 -57s22 -51.833 22 -82.5c0 -30 -7.5 -57.167 -22.5 -81.5s-35.833 -43.5 -62.5 -57.5
s-56.667 -21 -90 -21c-53.333 0 -101 14.333 -143 43s-74.833 68.5 -98.5 119.5s-35.5 108.833 -35.5 173.5c0 68.667 13.5 130 40.5 184s65.5 96.333 115.5 127s108 46 174 46c64 0 119.333 -13.167 166 -39.5zM259 216.001c-19.333 -19.333 -29 -44 -29 -74
s9.66699 -54.667 29 -74s44 -29 74 -29s54.833 9.66699 74.5 29s29.5 44 29.5 74s-9.83301 54.667 -29.5 74s-44.5 29 -74.5 29s-54.667 -9.66699 -74 -29zM1724 457.001v-457h-72v457h-230v-457h-70v513h552l8 -56h-188zM1041 467.001c5.33301 5.33301 8 12.333 8 21
s-2.66699 15.834 -8 21.501s-12.333 8.5 -21 8.5s-15.667 -2.83301 -21 -8.5s-8 -12.834 -8 -21.501s2.66699 -15.667 8 -21s12.333 -8 21 -8s15.667 2.66699 21 8zM910 494.001c-5.33301 -5.33301 -8 -12.333 -8 -21s2.66699 -15.667 8 -21s12.333 -8 21 -8
s15.667 2.66699 21 8s8 12.333 8 21s-2.66699 15.667 -8 21s-12.333 8 -21 8s-15.667 -2.66699 -21 -8zM1131 452.001c5.33301 5.33301 8 12.333 8 21s-2.66699 15.667 -8 21s-12.333 8 -21 8s-15.667 -2.66699 -21 -8s-8 -12.333 -8 -21s2.66699 -15.667 8 -21
s12.333 -8 21 -8s15.667 2.66699 21 8zM833.5 443.501c-5.66699 -5.66699 -8.5 -12.834 -8.5 -21.501s2.83301 -15.667 8.5 -21s12.834 -8 21.501 -8s15.667 2.66699 21 8s8 12.333 8 21s-2.66699 15.834 -8 21.501s-12.333 8.5 -21 8.5s-15.834 -2.83301 -21.501 -8.5z
M1207.5 401.001c5.66699 5.33301 8.5 12.333 8.5 21s-2.83301 15.834 -8.5 21.501s-12.834 8.5 -21.501 8.5s-15.667 -2.83301 -21 -8.5s-8 -12.834 -8 -21.501s2.66699 -15.667 8 -21s12.333 -8 21 -8s15.834 2.66699 21.501 8zM785.5 364.501
c-5.66699 -5.66699 -8.5 -12.834 -8.5 -21.501s2.83301 -15.667 8.5 -21s12.834 -8 21.501 -8s15.667 2.66699 21 8s8 12.333 8 21s-2.66699 15.834 -8 21.501s-12.333 8.5 -21 8.5s-15.834 -2.83301 -21.501 -8.5zM1255 322.001c5.33301 5.33301 8 12.333 8 21
s-2.66699 15.834 -8 21.501s-12.333 8.5 -21 8.5s-15.667 -2.83301 -21 -8.5s-8 -12.834 -8 -21.501s2.66699 -15.667 8 -21s12.333 -8 21 -8s15.667 2.66699 21 8zM771.5 278.501c-5.66699 -5.66699 -8.5 -12.834 -8.5 -21.501s2.83301 -15.5 8.5 -20.5
s12.834 -7.5 21.501 -7.5s15.667 2.5 21 7.5s8 11.833 8 20.5s-2.66699 15.834 -8 21.501s-12.333 8.5 -21 8.5s-15.834 -2.83301 -21.501 -8.5zM1269.5 236.501c5.66699 5 8.5 11.833 8.5 20.5s-2.83301 15.834 -8.5 21.501s-12.834 8.5 -21.501 8.5
s-15.667 -2.83301 -21 -8.5s-8 -12.834 -8 -21.501s2.66699 -15.5 8 -20.5s12.333 -7.5 21 -7.5s15.834 2.5 21.501 7.5zM785.5 195.001c-5.66699 -5.33301 -8.5 -12.333 -8.5 -21s2.83301 -15.667 8.5 -21s12.834 -8 21.501 -8s15.667 2.66699 21 8s8 12.333 8 21
s-2.66699 15.667 -8 21s-12.333 8 -21 8s-15.834 -2.66699 -21.501 -8zM1255 153.001c5.33301 5.33301 8 12.333 8 21s-2.66699 15.667 -8 21s-12.333 8 -21 8s-15.667 -2.66699 -21 -8s-8 -12.333 -8 -21s2.66699 -15.667 8 -21s12.333 -8 21 -8s15.667 2.66699 21 8z
M832.5 115.001c-5.66699 -5.33301 -8.5 -12.333 -8.5 -21s2.83301 -15.667 8.5 -21s12.834 -8 21.501 -8s15.667 2.66699 21 8s8 12.333 8 21s-2.66699 15.667 -8 21s-12.333 8 -21 8s-15.834 -2.66699 -21.501 -8zM1208.5 73.001c5.66699 5.33301 8.5 12.333 8.5 21
s-2.83301 15.667 -8.5 21s-12.834 8 -21.501 8s-15.667 -2.66699 -21 -8s-8 -12.333 -8 -21s2.66699 -15.667 8 -21s12.333 -8 21 -8s15.834 2.66699 21.501 8zM910 65.501c-5.33301 -5.66699 -8 -12.834 -8 -21.501s2.66699 -15.667 8 -21s12.333 -8 21 -8
s15.667 2.66699 21 8s8 12.333 8 21s-2.66699 15.834 -8 21.501s-12.333 8.5 -21 8.5s-15.667 -2.83301 -21 -8.5zM1131 23.001c5.33301 5.33301 8 12.333 8 21s-2.66699 15.834 -8 21.501s-12.333 8.5 -21 8.5s-15.667 -2.83301 -21 -8.5s-8 -12.834 -8 -21.501
s2.66699 -15.667 8 -21s12.333 -8 21 -8s15.667 2.66699 21 8zM1041 8.00098c5.33301 5.33301 8 12.333 8 21s-2.66699 15.834 -8 21.501s-12.333 8.5 -21 8.5s-15.667 -2.83301 -21 -8.5s-8 -12.834 -8 -21.501s2.66699 -15.667 8 -21s12.333 -8 21 -8s15.667 2.66699 21 8
z" />
    </font>
</defs>
</svg>
