<svg xmlns="http://www.w3.org/2000/svg" id="export" class="canvas" preserveAspectRatio="xMidYMid meet" style="" width="912" height="289"><rect id="background" fill="#fff" pointer-events="all" width="912" height="289"/><g id="origin" transform="translate(13.125, 13.125) scale(1)"><g id="clusters" class="clusters"/><g id="edge-paths" class="edge-paths" style="pointer-events: none;"><defs><marker id="arrowhead" viewBox="0 0 10 10" refX="9" refY="5" markerUnits="strokeWidth" markerWidth="8" markerHeight="6" orient="auto" style="fill: rgb(0, 0, 0);"><path d="M 0 0 L 10 5 L 0 10 L 4 5 z" style="stroke-width: 1;"/></marker><marker id="arrowhead-select" viewBox="0 0 10 10" refX="9" refY="5" markerUnits="strokeWidth" markerWidth="8" markerHeight="6" orient="auto" style="fill: rgba(220, 0, 0, 0.9);"><path d="M 0 0 L 10 5 L 0 10 L 4 5 z" style="stroke-width: 1;"/></marker><marker id="arrowhead-hover" viewBox="0 0 10 10" refX="9" refY="5" markerUnits="strokeWidth" markerWidth="8" markerHeight="6" orient="auto" style="fill: rgba(220, 0, 0, 0.9);"><path d="M 0 0 L 10 5 L 0 10 L 4 5 z" style="stroke-width: 1;"/></marker></defs><path id="edge-input" class="edge-path" d="M39.5810546875,133.5L41.247721354166664,133.5C42.914388020833336,133.5,46.247721354166664,133.5,56.997721354166664,133.5C67.74772135416667,133.5,85.91438802083333,133.5,104.0810546875,133.5C122.24772135416667,133.5,140.41438802083334,133.5,151.16438802083334,133.5C161.91438802083334,133.5,165.24772135416666,133.5,166.91438802083334,133.5L168.5810546875,133.5" style="stroke: rgb(0, 0, 0); stroke-width: 1px; fill: none; marker-end: url(&quot;#arrowhead&quot;);"/><path id="edge-input_q" class="edge-path" d="M272.83056640625,133.5L274.4972330729167,133.5C276.1638997395833,133.5,279.4972330729167,133.5,282.83056640625,133.5C286.1638997395833,133.5,289.4972330729167,133.5,291.1638997395833,133.5L292.83056640625,133.5" style="stroke: rgb(0, 0, 0); stroke-width: 1px; fill: none; marker-end: url(&quot;#arrowhead&quot;);"/><path id="edge-0.weight_q" class="edge-path" d="M148.5810546875,220L150.24772135416666,220C151.91438802083334,220,155.24772135416666,220,167.26851399739584,220C179.289306640625,220,199.99755859375,220,220.705810546875,220C241.4140625,220,262.122314453125,220,274.5174153645833,220C286.9125162760417,220,290.9944661458333,220,293.0354410807292,220L295.076416015625,220" style="stroke: rgb(0, 0, 0); stroke-width: 1px; fill: none; marker-end: url(&quot;#arrowhead&quot;);"/><path id="edge-0.bias_qdq" class="edge-path" d="M270.467529296875,42.5L272.5280354817708,42.5C274.5885416666667,42.5,278.7095540364583,42.5,291.1046549479167,42.5C303.499755859375,42.5,324.1689453125,42.5,344.838134765625,42.5C365.50732421875,42.5,386.176513671875,42.5,401.23907843218166,50.208333333333336C416.30164319248826,57.916666666666664,425.75758325997657,73.33333333333333,430.48555329372067,81.04166666666667L435.21352332746477,88.75" style="stroke: rgb(0, 0, 0); stroke-width: 1px; fill: none; marker-end: url(&quot;#arrowhead&quot;);"/><path id="edge-input_qdq" class="edge-path" d="M396.845703125,133.5L398.5123697916667,133.5C400.1790364583333,133.5,403.5123697916667,133.5,406.845703125,133.43111119084352C410.1790364583333,133.36222238168705,413.5123697916667,133.22444476337412,415.1790364583333,133.15555595421765L416.845703125,133.08666714506117" style="stroke: rgb(0, 0, 0); stroke-width: 1px; fill: none; marker-end: url(&quot;#arrowhead&quot;);"/><path id="edge-0.weight_qdq" class="edge-path" d="M394.599853515625,220L396.6408284505208,220C398.6818033854167,220,402.7637532552083,220,409.5326982238483,212.29166666666666C416.30164319248826,204.58333333333334,425.75758325997657,189.16666666666666,430.48555329372067,181.45833333333334L435.21352332746477,173.75" style="stroke: rgb(0, 0, 0); stroke-width: 1px; fill: none; marker-end: url(&quot;#arrowhead&quot;);"/><path id="edge-output__" class="edge-path" d="M505.716796875,131.25L507.3834635416667,131.25C509.0501302083333,131.25,512.3834635416666,131.25,515.716796875,131.25C519.0501302083334,131.25,522.3834635416666,131.25,524.0501302083334,131.25L525.716796875,131.25" style="stroke: rgb(0, 0, 0); stroke-width: 1px; fill: none; marker-end: url(&quot;#arrowhead&quot;);"/><path id="edge-output_q" class="edge-path" d="M629.96630859375,131.25L631.6329752604166,131.25C633.2996419270834,131.25,636.6329752604166,131.25,639.96630859375,131.25C643.2996419270834,131.25,646.6329752604166,131.25,648.2996419270834,131.25L649.96630859375,131.25" style="stroke: rgb(0, 0, 0); stroke-width: 1px; fill: none; marker-end: url(&quot;#arrowhead&quot;);"/><path id="edge-output" class="edge-path" d="M753.9814453125,131.25L761.0028483072916,131.25C768.0242513020834,131.25,782.0670572916666,131.25,796.10986328125,131.25C810.1526692708334,131.25,824.1954752604166,131.25,831.2168782552084,131.25L838.23828125,131.25" style="stroke: rgb(0, 0, 0); stroke-width: 1px; fill: none; marker-end: url(&quot;#arrowhead&quot;);"/></g><g id="edge-labels" class="edge-labels"><text class="edge-label" id="edge-label-edge-input" transform="translate(71.95263671875,143.5)" style="opacity: 1; font-family: -apple-system, BlinkMacSystemFont, &quot;Segoe WPC&quot;, &quot;Segoe UI&quot;, Ubuntu, &quot;Droid Sans&quot;, sans-serif, &quot;PingFang SC&quot;; font-size: 10px;"><tspan xml:space="preserve" dy="1em" x="1">1×3×224×224</tspan></text><text class="edge-label" id="edge-label-edge-output" transform="translate(763.9814453125,141.25)" style="opacity: 1; font-family: -apple-system, BlinkMacSystemFont, &quot;Segoe WPC&quot;, &quot;Segoe UI&quot;, Ubuntu, &quot;Droid Sans&quot;, sans-serif, &quot;PingFang SC&quot;; font-size: 10px;"><tspan xml:space="preserve" dy="1em" x="1">1×3×222×222</tspan></text></g><g id="nodes" class="nodes"><g id="input-name-input" class="node graph-input" transform="translate(0,122)" style=""><g class="node-item graph-item-input" transform="translate(0,0)"><path d="M5,0h29.5810546875a5,5 0 0 1 5,5v13a5,5 0 0 1 -5,5h-29.5810546875a5,5 0 0 1 -5,-5v-13a5,5 0 0 1 5,-5z" style="stroke: rgb(0, 0, 0); fill: rgb(238, 238, 238); stroke-width: 0;"/><text x="6" y="16" style="font-family: -apple-system, BlinkMacSystemFont, &quot;Segoe WPC&quot;, &quot;Segoe UI&quot;, Ubuntu, &quot;Droid Sans&quot;, sans-serif, &quot;PingFang SC&quot;; font-size: 11px; text-rendering: geometricprecision; user-select: none;">input</text><title>float32[1,3,224,224]</title></g><path class="node node-border" d="M5,0h29.5810546875a5,5 0 0 1 5,5v13a5,5 0 0 1 -5,5h-29.5810546875a5,5 0 0 1 -5,-5v-13a5,5 0 0 1 5,-5z" style="stroke: rgb(51, 51, 51); fill: none; stroke-width: 1px;"/></g><g id="node-name-input_q" class="node graph-node" transform="translate(168.5810546875,105)" style=""><g class="node-item node-item-type" transform="translate(0,0)"><path d="M5,0h94.24951171875a5,5 0 0 1 5,5v18a0,0 0 0 1 0,0h-104.24951171875a0,0 0 0 1 0,0v-18a5,5 0 0 1 5,-5z" style="stroke: rgb(0, 0, 0); fill: rgb(0, 0, 0); stroke-width: 0;"/><text x="6" y="16" style="font-family: -apple-system, BlinkMacSystemFont, &quot;Segoe WPC&quot;, &quot;Segoe UI&quot;, Ubuntu, &quot;Droid Sans&quot;, sans-serif, &quot;PingFang SC&quot;; font-size: 11px; text-rendering: geometricprecision; user-select: none; fill: rgb(255, 255, 255);">QuantizeLinear</text><title>input_q</title></g><g class="node-argument-list" transform="translate(0,23)"><path d="M0,0h104.24951171875a0,0 0 0 1 0,0v29a5,5 0 0 1 -5,5h-94.24951171875a5,5 0 0 1 -5,-5v-29a0,0 0 0 1 0,0z" style="stroke: rgb(0, 0, 0); fill: rgb(255, 255, 255); stroke-width: 0;"/><g class="node-argument"><rect rx="3" ry="3" x="3" y="3" width="98.24951171875" height="14" style="fill: transparent;"/><text xml:space="preserve" x="6" y="14" style="font-family: -apple-system, BlinkMacSystemFont, &quot;Segoe WPC&quot;, &quot;Segoe UI&quot;, Ubuntu, &quot;Droid Sans&quot;, sans-serif, &quot;PingFang SC&quot;; font-size: 9px; font-weight: normal; text-rendering: geometricprecision; user-select: none;"><title>float32</title><tspan>y_scale</tspan><tspan> = 0.03488467…</tspan></text></g><g class="node-argument"><rect rx="3" ry="3" x="3" y="17" width="98.24951171875" height="14" style="fill: transparent;"/><text xml:space="preserve" x="6" y="28" style="font-family: -apple-system, BlinkMacSystemFont, &quot;Segoe WPC&quot;, &quot;Segoe UI&quot;, Ubuntu, &quot;Droid Sans&quot;, sans-serif, &quot;PingFang SC&quot;; font-size: 9px; font-weight: normal; text-rendering: geometricprecision; user-select: none;"><title>uint8</title><tspan>y_zero_point</tspan><tspan> = 125</tspan></text></g><line class="node" x1="0" x2="104.24951171875" y1="0" y2="0" style="stroke: rgb(51, 51, 51); fill: none; stroke-width: 1px;"/></g><path class="node node-border" d="M5,0h94.24951171875a5,5 0 0 1 5,5v47a5,5 0 0 1 -5,5h-94.24951171875a5,5 0 0 1 -5,-5v-47a5,5 0 0 1 5,-5z" style="stroke: rgb(51, 51, 51); fill: none; stroke-width: 1px;"/></g><g id="node-name-0.weight_q" class="node graph-node" transform="translate(59.5810546875,177.5)" style=""><g class="node-item node-item-type" transform="translate(0,0)"><path d="M5,0h79a5,5 0 0 1 5,5v18a0,0 0 0 1 0,0h-89a0,0 0 0 1 0,0v-18a5,5 0 0 1 5,-5z" style="stroke: rgb(0, 0, 0); fill: rgb(0, 0, 0); stroke-width: 0;"/><text x="6" y="16" style="font-family: -apple-system, BlinkMacSystemFont, &quot;Segoe WPC&quot;, &quot;Segoe UI&quot;, Ubuntu, &quot;Droid Sans&quot;, sans-serif, &quot;PingFang SC&quot;; font-size: 11px; text-rendering: geometricprecision; user-select: none; fill: rgb(255, 255, 255);">QuantizeLinear</text><title>0.weight_q</title></g><g class="node-argument-list" transform="translate(0,23)"><path d="M0,0h89a0,0 0 0 1 0,0v57a5,5 0 0 1 -5,5h-79a5,5 0 0 1 -5,-5v-57a0,0 0 0 1 0,0z" style="stroke: rgb(0, 0, 0); fill: rgb(255, 255, 255); stroke-width: 0;"/><g class="node-argument"><rect rx="3" ry="3" x="3" y="3" width="83" height="14" style="fill: transparent;"/><text xml:space="preserve" x="6" y="14" style="font-family: -apple-system, BlinkMacSystemFont, &quot;Segoe WPC&quot;, &quot;Segoe UI&quot;, Ubuntu, &quot;Droid Sans&quot;, sans-serif, &quot;PingFang SC&quot;; font-size: 9px; font-weight: normal; text-rendering: geometricprecision; user-select: none;"><title>float32[3,3,3,3]</title><tspan style="font-weight: bold;">x</tspan><tspan>〈3×3×3×3〉</tspan></text></g><g class="node-argument"><rect rx="3" ry="3" x="3" y="17" width="83" height="14" style="fill: transparent;"/><text xml:space="preserve" x="6" y="28" style="font-family: -apple-system, BlinkMacSystemFont, &quot;Segoe WPC&quot;, &quot;Segoe UI&quot;, Ubuntu, &quot;Droid Sans&quot;, sans-serif, &quot;PingFang SC&quot;; font-size: 9px; font-weight: normal; text-rendering: geometricprecision; user-select: none;"><title>float32[3]</title><tspan style="font-weight: bold;">y_scale</tspan><tspan>〈3〉</tspan></text></g><g class="node-argument"><rect rx="3" ry="3" x="3" y="31" width="83" height="14" style="fill: transparent;"/><text xml:space="preserve" x="6" y="42" style="font-family: -apple-system, BlinkMacSystemFont, &quot;Segoe WPC&quot;, &quot;Segoe UI&quot;, Ubuntu, &quot;Droid Sans&quot;, sans-serif, &quot;PingFang SC&quot;; font-size: 9px; font-weight: normal; text-rendering: geometricprecision; user-select: none;"><title>int8[3]</title><tspan style="font-weight: bold;">y_zero_point</tspan><tspan>〈3〉</tspan></text></g><g class="node-argument"><rect rx="3" ry="3" x="3" y="45" width="83" height="14" style="fill: transparent;"/><text xml:space="preserve" x="6" y="56" style="font-family: -apple-system, BlinkMacSystemFont, &quot;Segoe WPC&quot;, &quot;Segoe UI&quot;, Ubuntu, &quot;Droid Sans&quot;, sans-serif, &quot;PingFang SC&quot;; font-size: 9px; font-weight: normal; text-rendering: geometricprecision; user-select: none;"><title>int64</title><tspan>axis</tspan><tspan> = 0</tspan></text></g><line class="node" x1="0" x2="89" y1="0" y2="0" style="stroke: rgb(51, 51, 51); fill: none; stroke-width: 1px;"/></g><path class="node node-border" d="M5,0h79a5,5 0 0 1 5,5v75a5,5 0 0 1 -5,5h-79a5,5 0 0 1 -5,-5v-75a5,5 0 0 1 5,-5z" style="stroke: rgb(51, 51, 51); fill: none; stroke-width: 1px;"/></g><g id="node-name-0.bias_dq" class="node graph-node" transform="translate(170.944091796875,0)" style=""><g class="node-item node-item-type" transform="translate(0,0)"><path d="M5,0h89.5234375a5,5 0 0 1 5,5v18a0,0 0 0 1 0,0h-99.5234375a0,0 0 0 1 0,0v-18a5,5 0 0 1 5,-5z" style="stroke: rgb(0, 0, 0); fill: rgb(0, 0, 0); stroke-width: 0;"/><text x="6" y="16" style="font-family: -apple-system, BlinkMacSystemFont, &quot;Segoe WPC&quot;, &quot;Segoe UI&quot;, Ubuntu, &quot;Droid Sans&quot;, sans-serif, &quot;PingFang SC&quot;; font-size: 11px; text-rendering: geometricprecision; user-select: none; fill: rgb(255, 255, 255);">DequantizeLinear</text><title>0.bias_dq</title></g><g class="node-argument-list" transform="translate(0,23)"><path d="M0,0h99.5234375a0,0 0 0 1 0,0v57a5,5 0 0 1 -5,5h-89.5234375a5,5 0 0 1 -5,-5v-57a0,0 0 0 1 0,0z" style="stroke: rgb(0, 0, 0); fill: rgb(255, 255, 255); stroke-width: 0;"/><g class="node-argument"><rect rx="3" ry="3" x="3" y="3" width="93.5234375" height="14" style="fill: transparent;"/><text xml:space="preserve" x="6" y="14" style="font-family: -apple-system, BlinkMacSystemFont, &quot;Segoe WPC&quot;, &quot;Segoe UI&quot;, Ubuntu, &quot;Droid Sans&quot;, sans-serif, &quot;PingFang SC&quot;; font-size: 9px; font-weight: normal; text-rendering: geometricprecision; user-select: none;"><title>int32[3]</title><tspan style="font-weight: bold;">x</tspan><tspan>〈3〉</tspan></text></g><g class="node-argument"><rect rx="3" ry="3" x="3" y="17" width="93.5234375" height="14" style="fill: transparent;"/><text xml:space="preserve" x="6" y="28" style="font-family: -apple-system, BlinkMacSystemFont, &quot;Segoe WPC&quot;, &quot;Segoe UI&quot;, Ubuntu, &quot;Droid Sans&quot;, sans-serif, &quot;PingFang SC&quot;; font-size: 9px; font-weight: normal; text-rendering: geometricprecision; user-select: none;"><title>float32[3]</title><tspan style="font-weight: bold;">x_scale</tspan><tspan>〈3〉</tspan></text></g><g class="node-argument"><rect rx="3" ry="3" x="3" y="31" width="93.5234375" height="14" style="fill: transparent;"/><text xml:space="preserve" x="6" y="42" style="font-family: -apple-system, BlinkMacSystemFont, &quot;Segoe WPC&quot;, &quot;Segoe UI&quot;, Ubuntu, &quot;Droid Sans&quot;, sans-serif, &quot;PingFang SC&quot;; font-size: 9px; font-weight: normal; text-rendering: geometricprecision; user-select: none;"><title>int32[3]</title><tspan style="font-weight: bold;">x_zero_point</tspan><tspan>〈3〉</tspan></text></g><g class="node-argument"><rect rx="3" ry="3" x="3" y="45" width="93.5234375" height="14" style="fill: transparent;"/><text xml:space="preserve" x="6" y="56" style="font-family: -apple-system, BlinkMacSystemFont, &quot;Segoe WPC&quot;, &quot;Segoe UI&quot;, Ubuntu, &quot;Droid Sans&quot;, sans-serif, &quot;PingFang SC&quot;; font-size: 9px; font-weight: normal; text-rendering: geometricprecision; user-select: none;"><title>int64</title><tspan>axis</tspan><tspan> = 0</tspan></text></g><line class="node" x1="0" x2="99.5234375" y1="0" y2="0" style="stroke: rgb(51, 51, 51); fill: none; stroke-width: 1px;"/></g><path class="node node-border" d="M5,0h89.5234375a5,5 0 0 1 5,5v75a5,5 0 0 1 -5,5h-89.5234375a5,5 0 0 1 -5,-5v-75a5,5 0 0 1 5,-5z" style="stroke: rgb(51, 51, 51); fill: none; stroke-width: 1px;"/></g><g id="node-name-input_dq" class="node graph-node" transform="translate(292.83056640625,105)" style=""><g class="node-item node-item-type" transform="translate(0,0)"><path d="M5,0h94.01513671875a5,5 0 0 1 5,5v18a0,0 0 0 1 0,0h-104.01513671875a0,0 0 0 1 0,0v-18a5,5 0 0 1 5,-5z" style="stroke: rgb(0, 0, 0); fill: rgb(0, 0, 0); stroke-width: 0;"/><text x="6" y="16" style="font-family: -apple-system, BlinkMacSystemFont, &quot;Segoe WPC&quot;, &quot;Segoe UI&quot;, Ubuntu, &quot;Droid Sans&quot;, sans-serif, &quot;PingFang SC&quot;; font-size: 11px; text-rendering: geometricprecision; user-select: none; fill: rgb(255, 255, 255);">DequantizeLinear</text><title>input_dq</title></g><g class="node-argument-list" transform="translate(0,23)"><path d="M0,0h104.01513671875a0,0 0 0 1 0,0v29a5,5 0 0 1 -5,5h-94.01513671875a5,5 0 0 1 -5,-5v-29a0,0 0 0 1 0,0z" style="stroke: rgb(0, 0, 0); fill: rgb(255, 255, 255); stroke-width: 0;"/><g class="node-argument"><rect rx="3" ry="3" x="3" y="3" width="98.01513671875" height="14" style="fill: transparent;"/><text xml:space="preserve" x="6" y="14" style="font-family: -apple-system, BlinkMacSystemFont, &quot;Segoe WPC&quot;, &quot;Segoe UI&quot;, Ubuntu, &quot;Droid Sans&quot;, sans-serif, &quot;PingFang SC&quot;; font-size: 9px; font-weight: normal; text-rendering: geometricprecision; user-select: none;"><title>float32</title><tspan>x_scale</tspan><tspan> = 0.03488467…</tspan></text></g><g class="node-argument"><rect rx="3" ry="3" x="3" y="17" width="98.01513671875" height="14" style="fill: transparent;"/><text xml:space="preserve" x="6" y="28" style="font-family: -apple-system, BlinkMacSystemFont, &quot;Segoe WPC&quot;, &quot;Segoe UI&quot;, Ubuntu, &quot;Droid Sans&quot;, sans-serif, &quot;PingFang SC&quot;; font-size: 9px; font-weight: normal; text-rendering: geometricprecision; user-select: none;"><title>uint8</title><tspan>x_zero_point</tspan><tspan> = 125</tspan></text></g><line class="node" x1="0" x2="104.01513671875" y1="0" y2="0" style="stroke: rgb(51, 51, 51); fill: none; stroke-width: 1px;"/></g><path class="node node-border" d="M5,0h94.01513671875a5,5 0 0 1 5,5v47a5,5 0 0 1 -5,5h-94.01513671875a5,5 0 0 1 -5,-5v-47a5,5 0 0 1 5,-5z" style="stroke: rgb(51, 51, 51); fill: none; stroke-width: 1px;"/></g><g id="node-name-0.weight_dq" class="node graph-node" transform="translate(295.076416015625,184.5)" style=""><g class="node-item node-item-type" transform="translate(0,0)"><path d="M5,0h89.5234375a5,5 0 0 1 5,5v18a0,0 0 0 1 0,0h-99.5234375a0,0 0 0 1 0,0v-18a5,5 0 0 1 5,-5z" style="stroke: rgb(0, 0, 0); fill: rgb(0, 0, 0); stroke-width: 0;"/><text x="6" y="16" style="font-family: -apple-system, BlinkMacSystemFont, &quot;Segoe WPC&quot;, &quot;Segoe UI&quot;, Ubuntu, &quot;Droid Sans&quot;, sans-serif, &quot;PingFang SC&quot;; font-size: 11px; text-rendering: geometricprecision; user-select: none; fill: rgb(255, 255, 255);">DequantizeLinear</text><title>0.weight_dq</title></g><g class="node-argument-list" transform="translate(0,23)"><path d="M0,0h99.5234375a0,0 0 0 1 0,0v43a5,5 0 0 1 -5,5h-89.5234375a5,5 0 0 1 -5,-5v-43a0,0 0 0 1 0,0z" style="stroke: rgb(0, 0, 0); fill: rgb(255, 255, 255); stroke-width: 0;"/><g class="node-argument"><rect rx="3" ry="3" x="3" y="3" width="93.5234375" height="14" style="fill: transparent;"/><text xml:space="preserve" x="6" y="14" style="font-family: -apple-system, BlinkMacSystemFont, &quot;Segoe WPC&quot;, &quot;Segoe UI&quot;, Ubuntu, &quot;Droid Sans&quot;, sans-serif, &quot;PingFang SC&quot;; font-size: 9px; font-weight: normal; text-rendering: geometricprecision; user-select: none;"><title>float32[3]</title><tspan style="font-weight: bold;">x_scale</tspan><tspan>〈3〉</tspan></text></g><g class="node-argument"><rect rx="3" ry="3" x="3" y="17" width="93.5234375" height="14" style="fill: transparent;"/><text xml:space="preserve" x="6" y="28" style="font-family: -apple-system, BlinkMacSystemFont, &quot;Segoe WPC&quot;, &quot;Segoe UI&quot;, Ubuntu, &quot;Droid Sans&quot;, sans-serif, &quot;PingFang SC&quot;; font-size: 9px; font-weight: normal; text-rendering: geometricprecision; user-select: none;"><title>int8[3]</title><tspan style="font-weight: bold;">x_zero_point</tspan><tspan>〈3〉</tspan></text></g><g class="node-argument"><rect rx="3" ry="3" x="3" y="31" width="93.5234375" height="14" style="fill: transparent;"/><text xml:space="preserve" x="6" y="42" style="font-family: -apple-system, BlinkMacSystemFont, &quot;Segoe WPC&quot;, &quot;Segoe UI&quot;, Ubuntu, &quot;Droid Sans&quot;, sans-serif, &quot;PingFang SC&quot;; font-size: 9px; font-weight: normal; text-rendering: geometricprecision; user-select: none;"><title>int64</title><tspan>axis</tspan><tspan> = 0</tspan></text></g><line class="node" x1="0" x2="99.5234375" y1="0" y2="0" style="stroke: rgb(51, 51, 51); fill: none; stroke-width: 1px;"/></g><path class="node node-border" d="M5,0h89.5234375a5,5 0 0 1 5,5v61a5,5 0 0 1 -5,5h-89.5234375a5,5 0 0 1 -5,-5v-61a5,5 0 0 1 5,-5z" style="stroke: rgb(51, 51, 51); fill: none; stroke-width: 1px;"/></g><g id="node-name-/0/Conv" class="node graph-node" transform="translate(416.845703125,88.75)" style=""><g class="node-item node-item-type node-item-type-layer" transform="translate(0,0)"><path d="M5,0h78.87109375a5,5 0 0 1 5,5v18a0,0 0 0 1 0,0h-88.87109375a0,0 0 0 1 0,0v-18a5,5 0 0 1 5,-5z" style="stroke: rgb(0, 0, 0); fill: rgb(51, 85, 136); stroke-width: 0;"/><text x="6" y="16" style="font-family: -apple-system, BlinkMacSystemFont, &quot;Segoe WPC&quot;, &quot;Segoe UI&quot;, Ubuntu, &quot;Droid Sans&quot;, sans-serif, &quot;PingFang SC&quot;; font-size: 11px; text-rendering: geometricprecision; user-select: none; fill: rgb(255, 255, 255);">Conv</text><title>/0/Conv</title></g><g class="node-argument-list" transform="translate(0,23)"><path d="M0,0h88.87109375a0,0 0 0 1 0,0v57a5,5 0 0 1 -5,5h-78.87109375a5,5 0 0 1 -5,-5v-57a0,0 0 0 1 0,0z" style="stroke: rgb(0, 0, 0); fill: rgb(255, 255, 255); stroke-width: 0;"/><g class="node-argument"><rect rx="3" ry="3" x="3" y="3" width="82.87109375" height="14" style="fill: transparent;"/><text xml:space="preserve" x="6" y="14" style="font-family: -apple-system, BlinkMacSystemFont, &quot;Segoe WPC&quot;, &quot;Segoe UI&quot;, Ubuntu, &quot;Droid Sans&quot;, sans-serif, &quot;PingFang SC&quot;; font-size: 9px; font-weight: normal; text-rendering: geometricprecision; user-select: none;"><title>int64[]</title><tspan>dilations</tspan><tspan> = 1, 1</tspan></text></g><g class="node-argument"><rect rx="3" ry="3" x="3" y="17" width="82.87109375" height="14" style="fill: transparent;"/><text xml:space="preserve" x="6" y="28" style="font-family: -apple-system, BlinkMacSystemFont, &quot;Segoe WPC&quot;, &quot;Segoe UI&quot;, Ubuntu, &quot;Droid Sans&quot;, sans-serif, &quot;PingFang SC&quot;; font-size: 9px; font-weight: normal; text-rendering: geometricprecision; user-select: none;"><title>int64[]</title><tspan>kernel_shape</tspan><tspan> = 3, 3</tspan></text></g><g class="node-argument"><rect rx="3" ry="3" x="3" y="31" width="82.87109375" height="14" style="fill: transparent;"/><text xml:space="preserve" x="6" y="42" style="font-family: -apple-system, BlinkMacSystemFont, &quot;Segoe WPC&quot;, &quot;Segoe UI&quot;, Ubuntu, &quot;Droid Sans&quot;, sans-serif, &quot;PingFang SC&quot;; font-size: 9px; font-weight: normal; text-rendering: geometricprecision; user-select: none;"><title>int64[]</title><tspan>pads</tspan><tspan> = 0, 0, 0, 0</tspan></text></g><g class="node-argument"><rect rx="3" ry="3" x="3" y="45" width="82.87109375" height="14" style="fill: transparent;"/><text xml:space="preserve" x="6" y="56" style="font-family: -apple-system, BlinkMacSystemFont, &quot;Segoe WPC&quot;, &quot;Segoe UI&quot;, Ubuntu, &quot;Droid Sans&quot;, sans-serif, &quot;PingFang SC&quot;; font-size: 9px; font-weight: normal; text-rendering: geometricprecision; user-select: none;"><title>int64[]</title><tspan>strides</tspan><tspan> = 1, 1</tspan></text></g><line class="node" x1="0" x2="88.87109375" y1="0" y2="0" style="stroke: rgb(51, 51, 51); fill: none; stroke-width: 1px;"/></g><path class="node node-border" d="M5,0h78.87109375a5,5 0 0 1 5,5v75a5,5 0 0 1 -5,5h-78.87109375a5,5 0 0 1 -5,-5v-75a5,5 0 0 1 5,-5z" style="stroke: rgb(51, 51, 51); fill: none; stroke-width: 1px;"/></g><g id="node-name-output_q" class="node graph-node" transform="translate(525.716796875,102.75)" style=""><g class="node-item node-item-type" transform="translate(0,0)"><path d="M5,0h94.24951171875a5,5 0 0 1 5,5v18a0,0 0 0 1 0,0h-104.24951171875a0,0 0 0 1 0,0v-18a5,5 0 0 1 5,-5z" style="stroke: rgb(0, 0, 0); fill: rgb(0, 0, 0); stroke-width: 0;"/><text x="6" y="16" style="font-family: -apple-system, BlinkMacSystemFont, &quot;Segoe WPC&quot;, &quot;Segoe UI&quot;, Ubuntu, &quot;Droid Sans&quot;, sans-serif, &quot;PingFang SC&quot;; font-size: 11px; text-rendering: geometricprecision; user-select: none; fill: rgb(255, 255, 255);">QuantizeLinear</text><title>output_q</title></g><g class="node-argument-list" transform="translate(0,23)"><path d="M0,0h104.24951171875a0,0 0 0 1 0,0v29a5,5 0 0 1 -5,5h-94.24951171875a5,5 0 0 1 -5,-5v-29a0,0 0 0 1 0,0z" style="stroke: rgb(0, 0, 0); fill: rgb(255, 255, 255); stroke-width: 0;"/><g class="node-argument"><rect rx="3" ry="3" x="3" y="3" width="98.24951171875" height="14" style="fill: transparent;"/><text xml:space="preserve" x="6" y="14" style="font-family: -apple-system, BlinkMacSystemFont, &quot;Segoe WPC&quot;, &quot;Segoe UI&quot;, Ubuntu, &quot;Droid Sans&quot;, sans-serif, &quot;PingFang SC&quot;; font-size: 9px; font-weight: normal; text-rendering: geometricprecision; user-select: none;"><title>float32</title><tspan>y_scale</tspan><tspan> = 0.02126097…</tspan></text></g><g class="node-argument"><rect rx="3" ry="3" x="3" y="17" width="98.24951171875" height="14" style="fill: transparent;"/><text xml:space="preserve" x="6" y="28" style="font-family: -apple-system, BlinkMacSystemFont, &quot;Segoe WPC&quot;, &quot;Segoe UI&quot;, Ubuntu, &quot;Droid Sans&quot;, sans-serif, &quot;PingFang SC&quot;; font-size: 9px; font-weight: normal; text-rendering: geometricprecision; user-select: none;"><title>uint8</title><tspan>y_zero_point</tspan><tspan> = 130</tspan></text></g><line class="node" x1="0" x2="104.24951171875" y1="0" y2="0" style="stroke: rgb(51, 51, 51); fill: none; stroke-width: 1px;"/></g><path class="node node-border" d="M5,0h94.24951171875a5,5 0 0 1 5,5v47a5,5 0 0 1 -5,5h-94.24951171875a5,5 0 0 1 -5,-5v-47a5,5 0 0 1 5,-5z" style="stroke: rgb(51, 51, 51); fill: none; stroke-width: 1px;"/></g><g id="node-name-output_dq" class="node graph-node" transform="translate(649.96630859375,102.75)" style=""><g class="node-item node-item-type" transform="translate(0,0)"><path d="M5,0h94.01513671875a5,5 0 0 1 5,5v18a0,0 0 0 1 0,0h-104.01513671875a0,0 0 0 1 0,0v-18a5,5 0 0 1 5,-5z" style="stroke: rgb(0, 0, 0); fill: rgb(0, 0, 0); stroke-width: 0;"/><text x="6" y="16" style="font-family: -apple-system, BlinkMacSystemFont, &quot;Segoe WPC&quot;, &quot;Segoe UI&quot;, Ubuntu, &quot;Droid Sans&quot;, sans-serif, &quot;PingFang SC&quot;; font-size: 11px; text-rendering: geometricprecision; user-select: none; fill: rgb(255, 255, 255);">DequantizeLinear</text><title>output_dq</title></g><g class="node-argument-list" transform="translate(0,23)"><path d="M0,0h104.01513671875a0,0 0 0 1 0,0v29a5,5 0 0 1 -5,5h-94.01513671875a5,5 0 0 1 -5,-5v-29a0,0 0 0 1 0,0z" style="stroke: rgb(0, 0, 0); fill: rgb(255, 255, 255); stroke-width: 0;"/><g class="node-argument"><rect rx="3" ry="3" x="3" y="3" width="98.01513671875" height="14" style="fill: transparent;"/><text xml:space="preserve" x="6" y="14" style="font-family: -apple-system, BlinkMacSystemFont, &quot;Segoe WPC&quot;, &quot;Segoe UI&quot;, Ubuntu, &quot;Droid Sans&quot;, sans-serif, &quot;PingFang SC&quot;; font-size: 9px; font-weight: normal; text-rendering: geometricprecision; user-select: none;"><title>float32</title><tspan>x_scale</tspan><tspan> = 0.02126097…</tspan></text></g><g class="node-argument"><rect rx="3" ry="3" x="3" y="17" width="98.01513671875" height="14" style="fill: transparent;"/><text xml:space="preserve" x="6" y="28" style="font-family: -apple-system, BlinkMacSystemFont, &quot;Segoe WPC&quot;, &quot;Segoe UI&quot;, Ubuntu, &quot;Droid Sans&quot;, sans-serif, &quot;PingFang SC&quot;; font-size: 9px; font-weight: normal; text-rendering: geometricprecision; user-select: none;"><title>uint8</title><tspan>x_zero_point</tspan><tspan> = 130</tspan></text></g><line class="node" x1="0" x2="104.01513671875" y1="0" y2="0" style="stroke: rgb(51, 51, 51); fill: none; stroke-width: 1px;"/></g><path class="node node-border" d="M5,0h94.01513671875a5,5 0 0 1 5,5v47a5,5 0 0 1 -5,5h-94.01513671875a5,5 0 0 1 -5,-5v-47a5,5 0 0 1 5,-5z" style="stroke: rgb(51, 51, 51); fill: none; stroke-width: 1px;"/></g><g class="node" transform="translate(838.23828125,119.75)" style=""><g class="node-item graph-item-output" transform="translate(0,0)"><path d="M5,0h37.08984375a5,5 0 0 1 5,5v13a5,5 0 0 1 -5,5h-37.08984375a5,5 0 0 1 -5,-5v-13a5,5 0 0 1 5,-5z" style="stroke: rgb(0, 0, 0); fill: rgb(238, 238, 238); stroke-width: 0;"/><text x="6" y="16" style="font-family: -apple-system, BlinkMacSystemFont, &quot;Segoe WPC&quot;, &quot;Segoe UI&quot;, Ubuntu, &quot;Droid Sans&quot;, sans-serif, &quot;PingFang SC&quot;; font-size: 11px; text-rendering: geometricprecision; user-select: none;">output</text><title>float32[1,3,222,222]</title></g><path class="node node-border" d="M5,0h37.08984375a5,5 0 0 1 5,5v13a5,5 0 0 1 -5,5h-37.08984375a5,5 0 0 1 -5,-5v-13a5,5 0 0 1 5,-5z" style="stroke: rgb(51, 51, 51); fill: none; stroke-width: 1px;"/></g></g></g></svg>