<svg width="1454" height="911" xmlns="http://www.w3.org/2000/svg" xmlns:xlink="http://www.w3.org/1999/xlink" xml:space="preserve" overflow="hidden"><defs><clipPath id="clip0"><rect x="1106" y="736" width="1454" height="911"/></clipPath></defs><g clip-path="url(#clip0)" transform="translate(-1106 -736)"><g><g><g><path d="M0 0 453.781 0 453.781 911 0 911Z" fill="#FFFFFF" transform="matrix(1.00048 0 0 1 1106 736)"/><path d="M205.27 79.0679 205.27 84.7975C205.27 90.527 205.27 101.986 205.27 120.321 205.27 138.655 205.27 163.865 205.27 189.075 205.27 214.286 205.27 239.496 205.27 257.83 205.27 276.165 205.27 287.624 205.27 293.353L205.27 299.083" stroke="#000000" stroke-width="3.43774" fill="none" transform="matrix(1.00048 0 0 1 1126.54 756.527)"/><g><path d="M0 0 20.6264 10.3132 0 20.6264 8.25057 10.3132Z" transform="matrix(6.12619e-17 1 -1.00048 6.12323e-17 1342.22 1037.05)"/></g><path d="M205.27 639.419 205.27 652.024C205.27 664.629 205.27 689.839 205.27 715.049 205.27 740.259 205.27 765.469 205.27 778.074L205.27 790.679" stroke="#000000" stroke-width="3.43774" fill="none" transform="matrix(1.00048 0 0 1 1126.54 756.527)"/><g><path d="M0 0 20.6264 10.3132 0 20.6264 8.25057 10.3132Z" transform="matrix(6.12619e-17 1 -1.00048 6.12323e-17 1342.22 1528.64)"/></g><text font-family="Segoe UI,Segoe UI_MSFontService,sans-serif" font-weight="400" font-size="10" transform="matrix(3.43939 0 0 3.43774 1352.54 956)">1024</text><text font-family="Segoe UI,Segoe UI_MSFontService,sans-serif" font-weight="400" font-size="10" transform="matrix(3.43939 0 0 3.43774 1426.7 956)">×</text><text font-family="Segoe UI,Segoe UI_MSFontService,sans-serif" font-weight="400" font-size="10" transform="matrix(3.43939 0 0 3.43774 1450.23 956)">1024</text><text font-family="Segoe UI,Segoe UI_MSFontService,sans-serif" font-weight="400" font-size="10" transform="matrix(3.43939 0 0 3.43774 1352.54 1482)">1024</text><text font-family="Segoe UI,Segoe UI_MSFontService,sans-serif" font-weight="400" font-size="10" transform="matrix(3.43939 0 0 3.43774 1426.7 1482)">×</text><text font-family="Segoe UI,Segoe UI_MSFontService,sans-serif" font-weight="400" font-size="10" transform="matrix(3.43939 0 0 3.43774 1450.23 1482)">1024</text><path d="M17.1887 0 55.0038 0C64.4968-3.05332e-15 72.1924 7.69563 72.1924 17.1887L72.1924 61.8792C72.1924 71.3723 64.4968 79.0679 55.0038 79.0679L17.1887 79.0679C7.69563 79.0679 0 71.3723 0 61.8792L0 17.1887C-3.05332e-15 7.69563 7.69563 0 17.1887 0Z" fill="#EEEEEE" transform="matrix(1.00048 0 0 1 1295.79 756.527)"/><text font-family="Segoe UI,Segoe UI_MSFontService,sans-serif" font-weight="400" font-size="11" transform="matrix(3.43939 0 0 3.43774 1319.87 812)">x</text><path d="M17.1887 0 55.0038 0C64.4968-3.05332e-15 72.1924 7.69563 72.1924 17.1887L72.1924 61.8792C72.1924 71.3723 64.4968 79.0679 55.0038 79.0679L17.1887 79.0679C7.69563 79.0679 0 71.3723 0 61.8792L0 17.1887C-3.05332e-15 7.69563 7.69563 0 17.1887 0Z" stroke="#333333" stroke-width="3.43774" fill="none" transform="matrix(1.00048 0 0 1 1295.79 756.527)"/><path d="M17.1887 0 393.352 0C402.845-3.05332e-15 410.541 7.69563 410.541 17.1887L410.541 79.0679 410.541 79.0679 0 79.0679 0 79.0679 0 17.1887C-3.05332e-15 7.69563 7.69563 0 17.1887 0Z" fill="#333333" transform="matrix(1.00048 0 0 1 1126.54 1055.61)"/><text fill="#FFFFFF" font-family="Segoe UI,Segoe UI_MSFontService,sans-serif" font-weight="400" font-size="11" transform="matrix(3.43939 0 0 3.43774 1150.61 1111)">QuantizeLinear</text><path d="M0 0 410.541 0 410.541 0 410.541 244.079C410.541 253.572 402.845 261.268 393.352 261.268L17.1887 261.268C7.69563 261.268 0 253.572 0 244.079L0 0 0 0Z" fill="#FFFFFF" transform="matrix(1.00048 0 0 1 1126.54 1134.68)"/><text font-family="Segoe UI,Segoe UI_MSFontService,sans-serif" font-weight="700" font-size="9" transform="matrix(3.43939 0 0 3.43774 1147.17 1183)">y</text><text font-family="Segoe UI,Segoe UI_MSFontService,sans-serif" font-weight="700" font-size="9" transform="matrix(3.43939 0 0 3.43774 1163.83 1183)">_</text><text font-family="Segoe UI,Segoe UI_MSFontService,sans-serif" font-weight="700" font-size="9" transform="matrix(3.43939 0 0 3.43774 1176.68 1183)">scale</text><text font-family="MS Gothic,MS Gothic_MSFontService,sans-serif" font-weight="400" font-size="9" transform="matrix(3.43939 0 0 3.43774 1247.35 1183)">〈</text><text font-family="Segoe UI,Segoe UI_MSFontService,sans-serif" font-weight="400" font-size="9" transform="matrix(3.43939 0 0 3.43774 1278.31 1183)">16</text><text font-family="Segoe UI,Segoe UI_MSFontService,sans-serif" font-weight="400" font-size="9" transform="matrix(3.43939 0 0 3.43774 1311.68 1183)">×</text><text font-family="Segoe UI,Segoe UI_MSFontService,sans-serif" font-weight="400" font-size="9" transform="matrix(3.43939 0 0 3.43774 1332.86 1183)">1024</text><text font-family="MS Gothic,MS Gothic_MSFontService,sans-serif" font-weight="400" font-size="9" transform="matrix(3.43939 0 0 3.43774 1399.6 1183)">〉</text><text font-family="Segoe UI,Segoe UI_MSFontService,sans-serif" font-weight="700" font-size="9" transform="matrix(3.43939 0 0 3.43774 1147.17 1231)">y</text><text font-family="Segoe UI,Segoe UI_MSFontService,sans-serif" font-weight="700" font-size="9" transform="matrix(3.43939 0 0 3.43774 1163.83 1231)">_</text><text font-family="Segoe UI,Segoe UI_MSFontService,sans-serif" font-weight="700" font-size="9" transform="matrix(3.43939 0 0 3.43774 1176.68 1231)">zero</text><text font-family="Segoe UI,Segoe UI_MSFontService,sans-serif" font-weight="700" font-size="9" transform="matrix(3.43939 0 0 3.43774 1239.37 1231)">_</text><text font-family="Segoe UI,Segoe UI_MSFontService,sans-serif" font-weight="700" font-size="9" transform="matrix(3.43939 0 0 3.43774 1252.22 1231)">point</text><text font-family="MS Gothic,MS Gothic_MSFontService,sans-serif" font-weight="400" font-size="9" transform="matrix(3.43939 0 0 3.43774 1329.91 1231)">〈</text><text font-family="Segoe UI,Segoe UI_MSFontService,sans-serif" font-weight="400" font-size="9" transform="matrix(3.43939 0 0 3.43774 1360.86 1231)">16</text><text font-family="Segoe UI,Segoe UI_MSFontService,sans-serif" font-weight="400" font-size="9" transform="matrix(3.43939 0 0 3.43774 1394.24 1231)">×</text><text font-family="Segoe UI,Segoe UI_MSFontService,sans-serif" font-weight="400" font-size="9" transform="matrix(3.43939 0 0 3.43774 1415.41 1231)">1024</text><text font-family="MS Gothic,MS Gothic_MSFontService,sans-serif" font-weight="400" font-size="9" transform="matrix(3.43939 0 0 3.43774 1482.16 1231)">〉</text><text font-family="Segoe UI,Segoe UI_MSFontService,sans-serif" font-weight="400" font-size="9" transform="matrix(3.43939 0 0 3.43774 1147.17 1279)">axis</text><text font-family="Segoe UI,Segoe UI_MSFontService,sans-serif" font-weight="400" font-size="9" transform="matrix(3.43939 0 0 3.43774 1197.76 1279)"> </text><text font-family="Segoe UI,Segoe UI_MSFontService,sans-serif" font-weight="400" font-size="9" transform="matrix(3.43939 0 0 3.43774 1206.24 1279)">= </text><text font-family="Segoe UI,Segoe UI_MSFontService,sans-serif" font-weight="400" font-size="9" transform="matrix(3.43939 0 0 3.43774 1235.9 1279)">0</text><text font-family="Segoe UI,Segoe UI_MSFontService,sans-serif" font-weight="400" font-size="9" transform="matrix(3.43939 0 0 3.43774 1147.17 1327)">block</text><text font-family="Segoe UI,Segoe UI_MSFontService,sans-serif" font-weight="400" font-size="9" transform="matrix(3.43939 0 0 3.43774 1220.69 1327)">_</text><text font-family="Segoe UI,Segoe UI_MSFontService,sans-serif" font-weight="400" font-size="9" transform="matrix(3.43939 0 0 3.43774 1233.54 1327)">size</text><text font-family="Segoe UI,Segoe UI_MSFontService,sans-serif" font-weight="400" font-size="9" transform="matrix(3.43939 0 0 3.43774 1284.35 1327)"> </text><text font-family="Segoe UI,Segoe UI_MSFontService,sans-serif" font-weight="400" font-size="9" transform="matrix(3.43939 0 0 3.43774 1292.83 1327)">= </text><text font-family="Segoe UI,Segoe UI_MSFontService,sans-serif" font-weight="400" font-size="9" transform="matrix(3.43939 0 0 3.43774 1322.49 1327)">64</text><text font-family="Segoe UI,Segoe UI_MSFontService,sans-serif" font-weight="400" font-size="9" transform="matrix(3.43939 0 0 3.43774 1147.17 1375)">output</text><text font-family="Segoe UI,Segoe UI_MSFontService,sans-serif" font-weight="400" font-size="9" transform="matrix(3.43939 0 0 3.43774 1239.52 1375)">_</text><text font-family="Segoe UI,Segoe UI_MSFontService,sans-serif" font-weight="400" font-size="9" transform="matrix(3.43939 0 0 3.43774 1252.37 1375)">dtype</text><text font-family="Segoe UI,Segoe UI_MSFontService,sans-serif" font-weight="400" font-size="9" transform="matrix(3.43939 0 0 3.43774 1330.45 1375)"> </text><text font-family="Segoe UI,Segoe UI_MSFontService,sans-serif" font-weight="400" font-size="9" transform="matrix(3.43939 0 0 3.43774 1338.93 1375)">= </text><text font-family="Segoe UI,Segoe UI_MSFontService,sans-serif" font-weight="400" font-size="9" transform="matrix(3.43939 0 0 3.43774 1368.59 1375)">22</text><path d="M0 0 410.541 0" stroke="#333333" stroke-width="3.43774" fill="none" transform="matrix(1.00048 0 0 1 1126.54 1134.68)"/><path d="M17.1887 0 393.352 0C402.845-3.05332e-15 410.541 7.69563 410.541 17.1887L410.541 323.147C410.541 332.64 402.845 340.336 393.352 340.336L17.1887 340.336C7.69563 340.336 0 332.64 0 323.147L0 17.1887C-3.05332e-15 7.69563 7.69563 0 17.1887 0Z" stroke="#333333" stroke-width="3.43774" fill="none" transform="matrix(1.00048 0 0 1 1126.54 1055.61)"/><path d="M17.1887 0 55.0038 0C64.4968-3.05332e-15 72.1924 7.69563 72.1924 17.1887L72.1924 61.8792C72.1924 71.3723 64.4968 79.0679 55.0038 79.0679L17.1887 79.0679C7.69563 79.0679 0 71.3723 0 61.8792L0 17.1887C-3.05332e-15 7.69563 7.69563 0 17.1887 0Z" fill="#EEEEEE" transform="matrix(1.00048 0 0 1 1295.79 1547.21)"/><text font-family="Segoe UI,Segoe UI_MSFontService,sans-serif" font-weight="400" font-size="11" transform="matrix(3.43939 0 0 3.43774 1319.87 1602)">y</text><path d="M17.1887 0 55.0038 0C64.4968-3.05332e-15 72.1924 7.69563 72.1924 17.1887L72.1924 61.8792C72.1924 71.3723 64.4968 79.0679 55.0038 79.0679L17.1887 79.0679C7.69563 79.0679 0 71.3723 0 61.8792L0 17.1887C-3.05332e-15 7.69563 7.69563 0 17.1887 0Z" stroke="#333333" stroke-width="3.43774" fill="none" transform="matrix(1.00048 0 0 1 1295.79 1547.21)"/></g></g></g><rect x="1778" y="1054" width="764" height="384" fill="#D9D9D9"/><text font-family="Consolas,Consolas_MSFontService,sans-serif" font-weight="400" font-size="41" transform="matrix(1 0 0 1 1778.25 1091)">{</text><text font-family="Consolas,Consolas_MSFontService,sans-serif" font-weight="400" font-size="41" transform="matrix(1 0 0 1 1869.92 1138)">"name": "x</text><text font-family="Consolas,Consolas_MSFontService,sans-serif" font-weight="400" font-size="41" transform="matrix(1 0 0 1 2099.08 1138)">",</text><text font-family="Consolas,Consolas_MSFontService,sans-serif" font-weight="400" font-size="41" transform="matrix(1 0 0 1 1869.92 1186)">"</text><text font-family="Consolas,Consolas_MSFontService,sans-serif" font-weight="400" font-size="41" transform="matrix(1 0 0 1 1892.83 1186)">y_scale</text><text font-family="Consolas,Consolas_MSFontService,sans-serif" font-weight="400" font-size="41" transform="matrix(1 0 0 1 2053.25 1186)">": [[...], </text><text font-family="Consolas,Consolas_MSFontService,sans-serif" font-weight="400" font-size="41" transform="matrix(1 0 0 1 2305.33 1186)">...],</text><text font-family="Consolas,Consolas_MSFontService,sans-serif" font-weight="400" font-size="41" transform="matrix(1 0 0 1 1869.92 1234)">"</text><text font-family="Consolas,Consolas_MSFontService,sans-serif" font-weight="400" font-size="41" transform="matrix(1 0 0 1 1892.83 1234)">y_zero_point</text><text font-family="Consolas,Consolas_MSFontService,sans-serif" font-weight="400" font-size="41" transform="matrix(1 0 0 1 2167.83 1234)">": [[...], </text><text font-family="Consolas,Consolas_MSFontService,sans-serif" font-weight="400" font-size="41" transform="matrix(1 0 0 1 2419.92 1234)">...],</text><text font-family="Consolas,Consolas_MSFontService,sans-serif" font-weight="400" font-size="41" transform="matrix(1 0 0 1 1869.92 1281)">"axis": 0</text><text font-family="Consolas,Consolas_MSFontService,sans-serif" font-weight="400" font-size="41" transform="matrix(1 0 0 1 2076.17 1281)">,</text><text font-family="Consolas,Consolas_MSFontService,sans-serif" font-weight="400" font-size="41" transform="matrix(1 0 0 1 1869.92 1329)">"</text><text font-family="Consolas,Consolas_MSFontService,sans-serif" font-weight="400" font-size="41" transform="matrix(1 0 0 1 1892.83 1329)">block_size</text><text font-family="Consolas,Consolas_MSFontService,sans-serif" font-weight="400" font-size="41" transform="matrix(1 0 0 1 2122 1329)">": 64</text><text font-family="Consolas,Consolas_MSFontService,sans-serif" font-weight="400" font-size="41" transform="matrix(1 0 0 1 2236.58 1329)">,</text><text font-family="Consolas,Consolas_MSFontService,sans-serif" font-weight="400" font-size="41" transform="matrix(1 0 0 1 1869.92 1376)">"</text><text font-family="Consolas,Consolas_MSFontService,sans-serif" font-weight="400" font-size="41" transform="matrix(1 0 0 1 1892.83 1376)">output_dtype</text><text font-family="Consolas,Consolas_MSFontService,sans-serif" font-weight="400" font-size="41" transform="matrix(1 0 0 1 2167.83 1376)">": "</text><text font-family="Consolas,Consolas_MSFontService,sans-serif" font-weight="400" font-size="41" transform="matrix(1 0 0 1 2259.5 1376)">int4"</text><text font-family="Consolas,Consolas_MSFontService,sans-serif" font-weight="400" font-size="41" transform="matrix(1 0 0 1 1778.25 1424)">}</text><path d="M1508.5 1360.5 1838.5 1360.5" stroke="#00B050" stroke-width="4.58333" stroke-linecap="round" stroke-linejoin="round" stroke-miterlimit="10" stroke-dasharray="13.75 18.3333" fill="none" fill-rule="evenodd"/><path d="M1379.5 801.5 1611.64 801.5 1611.64 1127.69 1843.77 1127.69" stroke="#00B050" stroke-width="4.58333" stroke-linecap="round" stroke-linejoin="round" stroke-miterlimit="10" stroke-dasharray="13.75 18.3333" fill="none" fill-rule="evenodd"/><path d="M1508.5 1313.5 1838.5 1313.5" stroke="#00B050" stroke-width="4.58333" stroke-linecap="round" stroke-linejoin="round" stroke-miterlimit="10" stroke-dasharray="13.75 18.3333" fill="none" fill-rule="evenodd"/><path d="M1509.5 1221.5 1839.5 1221.5" stroke="#00B050" stroke-width="4.58333" stroke-linecap="round" stroke-linejoin="round" stroke-miterlimit="10" stroke-dasharray="13.75 18.3333" fill="none" fill-rule="evenodd"/><path d="M1508.5 1267.5 1838.5 1267.5" stroke="#00B050" stroke-width="4.58333" stroke-linecap="round" stroke-linejoin="round" stroke-miterlimit="10" stroke-dasharray="13.75 18.3333" fill="none" fill-rule="evenodd"/><path d="M1508.5 1175.5 1838.5 1175.5" stroke="#00B050" stroke-width="4.58333" stroke-linecap="round" stroke-linejoin="round" stroke-miterlimit="10" stroke-dasharray="13.75 18.3333" fill="none" fill-rule="evenodd"/></g></svg>