<?xml version="1.0" standalone="no"?>
<!DOCTYPE svg PUBLIC "-//W3C//DTD SVG 1.1//EN" "http://www.w3.org/Graphics/SVG/1.1/DTD/svg11.dtd" >
<svg>
<metadata>
Created by FontForge 20090914 at Tue Mar 13 21:44:44 2018
 By www-data
Copyright 2014 Pria Ravichandran (pria.ravichandran@gmail.com)
</metadata>
<defs>
<font id="Catamaran-Bold" horiz-adv-x="568" >
  <font-face 
    font-family="Catamaran Bold"
    font-weight="700"
    font-stretch="normal"
    units-per-em="1000"
    panose-1="0 0 8 0 0 0 0 0 0 0"
    ascent="770"
    descent="-230"
    x-height="485"
    cap-height="680"
    bbox="-584.999 -385.003 2596 1320"
    underline-thickness="50"
    underline-position="-75"
    unicode-range="U+000D-U+FB02"
  />
<missing-glyph horiz-adv-x="697" 
d="M94 696v-696h508v696h-508zM470 593l1 -491h-246v491h245z" />
    <glyph glyph-name=".notdef" horiz-adv-x="697" 
d="M94 696v-696h508v696h-508zM470 593l1 -491h-246v491h245z" />
    <glyph glyph-name="uni0000" horiz-adv-x="0" 
 />
    <glyph glyph-name="uni0000" horiz-adv-x="0" 
 />
    <glyph glyph-name="nonmarkingreturn" unicode="&#xd;" horiz-adv-x="0" 
 />
    <glyph glyph-name="space" unicode=" " horiz-adv-x="225" 
 />
    <glyph glyph-name="exclam" unicode="!" horiz-adv-x="207" 
d="M52 244l104 -48l15 506h-136zM51.5 125c-14.333 -14 -21.5 -31.333 -21.5 -52s7.16699 -38 21.5 -52s31.5 -21 51.5 -21c20.667 0 38.167 7 52.5 21s21.5 31.333 21.5 52s-7.16699 38 -21.5 52s-31.833 21 -52.5 21c-20 0 -37.167 -7 -51.5 -21z" />
    <glyph glyph-name="quotedbl" unicode="&#x22;" horiz-adv-x="394" 
d="M52.5 718.5c-14.333 -15.667 -21.5 -32.499 -21.5 -50.499c0 -17.333 6.33301 -33.5 19 -48.5s25 -22.5 37 -22.5c-4 -19.333 -10.833 -35 -20.5 -47s-25.167 -27.333 -46.5 -46l28 -61c38 21.333 69.5 52.166 94.5 92.499s37.5 79.5 37.5 117.5
c0 26 -7.33301 47.333 -22 64s-32.667 25 -54 25c-20 0 -37.167 -7.83301 -51.5 -23.5zM238 718.501c-14.667 -15.667 -22 -32.499 -22 -50.499c0 -17.333 6.16699 -33.5 18.5 -48.5s24.833 -22.5 37.5 -22.5c-4 -19.333 -10.833 -34.833 -20.5 -46.5
s-25.5 -27.167 -47.5 -46.5l29 -61c37.333 21.333 68.5 52.166 93.5 92.499s37.5 79.5 37.5 117.5c0 26 -7.16699 47.333 -21.5 64s-31.833 25 -52.5 25c-20 0 -37.333 -7.83301 -52 -23.5z" />
    <glyph glyph-name="numbersign" unicode="#" horiz-adv-x="584" 
d="M412 520l-25 -112h-120l26 109l-111 3l-26 -112h-126l11 -97h92l-25 -112h-78l11 -96h45l-25 -113l110 -5l27 118h120l-25 -113l111 -5l26 118h124l-10 96h-92l26 112h76l-10 97h-44l24 109zM365 311l-26 -112h-118l25 112h119z" />
    <glyph glyph-name="dollar" unicode="$" horiz-adv-x="527" 
d="M389 674c20.667 -6.66699 44.667 -16.3311 72 -28.998l-43 -104c-27.333 13.333 -52.166 23.666 -74.499 30.999s-46.5 11 -72.5 11c-30 0 -54.5 -5.83301 -73.5 -17.5s-28.5 -28.834 -28.5 -51.501c0 -19.333 7.5 -35.5 22.5 -48.5s39.5 -29.5 73.5 -49.5l32 -18l29 -17
c39.333 -22.667 70.666 -42.5 93.999 -59.5s42.833 -37.667 58.5 -62s23.5 -52.833 23.5 -85.5c0 -37.333 -10.667 -70.5 -32 -99.5s-51.666 -51.167 -90.999 -66.5v-136h-89v117c-17.333 -1.33301 -31.333 -2 -42 -2h-15v-115h-88v133
c-42.667 12.667 -75.334 26 -98.001 40l29 105c24.667 -12.667 52.667 -23.834 84 -33.501s60 -14.5 86 -14.5c40 0 70.333 6.33301 91 19s31 31 31 55c0 16.667 -8.16699 31.834 -24.5 45.501s-41.5 29.834 -75.5 48.501l-30 18c-44.667 26.667 -80.167 49.667 -106.5 69
s-49 42.166 -68 68.499s-28.5 55.833 -28.5 88.5c0 36.667 10.333 69.5 31 98.5s50.334 50.5 89.001 64.5v117l88 14v-113l26 1c7.33301 0 17.666 -0.666992 30.999 -2v100l89 14v-134z" />
    <glyph glyph-name="percent" unicode="%" horiz-adv-x="932" 
d="M547 710l-298 -710l131 -4l298 710zM48.5 443c15.667 -26 36.168 -45.834 61.501 -59.501s52.333 -20.5 81 -20.5s55.667 7 81 21s45.833 34 61.5 60s23.5 55.667 23.5 89c0 34 -7.66699 63.833 -23 89.5s-35.833 45.334 -61.5 59.001s-52.834 20.5 -81.501 20.5
s-55.667 -7 -81 -21s-45.833 -33.833 -61.5 -59.5s-23.5 -55.167 -23.5 -88.5c0 -34 7.83301 -64 23.5 -90zM151.001 587.999c11.333 13.333 24.666 20.001 39.999 20.001c16.667 0 30.5 -6.66699 41.5 -20s16.5 -32 16.5 -56c0 -23.333 -5.83301 -41.833 -17.5 -55.5
s-25.167 -20.5 -40.5 -20.5c-17.333 0 -31.166 6.66699 -41.499 20s-15.5 32.666 -15.5 57.999c0 22.667 5.66699 40.667 17 54zM600.501 79.5c15.667 -25.667 36.168 -45.3311 61.501 -58.998s52.333 -20.5 81 -20.5c28 0 54.667 7 80 21s45.666 34 60.999 60
s23 55.667 23 89c0 34.667 -7.66699 64.667 -23 90s-35.5 44.666 -60.5 57.999s-51.833 20 -80.5 20s-55.667 -6.83301 -81 -20.5s-45.833 -33.334 -61.5 -59.001s-23.5 -55.5 -23.5 -89.5s7.83301 -63.833 23.5 -89.5zM702.502 225.003c11.667 13.333 25.166 20 40.499 20
c16 0 29.5 -6.83301 40.5 -20.5s16.5 -32.167 16.5 -55.5s-5.66699 -42 -17 -56s-24.666 -21 -39.999 -21c-17.333 0 -31.333 6.83301 -42 20.5s-16 33.167 -16 58.5c0 22.667 5.83301 40.667 17.5 54z" />
    <glyph glyph-name="ampersand" unicode="&#x26;" horiz-adv-x="683" 
d="M410 682c-32.667 9.33301 -64.6641 14.001 -95.9971 14.001c-41.333 0 -78 -8.66699 -110 -26s-56.833 -40.5 -74.5 -69.5s-26.5 -60.833 -26.5 -95.5s9.33301 -65.667 28 -93c-29.333 -25.333 -52.666 -55 -69.999 -89s-26 -68.333 -26 -103
c0 -49.333 11.667 -91.166 35 -125.499s55.166 -60.333 95.499 -78s85.5 -26.834 135.5 -27.501c41.333 0 79.166 5.66699 113.499 17s64.166 27.666 89.499 48.999l76 -70l78 97l-79 69c26.667 59.333 42 122 46 188l-117 47c-2.66699 -56 -12.334 -104.333 -29.001 -145
l-160 145c-28.667 25.333 -49.5 47.5 -62.5 66.5s-19.5 38.167 -19.5 57.5c0 20.667 7 38 21 52s33 21 57 21c26 0 50 -3.66699 72 -11s45 -17.666 69 -30.999l44 104c-27.333 15.333 -57.333 27.666 -90 36.999zM301.003 106.001c-36.667 0 -67.334 9.66699 -92.001 29
s-37 48 -37 86c0.666992 36 14.334 69.333 41.001 100l198 -181c-31.333 -22.667 -68 -34 -110 -34z" />
    <glyph glyph-name="quotesingle" unicode="'" horiz-adv-x="210" 
d="M52.5 718.5c-14.333 -15.667 -21.5 -32.499 -21.5 -50.499c0 -17.333 6.33301 -33.5 19 -48.5s25 -22.5 37 -22.5c-4 -19.333 -10.833 -35 -20.5 -47s-25.167 -27.333 -46.5 -46l28 -61c38 21.333 69.5 52.166 94.5 92.499s37.5 79.5 37.5 117.5
c0 26 -7.33301 47.333 -22 64s-32.667 25 -54 25c-20 0 -37.167 -7.83301 -51.5 -23.5z" />
    <glyph glyph-name="parenleft" unicode="(" horiz-adv-x="308" 
d="M202 148c-21.333 64.667 -31.999 122.665 -31.999 173.998c0 49.333 10.667 105.333 32 168s46.666 114.334 75.999 155.001l-101 37c-42 -60 -73.667 -119.5 -95 -178.5s-32 -119.833 -32 -182.5c0 -64.667 11 -127.5 33 -188.5s53.333 -118.167 94 -171.5l100 38
c-28.667 34.667 -53.667 84.334 -75 149.001z" />
    <glyph glyph-name="parenright" unicode=")" horiz-adv-x="308" 
d="M104.5 495.5c21 -65 31.5 -123.168 31.5 -174.501c0 -49.333 -10.5 -105.5 -31.5 -168.5s-45.833 -114.5 -74.5 -154.5l100 -37c42 60.667 73.833 120.334 95.5 179.001s32.5 119 32.5 181c0 64 -11.167 126.667 -33.5 188s-53.5 119 -93.5 173l-100 -39
c28 -33.333 52.5 -82.5 73.5 -147.5z" />
    <glyph glyph-name="asterisk" unicode="*" horiz-adv-x="388" 
d="M245 767h-102l-2 -99l-101 22l-30 -91l101 -21l-69 -97l79 -61l73 99l74 -99l78 61l-69 98l101 20l-30 91l-102 -22z" />
    <glyph glyph-name="plus" unicode="+" horiz-adv-x="538" 
d="M498 324h-163v207l-122 3v-210h-183l8 -99h175v-217l122 -4v221h173z" />
    <glyph glyph-name="comma" unicode="," horiz-adv-x="211" 
d="M54.5 123c-14.333 -15.333 -21.5 -32.334 -21.5 -51.001c0 -17.333 6.16699 -33.666 18.5 -48.999s24.5 -23 36.5 -23c-4 -19.333 -11 -35 -21 -47s-25.667 -27 -47 -45l29 -62c37.333 21.333 68.666 52.333 93.999 93s38 79.667 38 117c0 26 -7.5 47.5 -22.5 64.5
s-32.833 25.5 -53.5 25.5c-19.333 0 -36.166 -7.66699 -50.499 -23z" />
    <glyph glyph-name="hyphen" unicode="-" horiz-adv-x="332" 
d="M292 325h-262l11 -102h261z" />
    <glyph glyph-name="period" unicode="." horiz-adv-x="206" 
d="M155.5 21c13.667 14 20.5 31.333 20.5 52s-6.83301 38 -20.5 52s-30.834 21 -51.501 21s-38.167 -7 -52.5 -21s-21.5 -31.333 -21.5 -52s7.16699 -38 21.5 -52s31.833 -21 52.5 -21s37.834 7 51.501 21z" />
    <glyph glyph-name="slash" unicode="/" horiz-adv-x="454" 
d="M308 710l-298 -710l135 -4l299 710z" />
    <glyph glyph-name="zero" unicode="0" horiz-adv-x="606" 
d="M61 132c24 -45.333 57.166 -80.834 99.499 -106.501s89.833 -38.5 142.5 -38.5s100.167 12.833 142.5 38.5s75.5 61.334 99.5 107.001s36 97.167 36 154.5c0 55.333 -11.833 105.333 -35.5 150s-56.667 79.5 -99 104.5s-89.833 37.5 -142.5 37.5
c-53.333 0 -101.166 -12.667 -143.499 -38s-75.5 -60.333 -99.5 -105s-36 -95 -36 -151c0 -56.667 12 -107.667 36 -153zM164.499 380.999c13.667 27.333 32.667 48.832 57 64.499s51.5 23.5 81.5 23.5c30.667 0 58.167 -8 82.5 -24s43.5 -38.167 57.5 -66.5
s21 -60.166 21 -95.499s-6.83301 -67 -20.5 -95s-32.667 -50 -57 -66s-51.833 -24 -82.5 -24s-58.167 8.16699 -82.5 24.5s-43.333 39 -57 68s-20.5 61.5 -20.5 97.5c0 34.667 6.83301 65.667 20.5 93z" />
    <glyph glyph-name="one" unicode="1" horiz-adv-x="368" 
d="M303 0v566h-87l-206 -91l49 -97l114 44v-422h130z" />
    <glyph glyph-name="two" unicode="2" horiz-adv-x="487" 
d="M38 527l23.002 -103.999c59.333 34 111.666 51 156.999 51c33.333 0 59.833 -6.5 79.5 -19.5s29.5 -31.833 29.5 -56.5c0 -19.333 -8 -40 -24 -62s-41.333 -47.667 -76 -77l-202 -172v-87h442l-12 99h-253l95 79c51.333 43.333 87.333 80.666 108 111.999s31 69 31 113
c0 33.333 -8.33301 63.333 -25 90s-40.334 47.667 -71.001 63s-67 23 -109 23c-70.667 0 -135 -17.333 -193 -52z" />
    <glyph glyph-name="three" unicode="3" horiz-adv-x="484" 
d="M123 561c-34.667 -12 -69.3359 -29.333 -104.003 -52l61 -87c50 34.667 99.667 52 149 52c28 0 50.667 -6.83301 68 -20.5s26 -30.5 26 -50.5c0 -24.667 -12 -44.5 -36 -59.5s-56 -22.5 -96 -22.5h-66l18 -101h42c50.667 0 88.334 -8.83301 113.001 -26.5
s37 -42.167 37 -73.5c0 -27.333 -11.333 -49.333 -34 -66s-49.667 -25 -81 -25c-29.333 0 -55.666 3.5 -78.999 10.5s-48.333 18.5 -75 34.5l-66 -87c34 -18 70.333 -33 109 -45s75 -18 109 -18c46.667 0 88 8.66699 124 26s63.667 41 83 71s29 63.333 29 100
c0 26 -5 50 -15 72s-22.167 40 -36.5 54s-28.166 22.667 -41.499 26c20.667 9.33301 39.334 26.5 56.001 51.5s25 51.833 25 80.5c0 32 -8 61.167 -24 87.5s-39.833 47.333 -71.5 63s-69.834 23.5 -114.501 23.5c-38 0 -74.333 -6 -109 -18z" />
    <glyph glyph-name="four" unicode="4" horiz-adv-x="560" 
d="M540 166h-105v405h-97l-328 -405l17 -107h277v-128h131v128h92zM304 363v-197h-154z" />
    <glyph glyph-name="five" unicode="5" horiz-adv-x="512" 
d="M214 238.5c15.333 9.66699 33.6689 14.5 55.002 14.5c29.333 0 53.333 -9.66699 72 -29s28 -45 28 -77c0 -34.667 -11.833 -62.334 -35.5 -83.001s-53.5 -31 -89.5 -31c-28.667 0 -54.667 3.5 -78 10.5s-49 18.167 -77 33.5l-64 -91
c32.667 -18 68.167 -32.833 106.5 -44.5s74.833 -17.5 109.5 -17.5c50 0 93.5 9.33301 130.5 28s65.5 45 85.5 79s30 72.667 30 116c-0.666992 38.667 -9.33398 73.834 -26.001 105.501s-41.667 57 -75 76s-74 28.5 -122 28.5c-30 0 -54.667 -5 -74 -15l6 119h242l14 105
h-366l-18 -360h115c5.33301 12 15.666 22.833 30.999 32.5z" />
    <glyph glyph-name="six" unicode="6" horiz-adv-x="525" 
d="M393 374c33.333 -18.667 59.502 -43.668 78.502 -75.001s28.5 -66 28.5 -104c0 -40.667 -9.33301 -76.667 -28 -108s-44.334 -55.833 -77.001 -73.5s-69.667 -26.5 -111 -26.5c-50.667 0 -95.5 10.167 -134.5 30.5s-69.5 50.333 -91.5 90s-33 87.834 -33 144.501
c0 73.333 20.333 137.5 61 192.5s91 98.5 151 130.5s119.333 51.667 178 59l18 -107c-124 -34 -208 -83.333 -252 -148c32 15.333 65.333 23 100 23c41.333 0 78.666 -9.33301 111.999 -28zM354.002 121.999c20 18.667 30 41.333 30 68c0 31.333 -10 57.5 -30 78.5
s-45.333 31.5 -76 31.5c-51.333 0 -95.333 -13.667 -132 -41c0.666992 -56 13 -97.5 37 -124.5s56.333 -40.5 97 -40.5c29.333 0 54 9.33301 74 28z" />
    <glyph glyph-name="seven" unicode="7" horiz-adv-x="474" 
d="M258 -69l196 583l-38 52h-406l16 -105h285l-174 -495z" />
    <glyph glyph-name="eight" unicode="8" horiz-adv-x="514" 
d="M149 619.5c-31.333 -15.667 -55.5 -36.8359 -72.5 -63.5029s-25.5 -56 -25.5 -88c0 -27.333 7.83301 -52.666 23.5 -75.999s36.5 -40.666 62.5 -51.999c-29.333 -10 -55.333 -30.167 -78 -60.5s-34 -61.833 -34 -94.5c0 -36.667 9.33301 -70 28 -100
s45.667 -53.833 81 -71.5s76.666 -26.5 123.999 -26.5c46.667 0 87.5 8.83301 122.5 26.5s61.833 41.667 80.5 72s28 63.5 28 99.5c0 32.667 -11.333 64.167 -34 94.5s-48.667 50.5 -78 60.5c26 12 47 29.5 63 52.5s24 48.167 24 75.5c0 32 -8.5 61.333 -25.5 88
s-41 47.834 -72 63.501s-67.167 23.5 -108.5 23.5s-77.666 -7.83301 -108.999 -23.5zM320.5 516.498c17.667 -13.667 26.5 -29.834 26.5 -48.501c0 -22.667 -7.5 -41 -22.5 -55s-37.167 -23.333 -66.5 -28c-29.333 4.66699 -51.833 13.834 -67.5 27.501
s-23.5 31.5 -23.5 53.5c0 19.333 8.66699 36 26 50s38.333 21 63 21c25.333 0 46.833 -6.83301 64.5 -20.5zM342.5 249.998c20.333 -19.333 30.5 -41.666 30.5 -66.999c0 -27.333 -11.667 -49.333 -35 -66s-50.333 -25 -81 -25c-31.333 0 -58.333 8.33301 -81 25
s-34 38.667 -34 66c0 25.333 10 47.666 30 66.999s48.667 32 86 38c36 -6 64.167 -18.667 84.5 -38z" />
    <glyph glyph-name="nine" unicode="9" horiz-adv-x="525" 
d="M375.5 548.5c39 -20.333 69.498 -50.332 91.498 -89.999s33 -87.834 33 -144.501c0 -73.333 -20.333 -137.5 -61 -192.5s-91 -98.5 -151 -130.5s-119.333 -51.667 -178 -59l-18 107c124 34 208 83.333 252 148c-32 -15.333 -65.333 -23 -100 -23
c-41.333 0 -78.666 9.33301 -111.999 28s-59.5 43.667 -78.5 75s-28.5 66 -28.5 104c0 40.667 9.33301 76.667 28 108s44.334 55.833 77.001 73.5s69.667 26.5 111 26.5c50.667 0 95.5 -10.167 134.5 -30.5zM170.998 297.501c20 -21 45.333 -31.499 76 -31.499
c51.333 0 95.333 13.667 132 41c-0.666992 56 -13 97.5 -37 124.5s-56.333 40.5 -97 40.5c-29.333 0 -54 -9.33301 -74 -28s-30 -41.334 -30 -68.001c0 -31.333 10 -57.5 30 -78.5z" />
    <glyph glyph-name="colon" unicode=":" horiz-adv-x="206" 
d="M155.5 348.5c13.667 14.333 20.499 31.833 20.499 52.5c0 20 -7 37.167 -21 51.5s-31 21.5 -51 21.5c-20.667 0 -38.167 -7.16699 -52.5 -21.5s-21.5 -31.5 -21.5 -51.5c0 -20.667 7.16699 -38.167 21.5 -52.5s31.833 -21.5 52.5 -21.5s37.834 7.16699 51.501 21.5z
M155.499 21c13.667 14 20.5 31.333 20.5 52s-6.83301 38 -20.5 52s-30.834 21 -51.501 21s-38.167 -7 -52.5 -21s-21.5 -31.333 -21.5 -52s7.16699 -38 21.5 -52s31.833 -21 52.5 -21s37.834 7 51.501 21z" />
    <glyph glyph-name="semicolon" unicode=";" horiz-adv-x="212" 
d="M56 452.5c-14.667 -14.333 -22 -31.5 -22 -51.5c0 -20.667 7.33301 -38.167 22 -52.5s32.334 -21.5 53.001 -21.5s38 7.16699 52 21.5s21 31.833 21 52.5c0 20 -7 37.167 -21 51.5s-31.333 21.5 -52 21.5s-38.334 -7.16699 -53.001 -21.5zM54.5 123
c-14.333 -15.333 -21.5 -32.334 -21.5 -51.001c0 -17.333 6.16699 -33.666 18.5 -48.999s24.5 -23 36.5 -23c-4 -19.333 -11 -35 -21 -47s-25.667 -27 -47 -45l29 -62c37.333 21.333 68.666 52.333 93.999 93s38 79.667 38 117c0 26 -7.5 47.5 -22.5 64.5
s-32.833 25.5 -53.5 25.5c-19.333 0 -36.166 -7.66699 -50.499 -23z" />
    <glyph glyph-name="less" unicode="&#x3c;" horiz-adv-x="348" 
d="M328 127l-168 118l168 118l-23 107l-275 -196v-58l275 -197z" />
    <glyph glyph-name="equal" unicode="=" horiz-adv-x="516" 
d="M477 408h-447l11 -97h445zM477 199h-447l11 -96h445z" />
    <glyph glyph-name="greater" unicode="&#x3e;" horiz-adv-x="348" 
d="M318 274l-275 196l-23 -107l168 -118l-168 -118l23 -108l275 197v58z" />
    <glyph glyph-name="question" unicode="?" horiz-adv-x="435" 
d="M102.5 687.5c-31.667 -9 -62.498 -23.168 -92.498 -42.501l17 -116c31.333 21.333 62.5 37.333 93.5 48s57.833 16 80.5 16c24.667 0 45 -6.66699 61 -20s24 -31 24 -53c0 -26.667 -15 -52.167 -45 -76.5s-69.333 -44.5 -118 -60.5l8 -165l92 -39l17 137
c47.333 24.667 86.666 56.334 117.999 95.001s47 75.667 47 111c0 54.667 -17.333 98.167 -52 130.5s-84.334 48.5 -149.001 48.5c-36 0 -69.833 -4.5 -101.5 -13.5zM117.502 124.999c-14.333 -14 -21.5 -31.333 -21.5 -52s7.16699 -38 21.5 -52s31.833 -21 52.5 -21
s38 7 52 21s21 31.333 21 52s-7 38 -21 52s-31.333 21 -52 21s-38.167 -7 -52.5 -21z" />
    <glyph glyph-name="at" unicode="@" horiz-adv-x="765" 
d="M521 434l-79.9971 -0.00390625c-40.667 0 -78.667 -8.83301 -114 -26.5s-63.833 -42.5 -85.5 -74.5s-32.5 -68.667 -32.5 -110c0 -50 15 -89.667 45 -119s74.333 -44 133 -44c14 0 28.333 2.33301 43 7s28.334 10.334 41.001 17.001c22 -16.667 48.333 -25 79 -25
c36.667 0 69.334 9.5 98.001 28.5s51.167 47 67.5 84s24.5 82.167 24.5 135.5c0 56 -13.833 106.5 -41.5 151.5s-66 80.333 -115 106s-103.5 38.5 -163.5 38.5c-78 0 -147 -17 -207 -51s-106.333 -80 -139 -138s-49 -121 -49 -189c0 -62.667 15.833 -118.5 47.5 -167.5
s73 -87 124 -114s104.5 -40.5 160.5 -40.5c40 0 76.667 2.83301 110 8.5s66.333 16.834 99 33.501l-32 99c-46.667 -24 -102.334 -36 -167.001 -36c-40.667 0 -78.334 8.83301 -113.001 26.5s-62.334 43 -83.001 76s-31 71.167 -31 114.5c0 54 13.167 101.833 39.5 143.5
s61 73.834 104 96.501s88.167 34 135.5 34c40.667 0 77.167 -8.33301 109.5 -25s57.666 -40 75.999 -70s27.5 -64 27.5 -102c0 -28 -3.66699 -52.667 -11 -74s-16.833 -37.666 -28.5 -48.999s-23.834 -17 -36.501 -17c-5.33301 0 -10.333 3 -15 9s-7 13.667 -7 23l23 195z
M427.003 207.996c-1.33301 -12.667 -5.83301 -23.501 -13.5 -32.501s-17.167 -13.5 -28.5 -13.5c-20.667 0 -36.167 6 -46.5 18s-15.5 26.333 -15.5 43c0 34.667 11.667 62.334 35 83.001s52 31 86 31z" />
    <glyph glyph-name="A" unicode="A" horiz-adv-x="659" 
d="M275 680l-265 -680h130l60 160h258l61 -170l130 18l-264 672h-110zM418 265h-180l89 237z" />
    <glyph glyph-name="B" unicode="B" horiz-adv-x="629" 
d="M539 53.5c43.333 35.667 65.001 84.5 65.001 146.5c0 76 -35 132.333 -105 169c48.667 38 73 78.333 73 121c0 65.333 -19.667 113.333 -59 144s-94 46 -164 46h-264v-680h279c73.333 -0 131.666 17.833 174.999 53.5zM408.501 553
c17.667 -12.667 26.499 -34.333 26.499 -65c0 -28 -11.333 -49.167 -34 -63.5s-53 -21.5 -91 -21.5h-96v169h116c34.667 0 60.834 -6.33301 78.501 -19zM440.5 272.001c19 -17.333 28.5 -41.667 28.5 -73c0 -29.333 -10.333 -52 -31 -68s-48.667 -24 -84 -24h-140v191h149
c32.667 0 58.5 -8.66699 77.5 -26z" />
    <glyph glyph-name="C" unicode="C" horiz-adv-x="564" 
d="M451 683c-34.667 7.33301 -64.001 11 -88.001 11c-65.333 0 -122.833 -15.167 -172.5 -45.5s-88 -72.5 -115 -126.5s-40.5 -115.667 -40.5 -185c0 -66.667 12.333 -126.5 37 -179.5s61.334 -94.833 110.001 -125.5s107.334 -46 176.001 -46c29.333 0 62.166 4 98.499 12
s67.166 18.667 92.499 32l-49 96c-50 -20.667 -99.667 -31 -149 -31c-37.333 0 -69.666 10.833 -96.999 32.5s-48.166 51 -62.499 88s-21.5 77.833 -21.5 122.5c0 50 8.16699 93.667 24.5 131s38.833 66 67.5 86s61 30 97 30c22.667 0 41.667 -1.5 57 -4.5s36 -8.5 62 -16.5
l25 -7l40 93c-26.667 14.667 -57.334 25.667 -92.001 33z" />
    <glyph glyph-name="D" unicode="D" horiz-adv-x="691" 
d="M574.5 92.5c54.333 60.333 81.5 144.169 81.5 251.502c0 66.667 -11.5 125.167 -34.5 175.5s-58 89.666 -105 117.999s-104.833 42.5 -173.5 42.5h-258v-680h258c100 1.33301 177.167 32.166 231.5 92.499zM479 511.503c28.667 -39 42.999 -94.833 42.999 -167.5
c0 -81.333 -15.833 -140.833 -47.5 -178.5s-76.167 -56.5 -133.5 -56.5h-127v461h134c58.667 0 102.334 -19.5 131.001 -58.5z" />
    <glyph glyph-name="E" unicode="E" horiz-adv-x="581" 
d="M561 0l-21 101h-326v191h243l-21 103h-222v183h297l-20 102h-406v-680h476z" />
    <glyph glyph-name="F" unicode="F" horiz-adv-x="510" 
d="M427 389h-213v189h276l-20 102h-385v-680h129v288h232z" />
    <glyph glyph-name="G" unicode="G" horiz-adv-x="630" 
d="M469 272v-166.001c-35.333 -7.33301 -68.333 -11 -99 -11c-39.333 0 -74.166 9.83301 -104.499 29.5s-53.833 48 -70.5 85s-25 79.833 -25 128.5c0 53.333 9.83301 98.5 29.5 135.5s46.167 64.833 79.5 83.5s70.666 28 111.999 28c22 0 40.5 -1.5 55.5 -4.5
s35.167 -8.16699 60.5 -15.5c-0.666992 0.666992 8.33301 -2 27 -8l41 93c-27.333 14.667 -59 25.667 -95 33s-66.333 11 -91 11c-67.333 0 -128 -15.333 -182 -46s-96.167 -73.167 -126.5 -127.5s-45.5 -115.5 -45.5 -183.5c0 -65.333 13.667 -124.666 41 -177.999
s66.5 -95.5 117.5 -126.5s110.833 -46.5 179.5 -46.5c40 0 78.333 4.66699 115 14s69 21.333 97 36v336h-248l-11 -100h143z" />
    <glyph glyph-name="H" unicode="H" horiz-adv-x="696" 
d="M611 0v680h-129v-288h-268v293l-129 -5v-680h129v288h268v-288h129z" />
    <glyph glyph-name="I" unicode="I" horiz-adv-x="299" 
d="M214 0v680h-129v-680h129z" />
    <glyph glyph-name="J" unicode="J" horiz-adv-x="294" 
d="M83 42.5c-3.33301 -9.66699 -10.167 -17.999 -20.5 -24.999s-27.833 -14.833 -52.5 -23.5l52 -96c40.667 13.333 72.167 27.166 94.5 41.499s38.333 31.5 48 51.5s14.5 45.667 14.5 77v612h-131v-593c0 -20 -1.66699 -34.833 -5 -44.5z" />
    <glyph glyph-name="K" unicode="K" horiz-adv-x="658" 
d="M487 0l-205 283l-67 -70v-213h-130v680h130v-285l295 300l96 -74l-234 -244l276 -377h-161z" />
    <glyph glyph-name="L" unicode="L" horiz-adv-x="544" 
d="M514 101h-300v579h-129v-680h449z" />
    <glyph glyph-name="M" unicode="M" horiz-adv-x="770" 
d="M427 213l127 179v-392h131v680h-79l-209 -314l-230 314h-82v-680h129v415l163 -209z" />
    <glyph glyph-name="N" unicode="N" horiz-adv-x="744" 
d="M214 0v455l315 -455h130v680h-130v-454l-315 454h-129v-680h129z" />
    <glyph glyph-name="O" unicode="O" horiz-adv-x="737" 
d="M194 648c-50.667 -30.667 -89.8311 -72.999 -117.498 -126.999s-41.5 -115.333 -41.5 -184c0 -66 13.167 -125.5 39.5 -178.5s64.666 -95 114.999 -126s109.833 -46.5 178.5 -46.5c66 1.33301 124.167 17.166 174.5 47.499s89.5 72.333 117.5 126s42 115.167 42 184.5
c0 66 -13.167 125.667 -39.5 179s-64.833 95.5 -115.5 126.5s-110.334 46.5 -179.001 46.5c-65.333 -1.33301 -123.333 -17.333 -174 -48zM197.503 468.501c18.333 37.667 42.666 66.6689 72.999 87.002s63.5 30.5 99.5 30.5c39.333 0 74 -10.333 104 -31
s53 -49.334 69 -86.001s24 -78.334 24 -125.001c0 -54 -8.83301 -99.833 -26.5 -137.5s-41.667 -65.667 -72 -84s-64.166 -27.5 -101.499 -27.5c-40 0 -74.833 10.167 -104.5 30.5s-52.5 49 -68.5 86s-24 79.167 -24 126.5c0 49.333 9.16699 92.833 27.5 130.5z" />
    <glyph glyph-name="P" unicode="P" horiz-adv-x="592" 
d="M214 237h75c50 0 96 8.16699 138 24.5s75.833 41.5 101.5 75.5s38.5 75.667 38.5 125c0 74 -24.833 128.833 -74.5 164.5s-114.5 53.5 -194.5 53.5h-213v-680h129v237zM395.5 544.5c23 -18.333 34.5 -48.5 34.5 -90.5c-2.66699 -36.667 -15.667 -64.167 -39 -82.5
s-55 -27.5 -95 -27.5h-82v228h80c44.667 0 78.5 -9.16699 101.5 -27.5z" />
    <glyph glyph-name="Q" unicode="Q" horiz-adv-x="737" 
d="M680 206c-14.667 -42 -35.6699 -78.666 -63.0029 -109.999l67 -65l-76 -67l-71 66c-50.667 -28.667 -107 -43.334 -169 -44.001c-68.667 0 -128.167 15.5 -178.5 46.5s-88.666 73 -114.999 126s-39.5 112.5 -39.5 178.5c0 68.667 13.833 130 41.5 184
s66.834 96.333 117.501 127s108.667 46.667 174 48c68.667 0 128.334 -15.5 179.001 -46.5s89.167 -73.167 115.5 -126.5s39.5 -113 39.5 -179c0 -50 -7.33301 -96 -22 -138zM448.997 112.001l-82.001 75.998l88 67l73 -71c26 42 39 95.333 39 160
c0 46.667 -8 88.334 -24 125.001s-39 65.334 -69 86.001s-64.667 31 -104 31c-36 0 -69.167 -10.167 -99.5 -30.5s-54.666 -49.333 -72.999 -87s-27.5 -81.167 -27.5 -130.5c0 -47.333 8 -89.5 24 -126.5s38.833 -65.667 68.5 -86s64.5 -30.5 104.5 -30.5
c28.667 0 56 5.66699 82 17z" />
    <glyph glyph-name="R" unicode="R" horiz-adv-x="628" 
d="M85 0l129 -0.000976562v258h122l144 -258h138l-167 292c35.333 17.333 63.5 41.333 84.5 72s31.5 66.334 31.5 107.001c0 68 -25.167 119.833 -75.5 155.5s-114.833 53.5 -193.5 53.5h-213v-680zM430 464.999c0 -34.667 -12.167 -60.167 -36.5 -76.5
s-56.833 -24.5 -97.5 -24.5h-82v208h80c90.667 0 136 -35.667 136 -107z" />
    <glyph glyph-name="S" unicode="S" horiz-adv-x="527" 
d="M143.5 5.5c41.667 -12.333 76.5 -18.5 104.5 -18.5c53.333 0 99.166 8 137.499 24s67.333 38 87 66s29.5 60.333 29.5 97c0 32.667 -7.83301 61.167 -23.5 85.5s-35.167 45 -58.5 62s-54.666 36.833 -93.999 59.5l-29 17l-32 18c-34 20 -58.5 36.5 -73.5 49.5
s-22.5 29.167 -22.5 48.5c0 22.667 9.5 39.834 28.5 51.501s43.5 17.5 73.5 17.5c26 0 50.167 -3.66699 72.5 -11s47.166 -17.666 74.499 -30.999l43 104c-70.667 34 -134.667 51 -192 51c-48.667 0 -90.5 -7.83301 -125.5 -23.5s-61.833 -37.334 -80.5 -65.001
s-28 -58.834 -28 -93.501c0 -32.667 9.5 -62.167 28.5 -88.5s41.667 -49.166 68 -68.499s61.833 -42.333 106.5 -69l30 -18c34 -18.667 59.167 -34.834 75.5 -48.501s24.5 -28.834 24.5 -45.501c0 -24 -10.333 -42.333 -31 -55s-51 -19 -91 -19
c-26 0 -54.667 4.83301 -86 14.5s-59.333 20.834 -84 33.501l-29 -105c22.667 -14 54.834 -27.167 96.501 -39.5z" />
    <glyph glyph-name="T" unicode="T" horiz-adv-x="591" 
d="M560 680h-550v-102h207v-578h131v578h233z" />
    <glyph glyph-name="U" unicode="U" horiz-adv-x="710" 
d="M75 680l1 -433c0 -48.667 11.333 -92.667 34 -132s55 -70.166 97 -92.499s90.667 -33.5 146 -33.5c56 0 105.333 11.167 148 33.5s75.667 53 99 92s35 83.167 35 132.5v433h-131v-423c0 -52.667 -13.5 -92.834 -40.5 -120.501s-63.167 -41.5 -108.5 -41.5
s-81.5 13.5 -108.5 40.5s-40.5 67.5 -40.5 121.5v423h-131z" />
    <glyph glyph-name="V" unicode="V" horiz-adv-x="659" 
d="M140 690l-130 -18l264 -672h110l265 680h-130l-187 -502z" />
    <glyph glyph-name="W" unicode="W" horiz-adv-x="925" 
d="M915 680l-205 -680h-110l-138 496l-138 -496h-110l-204 672l130 18l132 -512l127 502h130l129 -502l127 502h130z" />
    <glyph glyph-name="X" unicode="X" horiz-adv-x="637" 
d="M143 0l171 256l164 -256h136l-224 339l237 341h-135l-167 -252l-190 272l-113 -44l226 -312l-238 -344h133z" />
    <glyph glyph-name="Y" unicode="Y" horiz-adv-x="608" 
d="M362 0v260l236 420h-137l-165 -284l-158 298l-128 -37l222 -392v-265h130z" />
    <glyph glyph-name="Z" unicode="Z" horiz-adv-x="577" 
d="M547 101h-392l399 477l-15 102h-495l15 -102h344l-388 -477l15 -101h532z" />
    <glyph glyph-name="bracketleft" unicode="[" horiz-adv-x="362" 
d="M100 -88h252l-20 101h-103v581h103l20 102h-252v-784z" />
    <glyph glyph-name="backslash" unicode="\" horiz-adv-x="454" 
d="M444 0l-299 710l-135 -4l298 -710z" />
    <glyph glyph-name="bracketright" unicode="]" horiz-adv-x="362" 
d="M262 696h-252l18 -102h103v-581h-103l-18 -101h252v784z" />
    <glyph glyph-name="asciicircum" unicode="^" horiz-adv-x="454" 
d="M227 258l83 -115h134l-177 247h-79l-178 -247h135z" />
    <glyph glyph-name="underscore" unicode="_" horiz-adv-x="442" 
d="M402 101h-372l11 -101h371z" />
    <glyph glyph-name="grave" unicode="`" horiz-adv-x="205" 
d="M105 589l90 25l-51 139h-134z" />
    <glyph glyph-name="a" unicode="a" horiz-adv-x="503" 
d="M170 368.5c26.667 6.33301 50.9971 9.50195 72.9971 9.50195c24 0 42.833 -6.83301 56.5 -20.5s20.834 -32.834 21.501 -57.501h-95c-56 0 -100.667 -13.5 -134 -40.5s-50 -65.167 -50 -114.5c0 -48 14.667 -86.167 44 -114.5s73 -42.5 131 -42.5
c44.667 0 87.334 21.333 128.001 64l22 -52h85v319c0 34 -9.5 64.667 -28.5 92s-44.5 48.666 -76.5 63.999s-67.333 23 -106 23c-22.667 0 -53 -4.5 -91 -13.5s-65.667 -19.167 -83 -30.5l35 -108c18.667 8.66699 41.334 16.167 68.001 22.5zM172.497 193.002
c13 13.333 30.168 19.999 51.501 19.999h98v-74c-32.667 -32 -68.334 -48 -107.001 -48c-18 0 -32.833 5.33301 -44.5 16s-17.5 23.334 -17.5 38.001c0 18.667 6.5 34.667 19.5 48z" />
    <glyph glyph-name="b" unicode="b" horiz-adv-x="554" 
d="M463.5 429.5c43.667 -45.667 65.5 -107.499 65.5 -185.499c0 -50.667 -9.83301 -95.334 -29.5 -134.001s-48.167 -68.667 -85.5 -90s-81.666 -32 -132.999 -32c-20 0 -41 4.33301 -63 13s-42.333 19.667 -61 33l-26 -34h-66v695l129 11v-230
c29.333 14.667 59.666 22 90.999 22c75.333 0 134.833 -22.833 178.5 -68.5zM364 139.501c20.667 27 31 61.833 31 104.5s-10.167 77.167 -30.5 103.5s-48.5 39.5 -84.5 39.5c-28 0 -56.667 -9.66699 -86 -29v-231c27.333 -18.667 56 -28 86 -28
c35.333 0 63.333 13.5 84 40.5z" />
    <glyph glyph-name="c" unicode="c" horiz-adv-x="472" 
d="M367 484c-33.333 9.33301 -61.333 13.998 -84 13.998c-52 0 -97.5 -10.5 -136.5 -31.5s-69 -50.833 -90 -89.5s-31.5 -83.667 -31.5 -135s10.5 -96.166 31.5 -134.499s51 -67.833 90 -88.5s84.5 -31 136.5 -31c24.667 0 53.667 4.33301 87 13s60.333 21 81 37l-37 94
c-25.333 -11.333 -48 -19.666 -68 -24.999s-40.667 -8 -62 -8c-36.667 0 -66.667 13.333 -90 40s-35 61 -35 103s11.833 76.667 35.5 104s53.5 41 89.5 41c21.333 0 42 -2.66699 62 -8s42.667 -13.666 68 -24.999l37 93c-22.667 15.333 -50.667 27.666 -84 36.999z" />
    <glyph glyph-name="d" unicode="d" horiz-adv-x="572" 
d="M507 706l0.00195312 -706.001h-68l-30 44c-42.667 -37.333 -89.334 -56 -140.001 -56c-75.333 0 -134.833 22.833 -178.5 68.5s-65.5 107.5 -65.5 185.5c0 50.667 9.83301 95.334 29.5 134.001s48.167 68.667 85.5 90s81.666 32 132.999 32c16 0 33 -2.83301 51 -8.5
s35.333 -13.5 52 -23.5v229zM189.502 138.499c20.333 -26.333 48.501 -39.5 84.501 -39.5c17.333 0 34.166 3.33301 50.499 10s33.5 16.667 51.5 30v207c-17.333 14.667 -34 25.167 -50 31.5s-33.333 9.5 -52 9.5c-35.333 0 -63.333 -13.5 -84 -40.5s-31 -61.833 -31 -104.5
s10.167 -77.167 30.5 -103.5z" />
    <glyph glyph-name="e" unicode="e" horiz-adv-x="515" 
d="M490 244c0 47.333 -8 90.168 -24 128.501s-40.667 68.833 -74 91.5s-74.333 34 -123 34c-50 0 -93.333 -10.5 -130 -31.5s-64.834 -50.833 -84.501 -89.5s-29.5 -83.667 -29.5 -135c0 -79.333 23.833 -141.5 71.5 -186.5s117.5 -67.5 209.5 -67.5
c39.333 0 73.333 5.16699 102 15.5s55.334 25.166 80.001 44.499l-38 94c-24.667 -14 -47.667 -24.667 -69 -32s-45.333 -11 -72 -11c-46 0 -80.167 9 -102.5 27s-36.833 44 -43.5 78h327v40zM199 362.502c18 16.333 40.333 24.501 67 24.501s48.5 -8 65.5 -24
s28.833 -40 35.5 -72h-203c5.33301 31.333 17 55.166 35 71.499z" />
    <glyph glyph-name="f" unicode="f" horiz-adv-x="373" 
d="M87 384l-0.00195312 -384.001h130v384h133l-41 100h-92v19c0 26.667 5.33301 47.834 16 63.501s27 23.5 49 23.5c14 0 32 -4.33301 54 -13l37 94c-10.667 8.66699 -25.667 16 -45 22s-36.666 9 -51.999 9c-59.333 0 -105.666 -16 -138.999 -48s-50 -76.333 -50 -133v-37
h-75v-100h75z" />
    <glyph glyph-name="g" unicode="g" 
d="M507 485l0.000976562 -507.998c0 -66.667 -23.333 -117.834 -70 -153.501s-109.334 -53.5 -188.001 -53.5c-24.667 0 -58 5.16699 -100 15.5s-74.667 23.5 -98 39.5l39 92c30 -14.667 57.333 -25.334 82 -32.001s49.334 -10.334 74.001 -11.001
c39.333 0.666992 70.833 10.334 94.5 29.001s35.5 43.667 35.5 75v41c-33.333 -20.667 -69 -31 -107 -31c-75.333 0 -134.833 22.833 -178.5 68.5s-65.5 107.5 -65.5 185.5c0 50.667 9.83301 95.334 29.5 134.001s48.167 68.667 85.5 90s81.666 32 132.999 32
c22 0 45.5 -5.33301 70.5 -16s47.167 -24.334 66.5 -41.001l29 44h68zM324.501 109.002c16.333 6.66699 33.501 16.667 51.501 30v207c-17.333 14.667 -34 25.167 -50 31.5s-33.333 9.5 -52 9.5c-35.333 0 -63.333 -13.5 -84 -40.5s-31 -61.833 -31 -104.5
s10.167 -77.167 30.5 -103.5s48.5 -39.5 84.5 -39.5c17.333 0 34.166 3.33301 50.499 10z" />
    <glyph glyph-name="h" unicode="h" horiz-adv-x="575" 
d="M487 449c24.667 -34.667 37.002 -83.001 37.002 -145.001v-304h-130v298c0 30 -6.16699 53.333 -18.5 70s-29.5 25 -51.5 25c-22.667 0 -44 -5.16699 -64 -15.5s-42 -24.166 -66 -41.499v-336h-129v695l129 11v-258c27.333 16.667 55.666 29.667 84.999 39
s55.666 14 78.999 14c61.333 0 104.333 -17.333 129 -52z" />
    <glyph glyph-name="i" unicode="i" horiz-adv-x="240" 
d="M171.5 575c14.333 14 21.5 31.333 21.5 52s-7.16699 38 -21.5 52s-31.833 21 -52.5 21c-20 0 -37 -7 -51 -21s-21 -31.333 -21 -52s7 -38 21 -52s31 -21 51 -21c20.667 0 38.167 7 52.5 21zM185 0v485h-130v-485h130z" />
    <glyph glyph-name="j" unicode="j" horiz-adv-x="261" 
d="M84 575c-14 14 -21 31.333 -21 52s7 38 21 52s31.333 21 52 21s38.167 -7 52.5 -21s21.5 -31.333 21.5 -52s-7.16699 -38 -21.5 -52s-31.833 -21 -52.5 -21s-38 7 -52 21zM202 -11c0 -32.667 -4.33301 -59.834 -13 -81.501s-24.167 -40.667 -46.5 -57
s-54.5 -31.166 -96.5 -44.499l-51 99c22.667 8 39.5 17.167 50.5 27.5s18 22 21 35s4.5 30.5 4.5 52.5v465h131v-496z" />
    <glyph glyph-name="k" unicode="k" horiz-adv-x="517" 
d="M194 0v159l52 46l122 -205h149l-178 288l136 119l-73 92l-208 -191v398l-129 -11v-695h129z" />
    <glyph glyph-name="l" unicode="l" horiz-adv-x="259" 
d="M194 0v706l-129 -11v-695h129z" />
    <glyph glyph-name="m" unicode="m" horiz-adv-x="855" 
d="M767.5 456.5c24.333 -29.667 36.5039 -73.835 36.5039 -132.502v-324h-130v298c0 31.333 -4.83301 55 -14.5 71s-24.834 24 -45.501 24c-20 0 -38.333 -4.66699 -55 -14s-38 -23.333 -64 -42v-13v-324h-130v298c0 31.333 -4.83301 55 -14.5 71s-24.834 24 -45.501 24
c-20 0 -38.333 -4.66699 -55 -14s-38.334 -23.666 -65.001 -42.999v-336h-130v485h85l22 -52c30 21.333 61 38 93 50s60 18 84 18c66 0 110.667 -22 134 -66c30 20.667 60.667 36.834 92 48.501s59 17.5 83 17.5c55.333 0 95.166 -14.833 119.499 -44.5z" />
    <glyph glyph-name="n" unicode="n" horiz-adv-x="566" 
d="M185 336c24 17.333 46 31.167 66 41.5s41.333 15.5 64 15.5c22 0 39.167 -8.33301 51.5 -25s18.5 -40 18.5 -70v-298h130v304c0 62 -12.333 110.333 -37 145s-67.667 52 -129 52c-26.667 0 -57 -6 -91 -18s-66 -28.667 -96 -50l-22 52h-85v-485h130v336z" />
    <glyph glyph-name="o" unicode="o" 
d="M511 109c-21.333 -38.667 -51.5 -68.5 -90.5 -89.5s-84.5 -31.5 -136.5 -31.5s-97.5 10.333 -136.5 31s-69.167 50.167 -90.5 88.5s-32 83.166 -32 134.499s10.667 96.333 32 135s51.5 68.5 90.5 89.5s84.5 31.5 136.5 31.5s97.5 -10.333 136.5 -31
s69.167 -50.167 90.5 -88.5s32 -83.166 32 -134.499s-10.667 -96.333 -32 -135zM373.5 140c23.667 27.333 35.5 62 35.5 104s-11.667 76.333 -35 103s-53.333 40 -90 40c-36 0 -65.833 -13.667 -89.5 -41s-35.5 -62 -35.5 -104s11.667 -76.333 35 -103s53.333 -40 90 -40
c36 0 65.833 13.667 89.5 41z" />
    <glyph glyph-name="p" unicode="p" horiz-adv-x="550" 
d="M459.5 429.5c43.667 -45.667 65.499 -107.499 65.499 -185.499c0 -50.667 -9.83301 -95.334 -29.5 -134.001s-48.167 -68.667 -85.5 -90s-81.666 -32 -132.999 -32c-27.333 0 -56.333 7.66699 -87 23v-220l-129 -10v704h66l26 -33c39.333 30.667 82 46 128 46
c75.333 0 134.833 -22.833 178.5 -68.5zM359.999 139.501c20.667 27 31 61.833 31 104.5s-10.167 77.167 -30.5 103.5s-48.5 39.5 -84.5 39.5c-28 0 -56.667 -9.66699 -86 -29v-231c27.333 -18.667 56 -28 86 -28c35.333 0 63.333 13.5 84 40.5z" />
    <glyph glyph-name="q" unicode="q" 
d="M507 485l0.000976562 -694l-131 -10v238c-33.333 -20.667 -69 -31 -107 -31c-75.333 0 -134.833 22.833 -178.5 68.5s-65.5 107.5 -65.5 185.5c0 50.667 9.83301 95.334 29.5 134.001s48.167 68.667 85.5 90s81.666 32 132.999 32c22 0 45.5 -5.33301 70.5 -16
s47.167 -24.334 66.5 -41.001l29 44h68zM324.501 109c16.333 6.66699 33.501 16.667 51.501 30v207c-17.333 14.667 -34 25.167 -50 31.5s-33.333 9.5 -52 9.5c-35.333 0 -63.333 -13.5 -84 -40.5s-31 -61.833 -31 -104.5s10.167 -77.167 30.5 -103.5s48.5 -39.5 84.5 -39.5
c17.333 0 34.166 3.33301 50.499 10z" />
    <glyph glyph-name="r" unicode="r" horiz-adv-x="367" 
d="M185 296c28 24.667 58.166 45.001 90.499 61.001s59.5 24 81.5 24l-26 104c-24 0 -51.667 -8.33301 -83 -25s-58.666 -35.334 -81.999 -56.001l-43 81h-68v-485h130v296z" />
    <glyph glyph-name="s" unicode="s" horiz-adv-x="422" 
d="M108 1c33.333 -8.66699 62.333 -13.001 87 -13.001c65.333 0 115.333 13.167 150 39.5s52 63.833 52 112.5c0 38.667 -15.667 71.334 -47 98.001s-70.666 48.667 -117.999 66c-24.667 8.66699 -43.5 16.5 -56.5 23.5s-19.5 14.833 -19.5 23.5
c0 11.333 5.5 21.166 16.5 29.499s24.833 12.5 41.5 12.5c21.333 0 41.833 -2.66699 61.5 -8s42.167 -13.666 67.5 -24.999l39 87c-22.667 15.333 -50.334 27.666 -83.001 36.999s-60.334 14 -83.001 14c-58 0 -104 -13.167 -138 -39.5s-51 -62.5 -51 -108.5
c0 -36.667 15.333 -67 46 -91s69 -43.667 115 -59c56.667 -17.333 85 -39 85 -65c0 -13.333 -8.33301 -23.666 -25 -30.999s-35 -11 -55 -11c-35.333 0 -77.666 11 -126.999 33l-39 -88c20.667 -16 47.667 -28.333 81 -37z" />
    <glyph glyph-name="t" unicode="t" horiz-adv-x="381" 
d="M204 484v138l-129 -23v-115h-65v-100h65v-229c0 -55.333 17 -98.333 51 -129s81.333 -46 142 -46c16 0 33.833 3 53.5 9s34.5 13 44.5 21l-38 94c-18 -8.66699 -35.667 -13 -53 -13c-22.667 0 -40.167 8 -52.5 24s-18.5 37 -18.5 63v206h128l-40 100h-88z" />
    <glyph glyph-name="u" unicode="u" horiz-adv-x="566" 
d="M381 149c-24 -17.333 -46 -31.167 -66 -41.5s-41.333 -15.5 -64 -15.5c-22 0 -39.167 8.33301 -51.5 25s-18.5 40 -18.5 70v298h-130v-304c0 -62 12.333 -110.333 37 -145s67.667 -52 129 -52c26.667 0 57 6 91 18s66 28.667 96 50l22 -52h85v485h-130v-336z" />
    <glyph glyph-name="v" unicode="v" horiz-adv-x="502" 
d="M301 0l191 485h-137l-106 -294l-112 312l-127 -38l179 -465h112z" />
    <glyph glyph-name="w" unicode="w" horiz-adv-x="717" 
d="M552 0l155 485h-137l-69 -282l-75 282h-143l-70 -282l-75 300l-128 -38l145 -465h110l87 297l91 -297h109z" />
    <glyph glyph-name="x" unicode="x" horiz-adv-x="510" 
d="M154 0l97 146l90 -146h143l-149 228l165 257h-142l-100 -155l-110 171l-121 -37l148 -217l-165 -247h144z" />
    <glyph glyph-name="y" unicode="y" horiz-adv-x="503" 
d="M110.5 -73c-21.667 -13.333 -49.5 -27.333 -83.5 -42l46 -107c44.667 10.667 86 30.167 124 58.5s64.333 61.5 79 99.5l217 549h-137l-106 -294l-112 312l-128 -38l167 -431l-23 -57c-7.33301 -20 -21.833 -36.667 -43.5 -50z" />
    <glyph glyph-name="z" unicode="z" horiz-adv-x="443" 
d="M413 485h-388l25 -107h204l-241 -309l17 -69h400l-10 105h-244l244 306z" />
    <glyph glyph-name="braceleft" unicode="{" horiz-adv-x="294" 
d="M217.5 350c5.66699 16 8.5 35.3311 8.5 57.998c0 13.333 -1.5 24.833 -4.5 34.5s-7.5 20.5 -13.5 32.5c-6 10.667 -10.333 20.167 -13 28.5s-4 17.833 -4 28.5c0 6.66699 3.5 12.834 10.5 18.501s16.167 8.5 27.5 8.5h42l13 100h-58c-48 0 -83.667 -11.167 -107 -33.5
s-35 -53.166 -35 -92.499c0 -17.333 6.33301 -45.666 19 -84.999c9.33301 -25.333 14 -43 14 -53c0 -12.667 -4.16699 -23.167 -12.5 -31.5s-18.166 -12.5 -29.499 -12.5h-45v-86h45c11.333 0 21.166 -4.16699 29.499 -12.5s12.5 -18.833 12.5 -31.5
c0 -7.33301 -1.66699 -16.833 -5 -28.5s-7 -23.5 -11 -35.5c-0.666992 -3.33301 -3.66699 -13.166 -9 -29.499s-8 -30.5 -8 -42.5c0 -39.333 11.667 -70.333 35 -93s59 -34 107 -34h58l-13 100h-42c-11.333 0 -20.5 2.83301 -27.5 8.5s-10.5 11.834 -10.5 18.501
c0 10.667 1.33301 20.167 4 28.5s7 19.166 13 32.499c6 12 10.5 22.667 13.5 32s4.5 19.666 4.5 30.999c0 43.333 -11.667 76.666 -35 99.999c12 11.333 20.833 25 26.5 41z" />
    <glyph glyph-name="bar" unicode="|" horiz-adv-x="299" 
d="M85 713v-713l129 -10v713z" />
    <glyph glyph-name="braceright" unicode="}" horiz-adv-x="292" 
d="M66 209c0 -11.333 1.5 -21.6641 4.5 -30.9971s7.5 -20 13.5 -32c6 -13.333 10.333 -24.166 13 -32.499s4 -17.833 4 -28.5c0 -6.66699 -3.5 -12.834 -10.5 -18.501s-16.167 -8.5 -27.5 -8.5h-42l-13 -100h58c48 0 83.667 11.333 107 34s35 53.667 35 93
c0 12 -2.66699 26.167 -8 42.5s-8.33301 26.166 -9 29.499c-4 12 -7.66699 23.833 -11 35.5s-5 21.167 -5 28.5c0 12.667 4.16699 23.167 12.5 31.5s18.166 12.5 29.499 12.5h45v86h-45c-11.333 0 -21.166 4.16699 -29.499 12.5s-12.5 18.833 -12.5 31.5
c0 10 4.66699 27.667 14 53c12.667 39.333 19 67.666 19 84.999c0 39.333 -11.667 70.166 -35 92.499s-59 33.5 -107 33.5h-58l13 -100h42c11.333 0 20.5 -2.83301 27.5 -8.5s10.5 -11.834 10.5 -18.501c0 -10.667 -1.33301 -20.167 -4 -28.5s-7 -17.833 -13 -28.5
c-6 -12 -10.5 -22.833 -13.5 -32.5s-4.5 -21.167 -4.5 -34.5c0 -22.667 2.83301 -42 8.5 -58s14.5 -29.667 26.5 -41c-23.333 -23.333 -35 -56.666 -35 -99.999z" />
    <glyph glyph-name="asciitilde" unicode="~" horiz-adv-x="479" 
d="M146 172c0.666992 12 3.83496 21.3311 9.50195 27.998s11.167 10 16.5 10c14 0 25.833 -1.16699 35.5 -3.5s20.5 -6.16602 32.5 -11.499c14.667 -6 27.834 -10.333 39.501 -13s26.167 -4 43.5 -4c36 0 66 13.833 90 41.5s36 69.834 36 126.501h-116
c-0.666992 -12.667 -3.66699 -22.167 -9 -28.5s-11.333 -9.5 -18 -9.5c-12.667 0 -23.834 1.16699 -33.501 3.5s-20.834 5.83301 -33.501 10.5c-14.667 6 -27.834 10.333 -39.501 13s-26.167 4 -43.5 4c-36 0 -66 -13.833 -90 -41.5s-36 -69.5 -36 -125.5h116z" />
    <glyph glyph-name="uni00A0" unicode="&#xa0;" horiz-adv-x="236" 
 />
    <glyph glyph-name="exclamdown" unicode="&#xa1;" horiz-adv-x="207" 
d="M155.5 576.5c14.333 14.333 21.5 31.833 21.5 52.5c0 20 -7.16699 37.167 -21.5 51.5s-31.833 21.5 -52.5 21.5c-20 0 -37.167 -7.16699 -51.5 -21.5s-21.5 -31.5 -21.5 -51.5c0 -20.667 7.16699 -38.167 21.5 -52.5s31.5 -21.5 51.5 -21.5
c20.667 0 38.167 7.16699 52.5 21.5zM156 458l-105 47l-16 -505h135z" />
    <glyph glyph-name="cent" unicode="&#xa2;" horiz-adv-x="472" 
d="M451 38c-21.333 -17.333 -52.001 -30.665 -92.001 -39.998v-113h-130v107c-63.333 10.667 -113.166 38 -149.499 82s-54.5 100 -54.5 168s18 124.167 54 168.5s85.333 71.833 148 82.5v105l130 13v-124c40 -10.667 71.333 -24 94 -40l-37 -93
c-25.333 11.333 -48 19.666 -68 24.999s-40.667 8 -62 8c-36 0 -65.833 -13.667 -89.5 -41s-35.5 -62 -35.5 -104s11.667 -76.333 35 -103s53.333 -40 90 -40c21.333 0 42 2.66699 62 8s42.667 13.666 68 24.999z" />
    <glyph glyph-name="sterling" unicode="&#xa3;" horiz-adv-x="506" 
d="M496 0l-20 101h-246c14 25.333 21 58.333 21 99v91h161l-43 99h-118v96c0 26 5.16699 46.833 15.5 62.5s26.833 23.5 49.5 23.5c17.333 0 35.333 -4 54 -12l38 92c-10 9.33301 -24.667 17 -44 23s-37.333 9 -54 9c-60 0 -106.667 -16.167 -140 -48.5
s-50 -76.5 -50 -132.5v-113h-75v-99h75v-104c0 -28 -5.16699 -49.167 -15.5 -63.5s-29.5 -21.833 -57.5 -22.5l10 -101h439z" />
    <glyph glyph-name="currency" unicode="&#xa4;" horiz-adv-x="701" 
d="M575 108c24 38 36.332 82.999 36.999 134.999c-1.33301 50.667 -13.666 95 -36.999 133l96 97l-80 96l-106 -106c-41.333 22.667 -85.333 34.334 -132 35.001c-47.333 -0.666992 -93 -12.667 -137 -36l-106 107l-80 -96l99 -101c-10.667 -18 -19.167 -38.333 -25.5 -61
s-9.5 -46 -9.5 -70c0 -46.667 11.333 -90 34 -130l-98 -100l80 -96l106 108c44 -23.333 89.667 -35.333 137 -36c48 0.666992 92 12 132 34l106 -106l80 96zM459.999 176.499c-12 -20.333 -27.667 -36.333 -47 -48s-40 -17.5 -62 -17.5c-21.333 0 -41.333 6 -60 18
s-33.834 28 -45.501 48s-17.5 41.667 -17.5 65s5.83301 45 17.5 65s26.834 35.833 45.501 47.5s38.667 17.5 60 17.5c22 0 42.667 -5.83301 62 -17.5s35 -27.334 47 -47.001s18 -41.5 18 -65.5c0 -23.333 -6 -45.166 -18 -65.499z" />
    <glyph glyph-name="yen" unicode="&#xa5;" horiz-adv-x="608" 
d="M532 218h-170v-56h160l10 -96h-170v-66h-130v66h-146l-11 96h157v56h-146l-11 96h129l-194 343l128 37l158 -298l165 284h137l-206 -366h130z" />
    <glyph glyph-name="brokenbar" unicode="&#xa6;" horiz-adv-x="299" 
d="M85 713v-296l129 -11v297zM85 297v-297l129 -10v298z" />
    <glyph glyph-name="section" unicode="&#xa7;" horiz-adv-x="601" 
d="M555.5 176c-13.667 -24.667 -33.5 -45.334 -59.5 -62.001c4 -14 6 -29.333 6 -46c0 -36.667 -9.83301 -69 -29.5 -97s-48.667 -50 -87 -66s-84.166 -24 -137.499 -24c-28 0 -62.833 6.16699 -104.5 18.5s-73.834 25.5 -96.501 39.5l29 105
c24.667 -12.667 52.667 -23.834 84 -33.501s60 -14.5 86 -14.5c40 0 70.333 6.33301 91 19s31 31 31 55c0 16.667 -8.16699 31.834 -24.5 45.501s-41.5 29.834 -75.5 48.501l-30 18c-44.667 26.667 -80.167 49.667 -106.5 69s-49 42.166 -68 68.499s-28.5 55.833 -28.5 88.5
c0 30 7 57.333 21 82s34 45.334 60 62.001c-4.66699 16.667 -7 32 -7 46c0 34.667 9.33301 65.834 28 93.501s45.5 49.334 80.5 65.001s76.833 23.5 125.5 23.5c57.333 0 121.333 -17 192 -51l-43 -104c-27.333 13.333 -52.166 23.666 -74.499 30.999s-46.5 11 -72.5 11
c-30 0 -54.5 -5.83301 -73.5 -17.5s-28.5 -28.834 -28.5 -51.501c0 -19.333 7.5 -35.5 22.5 -48.5s39.5 -29.5 73.5 -49.5l32 -18l29 -17c39.333 -22.667 70.666 -42.5 93.999 -59.5s42.833 -37.667 58.5 -62s23.5 -52.833 23.5 -85.5c0 -30 -6.83301 -57.333 -20.5 -82z
M191.5 359.5c15 -13 39.5 -29.502 73.5 -49.502l32 -18l32 -19c41.333 -24 72.333 -44 93 -60c13.333 12 20 27.667 20 47c0 16.667 -8.16699 31.834 -24.5 45.501s-41.5 29.834 -75.5 48.501l-30 18c-55.333 32.667 -96 60 -122 82c-14 -12 -21 -27.333 -21 -46
c0 -19.333 7.5 -35.5 22.5 -48.5z" />
    <glyph glyph-name="dieresis" unicode="&#xa8;" horiz-adv-x="341" 
d="M121 621.5c12 12.333 18 27.5 18 45.5s-6 33.333 -18 46s-27 19 -45 19c-18.667 0 -34.334 -6.33301 -47.001 -19s-19 -28 -19 -46s6.33301 -33.167 19 -45.5s28.334 -18.5 47.001 -18.5c18 0 33 6.16699 45 18.5zM312.5 621.5c12.333 12.333 18.5 27.5 18.5 45.5
s-6.16699 33.333 -18.5 46s-27.833 19 -46.5 19c-17.333 0 -32.5 -6.33301 -45.5 -19s-19.5 -28 -19.5 -46s6.33301 -33.167 19 -45.5s28 -18.5 46 -18.5c18.667 0 34.167 6.16699 46.5 18.5z" />
    <glyph glyph-name="copyright" unicode="&#xa9;" horiz-adv-x="823" 
d="M750 530.5c-32 58.333 -77.167 104.333 -135.5 138s-126.166 50.5 -203.499 50.5s-145.166 -16.833 -203.499 -50.5s-103.333 -79.667 -135 -138s-47.5 -123.166 -47.5 -194.499c0 -70.667 15.833 -135.167 47.5 -193.5s76.667 -104.333 135 -138
s126.166 -50.5 203.499 -50.5s145.166 16.833 203.499 50.5s103.5 79.667 135.5 138s48 122.833 48 193.5c0 71.333 -16 136.166 -48 194.499zM145 495c24.667 46.667 60 83.334 106 110.001s99.333 40 160 40c61.333 0 114.833 -13.333 160.5 -40
s80.834 -63.334 105.501 -110.001s37 -99.334 37 -158.001s-12.333 -111.334 -37 -158.001s-59.834 -83.334 -105.501 -110.001s-99.167 -40 -160.5 -40c-60.667 0 -114 13.333 -160 40s-81.333 63.334 -106 110.001s-37 99.334 -37 158.001s12.333 111.334 37 158.001z
M507 114c29.333 8 53.334 19.333 72.001 34l-35 97c-24 -11.333 -43.833 -19.5 -59.5 -24.5s-33.167 -7.5 -52.5 -7.5c-30.667 0 -54.834 10.833 -72.501 32.5s-26.5 52.167 -26.5 91.5c0 38 8.83301 67.833 26.5 89.5s41.834 32.5 72.501 32.5c19.333 0 37 -2.33301 53 -7
s35.667 -12.667 59 -24l35 98c-20.667 13.333 -45.5 24.166 -74.5 32.499s-53.833 12.5 -74.5 12.5c-44 0 -83.5 -9.66699 -118.5 -29s-62.5 -46.666 -82.5 -81.999s-30 -76.333 -30 -123c0 -72 20.667 -129.167 62 -171.5s97.666 -63.5 168.999 -63.5c22 0 47.667 4 77 12z
" />
    <glyph glyph-name="ordfeminine" unicode="&#xaa;" horiz-adv-x="327" 
d="M113 605.5c17.333 4.33301 32.665 6.50195 45.998 6.50195c25.333 0 40 -12 44 -36h-55c-36 0.666992 -65.5 -8.83301 -88.5 -28.5s-34.5 -45.834 -34.5 -78.501c0 -32 9.83301 -57.667 29.5 -77s48.5 -29 86.5 -29c14.667 0 29.834 3.33301 45.501 10
s29.834 14.667 42.501 24l24 -26h49v212c0 35.333 -12.5 64 -37.5 86s-60.5 33 -106.5 33c-20 0 -40.833 -3 -62.5 -9s-39.5 -12.667 -53.5 -20l23 -82c14.667 5.33301 30.667 10.166 48 14.499zM128.999 491.502c5.33301 4.33301 12.999 6.5 22.999 6.5h54v-27
c-17.333 -12 -37.666 -18 -60.999 -18c-8 0 -14 2 -18 6s-6 9.33301 -6 16s2.66699 12.167 8 16.5z" />
    <glyph glyph-name="guillemotleft" unicode="&#xab;" horiz-adv-x="401" 
d="M30 221l160 -138l23 86l-85 76l85 76l-23 87l-160 -139v-48zM199 221l161 -138l21 86l-84 76l84 76l-21 87l-161 -139v-48z" />
    <glyph glyph-name="logicalnot" unicode="&#xac;" horiz-adv-x="514" 
d="M476 406h-466l8 -102h357v-187l109 -5v244z" />
    <glyph glyph-name="softhyphen" unicode="&#xad;" horiz-adv-x="120" 
 />
    <glyph glyph-name="registered" unicode="&#xae;" horiz-adv-x="733" 
d="M666 660.5c-28 51.667 -67.833 92.334 -119.5 122.001s-111.834 44.5 -180.501 44.5c-68 0 -127.833 -14.833 -179.5 -44.5s-91.5 -70.334 -119.5 -122.001s-42 -109.5 -42 -173.5c0 -62.667 14 -119.667 42 -171s67.833 -91.833 119.5 -121.5s111.5 -44.5 179.5 -44.5
c68.667 0 128.834 14.833 180.501 44.5s91.5 70.167 119.5 121.5s42 108.333 42 171c0 64 -14 121.833 -42 173.5zM134.5 626.5c21 40.333 51.333 71.833 91 94.5s86.5 34 140.5 34c53.333 0 100 -11.333 140 -34s70.667 -54.167 92 -94.5s32 -86.5 32 -138.5
c0 -50.667 -10.667 -96.167 -32 -136.5s-52 -72.166 -92 -95.499s-86.667 -35 -140 -35c-54 0 -100.833 11.667 -140.5 35s-70 55.166 -91 95.499s-31.5 85.833 -31.5 136.5c0 52 10.5 98.167 31.5 138.5zM460 465c20 10 35.832 23.5 47.499 40.5s17.5 37.167 17.5 60.5
c0 38 -13.667 66.667 -41 86s-62.666 29 -105.999 29h-150v-377h92v143h54l62 -143h103zM410.999 596.5c12 -5.66699 18 -17.167 18 -34.5c0 -15.333 -6.33301 -26 -19 -32s-31 -9 -55 -9h-35v84h34c26 0 45 -2.83301 57 -8.5z" />
    <glyph glyph-name="macron" unicode="&#xaf;" horiz-adv-x="282" 
d="M10 613h262l-10 103h-252v-103z" />
    <glyph glyph-name="degree" unicode="&#xb0;" horiz-adv-x="259" 
d="M45.5 690.5c-23.667 -22.333 -35.5 -49.166 -35.5 -80.499c0 -32 11.833 -58.833 35.5 -80.5s51.834 -32.5 84.501 -32.5c32 0 59.833 10.833 83.5 32.5s35.5 48.5 35.5 80.5c0 20.667 -5.5 39.667 -16.5 57s-25.667 31.166 -44 41.499s-37.833 15.5 -58.5 15.5
c-32.667 0 -60.834 -11.167 -84.501 -33.5zM157.5 580c-7.66699 -8 -16.834 -12.001 -27.501 -12.001c-10 0 -19 4.33301 -27 13s-12 18.334 -12 29.001c0 10 4 18.833 12 26.5s17 11.5 27 11.5c10.667 0 19.834 -4.16699 27.501 -12.5s11.5 -17.833 11.5 -28.5
c0 -10 -3.83301 -19 -11.5 -27z" />
    <glyph glyph-name="plusminus" unicode="&#xb1;" horiz-adv-x="469" 
d="M430 387h-137v144l-111 3v-147h-152l10 -89h142v-153l111 -5v158h146zM435 90h-402l7 -90h399z" />
    <glyph glyph-name="twosuperior" unicode="&#xb2;" horiz-adv-x="372" 
d="M13 728l44.001 -83.998c40 20.667 77 31 111 31c15.333 0 27.666 -3.83301 36.999 -11.5s14 -16.834 14 -27.501c0 -22 -4.5 -40.833 -13.5 -56.5s-23.5 -31.834 -43.5 -48.501l-137 -112v-82h327l-14 90h-155l53 43c37.333 31.333 64 59.5 80 84.5s24 52.167 24 81.5
c0 22 -6.16699 43.333 -18.5 64s-30.833 37.667 -55.5 51s-55 20 -91 20c-57.333 0 -111.333 -14.333 -162 -43z" />
    <glyph glyph-name="threesuperior" unicode="&#xb3;" horiz-adv-x="371" 
d="M93 757c-25.333 -9.33301 -51.335 -22.665 -78.002 -39.998l47 -81c15.333 12.667 30 22.167 44 28.5s30.667 9.5 50 9.5c37.333 0 56 -12 56 -36c0 -36.667 -23 -55 -69 -55h-49l13 -90h31c26.667 0 47 -5.66699 61 -17s21 -28 21 -50c0 -14.667 -6.33301 -27 -19 -37
s-29.667 -15 -51 -15c-17.333 0 -32.833 2.5 -46.5 7.5s-31.5 14.167 -53.5 27.5l-50 -83c22 -15.333 47.667 -27 77 -35s58.333 -12 87 -12c35.333 0 66.333 6.5 93 19.5s47.334 30.667 62.001 53s22 47.5 22 75.5c0 19.333 -3.66699 37.166 -11 53.499
s-16.5 29.666 -27.5 39.999s-21.5 16.833 -31.5 19.5c15.333 6.66699 29.5 19.5 42.5 38.5s19.5 39.167 19.5 60.5c0 38 -13.667 69.5 -41 94.5s-66.666 37.5 -117.999 37.5c-28.667 0 -55.667 -4.66699 -81 -14z" />
    <glyph glyph-name="acute" unicode="&#xb4;" horiz-adv-x="205" 
d="M100 589l95 164h-134l-51 -139z" />
    <glyph glyph-name="mu" unicode="&#xb5;" horiz-adv-x="576" 
d="M521 485v-484.999h-85l-22 52c-30 -21.333 -62 -38 -96 -50s-64.333 -18 -91 -18c-9.33301 0 -21.333 0.666992 -36 2v-195l-130 -10v704h130v-298c0 -30 6.16699 -53.333 18.5 -70s29.5 -25 51.5 -25c22.667 0 44 5.16699 64 15.5s42 24.166 66 41.499v336h130z" />
    <glyph glyph-name="paragraph" unicode="&#xb6;" horiz-adv-x="910" 
d="M458 578h202.001v-578h131v578h94v102h-592c-79.333 0 -143.833 -17.833 -193.5 -53.5s-74.5 -90.5 -74.5 -164.5c0 -49.333 12.667 -91 38 -125s59.166 -59.167 101.499 -75.5s88.833 -24.5 139.5 -24.5h23v-237h131v578z" />
    <glyph glyph-name="periodcentered" unicode="&#xb7;" horiz-adv-x="206" 
d="M155.5 210c13.667 14 20.5 31.333 20.5 52s-6.83301 38 -20.5 52s-30.834 21 -51.501 21s-38.167 -7 -52.5 -21s-21.5 -31.333 -21.5 -52s7.16699 -38 21.5 -52s31.833 -21 52.5 -21s37.834 7 51.501 21z" />
    <glyph glyph-name="cedilla" unicode="&#xb8;" horiz-adv-x="241" 
d="M113.5 -90.5c17 -7.66699 25.501 -17.499 25.501 -29.499c0 -6 -3.33301 -10.333 -10 -13s-14.667 -4 -24 -4c-8 0 -18.5 2.16699 -31.5 6.5s-24.167 8.83301 -33.5 13.5l-30 -76c10 -8 24.833 -14.667 44.5 -20s36.5 -8 50.5 -8c35.333 0 65.166 8.83301 89.499 26.5
s36.5 43.167 36.5 76.5c0 17.333 -6.66699 34.5 -20 51.5s-30 29.5 -50 37.5l18 42h-93l-35 -88c24.667 -2.66699 45.5 -7.83398 62.5 -15.501z" />
    <glyph glyph-name="onesuperior" unicode="&#xb9;" horiz-adv-x="309" 
d="M244 337v426h-77l-157 -69l46 -83l70 32v-306h118z" />
    <glyph glyph-name="ordmasculine" unicode="&#xba;" horiz-adv-x="385" 
d="M70 656.5c-30 -30.333 -45 -71.501 -45 -123.501c0 -52.667 14.167 -94 42.5 -124s68.166 -45.333 119.499 -46c52.667 0.666992 94.667 16 126 46s47 70.667 47 122c0 52.667 -14.667 94.334 -44 125.001s-70.666 46 -123.999 46c-51.333 0 -92 -15.167 -122 -45.5z
M237.5 591.499c8.33301 -13.667 12.499 -34.166 12.499 -61.499c0 -52 -20.333 -78 -61 -78c-19.333 0 -33.166 6.66699 -41.499 20s-12.5 33.666 -12.5 60.999c0 52.667 19.667 79 59 79c20.667 0 35.167 -6.83301 43.5 -20.5z" />
    <glyph glyph-name="guillemotright" unicode="&#xbb;" horiz-adv-x="403" 
d="M202 269l-159 139l-23 -87l85 -76l-85 -76l23 -86l159 138v48zM373 269l-161 139l-22 -87l85 -76l-85 -76l22 -86l161 138v48z" />
    <glyph glyph-name="onequarter" unicode="&#xbc;" horiz-adv-x="917" 
d="M244 763h-77l-157 -69l46 -83l70 32v-306h118v426zM35 -134h140l587 834h-141zM886 -81l11 96h-91v307h-82l-247 -307l12 -96h198v-84h119v84h80zM687 15h-89l89 107v-107z" />
    <glyph glyph-name="onehalf" unicode="&#xbd;" horiz-adv-x="927" 
d="M244 337v426h-77l-157 -69l46 -83l70 32v-306h118zM621 700l-586 -834h140l587 834h-141zM568 281l43.998 -84c40 20.667 77 31 111 31c14.667 0 26.834 -5 36.501 -15s14.5 -20.667 14.5 -32c0 -21.333 -4.16699 -38.333 -12.5 -51s-23.166 -28 -44.499 -46l-137 -112
v-82h327l-14 90h-155l53 43c37.333 31.333 64 59.5 80 84.5s24 52.167 24 81.5c0 22 -6.16699 43.333 -18.5 64s-30.833 37.667 -55.5 51s-55 20 -91 20c-57.333 0 -111.333 -14.333 -162 -43z" />
    <glyph glyph-name="threequarters" unicode="&#xbe;" horiz-adv-x="901" 
d="M93 757c-25.333 -9.33301 -51.335 -22.665 -78.002 -39.998l47 -81c15.333 12.667 30 22.167 44 28.5s30.667 9.5 50 9.5c37.333 0 56 -12 56 -36c0 -36.667 -23 -55 -69 -55h-49l13 -90h31c26.667 0 47 -5.66699 61 -17s21 -28 21 -50c0 -14.667 -6.33301 -27 -19 -37
s-29.667 -15 -51 -15c-17.333 0 -32.833 2.5 -46.5 7.5s-31.5 14.167 -53.5 27.5l-50 -83c22 -15.333 47.667 -27 77 -35s58.333 -12 87 -12c35.333 0 66.333 6.5 93 19.5s47.334 30.667 62.001 53s22 47.5 22 75.5c0 19.333 -3.66699 37.166 -11 53.499
s-16.5 29.666 -27.5 39.999s-21.5 16.833 -31.5 19.5c15.333 6.66699 29.5 19.5 42.5 38.5s19.5 39.167 19.5 60.5c0 38 -13.667 69.5 -41 94.5s-66.666 37.5 -117.999 37.5c-28.667 0 -55.667 -4.66699 -81 -14zM659.998 700.001l-586 -834h140l587 834h-141z
M790.998 322.001h-82l-248 -307l13 -96h198v-84h119v84h80l10 96h-90v307zM580.998 15.001l91 107v-107h-91z" />
    <glyph glyph-name="questiondown" unicode="&#xbf;" horiz-adv-x="434" 
d="M316.5 538.5c14.333 14.333 21.5 31.833 21.5 52.5c0 20 -7.16699 37.167 -21.5 51.5s-31.833 21.5 -52.5 21.5s-38 -7.16699 -52 -21.5s-21 -31.5 -21 -51.5c0 -20.667 7 -38.167 21 -52.5s31.333 -21.5 52 -21.5s38.167 7.16699 52.5 21.5zM331.5 -23.5
c31.667 9 62.498 23.167 92.498 42.5l-17 117c-31.333 -22.667 -62.166 -39.167 -92.499 -49.5s-57.5 -15.5 -81.5 -15.5c-24.667 0 -45 6.66699 -61 20s-24 30.666 -24 51.999c0 27.333 15 53.333 45 78s69.667 45 119 61l-9 165l-92 38l-17 -136
c-47.333 -26 -86.5 -58.167 -117.5 -96.5s-46.5 -75.166 -46.5 -110.499c0 -54 17.167 -97.333 51.5 -130s83.5 -49 147.5 -49c36.667 0 70.834 4.5 102.501 13.5z" />
    <glyph glyph-name="Agrave" unicode="&#xc0;" horiz-adv-x="659" 
d="M275 680l-265 -680h130l60 160h258l61 -170l130 18l-264 672h-110zM418 265h-180l89 237zM286 739l90 25l-51 139h-134z" />
    <glyph glyph-name="Aacute" unicode="&#xc1;" horiz-adv-x="659" 
d="M275 680l-265 -680h130l60 160h258l61 -170l130 18l-264 672h-110zM418 265h-180l89 237zM366 739l95 164h-134l-51 -139z" />
    <glyph glyph-name="Acircumflex" unicode="&#xc2;" horiz-adv-x="659" 
d="M275 680l-265 -680h130l60 160h258l61 -170l130 18l-264 672h-110zM418 265h-180l89 237zM325 804l66 -65l119 16l-152 148h-71l-152 -148l123 -16z" />
    <glyph glyph-name="Atilde" unicode="&#xc3;" horiz-adv-x="659" 
d="M275 680l-265 -680h130l60 160h258l61 -170l130 18l-264 672h-110zM418 265h-180l89 237zM393 844.5c-5.33301 -6.33301 -11.668 -9.50098 -19.001 -9.50098c-11.333 0 -20.666 1.33301 -27.999 4s-16 7 -26 13c-9.33301 6 -18.166 10.5 -26.499 13.5
s-18.833 4.5 -31.5 4.5c-30 0 -55.333 -9.66699 -76 -29s-31 -49.666 -31 -90.999h86c0 6.66699 2.83301 13.5 8.5 20.5s12.167 10.5 19.5 10.5c11.333 0 20.166 -1.33301 26.499 -4s14.5 -7 24.5 -13c8 -6 15.833 -10.667 23.5 -14s18.167 -5 31.5 -5
c30 0 55.333 9.66699 76 29s31 50 31 92h-81c0 -8 -2.66699 -15.167 -8 -21.5z" />
    <glyph glyph-name="Adieresis" unicode="&#xc4;" horiz-adv-x="659" 
d="M275 680l-265 -680h130l60 160h258l61 -170l130 18l-264 672h-110zM418 265h-180l89 237zM277 771.5c12 12.333 18 27.5 18 45.5s-6 33.333 -18 46s-27 19 -45 19c-18.667 0 -34.334 -6.33301 -47.001 -19s-19 -28 -19 -46s6.33301 -33.167 19 -45.5
s28.334 -18.5 47.001 -18.5c18 0 33 6.16699 45 18.5zM468.5 771.5c12.333 12.333 18.5 27.5 18.5 45.5s-6.16699 33.333 -18.5 46s-27.833 19 -46.5 19c-17.333 0 -32.5 -6.33301 -45.5 -19s-19.5 -28 -19.5 -46s6.33301 -33.167 19 -45.5s28 -18.5 46 -18.5
c18.667 0 34.167 6.16699 46.5 18.5z" />
    <glyph glyph-name="Aring" unicode="&#xc5;" horiz-adv-x="659" 
d="M275 680l-265 -680h130l60 160h258l61 -170l130 18l-264 672h-110zM418 265h-180l89 237zM250 913.5c-21.333 -19.667 -32 -43.5 -32 -71.5s10.5 -51.333 31.5 -70s46.167 -28 75.5 -28s54.5 9.33301 75.5 28s31.5 42 31.5 70s-10.667 51.833 -32 71.5
s-46.333 29.5 -75 29.5s-53.667 -9.83301 -75 -29.5zM297 814c-8 8 -12 17.333 -12 28s4 19.834 12 27.501s17.333 11.5 28 11.5s19.834 -3.83301 27.501 -11.5s11.5 -16.834 11.5 -27.501s-3.83301 -20 -11.5 -28s-16.834 -12 -27.501 -12s-20 4 -28 12z" />
    <glyph glyph-name="AE" unicode="&#xc6;" horiz-adv-x="962" 
d="M124 -10l110 170h232v-160h476l-20 101h-325v191h243l-21 103h-222v183h296l-19 102h-421l-453 -672zM466 502v-237h-162z" />
    <glyph glyph-name="Ccedilla" unicode="&#xc7;" horiz-adv-x="564" 
d="M441 -66.5c13.333 -17 20 -34.1689 20 -51.502c0 -33.333 -12.167 -58.833 -36.5 -76.5s-54.166 -26.5 -89.499 -26.5c-14 0 -30.833 2.66699 -50.5 8s-34.5 12 -44.5 20l30 76c9.33301 -4.66699 20.5 -9.16699 33.5 -13.5s23.5 -6.5 31.5 -6.5
c9.33301 0 17.333 1.33301 24 4s10 7 10 13c0 12 -8.5 21.833 -25.5 29.5s-37.833 12.834 -62.5 15.501l26 64c-58 7.33301 -107.5 27.166 -148.5 59.499s-71.833 73.333 -92.5 123s-31 104.834 -31 165.501c0 69.333 13.5 131 40.5 185s65.333 96.167 115 126.5
s107.167 45.5 172.5 45.5c24 0 53.333 -3.66699 88 -11s65.334 -18.333 92.001 -33l-40 -93l-25 7c-26 8 -46.667 13.5 -62 16.5s-34.333 4.5 -57 4.5c-36 0 -68.333 -10 -97 -30s-51.167 -48.667 -67.5 -86s-24.5 -81 -24.5 -131c0 -44.667 7.16699 -85.5 21.5 -122.5
s35.166 -66.333 62.499 -88s59.666 -32.5 96.999 -32.5c49.333 0 99 10.333 149 31l49 -96c-20 -10 -43.5 -18.667 -70.5 -26s-53.833 -12.666 -80.5 -15.999l-7 -17c20 -8 36.667 -20.5 50 -37.5z" />
    <glyph glyph-name="Egrave" unicode="&#xc8;" horiz-adv-x="581" 
d="M561 0l-21 101h-326v191h243l-21 103h-222v183h297l-20 102h-406v-680h476zM261 739l90 25l-51 139h-134z" />
    <glyph glyph-name="Eacute" unicode="&#xc9;" horiz-adv-x="581" 
d="M561 0l-21 101h-326v191h243l-21 103h-222v183h297l-20 102h-406v-680h476zM341 739l95 164h-134l-51 -139z" />
    <glyph glyph-name="Ecircumflex" unicode="&#xca;" horiz-adv-x="581" 
d="M561 0l-21 101h-326v191h243l-21 103h-222v183h297l-20 102h-406v-680h476zM300 804l66 -65l119 16l-152 148h-71l-152 -148l123 -16z" />
    <glyph glyph-name="Edieresis" unicode="&#xcb;" horiz-adv-x="581" 
d="M561 0l-21 101h-326v191h243l-21 103h-222v183h297l-20 102h-406v-680h476zM252 771.5c12 12.333 18 27.5 18 45.5s-6 33.333 -18 46s-27 19 -45 19c-18.667 0 -34.334 -6.33301 -47.001 -19s-19 -28 -19 -46s6.33301 -33.167 19 -45.5s28.334 -18.5 47.001 -18.5
c18 0 33 6.16699 45 18.5zM443.5 771.5c12.333 12.333 18.5 27.5 18.5 45.5s-6.16699 33.333 -18.5 46s-27.833 19 -46.5 19c-17.333 0 -32.5 -6.33301 -45.5 -19s-19.5 -28 -19.5 -46s6.33301 -33.167 19 -45.5s28 -18.5 46 -18.5c18.667 0 34.167 6.16699 46.5 18.5z" />
    <glyph glyph-name="Igrave" unicode="&#xcc;" horiz-adv-x="299" 
d="M214 0v680h-129v-680h129zM111 739l90 25l-51 139h-134z" />
    <glyph glyph-name="Iacute" unicode="&#xcd;" horiz-adv-x="299" 
d="M214 0v680h-129v-680h129zM191 739l95 164h-134l-51 -139z" />
    <glyph glyph-name="Icircumflex" unicode="&#xce;" horiz-adv-x="299" 
d="M214 0v680h-129v-680h129zM150 804l66 -65l119 16l-152 148h-71l-152 -148l123 -16z" />
    <glyph glyph-name="Idieresis" unicode="&#xcf;" horiz-adv-x="299" 
d="M214 0v680h-129v-680h129zM102 771.5c12 12.333 18 27.5 18 45.5s-6 33.333 -18 46s-27 19 -45 19c-18.667 0 -34.334 -6.33301 -47.001 -19s-19 -28 -19 -46s6.33301 -33.167 19 -45.5s28.334 -18.5 47.001 -18.5c18 0 33 6.16699 45 18.5zM293.5 771.5
c12.333 12.333 18.5 27.5 18.5 45.5s-6.16699 33.333 -18.5 46s-27.833 19 -46.5 19c-17.333 0 -32.5 -6.33301 -45.5 -19s-19.5 -28 -19.5 -46s6.33301 -33.167 19 -45.5s28 -18.5 46 -18.5c18.667 0 34.167 6.16699 46.5 18.5z" />
    <glyph glyph-name="Eth" unicode="&#xd0;" horiz-adv-x="691" 
d="M516.5 637.5c47 -28.333 82 -67.667 105 -118s34.5 -108.833 34.5 -175.5c0 -106 -27.333 -189.5 -82 -250.5s-131.667 -92.5 -231 -94.5l-258 1v291h-56l-11 101h67v288h258c68.667 0 126.5 -14.167 173.5 -42.5zM474.5 165.499
c31.667 37.667 47.501 97.167 47.501 178.5c0 72.667 -14.333 128.5 -43 167.5s-72.334 58.5 -131.001 58.5h-134v-178h72l9 -101h-81v-182h127c57.333 0 101.833 18.833 133.5 56.5z" />
    <glyph glyph-name="Ntilde" unicode="&#xd1;" horiz-adv-x="744" 
d="M214 0v455l315 -455h130v680h-130v-454l-315 454h-129v-680h129zM444 844.5c-5.33301 -6.33301 -11.668 -9.50098 -19.001 -9.50098c-11.333 0 -20.666 1.33301 -27.999 4s-16 7 -26 13c-9.33301 6 -18.166 10.5 -26.499 13.5s-18.833 4.5 -31.5 4.5
c-30 0 -55.333 -9.66699 -76 -29s-31 -49.666 -31 -90.999h86c0 6.66699 2.83301 13.5 8.5 20.5s12.167 10.5 19.5 10.5c11.333 0 20.166 -1.33301 26.499 -4s14.5 -7 24.5 -13c8 -6 15.833 -10.667 23.5 -14s18.167 -5 31.5 -5c30 0 55.333 9.66699 76 29s31 50 31 92h-81
c0 -8 -2.66699 -15.167 -8 -21.5z" />
    <glyph glyph-name="Ograve" unicode="&#xd2;" horiz-adv-x="737" 
d="M194 648c-50.667 -30.667 -89.8311 -72.999 -117.498 -126.999s-41.5 -115.333 -41.5 -184c0 -66 13.167 -125.5 39.5 -178.5s64.666 -95 114.999 -126s109.833 -46.5 178.5 -46.5c66 1.33301 124.167 17.166 174.5 47.499s89.5 72.333 117.5 126s42 115.167 42 184.5
c0 66 -13.167 125.667 -39.5 179s-64.833 95.5 -115.5 126.5s-110.334 46.5 -179.001 46.5c-65.333 -1.33301 -123.333 -17.333 -174 -48zM197.503 468.501c18.333 37.667 42.666 66.6689 72.999 87.002s63.5 30.5 99.5 30.5c39.333 0 74 -10.333 104 -31
s53 -49.334 69 -86.001s24 -78.334 24 -125.001c0 -54 -8.83301 -99.833 -26.5 -137.5s-41.667 -65.667 -72 -84s-64.166 -27.5 -101.499 -27.5c-40 0 -74.833 10.167 -104.5 30.5s-52.5 49 -68.5 86s-24 79.167 -24 126.5c0 49.333 9.16699 92.833 27.5 130.5z
M327.003 739.003l90 25l-51 139h-134z" />
    <glyph glyph-name="Oacute" unicode="&#xd3;" horiz-adv-x="737" 
d="M194 648c-50.667 -30.667 -89.8311 -72.999 -117.498 -126.999s-41.5 -115.333 -41.5 -184c0 -66 13.167 -125.5 39.5 -178.5s64.666 -95 114.999 -126s109.833 -46.5 178.5 -46.5c66 1.33301 124.167 17.166 174.5 47.499s89.5 72.333 117.5 126s42 115.167 42 184.5
c0 66 -13.167 125.667 -39.5 179s-64.833 95.5 -115.5 126.5s-110.334 46.5 -179.001 46.5c-65.333 -1.33301 -123.333 -17.333 -174 -48zM197.503 468.501c18.333 37.667 42.666 66.6689 72.999 87.002s63.5 30.5 99.5 30.5c39.333 0 74 -10.333 104 -31
s53 -49.334 69 -86.001s24 -78.334 24 -125.001c0 -54 -8.83301 -99.833 -26.5 -137.5s-41.667 -65.667 -72 -84s-64.166 -27.5 -101.499 -27.5c-40 0 -74.833 10.167 -104.5 30.5s-52.5 49 -68.5 86s-24 79.167 -24 126.5c0 49.333 9.16699 92.833 27.5 130.5z
M407.003 739.003l95 164h-134l-51 -139z" />
    <glyph glyph-name="Ocircumflex" unicode="&#xd4;" horiz-adv-x="737" 
d="M194 648c-50.667 -30.667 -89.8311 -72.999 -117.498 -126.999s-41.5 -115.333 -41.5 -184c0 -66 13.167 -125.5 39.5 -178.5s64.666 -95 114.999 -126s109.833 -46.5 178.5 -46.5c66 1.33301 124.167 17.166 174.5 47.499s89.5 72.333 117.5 126s42 115.167 42 184.5
c0 66 -13.167 125.667 -39.5 179s-64.833 95.5 -115.5 126.5s-110.334 46.5 -179.001 46.5c-65.333 -1.33301 -123.333 -17.333 -174 -48zM197.503 468.501c18.333 37.667 42.666 66.6689 72.999 87.002s63.5 30.5 99.5 30.5c39.333 0 74 -10.333 104 -31
s53 -49.334 69 -86.001s24 -78.334 24 -125.001c0 -54 -8.83301 -99.833 -26.5 -137.5s-41.667 -65.667 -72 -84s-64.166 -27.5 -101.499 -27.5c-40 0 -74.833 10.167 -104.5 30.5s-52.5 49 -68.5 86s-24 79.167 -24 126.5c0 49.333 9.16699 92.833 27.5 130.5z
M366.003 804.003l66 -65l119 16l-152 148h-71l-152 -148l123 -16z" />
    <glyph glyph-name="Otilde" unicode="&#xd5;" horiz-adv-x="737" 
d="M194 648c-50.667 -30.667 -89.8311 -72.999 -117.498 -126.999s-41.5 -115.333 -41.5 -184c0 -66 13.167 -125.5 39.5 -178.5s64.666 -95 114.999 -126s109.833 -46.5 178.5 -46.5c66 1.33301 124.167 17.166 174.5 47.499s89.5 72.333 117.5 126s42 115.167 42 184.5
c0 66 -13.167 125.667 -39.5 179s-64.833 95.5 -115.5 126.5s-110.334 46.5 -179.001 46.5c-65.333 -1.33301 -123.333 -17.333 -174 -48zM197.503 468.501c18.333 37.667 42.666 66.6689 72.999 87.002s63.5 30.5 99.5 30.5c39.333 0 74 -10.333 104 -31
s53 -49.334 69 -86.001s24 -78.334 24 -125.001c0 -54 -8.83301 -99.833 -26.5 -137.5s-41.667 -65.667 -72 -84s-64.166 -27.5 -101.499 -27.5c-40 0 -74.833 10.167 -104.5 30.5s-52.5 49 -68.5 86s-24 79.167 -24 126.5c0 49.333 9.16699 92.833 27.5 130.5z
M434.003 844.503c-5.33301 -6.33301 -11.668 -9.50098 -19.001 -9.50098c-11.333 0 -20.666 1.33301 -27.999 4s-16 7 -26 13c-9.33301 6 -18.166 10.5 -26.499 13.5s-18.833 4.5 -31.5 4.5c-30 0 -55.333 -9.66699 -76 -29s-31 -49.666 -31 -90.999h86
c0 6.66699 2.83301 13.5 8.5 20.5s12.167 10.5 19.5 10.5c11.333 0 20.166 -1.33301 26.499 -4s14.5 -7 24.5 -13c8 -6 15.833 -10.667 23.5 -14s18.167 -5 31.5 -5c30 0 55.333 9.66699 76 29s31 50 31 92h-81c0 -8 -2.66699 -15.167 -8 -21.5z" />
    <glyph glyph-name="Odieresis" unicode="&#xd6;" horiz-adv-x="737" 
d="M194 648c-50.667 -30.667 -89.8311 -72.999 -117.498 -126.999s-41.5 -115.333 -41.5 -184c0 -66 13.167 -125.5 39.5 -178.5s64.666 -95 114.999 -126s109.833 -46.5 178.5 -46.5c66 1.33301 124.167 17.166 174.5 47.499s89.5 72.333 117.5 126s42 115.167 42 184.5
c0 66 -13.167 125.667 -39.5 179s-64.833 95.5 -115.5 126.5s-110.334 46.5 -179.001 46.5c-65.333 -1.33301 -123.333 -17.333 -174 -48zM197.503 468.501c18.333 37.667 42.666 66.6689 72.999 87.002s63.5 30.5 99.5 30.5c39.333 0 74 -10.333 104 -31
s53 -49.334 69 -86.001s24 -78.334 24 -125.001c0 -54 -8.83301 -99.833 -26.5 -137.5s-41.667 -65.667 -72 -84s-64.166 -27.5 -101.499 -27.5c-40 0 -74.833 10.167 -104.5 30.5s-52.5 49 -68.5 86s-24 79.167 -24 126.5c0 49.333 9.16699 92.833 27.5 130.5z
M318.003 771.503c12 12.333 18 27.5 18 45.5s-6 33.333 -18 46s-27 19 -45 19c-18.667 0 -34.334 -6.33301 -47.001 -19s-19 -28 -19 -46s6.33301 -33.167 19 -45.5s28.334 -18.5 47.001 -18.5c18 0 33 6.16699 45 18.5zM509.503 771.503c12.333 12.333 18.5 27.5 18.5 45.5
s-6.16699 33.333 -18.5 46s-27.833 19 -46.5 19c-17.333 0 -32.5 -6.33301 -45.5 -19s-19.5 -28 -19.5 -46s6.33301 -33.167 19 -45.5s28 -18.5 46 -18.5c18.667 0 34.167 6.16699 46.5 18.5z" />
    <glyph glyph-name="multiply" unicode="&#xd7;" horiz-adv-x="569" 
d="M346 256l177 -227h-133l-107 137l-119 -137h-134l193 228l-177 227h133l107 -137l119 137h134z" />
    <glyph glyph-name="Oslash" unicode="&#xd8;" horiz-adv-x="737" 
d="M547 649.5c50.667 -31 89.1641 -73.168 115.497 -126.501s39.5 -113 39.5 -179c0 -69.333 -14 -130.833 -42 -184.5s-67.167 -95.667 -117.5 -126s-108.5 -46.166 -174.5 -47.499c-68.667 0 -128.167 15.5 -178.5 46.5s-88.666 73 -114.999 126s-39.5 112.5 -39.5 178.5
c0 68.667 13.833 130 41.5 184s66.834 96.333 117.501 127s108.667 46.667 174 48c68.667 0 128.334 -15.5 179.001 -46.5zM270.497 555.499c-30.333 -20.333 -54.667 -49.335 -73 -87.002s-27.5 -81.167 -27.5 -130.5c0 -37.333 5 -71.666 15 -102.999
s24.667 -57.666 44 -78.999l178 427c-12 2 -24.333 3 -37 3c-36 0 -69.167 -10.167 -99.5 -30.5zM468.496 122.497c30.333 18.333 54.333 46.333 72 84s26.5 83.5 26.5 137.5c0 70 -17 127 -51 171l-175 -418c10.667 -1.33301 19.334 -2 26.001 -2
c37.333 0 71.166 9.16699 101.499 27.5z" />
    <glyph glyph-name="Ugrave" unicode="&#xd9;" horiz-adv-x="710" 
d="M75 680l1 -433c0 -48.667 11.333 -92.667 34 -132s55 -70.166 97 -92.499s90.667 -33.5 146 -33.5c56 0 105.333 11.167 148 33.5s75.667 53 99 92s35 83.167 35 132.5v433h-131v-423c0 -52.667 -13.5 -92.834 -40.5 -120.501s-63.167 -41.5 -108.5 -41.5
s-81.5 13.5 -108.5 40.5s-40.5 67.5 -40.5 121.5v423h-131zM314 739l90 25l-51 139h-134z" />
    <glyph glyph-name="Uacute" unicode="&#xda;" horiz-adv-x="710" 
d="M75 680l1 -433c0 -48.667 11.333 -92.667 34 -132s55 -70.166 97 -92.499s90.667 -33.5 146 -33.5c56 0 105.333 11.167 148 33.5s75.667 53 99 92s35 83.167 35 132.5v433h-131v-423c0 -52.667 -13.5 -92.834 -40.5 -120.501s-63.167 -41.5 -108.5 -41.5
s-81.5 13.5 -108.5 40.5s-40.5 67.5 -40.5 121.5v423h-131zM394 739l95 164h-134l-51 -139z" />
    <glyph glyph-name="Ucircumflex" unicode="&#xdb;" horiz-adv-x="710" 
d="M75 680l1 -433c0 -48.667 11.333 -92.667 34 -132s55 -70.166 97 -92.499s90.667 -33.5 146 -33.5c56 0 105.333 11.167 148 33.5s75.667 53 99 92s35 83.167 35 132.5v433h-131v-423c0 -52.667 -13.5 -92.834 -40.5 -120.501s-63.167 -41.5 -108.5 -41.5
s-81.5 13.5 -108.5 40.5s-40.5 67.5 -40.5 121.5v423h-131zM353 804l66 -65l119 16l-152 148h-71l-152 -148l123 -16z" />
    <glyph glyph-name="Udieresis" unicode="&#xdc;" horiz-adv-x="710" 
d="M75 680l1 -433c0 -48.667 11.333 -92.667 34 -132s55 -70.166 97 -92.499s90.667 -33.5 146 -33.5c56 0 105.333 11.167 148 33.5s75.667 53 99 92s35 83.167 35 132.5v433h-131v-423c0 -52.667 -13.5 -92.834 -40.5 -120.501s-63.167 -41.5 -108.5 -41.5
s-81.5 13.5 -108.5 40.5s-40.5 67.5 -40.5 121.5v423h-131zM305 771.5c12 12.333 18 27.5 18 45.5s-6 33.333 -18 46s-27 19 -45 19c-18.667 0 -34.334 -6.33301 -47.001 -19s-19 -28 -19 -46s6.33301 -33.167 19 -45.5s28.334 -18.5 47.001 -18.5c18 0 33 6.16699 45 18.5z
M496.5 771.5c12.333 12.333 18.5 27.5 18.5 45.5s-6.16699 33.333 -18.5 46s-27.833 19 -46.5 19c-17.333 0 -32.5 -6.33301 -45.5 -19s-19.5 -28 -19.5 -46s6.33301 -33.167 19 -45.5s28 -18.5 46 -18.5c18.667 0 34.167 6.16699 46.5 18.5z" />
    <glyph glyph-name="Yacute" unicode="&#xdd;" horiz-adv-x="608" 
d="M362 0v260l236 420h-137l-165 -284l-158 298l-128 -37l222 -392v-265h130zM335 739l95 164h-134l-51 -139z" />
    <glyph glyph-name="Thorn" unicode="&#xde;" horiz-adv-x="607" 
d="M492.5 546.5c49.667 -35.667 74.5 -90.5 74.5 -164.5c0 -49.333 -12.833 -91 -38.5 -125s-59.5 -59.167 -101.5 -75.5s-88 -24.5 -138 -24.5h-75v-157h-129v680h129v-80h84c80 0 144.833 -17.833 194.5 -53.5zM391 291.5c23.333 18.333 36.333 45.833 39 82.5
c0 42 -11.5 72.167 -34.5 90.5s-56.833 27.5 -101.5 27.5h-80v-228h82c40 0 71.667 9.16699 95 27.5z" />
    <glyph glyph-name="germandbls" unicode="&#xdf;" horiz-adv-x="626" 
d="M194 0l-0.00195312 471c0 36 10.5 64.833 31.5 86.5s47.833 32.5 80.5 32.5c29.333 0 54.166 -8.33301 74.499 -25s30.5 -38.667 30.5 -66c0 -26.667 -10.667 -49.334 -32 -68.001s-49.333 -28 -84 -28h-35v-104h94c28.667 0 53.334 -9.66699 74.001 -29s31 -43 31 -71
c0 -26 -11.167 -47.833 -33.5 -65.5s-49.166 -26.5 -80.499 -26.5h-91v-107h100c48 0 90.333 8 127 24s65 38.667 85 68s30 63.666 30 102.999c0 28.667 -6.33301 55.5 -19 80.5s-29 46 -49 63s-40.667 28.167 -62 33.5c22.667 10.667 41.834 29.334 57.501 56.001
s23.5 53.334 23.5 80.001c0 62 -23 109.833 -69 143.5s-105.333 50.5 -178 50.5c-73.333 0 -130.833 -20.833 -172.5 -62.5s-62.5 -97.167 -62.5 -166.5v-473h129z" />
    <glyph glyph-name="agrave" unicode="&#xe0;" horiz-adv-x="503" 
d="M170 368.5c26.667 6.33301 50.9971 9.50195 72.9971 9.50195c24 0 42.833 -6.83301 56.5 -20.5s20.834 -32.834 21.501 -57.501h-95c-56 0 -100.667 -13.5 -134 -40.5s-50 -65.167 -50 -114.5c0 -48 14.667 -86.167 44 -114.5s73 -42.5 131 -42.5
c44.667 0 87.334 21.333 128.001 64l22 -52h85v319c0 34 -9.5 64.667 -28.5 92s-44.5 48.666 -76.5 63.999s-67.333 23 -106 23c-22.667 0 -53 -4.5 -91 -13.5s-65.667 -19.167 -83 -30.5l35 -108c18.667 8.66699 41.334 16.167 68.001 22.5zM172.497 193.002
c13 13.333 30.168 19.999 51.501 19.999h98v-74c-32.667 -32 -68.334 -48 -107.001 -48c-18 0 -32.833 5.33301 -44.5 16s-17.5 23.334 -17.5 38.001c0 18.667 6.5 34.667 19.5 48zM235.998 589.001l90 25l-51 139h-134z" />
    <glyph glyph-name="aacute" unicode="&#xe1;" horiz-adv-x="503" 
d="M170 368.5c26.667 6.33301 50.9971 9.50195 72.9971 9.50195c24 0 42.833 -6.83301 56.5 -20.5s20.834 -32.834 21.501 -57.501h-95c-56 0 -100.667 -13.5 -134 -40.5s-50 -65.167 -50 -114.5c0 -48 14.667 -86.167 44 -114.5s73 -42.5 131 -42.5
c44.667 0 87.334 21.333 128.001 64l22 -52h85v319c0 34 -9.5 64.667 -28.5 92s-44.5 48.666 -76.5 63.999s-67.333 23 -106 23c-22.667 0 -53 -4.5 -91 -13.5s-65.667 -19.167 -83 -30.5l35 -108c18.667 8.66699 41.334 16.167 68.001 22.5zM172.497 193.002
c13 13.333 30.168 19.999 51.501 19.999h98v-74c-32.667 -32 -68.334 -48 -107.001 -48c-18 0 -32.833 5.33301 -44.5 16s-17.5 23.334 -17.5 38.001c0 18.667 6.5 34.667 19.5 48zM263.998 589.001l95 164h-134l-51 -139z" />
    <glyph glyph-name="acircumflex" unicode="&#xe2;" horiz-adv-x="503" 
d="M170 368.5c26.667 6.33301 50.9971 9.50195 72.9971 9.50195c24 0 42.833 -6.83301 56.5 -20.5s20.834 -32.834 21.501 -57.501h-95c-56 0 -100.667 -13.5 -134 -40.5s-50 -65.167 -50 -114.5c0 -48 14.667 -86.167 44 -114.5s73 -42.5 131 -42.5
c44.667 0 87.334 21.333 128.001 64l22 -52h85v319c0 34 -9.5 64.667 -28.5 92s-44.5 48.666 -76.5 63.999s-67.333 23 -106 23c-22.667 0 -53 -4.5 -91 -13.5s-65.667 -19.167 -83 -30.5l35 -108c18.667 8.66699 41.334 16.167 68.001 22.5zM172.497 193.002
c13 13.333 30.168 19.999 51.501 19.999h98v-74c-32.667 -32 -68.334 -48 -107.001 -48c-18 0 -32.833 5.33301 -44.5 16s-17.5 23.334 -17.5 38.001c0 18.667 6.5 34.667 19.5 48zM249.998 654.001l66 -65l119 16l-152 148h-71l-152 -148l123 -16z" />
    <glyph glyph-name="atilde" unicode="&#xe3;" horiz-adv-x="503" 
d="M170 368.5c26.667 6.33301 50.9971 9.50195 72.9971 9.50195c24 0 42.833 -6.83301 56.5 -20.5s20.834 -32.834 21.501 -57.501h-95c-56 0 -100.667 -13.5 -134 -40.5s-50 -65.167 -50 -114.5c0 -48 14.667 -86.167 44 -114.5s73 -42.5 131 -42.5
c44.667 0 87.334 21.333 128.001 64l22 -52h85v319c0 34 -9.5 64.667 -28.5 92s-44.5 48.666 -76.5 63.999s-67.333 23 -106 23c-22.667 0 -53 -4.5 -91 -13.5s-65.667 -19.167 -83 -30.5l35 -108c18.667 8.66699 41.334 16.167 68.001 22.5zM172.497 193.002
c13 13.333 30.168 19.999 51.501 19.999h98v-74c-32.667 -32 -68.334 -48 -107.001 -48c-18 0 -32.833 5.33301 -44.5 16s-17.5 23.334 -17.5 38.001c0 18.667 6.5 34.667 19.5 48zM323.998 694.501c-5.33301 -6.33301 -11.668 -9.50098 -19.001 -9.50098
c-11.333 0 -20.666 1.33301 -27.999 4s-16 7 -26 13c-9.33301 6 -18.166 10.5 -26.499 13.5s-18.833 4.5 -31.5 4.5c-30 0 -55.333 -9.66699 -76 -29s-31 -49.666 -31 -90.999h86c0 6.66699 2.83301 13.5 8.5 20.5s12.167 10.5 19.5 10.5
c11.333 0 20.166 -1.33301 26.499 -4s14.5 -7 24.5 -13c8 -6 15.833 -10.667 23.5 -14s18.167 -5 31.5 -5c30 0 55.333 9.66699 76 29s31 50 31 92h-81c0 -8 -2.66699 -15.167 -8 -21.5z" />
    <glyph glyph-name="adieresis" unicode="&#xe4;" horiz-adv-x="503" 
d="M170 368.5c26.667 6.33301 50.9971 9.50195 72.9971 9.50195c24 0 42.833 -6.83301 56.5 -20.5s20.834 -32.834 21.501 -57.501h-95c-56 0 -100.667 -13.5 -134 -40.5s-50 -65.167 -50 -114.5c0 -48 14.667 -86.167 44 -114.5s73 -42.5 131 -42.5
c44.667 0 87.334 21.333 128.001 64l22 -52h85v319c0 34 -9.5 64.667 -28.5 92s-44.5 48.666 -76.5 63.999s-67.333 23 -106 23c-22.667 0 -53 -4.5 -91 -13.5s-65.667 -19.167 -83 -30.5l35 -108c18.667 8.66699 41.334 16.167 68.001 22.5zM172.497 193.002
c13 13.333 30.168 19.999 51.501 19.999h98v-74c-32.667 -32 -68.334 -48 -107.001 -48c-18 0 -32.833 5.33301 -44.5 16s-17.5 23.334 -17.5 38.001c0 18.667 6.5 34.667 19.5 48zM193.998 621.501c12 12.333 18 27.5 18 45.5s-6 33.333 -18 46s-27 19 -45 19
c-18.667 0 -34.334 -6.33301 -47.001 -19s-19 -28 -19 -46s6.33301 -33.167 19 -45.5s28.334 -18.5 47.001 -18.5c18 0 33 6.16699 45 18.5zM385.498 621.501c12.333 12.333 18.5 27.5 18.5 45.5s-6.16699 33.333 -18.5 46s-27.833 19 -46.5 19
c-17.333 0 -32.5 -6.33301 -45.5 -19s-19.5 -28 -19.5 -46s6.33301 -33.167 19 -45.5s28 -18.5 46 -18.5c18.667 0 34.167 6.16699 46.5 18.5z" />
    <glyph glyph-name="aring" unicode="&#xe5;" horiz-adv-x="503" 
d="M170 368.5c26.667 6.33301 50.9971 9.50195 72.9971 9.50195c24 0 42.833 -6.83301 56.5 -20.5s20.834 -32.834 21.501 -57.501h-95c-56 0 -100.667 -13.5 -134 -40.5s-50 -65.167 -50 -114.5c0 -48 14.667 -86.167 44 -114.5s73 -42.5 131 -42.5
c44.667 0 87.334 21.333 128.001 64l22 -52h85v319c0 34 -9.5 64.667 -28.5 92s-44.5 48.666 -76.5 63.999s-67.333 23 -106 23c-22.667 0 -53 -4.5 -91 -13.5s-65.667 -19.167 -83 -30.5l35 -108c18.667 8.66699 41.334 16.167 68.001 22.5zM172.497 193.002
c13 13.333 30.168 19.999 51.501 19.999h98v-74c-32.667 -32 -68.334 -48 -107.001 -48c-18 0 -32.833 5.33301 -44.5 16s-17.5 23.334 -17.5 38.001c0 18.667 6.5 34.667 19.5 48zM170.998 763.501c-21.333 -19.667 -32 -43.5 -32 -71.5s10.5 -51.333 31.5 -70
s46.167 -28 75.5 -28s54.5 9.33301 75.5 28s31.5 42 31.5 70s-10.667 51.833 -32 71.5s-46.333 29.5 -75 29.5s-53.667 -9.83301 -75 -29.5zM217.998 664.001c-8 8 -12 17.333 -12 28s4 19.834 12 27.501s17.333 11.5 28 11.5s19.834 -3.83301 27.501 -11.5
s11.5 -16.834 11.5 -27.501s-3.83301 -20 -11.5 -28s-16.834 -12 -27.501 -12s-20 4 -28 12z" />
    <glyph glyph-name="ae" unicode="&#xe6;" horiz-adv-x="813" 
d="M788 204l-326.996 -0.00195312c6.66699 -34 21.167 -60 43.5 -78s56.5 -27 102.5 -27c26.667 0 50.667 3.66699 72 11s44.333 18 69 32l38 -94c-24.667 -19.333 -51.334 -34.166 -80.001 -44.499s-62.667 -15.5 -102 -15.5c-96 0 -168.333 25 -217 75
c-23.333 -22.667 -47.833 -40.834 -73.5 -54.501s-57.834 -20.5 -96.501 -20.5c-58 0 -101.667 14.167 -131 42.5s-44 66.5 -44 114.5c0 49.333 16.667 87.5 50 114.5s78 40.5 134 40.5h95c-0.666992 24.667 -7.83398 43.834 -21.501 57.501s-32.5 20.5 -56.5 20.5
c-22 0 -46.333 -3.16699 -73 -9.5s-49.334 -13.833 -68.001 -22.5l-35 108c17.333 11.333 45 21.5 83 30.5s68.333 13.5 91 13.5c31.333 0 60.666 -5.16699 87.999 -15.5s51 -24.833 71 -43.5c42.667 39.333 98.334 59 167.001 59c48.667 0 89.667 -11.333 123 -34
s58 -53.167 74 -91.5s24 -81.166 24 -128.499v-40zM665.004 290.998c-6.66699 32 -18.5 55.999 -35.5 71.999s-38.833 24 -65.5 24s-49 -8.16699 -67 -24.5s-29.667 -40.166 -35 -71.499h203zM286.504 104.497c18.333 9 35.501 22.168 51.501 39.501
c-7.33301 22 -12 45 -14 69h-100c-21.333 0 -38.5 -6.66699 -51.5 -20s-19.5 -29.333 -19.5 -48c0 -14.667 5.83301 -27.334 17.5 -38.001s26.5 -16 44.5 -16c29.333 0 53.166 4.5 71.499 13.5z" />
    <glyph glyph-name="ccedilla" unicode="&#xe7;" horiz-adv-x="472" 
d="M387.5 6.5c-25.667 -8.33301 -50.833 -13.834 -75.5 -16.501l-8 -19c20 -8 36.667 -20.5 50 -37.5s20 -34.167 20 -51.5c0 -33.333 -12.167 -58.833 -36.5 -76.5s-54.166 -26.5 -89.499 -26.5c-14 0 -30.833 2.66699 -50.5 8s-34.5 12 -44.5 20l30 76
c9.33301 -4.66699 20.5 -9.16699 33.5 -13.5s23.5 -6.5 31.5 -6.5c9.33301 0 17.333 1.33301 24 4s10 7 10 13c0 12 -8.5 21.833 -25.5 29.5s-37.833 12.834 -62.5 15.501l27 69c-60.667 11.333 -108.5 38.833 -143.5 82.5s-52.5 98.834 -52.5 165.501
c0 51.333 10.5 96.333 31.5 135s51 68.5 90 89.5s84.5 31.5 136.5 31.5c22.667 0 50.667 -4.66699 84 -14s61.333 -21.666 84 -36.999l-37 -93c-25.333 11.333 -48 19.666 -68 24.999s-40.667 8 -62 8c-36 0 -65.833 -13.667 -89.5 -41s-35.5 -62 -35.5 -104
s11.667 -76.333 35 -103s53.333 -40 90 -40c21.333 0 42 2.66699 62 8s42.667 13.666 68 24.999l37 -94c-16.667 -12.667 -37.834 -23.167 -63.501 -31.5z" />
    <glyph glyph-name="egrave" unicode="&#xe8;" horiz-adv-x="515" 
d="M490 244c0 47.333 -8 90.168 -24 128.501s-40.667 68.833 -74 91.5s-74.333 34 -123 34c-50 0 -93.333 -10.5 -130 -31.5s-64.834 -50.833 -84.501 -89.5s-29.5 -83.667 -29.5 -135c0 -79.333 23.833 -141.5 71.5 -186.5s117.5 -67.5 209.5 -67.5
c39.333 0 73.333 5.16699 102 15.5s55.334 25.166 80.001 44.499l-38 94c-24.667 -14 -47.667 -24.667 -69 -32s-45.333 -11 -72 -11c-46 0 -80.167 9 -102.5 27s-36.833 44 -43.5 78h327v40zM199 362.502c18 16.333 40.333 24.501 67 24.501s48.5 -8 65.5 -24
s28.833 -40 35.5 -72h-203c5.33301 31.333 17 55.166 35 71.499zM248 589.003l90 25l-51 139h-134z" />
    <glyph glyph-name="eacute" unicode="&#xe9;" horiz-adv-x="515" 
d="M490 244c0 47.333 -8 90.168 -24 128.501s-40.667 68.833 -74 91.5s-74.333 34 -123 34c-50 0 -93.333 -10.5 -130 -31.5s-64.834 -50.833 -84.501 -89.5s-29.5 -83.667 -29.5 -135c0 -79.333 23.833 -141.5 71.5 -186.5s117.5 -67.5 209.5 -67.5
c39.333 0 73.333 5.16699 102 15.5s55.334 25.166 80.001 44.499l-38 94c-24.667 -14 -47.667 -24.667 -69 -32s-45.333 -11 -72 -11c-46 0 -80.167 9 -102.5 27s-36.833 44 -43.5 78h327v40zM199 362.502c18 16.333 40.333 24.501 67 24.501s48.5 -8 65.5 -24
s28.833 -40 35.5 -72h-203c5.33301 31.333 17 55.166 35 71.499zM276 589.003l95 164h-134l-51 -139z" />
    <glyph glyph-name="ecircumflex" unicode="&#xea;" horiz-adv-x="515" 
d="M490 244c0 47.333 -8 90.168 -24 128.501s-40.667 68.833 -74 91.5s-74.333 34 -123 34c-50 0 -93.333 -10.5 -130 -31.5s-64.834 -50.833 -84.501 -89.5s-29.5 -83.667 -29.5 -135c0 -79.333 23.833 -141.5 71.5 -186.5s117.5 -67.5 209.5 -67.5
c39.333 0 73.333 5.16699 102 15.5s55.334 25.166 80.001 44.499l-38 94c-24.667 -14 -47.667 -24.667 -69 -32s-45.333 -11 -72 -11c-46 0 -80.167 9 -102.5 27s-36.833 44 -43.5 78h327v40zM199 362.502c18 16.333 40.333 24.501 67 24.501s48.5 -8 65.5 -24
s28.833 -40 35.5 -72h-203c5.33301 31.333 17 55.166 35 71.499zM262 654.003l66 -65l119 16l-152 148h-71l-152 -148l123 -16z" />
    <glyph glyph-name="edieresis" unicode="&#xeb;" horiz-adv-x="515" 
d="M490 244c0 47.333 -8 90.168 -24 128.501s-40.667 68.833 -74 91.5s-74.333 34 -123 34c-50 0 -93.333 -10.5 -130 -31.5s-64.834 -50.833 -84.501 -89.5s-29.5 -83.667 -29.5 -135c0 -79.333 23.833 -141.5 71.5 -186.5s117.5 -67.5 209.5 -67.5
c39.333 0 73.333 5.16699 102 15.5s55.334 25.166 80.001 44.499l-38 94c-24.667 -14 -47.667 -24.667 -69 -32s-45.333 -11 -72 -11c-46 0 -80.167 9 -102.5 27s-36.833 44 -43.5 78h327v40zM199 362.502c18 16.333 40.333 24.501 67 24.501s48.5 -8 65.5 -24
s28.833 -40 35.5 -72h-203c5.33301 31.333 17 55.166 35 71.499zM206 621.503c12 12.333 18 27.5 18 45.5s-6 33.333 -18 46s-27 19 -45 19c-18.667 0 -34.334 -6.33301 -47.001 -19s-19 -28 -19 -46s6.33301 -33.167 19 -45.5s28.334 -18.5 47.001 -18.5
c18 0 33 6.16699 45 18.5zM397.5 621.503c12.333 12.333 18.5 27.5 18.5 45.5s-6.16699 33.333 -18.5 46s-27.833 19 -46.5 19c-17.333 0 -32.5 -6.33301 -45.5 -19s-19.5 -28 -19.5 -46s6.33301 -33.167 19 -45.5s28 -18.5 46 -18.5c18.667 0 34.167 6.16699 46.5 18.5z
" />
    <glyph glyph-name="igrave" unicode="&#xec;" horiz-adv-x="240" 
d="M185 0v485h-130v-485h130zM101 589l90 25l-51 139h-134z" />
    <glyph glyph-name="iacute" unicode="&#xed;" horiz-adv-x="240" 
d="M185 0v485h-130v-485h130zM129 589l95 164h-134l-51 -139z" />
    <glyph glyph-name="icircumflex" unicode="&#xee;" horiz-adv-x="240" 
d="M185 0v485h-130v-485h130zM115 654l66 -65l119 16l-152 148h-71l-152 -148l123 -16z" />
    <glyph glyph-name="idieresis" unicode="&#xef;" horiz-adv-x="240" 
d="M185 0v485h-130v-485h130zM59 621.5c12 12.333 18 27.5 18 45.5s-6 33.333 -18 46s-27 19 -45 19c-18.667 0 -34.334 -6.33301 -47.001 -19s-19 -28 -19 -46s6.33301 -33.167 19 -45.5s28.334 -18.5 47.001 -18.5c18 0 33 6.16699 45 18.5zM250.5 621.5
c12.333 12.333 18.5 27.5 18.5 45.5s-6.16699 33.333 -18.5 46s-27.833 19 -46.5 19c-17.333 0 -32.5 -6.33301 -45.5 -19s-19.5 -28 -19.5 -46s6.33301 -33.167 19 -45.5s28 -18.5 46 -18.5c18.667 0 34.167 6.16699 46.5 18.5z" />
    <glyph glyph-name="eth" unicode="&#xf0;" 
d="M491 452.5c34.667 -61 52 -121.832 52 -182.499c0 -58 -10.667 -108.333 -32 -151s-51.5 -75.167 -90.5 -97.5s-84.5 -33.5 -136.5 -33.5s-97.5 10.333 -136.5 31s-69.167 50.167 -90.5 88.5s-32 83.166 -32 134.499c0 50.667 10.5 95.5 31.5 134.5s50.333 69 88 90
s80.834 31.5 129.501 31.5c6 0 15 -0.666992 27 -2c-18 20 -39.667 40 -65 60l-131 -71l-51 92l82 43c-18 10 -42 21.667 -72 35l50 94c49.333 -14 97.666 -35.333 144.999 -64l108 57l50 -89l-65 -35c58 -49.333 104.333 -104.5 139 -165.5zM373.5 140.001
c23.667 27.333 35.5 61.999 35.5 103.999c0 42.667 -7.66699 83.334 -23 122.001c-30 14 -64 21 -102 21c-36 0 -65.833 -13.667 -89.5 -41s-35.5 -62 -35.5 -104s11.667 -76.333 35 -103s53.333 -40 90 -40c36 0 65.833 13.667 89.5 41z" />
    <glyph glyph-name="ntilde" unicode="&#xf1;" horiz-adv-x="566" 
d="M185 336c24 17.333 46 31.167 66 41.5s41.333 15.5 64 15.5c22 0 39.167 -8.33301 51.5 -25s18.5 -40 18.5 -70v-298h130v304c0 62 -12.333 110.333 -37 145s-67.667 52 -129 52c-26.667 0 -57 -6 -91 -18s-66 -28.667 -96 -50l-22 52h-85v-485h130v336zM365 694.501
c-5.33301 -6.33301 -11.668 -9.50098 -19.001 -9.50098c-11.333 0 -20.666 1.33301 -27.999 4s-16 7 -26 13c-9.33301 6 -18.166 10.5 -26.499 13.5s-18.833 4.5 -31.5 4.5c-30 0 -55.333 -9.66699 -76 -29s-31 -49.666 -31 -90.999h86c0 6.66699 2.83301 13.5 8.5 20.5
s12.167 10.5 19.5 10.5c11.333 0 20.166 -1.33301 26.499 -4s14.5 -7 24.5 -13c8 -6 15.833 -10.667 23.5 -14s18.167 -5 31.5 -5c30 0 55.333 9.66699 76 29s31 50 31 92h-81c0 -8 -2.66699 -15.167 -8 -21.5z" />
    <glyph glyph-name="ograve" unicode="&#xf2;" 
d="M511 109c-21.333 -38.667 -51.5 -68.5 -90.5 -89.5s-84.5 -31.5 -136.5 -31.5s-97.5 10.333 -136.5 31s-69.167 50.167 -90.5 88.5s-32 83.166 -32 134.499s10.667 96.333 32 135s51.5 68.5 90.5 89.5s84.5 31.5 136.5 31.5s97.5 -10.333 136.5 -31
s69.167 -50.167 90.5 -88.5s32 -83.166 32 -134.499s-10.667 -96.333 -32 -135zM373.5 140c23.667 27.333 35.5 62 35.5 104s-11.667 76.333 -35 103s-53.333 40 -90 40c-36 0 -65.833 -13.667 -89.5 -41s-35.5 -62 -35.5 -104s11.667 -76.333 35 -103s53.333 -40 90 -40
c36 0 65.833 13.667 89.5 41zM264 589l90 25l-51 139h-134z" />
    <glyph glyph-name="oacute" unicode="&#xf3;" 
d="M511 109c-21.333 -38.667 -51.5 -68.5 -90.5 -89.5s-84.5 -31.5 -136.5 -31.5s-97.5 10.333 -136.5 31s-69.167 50.167 -90.5 88.5s-32 83.166 -32 134.499s10.667 96.333 32 135s51.5 68.5 90.5 89.5s84.5 31.5 136.5 31.5s97.5 -10.333 136.5 -31
s69.167 -50.167 90.5 -88.5s32 -83.166 32 -134.499s-10.667 -96.333 -32 -135zM373.5 140c23.667 27.333 35.5 62 35.5 104s-11.667 76.333 -35 103s-53.333 40 -90 40c-36 0 -65.833 -13.667 -89.5 -41s-35.5 -62 -35.5 -104s11.667 -76.333 35 -103s53.333 -40 90 -40
c36 0 65.833 13.667 89.5 41zM292 589l95 164h-134l-51 -139z" />
    <glyph glyph-name="ocircumflex" unicode="&#xf4;" 
d="M511 109c-21.333 -38.667 -51.5 -68.5 -90.5 -89.5s-84.5 -31.5 -136.5 -31.5s-97.5 10.333 -136.5 31s-69.167 50.167 -90.5 88.5s-32 83.166 -32 134.499s10.667 96.333 32 135s51.5 68.5 90.5 89.5s84.5 31.5 136.5 31.5s97.5 -10.333 136.5 -31
s69.167 -50.167 90.5 -88.5s32 -83.166 32 -134.499s-10.667 -96.333 -32 -135zM373.5 140c23.667 27.333 35.5 62 35.5 104s-11.667 76.333 -35 103s-53.333 40 -90 40c-36 0 -65.833 -13.667 -89.5 -41s-35.5 -62 -35.5 -104s11.667 -76.333 35 -103s53.333 -40 90 -40
c36 0 65.833 13.667 89.5 41zM278 654l66 -65l119 16l-152 148h-71l-152 -148l123 -16z" />
    <glyph glyph-name="otilde" unicode="&#xf5;" 
d="M511 109c-21.333 -38.667 -51.5 -68.5 -90.5 -89.5s-84.5 -31.5 -136.5 -31.5s-97.5 10.333 -136.5 31s-69.167 50.167 -90.5 88.5s-32 83.166 -32 134.499s10.667 96.333 32 135s51.5 68.5 90.5 89.5s84.5 31.5 136.5 31.5s97.5 -10.333 136.5 -31
s69.167 -50.167 90.5 -88.5s32 -83.166 32 -134.499s-10.667 -96.333 -32 -135zM373.5 140c23.667 27.333 35.5 62 35.5 104s-11.667 76.333 -35 103s-53.333 40 -90 40c-36 0 -65.833 -13.667 -89.5 -41s-35.5 -62 -35.5 -104s11.667 -76.333 35 -103s53.333 -40 90 -40
c36 0 65.833 13.667 89.5 41zM352 694.5c-5.33301 -6.33301 -11.668 -9.50098 -19.001 -9.50098c-11.333 0 -20.666 1.33301 -27.999 4s-16 7 -26 13c-9.33301 6 -18.166 10.5 -26.499 13.5s-18.833 4.5 -31.5 4.5c-30 0 -55.333 -9.66699 -76 -29s-31 -49.666 -31 -90.999
h86c0 6.66699 2.83301 13.5 8.5 20.5s12.167 10.5 19.5 10.5c11.333 0 20.166 -1.33301 26.499 -4s14.5 -7 24.5 -13c8 -6 15.833 -10.667 23.5 -14s18.167 -5 31.5 -5c30 0 55.333 9.66699 76 29s31 50 31 92h-81c0 -8 -2.66699 -15.167 -8 -21.5z" />
    <glyph glyph-name="odieresis" unicode="&#xf6;" 
d="M511 109c-21.333 -38.667 -51.5 -68.5 -90.5 -89.5s-84.5 -31.5 -136.5 -31.5s-97.5 10.333 -136.5 31s-69.167 50.167 -90.5 88.5s-32 83.166 -32 134.499s10.667 96.333 32 135s51.5 68.5 90.5 89.5s84.5 31.5 136.5 31.5s97.5 -10.333 136.5 -31
s69.167 -50.167 90.5 -88.5s32 -83.166 32 -134.499s-10.667 -96.333 -32 -135zM373.5 140c23.667 27.333 35.5 62 35.5 104s-11.667 76.333 -35 103s-53.333 40 -90 40c-36 0 -65.833 -13.667 -89.5 -41s-35.5 -62 -35.5 -104s11.667 -76.333 35 -103s53.333 -40 90 -40
c36 0 65.833 13.667 89.5 41zM222 621.5c12 12.333 18 27.5 18 45.5s-6 33.333 -18 46s-27 19 -45 19c-18.667 0 -34.334 -6.33301 -47.001 -19s-19 -28 -19 -46s6.33301 -33.167 19 -45.5s28.334 -18.5 47.001 -18.5c18 0 33 6.16699 45 18.5zM413.5 621.5
c12.333 12.333 18.5 27.5 18.5 45.5s-6.16699 33.333 -18.5 46s-27.833 19 -46.5 19c-17.333 0 -32.5 -6.33301 -45.5 -19s-19.5 -28 -19.5 -46s6.33301 -33.167 19 -45.5s28 -18.5 46 -18.5c18.667 0 34.167 6.16699 46.5 18.5z" />
    <glyph glyph-name="divide" unicode="&#xf7;" horiz-adv-x="509" 
d="M308 382.5c15.333 15 23 32.833 23 53.5c0 22 -7.66699 40.5 -23 55.5s-33.666 22.5 -54.999 22.5s-39.5 -7.5 -54.5 -22.5s-22.5 -33.5 -22.5 -55.5c0 -20.667 7.5 -38.5 22.5 -53.5s33.167 -22.5 54.5 -22.5s39.666 7.5 54.999 22.5zM468 325h-438l9 -102h440zM308 47
c15.333 15.333 23 33.333 23 54c0 22 -7.66699 40.5 -23 55.5s-33.666 22.5 -54.999 22.5s-39.5 -7.5 -54.5 -22.5s-22.5 -33.5 -22.5 -55.5c0 -20.667 7.5 -38.667 22.5 -54s33.167 -23 54.5 -23s39.666 7.66699 54.999 23z" />
    <glyph glyph-name="oslash" unicode="&#xf8;" 
d="M420.5 467c39 -20.667 69.167 -50.167 90.5 -88.5s32 -83.166 32 -134.499s-10.667 -96.333 -32 -135s-51.5 -68.5 -90.5 -89.5s-84.5 -31.5 -136.5 -31.5s-97.5 10.333 -136.5 31s-69.167 50.167 -90.5 88.5s-32 83.166 -32 134.499s10.667 96.333 32 135
s51.5 68.5 90.5 89.5s84.5 31.5 136.5 31.5s97.5 -10.333 136.5 -31zM194.5 346c-23.667 -27.333 -35.5 -62.001 -35.5 -104.001c0 -31.333 6.66699 -58.666 20 -81.999l128 225c-9.33301 1.33301 -17 2 -23 2c-36 0 -65.833 -13.667 -89.5 -41zM373.5 139.999
c23.667 27.333 35.5 62 35.5 104c0 28.667 -5.66699 53.667 -17 75l-129 -218c9.33301 -1.33301 16.333 -2 21 -2c36 0 65.833 13.667 89.5 41z" />
    <glyph glyph-name="ugrave" unicode="&#xf9;" horiz-adv-x="566" 
d="M381 149c-24 -17.333 -46 -31.167 -66 -41.5s-41.333 -15.5 -64 -15.5c-22 0 -39.167 8.33301 -51.5 25s-18.5 40 -18.5 70v298h-130v-304c0 -62 12.333 -110.333 37 -145s67.667 -52 129 -52c26.667 0 57 6 91 18s66 28.667 96 50l22 -52h85v485h-130v-336zM268 588.999
l90 25l-51 139h-134z" />
    <glyph glyph-name="uacute" unicode="&#xfa;" horiz-adv-x="566" 
d="M381 149c-24 -17.333 -46 -31.167 -66 -41.5s-41.333 -15.5 -64 -15.5c-22 0 -39.167 8.33301 -51.5 25s-18.5 40 -18.5 70v298h-130v-304c0 -62 12.333 -110.333 37 -145s67.667 -52 129 -52c26.667 0 57 6 91 18s66 28.667 96 50l22 -52h85v485h-130v-336zM296 588.999
l95 164h-134l-51 -139z" />
    <glyph glyph-name="ucircumflex" unicode="&#xfb;" horiz-adv-x="566" 
d="M381 149c-24 -17.333 -46 -31.167 -66 -41.5s-41.333 -15.5 -64 -15.5c-22 0 -39.167 8.33301 -51.5 25s-18.5 40 -18.5 70v298h-130v-304c0 -62 12.333 -110.333 37 -145s67.667 -52 129 -52c26.667 0 57 6 91 18s66 28.667 96 50l22 -52h85v485h-130v-336zM282 653.999
l66 -65l119 16l-152 148h-71l-152 -148l123 -16z" />
    <glyph glyph-name="udieresis" unicode="&#xfc;" horiz-adv-x="566" 
d="M381 149c-24 -17.333 -46 -31.167 -66 -41.5s-41.333 -15.5 -64 -15.5c-22 0 -39.167 8.33301 -51.5 25s-18.5 40 -18.5 70v298h-130v-304c0 -62 12.333 -110.333 37 -145s67.667 -52 129 -52c26.667 0 57 6 91 18s66 28.667 96 50l22 -52h85v485h-130v-336zM226 621.499
c12 12.333 18 27.5 18 45.5s-6 33.333 -18 46s-27 19 -45 19c-18.667 0 -34.334 -6.33301 -47.001 -19s-19 -28 -19 -46s6.33301 -33.167 19 -45.5s28.334 -18.5 47.001 -18.5c18 0 33 6.16699 45 18.5zM417.5 621.499c12.333 12.333 18.5 27.5 18.5 45.5
s-6.16699 33.333 -18.5 46s-27.833 19 -46.5 19c-17.333 0 -32.5 -6.33301 -45.5 -19s-19.5 -28 -19.5 -46s6.33301 -33.167 19 -45.5s28 -18.5 46 -18.5c18.667 0 34.167 6.16699 46.5 18.5z" />
    <glyph glyph-name="yacute" unicode="&#xfd;" horiz-adv-x="503" 
d="M110.5 -73c-21.667 -13.333 -49.5 -27.333 -83.5 -42l46 -107c44.667 10.667 86 30.167 124 58.5s64.333 61.5 79 99.5l217 549h-137l-106 -294l-112 312l-128 -38l167 -431l-23 -57c-7.33301 -20 -21.833 -36.667 -43.5 -50zM256 590l95 164h-134l-51 -139z" />
    <glyph glyph-name="thorn" unicode="&#xfe;" horiz-adv-x="550" 
d="M459.5 429.5c43.667 -45.667 65.499 -107.499 65.499 -185.499c0 -50.667 -9.83301 -95.334 -29.5 -134.001s-48.167 -68.667 -85.5 -90s-81.666 -32 -132.999 -32c-25.333 0 -54.333 8.66699 -87 26v-223l-129 -10v914l129 11v-232c32 16 62.333 24 91 24
c75.333 0 134.833 -22.833 178.5 -68.5zM359.999 139.501c20.667 27 31 61.833 31 104.5s-10.167 77.167 -30.5 103.5s-48.5 39.5 -84.5 39.5c-28 0 -56.667 -9.66699 -86 -29v-231c27.333 -18.667 56 -28 86 -28c35.333 0 63.333 13.5 84 40.5z" />
    <glyph glyph-name="ydieresis" unicode="&#xff;" horiz-adv-x="503" 
d="M110.5 -73c-21.667 -13.333 -49.5 -27.333 -83.5 -42l46 -107c44.667 10.667 86 30.167 124 58.5s64.333 61.5 79 99.5l217 549h-137l-106 -294l-112 312l-128 -38l167 -431l-23 -57c-7.33301 -20 -21.833 -36.667 -43.5 -50zM186 622.5c12 12.333 18 27.5 18 45.5
s-6 33.333 -18 46s-27 19 -45 19c-18.667 0 -34.334 -6.33301 -47.001 -19s-19 -28 -19 -46s6.33301 -33.167 19 -45.5s28.334 -18.5 47.001 -18.5c18 0 33 6.16699 45 18.5zM377.5 622.5c12.333 12.333 18.5 27.5 18.5 45.5s-6.16699 33.333 -18.5 46s-27.833 19 -46.5 19
c-17.333 0 -32.5 -6.33301 -45.5 -19s-19.5 -28 -19.5 -46s6.33301 -33.167 19 -45.5s28 -18.5 46 -18.5c18.667 0 34.167 6.16699 46.5 18.5z" />
    <glyph glyph-name="Amacron" unicode="&#x100;" horiz-adv-x="659" 
d="M275 680l-265 -680h130l60 160h258l61 -170l130 18l-264 672h-110zM418 265h-180l89 237zM191 763h262l-10 103h-252v-103z" />
    <glyph glyph-name="amacron" unicode="&#x101;" horiz-adv-x="503" 
d="M170 368.5c26.667 6.33301 50.9971 9.50195 72.9971 9.50195c24 0 42.833 -6.83301 56.5 -20.5s20.834 -32.834 21.501 -57.501h-95c-56 0 -100.667 -13.5 -134 -40.5s-50 -65.167 -50 -114.5c0 -48 14.667 -86.167 44 -114.5s73 -42.5 131 -42.5
c44.667 0 87.334 21.333 128.001 64l22 -52h85v319c0 34 -9.5 64.667 -28.5 92s-44.5 48.666 -76.5 63.999s-67.333 23 -106 23c-22.667 0 -53 -4.5 -91 -13.5s-65.667 -19.167 -83 -30.5l35 -108c18.667 8.66699 41.334 16.167 68.001 22.5zM172.497 193.002
c13 13.333 30.168 19.999 51.501 19.999h98v-74c-32.667 -32 -68.334 -48 -107.001 -48c-18 0 -32.833 5.33301 -44.5 16s-17.5 23.334 -17.5 38.001c0 18.667 6.5 34.667 19.5 48zM116.998 613.001h262l-10 103h-252v-103z" />
    <glyph glyph-name="Abreve" unicode="&#x102;" horiz-adv-x="659" 
d="M275 680l-265 -680h130l60 160h258l61 -170l130 18l-264 672h-110zM418 265h-180l89 237zM371 853c-10 -14 -24.998 -21 -44.998 -21s-34.667 6.83301 -44 20.5s-14 30.5 -14 50.5h-89c0 -45.333 12.667 -83.833 38 -115.5s61.666 -47.834 108.999 -48.501
c47.333 0.666992 83.666 16.834 108.999 48.501s38 70.167 38 115.5h-87c0 -19.333 -5 -36 -15 -50z" />
    <glyph glyph-name="abreve" unicode="&#x103;" horiz-adv-x="503" 
d="M170 368.5c26.667 6.33301 50.9971 9.50195 72.9971 9.50195c24 0 42.833 -6.83301 56.5 -20.5s20.834 -32.834 21.501 -57.501h-95c-56 0 -100.667 -13.5 -134 -40.5s-50 -65.167 -50 -114.5c0 -48 14.667 -86.167 44 -114.5s73 -42.5 131 -42.5
c44.667 0 87.334 21.333 128.001 64l22 -52h85v319c0 34 -9.5 64.667 -28.5 92s-44.5 48.666 -76.5 63.999s-67.333 23 -106 23c-22.667 0 -53 -4.5 -91 -13.5s-65.667 -19.167 -83 -30.5l35 -108c18.667 8.66699 41.334 16.167 68.001 22.5zM172.497 193.002
c13 13.333 30.168 19.999 51.501 19.999h98v-74c-32.667 -32 -68.334 -48 -107.001 -48c-18 0 -32.833 5.33301 -44.5 16s-17.5 23.334 -17.5 38.001c0 18.667 6.5 34.667 19.5 48zM298.998 703.001c-10 -14 -24.998 -21 -44.998 -21s-34.667 6.83301 -44 20.5
s-14 30.5 -14 50.5h-89c0 -45.333 12.667 -83.833 38 -115.5s61.666 -47.834 108.999 -48.501c47.333 0.666992 83.666 16.834 108.999 48.501s38 70.167 38 115.5h-87c0 -19.333 -5 -36 -15 -50z" />
    <glyph glyph-name="Aogonek" unicode="&#x104;" horiz-adv-x="659" 
d="M715 -170c-29.333 -22 -63.334 -32.999 -102.001 -32.999c-34 0 -62.333 11 -85 33s-34 48.667 -34 80c0 10.667 2.5 23.5 7.5 38.5s10.833 28.833 17.5 41.5l-61 170h-258l-60 -160h-130l265 680h110l264 -671h1l-1 -1v0c-10 -10 -19.667 -23.833 -29 -41.5
s-14 -32.834 -14 -45.501c0 -8 2.66699 -14.667 8 -20s13 -8 23 -8c4.66699 0 10.834 1.5 18.501 4.5s15.167 7.16699 22.5 12.5zM237.999 265.001h180l-91 237z" />
    <glyph glyph-name="aogonek" unicode="&#x105;" horiz-adv-x="503" 
d="M517 -179c-29.333 -22 -63.3311 -33.002 -101.998 -33.002c-34 0 -61.833 11 -83.5 33s-32.5 48.667 -32.5 80c0 29.333 4.83301 53 14.5 71s23.5 37 41.5 57l-10 23c-40.667 -42.667 -83.334 -64 -128.001 -64c-58 0 -101.667 14.167 -131 42.5s-44 66.5 -44 114.5
c0 49.333 16.667 87.5 50 114.5s78 40.5 134 40.5h95c-0.666992 24.667 -7.83398 43.834 -21.501 57.501s-32.5 20.5 -56.5 20.5c-22 0 -46.333 -3.16699 -73 -9.5s-49.334 -13.833 -68.001 -22.5l-35 108c17.333 11.333 45 21.5 83 30.5s68.333 13.5 91 13.5
c38.667 0 74 -7.66699 106 -23s57.5 -36.666 76.5 -63.999s28.5 -58 28.5 -92v-319c-10 -9.33301 -19.833 -23 -29.5 -41s-14.5 -33.667 -14.5 -47c0 -8 2.66699 -14.667 8 -20s13 -8 23 -8c4.66699 0 10.834 1.5 18.501 4.5s15.167 7.16699 22.5 12.5zM322.002 212.998
l-98.001 0.000976562c-21.333 0 -38.5 -6.66699 -51.5 -20s-19.5 -29.333 -19.5 -48c0 -14.667 5.83301 -27.334 17.5 -38.001s26.5 -16 44.5 -16c38.667 0 74.334 16 107.001 48v74z" />
    <glyph glyph-name="Cacute" unicode="&#x106;" horiz-adv-x="564" 
d="M451 683c-34.667 7.33301 -64.001 11 -88.001 11c-65.333 0 -122.833 -15.167 -172.5 -45.5s-88 -72.5 -115 -126.5s-40.5 -115.667 -40.5 -185c0 -66.667 12.333 -126.5 37 -179.5s61.334 -94.833 110.001 -125.5s107.334 -46 176.001 -46c29.333 0 62.166 4 98.499 12
s67.166 18.667 92.499 32l-49 96c-50 -20.667 -99.667 -31 -149 -31c-37.333 0 -69.666 10.833 -96.999 32.5s-48.166 51 -62.499 88s-21.5 77.833 -21.5 122.5c0 50 8.16699 93.667 24.5 131s38.833 66 67.5 86s61 30 97 30c22.667 0 41.667 -1.5 57 -4.5s36 -8.5 62 -16.5
l25 -7l40 93c-26.667 14.667 -57.334 25.667 -92.001 33zM402.999 739l95 164h-134l-51 -139z" />
    <glyph glyph-name="cacute" unicode="&#x107;" horiz-adv-x="472" 
d="M367 484c-33.333 9.33301 -61.333 13.998 -84 13.998c-52 0 -97.5 -10.5 -136.5 -31.5s-69 -50.833 -90 -89.5s-31.5 -83.667 -31.5 -135s10.5 -96.166 31.5 -134.499s51 -67.833 90 -88.5s84.5 -31 136.5 -31c24.667 0 53.667 4.33301 87 13s60.333 21 81 37l-37 94
c-25.333 -11.333 -48 -19.666 -68 -24.999s-40.667 -8 -62 -8c-36.667 0 -66.667 13.333 -90 40s-35 61 -35 103s11.833 76.667 35.5 104s53.5 41 89.5 41c21.333 0 42 -2.66699 62 -8s42.667 -13.666 68 -24.999l37 93c-22.667 15.333 -50.667 27.666 -84 36.999z
M270 588.998l95 164h-134l-51 -139z" />
    <glyph glyph-name="Ccaron" unicode="&#x10c;" horiz-adv-x="564" 
d="M451 683c-34.667 7.33301 -64.001 11 -88.001 11c-65.333 0 -122.833 -15.167 -172.5 -45.5s-88 -72.5 -115 -126.5s-40.5 -115.667 -40.5 -185c0 -66.667 12.333 -126.5 37 -179.5s61.334 -94.833 110.001 -125.5s107.334 -46 176.001 -46c29.333 0 62.166 4 98.499 12
s67.166 18.667 92.499 32l-49 96c-50 -20.667 -99.667 -31 -149 -31c-37.333 0 -69.666 10.833 -96.999 32.5s-48.166 51 -62.499 88s-21.5 77.833 -21.5 122.5c0 50 8.16699 93.667 24.5 131s38.833 66 67.5 86s61 30 97 30c22.667 0 41.667 -1.5 57 -4.5s36 -8.5 62 -16.5
l25 -7l40 93c-26.667 14.667 -57.334 25.667 -92.001 33zM367.999 838l-67 65l-123 -16l152 -148h71l152 148l-119 16z" />
    <glyph glyph-name="ccaron" unicode="&#x10d;" horiz-adv-x="472" 
d="M367 484c-33.333 9.33301 -61.333 13.998 -84 13.998c-52 0 -97.5 -10.5 -136.5 -31.5s-69 -50.833 -90 -89.5s-31.5 -83.667 -31.5 -135s10.5 -96.166 31.5 -134.499s51 -67.833 90 -88.5s84.5 -31 136.5 -31c24.667 0 53.667 4.33301 87 13s60.333 21 81 37l-37 94
c-25.333 -11.333 -48 -19.666 -68 -24.999s-40.667 -8 -62 -8c-36.667 0 -66.667 13.333 -90 40s-35 61 -35 103s11.833 76.667 35.5 104s53.5 41 89.5 41c21.333 0 42 -2.66699 62 -8s42.667 -13.666 68 -24.999l37 93c-22.667 15.333 -50.667 27.666 -84 36.999z
M263 687.998l-67 65l-123 -16l152 -148h71l152 148l-119 16z" />
    <glyph glyph-name="Dcaron" unicode="&#x10e;" horiz-adv-x="691" 
d="M574.5 92.5c54.333 60.333 81.5 144.169 81.5 251.502c0 66.667 -11.5 125.167 -34.5 175.5s-58 89.666 -105 117.999s-104.833 42.5 -173.5 42.5h-258v-680h258c100 1.33301 177.167 32.166 231.5 92.499zM479 511.503c28.667 -39 42.999 -94.833 42.999 -167.5
c0 -81.333 -15.833 -140.833 -47.5 -178.5s-76.167 -56.5 -133.5 -56.5h-127v461h134c58.667 0 102.334 -19.5 131.001 -58.5zM330.999 838.003l-67 65l-123 -16l152 -148h71l152 148l-119 16z" />
    <glyph glyph-name="dcaron" unicode="&#x10f;" horiz-adv-x="767" 
d="M715 717c14.667 -16.667 22 -38.001 22 -64.001c0 -38 -12.5 -77.167 -37.5 -117.5s-56.5 -71.166 -94.5 -92.499l-28 61c21.333 18.667 36.833 34 46.5 46s16.5 27.667 20.5 47c-12 0 -24.333 7.5 -37 22.5s-19 31.167 -19 48.5c0 18 7.16699 34.833 21.5 50.5
s31.5 23.5 51.5 23.5c21.333 0 39.333 -8.33301 54 -25zM376 694.999l131.002 10.999v-706h-68l-30 44c-42.667 -37.333 -89.334 -56 -140.001 -56c-75.333 0 -134.833 22.833 -178.5 68.5s-65.5 107.5 -65.5 185.5c0 50.667 9.83301 95.334 29.5 134.001
s48.167 68.667 85.5 90s81.666 32 132.999 32c16 0 33 -2.83301 51 -8.5s35.333 -13.5 52 -23.5v229zM189.502 138.498c20.333 -26.333 48.501 -39.5 84.501 -39.5c17.333 0 34.166 3.33301 50.499 10s33.5 16.667 51.5 30v207c-17.333 14.667 -34 25.167 -50 31.5
s-33.333 9.5 -52 9.5c-35.333 0 -63.333 -13.5 -84 -40.5s-31 -61.833 -31 -104.5s10.167 -77.167 30.5 -103.5z" />
    <glyph glyph-name="Dcroat" unicode="&#x110;" horiz-adv-x="691" 
d="M516.5 637.5c47 -28.333 82 -67.6689 105 -118.002s34.5 -108.833 34.5 -175.5c0 -107.333 -27.167 -191.166 -81.5 -251.499s-131.5 -91.166 -231.5 -92.499h-258v291h-56l-11 101h67v288h258c68.667 0 126.5 -14.167 173.5 -42.5zM474.5 165.497
c31.667 37.667 47.501 97.167 47.501 178.5c0 72.667 -14.333 128.5 -43 167.5s-72.334 58.5 -131.001 58.5h-134v-178h72l9 -101h-81v-182h127c57.333 0 101.833 18.833 133.5 56.5z" />
    <glyph glyph-name="dcroat" unicode="&#x111;" horiz-adv-x="572" 
d="M577 545l-70 -0.000976562v-545h-68l-31 45c-21.333 -18 -44.166 -32 -68.499 -42s-47.833 -15 -70.5 -15c-75.333 0 -134.833 22.833 -178.5 68.5s-65.5 107.5 -65.5 185.5c0 50.667 9.83301 95.334 29.5 134.001s48.167 68.667 85.5 90s81.666 32 132.999 32
c14 0 30.167 -3.16699 48.5 -9.5s36.5 -14.5 54.5 -24.5v81h-60l-12 95h72v55l131 11v-66h59zM189.5 138.499c20.333 -26.333 48.501 -39.5 84.501 -39.5c17.333 0 34.166 3.33301 50.499 10s33.5 16.667 51.5 30v207c-17.333 14.667 -34 25.167 -50 31.5
s-33.333 9.5 -52 9.5c-35.333 0 -63.333 -13.5 -84 -40.5s-31 -61.833 -31 -104.5s10.167 -77.167 30.5 -103.5z" />
    <glyph glyph-name="Emacron" unicode="&#x112;" horiz-adv-x="581" 
d="M561 0l-21 101h-326v191h243l-21 103h-222v183h297l-20 102h-406v-680h476zM166 763h262l-10 103h-252v-103z" />
    <glyph glyph-name="emacron" unicode="&#x113;" horiz-adv-x="515" 
d="M490 244c0 47.333 -8 90.168 -24 128.501s-40.667 68.833 -74 91.5s-74.333 34 -123 34c-50 0 -93.333 -10.5 -130 -31.5s-64.834 -50.833 -84.501 -89.5s-29.5 -83.667 -29.5 -135c0 -79.333 23.833 -141.5 71.5 -186.5s117.5 -67.5 209.5 -67.5
c39.333 0 73.333 5.16699 102 15.5s55.334 25.166 80.001 44.499l-38 94c-24.667 -14 -47.667 -24.667 -69 -32s-45.333 -11 -72 -11c-46 0 -80.167 9 -102.5 27s-36.833 44 -43.5 78h327v40zM199 362.502c18 16.333 40.333 24.501 67 24.501s48.5 -8 65.5 -24
s28.833 -40 35.5 -72h-203c5.33301 31.333 17 55.166 35 71.499zM129 613.003h262l-10 103h-252v-103z" />
    <glyph glyph-name="Edotaccent" unicode="&#x116;" horiz-adv-x="581" 
d="M561 0l-21 101h-326v191h243l-21 103h-222v183h297l-20 102h-406v-680h476zM353.5 765c13.667 14 20.5 31.333 20.5 52s-6.83301 38.167 -20.5 52.5s-30.834 21.5 -51.501 21.5s-38.167 -7.16699 -52.5 -21.5s-21.5 -31.833 -21.5 -52.5s7.16699 -38 21.5 -52
s31.833 -21 52.5 -21s37.834 7 51.501 21z" />
    <glyph glyph-name="edotaccent" unicode="&#x117;" horiz-adv-x="515" 
d="M490 244c0 47.333 -8 90.168 -24 128.501s-40.667 68.833 -74 91.5s-74.333 34 -123 34c-50 0 -93.333 -10.5 -130 -31.5s-64.834 -50.833 -84.501 -89.5s-29.5 -83.667 -29.5 -135c0 -79.333 23.833 -141.5 71.5 -186.5s117.5 -67.5 209.5 -67.5
c39.333 0 73.333 5.16699 102 15.5s55.334 25.166 80.001 44.499l-38 94c-24.667 -14 -47.667 -24.667 -69 -32s-45.333 -11 -72 -11c-46 0 -80.167 9 -102.5 27s-36.833 44 -43.5 78h327v40zM199 362.502c18 16.333 40.333 24.501 67 24.501s48.5 -8 65.5 -24
s28.833 -40 35.5 -72h-203c5.33301 31.333 17 55.166 35 71.499zM316.5 615.003c13.667 14 20.5 31.333 20.5 52s-6.83301 38.167 -20.5 52.5s-30.834 21.5 -51.501 21.5s-38.167 -7.16699 -52.5 -21.5s-21.5 -31.833 -21.5 -52.5s7.16699 -38 21.5 -52s31.833 -21 52.5 -21
s37.834 7 51.501 21z" />
    <glyph glyph-name="Eogonek" unicode="&#x118;" horiz-adv-x="581" 
d="M569 -174c-29.333 -22 -63.334 -32.999 -102.001 -32.999c-34 0 -61.833 11 -83.5 33s-32.5 48.667 -32.5 80c0 12.667 3.5 28.667 10.5 48s14.833 34.666 23.5 45.999h-300v680h406l20 -102h-297v-183h222l21 -103h-243v-191h326l21 -101h-62
c-10 -10 -19 -23.333 -27 -40s-12 -31 -12 -43c0 -8 2.66699 -14.667 8 -20s13 -8 23 -8c4.66699 0 10.834 1.5 18.501 4.5s15.167 7.16699 22.5 12.5z" />
    <glyph glyph-name="eogonek" unicode="&#x119;" horiz-adv-x="515" 
d="M490 204l-327.002 -0.000976562c6.66699 -34 21.167 -60 43.5 -78s56.5 -27 102.5 -27c26.667 0 50.667 3.66699 72 11s44.333 18 69 32l38 -94c-25.333 -20 -52.666 -35 -81.999 -45c-10 -9.33301 -19.5 -22.833 -28.5 -40.5s-13.5 -32.834 -13.5 -45.501
c0 -8 2.66699 -14.667 8 -20s13 -8 23 -8c4.66699 0 10.834 1.5 18.501 4.5s15.167 7.16699 22.5 12.5l37 -80c-29.333 -22 -63.333 -33 -102 -33c-34 0 -61.833 11 -83.5 33s-32.5 48.667 -32.5 80c0 11.333 2.66699 24.833 8 40.5s11.666 29.834 18.999 42.501
c-84 4 -147.833 28.167 -191.5 72.5s-65.5 104.5 -65.5 180.5c0 51.333 9.83301 96.333 29.5 135s47.834 68.5 84.501 89.5s80 31.5 130 31.5c48.667 0 89.667 -11.333 123 -34s58 -53.167 74 -91.5s24 -81.166 24 -128.499v-40zM366.998 290.999
c-6.66699 32 -18.5 55.999 -35.5 71.999s-38.833 24 -65.5 24s-49 -8.16699 -67 -24.5s-29.667 -40.166 -35 -71.499h203z" />
    <glyph glyph-name="Ecaron" unicode="&#x11a;" horiz-adv-x="581" 
d="M561 0l-21 101h-326v191h243l-21 103h-222v183h297l-20 102h-406v-680h476zM306 838l-67 65l-123 -16l152 -148h71l152 148l-119 16z" />
    <glyph glyph-name="ecaron" unicode="&#x11b;" horiz-adv-x="515" 
d="M490 244c0 47.333 -8 90.168 -24 128.501s-40.667 68.833 -74 91.5s-74.333 34 -123 34c-50 0 -93.333 -10.5 -130 -31.5s-64.834 -50.833 -84.501 -89.5s-29.5 -83.667 -29.5 -135c0 -79.333 23.833 -141.5 71.5 -186.5s117.5 -67.5 209.5 -67.5
c39.333 0 73.333 5.16699 102 15.5s55.334 25.166 80.001 44.499l-38 94c-24.667 -14 -47.667 -24.667 -69 -32s-45.333 -11 -72 -11c-46 0 -80.167 9 -102.5 27s-36.833 44 -43.5 78h327v40zM199 362.502c18 16.333 40.333 24.501 67 24.501s48.5 -8 65.5 -24
s28.833 -40 35.5 -72h-203c5.33301 31.333 17 55.166 35 71.499zM269 688.003l-67 65l-123 -16l152 -148h71l152 148l-119 16z" />
    <glyph glyph-name="Gbreve" unicode="&#x11e;" horiz-adv-x="630" 
d="M469 272v-166.001c-35.333 -7.33301 -68.333 -11 -99 -11c-39.333 0 -74.166 9.83301 -104.499 29.5s-53.833 48 -70.5 85s-25 79.833 -25 128.5c0 53.333 9.83301 98.5 29.5 135.5s46.167 64.833 79.5 83.5s70.666 28 111.999 28c22 0 40.5 -1.5 55.5 -4.5
s35.167 -8.16699 60.5 -15.5c-0.666992 0.666992 8.33301 -2 27 -8l41 93c-27.333 14.667 -59 25.667 -95 33s-66.333 11 -91 11c-67.333 0 -128 -15.333 -182 -46s-96.167 -73.167 -126.5 -127.5s-45.5 -115.5 -45.5 -183.5c0 -65.333 13.667 -124.666 41 -177.999
s66.5 -95.5 117.5 -126.5s110.833 -46.5 179.5 -46.5c40 0 78.333 4.66699 115 14s69 21.333 97 36v336h-248l-11 -100h143zM433 852.999c-10 -14 -24.998 -21 -44.998 -21s-34.667 6.83301 -44 20.5s-14 30.5 -14 50.5h-89c0 -45.333 12.667 -83.833 38 -115.5
s61.666 -47.834 108.999 -48.501c47.333 0.666992 83.666 16.834 108.999 48.501s38 70.167 38 115.5h-87c0 -19.333 -5 -36 -15 -50z" />
    <glyph glyph-name="gbreve" unicode="&#x11f;" 
d="M507 485l0.000976562 -507.998c0 -66.667 -23.333 -117.834 -70 -153.501s-109.334 -53.5 -188.001 -53.5c-24.667 0 -58 5.16699 -100 15.5s-74.667 23.5 -98 39.5l39 92c30 -14.667 57.333 -25.334 82 -32.001s49.334 -10.334 74.001 -11.001
c39.333 0.666992 70.833 10.334 94.5 29.001s35.5 43.667 35.5 75v41c-33.333 -20.667 -69 -31 -107 -31c-75.333 0 -134.833 22.833 -178.5 68.5s-65.5 107.5 -65.5 185.5c0 50.667 9.83301 95.334 29.5 134.001s48.167 68.667 85.5 90s81.666 32 132.999 32
c22 0 45.5 -5.33301 70.5 -16s47.167 -24.334 66.5 -41.001l29 44h68zM324.501 109.002c16.333 6.66699 33.501 16.667 51.501 30v207c-17.333 14.667 -34 25.167 -50 31.5s-33.333 9.5 -52 9.5c-35.333 0 -63.333 -13.5 -84 -40.5s-31 -61.833 -31 -104.5
s10.167 -77.167 30.5 -103.5s48.5 -39.5 84.5 -39.5c17.333 0 34.166 3.33301 50.499 10zM305.002 703.002c-10 -14 -24.998 -21 -44.998 -21s-34.667 6.83301 -44 20.5s-14 30.5 -14 50.5h-89c0 -45.333 12.667 -83.833 38 -115.5s61.666 -47.834 108.999 -48.501
c47.333 0.666992 83.666 16.834 108.999 48.501s38 70.167 38 115.5h-87c0 -19.333 -5 -36 -15 -50z" />
    <glyph glyph-name="Gcommaaccent" unicode="&#x122;" horiz-adv-x="630" 
d="M469 272v-166.001c-35.333 -7.33301 -68.333 -11 -99 -11c-39.333 0 -74.166 9.83301 -104.499 29.5s-53.833 48 -70.5 85s-25 79.833 -25 128.5c0 53.333 9.83301 98.5 29.5 135.5s46.167 64.833 79.5 83.5s70.666 28 111.999 28c22 0 40.5 -1.5 55.5 -4.5
s35.167 -8.16699 60.5 -15.5c-0.666992 0.666992 8.33301 -2 27 -8l41 93c-27.333 14.667 -59 25.667 -95 33s-66.333 11 -91 11c-67.333 0 -128 -15.333 -182 -46s-96.167 -73.167 -126.5 -127.5s-45.5 -115.5 -45.5 -183.5c0 -65.333 13.667 -124.666 41 -177.999
s66.5 -95.5 117.5 -126.5s110.833 -46.5 179.5 -46.5c40 0 78.333 4.66699 115 14s69 21.333 97 36v336h-248l-11 -100h143zM324 -44.001c-14.667 -15.333 -22 -32.333 -22 -51c0 -18 6.16699 -34.5 18.5 -49.5s24.833 -22.5 37.5 -22.5
c-4 -12.667 -11.167 -24.167 -21.5 -34.5s-20.5 -17.5 -30.5 -21.5l28 -61c33.333 16 61 39.833 83 71.5s33 65.5 33 101.5c0 26 -7.16699 47.5 -21.5 64.5s-31.833 25.5 -52.5 25.5c-20 0 -37.333 -7.66699 -52 -23z" />
    <glyph glyph-name="gcommaaccent" unicode="&#x123;" 
d="M217 566c-14.667 17.333 -22 38.998 -22 64.998c0 34.667 11.167 67.834 33.5 99.501s49.833 56.167 82.5 73.5l28 -62c-9.33301 -2.66699 -19.166 -9.16699 -29.499 -19.5s-17.5 -22.166 -21.5 -35.499c7.33301 0 15.333 -3.5 24 -10.5s16.167 -16.167 22.5 -27.5
s9.5 -22.666 9.5 -33.999c0 -18.667 -7.33301 -35.834 -22 -51.501s-32 -23.5 -52 -23.5c-20.667 0 -38.334 8.66699 -53.001 26zM507 484.998l0.000976562 -507.999c0 -66.667 -23.333 -117.834 -70 -153.501s-109.334 -53.5 -188.001 -53.5
c-24.667 0 -58 5.16699 -100 15.5s-74.667 23.5 -98 39.5l39 92c30 -14.667 57.333 -25.334 82 -32.001s49.334 -10.334 74.001 -11.001c39.333 0.666992 70.833 10.334 94.5 29.001s35.5 43.667 35.5 75v43c-35.333 -22 -71 -33 -107 -33
c-75.333 0 -134.833 22.833 -178.5 68.5s-65.5 107.5 -65.5 185.5c0 50.667 9.83301 95.334 29.5 134.001s48.167 68.667 85.5 90s81.666 32 132.999 32c19.333 0 42 -5.5 68 -16.5s49 -24.5 69 -40.5l29 44h68zM324.501 108.999c16.333 6.66699 33.501 16.667 51.501 30
v207c-17.333 14.667 -34 25.167 -50 31.5s-33.333 9.5 -52 9.5c-35.333 0 -63.333 -13.5 -84 -40.5s-31 -61.833 -31 -104.5s10.167 -77.167 30.5 -103.5s48.5 -39.5 84.5 -39.5c17.333 0 34.166 3.33301 50.499 10z" />
    <glyph glyph-name="Imacron" unicode="&#x12a;" horiz-adv-x="299" 
d="M214 0v680h-129v-680h129zM16 763h262l-10 103h-252v-103z" />
    <glyph glyph-name="imacron" unicode="&#x12b;" horiz-adv-x="240" 
d="M185 0v485h-130v-485h130zM-18 613h262l-10 103h-252v-103z" />
    <glyph glyph-name="Iogonek" unicode="&#x12e;" horiz-adv-x="299" 
d="M279 -179c-29.333 -22 -63.333 -33.001 -102 -33.001c-34 0 -61.833 11 -83.5 33s-32.5 48.667 -32.5 80c0 16 2.16699 33.833 6.5 53.5s10.166 34.834 17.499 45.501v680h129v-680c-10 -9.33301 -19.833 -23 -29.5 -41s-14.5 -33.667 -14.5 -47
c0 -8 2.66699 -14.667 8 -20s13 -8 23 -8c4.66699 0 10.834 1.5 18.501 4.5s15.167 7.16699 22.5 12.5z" />
    <glyph glyph-name="iogonek" unicode="&#x12f;" horiz-adv-x="240" 
d="M65.5 615c-14.333 14 -21.5 31.333 -21.5 52s7.16699 38.167 21.5 52.5s31.833 21.5 52.5 21.5s37.834 -7.16699 51.501 -21.5s20.5 -31.833 20.5 -52.5s-6.83301 -38 -20.5 -52s-30.834 -21 -51.501 -21s-38.167 7 -52.5 21zM250 -179
c-29.333 -22 -63.334 -33 -102.001 -33c-34 0 -61.833 11 -83.5 33s-32.5 48.667 -32.5 80c0 16.667 2 34.667 6 54s9.66699 34.333 17 45v485h130v-485c-10 -9.33301 -19.833 -23 -29.5 -41s-14.5 -33.667 -14.5 -47c0 -8 2.66699 -14.667 8 -20s13 -8 23 -8
c4.66699 0 10.834 1.5 18.501 4.5s15.167 7.16699 22.5 12.5z" />
    <glyph glyph-name="Idotaccent" unicode="&#x130;" horiz-adv-x="299" 
d="M214 0v680h-129v-680h129zM203.5 765c13.667 14 20.5 31.333 20.5 52s-6.83301 38.167 -20.5 52.5s-30.834 21.5 -51.501 21.5s-38.167 -7.16699 -52.5 -21.5s-21.5 -31.833 -21.5 -52.5s7.16699 -38 21.5 -52s31.833 -21 52.5 -21s37.834 7 51.501 21z" />
    <glyph glyph-name="dotlessi" unicode="&#x131;" horiz-adv-x="240" 
d="M185 0v485h-130v-485h130z" />
    <glyph glyph-name="Kcommaaccent" unicode="&#x136;" horiz-adv-x="658" 
d="M487 0l-205 283l-67 -70v-213h-130v680h130v-285l295 300l96 -74l-234 -244l276 -377h-161zM306 -44c-14.667 -15.333 -22 -32.333 -22 -51c0 -18 6.16699 -34.5 18.5 -49.5s24.833 -22.5 37.5 -22.5c-4 -12.667 -11.167 -24.167 -21.5 -34.5s-20.5 -17.5 -30.5 -21.5
l28 -61c33.333 16 61 39.833 83 71.5s33 65.5 33 101.5c0 26 -7.16699 47.5 -21.5 64.5s-31.833 25.5 -52.5 25.5c-20 0 -37.333 -7.66699 -52 -23z" />
    <glyph glyph-name="kcommaaccent" unicode="&#x137;" horiz-adv-x="517" 
d="M194 0v159l52 46l122 -205h149l-178 288l136 119l-73 92l-208 -191v398l-129 -11v-695h129zM225 -44c-14.667 -15.333 -22 -32.333 -22 -51c0 -18 6.16699 -34.5 18.5 -49.5s24.833 -22.5 37.5 -22.5c-4 -12.667 -11.167 -24.167 -21.5 -34.5s-20.5 -17.5 -30.5 -21.5
l28 -61c33.333 16 61 39.833 83 71.5s33 65.5 33 101.5c0 26 -7.16699 47.5 -21.5 64.5s-31.833 25.5 -52.5 25.5c-20 0 -37.333 -7.66699 -52 -23z" />
    <glyph glyph-name="Lacute" unicode="&#x139;" horiz-adv-x="544" 
d="M514 101h-300v579h-129v-680h449zM253 739l95 164h-134l-51 -139z" />
    <glyph glyph-name="lacute" unicode="&#x13a;" horiz-adv-x="259" 
d="M177 739l95 164h-134l-51 -139zM194 0v685l-129 -12v-673h129z" />
    <glyph glyph-name="Lcommaaccent" unicode="&#x13b;" horiz-adv-x="544" 
d="M514 101h-300v579h-129v-680h449zM319 -44c-14.667 -15.333 -22 -32.333 -22 -51c0 -18 6.16699 -34.5 18.5 -49.5s24.833 -22.5 37.5 -22.5c-4 -12.667 -11.167 -24.167 -21.5 -34.5s-20.5 -17.5 -30.5 -21.5l28 -61c33.333 16 61 39.833 83 71.5s33 65.5 33 101.5
c0 26 -7.16699 47.5 -21.5 64.5s-31.833 25.5 -52.5 25.5c-20 0 -37.333 -7.66699 -52 -23z" />
    <glyph glyph-name="lcommaaccent" unicode="&#x13c;" horiz-adv-x="259" 
d="M194 0v706l-129 -11v-695h129zM86 -44c-14.667 -15.333 -22 -32.333 -22 -51c0 -18 6.16699 -34.5 18.5 -49.5s24.833 -22.5 37.5 -22.5c-4 -12.667 -11.167 -24.167 -21.5 -34.5s-20.5 -17.5 -30.5 -21.5l28 -61c33.333 16 61 39.833 83 71.5s33 65.5 33 101.5
c0 26 -7.16699 47.5 -21.5 64.5s-31.833 25.5 -52.5 25.5c-20 0 -37.333 -7.66699 -52 -23z" />
    <glyph glyph-name="Lcaron" unicode="&#x13d;" horiz-adv-x="544" 
d="M514 101h-300v579h-129v-680h449zM369.5 718.5c-14.333 -15.667 -21.5 -32.499 -21.5 -50.499c0 -17.333 6.33301 -33.5 19 -48.5s25 -22.5 37 -22.5c-4 -19.333 -10.833 -35 -20.5 -47s-25.167 -27.333 -46.5 -46l28 -61c38 21.333 69.5 52.166 94.5 92.499
s37.5 79.5 37.5 117.5c0 26 -7.33301 47.333 -22 64s-32.667 25 -54 25c-20 0 -37.167 -7.83301 -51.5 -23.5z" />
    <glyph glyph-name="lcaron" unicode="&#x13e;" horiz-adv-x="452" 
d="M294.5 718.5c-14.333 -15.667 -21.5 -32.499 -21.5 -50.499c0 -17.333 6.33301 -33.5 19 -48.5s25 -22.5 37 -22.5c-4 -19.333 -10.833 -35 -20.5 -47s-25.167 -27.333 -46.5 -46l28 -61c38 21.333 69.5 52.166 94.5 92.499s37.5 79.5 37.5 117.5
c0 26 -7.33301 47.333 -22 64s-32.667 25 -54 25c-20 0 -37.167 -7.83301 -51.5 -23.5zM194 0.000976562v706l-129 -11v-695h129z" />
    <glyph glyph-name="Lslash" unicode="&#x141;" horiz-adv-x="556" 
d="M85 0v208l-31 -23l-49 91l80 60v344h129v-246l106 80l50 -91l-156 -117v-205h300l20 -101h-449z" />
    <glyph glyph-name="lslash" unicode="&#x142;" horiz-adv-x="366" 
d="M315 535l-67 -51v222l-129 -11v-309l-119 -90l50 -90l69 51v-257h129v356l118 89z" />
    <glyph glyph-name="Nacute" unicode="&#x143;" horiz-adv-x="744" 
d="M214 0v455l315 -455h130v680h-130v-454l-315 454h-129v-680h129zM417 739l95 164h-134l-51 -139z" />
    <glyph glyph-name="nacute" unicode="&#x144;" horiz-adv-x="566" 
d="M185 336c24 17.333 46 31.167 66 41.5s41.333 15.5 64 15.5c22 0 39.167 -8.33301 51.5 -25s18.5 -40 18.5 -70v-298h130v304c0 62 -12.333 110.333 -37 145s-67.667 52 -129 52c-26.667 0 -57 -6 -91 -18s-66 -28.667 -96 -50l-22 52h-85v-485h130v336zM305 589.001
l95 164h-134l-51 -139z" />
    <glyph glyph-name="Ncommaaccent" unicode="&#x145;" horiz-adv-x="744" 
d="M214 0v455l315 -455h130v680h-130v-454l-315 454h-129v-680h129zM331 -44c-14.667 -15.333 -22 -32.333 -22 -51c0 -18 6.16699 -34.5 18.5 -49.5s24.833 -22.5 37.5 -22.5c-4 -12.667 -11.167 -24.167 -21.5 -34.5s-20.5 -17.5 -30.5 -21.5l28 -61
c33.333 16 61 39.833 83 71.5s33 65.5 33 101.5c0 26 -7.16699 47.5 -21.5 64.5s-31.833 25.5 -52.5 25.5c-20 0 -37.333 -7.66699 -52 -23z" />
    <glyph glyph-name="ncommaaccent" unicode="&#x146;" horiz-adv-x="566" 
d="M185 336c24 17.333 46 31.167 66 41.5s41.333 15.5 64 15.5c22 0 39.167 -8.33301 51.5 -25s18.5 -40 18.5 -70v-298h130v304c0 62 -12.333 110.333 -37 145s-67.667 52 -129 52c-26.667 0 -57 -6 -91 -18s-66 -28.667 -96 -50l-22 52h-85v-485h130v336zM243 -43.999
c-14.667 -15.333 -22 -32.333 -22 -51c0 -18 6.16699 -34.5 18.5 -49.5s24.833 -22.5 37.5 -22.5c-4 -12.667 -11.167 -24.167 -21.5 -34.5s-20.5 -17.5 -30.5 -21.5l28 -61c33.333 16 61 39.833 83 71.5s33 65.5 33 101.5c0 26 -7.16699 47.5 -21.5 64.5
s-31.833 25.5 -52.5 25.5c-20 0 -37.333 -7.66699 -52 -23z" />
    <glyph glyph-name="Ncaron" unicode="&#x147;" horiz-adv-x="744" 
d="M214 0v455l315 -455h130v680h-130v-454l-315 454h-129v-680h129zM382 838l-67 65l-123 -16l152 -148h71l152 148l-119 16z" />
    <glyph glyph-name="ncaron" unicode="&#x148;" horiz-adv-x="566" 
d="M185 336c24 17.333 46 31.167 66 41.5s41.333 15.5 64 15.5c22 0 39.167 -8.33301 51.5 -25s18.5 -40 18.5 -70v-298h130v304c0 62 -12.333 110.333 -37 145s-67.667 52 -129 52c-26.667 0 -57 -6 -91 -18s-66 -28.667 -96 -50l-22 52h-85v-485h130v336zM298 688.001
l-67 65l-123 -16l152 -148h71l152 148l-119 16z" />
    <glyph glyph-name="Omacron" unicode="&#x14c;" horiz-adv-x="737" 
d="M194 648c-50.667 -30.667 -89.8311 -72.999 -117.498 -126.999s-41.5 -115.333 -41.5 -184c0 -66 13.167 -125.5 39.5 -178.5s64.666 -95 114.999 -126s109.833 -46.5 178.5 -46.5c66 1.33301 124.167 17.166 174.5 47.499s89.5 72.333 117.5 126s42 115.167 42 184.5
c0 66 -13.167 125.667 -39.5 179s-64.833 95.5 -115.5 126.5s-110.334 46.5 -179.001 46.5c-65.333 -1.33301 -123.333 -17.333 -174 -48zM197.503 468.501c18.333 37.667 42.666 66.6689 72.999 87.002s63.5 30.5 99.5 30.5c39.333 0 74 -10.333 104 -31
s53 -49.334 69 -86.001s24 -78.334 24 -125.001c0 -54 -8.83301 -99.833 -26.5 -137.5s-41.667 -65.667 -72 -84s-64.166 -27.5 -101.499 -27.5c-40 0 -74.833 10.167 -104.5 30.5s-52.5 49 -68.5 86s-24 79.167 -24 126.5c0 49.333 9.16699 92.833 27.5 130.5z
M232.003 763.003h262l-10 103h-252v-103z" />
    <glyph glyph-name="omacron" unicode="&#x14d;" 
d="M511 109c-21.333 -38.667 -51.5 -68.5 -90.5 -89.5s-84.5 -31.5 -136.5 -31.5s-97.5 10.333 -136.5 31s-69.167 50.167 -90.5 88.5s-32 83.166 -32 134.499s10.667 96.333 32 135s51.5 68.5 90.5 89.5s84.5 31.5 136.5 31.5s97.5 -10.333 136.5 -31
s69.167 -50.167 90.5 -88.5s32 -83.166 32 -134.499s-10.667 -96.333 -32 -135zM373.5 140c23.667 27.333 35.5 62 35.5 104s-11.667 76.333 -35 103s-53.333 40 -90 40c-36 0 -65.833 -13.667 -89.5 -41s-35.5 -62 -35.5 -104s11.667 -76.333 35 -103s53.333 -40 90 -40
c36 0 65.833 13.667 89.5 41zM145 613h262l-10 103h-252v-103z" />
    <glyph glyph-name="Ohungarumlaut" unicode="&#x150;" horiz-adv-x="737" 
d="M194 648c-50.667 -30.667 -89.8311 -72.999 -117.498 -126.999s-41.5 -115.333 -41.5 -184c0 -66 13.167 -125.5 39.5 -178.5s64.666 -95 114.999 -126s109.833 -46.5 178.5 -46.5c66 1.33301 124.167 17.166 174.5 47.499s89.5 72.333 117.5 126s42 115.167 42 184.5
c0 66 -13.167 125.667 -39.5 179s-64.833 95.5 -115.5 126.5s-110.334 46.5 -179.001 46.5c-65.333 -1.33301 -123.333 -17.333 -174 -48zM197.503 468.501c18.333 37.667 42.666 66.6689 72.999 87.002s63.5 30.5 99.5 30.5c39.333 0 74 -10.333 104 -31
s53 -49.334 69 -86.001s24 -78.334 24 -125.001c0 -54 -8.83301 -99.833 -26.5 -137.5s-41.667 -65.667 -72 -84s-64.166 -27.5 -101.499 -27.5c-40 0 -74.833 10.167 -104.5 30.5s-52.5 49 -68.5 86s-24 79.167 -24 126.5c0 49.333 9.16699 92.833 27.5 130.5z
M304.003 739.003l95 164h-134l-51 -139zM504.003 739.003l95 164h-134l-51 -139z" />
    <glyph glyph-name="ohungarumlaut" unicode="&#x151;" 
d="M511 109c-21.333 -38.667 -51.5 -68.5 -90.5 -89.5s-84.5 -31.5 -136.5 -31.5s-97.5 10.333 -136.5 31s-69.167 50.167 -90.5 88.5s-32 83.166 -32 134.499s10.667 96.333 32 135s51.5 68.5 90.5 89.5s84.5 31.5 136.5 31.5s97.5 -10.333 136.5 -31
s69.167 -50.167 90.5 -88.5s32 -83.166 32 -134.499s-10.667 -96.333 -32 -135zM373.5 140c23.667 27.333 35.5 62 35.5 104s-11.667 76.333 -35 103s-53.333 40 -90 40c-36 0 -65.833 -13.667 -89.5 -41s-35.5 -62 -35.5 -104s11.667 -76.333 35 -103s53.333 -40 90 -40
c36 0 65.833 13.667 89.5 41zM220 589l95 164h-134l-51 -139zM420 589l95 164h-134l-51 -139z" />
    <glyph glyph-name="OE" unicode="&#x152;" horiz-adv-x="986" 
d="M490 0l0.00195312 7c-47.333 -14 -91.333 -21 -132 -21c-68.667 0 -127.334 15.333 -176.001 46s-85.334 72.5 -110.001 125.5s-37 112.833 -37 179.5c0 69.333 13.5 131 40.5 185s65.333 96.167 115 126.5s107.167 45.5 172.5 45.5c16.667 0 36.5 -1.83301 59.5 -5.5
s45.5 -9.16699 67.5 -16.5v8h406l20 -102h-297v-183h222l21 -103h-243v-191h326l21 -101h-476zM490.002 122l0.00195312 439.001c-31.333 9.33301 -55 15.666 -71 18.999s-36 5 -60 5c-36 0 -68.333 -10 -97 -30s-51.167 -48.667 -67.5 -86s-24.5 -81 -24.5 -131
c0 -44.667 7.16699 -85.5 21.5 -122.5s35.166 -66.333 62.499 -88s59.666 -32.5 96.999 -32.5c46 0 92.333 9 139 27z" />
    <glyph glyph-name="oe" unicode="&#x153;" horiz-adv-x="842" 
d="M817 204l-327 -0.00195312c6.66699 -34 21.167 -60 43.5 -78s56.5 -27 102.5 -27c26.667 0 50.667 3.66699 72 11s44.333 18 69 32l38 -94c-24.667 -19.333 -51.334 -34.166 -80.001 -44.499s-62.667 -15.5 -102 -15.5c-76 0 -137.667 16 -185 48
c-20.667 -15.333 -47.334 -27.166 -80.001 -35.499s-61 -12.5 -85 -12.5c-52 0 -97.5 10.333 -136.5 31s-69 50.167 -90 88.5s-31.5 83.166 -31.5 134.499s10.5 96.333 31.5 135s51 68.5 90 89.5s84.5 31.5 136.5 31.5c21.333 0 47.833 -4.16699 79.5 -12.5
s58.834 -19.5 81.501 -33.5c40.667 30.667 91.334 46 152.001 46c48.667 0 89.667 -11.333 123 -34s58 -53.167 74 -91.5s24 -81.166 24 -128.499v-40zM194 138.998c23.333 -26.667 53.333 -40.001 90 -40.001c30.667 0 62 6 94 18c-17.333 36.667 -26 78.334 -26 125.001
c0 48 8.66699 90.333 26 127c-32 12 -63.333 18 -94 18c-36 0 -65.833 -13.667 -89.5 -41s-35.5 -62 -35.5 -104s11.667 -76.333 35 -103zM694 290.997c-6.66699 32 -18.5 55.999 -35.5 71.999s-38.833 24 -65.5 24s-49 -8.16699 -67 -24.5s-29.667 -40.166 -35 -71.499h203
z" />
    <glyph glyph-name="Racute" unicode="&#x154;" horiz-adv-x="628" 
d="M85 0l129 -0.000976562v258h122l144 -258h138l-167 292c35.333 17.333 63.5 41.333 84.5 72s31.5 66.334 31.5 107.001c0 68 -25.167 119.833 -75.5 155.5s-114.833 53.5 -193.5 53.5h-213v-680zM430 464.999c0 -34.667 -12.167 -60.167 -36.5 -76.5
s-56.833 -24.5 -97.5 -24.5h-82v208h80c90.667 0 136 -35.667 136 -107zM338 738.999l95 164h-134l-51 -139z" />
    <glyph glyph-name="racute" unicode="&#x155;" horiz-adv-x="367" 
d="M185 296c28 24.667 58.166 45.001 90.499 61.001s59.5 24 81.5 24l-26 104c-24 0 -51.667 -8.33301 -83 -25s-58.666 -35.334 -81.999 -56.001l-43 81h-68v-485h130v296zM207.999 589.001l95 164h-134l-51 -139z" />
    <glyph glyph-name="Rcommaaccent" unicode="&#x156;" horiz-adv-x="628" 
d="M85 0l129 -0.000976562v258h122l144 -258h138l-167 292c35.333 17.333 63.5 41.333 84.5 72s31.5 66.334 31.5 107.001c0 68 -25.167 119.833 -75.5 155.5s-114.833 53.5 -193.5 53.5h-213v-680zM430 464.999c0 -34.667 -12.167 -60.167 -36.5 -76.5
s-56.833 -24.5 -97.5 -24.5h-82v208h80c90.667 0 136 -35.667 136 -107zM298 -44.001c-14.667 -15.333 -22 -32.333 -22 -51c0 -18 6.16699 -34.5 18.5 -49.5s24.833 -22.5 37.5 -22.5c-4 -12.667 -11.167 -24.167 -21.5 -34.5s-20.5 -17.5 -30.5 -21.5l28 -61
c33.333 16 61 39.833 83 71.5s33 65.5 33 101.5c0 26 -7.16699 47.5 -21.5 64.5s-31.833 25.5 -52.5 25.5c-20 0 -37.333 -7.66699 -52 -23z" />
    <glyph glyph-name="rcommaaccent" unicode="&#x157;" horiz-adv-x="367" 
d="M185 296c28 24.667 58.166 45.001 90.499 61.001s59.5 24 81.5 24l-26 104c-24 0 -51.667 -8.33301 -83 -25s-58.666 -35.334 -81.999 -56.001l-43 81h-68v-485h130v296zM70.999 -43.999c-14.667 -15.333 -22 -32.333 -22 -51c0 -18 6.16699 -34.5 18.5 -49.5
s24.833 -22.5 37.5 -22.5c-4 -12.667 -11.167 -24.167 -21.5 -34.5s-20.5 -17.5 -30.5 -21.5l28 -61c33.333 16 61 39.833 83 71.5s33 65.5 33 101.5c0 26 -7.16699 47.5 -21.5 64.5s-31.833 25.5 -52.5 25.5c-20 0 -37.333 -7.66699 -52 -23z" />
    <glyph glyph-name="Rcaron" unicode="&#x158;" horiz-adv-x="628" 
d="M85 0l129 -0.000976562v258h122l144 -258h138l-167 292c35.333 17.333 63.5 41.333 84.5 72s31.5 66.334 31.5 107.001c0 68 -25.167 119.833 -75.5 155.5s-114.833 53.5 -193.5 53.5h-213v-680zM430 464.999c0 -34.667 -12.167 -60.167 -36.5 -76.5
s-56.833 -24.5 -97.5 -24.5h-82v208h80c90.667 0 136 -35.667 136 -107zM303 837.999l-67 65l-123 -16l152 -148h71l152 148l-119 16z" />
    <glyph glyph-name="rcaron" unicode="&#x159;" horiz-adv-x="367" 
d="M185 296c28 24.667 58.166 45.001 90.499 61.001s59.5 24 81.5 24l-26 104c-24 0 -51.667 -8.33301 -83 -25s-58.666 -35.334 -81.999 -56.001l-43 81h-68v-485h130v296zM200.999 688.001l-67 65l-123 -16l152 -148h71l152 148l-119 16z" />
    <glyph glyph-name="Sacute" unicode="&#x15a;" horiz-adv-x="527" 
d="M143.5 5.5c41.667 -12.333 76.5 -18.5 104.5 -18.5c53.333 0 99.166 8 137.499 24s67.333 38 87 66s29.5 60.333 29.5 97c0 32.667 -7.83301 61.167 -23.5 85.5s-35.167 45 -58.5 62s-54.666 36.833 -93.999 59.5l-29 17l-32 18c-34 20 -58.5 36.5 -73.5 49.5
s-22.5 29.167 -22.5 48.5c0 22.667 9.5 39.834 28.5 51.501s43.5 17.5 73.5 17.5c26 0 50.167 -3.66699 72.5 -11s47.166 -17.666 74.499 -30.999l43 104c-70.667 34 -134.667 51 -192 51c-48.667 0 -90.5 -7.83301 -125.5 -23.5s-61.833 -37.334 -80.5 -65.001
s-28 -58.834 -28 -93.501c0 -32.667 9.5 -62.167 28.5 -88.5s41.667 -49.166 68 -68.499s61.833 -42.333 106.5 -69l30 -18c34 -18.667 59.167 -34.834 75.5 -48.501s24.5 -28.834 24.5 -45.501c0 -24 -10.333 -42.333 -31 -55s-51 -19 -91 -19
c-26 0 -54.667 4.83301 -86 14.5s-59.333 20.834 -84 33.501l-29 -105c22.667 -14 54.834 -27.167 96.501 -39.5zM308 739l95 164h-134l-51 -139z" />
    <glyph glyph-name="sacute" unicode="&#x15b;" horiz-adv-x="422" 
d="M108 1c33.333 -8.66699 62.333 -13.001 87 -13.001c65.333 0 115.333 13.167 150 39.5s52 63.833 52 112.5c0 38.667 -15.667 71.334 -47 98.001s-70.666 48.667 -117.999 66c-24.667 8.66699 -43.5 16.5 -56.5 23.5s-19.5 14.833 -19.5 23.5
c0 11.333 5.5 21.166 16.5 29.499s24.833 12.5 41.5 12.5c21.333 0 41.833 -2.66699 61.5 -8s42.167 -13.666 67.5 -24.999l39 87c-22.667 15.333 -50.334 27.666 -83.001 36.999s-60.334 14 -83.001 14c-58 0 -104 -13.167 -138 -39.5s-51 -62.5 -51 -108.5
c0 -36.667 15.333 -67 46 -91s69 -43.667 115 -59c56.667 -17.333 85 -39 85 -65c0 -13.333 -8.33301 -23.666 -25 -30.999s-35 -11 -55 -11c-35.333 0 -77.666 11 -126.999 33l-39 -88c20.667 -16 47.667 -28.333 81 -37zM227 588.999l95 164h-134l-51 -139z" />
    <glyph glyph-name="Scedilla" unicode="&#x15e;" horiz-adv-x="527" 
d="M446.5 48.5c-37 -33.667 -89.168 -53.501 -156.501 -59.501l-8 -18c20 -8 36.667 -20.5 50 -37.5s20 -34.167 20 -51.5c0 -33.333 -12.167 -58.833 -36.5 -76.5s-54.166 -26.5 -89.499 -26.5c-14 0 -30.833 2.66699 -50.5 8s-34.5 12 -44.5 20l30 76
c9.33301 -4.66699 20.5 -9.16699 33.5 -13.5s23.5 -6.5 31.5 -6.5c9.33301 0 17.333 1.33301 24 4s10 7 10 13c0 12 -8.5 21.833 -25.5 29.5s-37.833 12.834 -62.5 15.501l27 67c-26.667 4.66699 -54.5 12.167 -83.5 22.5s-51.833 20.5 -68.5 30.5l29 105
c24.667 -12.667 52.667 -23.834 84 -33.501s60 -14.5 86 -14.5c40 0 70.333 6.33301 91 19s31 31 31 55c0 16.667 -8.16699 31.834 -24.5 45.501s-41.5 29.834 -75.5 48.501l-30 18c-44.667 26.667 -80.167 49.667 -106.5 69s-49 42.166 -68 68.499s-28.5 55.833 -28.5 88.5
c0 34.667 9.33301 65.834 28 93.501s45.5 49.334 80.5 65.001s76.833 23.5 125.5 23.5c57.333 0 121.333 -17 192 -51l-43 -104c-27.333 13.333 -52.166 23.666 -74.499 30.999s-46.5 11 -72.5 11c-30 0 -54.5 -5.83301 -73.5 -17.5s-28.5 -28.834 -28.5 -51.501
c0 -19.333 7.5 -35.5 22.5 -48.5s39.5 -29.5 73.5 -49.5l32 -18l29 -17c39.333 -22.667 70.666 -42.5 93.999 -59.5s42.833 -37.667 58.5 -62s23.5 -52.833 23.5 -85.5c0 -50 -18.5 -91.833 -55.5 -125.5z" />
    <glyph glyph-name="scedilla" unicode="&#x15f;" horiz-adv-x="422" 
d="M356 37c-27.333 -26 -67 -41.667 -119 -47l-8 -19c20 -8 36.667 -20.5 50 -37.5s20 -34.167 20 -51.5c0 -33.333 -12.167 -58.833 -36.5 -76.5s-54.166 -26.5 -89.499 -26.5c-14 0 -30.833 2.66699 -50.5 8s-34.5 12 -44.5 20l30 76
c9.33301 -4.66699 20.5 -9.16699 33.5 -13.5s23.5 -6.5 31.5 -6.5c9.33301 0 17.333 1.33301 24 4s10 7 10 13c0 12 -8.5 21.833 -25.5 29.5s-37.833 12.834 -62.5 15.501l27 68c-52.667 9.33301 -92.334 24.333 -119.001 45l39 88c49.333 -22 91.666 -33 126.999 -33
c20 0 38.333 3.66699 55 11s25 17.666 25 30.999c0 26 -28.333 47.667 -85 65c-46 15.333 -84.333 35 -115 59s-46 54.333 -46 91c0 46 17 82.167 51 108.5s80 39.5 138 39.5c22.667 0 50.334 -4.66699 83.001 -14s60.334 -21.666 83.001 -36.999l-39 -87
c-25.333 11.333 -47.833 19.666 -67.5 24.999s-40.167 8 -61.5 8c-16.667 0 -30.5 -4.16699 -41.5 -12.5s-16.5 -18.166 -16.5 -29.499c0 -8.66699 6.5 -16.5 19.5 -23.5s31.833 -14.833 56.5 -23.5c47.333 -17.333 86.666 -39.333 117.999 -66s47 -59.334 47 -98.001
c0 -42.667 -13.667 -77 -41 -103z" />
    <glyph glyph-name="Scaron" unicode="&#x160;" horiz-adv-x="527" 
d="M143.5 5.5c41.667 -12.333 76.5 -18.5 104.5 -18.5c53.333 0 99.166 8 137.499 24s67.333 38 87 66s29.5 60.333 29.5 97c0 32.667 -7.83301 61.167 -23.5 85.5s-35.167 45 -58.5 62s-54.666 36.833 -93.999 59.5l-29 17l-32 18c-34 20 -58.5 36.5 -73.5 49.5
s-22.5 29.167 -22.5 48.5c0 22.667 9.5 39.834 28.5 51.501s43.5 17.5 73.5 17.5c26 0 50.167 -3.66699 72.5 -11s47.166 -17.666 74.499 -30.999l43 104c-70.667 34 -134.667 51 -192 51c-48.667 0 -90.5 -7.83301 -125.5 -23.5s-61.833 -37.334 -80.5 -65.001
s-28 -58.834 -28 -93.501c0 -32.667 9.5 -62.167 28.5 -88.5s41.667 -49.166 68 -68.499s61.833 -42.333 106.5 -69l30 -18c34 -18.667 59.167 -34.834 75.5 -48.501s24.5 -28.834 24.5 -45.501c0 -24 -10.333 -42.333 -31 -55s-51 -19 -91 -19
c-26 0 -54.667 4.83301 -86 14.5s-59.333 20.834 -84 33.501l-29 -105c22.667 -14 54.834 -27.167 96.501 -39.5zM273 838l-67 65l-123 -16l152 -148h71l152 148l-119 16z" />
    <glyph glyph-name="scaron" unicode="&#x161;" horiz-adv-x="422" 
d="M108 1c33.333 -8.66699 62.333 -13.001 87 -13.001c65.333 0 115.333 13.167 150 39.5s52 63.833 52 112.5c0 38.667 -15.667 71.334 -47 98.001s-70.666 48.667 -117.999 66c-24.667 8.66699 -43.5 16.5 -56.5 23.5s-19.5 14.833 -19.5 23.5
c0 11.333 5.5 21.166 16.5 29.499s24.833 12.5 41.5 12.5c21.333 0 41.833 -2.66699 61.5 -8s42.167 -13.666 67.5 -24.999l39 87c-22.667 15.333 -50.334 27.666 -83.001 36.999s-60.334 14 -83.001 14c-58 0 -104 -13.167 -138 -39.5s-51 -62.5 -51 -108.5
c0 -36.667 15.333 -67 46 -91s69 -43.667 115 -59c56.667 -17.333 85 -39 85 -65c0 -13.333 -8.33301 -23.666 -25 -30.999s-35 -11 -55 -11c-35.333 0 -77.666 11 -126.999 33l-39 -88c20.667 -16 47.667 -28.333 81 -37zM220 687.999l-67 65l-123 -16l152 -148h71l152 148
l-119 16z" />
    <glyph glyph-name="Tcedilla" unicode="&#x162;" horiz-adv-x="591" 
d="M367 -66.5c13.333 -17 19.999 -34.168 19.999 -51.501c0 -33.333 -12.167 -58.833 -36.5 -76.5s-54.166 -26.5 -89.499 -26.5c-14 0 -30.833 2.66699 -50.5 8s-34.5 12 -44.5 20l30 76c9.33301 -4.66699 20.5 -9.16699 33.5 -13.5s23.5 -6.5 31.5 -6.5
c9.33301 0 17.333 1.33301 24 4s10 7 10 13c0 12 -8.5 21.833 -25.5 29.5s-37.833 12.834 -62.5 15.501l30 75h-20v578h-207v102h550l21 -102h-233v-578h-19l-12 -29c20 -8 36.667 -20.5 50 -37.5z" />
    <glyph glyph-name="tcedilla" unicode="&#x163;" horiz-adv-x="381" 
d="M311 -66.5c13.333 -17 19.999 -34.168 19.999 -51.501c0 -33.333 -12.167 -58.833 -36.5 -76.5s-54.166 -26.5 -89.499 -26.5c-14 0 -30.833 2.66699 -50.5 8s-34.5 12 -44.5 20l30 76c9.33301 -4.66699 20.5 -9.16699 33.5 -13.5s23.5 -6.5 31.5 -6.5
c9.33301 0 17.333 1.33301 24 4s10 7 10 13c0 12 -8.5 21.833 -25.5 29.5s-37.833 12.834 -62.5 15.501l28 70c-33.333 12 -59 31.667 -77 59s-27 61 -27 101v229h-65v100h65v115l129 23v-138h88l40 -100h-128v-206c0 -26 6.16699 -47 18.5 -63s29.833 -24 52.5 -24
c17.333 0 35 4.33301 53 13l38 -94c-10 -8 -24.833 -15 -44.5 -21s-37.5 -9 -53.5 -9h-3l-4 -9c20 -8 36.667 -20.5 50 -37.5z" />
    <glyph glyph-name="Tcaron" unicode="&#x164;" horiz-adv-x="591" 
d="M560 680h-550v-102h207v-578h131v578h233zM288 838l-67 65l-123 -16l152 -148h71l152 148l-119 16z" />
    <glyph glyph-name="tcaron" unicode="&#x165;" horiz-adv-x="550" 
d="M392.5 718.5c-14.333 -15.667 -21.5 -32.499 -21.5 -50.499c0 -17.333 6.33301 -33.5 19 -48.5s25 -22.5 37 -22.5c-4 -19.333 -10.833 -35 -20.5 -47s-25.167 -27.333 -46.5 -46l28 -61c38 21.333 69.5 52.166 94.5 92.499s37.5 79.5 37.5 117.5
c0 26 -7.33301 47.333 -22 64s-32.667 25 -54 25c-20 0 -37.167 -7.83301 -51.5 -23.5zM204 484.001v138l-129 -23v-115h-65v-100h65v-229c0 -55.333 17 -98.333 51 -129s81.333 -46 142 -46c16 0 33.833 3 53.5 9s34.5 13 44.5 21l-38 94c-18 -8.66699 -35.667 -13 -53 -13
c-22.667 0 -40.167 8 -52.5 24s-18.5 37 -18.5 63v206h128l-40 100h-88z" />
    <glyph glyph-name="Umacron" unicode="&#x16a;" horiz-adv-x="710" 
d="M75 680l1 -433c0 -48.667 11.333 -92.667 34 -132s55 -70.166 97 -92.499s90.667 -33.5 146 -33.5c56 0 105.333 11.167 148 33.5s75.667 53 99 92s35 83.167 35 132.5v433h-131v-423c0 -52.667 -13.5 -92.834 -40.5 -120.501s-63.167 -41.5 -108.5 -41.5
s-81.5 13.5 -108.5 40.5s-40.5 67.5 -40.5 121.5v423h-131zM219 763h262l-10 103h-252v-103z" />
    <glyph glyph-name="umacron" unicode="&#x16b;" horiz-adv-x="566" 
d="M381 149c-24 -17.333 -46 -31.167 -66 -41.5s-41.333 -15.5 -64 -15.5c-22 0 -39.167 8.33301 -51.5 25s-18.5 40 -18.5 70v298h-130v-304c0 -62 12.333 -110.333 37 -145s67.667 -52 129 -52c26.667 0 57 6 91 18s66 28.667 96 50l22 -52h85v485h-130v-336zM149 612.999
h262l-10 103h-252v-103z" />
    <glyph glyph-name="Uring" unicode="&#x16e;" horiz-adv-x="710" 
d="M75 680l1 -433c0 -48.667 11.333 -92.667 34 -132s55 -70.166 97 -92.499s90.667 -33.5 146 -33.5c56 0 105.333 11.167 148 33.5s75.667 53 99 92s35 83.167 35 132.5v433h-131v-423c0 -52.667 -13.5 -92.834 -40.5 -120.501s-63.167 -41.5 -108.5 -41.5
s-81.5 13.5 -108.5 40.5s-40.5 67.5 -40.5 121.5v423h-131zM278 913.5c-21.333 -19.667 -32 -43.5 -32 -71.5s10.5 -51.333 31.5 -70s46.167 -28 75.5 -28s54.5 9.33301 75.5 28s31.5 42 31.5 70s-10.667 51.833 -32 71.5s-46.333 29.5 -75 29.5s-53.667 -9.83301 -75 -29.5
zM325 814c-8 8 -12 17.333 -12 28s4 19.834 12 27.501s17.333 11.5 28 11.5s19.834 -3.83301 27.501 -11.5s11.5 -16.834 11.5 -27.501s-3.83301 -20 -11.5 -28s-16.834 -12 -27.501 -12s-20 4 -28 12z" />
    <glyph glyph-name="uring" unicode="&#x16f;" horiz-adv-x="566" 
d="M381 149c-24 -17.333 -46 -31.167 -66 -41.5s-41.333 -15.5 -64 -15.5c-22 0 -39.167 8.33301 -51.5 25s-18.5 40 -18.5 70v298h-130v-304c0 -62 12.333 -110.333 37 -145s67.667 -52 129 -52c26.667 0 57 6 91 18s66 28.667 96 50l22 -52h85v485h-130v-336zM203 763.499
c-21.333 -19.667 -32 -43.5 -32 -71.5s10.5 -51.333 31.5 -70s46.167 -28 75.5 -28s54.5 9.33301 75.5 28s31.5 42 31.5 70s-10.667 51.833 -32 71.5s-46.333 29.5 -75 29.5s-53.667 -9.83301 -75 -29.5zM250 663.999c-8 8 -12 17.333 -12 28s4 19.834 12 27.501
s17.333 11.5 28 11.5s19.834 -3.83301 27.501 -11.5s11.5 -16.834 11.5 -27.501s-3.83301 -20 -11.5 -28s-16.834 -12 -27.501 -12s-20 4 -28 12z" />
    <glyph glyph-name="Uhungarumlaut" unicode="&#x170;" horiz-adv-x="710" 
d="M75 680l1 -433c0 -48.667 11.333 -92.667 34 -132s55 -70.166 97 -92.499s90.667 -33.5 146 -33.5c56 0 105.333 11.167 148 33.5s75.667 53 99 92s35 83.167 35 132.5v433h-131v-423c0 -52.667 -13.5 -92.834 -40.5 -120.501s-63.167 -41.5 -108.5 -41.5
s-81.5 13.5 -108.5 40.5s-40.5 67.5 -40.5 121.5v423h-131zM291 739l95 164h-134l-51 -139zM491 739l95 164h-134l-51 -139z" />
    <glyph glyph-name="uhungarumlaut" unicode="&#x171;" horiz-adv-x="566" 
d="M381 149c-24 -17.333 -46 -31.167 -66 -41.5s-41.333 -15.5 -64 -15.5c-22 0 -39.167 8.33301 -51.5 25s-18.5 40 -18.5 70v298h-130v-304c0 -62 12.333 -110.333 37 -145s67.667 -52 129 -52c26.667 0 57 6 91 18s66 28.667 96 50l22 -52h85v485h-130v-336zM224 588.999
l95 164h-134l-51 -139zM424 588.999l95 164h-134l-51 -139z" />
    <glyph glyph-name="Uogonek" unicode="&#x172;" horiz-adv-x="710" 
d="M635 680l-0.000976562 -432.997c0 -43.333 -9.16699 -83 -27.5 -119s-44.666 -65.833 -78.999 -89.5s-74.5 -38.834 -120.5 -45.501c-8.66699 -12 -16.334 -25 -23.001 -39s-10 -26.333 -10 -37c0 -8 2.66699 -14.667 8 -20s13 -8 23 -8c4.66699 0 10.834 1.5 18.501 4.5
s15.167 7.16699 22.5 12.5l37 -80c-29.333 -22 -63.333 -33 -102 -33c-34 0 -61.833 11 -83.5 33s-32.5 48.667 -32.5 80c0 11.333 3 25.666 9 42.999s13 32 21 44c-68 11.333 -121.667 40.166 -161 86.499s-59 102.166 -59 167.499l-1 433h131v-423
c0 -54 13.5 -94.5 40.5 -121.5s63.167 -40.5 108.5 -40.5s81.5 13.833 108.5 41.5s40.5 67.834 40.5 120.501v423h131z" />
    <glyph glyph-name="uogonek" unicode="&#x173;" horiz-adv-x="566" 
d="M576 -179c-29.333 -22 -63.334 -32.999 -102.001 -32.999c-34 0 -61.833 11 -83.5 33s-32.5 48.667 -32.5 80c0 29.333 4.83301 53 14.5 71s23.5 37 41.5 57l-10 23c-30 -21.333 -62 -38 -96 -50s-64.333 -18 -91 -18c-61.333 0 -104.333 17.333 -129 52s-37 83 -37 145
v304h130v-298c0 -30 6.16699 -53.333 18.5 -70s29.5 -25 51.5 -25c22.667 0 44 5.16699 64 15.5s42 24.166 66 41.499v336h130v-485c-10 -9.33301 -19.833 -23 -29.5 -41s-14.5 -33.667 -14.5 -47c0 -8 2.66699 -14.667 8 -20s13 -8 23 -8c4.66699 0 10.834 1.5 18.501 4.5
s15.167 7.16699 22.5 12.5z" />
    <glyph glyph-name="Ydieresis" unicode="&#x178;" horiz-adv-x="608" 
d="M362 0v260l236 420h-137l-165 -284l-158 298l-128 -37l222 -392v-265h130zM246 771.5c12 12.333 18 27.5 18 45.5s-6 33.333 -18 46s-27 19 -45 19c-18.667 0 -34.334 -6.33301 -47.001 -19s-19 -28 -19 -46s6.33301 -33.167 19 -45.5s28.334 -18.5 47.001 -18.5
c18 0 33 6.16699 45 18.5zM437.5 771.5c12.333 12.333 18.5 27.5 18.5 45.5s-6.16699 33.333 -18.5 46s-27.833 19 -46.5 19c-17.333 0 -32.5 -6.33301 -45.5 -19s-19.5 -28 -19.5 -46s6.33301 -33.167 19 -45.5s28 -18.5 46 -18.5c18.667 0 34.167 6.16699 46.5 18.5z" />
    <glyph glyph-name="Zacute" unicode="&#x179;" horiz-adv-x="577" 
d="M547 101h-392l399 477l-15 102h-495l15 -102h344l-388 -477l15 -101h532zM319 739l95 164h-134l-51 -139z" />
    <glyph glyph-name="zacute" unicode="&#x17a;" horiz-adv-x="443" 
d="M413 485h-388l25 -107h204l-241 -309l17 -69h400l-10 105h-244l244 306zM224 589l95 164h-134l-51 -139z" />
    <glyph glyph-name="Zdotaccent" unicode="&#x17b;" horiz-adv-x="577" 
d="M547 101h-392l399 477l-15 102h-495l15 -102h344l-388 -477l15 -101h532zM331.5 765c13.667 14 20.5 31.333 20.5 52s-6.83301 38.167 -20.5 52.5s-30.834 21.5 -51.501 21.5s-38.167 -7.16699 -52.5 -21.5s-21.5 -31.833 -21.5 -52.5s7.16699 -38 21.5 -52
s31.833 -21 52.5 -21s37.834 7 51.501 21z" />
    <glyph glyph-name="zdotaccent" unicode="&#x17c;" horiz-adv-x="443" 
d="M413 485h-388l25 -107h204l-241 -309l17 -69h400l-10 105h-244l244 306zM264.5 615c13.667 14 20.5 31.333 20.5 52s-6.83301 38.167 -20.5 52.5s-30.834 21.5 -51.501 21.5s-38.167 -7.16699 -52.5 -21.5s-21.5 -31.833 -21.5 -52.5s7.16699 -38 21.5 -52
s31.833 -21 52.5 -21s37.834 7 51.501 21z" />
    <glyph glyph-name="Zcaron" unicode="&#x17d;" horiz-adv-x="577" 
d="M547 101h-392l399 477l-15 102h-495l15 -102h344l-388 -477l15 -101h532zM284 838l-67 65l-123 -16l152 -148h71l152 148l-119 16z" />
    <glyph glyph-name="zcaron" unicode="&#x17e;" horiz-adv-x="443" 
d="M413 485h-388l25 -107h204l-241 -309l17 -69h400l-10 105h-244l244 306zM217 688l-67 65l-123 -16l152 -148h71l152 148l-119 16z" />
    <glyph glyph-name="florin" unicode="&#x192;" horiz-adv-x="442" 
d="M81 384h75v-308c0 -26.667 -5.33301 -47.834 -16 -63.501s-27 -23.5 -49 -23.5c-14 0 -32 4.33301 -54 13l-37 -94c10.667 -8.66699 25.667 -16 45 -22s36.666 -9 51.999 -9c59.333 0 105.666 16 138.999 48s50 76.333 50 133v326h133l-41 100h-92v19
c0 26.667 5.33301 47.834 16 63.501s27 23.5 49 23.5c14.667 0 32.667 -4.33301 54 -13l37 94c-10.667 8.66699 -25.667 16 -45 22s-36.666 9 -51.999 9c-59.333 0 -105.666 -16 -138.999 -48s-50 -76.333 -50 -133v-37h-75v-100z" />
    <glyph glyph-name="Scommaaccent" unicode="&#x218;" horiz-adv-x="527" 
d="M143.5 5.5c41.667 -12.333 76.5 -18.5 104.5 -18.5c53.333 0 99.166 8 137.499 24s67.333 38 87 66s29.5 60.333 29.5 97c0 32.667 -7.83301 61.167 -23.5 85.5s-35.167 45 -58.5 62s-54.666 36.833 -93.999 59.5l-29 17l-32 18c-34 20 -58.5 36.5 -73.5 49.5
s-22.5 29.167 -22.5 48.5c0 22.667 9.5 39.834 28.5 51.501s43.5 17.5 73.5 17.5c26 0 50.167 -3.66699 72.5 -11s47.166 -17.666 74.499 -30.999l43 104c-70.667 34 -134.667 51 -192 51c-48.667 0 -90.5 -7.83301 -125.5 -23.5s-61.833 -37.334 -80.5 -65.001
s-28 -58.834 -28 -93.501c0 -32.667 9.5 -62.167 28.5 -88.5s41.667 -49.166 68 -68.499s61.833 -42.333 106.5 -69l30 -18c34 -18.667 59.167 -34.834 75.5 -48.501s24.5 -28.834 24.5 -45.501c0 -24 -10.333 -42.333 -31 -55s-51 -19 -91 -19
c-26 0 -54.667 4.83301 -86 14.5s-59.333 20.834 -84 33.501l-29 -105c22.667 -14 54.834 -27.167 96.501 -39.5zM198 -44c-14.667 -15.333 -22 -32.333 -22 -51c0 -18 6.16699 -34.5 18.5 -49.5s24.833 -22.5 37.5 -22.5c-4 -12.667 -11.167 -24.167 -21.5 -34.5
s-20.5 -17.5 -30.5 -21.5l28 -61c33.333 16 61 39.833 83 71.5s33 65.5 33 101.5c0 26 -7.16699 47.5 -21.5 64.5s-31.833 25.5 -52.5 25.5c-20 0 -37.333 -7.66699 -52 -23z" />
    <glyph glyph-name="scommaaccent" unicode="&#x219;" horiz-adv-x="422" 
d="M108 1c33.333 -8.66699 62.333 -13.001 87 -13.001c65.333 0 115.333 13.167 150 39.5s52 63.833 52 112.5c0 38.667 -15.667 71.334 -47 98.001s-70.666 48.667 -117.999 66c-24.667 8.66699 -43.5 16.5 -56.5 23.5s-19.5 14.833 -19.5 23.5
c0 11.333 5.5 21.166 16.5 29.499s24.833 12.5 41.5 12.5c21.333 0 41.833 -2.66699 61.5 -8s42.167 -13.666 67.5 -24.999l39 87c-22.667 15.333 -50.334 27.666 -83.001 36.999s-60.334 14 -83.001 14c-58 0 -104 -13.167 -138 -39.5s-51 -62.5 -51 -108.5
c0 -36.667 15.333 -67 46 -91s69 -43.667 115 -59c56.667 -17.333 85 -39 85 -65c0 -13.333 -8.33301 -23.666 -25 -30.999s-35 -11 -55 -11c-35.333 0 -77.666 11 -126.999 33l-39 -88c20.667 -16 47.667 -28.333 81 -37zM145 -44.001c-14.667 -15.333 -22 -32.333 -22 -51
c0 -18 6.16699 -34.5 18.5 -49.5s24.833 -22.5 37.5 -22.5c-4 -12.667 -11.167 -24.167 -21.5 -34.5s-20.5 -17.5 -30.5 -21.5l28 -61c33.333 16 61 39.833 83 71.5s33 65.5 33 101.5c0 26 -7.16699 47.5 -21.5 64.5s-31.833 25.5 -52.5 25.5
c-20 0 -37.333 -7.66699 -52 -23z" />
    <glyph glyph-name="Tcommaaccent" unicode="&#x21a;" horiz-adv-x="591" 
d="M560 680h-550v-102h207v-578h131v578h233zM233 -44c-14.667 -15.333 -22 -32.333 -22 -51c0 -18 6.16699 -34.5 18.5 -49.5s24.833 -22.5 37.5 -22.5c-4 -12.667 -11.167 -24.167 -21.5 -34.5s-20.5 -17.5 -30.5 -21.5l28 -61c33.333 16 61 39.833 83 71.5
s33 65.5 33 101.5c0 26 -7.16699 47.5 -21.5 64.5s-31.833 25.5 -52.5 25.5c-20 0 -37.333 -7.66699 -52 -23z" />
    <glyph glyph-name="tcommaaccent" unicode="&#x21b;" horiz-adv-x="381" 
d="M204 484v138l-129 -23v-115h-65v-100h65v-229c0 -55.333 17 -98.333 51 -129s81.333 -46 142 -46c16 0 33.833 3 53.5 9s34.5 13 44.5 21l-38 94c-18 -8.66699 -35.667 -13 -53 -13c-22.667 0 -40.167 8 -52.5 24s-18.5 37 -18.5 63v206h128l-40 100h-88zM177 -44
c-14.667 -15.333 -22 -32.333 -22 -51c0 -18 6.16699 -34.5 18.5 -49.5s24.833 -22.5 37.5 -22.5c-4 -12.667 -11.167 -24.167 -21.5 -34.5s-20.5 -17.5 -30.5 -21.5l28 -61c33.333 16 61 39.833 83 71.5s33 65.5 33 101.5c0 26 -7.16699 47.5 -21.5 64.5
s-31.833 25.5 -52.5 25.5c-20 0 -37.333 -7.66699 -52 -23z" />
    <glyph glyph-name="circumflex" unicode="&#x2c6;" horiz-adv-x="395" 
d="M200 654l66 -65l119 16l-152 148h-71l-152 -148l123 -16z" />
    <glyph glyph-name="caron" unicode="&#x2c7;" horiz-adv-x="395" 
d="M200 688l-67 65l-123 -16l152 -148h71l152 148l-119 16z" />
    <glyph glyph-name="uni02C9" unicode="&#x2c9;" horiz-adv-x="282" 
d="M10 613h262l-10 103h-252v-103z" />
    <glyph glyph-name="breve" unicode="&#x2d8;" horiz-adv-x="314" 
d="M202 703c-10 -14 -24.998 -21 -44.998 -21s-34.667 6.83301 -44 20.5s-14 30.5 -14 50.5h-89c0 -45.333 12.667 -83.833 38 -115.5s61.666 -47.834 108.999 -48.501c47.333 0.666992 83.666 16.834 108.999 48.501s38 70.167 38 115.5h-87c0 -19.333 -5 -36 -15 -50z" />
    <glyph glyph-name="dotaccent" unicode="&#x2d9;" horiz-adv-x="166" 
d="M135.5 615c13.667 14 20.5 31.333 20.5 52s-6.83301 38.167 -20.5 52.5s-30.834 21.5 -51.501 21.5s-38.167 -7.16699 -52.5 -21.5s-21.5 -31.833 -21.5 -52.5s7.16699 -38 21.5 -52s31.833 -21 52.5 -21s37.834 7 51.501 21z" />
    <glyph glyph-name="ring" unicode="&#x2da;" horiz-adv-x="234" 
d="M42 763.5c-21.333 -19.667 -32 -43.5 -32 -71.5s10.5 -51.333 31.5 -70s46.167 -28 75.5 -28s54.5 9.33301 75.5 28s31.5 42 31.5 70s-10.667 51.833 -32 71.5s-46.333 29.5 -75 29.5s-53.667 -9.83301 -75 -29.5zM89 664c-8 8 -12 17.333 -12 28s4 19.834 12 27.501
s17.333 11.5 28 11.5s19.834 -3.83301 27.501 -11.5s11.5 -16.834 11.5 -27.501s-3.83301 -20 -11.5 -28s-16.834 -12 -27.501 -12s-20 4 -28 12z" />
    <glyph glyph-name="ogonek" unicode="&#x2db;" horiz-adv-x="238" 
d="M22.5 -42c-8.33301 -20.667 -12.499 -37.999 -12.499 -51.999c0 -31.333 10.833 -58 32.5 -80s49.5 -33 83.5 -33c38.667 0 72.667 11 102 33l-37 80c-7.33301 -5.33301 -14.833 -9.5 -22.5 -12.5s-13.834 -4.5 -18.501 -4.5c-10 0 -17.667 2.66699 -23 8s-8 12 -8 20
c0 13.333 4.83301 29 14.5 47s19.5 31.667 29.5 41h-115c-8.66699 -10.667 -17.167 -26.334 -25.5 -47.001z" />
    <glyph glyph-name="tilde" unicode="&#x2dc;" horiz-adv-x="347" 
d="M248 694.5c-5.33301 -6.33301 -11.668 -9.50098 -19.001 -9.50098c-11.333 0 -20.666 1.33301 -27.999 4s-16 7 -26 13c-9.33301 6 -18.166 10.5 -26.499 13.5s-18.833 4.5 -31.5 4.5c-30 0 -55.333 -9.66699 -76 -29s-31 -49.666 -31 -90.999h86
c0 6.66699 2.83301 13.5 8.5 20.5s12.167 10.5 19.5 10.5c11.333 0 20.166 -1.33301 26.499 -4s14.5 -7 24.5 -13c8 -6 15.833 -10.667 23.5 -14s18.167 -5 31.5 -5c30 0 55.333 9.66699 76 29s31 50 31 92h-81c0 -8 -2.66699 -15.167 -8 -21.5z" />
    <glyph glyph-name="hungarumlaut" unicode="&#x2dd;" horiz-adv-x="405" 
d="M100 589l95 164h-134l-51 -139zM300 589l95 164h-134l-51 -139z" />
    <glyph glyph-name="pi" unicode="&#x3c0;" horiz-adv-x="658" 
d="M244 0v384h169v-384h130v384h105v101h-638v-101h105v-384h129z" />
    <glyph glyph-name="tm_Anusvara" unicode="&#xb82;" horiz-adv-x="0" 
d="M63.5 629c20.333 11.333 36.5 26.5 48.5 45.5s18 39.167 18 60.5c0 22.667 -6 43.667 -18 63s-28 34.666 -48 45.999s-41.333 17 -64 17c-22 0 -42.833 -5.66699 -62.5 -17s-35.5 -26.666 -47.5 -45.999s-18 -40.333 -18 -63c0 -21.333 6 -41.5 18 -60.5
s27.833 -34.167 47.5 -45.5s40.5 -17 62.5 -17s43.167 5.66699 63.5 17zM-29.5 707.5c-7.66699 7.66699 -11.5 17.167 -11.5 28.5c0 12 3.83301 21.833 11.5 29.5s17.5 11.5 29.5 11.5c11.333 0 20.833 -3.83301 28.5 -11.5s11.5 -17.5 11.5 -29.5
c0 -11.333 -3.83301 -20.833 -11.5 -28.5s-17.167 -11.5 -28.5 -11.5c-12 0 -21.833 3.83301 -29.5 11.5z" />
    <glyph glyph-name="tm_Visarga" unicode="&#xb83;" horiz-adv-x="678" 
d="M401.5 295c20.333 11.333 36.5 26.5 48.5 45.5s18 39.167 18 60.5c0 22.667 -6 43.667 -18 63s-28 34.666 -48 45.999s-41.333 17 -64 17c-22 0 -42.833 -5.66699 -62.5 -17s-35.5 -26.666 -47.5 -45.999s-18 -40.333 -18 -63c0 -21.333 6 -41.5 18 -60.5
s27.833 -34.167 47.5 -45.5s40.5 -17 62.5 -17s43.167 5.66699 63.5 17zM309.5 373.5c-7.66699 7.66699 -11.5 17.167 -11.5 28.5c0 12 3.83301 21.833 11.5 29.5s17.5 11.5 29.5 11.5c11.333 0 20.833 -3.83301 28.5 -11.5s11.5 -17.5 11.5 -29.5
c0 -11.333 -3.83301 -20.833 -11.5 -28.5s-17.167 -11.5 -28.5 -11.5c-12 0 -21.833 3.83301 -29.5 11.5zM236 3c20 11.333 36 26.5 48 45.5s18 39.5 18 61.5s-6 42.667 -18 62s-28 34.666 -48 45.999s-41.333 17 -64 17c-22 0 -42.667 -5.66699 -62 -17
s-35 -26.666 -47 -45.999s-18 -40 -18 -62s6 -42.5 18 -61.5s27.667 -34.167 47 -45.5s40 -17 62 -17c22.667 0 44 5.66699 64 17zM567 3c20 11.333 36.001 26.5 48.001 45.5s18 39.5 18 61.5s-6 42.667 -18 62s-27.833 34.666 -47.5 45.999s-40.834 17 -63.501 17
c-22 0 -42.833 -5.66699 -62.5 -17s-35.5 -26.666 -47.5 -45.999s-18 -40 -18 -62s6 -42.5 18 -61.5s27.833 -34.167 47.5 -45.5s40.5 -17 62.5 -17s43 5.66699 63 17zM144.501 81.5c-7.66699 7.66699 -11.5 17.5 -11.5 29.5c0 11.333 3.83301 20.833 11.5 28.5
s17.167 11.5 28.5 11.5c12 0 21.833 -3.83301 29.5 -11.5s11.5 -17.167 11.5 -28.5c0 -12 -3.83301 -21.833 -11.5 -29.5s-17.5 -11.5 -29.5 -11.5c-11.333 0 -20.833 3.83301 -28.5 11.5zM475.501 81.5c-7.66699 7.66699 -11.5 17.5 -11.5 29.5
c0 11.333 3.83301 20.833 11.5 28.5s17.167 11.5 28.5 11.5c12 0 21.833 -3.83301 29.5 -11.5s11.5 -17.167 11.5 -28.5c0 -12 -3.83301 -21.833 -11.5 -29.5s-17.5 -11.5 -29.5 -11.5c-11.333 0 -20.833 3.83301 -28.5 11.5z" />
    <glyph glyph-name="tm_A" unicode="&#xb85;" horiz-adv-x="1097" 
d="M1012 513l-0.00195312 -639.005h-116v177h-193c-32 -61.333 -81 -109.166 -147 -143.499s-144.333 -51.5 -235 -51.5c-56.667 0 -107.5 7.33301 -152.5 22s-80.167 34.834 -105.5 60.501s-38 54.834 -38 87.501c0 36 12.833 64.333 38.5 85s65.834 31 120.501 31h428
c6.66699 28.667 10 56 10 82c0 62.667 -16.667 113.5 -50 152.5s-78 58.5 -134 58.5c-8 0 -13.667 -0.333008 -17 -1c18 -11.333 32.167 -25.666 42.5 -42.999s15.5 -37 15.5 -59c0 -41.333 -13.667 -75.166 -41 -101.499s-62.333 -39.5 -105 -39.5
c-43.333 0 -79 13 -107 39s-42 59 -42 99c0 38.667 10.833 73.334 32.5 104.001s51.834 54.667 90.501 72s82.334 26 131.001 26c59.333 0 112.166 -13.333 158.499 -40s82.5 -63.334 108.5 -110.001s39 -99 39 -157c0 -26.667 -2.66699 -54 -8 -82h160v371h116z
M363.498 296.495c8.33301 8.33301 12.5 19.168 12.5 32.501c0 12.667 -4.16699 23 -12.5 31s-18.833 12 -31.5 12c-13.333 0 -24.333 -4 -33 -12s-13 -18.333 -13 -31s4.33301 -23.334 13 -32.001s19.334 -13 32.001 -13c13.333 0 24.166 4.16699 32.499 12.5z
M465.498 -22.0029c41.667 17.333 75.166 41.667 100.499 73h-387c-22 0 -33 -8.33301 -33 -25c0 -20.667 16.167 -38.167 48.5 -52.5s74.5 -21.5 126.5 -21.5c54.667 0 102.834 8.66699 144.501 26z" />
    <glyph glyph-name="tm_Aa" unicode="&#xb86;" horiz-adv-x="1299" 
d="M1239.5 61.5c33 -33 49.501 -76.8369 49.501 -131.504c0 -58.667 -17.333 -111.334 -52 -158.001s-82.667 -83.167 -144 -109.5s-130.333 -39.5 -207 -39.5c-51.333 0 -96.333 6.83301 -135 20.5s-68.334 32.667 -89.001 57s-31 51.833 -31 82.5
c0 40 14.5 72.5 43.5 97.5s68.833 37.5 119.5 37.5h21v-91h-21c-14.667 0 -26.834 -4.16699 -36.501 -12.5s-14.5 -18.833 -14.5 -31.5c0 -18 13.667 -33.167 41 -45.5s61.333 -18.5 102 -18.5c54 0 102.5 9 145.5 27s76.5 43 100.5 75s36 68.333 36 109
c0 24 -6.5 44 -19.5 60s-30.5 24 -52.5 24c-24 0 -44 -7.83301 -60 -23.5s-24 -34.5 -24 -56.5v-60h-116v177h-193c-32 -61.333 -81 -109.166 -147 -143.499s-144.333 -51.5 -235 -51.5c-56.667 0 -107.5 7.33301 -152.5 22s-80.167 34.834 -105.5 60.501
s-38 54.834 -38 87.501c0 36 12.833 64.333 38.5 85s65.834 31 120.501 31h428c6.66699 28.667 10 56 10 82c0 62.667 -16.667 113.5 -50 152.5s-78 58.5 -134 58.5c-8 0 -13.667 -0.333008 -17 -1c18 -11.333 32.167 -25.666 42.5 -42.999s15.5 -37 15.5 -59
c0 -41.333 -13.667 -75.166 -41 -101.499s-62.333 -39.5 -105 -39.5c-43.333 0 -79 13 -107 39s-42 59 -42 99c0 38.667 10.833 73.334 32.5 104.001s51.834 54.667 90.501 72s82.334 26 131.001 26c59.333 0 112.166 -13.333 158.499 -40s82.5 -63.334 108.5 -110.001
s39 -99 39 -157c0 -26.667 -2.66699 -54 -8 -82h160v371h116v-427c29.333 16.667 61.666 25 96.999 25c54 0 97.5 -16.5 130.5 -49.5zM363.501 296.496c8.33301 8.33301 12.5 19.168 12.5 32.501c0 12.667 -4.16699 23 -12.5 31s-18.833 12 -31.5 12
c-13.333 0 -24.333 -4 -33 -12s-13 -18.333 -13 -31s4.33301 -23.334 13 -32.001s19.334 -13 32.001 -13c13.333 0 24.166 4.16699 32.499 12.5zM465.501 -22.002c41.667 17.333 75.166 41.667 100.499 73h-387c-22 0 -33 -8.33301 -33 -25
c0 -20.667 16.167 -38.167 48.5 -52.5s74.5 -21.5 126.5 -21.5c54.667 0 102.834 8.66699 144.501 26z" />
    <glyph glyph-name="tm_I" unicode="&#xb87;" horiz-adv-x="1066" 
d="M776.5 665.5c65 -30.333 115.329 -72.1699 150.996 -125.503s53.5 -114 53.5 -182v-506h-116v504c0 50 -12.833 94.667 -38.5 134s-62.167 70 -109.5 92s-102 33 -164 33c-75.333 0 -139.5 -11.667 -192.5 -35s-93 -55.666 -120 -96.999s-40.5 -89 -40.5 -143
c0 -75.333 17.333 -145.666 52 -210.999c57.333 15.333 119 23 185 23c54.667 0 104.334 -6 149.001 -18c26.667 54.667 40 113.667 40 177c0 37.333 -10.833 67.333 -32.5 90s-52.5 34 -92.5 34h-9c18.667 -11.333 33.167 -25.833 43.5 -43.5s15.5 -37.5 15.5 -59.5
c0 -41.333 -13.667 -75.166 -41 -101.499s-62.333 -39.5 -105 -39.5c-43.333 0 -79 13 -107 39s-42 59 -42 99c0 38.667 10.167 73.334 30.5 104.001s49 54.667 86 72s79.833 26 128.5 26c49.333 0 91.833 -9.33301 127.5 -28s62.834 -44.667 81.501 -78s28 -71.333 28 -114
c0 -73.333 -18 -144.333 -54 -213c40.667 -21.333 72.334 -46.833 95.001 -76.5s34 -62.5 34 -98.5c0 -35.333 -14.333 -64.333 -43 -87s-65 -34 -109 -34c-83.333 0 -163.666 17 -240.999 51c-76.667 -34 -157.667 -51 -243 -51c-44.667 0 -81.167 11.333 -109.5 34
s-42.5 51.667 -42.5 87c0 34 11.167 65.167 33.5 93.5s53.5 53.166 93.5 74.499c-42.667 78 -64 161 -64 249c0 72 18.333 136 55 192s90 99.833 160 131.5s153.333 47.5 250 47.5c84 0 158.5 -15.167 223.5 -45.5zM442.496 289.496c10.333 10.333 15.499 23.5 15.499 39.5
c0 15.333 -5.16699 28 -15.5 38s-23.166 15 -38.499 15c-16 0 -29.333 -5 -40 -15s-16 -22.667 -16 -38c0 -16 5.16699 -29.167 15.5 -39.5s23.5 -15.5 39.5 -15.5s29.167 5.16699 39.5 15.5zM310.995 44.9961c32 -36 68.667 -65.667 110 -89c43.333 25.333 80 56 110 92
c-30.667 5.33301 -62 8 -94 8c-44 0 -86 -3.66699 -126 -11zM629.995 14.9961c-29.333 -37.333 -65.001 -71.334 -107.001 -102.001c36 -10 73 -15 111 -15c16.667 0 30.334 3.33301 41.001 10s16 14.667 16 24c0 32.667 -20.333 60.334 -61 83.001zM313.994 -88.0049
c-40.667 29.333 -76 62.333 -106 99c-41.333 -22 -62 -48.333 -62 -79c0 -9.33301 5.5 -17.333 16.5 -24s24.833 -10 41.5 -10c37.333 0 74 4.66699 110 14z" />
    <glyph glyph-name="tm_Ii" unicode="&#xb88;" horiz-adv-x="805" 
d="M444 0v422h-243v-422h-116v513h692l18 -92h-235v-421h-116zM372 159.5c13.333 13 20 29.833 20 50.5c0 20 -6.66699 36.667 -20 50s-30.333 20 -51 20c-20 0 -36.5 -6.66699 -49.5 -20s-19.5 -30 -19.5 -50c0 -20.667 6.5 -37.5 19.5 -50.5s29.5 -19.5 49.5 -19.5
c20.667 0 37.667 6.5 51 19.5zM731 159.5c13.333 13 20 29.833 20 50.5c0 20 -6.66699 36.667 -20 50s-30.333 20 -51 20c-20 0 -36.5 -6.66699 -49.5 -20s-19.5 -30 -19.5 -50c0 -20.667 6.5 -37.5 19.5 -50.5s29.5 -19.5 49.5 -19.5c20.667 0 37.667 6.5 51 19.5z" />
    <glyph glyph-name="tm_U" unicode="&#xb89;" horiz-adv-x="1007" 
d="M997 91l0.000976562 -90.999h-926v91h221c59.333 0 106.5 16.833 141.5 50.5s52.5 77.5 52.5 131.5c0 47.333 -15.333 86.166 -46 116.499s-72.334 45.5 -125.001 45.5c-40 0 -74.667 -7.66699 -104 -23c42.667 -0.666992 76.5 -13.834 101.5 -39.501
s37.5 -58.167 37.5 -97.5c0 -26.667 -6.83301 -50.667 -20.5 -72s-32.667 -38.166 -57 -50.499s-51.833 -18.5 -82.5 -18.5c-31.333 0 -59.666 6.5 -84.999 19.5s-45 31.167 -59 54.5s-21 49.666 -21 78.999c0 46 13 87.667 39 125s61.167 66.5 105.5 87.5
s92.833 31.5 145.5 31.5c58 0 109.167 -11 153.5 -33s78.666 -52.667 102.999 -92s36.5 -83.666 36.5 -132.999c0 -35.333 -6.33301 -68.5 -19 -99.5s-31 -58.5 -55 -82.5h463zM234.501 322.501c-12.333 12.333 -28.166 18.5 -47.499 18.5
c-18.667 0 -34.167 -6.16699 -46.5 -18.5s-18.5 -28.166 -18.5 -47.499c0 -18.667 6.16699 -34 18.5 -46s28.166 -18 47.499 -18c18.667 0 34.167 6 46.5 18s18.5 27.333 18.5 46c0 19.333 -6.16699 35.166 -18.5 47.499z" />
    <glyph glyph-name="tm_Uu" unicode="&#xb8a;" horiz-adv-x="1622" 
d="M1612 91l0.000976562 -90.999h-1541v91h221c59.333 0 106.5 16.833 141.5 50.5s52.5 77.5 52.5 131.5c0 47.333 -15.333 86.166 -46 116.499s-72.334 45.5 -125.001 45.5c-40 0 -74.667 -7.66699 -104 -23c42.667 -0.666992 76.5 -13.834 101.5 -39.501
s37.5 -58.167 37.5 -97.5c0 -26.667 -6.83301 -50.667 -20.5 -72s-32.667 -38.166 -57 -50.499s-51.833 -18.5 -82.5 -18.5c-31.333 0 -59.666 6.5 -84.999 19.5s-45 31.167 -59 54.5s-21 49.666 -21 78.999c0 46 13 87.667 39 125s61.167 66.5 105.5 87.5
s92.833 31.5 145.5 31.5c58 0 109.167 -11 153.5 -33s78.666 -52.667 102.999 -92s36.5 -83.666 36.5 -132.999c0 -36 -6.33301 -69.5 -19 -100.5s-31 -58.167 -55 -81.5h1078zM775.501 152.001c-35.667 16 -63.5 38.002 -83.5 66.002s-30 59.667 -30 95
c0 42 10.5 79.5 31.5 112.5s51 58.833 90 77.5s84.833 28 137.5 28c31.333 0 61 -4.66699 89 -14s52.667 -22.333 74 -39v35h472l18 -91h-120v-281h-116v281h-138v-281h-116v160c0 25.333 -7 48.166 -21 68.499s-33.5 36.333 -58.5 48s-52.833 17.5 -83.5 17.5
c-42 0 -75.5 -11.333 -100.5 -34s-37.5 -52 -37.5 -88c0 -15.333 3 -30 9 -44c1.33301 31.333 13.5 56.833 36.5 76.5s52.167 29.5 87.5 29.5c40 0 72.667 -10.667 98 -32s38 -49 38 -83c0 -38.667 -14.167 -70.334 -42.5 -95.001s-66.166 -37 -113.499 -37
c-44.667 0 -84.834 8 -120.501 24zM234.501 322.503c-12.333 12.333 -28.166 18.5 -47.499 18.5c-18.667 0 -34.167 -6.16699 -46.5 -18.5s-18.5 -28.166 -18.5 -47.499c0 -18.667 6.16699 -34 18.5 -46s28.166 -18 47.499 -18c18.667 0 34.167 6 46.5 18
s18.5 27.333 18.5 46c0 19.333 -6.16699 35.166 -18.5 47.499zM879.501 288.003c-8.33301 -8 -12.502 -18.3311 -12.502 -30.998s4.33301 -23.334 13 -32.001s19.334 -13 32.001 -13s23 4.16699 31 12.5s12 19.166 12 32.499c0 12.667 -4 23 -12 31s-18.333 12 -31 12
c-13.333 0 -24.166 -4 -32.499 -12z" />
    <glyph glyph-name="tm_E" unicode="&#xb8e;" horiz-adv-x="916" 
d="M906 421l-181 -0.000976562v-421h-116v422h-204c-81.333 0 -141.5 -16.667 -180.5 -50s-58.5 -78.333 -58.5 -135c0 -28.667 6 -54 18 -76c3.33301 44 20.833 79.833 52.5 107.5s70.834 41.5 117.501 41.5c35.333 0 67.166 -7.16699 95.499 -21.5s50.5 -34 66.5 -59
s24 -53.167 24 -84.5s-8.5 -59.333 -25.5 -84s-40.667 -44 -71 -58s-64.5 -21 -102.5 -21c-56.667 0 -107.5 11 -152.5 33s-80.167 52.333 -105.5 91s-38 82.334 -38 131.001c0 54 13.167 101.833 39.5 143.5s65.833 74.167 118.5 97.5s117 35 193 35h492zM305 197.499
c-13.333 -13.667 -20 -31.167 -20 -52.5c0 -20.667 6.66699 -37.667 20 -51s30.333 -20 51 -20s37.834 6.66699 51.501 20s20.5 30.333 20.5 51s-6.83301 38 -20.5 52s-30.834 21 -51.501 21s-37.667 -6.83301 -51 -20.5z" />
    <glyph glyph-name="tm_Ee" unicode="&#xb8f;" horiz-adv-x="916" 
d="M906 421l-181 -0.00195312v-404c0 -42.667 -4.16699 -76 -12.5 -100s-26.833 -40.667 -55.5 -50l-389 -117l-44 89l334 105c22 6.66699 36 17.834 42 33.501s9 41.5 9 77.5v367h-204c-81.333 0 -141.5 -16.667 -180.5 -50s-58.5 -78.333 -58.5 -135
c0 -28.667 6 -54 18 -76c3.33301 44 20.833 79.833 52.5 107.5s70.834 41.5 117.501 41.5c35.333 0 67.166 -7.16699 95.499 -21.5s50.5 -34 66.5 -59s24 -53.167 24 -84.5s-8.5 -59.333 -25.5 -84s-40.667 -44 -71 -58s-64.5 -21 -102.5 -21c-56.667 0 -107.5 11 -152.5 33
s-80.167 52.333 -105.5 91s-38 82.334 -38 131.001c0 54 13.167 101.833 39.5 143.5s65.833 74.167 118.5 97.5s117 35 193 35h492zM305 197.498c-13.333 -13.667 -20 -31.167 -20 -52.5c0 -20.667 6.66699 -37.667 20 -51s30.333 -20 51 -20s37.834 6.66699 51.501 20
s20.5 30.333 20.5 51s-6.83301 38 -20.5 52s-30.834 21 -51.501 21s-37.667 -6.83301 -51 -20.5z" />
    <glyph glyph-name="tm_Ai" unicode="&#xb90;" horiz-adv-x="810" 
d="M713 101c13.333 -25.333 22.9971 -48.501 28.9971 -69.501s9 -42.167 9 -63.5c0 -33.333 -8 -63 -24 -89s-38.667 -46.5 -68 -61.5s-63 -22.5 -101 -22.5c-30.667 0 -58.667 5.66699 -84 17s-46.333 27 -63 47c-18.667 -20 -41.667 -35.667 -69 -47s-57.333 -17 -90 -17
c-39.333 0 -74.833 7.83301 -106.5 23.5s-56.334 37.334 -74.001 65.001s-26.5 58.834 -26.5 93.501c0 126 90 201 270 225l180 24c54 7.33301 92.167 22 114.5 44s33.833 50.333 34.5 85c0 22.667 -6.5 41.667 -19.5 57s-30.5 23 -52.5 23
c-28.667 0 -50.667 -8.66699 -66 -26s-23 -39.333 -23 -66v-69h-116v69c0 27.333 -8.83301 49.5 -26.5 66.5s-43.167 25.5 -76.5 25.5c-22 0 -42 -5 -60 -15c27.333 -5.33301 49.166 -18 65.499 -38s24.5 -43.667 24.5 -71c0 -30.667 -12.167 -56.334 -36.5 -77.001
s-54.166 -31 -89.499 -31s-64.666 12 -87.999 36s-35 53.667 -35 89c0 38.667 9.33301 73.5 28 104.5s44.667 55.167 78 72.5s71 26 113 26c31.333 0 60.833 -6.33301 88.5 -19s51.5 -30.334 71.5 -53.001c18.667 22.667 40.834 40.334 66.501 53.001s52.834 19 81.501 19
c36.667 0 69.667 -7.5 99 -22.5s52.333 -36 69 -63s25 -57.167 25 -90.5c0 -62.667 -21.667 -113.5 -65 -152.5s-111.666 -64.833 -204.999 -77.5l-180 -24c-54.667 -7.33301 -93.167 -21.833 -115.5 -43.5s-33.5 -49.167 -33.5 -82.5c0 -24 7.83301 -44 23.5 -60
s36.5 -24 62.5 -24c28 0 51.5 8.83301 70.5 26.5s28.5 39.5 28.5 65.5v69h117v-69c0 -26 8.5 -47.833 25.5 -65.5s38.5 -26.5 64.5 -26.5c22 0 39.5 7.5 52.5 22.5s19.5 34.833 19.5 59.5c0 14.667 -3 33.5 -9 56.5s-15 44.833 -27 65.5zM201.997 284.499
c7.33301 7 11 15.833 11 26.5c0 12 -3.5 21.833 -10.5 29.5s-16.167 11.5 -27.5 11.5s-20.833 -3.83301 -28.5 -11.5s-11.5 -17.167 -11.5 -28.5c0 -10.667 3.83301 -19.667 11.5 -27s17.167 -11 28.5 -11c10.667 0 19.667 3.5 27 10.5z" />
    <glyph glyph-name="tm_O" unicode="&#xb92;" horiz-adv-x="833" 
d="M594.5 71c19 -10 46.165 -14.999 81.498 -14.999h83v-91h-83c-12 0 -21 0.333008 -27 1v-7c0 -34.667 -9 -65.334 -27 -92.001s-44 -47.667 -78 -63s-74 -23 -120 -23s-86 7.66699 -120 23s-60 36.333 -78 63s-27 57.334 -27 92.001v41h116v-41
c0 -24.667 9.33301 -44.334 28 -59.001s45.667 -22 81 -22s62.333 7.33301 81 22s28 34.334 28 59.001v39c-27.333 16 -48.166 37 -62.499 63s-21.5 56 -21.5 90v118h107c0.666992 -18.667 6.66699 -33.834 18 -45.501s25.666 -17.5 42.999 -17.5
c15.333 0 28.333 7.16699 39 21.5s16 32.5 16 54.5c0 29.333 -11.5 55.833 -34.5 79.5s-54.667 42.167 -95 55.5s-85.833 20 -136.5 20c-64 0 -119.333 -11.167 -166 -33.5s-77.667 -51.833 -93 -88.5c24 20 53 30 87 30c41.333 0 75.333 -11.833 102 -35.5
s40 -54.167 40 -91.5c0 -38.667 -14.167 -70.667 -42.5 -96s-64.166 -38 -107.499 -38c-56.667 0 -101.834 16.667 -135.501 50s-50.5 77.333 -50.5 132c0 51.333 15.333 97.333 46 138s73.834 72.5 129.501 95.5s119.167 34.5 190.5 34.5c74 0 140.333 -10.833 199 -32.5
s104.667 -51.667 138 -90s50 -81.5 50 -129.5c0 -32.667 -7.5 -62.167 -22.5 -88.5s-35.667 -46.833 -62 -61.5s-55.833 -22 -88.5 -22c-21.333 0 -41.666 4.33301 -60.999 13c4.66699 -24.667 16.5 -42 35.5 -52zM188.998 255.001
c-10.667 -10 -16.001 -22.668 -16.001 -38.001s5.16699 -28.166 15.5 -38.499s23.5 -15.5 39.5 -15.5s29.167 5.16699 39.5 15.5s15.5 23.5 15.5 39.5c0 14.667 -5.16699 27 -15.5 37s-23.166 15 -38.499 15c-16 0 -29.333 -5 -40 -15z" />
    <glyph glyph-name="tm_Oo" unicode="&#xb93;" horiz-adv-x="833" 
d="M594.5 71c19 -10 46.168 -14.9951 81.501 -14.9951h83v-91h-83c-9.33301 0 -16.333 0.333008 -21 1v-7c0 -34 -10.833 -64.5 -32.5 -91.5s-51.667 -48.167 -90 -63.5s-81.5 -23 -129.5 -23c-44 0 -83.333 6.16699 -118 18.5s-61.834 29.666 -81.501 51.999
s-29.5 47.5 -29.5 75.5c0 39.333 14.333 71.166 43 95.499s68.334 36.5 119.001 36.5h21v-91h-21c-12 0 -21.833 -4 -29.5 -12s-11.5 -17.667 -11.5 -29c0 -14 10.167 -25.667 30.5 -35s46.166 -14 77.499 -14c39.333 0 71.833 7.66699 97.5 23s38.5 34.666 38.5 57.999v36
c-28.667 16 -50.834 37.167 -66.501 63.5s-23.5 57.166 -23.5 92.499v118h107c0.666992 -18.667 6.66699 -33.834 18 -45.501s25.666 -17.5 42.999 -17.5c15.333 0 28.333 7.16699 39 21.5s16 32.5 16 54.5c0 29.333 -11.5 55.833 -34.5 79.5s-54.667 42.167 -95 55.5
s-85.833 20 -136.5 20c-64 0 -119.333 -11.167 -166 -33.5s-77.667 -51.833 -93 -88.5c24 20 53 30 87 30c41.333 0 75.333 -11.833 102 -35.5s40 -54.167 40 -91.5c0 -38.667 -14.167 -70.667 -42.5 -96s-64.166 -38 -107.499 -38c-56.667 0 -101.834 16.667 -135.501 50
s-50.5 77.333 -50.5 132c0 51.333 15.333 97.333 46 138s73.834 72.5 129.501 95.5s119.167 34.5 190.5 34.5c74 0 140.333 -10.833 199 -32.5s104.667 -51.667 138 -90s50 -81.5 50 -129.5c0 -32.667 -7.5 -62.167 -22.5 -88.5s-35.667 -46.833 -62 -61.5
s-55.833 -22 -88.5 -22c-21.333 0 -41.666 4.33301 -60.999 13c4.66699 -24.667 16.5 -42 35.5 -52zM189.001 255.005c-10.667 -10 -16.001 -22.668 -16.001 -38.001s5.16699 -28.166 15.5 -38.499s23.5 -15.5 39.5 -15.5s29.167 5.16699 39.5 15.5s15.5 23.5 15.5 39.5
c0 14.667 -5.16699 27 -15.5 37s-23.166 15 -38.499 15c-16 0 -29.333 -5 -40 -15z" />
    <glyph glyph-name="tm_Au" unicode="&#xb94;" horiz-adv-x="2099" 
d="M594.5 71c19 -10 46.165 -14.999 81.498 -14.999h83v-91h-83c-12 0 -21 0.333008 -27 1v-7c0 -34.667 -9 -65.334 -27 -92.001s-44 -47.667 -78 -63s-74 -23 -120 -23s-86 7.66699 -120 23s-60 36.333 -78 63s-27 57.334 -27 92.001v41h116v-41
c0 -24.667 9.33301 -44.334 28 -59.001s45.667 -22 81 -22s62.333 7.33301 81 22s28 34.334 28 59.001v39c-27.333 16 -48.166 37 -62.499 63s-21.5 56 -21.5 90v118h107c0.666992 -18.667 6.66699 -33.834 18 -45.501s25.666 -17.5 42.999 -17.5
c15.333 0 28.333 7.16699 39 21.5s16 32.5 16 54.5c0 29.333 -11.5 55.833 -34.5 79.5s-54.667 42.167 -95 55.5s-85.833 20 -136.5 20c-64 0 -119.333 -11.167 -166 -33.5s-77.667 -51.833 -93 -88.5c24 20 53 30 87 30c41.333 0 75.333 -11.833 102 -35.5
s40 -54.167 40 -91.5c0 -38.667 -14.167 -70.667 -42.5 -96s-64.166 -38 -107.499 -38c-56.667 0 -101.834 16.667 -135.501 50s-50.5 77.333 -50.5 132c0 51.333 15.333 97.333 46 138s73.834 72.5 129.501 95.5s119.167 34.5 190.5 34.5c74 0 140.333 -10.833 199 -32.5
s104.667 -51.667 138 -90s50 -81.5 50 -129.5c0 -32.667 -7.5 -62.167 -22.5 -88.5s-35.667 -46.833 -62 -61.5s-55.833 -22 -88.5 -22c-21.333 0 -41.666 4.33301 -60.999 13c4.66699 -24.667 16.5 -42 35.5 -52zM188.998 255.001
c-10.667 -10 -16.001 -22.668 -16.001 -38.001s5.16699 -28.166 15.5 -38.499s23.5 -15.5 39.5 -15.5s29.167 5.16699 39.5 15.5s15.5 23.5 15.5 39.5c0 14.667 -5.16699 27 -15.5 37s-23.166 15 -38.499 15c-16 0 -29.333 -5 -40 -15zM2089 422l-181.001 -0.00390625v-422
h-116v422h-212v-422h-116v228c0 39.333 -10.167 74.833 -30.5 106.5s-48.666 56.334 -84.999 74.001s-77.5 26.5 -123.5 26.5c-46.667 0 -87 -8.66699 -121 -26s-60 -41 -78 -71s-27 -63.667 -27 -101c0 -28.667 6 -54 18 -76c3.33301 44 20.833 79.833 52.5 107.5
s70.834 41.5 117.501 41.5c35.333 0 67.166 -7.16699 95.499 -21.5s50.5 -34 66.5 -59s24 -53.167 24 -84.5s-8.5 -59.333 -25.5 -84s-40.667 -44 -71 -58s-64.5 -21 -102.5 -21c-56.667 0 -107.5 11 -152.5 33s-80.167 52.333 -105.5 91s-38 82.334 -38 131.001
c0 56.667 14.333 107.334 43 152.001s69.167 79.5 121.5 104.5s113.166 37.5 182.499 37.5c49.333 0 94.333 -8.16699 135 -24.5s75.334 -39.166 104.001 -68.499v75h607zM1138 197.496c-13.333 -13.667 -20 -31.167 -20 -52.5c0 -20.667 6.66699 -37.667 20 -51
s30.333 -20 51 -20s37.834 6.66699 51.501 20s20.5 30.333 20.5 51s-6.83301 38 -20.5 52s-30.834 21 -51.501 21s-37.667 -6.83301 -51 -20.5z" />
    <glyph glyph-name="tm_Ka" unicode="&#xb95;" horiz-adv-x="771" 
d="M688 265.5c38.667 -30.333 58.001 -70.168 58.001 -119.501c0 -32 -9.16699 -60.333 -27.5 -85s-44.666 -44 -78.999 -58s-74.5 -21 -120.5 -21v92c36 0 62.667 6.33301 80 19s26 30.334 26 53.001c0 48.667 -31.333 73 -94 73h-28v-14c0 -42.667 -10.333 -81 -31 -115
s-49.834 -60.5 -87.501 -79.5s-81.834 -28.5 -132.501 -28.5c-44 0 -82.333 7.16699 -115 21.5s-57.834 34 -75.501 59s-26.5 53.833 -26.5 86.5c0 33.333 9.83301 63 29.5 89s47.5 45.333 83.5 58v217h522l18 -91h-185v-111h27c66.667 0 119.334 -15.167 158.001 -45.5z
M386.001 421.998h-122v-111h122v111zM386.001 218.998h-137.001c-29.333 0 -52.166 -6.33301 -68.499 -19s-24.5 -29.667 -24.5 -51s8.5 -38.5 25.5 -51.5s40.5 -19.5 70.5 -19.5c42.667 0 75.667 11.667 99 35s35 54 35 92v14z" />
    <glyph glyph-name="tm_Nga" unicode="&#xb99;" horiz-adv-x="1039" 
d="M954 513l0.000976562 -513h-608v91h151c39.333 0 69.166 9.16699 89.499 27.5s30.5 42.833 30.5 73.5c0 24 -6.5 44 -19.5 60s-30.5 24 -52.5 24c-24 0 -43.833 -7.83301 -59.5 -23.5s-23.5 -34.5 -23.5 -56.5v-36h-116v262h-145v-422h-116v513h540l18 -92h-181v-72
c30 16 62.333 24 97 24c54 0 97.5 -16.5 130.5 -49.5s49.5 -76.833 49.5 -131.5c0 -38 -10 -71.667 -30 -101h129v422h116z" />
    <glyph glyph-name="tm_Ca" unicode="&#xb9a;" horiz-adv-x="713" 
d="M688 219h-184.997v-14c0 -42.667 -10.333 -81 -31 -115s-49.834 -60.5 -87.501 -79.5s-81.834 -28.5 -132.501 -28.5c-44 0 -82.333 7.16699 -115 21.5s-57.834 34 -75.501 59s-26.5 53.833 -26.5 86.5c0 33.333 9.83301 63 29.5 89s47.5 45.333 83.5 58v217h522l18 -91
h-185v-111h167zM386.003 422h-122v-111h122v111zM386.003 219h-137.001c-29.333 0 -52.166 -6.33301 -68.499 -19s-24.5 -29.667 -24.5 -51s8.5 -38.5 25.5 -51.5s40.5 -19.5 70.5 -19.5c42.667 0 75.667 11.667 99 35s35 54 35 92v14z" />
    <glyph glyph-name="tm_Ja" unicode="&#xb9c;" horiz-adv-x="810" 
d="M723 63.5c28 -28.333 41.999 -66.168 41.999 -113.501c0 -44.667 -17 -81.167 -51 -109.5s-80 -42.5 -138 -42.5h-86v91h86c19.333 0 35.5 5.66699 48.5 17s19.5 26 19.5 44c0 17.333 -4.83301 31.666 -14.5 42.999s-21.834 17 -36.501 17
c-21.333 0 -40 -6.66699 -56 -20s-35.667 -34.333 -59 -63c-22.667 -28 -43.167 -50.667 -61.5 -68s-41.166 -32.333 -68.499 -45s-59.333 -19 -96 -19c-39.333 0 -74.833 7.83301 -106.5 23.5s-56.334 37.334 -74.001 65.001s-26.5 58.834 -26.5 93.501
c0 126 90 201 270 225l180 24c54 7.33301 92.167 22 114.5 44s33.833 50.333 34.5 85c0 22.667 -6.5 41.667 -19.5 57s-30.5 23 -52.5 23c-28.667 0 -50.667 -8.66699 -66 -26s-23 -39.333 -23 -66v-69h-116v69c0 27.333 -8.83301 49.5 -26.5 66.5s-43.167 25.5 -76.5 25.5
c-22 0 -42 -5 -60 -15c27.333 -5.33301 49.166 -18 65.499 -38s24.5 -43.667 24.5 -71c0 -30.667 -12.167 -56.334 -36.5 -77.001s-54.166 -31 -89.499 -31s-64.666 12 -87.999 36s-35 53.667 -35 89c0 38.667 9.33301 73.5 28 104.5s44.667 55.167 78 72.5s71 26 113 26
c31.333 0 60.833 -6.33301 88.5 -19s51.5 -30.334 71.5 -53.001c18.667 22.667 40.834 40.334 66.501 53.001s52.834 19 81.501 19c36.667 0 69.667 -7.5 99 -22.5s52.333 -36 69 -63s25 -57.167 25 -90.5c0 -62.667 -21.667 -113.5 -65 -152.5
s-111.666 -64.833 -204.999 -77.5l-180 -24c-54.667 -7.33301 -93.167 -21.666 -115.5 -42.999s-33.5 -48.333 -33.5 -81c0 -24.667 7.83301 -45.167 23.5 -61.5s36.5 -24.5 62.5 -24.5c23.333 0 45 7.5 65 22.5s44.667 38.167 74 69.5c25.333 26.667 47.166 48 65.499 64
s39.666 29.833 63.999 41.5s51.5 17.5 81.5 17.5c52.667 0 93 -14.167 121 -42.5zM201.999 284.498c7.33301 7 11 15.833 11 26.5c0 12 -3.5 21.833 -10.5 29.5s-16.167 11.5 -27.5 11.5s-20.833 -3.83301 -28.5 -11.5s-11.5 -17.167 -11.5 -28.5
c0 -10.667 3.83301 -19.667 11.5 -27s17.167 -11 28.5 -11c10.667 0 19.667 3.5 27 10.5z" />
    <glyph glyph-name="tm_Nya" unicode="&#xb9e;" horiz-adv-x="1302" 
d="M1204.5 281.5c35 -43 52.502 -99.5029 52.502 -169.503c0 -78 -23.5 -146.167 -70.5 -204.5s-114.833 -103.5 -203.5 -135.5s-193.667 -48 -315 -48c-119.333 0 -224.5 18 -315.5 54s-161.667 87.667 -212 155s-75.5 146.333 -75.5 237c0 63.333 13.667 128.333 41 195
s62 119.334 104 158.001l119 -10c-41.333 -34.667 -75.5 -84.167 -102.5 -148.5s-40.5 -129.833 -40.5 -196.5c0 -71.333 21 -133.166 63 -185.499s99.667 -92.5 173 -120.5s155.333 -42 246 -42c93.333 0 175.166 11.5 245.499 34.5s125 56.333 164 100
s58.5 96.167 58.5 157.5c0 41.333 -7.33301 74.5 -22 99.5s-36.334 37.5 -65.001 37.5c-24.667 0 -45.334 -9.16699 -62.001 -27.5s-25 -38.833 -25 -61.5v-160h-116v422h-178c-81.333 0 -141.333 -16.667 -180 -50s-58 -78.333 -58 -135c0 -28.667 6 -54 18 -76
c3.33301 44 20.833 79.833 52.5 107.5s70.834 41.5 117.501 41.5c35.333 0 67 -7.16699 95 -21.5s50 -34 66 -59s24 -53.167 24 -84.5s-8.5 -59.333 -25.5 -84s-40.5 -44 -70.5 -58s-64 -21 -102 -21c-56.667 0 -107.5 11 -152.5 33s-80.333 52.333 -106 91
s-38.5 82.334 -38.5 131.001c0 54 13.333 101.833 40 143.5s66.167 74.167 118.5 97.5s116.5 35 192.5 35h466l18 -92h-181v-102c28.667 18 59.667 27 93 27c64.667 0 114.5 -21.5 149.5 -64.5zM569.002 197.497c-13.333 -13.667 -20 -31.167 -20 -52.5
c0 -20.667 6.66699 -37.667 20 -51s30.333 -20 51 -20s37.834 6.66699 51.501 20s20.5 30.333 20.5 51s-6.83301 38 -20.5 52s-30.834 21 -51.501 21s-37.667 -6.83301 -51 -20.5z" />
    <glyph glyph-name="tm_Tta" unicode="&#xb9f;" horiz-adv-x="730" 
d="M702 91h-501v427l-116 -5v-513h635z" />
    <glyph glyph-name="tm_Nna" unicode="&#xba3;" horiz-adv-x="1794" 
d="M1784 422l-181.002 0.000976562v-422h-116v422h-88c-36.667 0 -70.667 -5 -102 -15c29.333 -30.667 51.833 -65.167 67.5 -103.5s23.5 -79.5 23.5 -123.5c0 -38 -8.16699 -72 -24.5 -102s-39.166 -53.5 -68.499 -70.5s-63 -25.5 -101 -25.5s-71.667 8.5 -101 25.5
s-52.333 40.5 -69 70.5s-25 64 -25 102c0 43.333 9.5 84.833 28.5 124.5s45.833 74.834 80.5 105.501c-39.333 16.667 -81.666 25 -126.999 25c-48.667 0 -94 -10 -136 -30c37.333 -31.333 66.166 -66.166 86.499 -104.499s30.5 -78.5 30.5 -120.5
c0 -38 -8.33301 -72 -25 -102s-39.667 -53.5 -69 -70.5s-63 -25.5 -101 -25.5s-71.667 8.5 -101 25.5s-52.166 40.5 -68.499 70.5s-24.5 64 -24.5 102c0 39.333 8 77.666 24 114.999s38.667 71.333 68 102c-61.333 25.333 -126.333 38 -195 38c-62 0 -116 -8.66699 -162 -26
s-81.167 -41.333 -105.5 -72s-36.5 -65.334 -36.5 -104.001c0 -26.667 5.66699 -51.334 17 -74.001c3.33301 44 21 80.167 53 108.5s71.333 42.5 118 42.5c35.333 0 67.166 -7.16699 95.499 -21.5s50.5 -34 66.5 -59s24 -53.167 24 -84.5s-8.5 -59.333 -25.5 -84
s-40.667 -44 -71 -58s-64.5 -21 -102.5 -21c-56.667 0 -107.5 10.667 -152.5 32s-80.167 51 -105.5 89s-38 81.333 -38 130c0 56.667 17.333 107.667 52 153s84.167 80.833 148.5 106.5s139.166 38.5 224.499 38.5c50.667 0 99.834 -5.5 147.501 -16.5
s91.834 -26.833 132.501 -47.5c70.667 42.667 147.667 64 231 64c86 0 162.333 -19 229 -57c57.333 26 120.333 39 189 39h367zM1249 273.501c-12 29 -29.333 54.833 -52 77.5c-24.667 -22 -43.5 -47.5 -56.5 -76.5s-19.5 -60.5 -19.5 -94.5c0 -30 6.33301 -54.5 19 -73.5
s30.667 -28.5 54 -28.5s41.333 9.5 54 28.5s19 43.5 19 73.5c0 33.333 -6 64.5 -18 93.5zM820.998 106.501c12.667 19 19 43.499 19 73.499c0 30.667 -7.16699 59.667 -21.5 87s-34.5 52 -60.5 74c-20.667 -22.667 -36.5 -47.667 -47.5 -75s-16.5 -56 -16.5 -86
c0 -29.333 6.5 -53.666 19.5 -72.999s30.833 -29 53.5 -29c23.333 0 41.333 9.5 54 28.5zM304.998 197.5c-13.333 -13.667 -20 -31.167 -20 -52.5c0 -20.667 6.66699 -37.667 20 -51s30.333 -20 51 -20s37.834 6.66699 51.501 20s20.5 30.333 20.5 51s-6.83301 38 -20.5 52
s-30.834 21 -51.501 21s-37.667 -6.83301 -51 -20.5z" />
    <glyph glyph-name="tm_Ta" unicode="&#xba4;" horiz-adv-x="790" 
d="M637.5 280.5c37 -20.333 65.8379 -48.502 86.5049 -84.502s31 -76.667 31 -122c0 -50 -12.667 -94.833 -38 -134.5s-60.5 -70.667 -105.5 -93s-95.5 -33.5 -151.5 -33.5h-156c-91.333 0 -149.333 -18.667 -174 -56l-95 59c12.667 26.667 41.167 48 85.5 64
s101.166 24 170.499 24h169c33.333 0 63.166 7.33301 89.499 22s47 34.834 62 60.501s22.5 54.834 22.5 87.501c0 42 -11.333 76.667 -34 104s-51.667 41 -87 41h-10v-14c0 -42.667 -10.333 -81 -31 -115s-49.834 -60.5 -87.501 -79.5s-81.834 -28.5 -132.501 -28.5
c-44 0 -82.333 7.16699 -115 21.5s-57.834 34 -75.501 59s-26.5 53.833 -26.5 86.5c0 33.333 9.83301 63 29.5 89s47.5 45.333 83.5 58v217h522l18 -91h-185v-111h9c46.667 0 88.5 -10.167 125.5 -30.5zM386.005 421.998h-122v-111h122v111zM386.005 218.998h-137.001
c-29.333 0 -52.166 -6.33301 -68.499 -19s-24.5 -29.667 -24.5 -51s8.5 -38.5 25.5 -51.5s40.5 -19.5 70.5 -19.5c42.667 0 75.667 11.667 99 35s35 54 35 92v14z" />
    <glyph glyph-name="tm_Na" unicode="&#xba8;" horiz-adv-x="805" 
d="M665 313.5c30.667 -21.667 54.168 -51.667 70.501 -90s24.5 -81.5 24.5 -129.5c0 -54.667 -10.5 -103.167 -31.5 -145.5s-51.333 -75.5 -91 -99.5s-86.834 -36 -141.501 -36h-142c-90.667 0 -149 -18.667 -175 -56l-94 59c15.333 30.667 42.5 53 81.5 67
s96.833 21 173.5 21h156c46.667 0 82.167 17.333 106.5 52s36.5 80.667 36.5 138c0 45.333 -8.33301 82 -25 110s-39.667 42 -69 42c-24 0 -43.833 -7.33301 -59.5 -22s-23.5 -33 -23.5 -55v-169h-116v422h-145v-422h-116v513h540l18 -92h-181v-100
c28 16.667 60.333 25 97 25c40 0 75.333 -10.833 106 -32.5z" />
    <glyph glyph-name="tm_Nnna" unicode="&#xba9;" horiz-adv-x="1368" 
d="M1358 422l-180.998 0.00390625v-422h-116v422h-89c-42.667 0 -83.334 -7.33301 -122.001 -22c35.333 -30.667 62.833 -64.834 82.5 -102.501s29.5 -76.834 29.5 -117.501c0 -38 -8.33301 -72 -25 -102s-39.667 -53.5 -69 -70.5s-63 -25.5 -101 -25.5
s-71.667 8.5 -101 25.5s-52.166 40.5 -68.499 70.5s-24.5 64 -24.5 102c0 40.667 8.16699 79.5 24.5 116.5s39.5 70.167 69.5 99.5c-60 26 -125.667 39 -197 39c-62 0 -116 -8.66699 -162 -26s-81.167 -41.333 -105.5 -72s-36.5 -65.334 -36.5 -104.001
c0 -26.667 5.66699 -51.334 17 -74.001c3.33301 44 21 80.167 53 108.5s71.333 42.5 118 42.5c35.333 0 67.166 -7.16699 95.499 -21.5s50.5 -34 66.5 -59s24 -53.167 24 -84.5s-8.5 -59.333 -25.5 -84s-40.667 -44 -71 -58s-64.5 -21 -102.5 -21
c-56.667 0 -107.5 10.667 -152.5 32s-80.167 51 -105.5 89s-38 81.333 -38 130c0 56.667 17.333 107.667 52 153s84.167 80.833 148.5 106.5s139.166 38.5 224.499 38.5c52.667 0 103.5 -6 152.5 -18s94.5 -29 136.5 -51c64 34 135 51 213 51h368zM821.002 106.504
c12.667 19 19 43.499 19 73.499s-7 58.667 -21 86s-34 52 -60 74c-20.667 -21.333 -36.667 -45.5 -48 -72.5s-17 -56.167 -17 -87.5c0 -29.333 6.5 -53.666 19.5 -72.999s30.833 -29 53.5 -29c23.333 0 41.333 9.5 54 28.5zM305.002 197.503
c-13.333 -13.667 -20 -31.167 -20 -52.5c0 -20.667 6.66699 -37.667 20 -51s30.333 -20 51 -20s37.834 6.66699 51.501 20s20.5 30.333 20.5 51s-6.83301 38 -20.5 52s-30.834 21 -51.501 21s-37.667 -6.83301 -51 -20.5z" />
    <glyph glyph-name="tm_Pa" unicode="&#xbaa;" horiz-adv-x="747" 
d="M662 513v-513h-577v513l116 5v-427h345v422h116z" />
    <glyph glyph-name="tm_Ma" unicode="&#xbae;" horiz-adv-x="895" 
d="M733 493.5c37.333 -25 66.1689 -59.667 86.502 -104s30.5 -94.5 30.5 -150.5c0 -73.333 -18.833 -131.5 -56.5 -174.5s-94.167 -64.5 -169.5 -64.5h-539v513l116 5v-427h186v201c0 71.333 18.667 129 56 173s90.666 66 159.999 66c49.333 0 92.666 -12.5 129.999 -37.5z
M707.503 128c14.333 24.667 21.502 61.667 21.502 111c0 58 -11.333 105.167 -34 141.5s-53.334 54.5 -92.001 54.5c-66.667 0 -100 -50.333 -100 -151v-193h121c41.333 0 69.166 12.333 83.499 37z" />
    <glyph glyph-name="tm_Ya" unicode="&#xbaf;" horiz-adv-x="970" 
d="M885 513v-513h-475v31c-36 -32.667 -78 -49 -126 -49c-69.333 0 -121.5 20.333 -156.5 61s-52.5 95 -52.5 163v307l116 5v-306c0 -42.667 7.5 -75.667 22.5 -99s40.833 -35 77.5 -35c40 0 69.833 14.667 89.5 44s29.5 69 29.5 119v272h116v-422h242v422h117z" />
    <glyph glyph-name="tm_Ra" unicode="&#xbb0;" horiz-adv-x="719" 
d="M528 421l0.00292969 -404.001c0 -28 -1.33301 -51 -4 -69s-8.83398 -34 -18.501 -48s-24.834 -25 -45.501 -33l-299 -117l-44 98l244 96c15.333 6 26.666 13.5 33.999 22.5s12 19.833 14 32.5s3 31.334 3 56.001v367h-211v-422h-116v513h606l18 -92h-181z" />
    <glyph glyph-name="tm_Rra" unicode="&#xbb1;" horiz-adv-x="906" 
d="M750 493.5c36.667 -25 64.333 -59.834 83 -104.501s28 -96 28 -154c0 -129.333 -28.833 -232 -86.5 -308s-146.167 -114 -265.5 -114h-165c-90.667 0 -149 -18.667 -175 -56l-94 59c13.333 26.667 42 48 86 64s100.667 24 170 24h178c78 0 136 29.833 174 89.5
s57 140.167 57 241.5c0 62 -9.83301 110.833 -29.5 146.5s-50.834 53.5 -93.501 53.5c-35.333 0 -62.333 -13.167 -81 -39.5s-28 -63.5 -28 -111.5v-284h-116v272c0 45.333 -9.66699 83.833 -29 115.5s-46.666 47.5 -81.999 47.5c-60 0 -90 -48.333 -90 -145v-290h-116v310
c0 65.333 17.333 118.5 52 159.5s82 61.5 142 61.5c36 0 68.667 -7.66699 98 -23s53.666 -36.666 72.999 -63.999c20.667 28 46.334 49.5 77.001 64.5s64 22.5 100 22.5c52 0 96.333 -12.5 133 -37.5z" />
    <glyph glyph-name="tm_La" unicode="&#xbb2;" horiz-adv-x="1093" 
d="M1027 381.5c14 -51 21 -97.5029 21 -139.503c0 -79.333 -19.167 -142.5 -57.5 -189.5s-95.5 -70.5 -171.5 -70.5c-68 0 -120.833 20.167 -158.5 60.5s-56.5 95.833 -56.5 166.5v46c0 54.667 -18.5 98.334 -55.5 131.001s-87.833 49 -152.5 49
c-47.333 0 -88.333 -8.66699 -123 -26s-61.167 -41 -79.5 -71s-27.5 -63.667 -27.5 -101c0 -28.667 6 -54 18 -76c3.33301 44 20.833 79.833 52.5 107.5s70.834 41.5 117.501 41.5c35.333 0 67.166 -7.16699 95.499 -21.5s50.5 -34 66.5 -59s24 -53.167 24 -84.5
s-8.5 -59.333 -25.5 -84s-40.667 -44 -71 -58s-64.5 -21 -102.5 -21c-56.667 0 -107.5 11 -152.5 33s-80.167 52.333 -105.5 91s-38 82.334 -38 131.001c0 56.667 14.5 107.334 43.5 152.001s70 79.5 123 104.5s114.5 37.5 184.5 37.5c64.667 0 121.5 -11.5 170.5 -34.5
s86.833 -55.5 113.5 -97.5s40 -90 40 -144v-46c0 -42 8.83301 -74.333 26.5 -97s42.5 -34 74.5 -34c37.333 0 64.333 14.667 81 44s25 69.333 25 120c0 41.333 -7.16699 87.333 -21.5 138s-34.5 95 -60.5 133l118 14c28.667 -46 50 -94.5 64 -145.5zM305 197.497
c-13.333 -13.667 -20 -31.167 -20 -52.5c0 -20.667 6.66699 -37.667 20 -51s30.333 -20 51 -20s37.834 6.66699 51.501 20s20.5 30.333 20.5 51s-6.83301 38 -20.5 52s-30.834 21 -51.501 21s-37.667 -6.83301 -51 -20.5z" />
    <glyph glyph-name="tm_Lla" unicode="&#xbb3;" horiz-adv-x="1266" 
d="M1256 422l-181.001 -0.00390625v-422h-116v422h-212v-422h-116v228c0 39.333 -10.167 74.833 -30.5 106.5s-48.666 56.334 -84.999 74.001s-77.5 26.5 -123.5 26.5c-46.667 0 -87 -8.66699 -121 -26s-60 -41 -78 -71s-27 -63.667 -27 -101c0 -28.667 6 -54 18 -76
c3.33301 44 20.833 79.833 52.5 107.5s70.834 41.5 117.501 41.5c35.333 0 67.166 -7.16699 95.499 -21.5s50.5 -34 66.5 -59s24 -53.167 24 -84.5s-8.5 -59.333 -25.5 -84s-40.667 -44 -71 -58s-64.5 -21 -102.5 -21c-56.667 0 -107.5 11 -152.5 33
s-80.167 52.333 -105.5 91s-38 82.334 -38 131.001c0 56.667 14.333 107.334 43 152.001s69.167 79.5 121.5 104.5s113.166 37.5 182.499 37.5c49.333 0 94.333 -8.16699 135 -24.5s75.334 -39.166 104.001 -68.499v75h607zM304.999 197.496
c-13.333 -13.667 -20 -31.167 -20 -52.5c0 -20.667 6.66699 -37.667 20 -51s30.333 -20 51 -20s37.834 6.66699 51.501 20s20.5 30.333 20.5 51s-6.83301 38 -20.5 52s-30.834 21 -51.501 21s-37.667 -6.83301 -51 -20.5z" />
    <glyph glyph-name="tm_Llla" unicode="&#xbb4;" horiz-adv-x="895" 
d="M503 0l0.00195312 -23.001c0 -26 5.83301 -44.5 17.5 -55.5s28.5 -16.5 50.5 -16.5h149l18 -91h-176c-16.667 -34.667 -44.167 -62.667 -82.5 -84s-81.833 -32 -130.5 -32c-42 0 -79.5 7.83301 -112.5 23.5s-59 37.834 -78 66.501s-28.5 61.667 -28.5 99h117
c0 -27.333 9.66699 -49.5 29 -66.5s43.666 -25.5 72.999 -25.5c28.667 0 51.834 5 69.501 15s28.834 22.667 33.501 38c-20 10 -35.833 24.667 -47.5 44s-17.5 42 -17.5 68v40h-302v513l116 5v-427h186v201c0 71.333 18.667 129 56 173s90.666 66 159.999 66
c49.333 0 92.666 -12.5 129.999 -37.5s66.166 -59.667 86.499 -104s30.5 -94.5 30.5 -150.5c0 -73.333 -18.833 -131.5 -56.5 -174.5s-94.167 -64.5 -169.5 -64.5h-121zM503.002 90.999h121.002c41.333 0 69.166 12.333 83.499 37s21.5 61.667 21.5 111
c0 58 -11.333 105.167 -34 141.5s-53.334 54.5 -92.001 54.5c-66.667 0 -100 -50.333 -100 -151v-193z" />
    <glyph glyph-name="tm_Va" unicode="&#xbb5;" horiz-adv-x="1095" 
d="M1010 513l0.00488281 -513.002h-425v91c30.667 51.333 46 106 46 164c0 54 -19.333 97.5 -58 130.5s-96 49.5 -172 49.5c-47.333 0 -88.833 -8.66699 -124.5 -26s-63 -41 -82 -71s-28.5 -63.667 -28.5 -101c0 -28.667 6 -54 18 -76c3.33301 43.333 21.166 79 53.499 107
s71.166 42 116.499 42c35.333 0 67.166 -7.16699 95.499 -21.5s50.5 -34 66.5 -59s24 -53.167 24 -84.5s-8.5 -59.333 -25.5 -84s-40.667 -44 -71 -58s-64.5 -21 -102.5 -21c-56.667 0 -107.5 11 -152.5 33s-80.167 52.333 -105.5 91s-38 82.334 -38 131.001
c0 56.667 15 107.334 45 152.001s72 79.5 126 104.5s115.667 37.5 185 37.5c67.333 0 127.666 -11.833 180.999 -35.5s95.166 -56.5 125.499 -98.5s45.5 -89.333 45.5 -142c0 -56 -13.333 -110.667 -40 -164h181v422h116zM305.005 197.498
c-13.333 -13.667 -20 -31.167 -20 -52.5c0 -20.667 6.66699 -37.667 20 -51s30.333 -20 51 -20s37.834 6.66699 51.501 20s20.5 30.333 20.5 51s-6.83301 38 -20.5 52s-30.834 21 -51.501 21s-37.667 -6.83301 -51 -20.5z" />
    <glyph glyph-name="tm_Sha" unicode="&#xbb6;" horiz-adv-x="1133" 
d="M1031 448.5c38 -43 56.999 -100.833 56.999 -173.5c0 -56.667 -10.167 -107.167 -30.5 -151.5s-49.333 -79 -87 -104s-81.167 -37.5 -130.5 -37.5c-69.333 0 -122.666 22 -159.999 66s-56 101.667 -56 173v201h-117v-216c0 -67.333 -18.5 -121.5 -55.5 -162.5
s-90.5 -61.5 -160.5 -61.5s-123.5 20.5 -160.5 61.5s-55.5 95.167 -55.5 162.5v307l116 5v-306c0 -42.667 7.5 -75.667 22.5 -99s40.833 -35 77.5 -35c36 0 61.5 11.667 76.5 35s22.5 56.333 22.5 99v301h471c75.333 0 132 -21.5 170 -64.5zM932.499 132.5
c22.333 36.333 33.5 83.832 33.5 142.499c0 48.667 -7.16699 85.334 -21.5 110.001s-42.166 37 -83.499 37h-120v-192c0 -101.333 33 -152 99 -152c39.333 0 70.166 18.167 92.499 54.5z" />
    <glyph glyph-name="tm_Ssa" unicode="&#xbb7;" horiz-adv-x="1465" 
d="M1390 0l-235.997 -0.00195312v-243h-116v243h-453v91c30.667 51.333 46 106 46 164c0 54 -19.333 97.5 -58 130.5s-96 49.5 -172 49.5c-47.333 0 -88.833 -8.66699 -124.5 -26s-63 -41 -82 -71s-28.5 -63.667 -28.5 -101c0 -28.667 6 -54 18 -76
c3.33301 44 20.833 79.833 52.5 107.5s70.834 41.5 117.501 41.5c35.333 0 67.166 -7.16699 95.499 -21.5s50.5 -34 66.5 -59s24 -53.167 24 -84.5s-8.5 -59.333 -25.5 -84s-40.667 -44 -71 -58s-64.5 -21 -102.5 -21c-56.667 0 -107.5 11 -152.5 33
s-80.167 52.333 -105.5 91s-38 82.334 -38 131.001c0 56.667 15 107.334 45 152.001s72 79.5 126 104.5s115.667 37.5 185 37.5c67.333 0 127.666 -11.833 180.999 -35.5s95.166 -56.5 125.499 -98.5s45.5 -89.333 45.5 -142c0 -58 -13.333 -112.667 -40 -164h325v96
c-6.66699 -0.666992 -17 -1 -31 -1c-44 0 -82.833 7.66699 -116.5 23s-59.834 36.5 -78.501 63.5s-28 56.833 -28 89.5c0 33.333 8.16699 62.833 24.5 88.5s38.833 45.5 67.5 59.5s61.334 21 98.001 21c55.333 0 99.166 -15.5 131.499 -46.5s48.5 -72.5 48.5 -124.5v-42
c52 25.333 92 60 120 104h116v-422zM1038 284.998l0.000976562 70c0 24.667 -5.5 44.167 -16.5 58.5s-26.833 21.5 -47.5 21.5s-37.167 -6.66699 -49.5 -20s-18.5 -31 -18.5 -53c0 -22.667 8.66699 -41.5 26 -56.5s42.333 -22.5 75 -22.5
c7.33301 0 17.666 0.666992 30.999 2zM1274 90.998v191c-36.667 -30 -76.667 -53 -120 -69v-122h120zM305.004 197.498c-13.333 -13.667 -20 -31.167 -20 -52.5c0 -20.667 6.66699 -37.667 20 -51s30.333 -20 51 -20s37.834 6.66699 51.501 20s20.5 30.333 20.5 51
s-6.83301 38 -20.5 52s-30.834 21 -51.501 21s-37.667 -6.83301 -51 -20.5z" />
    <glyph glyph-name="tm_Sa" unicode="&#xbb8;" horiz-adv-x="1411" 
d="M1345 381.5c14 -51 21 -97.501 21 -139.501c0 -79.333 -19.167 -142.5 -57.5 -189.5s-95.833 -70.5 -172.5 -70.5c-68 0 -120.667 20 -158 60s-56 95.667 -56 167v93c0 88.667 -30.333 133 -91 133c-36.667 0 -64.334 -16.333 -83.001 -49s-28 -76.334 -28 -131.001v-255
h-116v255c0 54.667 -18.5 98.334 -55.5 131.001s-87.833 49 -152.5 49c-47.333 0 -88.333 -8.66699 -123 -26s-61.167 -41 -79.5 -71s-27.5 -63.667 -27.5 -101c0 -28.667 6 -54 18 -76c3.33301 44 20.833 79.833 52.5 107.5s70.834 41.5 117.501 41.5
c35.333 0 67.166 -7.16699 95.499 -21.5s50.5 -34 66.5 -59s24 -53.167 24 -84.5s-8.5 -59.333 -25.5 -84s-40.667 -44 -71 -58s-64.5 -21 -102.5 -21c-56.667 0 -107.5 11 -152.5 33s-80.167 52.333 -105.5 91s-38 82.334 -38 131.001c0 56.667 14.5 107.334 43.5 152.001
s70 79.5 123 104.5s114.5 37.5 184.5 37.5c58 0 110 -9.33301 156 -28s83 -45.334 111 -80.001c18.667 34 42.834 60.5 72.501 79.5s63.5 28.5 101.5 28.5c65.333 0 115.166 -20.5 149.499 -61.5s51.5 -95.167 51.5 -162.5v-98c0 -42 8.83301 -74.333 26.5 -97
s42.5 -34 74.5 -34c36.667 0 63.334 14.667 80.001 44s25 69.333 25 120c0 42 -7 88.167 -21 138.5s-34.333 94.5 -61 132.5l119 14c28.667 -46 50 -94.5 64 -145.5zM305 197.499c-13.333 -13.667 -20 -31.167 -20 -52.5c0 -20.667 6.66699 -37.667 20 -51
s30.333 -20 51 -20s37.834 6.66699 51.501 20s20.5 30.333 20.5 51s-6.83301 38 -20.5 52s-30.834 21 -51.501 21s-37.667 -6.83301 -51 -20.5z" />
    <glyph glyph-name="tm_Ha" unicode="&#xbb9;" horiz-adv-x="1690" 
d="M1534 493.5c36.667 -25 64.334 -59.834 83.001 -104.501s28 -96 28 -154c0 -129.333 -28.833 -232 -86.5 -308s-146.167 -114 -265.5 -114h-979c-91.333 0 -149.333 -18.667 -174 -56l-95 59c13.333 26.667 42 48 86 64s100.667 24 170 24h992
c78 0 135.833 29.833 173.5 89.5s56.5 140.167 56.5 241.5c0 62 -9.66699 110.833 -29 146.5s-50.333 53.5 -93 53.5c-35.333 0 -62.333 -13.167 -81 -39.5s-28 -63.5 -28 -111.5v-284h-116v272c0 45.333 -9.83301 83.833 -29.5 115.5s-47.167 47.5 -82.5 47.5
c-30 0 -52.5 -12.5 -67.5 -37.5s-22.5 -60.833 -22.5 -107.5v-290h-389v91c30.667 51.333 46 106 46 164c0 54 -19.333 97.5 -58 130.5s-96 49.5 -172 49.5c-47.333 0 -88.833 -8.66699 -124.5 -26s-63 -41 -82 -71s-28.5 -63.667 -28.5 -101c0 -28.667 6 -54 18 -76
c3.33301 44 20.833 79.833 52.5 107.5s70.834 41.5 117.501 41.5c35.333 0 67.166 -7.16699 95.499 -21.5s50.5 -34 66.5 -59s24 -53.167 24 -84.5s-8.5 -59.333 -25.5 -84s-40.667 -44 -71 -58s-64.5 -21 -102.5 -21c-56.667 0 -107.5 11 -152.5 33
s-80.167 52.333 -105.5 91s-38 82.334 -38 131.001c0 56.667 15 107.334 45 152.001s72 79.5 126 104.5s115.667 37.5 185 37.5c67.333 0 127.666 -11.833 180.999 -35.5s95.166 -56.5 125.499 -98.5s45.5 -89.333 45.5 -142c0 -58.667 -13.667 -113.334 -41 -164.001h146
v219c0 42.667 7.83301 80.667 23.5 114s38.167 59.5 67.5 78.5s64 28.5 104 28.5c36.667 0 69.5 -7.5 98.5 -22.5s53.167 -36.5 72.5 -64.5c20.667 28 46.334 49.5 77.001 64.5s64 22.5 100 22.5c52 0 96.333 -12.5 133 -37.5zM305 197.499
c-13.333 -13.667 -20 -31.167 -20 -52.5c0 -20.667 6.66699 -37.667 20 -51s30.333 -20 51 -20s37.834 6.66699 51.501 20s20.5 30.333 20.5 51s-6.83301 38 -20.5 52s-30.834 21 -51.501 21s-37.667 -6.83301 -51 -20.5z" />
    <glyph glyph-name="tm_VowelAa" unicode="&#xbbe;" horiz-adv-x="699" 
d="M508 422v-422h-116v422h-191v-422h-116v513h586l18 -91h-181z" />
    <glyph glyph-name="tm_VowelI" unicode="&#xbbf;" horiz-adv-x="286" 
d="M49 759.5c48.667 -25 86.168 -59.8301 112.501 -104.497s39.5 -95.334 39.5 -152.001v-503h-116v503c0 60 -18.333 108 -55 144s-86.667 54 -150 54c-45.333 0 -80.5 -8.5 -105.5 -25.5s-37.5 -40.167 -37.5 -69.5c0 -28.667 7 -51.334 21 -68.001s35.333 -25 64 -25v-81
c-61.333 0 -109.833 16.167 -145.5 48.5s-53.834 74.166 -54.501 125.499c0 36.667 10.5 69.5 31.5 98.5s51 51.667 90 68s84.5 24.5 136.5 24.5c64 0 120.333 -12.5 169 -37.5z" />
    <glyph glyph-name="tm_VowelIi" unicode="&#xbc0;" horiz-adv-x="0" 
d="M-16 852.5c38 -17 68.167 -40.333 90.5 -70s33.5 -62.834 33.5 -99.501c0 -38 -13.333 -69.333 -40 -94s-60.334 -37 -101.001 -37c-40 0 -73.333 12.167 -100 36.5s-40 54.833 -40 91.5c0 21.333 4.33301 40.5 13 57.5s20.667 31.5 36 43.5h-17
c-49.333 0 -88.166 -12.5 -116.499 -37.5s-42.5 -57.833 -42.5 -98.5c0 -39.333 12.333 -71.166 37 -95.499s56 -36.5 94 -36.5v-88c-48 0 -91.167 9.33301 -129.5 28s-68.333 44.667 -90 78s-32.5 71.333 -32.5 114c0 44.667 11.5 84.667 34.5 120s55.667 63 98 83
s91.5 30 147.5 30c45.333 0 87 -8.5 125 -25.5zM3.5 643.5c9.66699 9.66699 14.5 21.834 14.5 36.501c0 14 -4.83301 25.833 -14.5 35.5s-21.834 14.5 -36.501 14.5s-26.834 -4.83301 -36.501 -14.5s-14.5 -21.5 -14.5 -35.5c0 -14.667 4.83301 -26.834 14.5 -36.501
s21.834 -14.5 36.501 -14.5s26.834 4.83301 36.501 14.5z" />
    <glyph glyph-name="tm_VowelU" unicode="&#xbc1;" horiz-adv-x="466" 
d="M350 492c30 -14 53.5 -33.332 70.5 -57.999s25.5 -52.667 25.5 -84s-8 -59.5 -24 -84.5s-38 -44.667 -66 -59s-59.667 -21.5 -95 -21.5c-33.333 0 -63.333 7 -90 21s-47.5 33.5 -62.5 58.5s-22.5 53.167 -22.5 84.5c0 27.333 6.66699 51.666 20 72.999h-307v91h449
c38 0 72 -7 102 -21zM315.5 298.001c13.667 14 20.5 31.3311 20.5 51.998s-6.83301 37.834 -20.5 51.501s-31.167 20.5 -52.5 20.5c-20.667 0 -37.834 -6.66699 -51.501 -20s-20.5 -30.666 -20.5 -51.999s6.83301 -38.833 20.5 -52.5s30.834 -20.5 51.501 -20.5
c21.333 0 38.833 7 52.5 21z" />
    <glyph glyph-name="tm_VowelUu" unicode="&#xbc2;" horiz-adv-x="691" 
d="M528 577c44.667 -23.333 79.667 -55.6631 105 -96.9961s38 -88 38 -140c0 -55.333 -14.667 -104.833 -44 -148.5s-70.666 -77.834 -123.999 -102.501s-115 -37 -185 -37h-75v91h75c46.667 0 87.5 8.5 122.5 25.5s61.833 40.333 80.5 70s28 63.5 28 101.5
c0 53.333 -15.667 96.666 -47 129.999s-73.333 50 -126 50c-24 0 -47.667 -3.66699 -71 -11c41.333 -7.33301 75.166 -25.5 101.499 -54.5s39.5 -63.833 39.5 -104.5c0 -31.333 -8 -59.5 -24 -84.5s-38 -44.667 -66 -59s-59.667 -21.5 -95 -21.5
c-52.667 0 -95 16.167 -127 48.5s-48 73.833 -48 124.5c0 21.333 2.66699 42.666 8 63.999h-295v91h342c26 31.333 59.5 55.666 100.5 72.999s86.5 26 136.5 26c55.333 0 105.333 -11.667 150 -35zM313 402.003c-15.333 13.333 -36.001 20.001 -62.001 20.001h-47
c-8.66699 -20.667 -13 -41.667 -13 -63c0 -24.667 6.33301 -44.5 19 -59.5s30.334 -22.5 53.001 -22.5c21.333 0 38.833 7 52.5 21s20.5 31.333 20.5 52c0 21.333 -7.66699 38.666 -23 51.999z" />
    <glyph glyph-name="tm_VowelE" unicode="&#xbc6;" horiz-adv-x="832" 
d="M586.5 632.5c51 -28.333 90.5029 -68.167 118.503 -119.5s42 -110.333 42 -177v-336h-116v336c0 73.333 -20 132.166 -60 176.499s-94.333 66.5 -163 66.5c-48.667 0 -91.334 -10.833 -128.001 -32.5s-64.834 -51.5 -84.501 -89.5s-29.5 -81.333 -29.5 -130
c0 -54.667 9 -102 27 -142c8.66699 37.333 28.167 67.5 58.5 90.5s66.5 34.5 108.5 34.5c35.333 0 66.666 -7.16699 93.999 -21.5s48.5 -34 63.5 -59s22.5 -53.167 22.5 -84.5s-8.5 -59.333 -25.5 -84s-40.667 -44 -71 -58s-64.5 -21 -102.5 -21
c-56.667 0 -107.5 14.833 -152.5 44.5s-80.167 70.667 -105.5 123s-38 111.5 -38 177.5c0 66.667 15 126.334 45 179.001s72.5 94 127.5 124s118.5 45 190.5 45c68 0 127.5 -14.167 178.5 -42.5zM305.003 197.499c-13.333 -13.667 -20 -31.167 -20 -52.5
c0 -20.667 6.66699 -37.667 20 -51s30.333 -20 51 -20s37.834 6.66699 51.501 20s20.5 30.333 20.5 51s-6.83301 38 -20.5 52s-30.834 21 -51.501 21s-37.667 -6.83301 -51 -20.5z" />
    <glyph glyph-name="tm_VowelEe" unicode="&#xbc7;" horiz-adv-x="693" 
d="M569 278.5c24.667 -12.333 44 -29.668 58 -52.001s21 -47.166 21 -74.499c0 -32 -9.83301 -61 -29.5 -87s-47.5 -46.333 -83.5 -61s-77.333 -22 -124 -22c-70 0 -132.833 14.833 -188.5 44.5s-99.167 71 -130.5 124s-47 112.5 -47 178.5s15.667 125.333 47 178
s74.833 93.834 130.5 123.501s118.5 44.5 188.5 44.5c46.667 0 88 -7.33301 124 -22s63.833 -35 83.5 -61s29.5 -55 29.5 -87c0 -27.333 -7 -52.166 -21 -74.499s-33.333 -39.666 -58 -51.999s-52.334 -18.5 -83.001 -18.5c-44.667 0 -81.167 13.667 -109.5 41
s-42.5 62.666 -42.5 105.999c0 27.333 7.66699 50.666 23 69.999c-56.667 -7.33301 -102.334 -33.5 -137.001 -78.5s-52.667 -101.5 -54 -169.5c1.33301 -68 19.333 -124.667 54 -170s80.334 -71.666 137.001 -78.999c-15.333 19.333 -23 42.666 -23 69.999
c0 43.333 14.167 78.666 42.5 105.999s64.833 41 109.5 41c30.667 0 58.334 -6.16699 83.001 -18.5zM529 467.498c10.667 10.333 16 23.834 16 40.501s-5.16699 30.167 -15.5 40.5s-23.166 15.5 -38.499 15.5c-16.667 0 -30.334 -5.16699 -41.001 -15.5s-16 -23.5 -16 -39.5
c0 -16.667 5.16699 -30.334 15.5 -41.001s23.166 -16 38.499 -16c16.667 0 30.334 5.16699 41.001 15.5zM449.5 188.999c-10.333 -10.667 -15.5 -24.333 -15.5 -41c0 -16 5.33301 -29.167 16 -39.5s24.334 -15.5 41.001 -15.5c15.333 0 28.166 5.16699 38.499 15.5
s15.5 23.833 15.5 40.5s-5.33301 30.167 -16 40.5s-24.334 15.5 -41.001 15.5c-15.333 0 -28.166 -5.33301 -38.499 -16z" />
    <glyph glyph-name="tm_VowelAi" unicode="&#xbc8;" horiz-adv-x="1279" 
d="M1105 498c42 -22 74.001 -52.666 96.001 -91.999s33 -84.333 33 -135c0 -42 -7 -88.333 -21 -139s-35 -99.334 -63 -146.001l-119 14c26.667 38 47 82.167 61 132.5s21 96.5 21 138.5c0 50 -13.333 89.833 -40 119.5s-66.334 44.5 -119.001 44.5
c-38 0 -75.667 -9 -113 -27c38 -31.333 67.667 -66.666 89 -105.999s32 -80 32 -122c0 -38 -8.33301 -72 -25 -102s-39.667 -53.5 -69 -70.5s-63 -25.5 -101 -25.5s-71.667 8.5 -101 25.5s-52.166 40.5 -68.499 70.5s-24.5 64 -24.5 102
c0 38.667 7.83301 76.834 23.5 114.501s37.834 72.167 66.501 103.5c-58.667 24.667 -123 37 -193 37c-62 0 -116 -8.66699 -162 -26s-81.167 -41.333 -105.5 -72s-36.5 -65.334 -36.5 -104.001c0 -26.667 5.66699 -51.334 17 -74.001c3.33301 44 21 80.167 53 108.5
s71.333 42.5 118 42.5c35.333 0 67.166 -7.16699 95.499 -21.5s50.5 -34 66.5 -59s24 -53.167 24 -84.5s-8.5 -59.333 -25.5 -84s-40.667 -44 -71 -58s-64.5 -21 -102.5 -21c-56.667 0 -107.5 10.667 -152.5 32s-80.167 51 -105.5 89s-38 81.333 -38 130
c0 56.667 17.333 107.667 52 153s84.167 80.833 148.5 106.5s139.166 38.5 224.499 38.5c100 0 192.333 -20.667 277 -62c30.667 19.333 63.667 34.5 99 45.5s71.333 16.5 108 16.5c58.667 0 109 -11 151 -33zM821.001 106.501c12.667 19 19 43.499 19 73.499
c0 30.667 -7.33301 59.834 -22 87.501s-35 52.5 -61 74.5c-20 -22.667 -35.5 -47.834 -46.5 -75.501s-16.5 -56.5 -16.5 -86.5c0 -29.333 6.5 -53.666 19.5 -72.999s30.833 -29 53.5 -29c23.333 0 41.333 9.5 54 28.5zM305.001 197.5c-13.333 -13.667 -20 -31.167 -20 -52.5
c0 -20.667 6.66699 -37.667 20 -51s30.333 -20 51 -20s37.834 6.66699 51.501 20s20.5 30.333 20.5 51s-6.83301 38 -20.5 52s-30.834 21 -51.501 21s-37.667 -6.83301 -51 -20.5z" />
    <glyph glyph-name="tm_VowelO" unicode="&#xbca;" horiz-adv-x="2028" 
d="M586.5 632.5c51 -28.333 90.5029 -68.167 118.503 -119.5s42 -110.333 42 -177v-336h-116v336c0 73.333 -20 132.166 -60 176.499s-94.333 66.5 -163 66.5c-48.667 0 -91.334 -10.833 -128.001 -32.5s-64.834 -51.5 -84.501 -89.5s-29.5 -81.333 -29.5 -130
c0 -54.667 9 -102 27 -142c8.66699 37.333 28.167 67.5 58.5 90.5s66.5 34.5 108.5 34.5c35.333 0 66.666 -7.16699 93.999 -21.5s48.5 -34 63.5 -59s22.5 -53.167 22.5 -84.5s-8.5 -59.333 -25.5 -84s-40.667 -44 -71 -58s-64.5 -21 -102.5 -21
c-56.667 0 -107.5 14.833 -152.5 44.5s-80.167 70.667 -105.5 123s-38 111.5 -38 177.5c0 66.667 15 126.334 45 179.001s72.5 94 127.5 124s118.5 45 190.5 45c68 0 127.5 -14.167 178.5 -42.5zM305.003 197.499c-13.333 -13.667 -20 -31.167 -20 -52.5
c0 -20.667 6.66699 -37.667 20 -51s30.333 -20 51 -20s37.834 6.66699 51.501 20s20.5 30.333 20.5 51s-6.83301 38 -20.5 52s-30.834 21 -51.501 21s-37.667 -6.83301 -51 -20.5zM1817 421.999v-422h-116v422h-191v-422h-116v513h586l18 -91h-181zM1090 466.999
c5.33301 5.33301 8 12.333 8 21s-2.66699 15.834 -8 21.501s-12.333 8.5 -21 8.5s-15.667 -2.83301 -21 -8.5s-8 -12.834 -8 -21.501s2.66699 -15.667 8 -21s12.333 -8 21 -8s15.667 2.66699 21 8zM959.003 493.999c-5.33301 -5.33301 -8 -12.333 -8 -21
s2.66699 -15.667 8 -21s12.333 -8 21 -8s15.667 2.66699 21 8s8 12.333 8 21s-2.66699 15.667 -8 21s-12.333 8 -21 8s-15.667 -2.66699 -21 -8zM1180 451.999c5.33301 5.33301 8 12.333 8 21s-2.66699 15.667 -8 21s-12.333 8 -21 8s-15.667 -2.66699 -21 -8
s-8 -12.333 -8 -21s2.66699 -15.667 8 -21s12.333 -8 21 -8s15.667 2.66699 21 8zM882.503 443.499c-5.66699 -5.66699 -8.5 -12.834 -8.5 -21.501s2.83301 -15.667 8.5 -21s12.834 -8 21.501 -8s15.667 2.66699 21 8s8 12.333 8 21s-2.66699 15.834 -8 21.501
s-12.333 8.5 -21 8.5s-15.834 -2.83301 -21.501 -8.5zM1256.5 400.999c5.66699 5.33301 8.5 12.333 8.5 21s-2.83301 15.834 -8.5 21.501s-12.834 8.5 -21.501 8.5s-15.667 -2.83301 -21 -8.5s-8 -12.834 -8 -21.501s2.66699 -15.667 8 -21s12.333 -8 21 -8
s15.834 2.66699 21.501 8zM834.503 364.499c-5.66699 -5.66699 -8.5 -12.834 -8.5 -21.501s2.83301 -15.667 8.5 -21s12.834 -8 21.501 -8s15.667 2.66699 21 8s8 12.333 8 21s-2.66699 15.834 -8 21.501s-12.333 8.5 -21 8.5s-15.834 -2.83301 -21.501 -8.5zM1304 321.999
c5.33301 5.33301 8 12.333 8 21s-2.66699 15.834 -8 21.501s-12.333 8.5 -21 8.5s-15.667 -2.83301 -21 -8.5s-8 -12.834 -8 -21.501s2.66699 -15.667 8 -21s12.333 -8 21 -8s15.667 2.66699 21 8zM820.503 278.499c-5.66699 -5.66699 -8.5 -12.834 -8.5 -21.501
s2.83301 -15.5 8.5 -20.5s12.834 -7.5 21.501 -7.5s15.667 2.5 21 7.5s8 11.833 8 20.5s-2.66699 15.834 -8 21.501s-12.333 8.5 -21 8.5s-15.834 -2.83301 -21.501 -8.5zM1318.5 236.499c5.66699 5 8.5 11.833 8.5 20.5s-2.83301 15.834 -8.5 21.501
s-12.834 8.5 -21.501 8.5s-15.667 -2.83301 -21 -8.5s-8 -12.834 -8 -21.501s2.66699 -15.5 8 -20.5s12.333 -7.5 21 -7.5s15.834 2.5 21.501 7.5zM834.503 194.999c-5.66699 -5.33301 -8.5 -12.333 -8.5 -21s2.83301 -15.667 8.5 -21s12.834 -8 21.501 -8
s15.667 2.66699 21 8s8 12.333 8 21s-2.66699 15.667 -8 21s-12.333 8 -21 8s-15.834 -2.66699 -21.501 -8zM1304 152.999c5.33301 5.33301 8 12.333 8 21s-2.66699 15.667 -8 21s-12.333 8 -21 8s-15.667 -2.66699 -21 -8s-8 -12.333 -8 -21s2.66699 -15.667 8 -21
s12.333 -8 21 -8s15.667 2.66699 21 8zM881.503 114.999c-5.66699 -5.33301 -8.5 -12.333 -8.5 -21s2.83301 -15.667 8.5 -21s12.834 -8 21.501 -8s15.667 2.66699 21 8s8 12.333 8 21s-2.66699 15.667 -8 21s-12.333 8 -21 8s-15.834 -2.66699 -21.501 -8zM1257.5 72.999
c5.66699 5.33301 8.5 12.333 8.5 21s-2.83301 15.667 -8.5 21s-12.834 8 -21.501 8s-15.667 -2.66699 -21 -8s-8 -12.333 -8 -21s2.66699 -15.667 8 -21s12.333 -8 21 -8s15.834 2.66699 21.501 8zM959.003 65.499c-5.33301 -5.66699 -8 -12.834 -8 -21.501
s2.66699 -15.667 8 -21s12.333 -8 21 -8s15.667 2.66699 21 8s8 12.333 8 21s-2.66699 15.834 -8 21.501s-12.333 8.5 -21 8.5s-15.667 -2.83301 -21 -8.5zM1180 22.999c5.33301 5.33301 8 12.333 8 21s-2.66699 15.834 -8 21.501s-12.333 8.5 -21 8.5
s-15.667 -2.83301 -21 -8.5s-8 -12.834 -8 -21.501s2.66699 -15.667 8 -21s12.333 -8 21 -8s15.667 2.66699 21 8zM1090 7.99902c5.33301 5.33301 8 12.333 8 21s-2.66699 15.834 -8 21.501s-12.333 8.5 -21 8.5s-15.667 -2.83301 -21 -8.5s-8 -12.834 -8 -21.501
s2.66699 -15.667 8 -21s12.333 -8 21 -8s15.667 2.66699 21 8z" />
    </font>
</defs>
</svg>
