<?xml version="1.0" standalone="no"?>
<!DOCTYPE svg
  PUBLIC '-//W3C//DTD SVG 1.1//EN'
  'http://www.w3.org/Graphics/SVG/1.1/DTD/svg11.dtd'><svg version="1.1" xmlns="http://www.w3.org/2000/svg"><defs><font horiz-adv-x="0" id="font"><font-face ascent="750" bbox="-136 -258 4647 1024" cap-height="700" descent="-250" font-family="Qualcomm Next WEB" font-stretch="normal" font-style="normal" font-weight="700" units-per-em="1000" x-height="482" /><missing-glyph d="" horiz-adv-x="0" /><glyph d="" glyph-name=".null" horiz-adv-x="0" unicode="" /><glyph d="" glyph-name="nonmarkingreturn" horiz-adv-x="0" unicode="" /><glyph d="" glyph-name="space" horiz-adv-x="209" unicode=" " /><glyph d="" glyph-name="uni00A0" horiz-adv-x="209" unicode=" " /><glyph d="M470 170 183 170L127 19Q120 0 105 0H6Q-5 0 -10.5 8.5Q-16 17 -11 31L241 679Q246 690 253.5 695Q261 700 269 700H393Q401 700 408.5 695Q416 690 421 679L674 32Q680 17 673.5 8.5Q667 0 655 0H550Q541 0 536.5 5Q532 10 528 19ZM226 283 427 283L325 549Z" glyph-name="A" horiz-adv-x="672" unicode="A" /><glyph d="M390 700Q452 700 495 683.5Q538 667 564.5 641.5Q591 616 603 584.5Q615 553 615 523Q615 475 591.5 436.5Q568 398 521 378Q555 366 580 347.5Q605 329 620.5 306Q636 283 643.5 257Q651 231 651 204Q651 165 636 128Q621 91 591.5 62.5Q562 34 518 17Q474 0 417 0H85Q76 0 70 6Q64 12 64 21V679Q64 687 69.5 693.5Q75 700 85 700ZM477 505Q477 544 450 569Q423 594 372 594H198V415H372Q423 415 450 440Q477 465 477 505ZM198 314 198 106H396Q444 106 478 134Q512 162 512 210Q512 258 478.5 286Q445 314 396 314Z" glyph-name="B" horiz-adv-x="676" unicode="B" /><glyph d="M395 -14Q318 -14 250.5 14Q183 42 133.5 91Q84 140 55.5 206.5Q27 273 27 350Q27 427 55.5 493.5Q84 560 133.5 609Q183 658 250.5 686Q318 714 395 714Q452 714 505 699.5Q558 685 602 657Q646 629 679 588.5Q712 548 729 497Q731 490 730 484Q729 478 718 475L618 450Q607 448 602.5 453.5Q598 459 596 464Q569 519 519 554.5Q469 590 396 590Q346 590 304 571.5Q262 553 231.5 520.5Q201 488 184 444.5Q167 401 167 350Q167 299 184 255.5Q201 212 231.5 179.5Q262 147 304 128.5Q346 110 396 110Q469 110 519 145.5Q569 181 596 236Q598 241 602.5 246.5Q607 252 618 250L718 225Q729 222 730 216Q731 210 729 203Q712 152 679 111.5Q646 71 602 43Q558 15 505 0.5Q452 -14 395 -14Z" glyph-name="C" horiz-adv-x="742" unicode="C" /><glyph d="M347 700Q430 700 496.5 675Q563 650 610 604Q657 558 682.5 493.5Q708 429 708 351Q708 273 682.5 208.5Q657 144 610 97.5Q563 51 496.5 25.5Q430 0 347 0H85Q76 0 70 6.5Q64 13 64 22V679Q64 687 70 693.5Q76 700 85 700ZM349 123Q398 123 438 140Q478 157 507 187Q536 217 552 259Q568 301 568 351Q568 401 552 442.5Q536 484 507 514Q478 544 438 560.5Q398 577 349 577H198V123Z" glyph-name="D" horiz-adv-x="737" unicode="D" /><glyph d="M578 700Q587 700 593 693.5Q599 687 599 678V598Q599 589 593 583Q587 577 578 577H198V412H396Q405 412 411 405.5Q417 399 417 390V314Q417 305 411 298.5Q405 292 396 292H198V123H584Q593 123 599.5 117Q606 111 606 102V22Q606 13 599.5 6.5Q593 0 584 0H85Q76 0 70 6.5Q64 13 64 22V679Q64 687 70 693.5Q76 700 85 700Z" glyph-name="E" horiz-adv-x="628" unicode="E" /><glyph d="M487 281Q487 272 481 265.5Q475 259 466 259H198V22Q198 13 191.5 6.5Q185 0 176 0H85Q76 0 70 6.5Q64 13 64 22V679Q64 687 70 693.5Q76 700 85 700H557Q566 700 572.5 693.5Q579 687 579 678V598Q579 589 572.5 583Q566 577 557 577H198V379H466Q475 379 481 373Q487 367 487 358Z" glyph-name="F" horiz-adv-x="594" unicode="F" /><glyph d="M399 714Q457 714 511 699Q565 684 610 656Q655 628 689 588Q723 548 742 497Q744 492 743 485Q742 478 731 475L632 450Q621 448 616.5 453.5Q612 459 610 464Q581 521 528.5 555.5Q476 590 399 590Q349 590 306.5 571Q264 552 233 519.5Q202 487 184.5 443Q167 399 167 348Q167 296 184.5 252Q202 208 233 176Q264 144 307 126Q350 108 401 108Q473 108 527.5 145.5Q582 183 608 242H416Q407 242 400.5 248.5Q394 255 394 263V329Q394 338 400.5 344Q407 350 416 350H717Q726 350 732.5 344Q739 338 739 329V22Q739 13 732.5 6.5Q726 0 717 0H638Q629 0 622.5 6.5Q616 13 616 22V94Q582 47 525.5 16.5Q469 -14 383 -14Q306 -14 241 14Q176 42 128.5 91Q81 140 54 206.5Q27 273 27 350Q27 427 55.5 493.5Q84 560 134.5 609Q185 658 253 686Q321 714 399 714Z" glyph-name="G" horiz-adv-x="781" unicode="G" /><glyph d="M680 22Q680 13 674 6.5Q668 0 659 0H567Q558 0 552 6.5Q546 13 546 22V292H198V22Q198 13 192 6.5Q186 0 177 0H85Q76 0 70 6.5Q64 13 64 22V679Q64 687 70 693.5Q76 700 85 700H177Q186 700 192 693.5Q198 687 198 679V412H546V679Q546 687 552 693.5Q558 700 567 700H659Q668 700 674 693.5Q680 687 680 679Z" glyph-name="H" horiz-adv-x="744" unicode="H" /><glyph d="M85 0Q76 0 70 6.5Q64 13 64 22V679Q64 687 70 693.5Q76 700 85 700H177Q186 700 192 693.5Q198 687 198 679V22Q198 13 192 6.5Q186 0 177 0Z" glyph-name="I" horiz-adv-x="262" unicode="I" /><glyph d="M551 236Q551 174 530 127.5Q509 81 472.5 49.5Q436 18 387.5 2Q339 -14 284 -14Q229 -14 181 1.5Q133 17 97 47Q61 77 40 122Q19 167 19 226V273Q19 282 25 288Q31 294 40 294H131Q140 294 146.5 288Q153 282 153 273V239Q153 180 186 143.5Q219 107 285 107Q351 107 384 143.5Q417 180 417 239V679Q417 687 423.5 693.5Q430 700 439 700H530Q539 700 545 693.5Q551 687 551 679V236Z" glyph-name="J" horiz-adv-x="610" unicode="J" /><glyph d="M397 366 651 26Q659 15 654 7.5Q649 0 641 0H529Q516 0 508.5 3Q501 6 493 17L287 297H198V22Q198 13 191.5 6.5Q185 0 176 0H85Q76 0 70 6.5Q64 13 64 22V679Q64 687 70 693.5Q76 700 85 700H176Q185 700 191.5 693.5Q198 687 198 679V415H286L495 681Q503 691 511.5 695.5Q520 700 534 700H637Q649 700 653 690Q657 680 649 671Z" glyph-name="K" horiz-adv-x="656" unicode="K" /><glyph d="M553 22Q553 13 546.5 6.5Q540 0 531 0H85Q76 0 70 6.5Q64 13 64 21V678Q64 687 70 693.5Q76 700 85 700H176Q185 700 191.5 693.5Q198 687 198 678V123H531Q540 123 546.5 117Q553 111 553 102Z" glyph-name="L" horiz-adv-x="562" unicode="L" /><glyph d="M401 136Q390 136 383 140Q376 144 370 157L196 533V21Q196 12 190 6Q184 0 176 0H85Q76 0 70 6Q64 12 64 21V679Q64 687 70 693.5Q76 700 85 700H241Q251 700 259 696Q267 692 272 681L440 311L609 681Q614 692 622.5 696Q631 700 640 700H792Q801 700 807 693.5Q813 687 813 679V21Q813 12 807 6Q801 0 792 0H702Q693 0 687 6Q681 12 681 21V533L506 157Q500 144 493 140Q486 136 475 136Z" glyph-name="M" horiz-adv-x="877" unicode="M" /><glyph d="M198 488 198 21Q198 12 192 6Q186 0 177 0H85Q76 0 70 6Q64 12 64 21V679Q64 687 70 693.5Q76 700 85 700H204Q213 700 221 696.5Q229 693 235 683L528 223V679Q528 687 534 693.5Q540 700 548 700H640Q648 700 655 693.5Q662 687 662 679V21Q662 12 655 6Q648 0 640 0H541Q511 0 498 21Z" glyph-name="N" horiz-adv-x="726" unicode="N" /><glyph d="M763 350Q763 273 734.5 206.5Q706 140 656.5 91Q607 42 539.5 14Q472 -14 395 -14Q318 -14 251 14Q184 42 134 91Q84 140 55.5 206.5Q27 273 27 350Q27 427 55.5 493.5Q84 560 134 609Q184 658 251 686Q318 714 395 714Q472 714 539.5 686Q607 658 656.5 609Q706 560 734.5 493.5Q763 427 763 350ZM624 350Q624 401 607 444.5Q590 488 559.5 520.5Q529 553 487 571.5Q445 590 395 590Q345 590 303 571.5Q261 553 231 520.5Q201 488 184 444.5Q167 401 167 350Q167 299 184 255.5Q201 212 231 179.5Q261 147 303 128.5Q345 110 395 110Q445 110 487 128.5Q529 147 559.5 179.5Q590 212 607 255.5Q624 299 624 350Z" glyph-name="O" horiz-adv-x="790" unicode="O" /><glyph d="M198 22Q198 13 192 6.5Q186 0 177 0H85Q76 0 70 6.5Q64 13 64 22V679Q64 687 70 693.5Q76 700 85 700H348Q410 700 456.5 681.5Q503 663 534.5 631.5Q566 600 582 558Q598 516 598 469Q598 422 582 380Q566 338 534.5 306.5Q503 275 456.5 256.5Q410 238 348 238H198ZM339 356Q390 356 424.5 386Q459 416 459 469Q459 522 424.5 552Q390 582 339 582H198V356Z" glyph-name="P" horiz-adv-x="613" unicode="P" /><glyph d="M763 350Q763 255 721 177.5Q679 100 608 51L663 -91Q668 -105 661.5 -112.5Q655 -120 644 -120H561Q541 -120 534 -102L495 -1Q471 -7 446 -10.5Q421 -14 395 -14Q318 -14 251 14Q184 42 134 91Q84 140 55.5 206.5Q27 273 27 350Q27 427 55.5 493.5Q84 560 134 609Q184 658 251 686Q318 714 395 714Q472 714 539.5 686Q607 658 656.5 609Q706 560 734.5 493.5Q763 427 763 350ZM624 350Q624 401 607 444.5Q590 488 559.5 520.5Q529 553 487 571.5Q445 590 395 590Q345 590 303 571.5Q261 553 231 520.5Q201 488 184 444.5Q167 401 167 350Q167 299 184 255.5Q201 212 231 179.5Q261 147 303 128.5Q345 110 395 110Q423 110 450 116L398 251Q393 265 400 272.5Q407 280 418 280H498Q512 280 518.5 274.5Q525 269 528 261L559 179Q590 211 607 255Q624 299 624 350Z" glyph-name="Q" horiz-adv-x="790" unicode="Q" /><glyph d="M378 377Q430 377 462 406Q494 435 494 482Q494 528 462.5 555Q431 582 380 582H198V377ZM536 0Q513 0 501 22L353 268H198V22Q198 13 192 6.5Q186 0 177 0H85Q76 0 70 6.5Q64 13 64 22V679Q64 687 69 693.5Q74 700 85 700H393Q448 700 493 684Q538 668 569.5 639.5Q601 611 618 572.5Q635 534 635 489Q635 465 628 435.5Q621 406 604.5 378.5Q588 351 560 327.5Q532 304 490 291L653 28Q659 19 654.5 9.5Q650 0 638 0Z" glyph-name="R" horiz-adv-x="675" unicode="R" /><glyph d="M305 714Q388 714 450 688Q512 662 547 629Q565 612 562 599.5Q559 587 551 579L509 535Q498 524 485 523.5Q472 523 456 535Q421 561 383.5 578.5Q346 596 301 596Q251 596 216.5 574.5Q182 553 182 513Q182 489 198.5 469.5Q215 450 262 438L399 402Q441 391 475.5 374Q510 357 534.5 333Q559 309 572.5 277Q586 245 586 203Q586 163 569 124Q552 85 517.5 54.5Q483 24 430 5Q377 -14 306 -14Q255 -14 212 -5Q169 4 135.5 19Q102 34 76.5 53Q51 72 34 91Q23 104 21.5 119.5Q20 135 34 146L89 189Q103 200 114 196.5Q125 193 136 182Q151 167 169 153.5Q187 140 208.5 129Q230 118 256 111.5Q282 105 314 105Q345 105 369 112Q393 119 408.5 131Q424 143 432 158.5Q440 174 440 190Q440 226 413.5 246.5Q387 267 335 281L208 314Q126 335 82 383Q38 431 38 504Q38 550 58 588.5Q78 627 113.5 655Q149 683 198 698.5Q247 714 305 714Z" glyph-name="S" horiz-adv-x="608" unicode="S" /><glyph d="M11 678Q11 687 17 693.5Q23 700 32 700H586Q595 700 601 693.5Q607 687 607 678V598Q607 589 601 583Q595 577 586 577H378V22Q378 13 371.5 6.5Q365 0 356 0H261Q252 0 246 6.5Q240 13 240 22V577H32Q23 577 17 583Q11 589 11 598Z" glyph-name="T" horiz-adv-x="618" unicode="T" /><glyph d="M637 250Q637 182 613 132Q589 82 549 49.5Q509 17 456.5 1.5Q404 -14 347 -14Q290 -14 238 1.5Q186 17 146 49Q106 81 82 131Q58 181 58 249V679Q58 687 64 693.5Q70 700 79 700H170Q179 700 185.5 693.5Q192 687 192 679V258Q192 188 232.5 148Q273 108 347 108Q421 108 462 148Q503 188 503 258V679Q503 687 509.5 693.5Q516 700 525 700H616Q624 700 630.5 693.5Q637 687 637 679V250Z" glyph-name="U" horiz-adv-x="695" unicode="U" /><glyph d="M269 0Q261 0 253.5 5Q246 10 241 21L-12 668Q-18 683 -11.5 691.5Q-5 700 7 700H112Q121 700 125.5 695Q130 690 134 681L336 150L535 681Q542 700 557 700H656Q667 700 672.5 691.5Q678 683 673 669L421 21Q416 10 408.5 5Q401 0 393 0Z" glyph-name="V" horiz-adv-x="660" unicode="V" /><glyph d="M837 21Q833 10 823.5 5Q814 0 810 0H686Q678 0 670 5Q662 10 659 21L518 499L376 21Q373 10 364.5 5Q356 0 349 0H222Q214 0 206.5 5Q199 10 195 21L-14 668Q-19 684 -11 692Q-3 700 8 700H112Q120 700 126 693.5Q132 687 134 679L291 170L440 681Q442 689 447 694.5Q452 700 463 700H575Q583 700 589.5 694.5Q596 689 598 681L749 174L903 679Q905 687 910.5 693.5Q916 700 925 700H1024Q1036 700 1043.5 693Q1051 686 1045 668L837 21Z" glyph-name="W" horiz-adv-x="1033" unicode="W" /><glyph d="M159 17Q154 9 147.5 4.5Q141 0 128 0H18Q3 0 0 10.5Q-3 21 3 29L228 356L14 671Q7 681 12.5 690.5Q18 700 30 700H140Q152 700 158 695.5Q164 691 169 683L322 450L472 683Q477 690 482.5 695Q488 700 501 700H606Q620 700 623 690.5Q626 681 620 672L408 357L631 29Q638 19 634 9.5Q630 0 616 0H504Q492 0 486 5Q480 10 475 18L315 256L159 17Z" glyph-name="X" horiz-adv-x="634" unicode="X" /><glyph d="M256 271 11 669Q3 680 8.5 690Q14 700 25 700H140Q156 700 166 684L324 420H327L484 684Q494 700 509 700H620Q631 700 637 691Q643 682 635 669L390 271V22Q390 13 383.5 6.5Q377 0 369 0H277Q268 0 262 6.5Q256 13 256 22Z" glyph-name="Y" horiz-adv-x="646" unicode="Y" /><glyph d="M38 0Q28 0 22 6.5Q16 13 16 22V82Q16 92 20.5 99.5Q25 107 30 113L394 581H60Q51 581 45 587.5Q39 594 39 602V678Q39 687 45 693.5Q51 700 60 700H548Q556 700 562.5 693.5Q569 687 569 678V608Q569 592 557 578L204 119H571Q579 119 585.5 113Q592 107 592 98V22Q592 13 585.5 6.5Q579 0 571 0Z" glyph-name="Z" horiz-adv-x="609" unicode="Z" /><glyph d="M341 593 239 286H443ZM155 21Q153 13 146.5 6.5Q140 0 129 0H25Q13 0 7 7.5Q1 15 6 30L233 679Q237 690 245 695Q253 700 261 700H887Q896 700 902.5 693.5Q909 687 909 678V595Q909 586 902.5 580Q896 574 887 574H491L551 412H752Q761 412 767.5 405.5Q774 399 774 390V314Q774 305 767.5 298.5Q761 292 752 292H591L652 126H887Q896 126 902.5 120Q909 114 909 105V22Q909 13 902.5 6.5Q896 0 887 0H557Q534 0 528 21L477 170H205Z" glyph-name="AE" horiz-adv-x="935" unicode="Æ" /><glyph d="M623 350Q623 401 606 445Q589 489 559 521.5Q529 554 487.5 572.5Q446 591 396 591Q346 591 304 572.5Q262 554 231.5 521.5Q201 489 184 445Q167 401 167 350Q167 299 184 255Q201 211 231.5 178.5Q262 146 304 127.5Q346 109 396 109Q446 109 487.5 127.5Q529 146 559 178.5Q589 211 606 255Q623 299 623 350ZM616 95Q600 69 576 49Q552 29 522 15Q492 1 458 -6.5Q424 -14 387 -14Q311 -14 245 14Q179 42 130.5 91Q82 140 54.5 206.5Q27 273 27 350Q27 427 54.5 493.5Q82 560 130 609Q178 658 243.5 686Q309 714 384 714Q459 714 521 685Q583 656 616 605V679Q616 687 622.5 693.5Q629 700 638 700H1137Q1146 700 1152 693.5Q1158 687 1158 678V598Q1158 589 1152 583Q1146 577 1137 577H750V412H948Q957 412 963.5 405.5Q970 399 970 390V314Q970 305 963.5 298.5Q957 292 948 292H750V123H1137Q1146 123 1152 117Q1158 111 1158 102V22Q1158 13 1152 6.5Q1146 0 1137 0H638Q629 0 622.5 6.5Q616 13 616 22Z" glyph-name="OE" horiz-adv-x="1183" unicode="Œ" /><glyph d="M92 0Q83 0 76.5 6.5Q70 13 70 21V248L33 238Q23 235 16.5 240.5Q10 246 10 255V319Q10 339 27 344L70 355V678Q70 687 76.5 693.5Q83 700 92 700H182Q191 700 197.5 693.5Q204 687 204 678V390L375 435Q386 437 392 432Q398 427 398 417V353Q398 333 381 328L204 282V123H537Q546 123 552.5 117Q559 111 559 102V22Q559 13 552.5 6.5Q546 0 537 0Z" glyph-name="Lslash" horiz-adv-x="568" unicode="Ł" /><glyph d="M763 350Q763 273 734.5 206.5Q706 140 656.5 91Q607 42 539.5 14Q472 -14 395 -14Q318 -14 251 14Q184 42 134 91Q84 140 55.5 206.5Q27 273 27 350Q27 427 55.5 493.5Q84 560 134 609Q184 658 251 686Q318 714 395 714Q472 714 539.5 686Q607 658 656.5 609Q706 560 734.5 493.5Q763 427 763 350ZM624 350Q624 392 612 430Q600 468 578 498Q556 528 525.5 549.5Q495 571 458 582V118Q495 128 525.5 150Q556 172 578 202Q600 232 612 270Q624 308 624 350ZM167 350Q167 308 179 270Q191 232 212.5 202Q234 172 264.5 150Q295 128 332 118V582Q295 571 264.5 549.5Q234 528 212.5 498Q191 468 179 430Q167 392 167 350Z" glyph-name="Oslash" horiz-adv-x="790" unicode="Ø" /><glyph d="M103 0Q94 0 88 6.5Q82 13 82 22V299H21Q12 299 5.5 305.5Q-1 312 -1 321V383Q-1 392 5.5 398.5Q12 405 21 405H82V679Q82 687 88 693.5Q94 700 103 700H365Q448 700 514.5 675Q581 650 628 604Q675 558 700.5 493.5Q726 429 726 351Q726 273 700.5 208.5Q675 144 628 97.5Q581 51 514.5 25.5Q448 0 365 0ZM367 123Q416 123 456 140Q496 157 525 187Q554 217 570 259Q586 301 586 351Q586 401 570 442.5Q554 484 525 514Q496 544 456 560.5Q416 577 367 577H216V405H381Q390 405 396 398.5Q402 392 402 383V321Q402 312 396 305.5Q390 299 381 299H216V123Z" glyph-name="Eth" horiz-adv-x="755" unicode="Ð" /><glyph d="M85 0Q76 0 70 6.5Q64 13 64 22V678Q64 687 70 693.5Q76 700 85 700H177Q186 700 192 693.5Q198 687 198 678V593H348Q410 593 456.5 574.5Q503 556 534.5 524.5Q566 493 582 451Q598 409 598 362Q598 315 582 273Q566 231 534.5 199.5Q503 168 456.5 149.5Q410 131 348 131H198V22Q198 13 192 6.5Q186 0 177 0ZM339 249Q390 249 424.5 279Q459 309 459 362Q459 415 424.5 445Q390 475 339 475H198V249Z" glyph-name="Thorn" horiz-adv-x="620" unicode="Þ" /><glyph d="M154 241Q154 213 164 188Q174 163 191.5 144.5Q209 126 232.5 115.5Q256 105 284 105Q312 105 335.5 115.5Q359 126 376 144.5Q393 163 403 188Q413 213 413 241Q413 269 403 293.5Q393 318 376 336.5Q359 355 335.5 365.5Q312 376 284 376Q256 376 232.5 365.5Q209 355 191.5 336.5Q174 318 164 293.5Q154 269 154 241ZM24 242Q24 300 44 347Q64 394 97.5 427Q131 460 174.5 478Q218 496 266 496Q317 496 356 475.5Q395 455 413 423V461Q413 470 419 476Q425 482 433 482H521Q529 482 535 476Q541 470 541 461V20Q541 12 535 6Q529 0 521 0H433Q425 0 419 6Q413 12 413 20V59Q394 27 355 6.5Q316 -14 265 -14Q218 -14 174.5 4Q131 22 97.5 55.5Q64 89 44 136.5Q24 184 24 242Z" glyph-name="a" horiz-adv-x="589" unicode="a" /><glyph d="M177 425Q195 455 234.5 475.5Q274 496 326 496Q373 496 416 478Q459 460 492 427Q525 394 545 347Q565 300 565 242Q565 184 545 136.5Q525 89 492 55.5Q459 22 415.5 4Q372 -14 324 -14Q273 -14 235 6.5Q197 27 176 59V20Q176 12 170 6Q164 0 156 0H69Q60 0 54 6Q48 12 48 20V680Q48 688 54 694Q60 700 69 700H156Q164 700 170.5 694Q177 688 177 680ZM176 241Q176 213 185.5 188Q195 163 212.5 144.5Q230 126 253.5 115.5Q277 105 305 105Q333 105 356.5 115.5Q380 126 397.5 144.5Q415 163 425 188Q435 213 435 241Q435 269 425 293.5Q415 318 397.5 336.5Q380 355 356.5 365.5Q333 376 305 376Q277 376 253.5 365.5Q230 355 212.5 336.5Q195 318 185.5 293.5Q176 269 176 241Z" glyph-name="b" horiz-adv-x="589" unicode="b" /><glyph d="M498 100Q468 50 412 18Q356 -14 281 -14Q227 -14 180 5.5Q133 25 98.5 59.5Q64 94 44 140.5Q24 187 24 241Q24 295 44 341.5Q64 388 98.5 422.5Q133 457 180 476.5Q227 496 281 496Q356 496 412 464Q468 432 498 382Q504 372 500.5 362Q497 352 489 346L440 308Q427 298 416.5 301Q406 304 398 314Q374 343 348 359.5Q322 376 283 376Q255 376 231.5 365.5Q208 355 190.5 336.5Q173 318 163.5 293.5Q154 269 154 241Q154 213 163.5 188.5Q173 164 190.5 145.5Q208 127 231.5 116.5Q255 106 283 106Q322 106 348 122.5Q374 139 398 168Q406 178 416.5 181Q427 184 440 174L489 136Q497 130 500.5 120Q504 110 498 100Z" glyph-name="c" horiz-adv-x="519" unicode="c" /><glyph d="M154 241Q154 213 164 188Q174 163 191.5 144.5Q209 126 232.5 115.5Q256 105 284 105Q312 105 335.5 115.5Q359 126 376 144.5Q393 163 403 188Q413 213 413 241Q413 269 403 293.5Q393 318 376 336.5Q359 355 335.5 365.5Q312 376 284 376Q256 376 232.5 365.5Q209 355 191.5 336.5Q174 318 164 293.5Q154 269 154 241ZM24 242Q24 300 44 347Q64 394 97 427Q130 460 173 478Q216 496 263 496Q315 496 354.5 475.5Q394 455 412 425V680Q412 688 418.5 694Q425 700 433 700H520Q529 700 535 694Q541 688 541 680V20Q541 12 535 6Q529 0 520 0H433Q425 0 419 6Q413 12 413 20V59Q392 27 354 6.5Q316 -14 265 -14Q217 -14 173.5 4Q130 22 97 55.5Q64 89 44 136.5Q24 184 24 242Z" glyph-name="d" horiz-adv-x="589" unicode="d" /><glyph d="M278 496Q334 496 379.5 476.5Q425 457 457 423.5Q489 390 506.5 346.5Q524 303 524 255V231Q524 222 519.5 215.5Q515 209 501 209H157Q160 183 170.5 162.5Q181 142 198 127Q215 112 237 104Q259 96 283 96Q321 96 347.5 109Q374 122 396 147Q401 153 407.5 155.5Q414 158 422 152L485 108Q493 102 493.5 93.5Q494 85 489 79Q459 41 409.5 13.5Q360 -14 280 -14Q223 -14 176 5.5Q129 25 95.5 59Q62 93 43 139Q24 185 24 239Q24 293 43 339.5Q62 386 95.5 421Q129 456 175.5 476Q222 496 278 496ZM397 291Q388 341 354.5 366.5Q321 392 279 392Q235 392 202.5 364.5Q170 337 160 291Z" glyph-name="e" horiz-adv-x="540" unicode="e" /><glyph d="M98 482 98 558Q98 602 113 634Q128 666 152 686.5Q176 707 206.5 717Q237 727 269 727Q302 727 339.5 715.5Q377 704 402 681Q417 667 404 647L366 595Q358 582 347 585Q336 588 328 593Q314 602 302 605.5Q290 609 281 609Q260 609 243.5 594Q227 579 227 547V482H322Q330 482 336.5 476Q343 470 343 461V395Q343 387 336.5 380.5Q330 374 322 374H227V21Q227 13 221 6.5Q215 0 207 0H119Q111 0 104.5 6.5Q98 13 98 21V374H33Q24 374 18 380.5Q12 387 12 395V461Q12 470 18 476Q24 482 33 482Z" glyph-name="f" horiz-adv-x="350" unicode="f" /><glyph d="M155 244Q155 215 164.5 191Q174 167 191.5 149Q209 131 232.5 121Q256 111 284 111Q312 111 335.5 121Q359 131 376 149Q393 167 403 191Q413 215 413 244Q413 272 403 296.5Q393 321 376 339Q359 357 335.5 367Q312 377 284 377Q256 377 232.5 367Q209 357 191.5 339Q174 321 164.5 296.5Q155 272 155 244ZM286 -119Q350 -119 382 -86Q414 -53 414 1V65Q396 36 357.5 16Q319 -4 268 -4Q218 -4 174 13Q130 30 97 62.5Q64 95 44.5 141Q25 187 25 245Q25 303 44.5 349.5Q64 396 97 428.5Q130 461 173 478.5Q216 496 263 496Q315 496 355 475Q395 454 414 422V461Q414 469 420 475Q426 481 434 481H521Q530 481 536 475Q542 469 542 461V-3Q542 -53 524 -95Q506 -137 472.5 -167Q439 -197 391 -213.5Q343 -230 283 -230Q186 -230 121 -190Q56 -150 39 -81Q37 -75 39 -69Q41 -63 49 -61L142 -36Q160 -31 165 -45Q170 -59 179.5 -72Q189 -85 203.5 -95.5Q218 -106 238.5 -112.5Q259 -119 286 -119Z" glyph-name="g" horiz-adv-x="590" unicode="g" /><glyph d="M415 252Q415 309 384.5 343Q354 377 298 377Q243 377 210 342.5Q177 308 177 252V19Q177 11 170.5 5.5Q164 0 156 0H68Q60 0 54 6Q48 12 48 20V680Q48 688 54 694Q60 700 68 700H156Q164 700 170.5 694.5Q177 689 177 681V425Q198 454 238.5 475Q279 496 337 496Q385 496 423.5 480Q462 464 488.5 436Q515 408 529.5 370Q544 332 544 287V19Q544 11 537.5 5.5Q531 0 523 0H436Q428 0 421.5 5.5Q415 11 415 19Z" glyph-name="h" horiz-adv-x="587" unicode="h" /><glyph d="M69 0Q60 0 54 6.5Q48 13 48 21V461Q48 470 54 476Q60 482 69 482H156Q165 482 171 476Q177 470 177 461V21Q177 13 171 6.5Q165 0 156 0ZM113 550Q81 550 59 571.5Q37 593 37 625Q37 657 59 678.5Q81 700 113 700Q145 700 167 678.5Q189 657 189 625Q189 593 167 571.5Q145 550 113 550Z" glyph-name="i" horiz-adv-x="225" unicode="i" /><glyph d="M69 0Q60 0 54 6.5Q48 13 48 21V461Q48 470 54 476Q60 482 69 482H156Q165 482 171 476Q177 470 177 461V21Q177 13 171 6.5Q165 0 156 0ZM113 550Q81 550 59 571.5Q37 593 37 625Q37 657 59 678.5Q81 700 113 700Q145 700 167 678.5Q189 657 189 625Q189 593 167 571.5Q145 550 113 550Z" glyph-name="i.TRK" horiz-adv-x="225" unicode="" /><glyph d="M155 482Q164 482 170 475.5Q176 469 176 461V-52Q176 -100 161 -133.5Q146 -167 122 -188.5Q98 -210 67 -220Q36 -230 5 -230Q-30 -230 -67 -219Q-104 -208 -127 -185Q-134 -178 -135 -169Q-136 -160 -129 -151L-93 -103Q-85 -92 -74 -92Q-63 -92 -55 -97Q-30 -113 -7 -113Q2 -113 11.5 -110Q21 -107 29 -100Q37 -93 42 -80.5Q47 -68 47 -50V461Q47 469 53 475.5Q59 482 68 482ZM112 550Q80 550 58 571.5Q36 593 36 625Q36 657 58 678.5Q80 700 112 700Q144 700 166 678.5Q188 657 188 625Q188 593 166 571.5Q144 550 112 550Z" glyph-name="j" horiz-adv-x="225" unicode="j" /><glyph d="M177 20Q177 12 171 6Q165 0 156 0H69Q60 0 54 6Q48 12 48 20V680Q48 688 54 694Q60 700 69 700H156Q165 700 171 694Q177 688 177 680V308H214L336 467Q347 482 363 482H461Q475 482 478.5 472Q482 462 474 451L325 270L499 32Q507 21 502 10.5Q497 0 482 0H381Q362 0 351 17L217 208H177V20Z" glyph-name="k" horiz-adv-x="501" unicode="k" /><glyph d="M170 0Q105 0 75.5 32.5Q46 65 46 120V679Q46 687 52 693.5Q58 700 67 700H154Q163 700 169 693.5Q175 687 175 679V145Q175 128 184 117.5Q193 107 211 107H240Q248 107 254 103Q260 99 260 88V25Q260 9 251 4.5Q242 0 234 0H170Z" glyph-name="l" horiz-adv-x="266" unicode="l" /><glyph d="M177 19Q177 11 170.5 5.5Q164 0 156 0H68Q60 0 54 6Q48 12 48 20V461Q48 470 54 476Q60 482 68 482H156Q164 482 170.5 476.5Q177 471 177 463V425Q198 455 238 475.5Q278 496 327 496Q381 496 421 472.5Q461 449 481 411Q515 457 560 476.5Q605 496 652 496Q705 496 743.5 478.5Q782 461 807.5 432.5Q833 404 845.5 367.5Q858 331 858 292V19Q858 11 851.5 5.5Q845 0 837 0H750Q742 0 735.5 5.5Q729 11 729 19V261Q729 310 704 343.5Q679 377 626 377Q573 377 545.5 343.5Q518 310 518 261V19Q518 11 511.5 5.5Q505 0 497 0H410Q402 0 395.5 5.5Q389 11 389 19V261Q389 310 364 343.5Q339 377 286 377Q233 377 205 343.5Q177 310 177 261Z" glyph-name="m" horiz-adv-x="901" unicode="m" /><glyph d="M415 252Q415 309 384.5 343Q354 377 298 377Q243 377 210 342.5Q177 308 177 252V19Q177 11 170.5 5.5Q164 0 156 0H68Q60 0 54 6Q48 12 48 20V461Q48 470 54 476Q60 482 68 482H156Q164 482 170.5 476.5Q177 471 177 463V425Q198 454 238.5 475Q279 496 337 496Q385 496 423.5 480Q462 464 488.5 436Q515 408 529.5 370Q544 332 544 287V19Q544 11 537.5 5.5Q531 0 523 0H436Q428 0 421.5 5.5Q415 11 415 19Z" glyph-name="n" horiz-adv-x="587" unicode="n" /><glyph d="M23 240Q23 294 43 340.5Q63 387 98.5 421.5Q134 456 181 476Q228 496 282 496Q336 496 383 476Q430 456 465.5 421.5Q501 387 521 340.5Q541 294 541 240Q541 186 521 140Q501 94 465.5 59.5Q430 25 383 5.5Q336 -14 282 -14Q228 -14 181 5.5Q134 25 98.5 59.5Q63 94 43 140Q23 186 23 240ZM153 241Q153 213 162.5 188.5Q172 164 189.5 145.5Q207 127 230.5 116.5Q254 106 282 106Q310 106 333.5 116.5Q357 127 374 145.5Q391 164 401 188.5Q411 213 411 241Q411 269 401 293.5Q391 318 374 336.5Q357 355 333.5 365.5Q310 376 282 376Q254 376 230.5 365.5Q207 355 189.5 336.5Q172 318 162.5 293.5Q153 269 153 241Z" glyph-name="o" horiz-adv-x="564" unicode="o" /><glyph d="M176 241Q176 212 186 187.5Q196 163 213.5 144.5Q231 126 254.5 115.5Q278 105 306 105Q334 105 357.5 115.5Q381 126 398 144.5Q415 163 425 187.5Q435 212 435 241Q435 269 425 293.5Q415 318 398 336.5Q381 355 357.5 365.5Q334 376 306 376Q278 376 254.5 365.5Q231 355 213.5 336.5Q196 318 186 293.5Q176 269 176 241ZM175 423Q196 455 235.5 475.5Q275 496 327 496Q375 496 418 478Q461 460 493.5 427Q526 394 545.5 347Q565 300 565 242Q565 184 545.5 136.5Q526 89 493 55.5Q460 22 416.5 4Q373 -14 325 -14Q281 -14 240 3.5Q199 21 177 54V-195Q177 -203 171 -209Q165 -215 157 -215H68Q60 -215 54 -209Q48 -203 48 -195V461Q48 470 54 476Q60 482 68 482H155Q163 482 169 476Q175 470 175 461Z" glyph-name="p" horiz-adv-x="590" unicode="p" /><glyph d="M24 242Q24 300 44 347Q64 394 97.5 427Q131 460 174.5 478Q218 496 265 496Q317 496 356 475.5Q395 455 413 425V461Q413 470 419 476Q425 482 433 482H521Q529 482 535 476Q541 470 541 461V-195Q541 -203 535 -209Q529 -215 521 -215H432Q424 -215 418 -209Q412 -203 412 -195V59Q392 27 354 6.5Q316 -14 265 -14Q218 -14 174.5 4Q131 22 97.5 55.5Q64 89 44 136.5Q24 184 24 242ZM154 241Q154 212 164 187.5Q174 163 191.5 144.5Q209 126 232.5 115.5Q256 105 284 105Q312 105 335.5 115.5Q359 126 376 144.5Q393 163 403 187.5Q413 212 413 241Q413 269 403 293.5Q393 318 376 336.5Q359 355 335.5 365.5Q312 376 284 376Q256 376 232.5 365.5Q209 355 191.5 336.5Q174 318 164 293.5Q154 269 154 241Z" glyph-name="q" horiz-adv-x="589" unicode="q" /><glyph d="M303 488Q311 488 318.5 483Q326 478 326 463V377Q326 362 317 357Q308 352 302 352H278Q230 352 203.5 325.5Q177 299 177 236V19Q177 11 170.5 5.5Q164 0 156 0H68Q60 0 54 6Q48 12 48 20V461Q48 470 54 476Q60 482 68 482H151Q159 482 165 476.5Q171 471 171 463V417Q190 449 220.5 468.5Q251 488 289 488Z" glyph-name="r" horiz-adv-x="337" unicode="r" /><glyph d="M236 496Q270 496 299.5 490.5Q329 485 352.5 476Q376 467 393.5 456Q411 445 423 435Q434 426 433 415.5Q432 405 424 395L392 357Q374 336 347 354Q324 370 294.5 382.5Q265 395 233 395Q200 395 180.5 382Q161 369 161 352Q161 335 175 323Q189 311 222 305L301 290Q365 278 406 245.5Q447 213 447 148Q447 113 431.5 83.5Q416 54 387.5 32Q359 10 320 -2Q281 -14 233 -14Q170 -14 124 3.5Q78 21 49 43Q21 64 20 81Q19 98 34 110L71 140Q85 151 96 148Q107 145 116 137Q140 116 170.5 101.5Q201 87 239 87Q278 87 297 101.5Q316 116 316 135Q316 156 296.5 164.5Q277 173 239 181L162 197Q103 209 68.5 245Q34 281 34 339Q34 372 48 400.5Q62 429 88.5 450.5Q115 472 152 484Q189 496 236 496Z" glyph-name="s" horiz-adv-x="469" unicode="s" /><glyph d="M92 374 26 374Q18 374 12 380.5Q6 387 6 395V461Q6 470 12 476Q18 482 26 482H92V616Q92 625 98 631Q104 637 113 637H201Q209 637 215 631Q221 625 221 616V482H361Q369 482 375.5 476Q382 470 382 461V395Q382 387 375.5 380.5Q369 374 361 374H221V171Q221 153 226.5 141Q232 129 240 122Q248 115 257.5 112Q267 109 276 109Q285 109 297 112.5Q309 116 322 124Q333 131 343.5 130.5Q354 130 361 120L391 71Q403 53 388 38Q365 15 329.5 2.5Q294 -10 252 -10Q222 -10 193 -1.5Q164 7 141.5 25.5Q119 44 105.5 72.5Q92 101 92 142Z" glyph-name="t" horiz-adv-x="399" unicode="t" /><glyph d="M172 213Q172 160 198.5 128Q225 96 280 96Q334 96 362.5 128Q391 160 391 211V463Q391 471 397 476.5Q403 482 411 482H499Q508 482 514 476Q520 470 520 461V20Q520 12 514 6Q508 0 499 0H411Q403 0 397 5.5Q391 11 391 19V57Q368 26 333 6Q298 -14 241 -14Q195 -14 158 1Q121 16 95.5 43Q70 70 56.5 107.5Q43 145 43 191V463Q43 471 49.5 476.5Q56 482 64 482H151Q159 482 165.5 476.5Q172 471 172 463Z" glyph-name="u" horiz-adv-x="568" unicode="u" /><glyph d="M191 0Q180 0 174 6Q168 12 164 21L-2 451Q-7 463 -1 472.5Q5 482 17 482H114Q125 482 130.5 476Q136 470 139 462L260 131L374 462Q377 470 382.5 476Q388 482 399 482H491Q503 482 509.5 472.5Q516 463 511 451L345 21Q341 12 335 6Q329 0 319 0Z" glyph-name="v" horiz-adv-x="509" unicode="v" /><glyph d="M311 21Q308 12 301.5 6Q295 0 285 0H179Q169 0 162.5 6Q156 12 153 21L7 453Q2 467 8 474.5Q14 482 26 482H120Q131 482 137 476Q143 470 145 462L237 154L339 462Q346 482 364 482H467Q486 482 493 462L595 154L689 462Q691 470 697 476Q703 482 714 482H798Q810 482 816 474.5Q822 467 817 453L671 21Q668 12 661.5 6Q655 0 644 0H541Q530 0 523 6Q516 12 513 21L412 326L311 21Z" glyph-name="w" horiz-adv-x="824" unicode="w" /><glyph d="M151 17Q144 6 137 3Q130 0 121 0H25Q14 0 10 8.5Q6 17 12 26L172 249L13 456Q6 464 10 473Q14 482 25 482H137Q146 482 152.5 478.5Q159 475 167 465L267 336L356 465Q362 476 369.5 479Q377 482 386 482H478Q489 482 493 473Q497 464 490 456L339 243L507 26Q513 17 509 8.5Q505 0 494 0H381Q373 0 366 3.5Q359 7 351 17L245 155L151 17Z" glyph-name="x" horiz-adv-x="512" unicode="x" /><glyph d="M151 -230Q108 -230 73 -216.5Q38 -203 13 -180Q6 -173 5.5 -163.5Q5 -154 12 -145L43 -101Q52 -89 63.5 -89Q75 -89 84 -96Q97 -106 112 -112.5Q127 -119 145 -119Q168 -119 184.5 -104.5Q201 -90 210 -67L237 0H189Q172 0 164 20L-2 451Q-7 463 -2.5 472.5Q2 482 19 482H122Q131 482 136 475.5Q141 469 144 461L272 107L398 461Q401 469 407 475.5Q413 482 424 482H519Q533 482 537.5 473.5Q542 465 537 451L333 -88Q309 -152 265 -191Q221 -230 151 -230Z" glyph-name="y" horiz-adv-x="536" unicode="y" /><glyph d="M194 111 428 111Q436 111 442 105Q448 99 448 90V20Q448 12 442 6Q436 0 428 0H42Q34 0 27.5 6.5Q21 13 21 21V80Q21 95 31 105L266 371H53Q45 371 38.5 377.5Q32 384 32 392V461Q32 469 38.5 475.5Q45 482 53 482H416Q424 482 430.5 475.5Q437 469 437 461V402Q437 386 427 376Z" glyph-name="z" horiz-adv-x="469" unicode="z" /><glyph d="M627 -14Q574 -14 529.5 3Q485 20 451 50Q419 20 376 3Q333 -14 282 -14Q228 -14 181 5.5Q134 25 98.5 59.5Q63 94 43 140Q23 186 23 240Q23 294 43 340.5Q63 387 98.5 421.5Q134 456 181 476Q228 496 282 496Q332 496 375.5 479Q419 462 452 431Q485 462 529 479Q573 496 624 496Q680 496 725.5 476.5Q771 457 803 423.5Q835 390 852.5 346.5Q870 303 870 255V231Q870 222 865.5 215.5Q861 209 847 209H503Q506 183 517 162.5Q528 142 545 127Q562 112 584 104Q606 96 630 96Q668 96 694.5 109Q721 122 743 147Q748 153 754.5 155.5Q761 158 769 152L832 108Q840 102 840.5 93.5Q841 85 836 79Q806 41 756.5 13.5Q707 -14 627 -14ZM743 291Q734 341 700.5 366.5Q667 392 625 392Q581 392 548.5 364.5Q516 337 506 291ZM283 106Q314 106 340.5 117.5Q367 129 385 150Q370 192 370 239Q370 290 386 331Q368 353 341.5 364.5Q315 376 283 376Q255 376 231.5 365.5Q208 355 190.5 336.5Q173 318 163 293.5Q153 269 153 241Q153 213 163 188.5Q173 164 190.5 145.5Q208 127 231.5 116.5Q255 106 283 106Z" glyph-name="ae" horiz-adv-x="886" unicode="æ" /><glyph d="M669 -14Q608 -14 558.5 8.5Q509 31 475 69Q439 31 389.5 8.5Q340 -14 282 -14Q228 -14 181 5.5Q134 25 98.5 59.5Q63 94 43 140Q23 186 23 240Q23 294 43 340.5Q63 387 98.5 421.5Q134 456 181 476Q228 496 282 496Q340 496 390 473.5Q440 451 475 412Q509 451 557.5 473.5Q606 496 666 496Q722 496 767.5 476.5Q813 457 845 423.5Q877 390 894.5 346.5Q912 303 912 255V231Q912 222 907.5 215.5Q903 209 889 209H545Q548 183 558.5 162.5Q569 142 586 127Q603 112 625 104Q647 96 671 96Q709 96 735.5 109Q762 122 784 147Q789 153 795.5 155.5Q802 158 810 152L873 108Q881 102 881.5 93.5Q882 85 877 79Q862 60 842.5 43Q823 26 797.5 13.5Q772 1 740.5 -6.5Q709 -14 669 -14ZM785 291Q776 341 742.5 366.5Q709 392 667 392Q623 392 590.5 364.5Q558 337 548 291ZM153 241Q153 213 162.5 188.5Q172 164 189.5 145.5Q207 127 230.5 116.5Q254 106 282 106Q310 106 333.5 116.5Q357 127 374 145.5Q391 164 401 188.5Q411 213 411 241Q411 269 401 293.5Q391 318 374 336.5Q357 355 333.5 365.5Q310 376 282 376Q254 376 230.5 365.5Q207 355 189.5 336.5Q172 318 162.5 293.5Q153 269 153 241Z" glyph-name="oe" horiz-adv-x="928" unicode="œ" /><glyph d="M192 0Q127 0 97.5 32.5Q68 65 68 120V246L37 235Q27 232 20.5 235.5Q14 239 14 249V306Q14 316 18 320Q22 324 31 328L68 341V679Q68 687 74 693.5Q80 700 89 700H176Q185 700 191 693.5Q197 687 197 679V388L256 410Q266 413 272.5 409.5Q279 406 279 396V339Q279 330 274.5 325.5Q270 321 262 318L197 294V145Q197 128 206 117.5Q215 107 233 107H262Q270 107 276 103Q282 99 282 88V25Q282 9 273 4.5Q264 0 256 0Z" glyph-name="lslash" horiz-adv-x="292" unicode="ł" /><glyph d="M23 240Q23 294 43 340.5Q63 387 98.5 421.5Q134 456 181 476Q228 496 282 496Q336 496 383 476Q430 456 465.5 421.5Q501 387 521 340.5Q541 294 541 240Q541 186 521 140Q501 94 465.5 59.5Q430 25 383 5.5Q336 -14 282 -14Q228 -14 181 5.5Q134 25 98.5 59.5Q63 94 43 140Q23 186 23 240ZM153 241Q153 198 175 164Q197 130 233 116V366Q197 352 175 318Q153 284 153 241ZM411 241Q411 284 389 318Q367 352 331 366V116Q367 130 389 164Q411 198 411 241Z" glyph-name="oslash" horiz-adv-x="564" unicode="ø" /><glyph d="M290 -14Q233 -14 184 6Q135 26 99.5 61Q64 96 43.5 142.5Q23 189 23 243Q23 294 41 338.5Q59 383 90.5 416.5Q122 450 166 469.5Q210 489 261 489Q293 489 326 478.5Q359 468 383 447Q363 477 338 507Q313 537 287 566L199 533Q191 530 183.5 531Q176 532 172 543L160 577Q152 598 172 605L228 626Q185 669 152 696Q143 705 146 716.5Q149 728 166 728L266 730Q273 730 281 729Q289 728 298 720Q308 712 321.5 700Q335 688 351 672L442 707Q450 710 457.5 708.5Q465 707 469 697L481 663Q489 642 469 635L407 612Q434 580 461 541Q488 502 509 458Q530 414 543 365.5Q556 317 556 266Q556 206 536.5 154.5Q517 103 482 65.5Q447 28 398 7Q349 -14 290 -14ZM155 241Q155 212 165 187.5Q175 163 192 144.5Q209 126 233 115.5Q257 105 285 105Q313 105 337 115.5Q361 126 378 144.5Q395 163 405 187.5Q415 212 415 241Q415 269 405 294Q395 319 378 337Q361 355 337 365.5Q313 376 285 376Q257 376 233 365.5Q209 355 192 337Q175 319 165 294Q155 269 155 241Z" glyph-name="eth" horiz-adv-x="583" unicode="ð" /><glyph d="M176 241Q176 212 186 187.5Q196 163 213.5 144.5Q231 126 254.5 115.5Q278 105 306 105Q334 105 357.5 115.5Q381 126 398 144.5Q415 163 425 187.5Q435 212 435 241Q435 269 425 293.5Q415 318 398 336.5Q381 355 357.5 365.5Q334 376 306 376Q278 376 254.5 365.5Q231 355 213.5 336.5Q196 318 186 293.5Q176 269 176 241ZM177 423Q198 455 236.5 475.5Q275 496 327 496Q375 496 418 478Q461 460 493.5 427Q526 394 545.5 347Q565 300 565 242Q565 184 545.5 136.5Q526 89 493 55.5Q460 22 416.5 4Q373 -14 325 -14Q281 -14 240 3.5Q199 21 177 54V-195Q177 -203 171 -209Q165 -215 157 -215H68Q60 -215 54 -209Q48 -203 48 -195V679Q48 688 54 694Q60 700 68 700H157Q165 700 171 694Q177 688 177 679Z" glyph-name="thorn" horiz-adv-x="590" unicode="þ" /><glyph d="M48 485Q48 542 64.5 586.5Q81 631 112 662.5Q143 694 186 710.5Q229 727 282 727Q333 727 372.5 712Q412 697 439 672Q466 647 480 615Q494 583 494 549Q494 512 480.5 481Q467 450 450.5 425.5Q434 401 420.5 382.5Q407 364 407 352Q407 338 427 319.5Q447 301 471.5 275.5Q496 250 516 216.5Q536 183 536 140Q536 110 524.5 82Q513 54 490 33Q467 12 432 -1Q397 -14 351 -14Q344 -14 334 -13.5Q324 -13 312.5 -12Q301 -11 290 -9Q279 -7 270 -5Q263 -3 255.5 2.5Q248 8 251 20L269 89Q273 104 286 100Q295 98 307.5 96Q320 94 333 94Q365 94 380.5 109.5Q396 125 396 147Q396 166 376 188Q356 210 332.5 233.5Q309 257 289 283Q269 309 269 336Q269 360 284 386Q299 412 316.5 438.5Q334 465 349 489.5Q364 514 364 535Q364 548 359 562Q354 576 343.5 587Q333 598 316.5 605Q300 612 278 612Q231 612 204 578Q177 544 177 487V21Q177 13 171 6.5Q165 0 157 0H69Q60 0 54 6.5Q48 13 48 21V485Z" glyph-name="germandbls" horiz-adv-x="557" unicode="ß" /><glyph d="M227 21Q227 13 221 6.5Q215 0 207 0H119Q111 0 104.5 6.5Q98 13 98 21V374H33Q24 374 18 380.5Q12 387 12 395V461Q12 470 18 476Q24 482 33 482H98V558Q98 602 113 634Q128 666 152 686.5Q176 707 206.5 717Q237 727 269 727Q302 727 339.5 715.5Q377 704 402 681Q417 667 404 647L367 595Q358 583 347 585.5Q336 588 328 593Q314 602 302 605.5Q290 609 281 609Q260 609 243.5 594Q227 579 227 547Z" glyph-name="longs" horiz-adv-x="285" unicode="ſ" /><glyph d="M69 0Q60 0 54 6.5Q48 13 48 21V461Q48 470 54 476Q60 482 69 482H156Q165 482 171 476Q177 470 177 461V21Q177 13 171 6.5Q165 0 156 0Z" glyph-name="dotlessi" horiz-adv-x="225" unicode="ı" /><glyph d="M155 482Q164 482 170 475.5Q176 469 176 461V-52Q176 -100 161 -133.5Q146 -167 122 -188.5Q98 -210 67 -220Q36 -230 5 -230Q-30 -230 -67 -219Q-104 -208 -127 -185Q-134 -178 -135 -169Q-136 -160 -129 -151L-93 -103Q-85 -92 -74 -92Q-63 -92 -55 -97Q-30 -113 -7 -113Q2 -113 11.5 -110Q21 -107 29 -100Q37 -93 42 -80.5Q47 -68 47 -50V461Q47 469 53 475.5Q59 482 68 482Z" glyph-name="dotlessj" horiz-adv-x="225" unicode="ȷ" /><glyph d="M227 21Q227 13 221 6.5Q215 0 207 0H119Q111 0 104.5 6.5Q98 13 98 21V374H33Q24 374 18 379Q12 384 12 392V461Q12 470 18 476Q24 482 33 482H98V558Q98 602 113 634Q128 666 152 686.5Q176 707 206.5 717Q237 727 269 727Q302 727 339.5 715.5Q377 704 402 681Q417 667 404 647L367 595Q358 582 347 585Q336 588 328 593Q314 602 302 605.5Q290 609 281 609Q260 609 243.5 594Q227 579 227 547V482H453Q462 482 468 476Q474 470 474 461V21Q474 13 468 6.5Q462 0 453 0H365Q357 0 350.5 6.5Q344 13 344 21V374H227Z" glyph-name="fi" horiz-adv-x="522" unicode="ﬁ" /><glyph d="M344 679Q344 687 350.5 693.5Q357 700 365 700H453Q462 700 468 693.5Q474 687 474 679V145Q474 128 483 117.5Q492 107 510 107H539Q547 107 553 103Q559 99 559 88V25Q559 9 550 4.5Q541 0 533 0H469Q404 0 374 32.5Q344 65 344 120V374H227V21Q227 13 221 6.5Q215 0 207 0H119Q111 0 104.5 6.5Q98 13 98 21V374H33Q24 374 18 380.5Q12 387 12 395V461Q12 470 18 476Q24 482 33 482H98V556Q98 595 109.5 622.5Q121 650 139.5 667Q158 684 180.5 692Q203 700 226 700H267Q281 700 289.5 693.5Q298 687 298 671V604Q298 581 276 581H267Q227 581 227 540V482H344Z" glyph-name="fl" horiz-adv-x="568" unicode="ﬂ" /><glyph d="M473 482 561 482Q569 482 575.5 476Q582 470 582 461V395Q582 387 575.5 380.5Q569 374 561 374H473V21Q473 13 467 6.5Q461 0 452 0H365Q357 0 350.5 6.5Q344 13 344 21V374H227V21Q227 13 221 6.5Q215 0 207 0H119Q111 0 104.5 6.5Q98 13 98 21V374H33Q24 374 18 380.5Q12 387 12 395V461Q12 470 18 476Q24 482 33 482H98V556Q98 595 109.5 622.5Q121 650 139.5 667Q158 684 180.5 692Q203 700 226 700H267Q281 700 289.5 693.5Q298 687 298 671V604Q298 581 276 581H267Q227 581 227 540V482H344V558Q344 602 358.5 634Q373 666 397 686.5Q421 707 451.5 717Q482 727 514 727Q548 727 585 715.5Q622 704 647 681Q654 675 655 665.5Q656 656 649 647L612 595Q603 582 592.5 585Q582 588 574 593Q560 602 548 605.5Q536 609 527 609Q505 609 489 594Q473 579 473 547Z" glyph-name="f_f" horiz-adv-x="590" unicode="ﬀ" /><glyph d="M344 558Q344 602 359 634Q374 666 398 686.5Q422 707 452.5 717Q483 727 515 727Q549 727 586 715.5Q623 704 648 681Q655 675 656 665.5Q657 656 650 647L613 595Q604 583 593.5 585.5Q583 588 575 593Q561 602 549 605.5Q537 609 528 609Q506 609 490 594Q474 579 474 547V482H700Q708 482 714 476Q720 470 720 461V21Q720 13 714 6.5Q708 0 700 0H612Q604 0 597.5 6.5Q591 13 591 21V374H474V21Q474 13 468 6.5Q462 0 453 0H365Q357 0 350.5 6.5Q344 13 344 21V374H227V21Q227 13 221 6.5Q215 0 207 0H119Q111 0 104.5 6.5Q98 13 98 21V374H33Q24 374 18 380.5Q12 387 12 395V461Q12 470 18 476Q24 482 33 482H98V556Q98 595 109.5 622.5Q121 650 139.5 667Q158 684 180.5 692Q203 700 226 700H267Q281 700 289.5 693.5Q298 687 298 671V604Q298 581 276 581H267Q227 581 227 540V482H344V558Z" glyph-name="f_f_i" horiz-adv-x="768" unicode="ﬃ" /><glyph d="M344 680Q344 688 350 694Q356 700 365 700H452Q460 700 466 694Q472 688 472 680V425Q493 457 532.5 476.5Q572 496 623 496Q671 496 714 478Q757 460 790 427Q823 394 842 347Q861 300 861 242Q861 184 842 136.5Q823 89 790 55.5Q757 22 713.5 4Q670 -14 622 -14Q577 -14 535.5 3.5Q494 21 472 54V20Q472 12 466 6Q460 0 452 0H365Q356 0 350 6Q344 12 344 20V374H227V21Q227 13 221 6.5Q215 0 207 0H119Q111 0 104.5 6.5Q98 13 98 21V374H33Q24 374 18 380.5Q12 387 12 395V461Q12 470 18 476Q24 482 33 482H98V556Q98 595 109.5 622.5Q121 650 139.5 667Q158 684 180.5 692Q203 700 226 700H267Q281 700 289.5 693.5Q298 687 298 671V604Q298 581 276 581H267Q227 581 227 540V482H344ZM473 240Q473 212 482.5 187.5Q492 163 509.5 144.5Q527 126 550.5 115.5Q574 105 602 105Q630 105 653.5 115.5Q677 126 694 144.5Q711 163 721 187.5Q731 212 731 240Q731 268 721 293Q711 318 694 336.5Q677 355 653.5 365.5Q630 376 602 376Q574 376 550.5 365.5Q527 355 509.5 336.5Q492 318 482.5 293Q473 268 473 240Z" glyph-name="f_b" horiz-adv-x="886" unicode="" /><glyph d="M1107 242Q1107 184 1088 136.5Q1069 89 1036 55.5Q1003 22 959.5 4Q916 -14 867 -14Q823 -14 781 3.5Q739 21 718 54V20Q718 12 712 6Q706 0 697 0H610Q602 0 596 6Q590 12 590 20V374H473V21Q473 13 467 6.5Q461 0 452 0H365Q357 0 350.5 6.5Q344 13 344 21V374H227V21Q227 13 221 6.5Q215 0 207 0H119Q111 0 104.5 6.5Q98 13 98 21V374H33Q24 374 18 380.5Q12 387 12 395V461Q12 470 18 476Q24 482 33 482H98V556Q98 595 109.5 622.5Q121 650 139.5 667Q158 684 180.5 692Q203 700 226 700H267Q281 700 289.5 693.5Q298 687 298 671V604Q298 581 276 581H267Q227 581 227 540V482H344V556Q344 595 355.5 622.5Q367 650 385.5 667Q404 684 426.5 692Q449 700 472 700H513Q526 700 534.5 693.5Q543 687 543 671V604Q543 581 521 581H512Q473 581 473 540V482H590V680Q590 688 596 694Q602 700 610 700H697Q705 700 711.5 694Q718 688 718 680V425Q738 457 778 476.5Q818 496 868 496Q916 496 959.5 478Q1003 460 1036 427Q1069 394 1088 347Q1107 300 1107 242ZM718 240Q718 212 727.5 187.5Q737 163 754.5 144.5Q772 126 795.5 115.5Q819 105 847 105Q875 105 898.5 115.5Q922 126 939.5 144.5Q957 163 967 187.5Q977 212 977 240Q977 268 967 293Q957 318 939.5 336.5Q922 355 898.5 365.5Q875 376 847 376Q819 376 795.5 365.5Q772 355 754.5 336.5Q737 318 727.5 293Q718 268 718 240Z" glyph-name="f_f_b" horiz-adv-x="1132" unicode="" /><glyph d="M719 482 814 482Q822 482 828.5 476Q835 470 835 461V395Q835 387 828.5 380.5Q822 374 814 374H719V21Q719 13 713 6.5Q707 0 699 0H611Q603 0 596.5 6.5Q590 13 590 21V374H473V21Q473 13 467 6.5Q461 0 452 0H365Q357 0 350.5 6.5Q344 13 344 21V374H227V21Q227 13 221 6.5Q215 0 207 0H119Q111 0 104.5 6.5Q98 13 98 21V374H33Q24 374 18 380.5Q12 387 12 395V461Q12 470 18 476Q24 482 33 482H98V556Q98 595 109.5 622.5Q121 650 139.5 667Q158 684 180.5 692Q203 700 226 700H267Q281 700 289.5 693.5Q298 687 298 671V604Q298 581 276 581H267Q227 581 227 540V482H344V556Q344 595 355.5 622.5Q367 650 385.5 667Q404 684 426.5 692Q449 700 472 700H513Q526 700 534.5 693.5Q543 687 543 671V604Q543 581 521 581H512Q473 581 473 540V482H590V558Q590 602 605 634Q620 666 644 686.5Q668 707 698.5 717Q729 727 761 727Q794 727 831.5 715.5Q869 704 893 681Q910 667 895 647L859 595Q850 582 839 585Q828 588 820 593Q806 602 794 605.5Q782 609 773 609Q751 609 735 594Q719 579 719 547Z" glyph-name="f_f_f" horiz-adv-x="842" unicode="" /><glyph d="M590 482 590 680Q590 688 596 694Q602 700 610 700H698Q706 700 712.5 694.5Q719 689 719 681V425Q741 455 780.5 475.5Q820 496 877 496Q931 496 970.5 478Q1010 460 1035.5 428.5Q1061 397 1073.5 354.5Q1086 312 1086 264V19Q1086 11 1080 5.5Q1074 0 1066 0H978Q970 0 963.5 5.5Q957 11 957 19V252Q957 309 926.5 343Q896 377 841 377Q785 377 752 342.5Q719 308 719 252V19Q719 11 712.5 5.5Q706 0 698 0H610Q602 0 596 6Q590 12 590 20V374H473V21Q473 13 467 6.5Q461 0 452 0H365Q357 0 350.5 6.5Q344 13 344 21V374H227V21Q227 13 221 6.5Q215 0 207 0H119Q111 0 104.5 6.5Q98 13 98 21V374H33Q24 374 18 380.5Q12 387 12 395V461Q12 470 18 476Q24 482 33 482H98V556Q98 595 109.5 622.5Q121 650 139.5 667Q158 684 180.5 692Q203 700 226 700H267Q281 700 289.5 693.5Q298 687 298 671V604Q298 581 276 581H267Q227 581 227 540V482H344V556Q344 595 355.5 622.5Q367 650 385.5 667Q404 684 426.5 692Q449 700 472 700H513Q526 700 534.5 693.5Q543 687 543 671V604Q543 581 521 581H512Q473 581 473 540V482Z" glyph-name="f_f_h" horiz-adv-x="1129" unicode="" /><glyph d="M473 482 699 482Q707 482 713 476Q719 470 719 461V-52Q719 -100 704 -133.5Q689 -167 665 -188.5Q641 -210 610 -220Q579 -230 548 -230Q513 -230 476 -219Q439 -208 416 -185Q401 -170 414 -151L450 -103Q458 -92 469 -92.5Q480 -93 488 -98Q502 -106 514.5 -109.5Q527 -113 536 -113Q545 -113 554.5 -110Q564 -107 572 -100Q580 -93 585 -80.5Q590 -68 590 -50V374H473V21Q473 13 467 6.5Q461 0 452 0H365Q357 0 350.5 6.5Q344 13 344 21V374H227V21Q227 13 221 6.5Q215 0 207 0H119Q111 0 104.5 6.5Q98 13 98 21V374H33Q24 374 18 380.5Q12 387 12 395V461Q12 470 18 476Q24 482 33 482H98V556Q98 595 110 622.5Q122 650 142 667Q162 684 189 692Q216 700 246 700H267Q281 700 289.5 693.5Q298 687 298 671V604Q298 581 276 581H267Q227 581 227 540V482H344V558Q344 602 359 634Q374 666 398 686.5Q422 707 452.5 717Q483 727 515 727Q549 727 586 715.5Q623 704 648 681Q655 675 656 665.5Q657 656 650 647L613 595Q604 582 593.5 585Q583 588 575 593Q561 602 549 605.5Q537 609 528 609Q506 609 489.5 594Q473 579 473 547Z" glyph-name="f_f_j" horiz-adv-x="767" unicode="" /><glyph d="M227 21Q227 13 221 6.5Q215 0 207 0H119Q111 0 104.5 6.5Q98 13 98 21V374H33Q24 374 18 380.5Q12 387 12 395V461Q12 470 18 476Q24 482 33 482H98V556Q98 595 109.5 622.5Q121 650 139.5 667Q158 684 180.5 692Q203 700 226 700H267Q281 700 289.5 693.5Q298 687 298 671V604Q298 581 276 581H267Q227 581 227 540V482H344V556Q344 595 355.5 622.5Q367 650 385.5 667Q404 684 426.5 692Q449 700 472 700H513Q526 700 534.5 693.5Q543 687 543 671V604Q543 581 521 581H512Q473 581 473 540V482H590V680Q590 688 596.5 694Q603 700 611 700H699Q707 700 713 694Q719 688 719 680V308H756L878 467Q889 482 905 482H1003Q1017 482 1020.5 472Q1024 462 1016 451L867 270L1041 32Q1049 21 1044 10.5Q1039 0 1024 0H923Q904 0 893 17L759 208H719V20Q719 12 713 6Q707 0 699 0H611Q603 0 596.5 6Q590 12 590 20V374H473V21Q473 13 467 6.5Q461 0 452 0H365Q357 0 350.5 6.5Q344 13 344 21V374H227V21Z" glyph-name="f_f_k" horiz-adv-x="1043" unicode="" /><glyph d="M591 679Q591 687 597.5 693.5Q604 700 612 700H700Q708 700 714 693.5Q720 687 720 679V145Q720 128 729 117.5Q738 107 756 107H786Q794 107 799.5 103Q805 99 805 88V25Q805 9 796 4.5Q787 0 779 0H716Q650 0 620.5 32.5Q591 65 591 120V374H474V21Q474 13 468 6.5Q462 0 453 0H365Q357 0 350.5 6.5Q344 13 344 21V374H227V21Q227 13 221 6.5Q215 0 207 0H119Q111 0 104.5 6.5Q98 13 98 21V374H33Q24 374 18 380.5Q12 387 12 395V461Q12 470 18 476Q24 482 33 482H98V556Q98 595 109.5 622.5Q121 650 139.5 667Q158 684 180.5 692Q203 700 226 700H267Q281 700 289.5 693.5Q298 687 298 671V604Q298 581 276 581H267Q227 581 227 540V482H344V556Q344 595 355.5 622.5Q367 650 385.5 667Q404 684 426.5 692Q449 700 472 700H514Q527 700 535.5 693.5Q544 687 544 671V604Q544 581 522 581H513Q474 581 474 540V482H591Z" glyph-name="f_f_l" horiz-adv-x="811" unicode="ﬄ" /><glyph d="M720 171Q720 153 725.5 141Q731 129 739 122Q747 115 756.5 112Q766 109 775 109Q784 109 796 112.5Q808 116 822 124Q833 131 843 130.5Q853 130 860 120L890 71Q902 53 887 38Q864 15 828.5 2.5Q793 -10 752 -10Q722 -10 693 -1.5Q664 7 641.5 25.5Q619 44 605 72.5Q591 101 591 142V374H474V21Q474 13 468 6.5Q462 0 453 0H365Q357 0 350.5 6.5Q344 13 344 21V374H227V21Q227 13 221 6.5Q215 0 207 0H119Q111 0 104.5 6.5Q98 13 98 21V374H33Q24 374 18 380.5Q12 387 12 395V461Q12 470 18 476Q24 482 33 482H98V556Q98 595 109.5 622.5Q121 650 139.5 667Q158 684 180.5 692Q203 700 226 700H267Q281 700 289.5 693.5Q298 687 298 671V604Q298 581 276 581H267Q227 581 227 540V482H344V556Q344 595 355.5 622.5Q367 650 385.5 667Q404 684 426.5 692Q449 700 472 700H514Q527 700 535.5 693.5Q544 687 544 671V604Q544 581 522 581H513Q474 581 474 540V482H591V616Q591 625 597.5 631Q604 637 612 637H700Q708 637 714 631Q720 625 720 616V482H860Q868 482 874.5 476Q881 470 881 461V395Q881 387 874.5 380.5Q868 374 860 374H720V171Z" glyph-name="f_f_t" horiz-adv-x="898" unicode="" /><glyph d="M344 482 344 680Q344 688 350 694Q356 700 365 700H453Q461 700 467.5 694.5Q474 689 474 681V425Q495 455 534.5 475.5Q574 496 631 496Q685 496 725 478Q765 460 790.5 428.5Q816 397 828.5 354.5Q841 312 841 264V19Q841 11 834.5 5.5Q828 0 820 0H733Q725 0 718.5 5.5Q712 11 712 19V252Q712 309 681.5 343Q651 377 595 377Q539 377 506.5 342.5Q474 308 474 252V19Q474 11 467.5 5.5Q461 0 453 0H365Q356 0 350 6Q344 12 344 20V374H227V21Q227 13 221 6.5Q215 0 207 0H119Q111 0 104.5 6.5Q98 13 98 21V374H33Q24 374 18 380.5Q12 387 12 395V461Q12 470 18 476Q24 482 33 482H98V556Q98 595 110 622.5Q122 650 142 667Q162 684 189 692Q216 700 246 700H267Q281 700 289.5 693.5Q298 687 298 671V604Q298 581 276 581H267Q227 581 227 540V482Z" glyph-name="f_h" horiz-adv-x="883" unicode="" /><glyph d="M227 482 453 482Q462 482 468 476Q474 470 474 461V-52Q474 -100 459 -133.5Q444 -167 420 -188.5Q396 -210 365 -220Q334 -230 303 -230Q268 -230 231 -219Q194 -208 171 -185Q156 -170 169 -151L205 -103Q213 -92 224 -92.5Q235 -93 243 -98Q257 -106 269.5 -109.5Q282 -113 291 -113Q300 -113 309.5 -110Q319 -107 327 -100Q335 -93 340 -80.5Q345 -68 345 -50V374H227V21Q227 13 221 6.5Q215 0 207 0H119Q111 0 104.5 6.5Q98 13 98 21V374H33Q24 374 18 380.5Q12 387 12 395V461Q12 470 18 476Q24 482 33 482H98V558Q98 602 113 634Q128 666 152 686.5Q176 707 206.5 717Q237 727 269 727Q302 727 339.5 715.5Q377 704 402 681Q417 667 404 647L367 595Q358 582 347 585Q336 588 328 593Q314 602 302 605.5Q290 609 281 609Q260 609 243.5 594Q227 579 227 547Z" glyph-name="f_j" horiz-adv-x="522" unicode="" /><glyph d="M227 21Q227 13 221 6.5Q215 0 207 0H119Q111 0 104.5 6.5Q98 13 98 21V374H33Q24 374 18 380.5Q12 387 12 395V461Q12 470 18 476Q24 482 33 482H98V556Q98 595 109.5 622.5Q121 650 139.5 667Q158 684 180.5 692Q203 700 226 700H267Q281 700 289.5 693.5Q298 687 298 671V604Q298 581 276 581H267Q227 581 227 540V482H344V680Q344 688 350.5 694Q357 700 365 700H453Q462 700 468 694Q474 688 474 680V308H510L632 467Q643 482 659 482H757Q771 482 774.5 472Q778 462 770 451L621 270L795 32Q803 21 798 10.5Q793 0 778 0H677Q658 0 647 17L513 208H474V20Q474 12 468 6Q462 0 453 0H365Q357 0 350.5 6Q344 12 344 20V374H227V21Z" glyph-name="f_k" horiz-adv-x="797" unicode="" /><glyph d="M352 374 227 374V21Q227 13 221 6.5Q215 0 207 0H119Q111 0 104.5 6.5Q98 13 98 21V374H33Q24 374 18 380.5Q12 387 12 395V461Q12 470 18 476Q24 482 33 482H98V556Q98 595 110 622.5Q122 650 142 667Q162 684 189 692Q216 700 246 700H267Q281 700 289.5 693.5Q298 687 298 671V604Q298 581 276 581H267Q227 581 227 540V482H352V616Q352 625 358.5 631Q365 637 373 637H461Q469 637 475 631Q481 625 481 616V482H621Q630 482 636 476Q642 470 642 461V395Q642 387 636 380.5Q630 374 621 374H481V171Q481 153 486.5 141Q492 129 500 122Q508 115 517.5 112Q527 109 536 109Q545 109 557 112.5Q569 116 583 124Q594 131 604 130.5Q614 130 621 120L651 71Q663 53 648 38Q625 15 589.5 2.5Q554 -10 513 -10Q483 -10 454 -1.5Q425 7 402.5 25.5Q380 44 366 72.5Q352 101 352 142Z" glyph-name="f_t" horiz-adv-x="659" unicode="" /><glyph d="M604 -10Q574 -10 545 -1.5Q516 7 493.5 25.5Q471 44 457 72.5Q443 101 443 142V374H221V171Q221 153 226.5 141Q232 129 240 122Q248 115 257.5 112Q267 109 276 109Q285 109 297 112.5Q309 116 322 124Q333 131 343.5 130.5Q354 130 361 120L391 71Q403 53 388 38Q365 15 329.5 2.5Q294 -10 252 -10Q222 -10 193 -1.5Q164 7 141.5 25.5Q119 44 105.5 72.5Q92 101 92 142V374H26Q18 374 12 380.5Q6 387 6 395V461Q6 470 12 476Q18 482 26 482H92V616Q92 625 98 631Q104 637 113 637H201Q209 637 215 631Q221 625 221 616V482H443V616Q443 625 449.5 631Q456 637 464 637H552Q560 637 566 631Q572 625 572 616V482H713Q721 482 727 476Q733 470 733 461V395Q733 387 727 380.5Q721 374 713 374H572V171Q572 153 577.5 141Q583 129 591 122Q599 115 608.5 112Q618 109 627 109Q636 109 648 112.5Q660 116 674 124Q685 131 695 130.5Q705 130 712 120L742 71Q755 52 739 38Q716 15 680.5 2.5Q645 -10 604 -10Z" glyph-name="t_t" horiz-adv-x="750" unicode="" /><glyph d="M470 170 183 170L127 19Q120 0 105 0H6Q-5 0 -10.5 8.5Q-16 17 -11 31L241 679Q246 690 253.5 695Q261 700 269 700H393Q401 700 408.5 695Q416 690 421 679L674 32Q680 17 673.5 8.5Q667 0 655 0H550Q541 0 536.5 5Q532 10 528 19ZM226 283 427 283L325 549ZM464 949Q478 949 483 939Q488 929 482 919L394 768Q384 752 369 752H311Q281 752 287 781L329 931Q334 949 355 949H464Z" glyph-name="Aacute" horiz-adv-x="672" unicode="Á" /><glyph d="M470 170 183 170L127 19Q120 0 105 0H6Q-5 0 -10.5 8.5Q-16 17 -11 31L241 679Q246 690 253.5 695Q261 700 269 700H393Q401 700 408.5 695Q416 690 421 679L674 32Q680 17 673.5 8.5Q667 0 655 0H550Q541 0 536.5 5Q532 10 528 19ZM226 283 427 283L325 549ZM389 949Q407 949 418 929L510 781Q518 769 511.5 760.5Q505 752 497 752H423Q412 752 406.5 756Q401 760 395 768L335 849L276 768Q269 760 263.5 756Q258 752 247 752H174Q165 752 158.5 760.5Q152 769 160 781L252 929Q263 949 282 949Z" glyph-name="Acircumflex" horiz-adv-x="672" unicode="Â" /><glyph d="M470 170 183 170L127 19Q120 0 105 0H6Q-5 0 -10.5 8.5Q-16 17 -11 31L241 679Q246 690 253.5 695Q261 700 269 700H393Q401 700 408.5 695Q416 690 421 679L674 32Q680 17 673.5 8.5Q667 0 655 0H550Q541 0 536.5 5Q532 10 528 19ZM226 283 427 283L325 549ZM235 748Q203 748 181 769.5Q159 791 159 823Q159 855 181 876.5Q203 898 235 898Q267 898 289 876.5Q311 855 311 823Q311 791 289 769.5Q267 748 235 748ZM434 748Q402 748 380 769.5Q358 791 358 823Q358 855 380 876.5Q402 898 434 898Q466 898 488 876.5Q510 855 510 823Q510 791 488 769.5Q466 748 434 748Z" glyph-name="Adieresis" horiz-adv-x="672" unicode="Ä" /><glyph d="M470 170 183 170L127 19Q120 0 105 0H6Q-5 0 -10.5 8.5Q-16 17 -11 31L241 679Q246 690 253.5 695Q261 700 269 700H393Q401 700 408.5 695Q416 690 421 679L674 32Q680 17 673.5 8.5Q667 0 655 0H550Q541 0 536.5 5Q532 10 528 19ZM226 283 427 283L325 549ZM317 949Q337 949 342 931L385 781Q391 752 361 752H303Q294 752 288.5 756Q283 760 278 768L190 919Q184 929 189 939Q194 949 208 949Z" glyph-name="Agrave" horiz-adv-x="672" unicode="À" /><glyph d="M470 170 183 170L127 19Q120 0 105 0H6Q-5 0 -10.5 8.5Q-16 17 -11 31L241 679Q246 690 253.5 695Q261 700 269 700H393Q401 700 408.5 695Q416 690 421 679L674 32Q680 17 673.5 8.5Q667 0 655 0H550Q541 0 536.5 5Q532 10 528 19ZM226 283 427 283L325 549ZM335 1024Q366 1024 393 1013.5Q420 1003 439.5 984Q459 965 470 939.5Q481 914 481 884Q481 854 470 829Q459 804 439.5 785Q420 766 393 755.5Q366 745 335 745Q304 745 277 755.5Q250 766 230.5 785Q211 804 200 829Q189 854 189 884Q189 914 200 939.5Q211 965 230.5 984Q250 1003 277 1013.5Q304 1024 335 1024ZM335 822Q362 822 378.5 840Q395 858 395 884Q395 910 378.5 928.5Q362 947 335 947Q308 947 291.5 928.5Q275 910 275 884Q275 858 291.5 840Q308 822 335 822Z" glyph-name="Aring" horiz-adv-x="672" unicode="Å" /><glyph d="M470 170 183 170L127 19Q120 0 105 0H6Q-5 0 -10.5 8.5Q-16 17 -11 31L241 679Q246 690 253.5 695Q261 700 269 700H393Q401 700 408.5 695Q416 690 421 679L674 32Q680 17 673.5 8.5Q667 0 655 0H550Q541 0 536.5 5Q532 10 528 19ZM226 283 427 283L325 549ZM417 765Q399 765 377 770Q355 775 333.5 781Q312 787 293.5 792Q275 797 264 797Q250 797 240.5 792Q231 787 223.5 781Q216 775 210 770Q204 765 197 765Q187 765 179 776L153 814Q145 825 145 839Q145 850 152.5 863.5Q160 877 173.5 888.5Q187 900 206.5 907.5Q226 915 250 915Q267 915 288.5 910Q310 905 331.5 899Q353 893 372 888Q391 883 403 883Q417 883 426.5 888Q436 893 443.5 899Q451 905 457 910Q463 915 470 915Q477 915 481 911.5Q485 908 489 903L514 866Q522 853 522 841Q522 830 514.5 816.5Q507 803 493.5 791.5Q480 780 460.5 772.5Q441 765 417 765Z" glyph-name="Atilde" horiz-adv-x="672" unicode="Ã" /><glyph d="M470 170 183 170L127 19Q120 0 105 0H6Q-5 0 -10.5 8.5Q-16 17 -11 31L241 679Q246 690 253.5 695Q261 700 269 700H393Q401 700 408.5 695Q416 690 421 679L674 32Q680 17 673.5 8.5Q667 0 655 0H550Q541 0 536.5 5Q532 10 528 19ZM226 283 427 283L325 549ZM335 747Q254 747 211.5 788Q169 829 169 897V917Q169 924 173.5 928.5Q178 933 184 933H262Q268 933 272.5 928.5Q277 924 277 917V906Q277 879 293.5 864.5Q310 850 335 850Q360 850 377 864.5Q394 879 394 906V917Q394 924 398.5 928.5Q403 933 409 933H486Q502 933 502 917V897Q502 829 459 788Q416 747 335 747Z" glyph-name="Abreve" horiz-adv-x="672" unicode="Ă" /><glyph d="M470 170 183 170L127 19Q120 0 105 0H6Q-5 0 -10.5 8.5Q-16 17 -11 31L241 679Q246 690 253.5 695Q261 700 269 700H393Q401 700 408.5 695Q416 690 421 679L674 32Q680 17 673.5 8.5Q667 0 655 0H550Q541 0 536.5 5Q532 10 528 19ZM226 283 427 283L325 549ZM186 770Q177 770 171 776.5Q165 783 165 792V857Q165 866 171 872Q177 878 186 878H483Q492 878 498.5 872Q505 866 505 857V792Q505 783 498.5 776.5Q492 770 483 770Z" glyph-name="Amacron" horiz-adv-x="672" unicode="Ā" /><glyph d="M470 170 183 170L127 19Q120 0 105 0H6Q-5 0 -10.5 8.5Q-16 17 -11 31L241 679Q246 690 253.5 695Q261 700 269 700H393Q401 700 408.5 695Q416 690 421 679L674 32Q680 17 673.5 8.5Q667 0 655 0H550Q541 0 536.5 5Q532 10 528 19ZM226 283 427 283L325 549ZM469 -142Q469 -110 485 -82.5Q501 -55 523 -34Q545 -13 568 2Q591 17 605 23L640 19L646 7Q620 -29 603.5 -59.5Q587 -90 587 -108Q587 -123 596 -134.5Q605 -146 631 -146Q641 -146 648.5 -145Q656 -144 663 -143Q671 -142 676 -147Q681 -152 679 -166L675 -202Q673 -221 647 -228Q621 -235 589 -235Q535 -235 502 -211Q469 -187 469 -142Z" glyph-name="Aogonek" horiz-adv-x="672" unicode="Ą" /><glyph d="M395 -14Q318 -14 250.5 14Q183 42 133.5 91Q84 140 55.5 206.5Q27 273 27 350Q27 427 55.5 493.5Q84 560 133.5 609Q183 658 250.5 686Q318 714 395 714Q452 714 505 699.5Q558 685 602 657Q646 629 679 588.5Q712 548 729 497Q731 490 730 484Q729 478 718 475L618 450Q607 448 602.5 453.5Q598 459 596 464Q569 519 519 554.5Q469 590 396 590Q346 590 304 571.5Q262 553 231.5 520.5Q201 488 184 444.5Q167 401 167 350Q167 299 184 255.5Q201 212 231.5 179.5Q262 147 304 128.5Q346 110 396 110Q469 110 519 145.5Q569 181 596 236Q598 241 602.5 246.5Q607 252 618 250L718 225Q729 222 730 216Q731 210 729 203Q712 152 679 111.5Q646 71 602 43Q558 15 505 0.5Q452 -14 395 -14ZM460 13 394 -157Q389 -171 372 -171H278Q270 -171 265 -165Q260 -159 264 -148L327 22Z" glyph-name="Ccedilla" horiz-adv-x="742" unicode="Ç" /><glyph d="M395 -14Q318 -14 250.5 14Q183 42 133.5 91Q84 140 55.5 206.5Q27 273 27 350Q27 427 55.5 493.5Q84 560 133.5 609Q183 658 250.5 686Q318 714 395 714Q452 714 505 699.5Q558 685 602 657Q646 629 679 588.5Q712 548 729 497Q731 490 730 484Q729 478 718 475L618 450Q607 448 602.5 453.5Q598 459 596 464Q569 519 519 554.5Q469 590 396 590Q346 590 304 571.5Q262 553 231.5 520.5Q201 488 184 444.5Q167 401 167 350Q167 299 184 255.5Q201 212 231.5 179.5Q262 147 304 128.5Q346 110 396 110Q469 110 519 145.5Q569 181 596 236Q598 241 602.5 246.5Q607 252 618 250L718 225Q729 222 730 216Q731 210 729 203Q712 152 679 111.5Q646 71 602 43Q558 15 505 0.5Q452 -14 395 -14ZM520 949Q534 949 539 939Q544 929 538 919L450 768Q440 752 425 752H367Q337 752 343 781L385 931Q390 949 411 949H520Z" glyph-name="Cacute" horiz-adv-x="742" unicode="Ć" /><glyph d="M395 -14Q318 -14 250.5 14Q183 42 133.5 91Q84 140 55.5 206.5Q27 273 27 350Q27 427 55.5 493.5Q84 560 133.5 609Q183 658 250.5 686Q318 714 395 714Q452 714 505 699.5Q558 685 602 657Q646 629 679 588.5Q712 548 729 497Q731 490 730 484Q729 478 718 475L618 450Q607 448 602.5 453.5Q598 459 596 464Q569 519 519 554.5Q469 590 396 590Q346 590 304 571.5Q262 553 231.5 520.5Q201 488 184 444.5Q167 401 167 350Q167 299 184 255.5Q201 212 231.5 179.5Q262 147 304 128.5Q346 110 396 110Q469 110 519 145.5Q569 181 596 236Q598 241 602.5 246.5Q607 252 618 250L718 225Q729 222 730 216Q731 210 729 203Q712 152 679 111.5Q646 71 602 43Q558 15 505 0.5Q452 -14 395 -14ZM338 752Q319 752 308 772L216 920Q208 933 214.5 941Q221 949 230 949H303Q314 949 319.5 945Q325 941 332 933L391 852L451 933Q457 941 462.5 945Q468 949 479 949H553Q561 949 567.5 941Q574 933 566 920L474 772Q463 752 445 752H338Z" glyph-name="Ccaron" horiz-adv-x="742" unicode="Č" /><glyph d="M395 -14Q318 -14 250.5 14Q183 42 133.5 91Q84 140 55.5 206.5Q27 273 27 350Q27 427 55.5 493.5Q84 560 133.5 609Q183 658 250.5 686Q318 714 395 714Q452 714 505 699.5Q558 685 602 657Q646 629 679 588.5Q712 548 729 497Q731 490 730 484Q729 478 718 475L618 450Q607 448 602.5 453.5Q598 459 596 464Q569 519 519 554.5Q469 590 396 590Q346 590 304 571.5Q262 553 231.5 520.5Q201 488 184 444.5Q167 401 167 350Q167 299 184 255.5Q201 212 231.5 179.5Q262 147 304 128.5Q346 110 396 110Q469 110 519 145.5Q569 181 596 236Q598 241 602.5 246.5Q607 252 618 250L718 225Q729 222 730 216Q731 210 729 203Q712 152 679 111.5Q646 71 602 43Q558 15 505 0.5Q452 -14 395 -14ZM445 949Q463 949 474 929L566 781Q574 769 567.5 760.5Q561 752 553 752H479Q468 752 462.5 756Q457 760 451 768L391 849L332 768Q325 760 319.5 756Q314 752 303 752H230Q221 752 214.5 760.5Q208 769 216 781L308 929Q319 949 338 949Z" glyph-name="Ccircumflex" horiz-adv-x="742" unicode="Ĉ" /><glyph d="M395 -14Q318 -14 250.5 14Q183 42 133.5 91Q84 140 55.5 206.5Q27 273 27 350Q27 427 55.5 493.5Q84 560 133.5 609Q183 658 250.5 686Q318 714 395 714Q452 714 505 699.5Q558 685 602 657Q646 629 679 588.5Q712 548 729 497Q731 490 730 484Q729 478 718 475L618 450Q607 448 602.5 453.5Q598 459 596 464Q569 519 519 554.5Q469 590 396 590Q346 590 304 571.5Q262 553 231.5 520.5Q201 488 184 444.5Q167 401 167 350Q167 299 184 255.5Q201 212 231.5 179.5Q262 147 304 128.5Q346 110 396 110Q469 110 519 145.5Q569 181 596 236Q598 241 602.5 246.5Q607 252 618 250L718 225Q729 222 730 216Q731 210 729 203Q712 152 679 111.5Q646 71 602 43Q558 15 505 0.5Q452 -14 395 -14ZM391 751Q359 751 337 772.5Q315 794 315 826Q315 858 337 879.5Q359 901 391 901Q423 901 445 879.5Q467 858 467 826Q467 794 445 772.5Q423 751 391 751Z" glyph-name="Cdotaccent" horiz-adv-x="742" unicode="Ċ" /><glyph d="M318 752Q299 752 288 772L196 920Q188 933 194.5 941Q201 949 210 949H283Q294 949 299.5 945Q305 941 312 933L371 852L431 933Q437 941 442.5 945Q448 949 459 949H533Q541 949 547.5 941Q554 933 546 920L454 772Q443 752 425 752H318ZM347 700Q430 700 496.5 675Q563 650 610 604Q657 558 682.5 493.5Q708 429 708 351Q708 273 682.5 208.5Q657 144 610 97.5Q563 51 496.5 25.5Q430 0 347 0H85Q76 0 70 6.5Q64 13 64 22V679Q64 687 70 693.5Q76 700 85 700ZM349 123Q398 123 438 140Q478 157 507 187Q536 217 552 259Q568 301 568 351Q568 401 552 442.5Q536 484 507 514Q478 544 438 560.5Q398 577 349 577H198V123Z" glyph-name="Dcaron" horiz-adv-x="737" unicode="Ď" /><glyph d="M103 0Q94 0 88 6.5Q82 13 82 22V299H21Q12 299 5.5 305.5Q-1 312 -1 321V383Q-1 392 5.5 398.5Q12 405 21 405H82V679Q82 687 88 693.5Q94 700 103 700H365Q448 700 514.5 675Q581 650 628 604Q675 558 700.5 493.5Q726 429 726 351Q726 273 700.5 208.5Q675 144 628 97.5Q581 51 514.5 25.5Q448 0 365 0ZM367 123Q416 123 456 140Q496 157 525 187Q554 217 570 259Q586 301 586 351Q586 401 570 442.5Q554 484 525 514Q496 544 456 560.5Q416 577 367 577H216V405H381Q390 405 396 398.5Q402 392 402 383V321Q402 312 396 305.5Q390 299 381 299H216V123Z" glyph-name="Dcroat" horiz-adv-x="755" unicode="Đ" /><glyph d="M460 949Q474 949 479 939Q484 929 478 919L390 768Q380 752 365 752H307Q277 752 283 781L325 931Q330 949 351 949H460ZM578 700Q587 700 593 693.5Q599 687 599 678V598Q599 589 593 583Q587 577 578 577H198V412H396Q405 412 411 405.5Q417 399 417 390V314Q417 305 411 298.5Q405 292 396 292H198V123H584Q593 123 599.5 117Q606 111 606 102V22Q606 13 599.5 6.5Q593 0 584 0H85Q76 0 70 6.5Q64 13 64 22V679Q64 687 70 693.5Q76 700 85 700Z" glyph-name="Eacute" horiz-adv-x="628" unicode="É" /><glyph d="M385 949Q403 949 414 929L506 781Q514 769 507.5 760.5Q501 752 493 752H419Q408 752 402.5 756Q397 760 391 768L331 849L272 768Q265 760 259.5 756Q254 752 243 752H170Q161 752 154.5 760.5Q148 769 156 781L248 929Q259 949 278 949ZM578 700Q587 700 593 693.5Q599 687 599 678V598Q599 589 593 583Q587 577 578 577H198V412H396Q405 412 411 405.5Q417 399 417 390V314Q417 305 411 298.5Q405 292 396 292H198V123H584Q593 123 599.5 117Q606 111 606 102V22Q606 13 599.5 6.5Q593 0 584 0H85Q76 0 70 6.5Q64 13 64 22V679Q64 687 70 693.5Q76 700 85 700Z" glyph-name="Ecircumflex" horiz-adv-x="628" unicode="Ê" /><glyph d="M231 748Q199 748 177 769.5Q155 791 155 823Q155 855 177 876.5Q199 898 231 898Q263 898 285 876.5Q307 855 307 823Q307 791 285 769.5Q263 748 231 748ZM430 748Q398 748 376 769.5Q354 791 354 823Q354 855 376 876.5Q398 898 430 898Q462 898 484 876.5Q506 855 506 823Q506 791 484 769.5Q462 748 430 748ZM578 700Q587 700 593 693.5Q599 687 599 678V598Q599 589 593 583Q587 577 578 577H198V412H396Q405 412 411 405.5Q417 399 417 390V314Q417 305 411 298.5Q405 292 396 292H198V123H584Q593 123 599.5 117Q606 111 606 102V22Q606 13 599.5 6.5Q593 0 584 0H85Q76 0 70 6.5Q64 13 64 22V679Q64 687 70 693.5Q76 700 85 700Z" glyph-name="Edieresis" horiz-adv-x="628" unicode="Ë" /><glyph d="M578 700Q587 700 593 693.5Q599 687 599 678V598Q599 589 593 583Q587 577 578 577H198V412H396Q405 412 411 405.5Q417 399 417 390V314Q417 305 411 298.5Q405 292 396 292H198V123H584Q593 123 599.5 117Q606 111 606 102V22Q606 13 599.5 6.5Q593 0 584 0H85Q76 0 70 6.5Q64 13 64 22V679Q64 687 70 693.5Q76 700 85 700ZM313 949Q333 949 338 931L381 781Q387 752 357 752H299Q290 752 284.5 756Q279 760 274 768L186 919Q180 929 185 939Q190 949 204 949Z" glyph-name="Egrave" horiz-adv-x="628" unicode="È" /><glyph d="M578 700Q587 700 593 693.5Q599 687 599 678V598Q599 589 593 583Q587 577 578 577H198V412H396Q405 412 411 405.5Q417 399 417 390V314Q417 305 411 298.5Q405 292 396 292H198V123H584Q593 123 599.5 117Q606 111 606 102V22Q606 13 599.5 6.5Q593 0 584 0H85Q76 0 70 6.5Q64 13 64 22V679Q64 687 70 693.5Q76 700 85 700ZM331 747Q250 747 207.5 788Q165 829 165 897V917Q165 924 169.5 928.5Q174 933 180 933H258Q264 933 268.5 928.5Q273 924 273 917V906Q273 879 289.5 864.5Q306 850 331 850Q356 850 373 864.5Q390 879 390 906V917Q390 924 394.5 928.5Q399 933 405 933H482Q498 933 498 917V897Q498 829 455 788Q412 747 331 747Z" glyph-name="Ebreve" horiz-adv-x="628" unicode="Ĕ" /><glyph d="M278 752Q259 752 248 772L156 920Q148 933 154.5 941Q161 949 170 949H243Q254 949 259.5 945Q265 941 272 933L331 852L391 933Q397 941 402.5 945Q408 949 419 949H493Q501 949 507.5 941Q514 933 506 920L414 772Q403 752 385 752H278ZM578 700Q587 700 593 693.5Q599 687 599 678V598Q599 589 593 583Q587 577 578 577H198V412H396Q405 412 411 405.5Q417 399 417 390V314Q417 305 411 298.5Q405 292 396 292H198V123H584Q593 123 599.5 117Q606 111 606 102V22Q606 13 599.5 6.5Q593 0 584 0H85Q76 0 70 6.5Q64 13 64 22V679Q64 687 70 693.5Q76 700 85 700Z" glyph-name="Ecaron" horiz-adv-x="628" unicode="Ě" /><glyph d="M578 700Q587 700 593 693.5Q599 687 599 678V598Q599 589 593 583Q587 577 578 577H198V412H396Q405 412 411 405.5Q417 399 417 390V314Q417 305 411 298.5Q405 292 396 292H198V123H584Q593 123 599.5 117Q606 111 606 102V22Q606 13 599.5 6.5Q593 0 584 0H85Q76 0 70 6.5Q64 13 64 22V679Q64 687 70 693.5Q76 700 85 700ZM331 751Q299 751 277 772.5Q255 794 255 826Q255 858 277 879.5Q299 901 331 901Q363 901 385 879.5Q407 858 407 826Q407 794 385 772.5Q363 751 331 751Z" glyph-name="Edotaccent" horiz-adv-x="628" unicode="Ė" /><glyph d="M578 700Q587 700 593 693.5Q599 687 599 678V598Q599 589 593 583Q587 577 578 577H198V412H396Q405 412 411 405.5Q417 399 417 390V314Q417 305 411 298.5Q405 292 396 292H198V123H584Q593 123 599.5 117Q606 111 606 102V22Q606 13 599.5 6.5Q593 0 584 0H85Q76 0 70 6.5Q64 13 64 22V679Q64 687 70 693.5Q76 700 85 700ZM182 770Q173 770 167 776.5Q161 783 161 792V857Q161 866 167 872Q173 878 182 878H479Q488 878 494.5 872Q501 866 501 857V792Q501 783 494.5 776.5Q488 770 479 770Z" glyph-name="Emacron" horiz-adv-x="628" unicode="Ē" /><glyph d="M556 -202Q554 -221 528 -228Q502 -235 470 -235Q416 -235 383 -211Q350 -187 350 -142Q350 -119 359 -98Q368 -77 382 -59Q396 -41 413 -26Q430 -11 446 0H85Q76 0 70 6.5Q64 13 64 22V679Q64 687 70 693.5Q76 700 85 700H578Q587 700 593 693.5Q599 687 599 678V598Q599 589 593 583Q587 577 578 577H198V412H396Q405 412 411 405.5Q417 399 417 390V314Q417 305 411 298.5Q405 292 396 292H198V123H584Q593 123 599.5 117Q606 111 606 102V22Q606 13 599.5 6.5Q593 0 584 0H522Q498 -34 483 -62.5Q468 -91 468 -108Q468 -123 477 -134.5Q486 -146 512 -146Q522 -146 529.5 -145Q537 -144 544 -143Q552 -142 557 -147Q562 -152 560 -166L556 -202Z" glyph-name="Eogonek" horiz-adv-x="628" unicode="Ę" /><glyph d="M399 714Q457 714 511 699Q565 684 610 656Q655 628 689 588Q723 548 742 497Q744 492 743 485Q742 478 731 475L632 450Q621 448 616.5 453.5Q612 459 610 464Q581 521 528.5 555.5Q476 590 399 590Q349 590 306.5 571Q264 552 233 519.5Q202 487 184.5 443Q167 399 167 348Q167 296 184.5 252Q202 208 233 176Q264 144 307 126Q350 108 401 108Q473 108 527.5 145.5Q582 183 608 242H416Q407 242 400.5 248.5Q394 255 394 263V329Q394 338 400.5 344Q407 350 416 350H717Q726 350 732.5 344Q739 338 739 329V22Q739 13 732.5 6.5Q726 0 717 0H638Q629 0 622.5 6.5Q616 13 616 22V94Q582 47 525.5 16.5Q469 -14 383 -14Q306 -14 241 14Q176 42 128.5 91Q81 140 54 206.5Q27 273 27 350Q27 427 55.5 493.5Q84 560 134.5 609Q185 658 253 686Q321 714 399 714ZM392 747Q311 747 268.5 788Q226 829 226 897V917Q226 924 230.5 928.5Q235 933 241 933H319Q325 933 329.5 928.5Q334 924 334 917V906Q334 879 350.5 864.5Q367 850 392 850Q417 850 434 864.5Q451 879 451 906V917Q451 924 455.5 928.5Q460 933 466 933H543Q559 933 559 917V897Q559 829 516 788Q473 747 392 747Z" glyph-name="Gbreve" horiz-adv-x="781" unicode="Ğ" /><glyph d="M446 949Q464 949 475 929L567 781Q575 769 568.5 760.5Q562 752 554 752H480Q469 752 463.5 756Q458 760 452 768L392 849L333 768Q326 760 320.5 756Q315 752 304 752H231Q222 752 215.5 760.5Q209 769 217 781L309 929Q320 949 339 949ZM399 714Q457 714 511 699Q565 684 610 656Q655 628 689 588Q723 548 742 497Q744 492 743 485Q742 478 731 475L632 450Q621 448 616.5 453.5Q612 459 610 464Q581 521 528.5 555.5Q476 590 399 590Q349 590 306.5 571Q264 552 233 519.5Q202 487 184.5 443Q167 399 167 348Q167 296 184.5 252Q202 208 233 176Q264 144 307 126Q350 108 401 108Q473 108 527.5 145.5Q582 183 608 242H416Q407 242 400.5 248.5Q394 255 394 263V329Q394 338 400.5 344Q407 350 416 350H717Q726 350 732.5 344Q739 338 739 329V22Q739 13 732.5 6.5Q726 0 717 0H638Q629 0 622.5 6.5Q616 13 616 22V94Q582 47 525.5 16.5Q469 -14 383 -14Q306 -14 241 14Q176 42 128.5 91Q81 140 54 206.5Q27 273 27 350Q27 427 55.5 493.5Q84 560 134.5 609Q185 658 253 686Q321 714 399 714Z" glyph-name="Gcircumflex" horiz-adv-x="781" unicode="Ĝ" /><glyph d="M324 -59Q326 -51 330.5 -47Q335 -43 345 -43H437Q448 -43 451.5 -50.5Q455 -58 452 -66L398 -199Q395 -207 390.5 -211Q386 -215 376 -215H301Q290 -215 286.5 -208Q283 -201 285 -192ZM399 714Q457 714 511 699Q565 684 610 656Q655 628 689 588Q723 548 742 497Q744 492 743 485Q742 478 731 475L632 450Q621 448 616.5 453.5Q612 459 610 464Q581 521 528.5 555.5Q476 590 399 590Q349 590 306.5 571Q264 552 233 519.5Q202 487 184.5 443Q167 399 167 348Q167 296 184.5 252Q202 208 233 176Q264 144 307 126Q350 108 401 108Q473 108 527.5 145.5Q582 183 608 242H416Q407 242 400.5 248.5Q394 255 394 263V329Q394 338 400.5 344Q407 350 416 350H717Q726 350 732.5 344Q739 338 739 329V22Q739 13 732.5 6.5Q726 0 717 0H638Q629 0 622.5 6.5Q616 13 616 22V94Q582 47 525.5 16.5Q469 -14 383 -14Q306 -14 241 14Q176 42 128.5 91Q81 140 54 206.5Q27 273 27 350Q27 427 55.5 493.5Q84 560 134.5 609Q185 658 253 686Q321 714 399 714Z" glyph-name="Gcommaaccent" horiz-adv-x="781" unicode="Ģ" /><glyph d="M399 714Q457 714 511 699Q565 684 610 656Q655 628 689 588Q723 548 742 497Q744 492 743 485Q742 478 731 475L632 450Q621 448 616.5 453.5Q612 459 610 464Q581 521 528.5 555.5Q476 590 399 590Q349 590 306.5 571Q264 552 233 519.5Q202 487 184.5 443Q167 399 167 348Q167 296 184.5 252Q202 208 233 176Q264 144 307 126Q350 108 401 108Q473 108 527.5 145.5Q582 183 608 242H416Q407 242 400.5 248.5Q394 255 394 263V329Q394 338 400.5 344Q407 350 416 350H717Q726 350 732.5 344Q739 338 739 329V22Q739 13 732.5 6.5Q726 0 717 0H638Q629 0 622.5 6.5Q616 13 616 22V94Q582 47 525.5 16.5Q469 -14 383 -14Q306 -14 241 14Q176 42 128.5 91Q81 140 54 206.5Q27 273 27 350Q27 427 55.5 493.5Q84 560 134.5 609Q185 658 253 686Q321 714 399 714ZM393 751Q361 751 339 772.5Q317 794 317 826Q317 858 339 879.5Q361 901 393 901Q425 901 447 879.5Q469 858 469 826Q469 794 447 772.5Q425 751 393 751Z" glyph-name="Gdotaccent" horiz-adv-x="781" unicode="Ġ" /><glyph d="M549 412 549 505H201V412ZM201 22Q201 13 195 6.5Q189 0 180 0H88Q79 0 73 6.5Q67 13 67 22V505H33Q24 505 18 511.5Q12 518 12 527V579Q12 588 18 594.5Q24 601 33 601H67V679Q67 687 73 693.5Q79 700 88 700H180Q189 700 195 693.5Q201 687 201 679V601H549V679Q549 687 555 693.5Q561 700 570 700H662Q671 700 677 693.5Q683 687 683 679V601H717Q726 601 732.5 594.5Q739 588 739 579V527Q739 518 732.5 511.5Q726 505 717 505H683V22Q683 13 677 6.5Q671 0 662 0H570Q561 0 555 6.5Q549 13 549 22V292H201Z" glyph-name="Hbar" horiz-adv-x="750" unicode="Ħ" /><glyph d="M426 949Q444 949 455 929L547 781Q555 769 548.5 760.5Q542 752 534 752H460Q449 752 443.5 756Q438 760 432 768L372 849L313 768Q306 760 300.5 756Q295 752 284 752H211Q202 752 195.5 760.5Q189 769 197 781L289 929Q300 949 319 949ZM680 22Q680 13 674 6.5Q668 0 659 0H567Q558 0 552 6.5Q546 13 546 22V292H198V22Q198 13 192 6.5Q186 0 177 0H85Q76 0 70 6.5Q64 13 64 22V679Q64 687 70 693.5Q76 700 85 700H177Q186 700 192 693.5Q198 687 198 679V412H546V679Q546 687 552 693.5Q558 700 567 700H659Q668 700 674 693.5Q680 687 680 679Z" glyph-name="Hcircumflex" horiz-adv-x="744" unicode="Ĥ" /><glyph d="M85 0Q76 0 70 6.5Q64 13 64 22V679Q64 687 70 693.5Q76 700 85 700H177Q186 700 192 693.5Q198 687 198 679V22Q198 13 192 6.5Q186 0 177 0ZM260 949Q274 949 279 939Q284 929 278 919L190 768Q180 752 165 752H107Q77 752 83 781L125 931Q130 949 151 949H260Z" glyph-name="Iacute" horiz-adv-x="262" unicode="Í" /><glyph d="M84 0Q75 0 69 6.5Q63 13 63 22V679Q63 687 69 693.5Q75 700 84 700H176Q185 700 191 693.5Q197 687 197 679V22Q197 13 191 6.5Q185 0 176 0ZM183 949Q201 949 212 929L304 781Q312 769 305.5 760.5Q299 752 291 752H217Q206 752 200.5 756Q195 760 189 768L129 849L70 768Q63 760 57.5 756Q52 752 41 752H-32Q-41 752 -47.5 760.5Q-54 769 -46 781L46 929Q57 949 76 949Z" glyph-name="Icircumflex" horiz-adv-x="262" unicode="Î" /><glyph d="M85 0Q76 0 70 6.5Q64 13 64 22V679Q64 687 70 693.5Q76 700 85 700H177Q186 700 192 693.5Q198 687 198 679V22Q198 13 192 6.5Q186 0 177 0ZM31 748Q-1 748 -23 769.5Q-45 791 -45 823Q-45 855 -23 876.5Q-1 898 31 898Q63 898 85 876.5Q107 855 107 823Q107 791 85 769.5Q63 748 31 748ZM230 748Q198 748 176 769.5Q154 791 154 823Q154 855 176 876.5Q198 898 230 898Q262 898 284 876.5Q306 855 306 823Q306 791 284 769.5Q262 748 230 748Z" glyph-name="Idieresis" horiz-adv-x="262" unicode="Ï" /><glyph d="M85 0Q76 0 70 6.5Q64 13 64 22V679Q64 687 70 693.5Q76 700 85 700H177Q186 700 192 693.5Q198 687 198 679V22Q198 13 192 6.5Q186 0 177 0ZM113 949Q133 949 138 931L181 781Q187 752 157 752H99Q90 752 84.5 756Q79 760 74 768L-14 919Q-20 929 -15 939Q-10 949 4 949Z" glyph-name="Igrave" horiz-adv-x="262" unicode="Ì" /><glyph d="M85 0Q76 0 70 6.5Q64 13 64 22V679Q64 687 70 693.5Q76 700 85 700H177Q186 700 192 693.5Q198 687 198 679V22Q198 13 192 6.5Q186 0 177 0ZM130 747Q49 747 6.5 788Q-36 829 -36 897V917Q-36 924 -31.5 928.5Q-27 933 -21 933H57Q63 933 67.5 928.5Q72 924 72 917V906Q72 879 88.5 864.5Q105 850 130 850Q155 850 172 864.5Q189 879 189 906V917Q189 924 193.5 928.5Q198 933 204 933H281Q297 933 297 917V897Q297 829 254 788Q211 747 130 747Z" glyph-name="Ibreve" horiz-adv-x="262" unicode="Ĭ" /><glyph d="M85 0Q76 0 70 6.5Q64 13 64 22V679Q64 687 70 693.5Q76 700 85 700H177Q186 700 192 693.5Q198 687 198 679V22Q198 13 192 6.5Q186 0 177 0ZM131 751Q99 751 77 772.5Q55 794 55 826Q55 858 77 879.5Q99 901 131 901Q163 901 185 879.5Q207 858 207 826Q207 794 185 772.5Q163 751 131 751Z" glyph-name="Idotaccent" horiz-adv-x="262" unicode="İ" /><glyph d="M85 0Q76 0 70 6.5Q64 13 64 22V679Q64 687 70 693.5Q76 700 85 700H177Q186 700 192 693.5Q198 687 198 679V22Q198 13 192 6.5Q186 0 177 0ZM-18 770Q-27 770 -33 776.5Q-39 783 -39 792V857Q-39 866 -33 872Q-27 878 -18 878H279Q288 878 294.5 872Q301 866 301 857V792Q301 783 294.5 776.5Q288 770 279 770Z" glyph-name="Imacron" horiz-adv-x="262" unicode="Ī" /><glyph d="M85 0Q76 0 70 6.5Q64 13 64 22V679Q64 687 70 693.5Q76 700 85 700H177Q186 700 192 693.5Q198 687 198 679V22Q198 13 192 6.5Q186 0 177 0ZM6 -142Q6 -110 22 -82.5Q38 -55 60 -34Q82 -13 105 2Q128 17 142 23L177 19L183 7Q157 -29 140.5 -59.5Q124 -90 124 -108Q124 -123 133 -134.5Q142 -146 168 -146Q178 -146 185.5 -145Q193 -144 200 -143Q208 -142 213 -147Q218 -152 216 -166L212 -202Q210 -221 184 -228Q158 -235 126 -235Q72 -235 39 -211Q6 -187 6 -142Z" glyph-name="Iogonek" horiz-adv-x="262" unicode="Į" /><glyph d="M85 0Q76 0 70 6.5Q64 13 64 22V679Q64 687 70 693.5Q76 700 85 700H177Q186 700 192 693.5Q198 687 198 679V22Q198 13 192 6.5Q186 0 177 0ZM213 765Q195 765 173 770Q151 775 129.5 781Q108 787 89.5 792Q71 797 60 797Q46 797 36.5 792Q27 787 19.5 781Q12 775 6 770Q0 765 -7 765Q-17 765 -25 776L-51 814Q-59 825 -59 839Q-59 850 -51.5 863.5Q-44 877 -30.5 888.5Q-17 900 2.5 907.5Q22 915 46 915Q63 915 84.5 910Q106 905 127.5 899Q149 893 168 888Q187 883 199 883Q213 883 222.5 888Q232 893 239.5 899Q247 905 253 910Q259 915 266 915Q273 915 277 911.5Q281 908 285 903L310 866Q318 853 318 841Q318 830 310.5 816.5Q303 803 289.5 791.5Q276 780 256.5 772.5Q237 765 213 765Z" glyph-name="Itilde" horiz-adv-x="262" unicode="Ĩ" /><glyph d="M539 949Q557 949 568 929L660 781Q668 769 661.5 760.5Q655 752 647 752H573Q562 752 556.5 756Q551 760 545 768L485 849L426 768Q419 760 413.5 756Q408 752 397 752H324Q315 752 308.5 760.5Q302 769 310 781L402 929Q413 949 432 949ZM551 236Q551 174 530 127.5Q509 81 472.5 49.5Q436 18 387.5 2Q339 -14 284 -14Q229 -14 181 1.5Q133 17 97 47Q61 77 40 122Q19 167 19 226V273Q19 282 25 288Q31 294 40 294H131Q140 294 146.5 288Q153 282 153 273V239Q153 180 186 143.5Q219 107 285 107Q351 107 384 143.5Q417 180 417 239V679Q417 687 423.5 693.5Q430 700 439 700H530Q539 700 545 693.5Q551 687 551 679V236Z" glyph-name="Jcircumflex" horiz-adv-x="610" unicode="Ĵ" /><glyph d="M85 0Q76 0 70 6.5Q64 13 64 22V679Q64 687 70 693.5Q76 700 85 700H177Q186 700 192 693.5Q198 687 198 679V22Q198 13 192 6.5Q186 0 177 0ZM812 236Q812 174 791 127.5Q770 81 733.5 49.5Q697 18 648.5 2Q600 -14 545 -14Q490 -14 442 1.5Q394 17 358 47Q322 77 301 122Q280 167 280 226V273Q280 282 286 288Q292 294 301 294H392Q401 294 407.5 288Q414 282 414 273V239Q414 180 447 143.5Q480 107 546 107Q612 107 645 143.5Q678 180 678 239V679Q678 687 684.5 693.5Q691 700 700 700H791Q800 700 806 693.5Q812 687 812 679V236Z" glyph-name="IJ" horiz-adv-x="871" unicode="Ĳ" /><glyph d="M267 -59Q269 -51 273.5 -47Q278 -43 288 -43H380Q391 -43 394.5 -50.5Q398 -58 395 -66L341 -199Q338 -207 333.5 -211Q329 -215 319 -215H244Q233 -215 229.5 -208Q226 -201 228 -192ZM397 366 651 26Q659 15 654 7.5Q649 0 641 0H529Q516 0 508.5 3Q501 6 493 17L287 297H198V22Q198 13 191.5 6.5Q185 0 176 0H85Q76 0 70 6.5Q64 13 64 22V679Q64 687 70 693.5Q76 700 85 700H176Q185 700 191.5 693.5Q198 687 198 679V415H286L495 681Q503 691 511.5 695.5Q520 700 534 700H637Q649 700 653 690Q657 680 649 671Z" glyph-name="Kcommaaccent" horiz-adv-x="656" unicode="Ķ" /><glyph d="M261 949Q275 949 280 939Q285 929 279 919L191 768Q181 752 166 752H108Q78 752 84 781L126 931Q131 949 152 949H261ZM553 22Q553 13 546.5 6.5Q540 0 531 0H85Q76 0 70 6.5Q64 13 64 21V678Q64 687 70 693.5Q76 700 85 700H176Q185 700 191.5 693.5Q198 687 198 678V123H531Q540 123 546.5 117Q553 111 553 102Z" glyph-name="Lacute" horiz-adv-x="562" unicode="Ĺ" /><glyph d="M378 687Q381 700 396 700H489Q497 700 499 694Q501 688 499 682L430 500Q425 487 412 487H340Q332 487 329.5 493.5Q327 500 329 506ZM553 22Q553 13 546.5 6.5Q540 0 531 0H85Q76 0 70 6.5Q64 13 64 21V678Q64 687 70 693.5Q76 700 85 700H176Q185 700 191.5 693.5Q198 687 198 678V123H531Q540 123 546.5 117Q553 111 553 102Z" glyph-name="Lcaron" horiz-adv-x="564" unicode="Ľ" /><glyph d="M235 -59Q237 -51 241.5 -47Q246 -43 256 -43H348Q359 -43 362.5 -50.5Q366 -58 363 -66L309 -199Q306 -207 301.5 -211Q297 -215 287 -215H212Q201 -215 197.5 -208Q194 -201 196 -192ZM553 22Q553 13 546.5 6.5Q540 0 531 0H85Q76 0 70 6.5Q64 13 64 21V678Q64 687 70 693.5Q76 700 85 700H176Q185 700 191.5 693.5Q198 687 198 678V123H531Q540 123 546.5 117Q553 111 553 102Z" glyph-name="Lcommaaccent" horiz-adv-x="562" unicode="Ļ" /><glyph d="M553 22Q553 13 546.5 6.5Q540 0 531 0H85Q76 0 70 6.5Q64 13 64 21V678Q64 687 70 693.5Q76 700 85 700H176Q185 700 191.5 693.5Q198 687 198 678V123H531Q540 123 546.5 117Q553 111 553 102ZM384 290Q366 290 350.5 296.5Q335 303 323.5 314.5Q312 326 305.5 341.5Q299 357 299 374Q299 391 305.5 406.5Q312 422 323.5 433.5Q335 445 350.5 451.5Q366 458 384 458Q402 458 417.5 451.5Q433 445 444.5 433.5Q456 422 462.5 406.5Q469 391 469 374Q469 357 462.5 341.5Q456 326 444.5 314.5Q433 303 417.5 296.5Q402 290 384 290Z" glyph-name="Ldot" horiz-adv-x="562" unicode="Ŀ" /><glyph d="M198 488 198 21Q198 12 192 6Q186 0 177 0H85Q76 0 70 6Q64 12 64 21V679Q64 687 70 693.5Q76 700 85 700H204Q213 700 221 696.5Q229 693 235 683L528 223V679Q528 687 534 693.5Q540 700 548 700H640Q648 700 655 693.5Q662 687 662 679V21Q662 12 655 6Q648 0 640 0H541Q511 0 498 21ZM445 765Q427 765 405 770Q383 775 361.5 781Q340 787 321.5 792Q303 797 292 797Q278 797 268.5 792Q259 787 251.5 781Q244 775 238 770Q232 765 225 765Q215 765 207 776L181 814Q173 825 173 839Q173 850 180.5 863.5Q188 877 201.5 888.5Q215 900 234.5 907.5Q254 915 278 915Q295 915 316.5 910Q338 905 359.5 899Q381 893 400 888Q419 883 431 883Q445 883 454.5 888Q464 893 471.5 899Q479 905 485 910Q491 915 498 915Q505 915 509 911.5Q513 908 517 903L542 866Q550 853 550 841Q550 830 542.5 816.5Q535 803 521.5 791.5Q508 780 488.5 772.5Q469 765 445 765Z" glyph-name="Ntilde" horiz-adv-x="726" unicode="Ñ" /><glyph d="M492 949Q506 949 511 939Q516 929 510 919L422 768Q412 752 397 752H339Q309 752 315 781L357 931Q362 949 383 949H492ZM198 488 198 21Q198 12 192 6Q186 0 177 0H85Q76 0 70 6Q64 12 64 21V679Q64 687 70 693.5Q76 700 85 700H204Q213 700 221 696.5Q229 693 235 683L528 223V679Q528 687 534 693.5Q540 700 548 700H640Q648 700 655 693.5Q662 687 662 679V21Q662 12 655 6Q648 0 640 0H541Q511 0 498 21Z" glyph-name="Nacute" horiz-adv-x="726" unicode="Ń" /><glyph d="M310 752Q291 752 280 772L188 920Q180 933 186.5 941Q193 949 202 949H275Q286 949 291.5 945Q297 941 304 933L363 852L423 933Q429 941 434.5 945Q440 949 451 949H525Q533 949 539.5 941Q546 933 538 920L446 772Q435 752 417 752H310ZM198 488 198 21Q198 12 192 6Q186 0 177 0H85Q76 0 70 6Q64 12 64 21V679Q64 687 70 693.5Q76 700 85 700H204Q213 700 221 696.5Q229 693 235 683L528 223V679Q528 687 534 693.5Q540 700 548 700H640Q648 700 655 693.5Q662 687 662 679V21Q662 12 655 6Q648 0 640 0H541Q511 0 498 21Z" glyph-name="Ncaron" horiz-adv-x="726" unicode="Ň" /><glyph d="M294 -59Q296 -51 300.5 -47Q305 -43 315 -43H407Q418 -43 421.5 -50.5Q425 -58 422 -66L368 -199Q365 -207 360.5 -211Q356 -215 346 -215H271Q260 -215 256.5 -208Q253 -201 255 -192ZM198 488 198 21Q198 12 192 6Q186 0 177 0H85Q76 0 70 6Q64 12 64 21V679Q64 687 70 693.5Q76 700 85 700H204Q213 700 221 696.5Q229 693 235 683L528 223V679Q528 687 534 693.5Q540 700 548 700H640Q648 700 655 693.5Q662 687 662 679V21Q662 12 655 6Q648 0 640 0H541Q511 0 498 21Z" glyph-name="Ncommaaccent" horiz-adv-x="726" unicode="Ņ" /><glyph d="M490 -246Q455 -246 418.5 -235Q382 -224 359 -201Q343 -186 357 -167L393 -116Q401 -105 411.5 -105.5Q422 -106 431 -111Q444 -119 456.5 -122.5Q469 -126 478 -126Q487 -126 496.5 -123Q506 -120 514 -113Q522 -106 527 -93.5Q532 -81 532 -63V0Q520 1 512.5 5.5Q505 10 500 18L198 488V21Q198 12 192 6Q186 0 177 0H85Q76 0 70 6Q64 12 64 21V679Q64 687 70 693.5Q76 700 85 700H204Q213 700 221 696.5Q229 693 235 683L528 223V679Q528 687 534 693.5Q540 700 548 700H640Q648 700 655 693.5Q662 687 662 679V-68Q662 -116 647 -149.5Q632 -183 607.5 -204.5Q583 -226 552 -236Q521 -246 490 -246Z" glyph-name="Eng" horiz-adv-x="726" unicode="Ŋ" /><glyph d="M524 949Q538 949 543 939Q548 929 542 919L454 768Q444 752 429 752H371Q341 752 347 781L389 931Q394 949 415 949H524ZM763 350Q763 273 734.5 206.5Q706 140 656.5 91Q607 42 539.5 14Q472 -14 395 -14Q318 -14 251 14Q184 42 134 91Q84 140 55.5 206.5Q27 273 27 350Q27 427 55.5 493.5Q84 560 134 609Q184 658 251 686Q318 714 395 714Q472 714 539.5 686Q607 658 656.5 609Q706 560 734.5 493.5Q763 427 763 350ZM624 350Q624 401 607 444.5Q590 488 559.5 520.5Q529 553 487 571.5Q445 590 395 590Q345 590 303 571.5Q261 553 231 520.5Q201 488 184 444.5Q167 401 167 350Q167 299 184 255.5Q201 212 231 179.5Q261 147 303 128.5Q345 110 395 110Q445 110 487 128.5Q529 147 559.5 179.5Q590 212 607 255.5Q624 299 624 350Z" glyph-name="Oacute" horiz-adv-x="790" unicode="Ó" /><glyph d="M449 949Q467 949 478 929L570 781Q578 769 571.5 760.5Q565 752 557 752H483Q472 752 466.5 756Q461 760 455 768L395 849L336 768Q329 760 323.5 756Q318 752 307 752H234Q225 752 218.5 760.5Q212 769 220 781L312 929Q323 949 342 949ZM763 350Q763 273 734.5 206.5Q706 140 656.5 91Q607 42 539.5 14Q472 -14 395 -14Q318 -14 251 14Q184 42 134 91Q84 140 55.5 206.5Q27 273 27 350Q27 427 55.5 493.5Q84 560 134 609Q184 658 251 686Q318 714 395 714Q472 714 539.5 686Q607 658 656.5 609Q706 560 734.5 493.5Q763 427 763 350ZM624 350Q624 401 607 444.5Q590 488 559.5 520.5Q529 553 487 571.5Q445 590 395 590Q345 590 303 571.5Q261 553 231 520.5Q201 488 184 444.5Q167 401 167 350Q167 299 184 255.5Q201 212 231 179.5Q261 147 303 128.5Q345 110 395 110Q445 110 487 128.5Q529 147 559.5 179.5Q590 212 607 255.5Q624 299 624 350Z" glyph-name="Ocircumflex" horiz-adv-x="790" unicode="Ô" /><glyph d="M295 748Q263 748 241 769.5Q219 791 219 823Q219 855 241 876.5Q263 898 295 898Q327 898 349 876.5Q371 855 371 823Q371 791 349 769.5Q327 748 295 748ZM494 748Q462 748 440 769.5Q418 791 418 823Q418 855 440 876.5Q462 898 494 898Q526 898 548 876.5Q570 855 570 823Q570 791 548 769.5Q526 748 494 748ZM763 350Q763 273 734.5 206.5Q706 140 656.5 91Q607 42 539.5 14Q472 -14 395 -14Q318 -14 251 14Q184 42 134 91Q84 140 55.5 206.5Q27 273 27 350Q27 427 55.5 493.5Q84 560 134 609Q184 658 251 686Q318 714 395 714Q472 714 539.5 686Q607 658 656.5 609Q706 560 734.5 493.5Q763 427 763 350ZM624 350Q624 401 607 444.5Q590 488 559.5 520.5Q529 553 487 571.5Q445 590 395 590Q345 590 303 571.5Q261 553 231 520.5Q201 488 184 444.5Q167 401 167 350Q167 299 184 255.5Q201 212 231 179.5Q261 147 303 128.5Q345 110 395 110Q445 110 487 128.5Q529 147 559.5 179.5Q590 212 607 255.5Q624 299 624 350Z" glyph-name="Odieresis" horiz-adv-x="790" unicode="Ö" /><glyph d="M763 350Q763 273 734.5 206.5Q706 140 656.5 91Q607 42 539.5 14Q472 -14 395 -14Q318 -14 251 14Q184 42 134 91Q84 140 55.5 206.5Q27 273 27 350Q27 427 55.5 493.5Q84 560 134 609Q184 658 251 686Q318 714 395 714Q472 714 539.5 686Q607 658 656.5 609Q706 560 734.5 493.5Q763 427 763 350ZM624 350Q624 401 607 444.5Q590 488 559.5 520.5Q529 553 487 571.5Q445 590 395 590Q345 590 303 571.5Q261 553 231 520.5Q201 488 184 444.5Q167 401 167 350Q167 299 184 255.5Q201 212 231 179.5Q261 147 303 128.5Q345 110 395 110Q445 110 487 128.5Q529 147 559.5 179.5Q590 212 607 255.5Q624 299 624 350ZM377 949Q397 949 402 931L445 781Q451 752 421 752H363Q354 752 348.5 756Q343 760 338 768L250 919Q244 929 249 939Q254 949 268 949Z" glyph-name="Ograve" horiz-adv-x="790" unicode="Ò" /><glyph d="M763 350Q763 273 734.5 206.5Q706 140 656.5 91Q607 42 539.5 14Q472 -14 395 -14Q318 -14 251 14Q184 42 134 91Q84 140 55.5 206.5Q27 273 27 350Q27 427 55.5 493.5Q84 560 134 609Q184 658 251 686Q318 714 395 714Q472 714 539.5 686Q607 658 656.5 609Q706 560 734.5 493.5Q763 427 763 350ZM624 350Q624 401 607 444.5Q590 488 559.5 520.5Q529 553 487 571.5Q445 590 395 590Q345 590 303 571.5Q261 553 231 520.5Q201 488 184 444.5Q167 401 167 350Q167 299 184 255.5Q201 212 231 179.5Q261 147 303 128.5Q345 110 395 110Q445 110 487 128.5Q529 147 559.5 179.5Q590 212 607 255.5Q624 299 624 350ZM477 765Q459 765 437 770Q415 775 393.5 781Q372 787 353.5 792Q335 797 324 797Q310 797 300.5 792Q291 787 283.5 781Q276 775 270 770Q264 765 257 765Q247 765 239 776L213 814Q205 825 205 839Q205 850 212.5 863.5Q220 877 233.5 888.5Q247 900 266.5 907.5Q286 915 310 915Q327 915 348.5 910Q370 905 391.5 899Q413 893 432 888Q451 883 463 883Q477 883 486.5 888Q496 893 503.5 899Q511 905 517 910Q523 915 530 915Q537 915 541 911.5Q545 908 549 903L574 866Q582 853 582 841Q582 830 574.5 816.5Q567 803 553.5 791.5Q540 780 520.5 772.5Q501 765 477 765Z" glyph-name="Otilde" horiz-adv-x="790" unicode="Õ" /><glyph d="M763 350Q763 273 734.5 206.5Q706 140 656.5 91Q607 42 539.5 14Q472 -14 395 -14Q318 -14 251 14Q184 42 134 91Q84 140 55.5 206.5Q27 273 27 350Q27 427 55.5 493.5Q84 560 134 609Q184 658 251 686Q318 714 395 714Q472 714 539.5 686Q607 658 656.5 609Q706 560 734.5 493.5Q763 427 763 350ZM624 350Q624 401 607 444.5Q590 488 559.5 520.5Q529 553 487 571.5Q445 590 395 590Q345 590 303 571.5Q261 553 231 520.5Q201 488 184 444.5Q167 401 167 350Q167 299 184 255.5Q201 212 231 179.5Q261 147 303 128.5Q345 110 395 110Q445 110 487 128.5Q529 147 559.5 179.5Q590 212 607 255.5Q624 299 624 350ZM395 747Q314 747 271.5 788Q229 829 229 897V917Q229 924 233.5 928.5Q238 933 244 933H322Q328 933 332.5 928.5Q337 924 337 917V906Q337 879 353.5 864.5Q370 850 395 850Q420 850 437 864.5Q454 879 454 906V917Q454 924 458.5 928.5Q463 933 469 933H546Q562 933 562 917V897Q562 829 519 788Q476 747 395 747Z" glyph-name="Obreve" horiz-adv-x="790" unicode="Ŏ" /><glyph d="M623 949Q637 949 642 939Q647 929 641 919L553 768Q548 760 542.5 756Q537 752 528 752H470Q456 752 449.5 759.5Q443 767 447 781L489 931Q494 949 514 949ZM422 949Q436 949 441 939Q446 929 440 919L352 768Q347 760 341.5 756Q336 752 327 752H269Q238 752 246 781L288 931Q293 949 313 949ZM763 350Q763 273 734.5 206.5Q706 140 656.5 91Q607 42 539.5 14Q472 -14 395 -14Q318 -14 251 14Q184 42 134 91Q84 140 55.5 206.5Q27 273 27 350Q27 427 55.5 493.5Q84 560 134 609Q184 658 251 686Q318 714 395 714Q472 714 539.5 686Q607 658 656.5 609Q706 560 734.5 493.5Q763 427 763 350ZM624 350Q624 401 607 444.5Q590 488 559.5 520.5Q529 553 487 571.5Q445 590 395 590Q345 590 303 571.5Q261 553 231 520.5Q201 488 184 444.5Q167 401 167 350Q167 299 184 255.5Q201 212 231 179.5Q261 147 303 128.5Q345 110 395 110Q445 110 487 128.5Q529 147 559.5 179.5Q590 212 607 255.5Q624 299 624 350Z" glyph-name="Ohungarumlaut" horiz-adv-x="790" unicode="Ő" /><glyph d="M246 770Q237 770 231 776.5Q225 783 225 792V857Q225 866 231 872Q237 878 246 878H543Q552 878 558.5 872Q565 866 565 857V792Q565 783 558.5 776.5Q552 770 543 770ZM763 350Q763 273 734.5 206.5Q706 140 656.5 91Q607 42 539.5 14Q472 -14 395 -14Q318 -14 251 14Q184 42 134 91Q84 140 55.5 206.5Q27 273 27 350Q27 427 55.5 493.5Q84 560 134 609Q184 658 251 686Q318 714 395 714Q472 714 539.5 686Q607 658 656.5 609Q706 560 734.5 493.5Q763 427 763 350ZM624 350Q624 401 607 444.5Q590 488 559.5 520.5Q529 553 487 571.5Q445 590 395 590Q345 590 303 571.5Q261 553 231 520.5Q201 488 184 444.5Q167 401 167 350Q167 299 184 255.5Q201 212 231 179.5Q261 147 303 128.5Q345 110 395 110Q445 110 487 128.5Q529 147 559.5 179.5Q590 212 607 255.5Q624 299 624 350Z" glyph-name="Omacron" horiz-adv-x="790" unicode="Ō" /><glyph d="M470 949Q484 949 489 939Q494 929 488 919L400 768Q390 752 375 752H317Q287 752 293 781L335 931Q340 949 361 949H470ZM378 377Q430 377 462 406Q494 435 494 482Q494 528 462.5 555Q431 582 380 582H198V377ZM536 0Q513 0 501 22L353 268H198V22Q198 13 192 6.5Q186 0 177 0H85Q76 0 70 6.5Q64 13 64 22V679Q64 687 69 693.5Q74 700 85 700H393Q448 700 493 684Q538 668 569.5 639.5Q601 611 618 572.5Q635 534 635 489Q635 465 628 435.5Q621 406 604.5 378.5Q588 351 560 327.5Q532 304 490 291L653 28Q659 19 654.5 9.5Q650 0 638 0Z" glyph-name="Racute" horiz-adv-x="675" unicode="Ŕ" /><glyph d="M288 752Q269 752 258 772L166 920Q158 933 164.5 941Q171 949 180 949H253Q264 949 269.5 945Q275 941 282 933L341 852L401 933Q407 941 412.5 945Q418 949 429 949H503Q511 949 517.5 941Q524 933 516 920L424 772Q413 752 395 752H288ZM378 377Q430 377 462 406Q494 435 494 482Q494 528 462.5 555Q431 582 380 582H198V377ZM536 0Q513 0 501 22L353 268H198V22Q198 13 192 6.5Q186 0 177 0H85Q76 0 70 6.5Q64 13 64 22V679Q64 687 69 693.5Q74 700 85 700H393Q448 700 493 684Q538 668 569.5 639.5Q601 611 618 572.5Q635 534 635 489Q635 465 628 435.5Q621 406 604.5 378.5Q588 351 560 327.5Q532 304 490 291L653 28Q659 19 654.5 9.5Q650 0 638 0Z" glyph-name="Rcaron" horiz-adv-x="675" unicode="Ř" /><glyph d="M272 -59Q274 -51 278.5 -47Q283 -43 293 -43H385Q396 -43 399.5 -50.5Q403 -58 400 -66L346 -199Q343 -207 338.5 -211Q334 -215 324 -215H249Q238 -215 234.5 -208Q231 -201 233 -192ZM378 377Q430 377 462 406Q494 435 494 482Q494 528 462.5 555Q431 582 380 582H198V377ZM536 0Q513 0 501 22L353 268H198V22Q198 13 192 6.5Q186 0 177 0H85Q76 0 70 6.5Q64 13 64 22V679Q64 687 69 693.5Q74 700 85 700H393Q448 700 493 684Q538 668 569.5 639.5Q601 611 618 572.5Q635 534 635 489Q635 465 628 435.5Q621 406 604.5 378.5Q588 351 560 327.5Q532 304 490 291L653 28Q659 19 654.5 9.5Q650 0 638 0Z" glyph-name="Rcommaaccent" horiz-adv-x="675" unicode="Ŗ" /><glyph d="M305 714Q388 714 450 688Q512 662 547 629Q565 612 562 599.5Q559 587 551 579L509 535Q498 524 485 523.5Q472 523 456 535Q421 561 383.5 578.5Q346 596 301 596Q251 596 216.5 574.5Q182 553 182 513Q182 489 198.5 469.5Q215 450 262 438L399 402Q441 391 475.5 374Q510 357 534.5 333Q559 309 572.5 277Q586 245 586 203Q586 163 569 124Q552 85 517.5 54.5Q483 24 430 5Q377 -14 306 -14Q255 -14 212 -5Q169 4 135.5 19Q102 34 76.5 53Q51 72 34 91Q23 104 21.5 119.5Q20 135 34 146L89 189Q103 200 114 196.5Q125 193 136 182Q151 167 169 153.5Q187 140 208.5 129Q230 118 256 111.5Q282 105 314 105Q345 105 369 112Q393 119 408.5 131Q424 143 432 158.5Q440 174 440 190Q440 226 413.5 246.5Q387 267 335 281L208 314Q126 335 82 383Q38 431 38 504Q38 550 58 588.5Q78 627 113.5 655Q149 683 198 698.5Q247 714 305 714ZM252 752Q233 752 222 772L130 920Q122 933 128.5 941Q135 949 144 949H217Q228 949 233.5 945Q239 941 246 933L305 852L365 933Q371 941 376.5 945Q382 949 393 949H467Q475 949 481.5 941Q488 933 480 920L388 772Q377 752 359 752H252Z" glyph-name="Scaron" horiz-adv-x="608" unicode="Š" /><glyph d="M305 714Q388 714 450 688Q512 662 547 629Q565 612 562 599.5Q559 587 551 579L509 535Q498 524 485 523.5Q472 523 456 535Q421 561 383.5 578.5Q346 596 301 596Q251 596 216.5 574.5Q182 553 182 513Q182 489 198.5 469.5Q215 450 262 438L399 402Q441 391 475.5 374Q510 357 534.5 333Q559 309 572.5 277Q586 245 586 203Q586 163 569 124Q552 85 517.5 54.5Q483 24 430 5Q377 -14 306 -14Q255 -14 212 -5Q169 4 135.5 19Q102 34 76.5 53Q51 72 34 91Q23 104 21.5 119.5Q20 135 34 146L89 189Q103 200 114 196.5Q125 193 136 182Q151 167 169 153.5Q187 140 208.5 129Q230 118 256 111.5Q282 105 314 105Q345 105 369 112Q393 119 408.5 131Q424 143 432 158.5Q440 174 440 190Q440 226 413.5 246.5Q387 267 335 281L208 314Q126 335 82 383Q38 431 38 504Q38 550 58 588.5Q78 627 113.5 655Q149 683 198 698.5Q247 714 305 714ZM434 949Q448 949 453 939Q458 929 452 919L364 768Q354 752 339 752H281Q251 752 257 781L299 931Q304 949 325 949H434Z" glyph-name="Sacute" horiz-adv-x="608" unicode="Ś" /><glyph d="M305 714Q388 714 450 688Q512 662 547 629Q565 612 562 599.5Q559 587 551 579L509 535Q498 524 485 523.5Q472 523 456 535Q421 561 383.5 578.5Q346 596 301 596Q251 596 216.5 574.5Q182 553 182 513Q182 489 198.5 469.5Q215 450 262 438L399 402Q441 391 475.5 374Q510 357 534.5 333Q559 309 572.5 277Q586 245 586 203Q586 163 569 124Q552 85 517.5 54.5Q483 24 430 5Q377 -14 306 -14Q255 -14 212 -5Q169 4 135.5 19Q102 34 76.5 53Q51 72 34 91Q23 104 21.5 119.5Q20 135 34 146L89 189Q103 200 114 196.5Q125 193 136 182Q151 167 169 153.5Q187 140 208.5 129Q230 118 256 111.5Q282 105 314 105Q345 105 369 112Q393 119 408.5 131Q424 143 432 158.5Q440 174 440 190Q440 226 413.5 246.5Q387 267 335 281L208 314Q126 335 82 383Q38 431 38 504Q38 550 58 588.5Q78 627 113.5 655Q149 683 198 698.5Q247 714 305 714ZM371 13 305 -157Q300 -171 283 -171H189Q181 -171 176 -165Q171 -159 175 -148L238 22Z" glyph-name="Scedilla" horiz-adv-x="608" unicode="Ş" /><glyph d="M305 714Q388 714 450 688Q512 662 547 629Q565 612 562 599.5Q559 587 551 579L509 535Q498 524 485 523.5Q472 523 456 535Q421 561 383.5 578.5Q346 596 301 596Q251 596 216.5 574.5Q182 553 182 513Q182 489 198.5 469.5Q215 450 262 438L399 402Q441 391 475.5 374Q510 357 534.5 333Q559 309 572.5 277Q586 245 586 203Q586 163 569 124Q552 85 517.5 54.5Q483 24 430 5Q377 -14 306 -14Q255 -14 212 -5Q169 4 135.5 19Q102 34 76.5 53Q51 72 34 91Q23 104 21.5 119.5Q20 135 34 146L89 189Q103 200 114 196.5Q125 193 136 182Q151 167 169 153.5Q187 140 208.5 129Q230 118 256 111.5Q282 105 314 105Q345 105 369 112Q393 119 408.5 131Q424 143 432 158.5Q440 174 440 190Q440 226 413.5 246.5Q387 267 335 281L208 314Q126 335 82 383Q38 431 38 504Q38 550 58 588.5Q78 627 113.5 655Q149 683 198 698.5Q247 714 305 714ZM359 949Q377 949 388 929L480 781Q488 769 481.5 760.5Q475 752 467 752H393Q382 752 376.5 756Q371 760 365 768L305 849L246 768Q239 760 233.5 756Q228 752 217 752H144Q135 752 128.5 760.5Q122 769 130 781L222 929Q233 949 252 949Z" glyph-name="Scircumflex" horiz-adv-x="608" unicode="Ŝ" /><glyph d="M305 714Q388 714 450 688Q512 662 547 629Q565 612 562 599.5Q559 587 551 579L509 535Q498 524 485 523.5Q472 523 456 535Q421 561 383.5 578.5Q346 596 301 596Q251 596 216.5 574.5Q182 553 182 513Q182 489 198.5 469.5Q215 450 262 438L399 402Q441 391 475.5 374Q510 357 534.5 333Q559 309 572.5 277Q586 245 586 203Q586 163 569 124Q552 85 517.5 54.5Q483 24 430 5Q377 -14 306 -14Q255 -14 212 -5Q169 4 135.5 19Q102 34 76.5 53Q51 72 34 91Q23 104 21.5 119.5Q20 135 34 146L89 189Q103 200 114 196.5Q125 193 136 182Q151 167 169 153.5Q187 140 208.5 129Q230 118 256 111.5Q282 105 314 105Q345 105 369 112Q393 119 408.5 131Q424 143 432 158.5Q440 174 440 190Q440 226 413.5 246.5Q387 267 335 281L208 314Q126 335 82 383Q38 431 38 504Q38 550 58 588.5Q78 627 113.5 655Q149 683 198 698.5Q247 714 305 714ZM227 -59Q229 -51 233.5 -47Q238 -43 248 -43H340Q351 -43 354.5 -50.5Q358 -58 355 -66L301 -199Q298 -207 293.5 -211Q289 -215 279 -215H204Q193 -215 189.5 -208Q186 -201 188 -192Z" glyph-name="Scommaaccent" horiz-adv-x="608" unicode="Ș" /><glyph d="M382 22Q382 13 375.5 6.5Q369 0 360 0H265Q256 0 250 6.5Q244 13 244 22V287H142Q133 287 126.5 293Q120 299 120 308V369Q120 377 126.5 383.5Q133 390 142 390H244V577H36Q27 577 21 583Q15 589 15 598V678Q15 687 21 693.5Q27 700 36 700H590Q599 700 605 693.5Q611 687 611 678V598Q611 589 605 583Q599 577 590 577H382V390H485Q494 390 500 383.5Q506 377 506 369V308Q506 299 500 293Q494 287 485 287H382V22Z" glyph-name="Tbar" horiz-adv-x="626" unicode="Ŧ" /><glyph d="M256 752Q237 752 226 772L134 920Q126 933 132.5 941Q139 949 148 949H221Q232 949 237.5 945Q243 941 250 933L309 852L369 933Q375 941 380.5 945Q386 949 397 949H471Q479 949 485.5 941Q492 933 484 920L392 772Q381 752 363 752H256ZM11 678Q11 687 17 693.5Q23 700 32 700H586Q595 700 601 693.5Q607 687 607 678V598Q607 589 601 583Q595 577 586 577H378V22Q378 13 371.5 6.5Q365 0 356 0H261Q252 0 246 6.5Q240 13 240 22V577H32Q23 577 17 583Q11 589 11 598Z" glyph-name="Tcaron" horiz-adv-x="618" unicode="Ť" /><glyph d="M241 -59Q243 -51 247.5 -47Q252 -43 262 -43H354Q365 -43 368.5 -50.5Q372 -58 369 -66L315 -199Q312 -207 307.5 -211Q303 -215 293 -215H218Q207 -215 203.5 -208Q200 -201 202 -192ZM11 678Q11 687 17 693.5Q23 700 32 700H586Q595 700 601 693.5Q607 687 607 678V598Q607 589 601 583Q595 577 586 577H378V22Q378 13 371.5 6.5Q365 0 356 0H261Q252 0 246 6.5Q240 13 240 22V577H32Q23 577 17 583Q11 589 11 598Z" glyph-name="Tcommaaccent" horiz-adv-x="618" unicode="Ţ" /><glyph d="M241 -59Q243 -51 247.5 -47Q252 -43 262 -43H354Q365 -43 368.5 -50.5Q372 -58 369 -66L315 -199Q312 -207 307.5 -211Q303 -215 293 -215H218Q207 -215 203.5 -208Q200 -201 202 -192ZM11 678Q11 687 17 693.5Q23 700 32 700H586Q595 700 601 693.5Q607 687 607 678V598Q607 589 601 583Q595 577 586 577H378V22Q378 13 371.5 6.5Q365 0 356 0H261Q252 0 246 6.5Q240 13 240 22V577H32Q23 577 17 583Q11 589 11 598Z" glyph-name="uni021A" horiz-adv-x="618" unicode="Ț" /><glyph d="M637 250Q637 182 613 132Q589 82 549 49.5Q509 17 456.5 1.5Q404 -14 347 -14Q290 -14 238 1.5Q186 17 146 49Q106 81 82 131Q58 181 58 249V679Q58 687 64 693.5Q70 700 79 700H170Q179 700 185.5 693.5Q192 687 192 679V258Q192 188 232.5 148Q273 108 347 108Q421 108 462 148Q503 188 503 258V679Q503 687 509.5 693.5Q516 700 525 700H616Q624 700 630.5 693.5Q637 687 637 679V250ZM476 949Q490 949 495 939Q500 929 494 919L406 768Q396 752 381 752H323Q293 752 299 781L341 931Q346 949 367 949H476Z" glyph-name="Uacute" horiz-adv-x="695" unicode="Ú" /><glyph d="M637 250Q637 182 613 132Q589 82 549 49.5Q509 17 456.5 1.5Q404 -14 347 -14Q290 -14 238 1.5Q186 17 146 49Q106 81 82 131Q58 181 58 249V679Q58 687 64 693.5Q70 700 79 700H170Q179 700 185.5 693.5Q192 687 192 679V258Q192 188 232.5 148Q273 108 347 108Q421 108 462 148Q503 188 503 258V679Q503 687 509.5 693.5Q516 700 525 700H616Q624 700 630.5 693.5Q637 687 637 679V250ZM401 949Q419 949 430 929L522 781Q530 769 523.5 760.5Q517 752 509 752H435Q424 752 418.5 756Q413 760 407 768L347 849L288 768Q281 760 275.5 756Q270 752 259 752H186Q177 752 170.5 760.5Q164 769 172 781L264 929Q275 949 294 949Z" glyph-name="Ucircumflex" horiz-adv-x="695" unicode="Û" /><glyph d="M637 250Q637 182 613 132Q589 82 549 49.5Q509 17 456.5 1.5Q404 -14 347 -14Q290 -14 238 1.5Q186 17 146 49Q106 81 82 131Q58 181 58 249V679Q58 687 64 693.5Q70 700 79 700H170Q179 700 185.5 693.5Q192 687 192 679V258Q192 188 232.5 148Q273 108 347 108Q421 108 462 148Q503 188 503 258V679Q503 687 509.5 693.5Q516 700 525 700H616Q624 700 630.5 693.5Q637 687 637 679V250ZM247 748Q215 748 193 769.5Q171 791 171 823Q171 855 193 876.5Q215 898 247 898Q279 898 301 876.5Q323 855 323 823Q323 791 301 769.5Q279 748 247 748ZM446 748Q414 748 392 769.5Q370 791 370 823Q370 855 392 876.5Q414 898 446 898Q478 898 500 876.5Q522 855 522 823Q522 791 500 769.5Q478 748 446 748Z" glyph-name="Udieresis" horiz-adv-x="695" unicode="Ü" /><glyph d="M637 250Q637 182 613 132Q589 82 549 49.5Q509 17 456.5 1.5Q404 -14 347 -14Q290 -14 238 1.5Q186 17 146 49Q106 81 82 131Q58 181 58 249V679Q58 687 64 693.5Q70 700 79 700H170Q179 700 185.5 693.5Q192 687 192 679V258Q192 188 232.5 148Q273 108 347 108Q421 108 462 148Q503 188 503 258V679Q503 687 509.5 693.5Q516 700 525 700H616Q624 700 630.5 693.5Q637 687 637 679V250ZM329 949Q349 949 354 931L397 781Q403 752 373 752H315Q306 752 300.5 756Q295 760 290 768L202 919Q196 929 201 939Q206 949 220 949Z" glyph-name="Ugrave" horiz-adv-x="695" unicode="Ù" /><glyph d="M637 250Q637 182 613 132Q589 82 549 49.5Q509 17 456.5 1.5Q404 -14 347 -14Q290 -14 238 1.5Q186 17 146 49Q106 81 82 131Q58 181 58 249V679Q58 687 64 693.5Q70 700 79 700H170Q179 700 185.5 693.5Q192 687 192 679V258Q192 188 232.5 148Q273 108 347 108Q421 108 462 148Q503 188 503 258V679Q503 687 509.5 693.5Q516 700 525 700H616Q624 700 630.5 693.5Q637 687 637 679V250ZM347 747Q266 747 223.5 788Q181 829 181 897V917Q181 924 185.5 928.5Q190 933 196 933H274Q280 933 284.5 928.5Q289 924 289 917V906Q289 879 305.5 864.5Q322 850 347 850Q372 850 389 864.5Q406 879 406 906V917Q406 924 410.5 928.5Q415 933 421 933H498Q514 933 514 917V897Q514 829 471 788Q428 747 347 747Z" glyph-name="Ubreve" horiz-adv-x="695" unicode="Ŭ" /><glyph d="M637 250Q637 182 613 132Q589 82 549 49.5Q509 17 456.5 1.5Q404 -14 347 -14Q290 -14 238 1.5Q186 17 146 49Q106 81 82 131Q58 181 58 249V679Q58 687 64 693.5Q70 700 79 700H170Q179 700 185.5 693.5Q192 687 192 679V258Q192 188 232.5 148Q273 108 347 108Q421 108 462 148Q503 188 503 258V679Q503 687 509.5 693.5Q516 700 525 700H616Q624 700 630.5 693.5Q637 687 637 679V250ZM575 949Q589 949 594 939Q599 929 593 919L505 768Q500 760 494.5 756Q489 752 480 752H422Q408 752 401.5 759.5Q395 767 399 781L441 931Q446 949 466 949ZM374 949Q388 949 393 939Q398 929 392 919L304 768Q299 760 293.5 756Q288 752 279 752H221Q190 752 198 781L240 931Q245 949 265 949Z" glyph-name="Uhungarumlaut" horiz-adv-x="695" unicode="Ű" /><glyph d="M637 250Q637 182 613 132Q589 82 549 49.5Q509 17 456.5 1.5Q404 -14 347 -14Q290 -14 238 1.5Q186 17 146 49Q106 81 82 131Q58 181 58 249V679Q58 687 64 693.5Q70 700 79 700H170Q179 700 185.5 693.5Q192 687 192 679V258Q192 188 232.5 148Q273 108 347 108Q421 108 462 148Q503 188 503 258V679Q503 687 509.5 693.5Q516 700 525 700H616Q624 700 630.5 693.5Q637 687 637 679V250ZM198 770Q189 770 183 776.5Q177 783 177 792V857Q177 866 183 872Q189 878 198 878H495Q504 878 510.5 872Q517 866 517 857V792Q517 783 510.5 776.5Q504 770 495 770Z" glyph-name="Umacron" horiz-adv-x="695" unicode="Ū" /><glyph d="M637 250Q637 182 613 132Q589 82 549 49.5Q509 17 456.5 1.5Q404 -14 347 -14Q290 -14 238 1.5Q186 17 146 49Q106 81 82 131Q58 181 58 249V679Q58 687 64 693.5Q70 700 79 700H170Q179 700 185.5 693.5Q192 687 192 679V258Q192 188 232.5 148Q273 108 347 108Q421 108 462 148Q503 188 503 258V679Q503 687 509.5 693.5Q516 700 525 700H616Q624 700 630.5 693.5Q637 687 637 679V250ZM316 -115Q316 -83 332 -55.5Q348 -28 370 -7Q392 14 415 29Q438 44 452 50L487 46L493 34Q467 -2 450.5 -32.5Q434 -63 434 -81Q434 -96 443 -107.5Q452 -119 478 -119Q488 -119 495.5 -118Q503 -117 510 -116Q518 -115 523 -120Q528 -125 526 -139L522 -175Q520 -194 494 -201Q468 -208 436 -208Q382 -208 349 -184Q316 -160 316 -115Z" glyph-name="Uogonek" horiz-adv-x="695" unicode="Ų" /><glyph d="M637 250Q637 182 613 132Q589 82 549 49.5Q509 17 456.5 1.5Q404 -14 347 -14Q290 -14 238 1.5Q186 17 146 49Q106 81 82 131Q58 181 58 249V679Q58 687 64 693.5Q70 700 79 700H170Q179 700 185.5 693.5Q192 687 192 679V258Q192 188 232.5 148Q273 108 347 108Q421 108 462 148Q503 188 503 258V679Q503 687 509.5 693.5Q516 700 525 700H616Q624 700 630.5 693.5Q637 687 637 679V250ZM347 1024Q378 1024 405 1013.5Q432 1003 451.5 984Q471 965 482 939.5Q493 914 493 884Q493 854 482 829Q471 804 451.5 785Q432 766 405 755.5Q378 745 347 745Q316 745 289 755.5Q262 766 242.5 785Q223 804 212 829Q201 854 201 884Q201 914 212 939.5Q223 965 242.5 984Q262 1003 289 1013.5Q316 1024 347 1024ZM347 822Q374 822 390.5 840Q407 858 407 884Q407 910 390.5 928.5Q374 947 347 947Q320 947 303.5 928.5Q287 910 287 884Q287 858 303.5 840Q320 822 347 822Z" glyph-name="Uring" horiz-adv-x="695" unicode="Ů" /><glyph d="M637 250Q637 182 613 132Q589 82 549 49.5Q509 17 456.5 1.5Q404 -14 347 -14Q290 -14 238 1.5Q186 17 146 49Q106 81 82 131Q58 181 58 249V679Q58 687 64 693.5Q70 700 79 700H170Q179 700 185.5 693.5Q192 687 192 679V258Q192 188 232.5 148Q273 108 347 108Q421 108 462 148Q503 188 503 258V679Q503 687 509.5 693.5Q516 700 525 700H616Q624 700 630.5 693.5Q637 687 637 679V250ZM429 765Q411 765 389 770Q367 775 345.5 781Q324 787 305.5 792Q287 797 276 797Q262 797 252.5 792Q243 787 235.5 781Q228 775 222 770Q216 765 209 765Q199 765 191 776L165 814Q157 825 157 839Q157 850 164.5 863.5Q172 877 185.5 888.5Q199 900 218.5 907.5Q238 915 262 915Q279 915 300.5 910Q322 905 343.5 899Q365 893 384 888Q403 883 415 883Q429 883 438.5 888Q448 893 455.5 899Q463 905 469 910Q475 915 482 915Q489 915 493 911.5Q497 908 501 903L526 866Q534 853 534 841Q534 830 526.5 816.5Q519 803 505.5 791.5Q492 780 472.5 772.5Q453 765 429 765Z" glyph-name="Utilde" horiz-adv-x="695" unicode="Ũ" /><glyph d="M837 21Q833 10 823.5 5Q814 0 810 0H686Q678 0 670 5Q662 10 659 21L518 499L376 21Q373 10 364.5 5Q356 0 349 0H222Q214 0 206.5 5Q199 10 195 21L-14 668Q-19 684 -11 692Q-3 700 8 700H112Q120 700 126 693.5Q132 687 134 679L291 170L440 681Q442 689 447 694.5Q452 700 463 700H575Q583 700 589.5 694.5Q596 689 598 681L749 174L903 679Q905 687 910.5 693.5Q916 700 925 700H1024Q1036 700 1043.5 693Q1051 686 1045 668L837 21ZM645 949Q659 949 664 939Q669 929 663 919L575 768Q565 752 550 752H492Q462 752 468 781L510 931Q515 949 536 949H645Z" glyph-name="Wacute" horiz-adv-x="1033" unicode="Ẃ" /><glyph d="M837 21Q833 10 823.5 5Q814 0 810 0H686Q678 0 670 5Q662 10 659 21L518 499L376 21Q373 10 364.5 5Q356 0 349 0H222Q214 0 206.5 5Q199 10 195 21L-14 668Q-19 684 -11 692Q-3 700 8 700H112Q120 700 126 693.5Q132 687 134 679L291 170L440 681Q442 689 447 694.5Q452 700 463 700H575Q583 700 589.5 694.5Q596 689 598 681L749 174L903 679Q905 687 910.5 693.5Q916 700 925 700H1024Q1036 700 1043.5 693Q1051 686 1045 668L837 21ZM570 949Q588 949 599 929L691 781Q699 769 692.5 760.5Q686 752 678 752H604Q593 752 587.5 756Q582 760 576 768L516 849L457 768Q450 760 444.5 756Q439 752 428 752H355Q346 752 339.5 760.5Q333 769 341 781L433 929Q444 949 463 949Z" glyph-name="Wcircumflex" horiz-adv-x="1033" unicode="Ŵ" /><glyph d="M837 21Q833 10 823.5 5Q814 0 810 0H686Q678 0 670 5Q662 10 659 21L518 499L376 21Q373 10 364.5 5Q356 0 349 0H222Q214 0 206.5 5Q199 10 195 21L-14 668Q-19 684 -11 692Q-3 700 8 700H112Q120 700 126 693.5Q132 687 134 679L291 170L440 681Q442 689 447 694.5Q452 700 463 700H575Q583 700 589.5 694.5Q596 689 598 681L749 174L903 679Q905 687 910.5 693.5Q916 700 925 700H1024Q1036 700 1043.5 693Q1051 686 1045 668L837 21ZM416 748Q384 748 362 769.5Q340 791 340 823Q340 855 362 876.5Q384 898 416 898Q448 898 470 876.5Q492 855 492 823Q492 791 470 769.5Q448 748 416 748ZM615 748Q583 748 561 769.5Q539 791 539 823Q539 855 561 876.5Q583 898 615 898Q647 898 669 876.5Q691 855 691 823Q691 791 669 769.5Q647 748 615 748Z" glyph-name="Wdieresis" horiz-adv-x="1033" unicode="Ẅ" /><glyph d="M837 21Q833 10 823.5 5Q814 0 810 0H686Q678 0 670 5Q662 10 659 21L518 499L376 21Q373 10 364.5 5Q356 0 349 0H222Q214 0 206.5 5Q199 10 195 21L-14 668Q-19 684 -11 692Q-3 700 8 700H112Q120 700 126 693.5Q132 687 134 679L291 170L440 681Q442 689 447 694.5Q452 700 463 700H575Q583 700 589.5 694.5Q596 689 598 681L749 174L903 679Q905 687 910.5 693.5Q916 700 925 700H1024Q1036 700 1043.5 693Q1051 686 1045 668L837 21ZM498 949Q518 949 523 931L566 781Q572 752 542 752H484Q475 752 469.5 756Q464 760 459 768L371 919Q365 929 370 939Q375 949 389 949Z" glyph-name="Wgrave" horiz-adv-x="1033" unicode="Ẁ" /><glyph d="M256 271 11 669Q3 680 8.5 690Q14 700 25 700H140Q156 700 166 684L324 420H327L484 684Q494 700 509 700H620Q631 700 637 691Q643 682 635 669L390 271V22Q390 13 383.5 6.5Q377 0 369 0H277Q268 0 262 6.5Q256 13 256 22ZM452 949Q466 949 471 939Q476 929 470 919L382 768Q372 752 357 752H299Q269 752 275 781L317 931Q322 949 343 949H452Z" glyph-name="Yacute" horiz-adv-x="646" unicode="Ý" /><glyph d="M256 271 11 669Q3 680 8.5 690Q14 700 25 700H140Q156 700 166 684L324 420H327L484 684Q494 700 509 700H620Q631 700 637 691Q643 682 635 669L390 271V22Q390 13 383.5 6.5Q377 0 369 0H277Q268 0 262 6.5Q256 13 256 22ZM223 748Q191 748 169 769.5Q147 791 147 823Q147 855 169 876.5Q191 898 223 898Q255 898 277 876.5Q299 855 299 823Q299 791 277 769.5Q255 748 223 748ZM422 748Q390 748 368 769.5Q346 791 346 823Q346 855 368 876.5Q390 898 422 898Q454 898 476 876.5Q498 855 498 823Q498 791 476 769.5Q454 748 422 748Z" glyph-name="Ydieresis" horiz-adv-x="646" unicode="Ÿ" /><glyph d="M256 271 11 669Q3 680 8.5 690Q14 700 25 700H140Q156 700 166 684L324 420H327L484 684Q494 700 509 700H620Q631 700 637 691Q643 682 635 669L390 271V22Q390 13 383.5 6.5Q377 0 369 0H277Q268 0 262 6.5Q256 13 256 22ZM376 949Q394 949 405 929L497 781Q505 769 498.5 760.5Q492 752 484 752H410Q399 752 393.5 756Q388 760 382 768L322 849L263 768Q256 760 250.5 756Q245 752 234 752H161Q152 752 145.5 760.5Q139 769 147 781L239 929Q250 949 269 949Z" glyph-name="Ycircumflex" horiz-adv-x="646" unicode="Ŷ" /><glyph d="M256 271 11 669Q3 680 8.5 690Q14 700 25 700H140Q156 700 166 684L324 420H327L484 684Q494 700 509 700H620Q631 700 637 691Q643 682 635 669L390 271V22Q390 13 383.5 6.5Q377 0 369 0H277Q268 0 262 6.5Q256 13 256 22ZM305 949Q325 949 330 931L373 781Q379 752 349 752H291Q282 752 276.5 756Q271 760 266 768L178 919Q172 929 177 939Q182 949 196 949Z" glyph-name="Ygrave" horiz-adv-x="646" unicode="Ỳ" /><glyph d="M252 752Q233 752 222 772L130 920Q122 933 128.5 941Q135 949 144 949H217Q228 949 233.5 945Q239 941 246 933L305 852L365 933Q371 941 376.5 945Q382 949 393 949H467Q475 949 481.5 941Q488 933 480 920L388 772Q377 752 359 752H252ZM38 0Q28 0 22 6.5Q16 13 16 22V82Q16 92 20.5 99.5Q25 107 30 113L394 581H60Q51 581 45 587.5Q39 594 39 602V678Q39 687 45 693.5Q51 700 60 700H548Q556 700 562.5 693.5Q569 687 569 678V608Q569 592 557 578L204 119H571Q579 119 585.5 113Q592 107 592 98V22Q592 13 585.5 6.5Q579 0 571 0Z" glyph-name="Zcaron" horiz-adv-x="609" unicode="Ž" /><glyph d="M434 949Q448 949 453 939Q458 929 452 919L364 768Q354 752 339 752H281Q251 752 257 781L299 931Q304 949 325 949H434ZM38 0Q28 0 22 6.5Q16 13 16 22V82Q16 92 20.5 99.5Q25 107 30 113L394 581H60Q51 581 45 587.5Q39 594 39 602V678Q39 687 45 693.5Q51 700 60 700H548Q556 700 562.5 693.5Q569 687 569 678V608Q569 592 557 578L204 119H571Q579 119 585.5 113Q592 107 592 98V22Q592 13 585.5 6.5Q579 0 571 0Z" glyph-name="Zacute" horiz-adv-x="609" unicode="Ź" /><glyph d="M38 0Q28 0 22 6.5Q16 13 16 22V82Q16 92 20.5 99.5Q25 107 30 113L394 581H60Q51 581 45 587.5Q39 594 39 602V678Q39 687 45 693.5Q51 700 60 700H548Q556 700 562.5 693.5Q569 687 569 678V608Q569 592 557 578L204 119H571Q579 119 585.5 113Q592 107 592 98V22Q592 13 585.5 6.5Q579 0 571 0ZM305 751Q273 751 251 772.5Q229 794 229 826Q229 858 251 879.5Q273 901 305 901Q337 901 359 879.5Q381 858 381 826Q381 794 359 772.5Q337 751 305 751Z" glyph-name="Zdotaccent" horiz-adv-x="609" unicode="Ż" /><glyph d="M154 241Q154 213 164 188Q174 163 191.5 144.5Q209 126 232.5 115.5Q256 105 284 105Q312 105 335.5 115.5Q359 126 376 144.5Q393 163 403 188Q413 213 413 241Q413 269 403 293.5Q393 318 376 336.5Q359 355 335.5 365.5Q312 376 284 376Q256 376 232.5 365.5Q209 355 191.5 336.5Q174 318 164 293.5Q154 269 154 241ZM24 242Q24 300 44 347Q64 394 97.5 427Q131 460 174.5 478Q218 496 266 496Q317 496 356 475.5Q395 455 413 423V461Q413 470 419 476Q425 482 433 482H521Q529 482 535 476Q541 470 541 461V20Q541 12 535 6Q529 0 521 0H433Q425 0 419 6Q413 12 413 20V59Q394 27 355 6.5Q316 -14 265 -14Q218 -14 174.5 4Q131 22 97.5 55.5Q64 89 44 136.5Q24 184 24 242ZM417 731Q431 731 436 721Q441 711 435 701L347 550Q337 534 322 534H264Q234 534 240 563L282 713Q287 731 308 731H417Z" glyph-name="aacute" horiz-adv-x="589" unicode="á" /><glyph d="M154 241Q154 213 164 188Q174 163 191.5 144.5Q209 126 232.5 115.5Q256 105 284 105Q312 105 335.5 115.5Q359 126 376 144.5Q393 163 403 188Q413 213 413 241Q413 269 403 293.5Q393 318 376 336.5Q359 355 335.5 365.5Q312 376 284 376Q256 376 232.5 365.5Q209 355 191.5 336.5Q174 318 164 293.5Q154 269 154 241ZM24 242Q24 300 44 347Q64 394 97.5 427Q131 460 174.5 478Q218 496 266 496Q317 496 356 475.5Q395 455 413 423V461Q413 470 419 476Q425 482 433 482H521Q529 482 535 476Q541 470 541 461V20Q541 12 535 6Q529 0 521 0H433Q425 0 419 6Q413 12 413 20V59Q394 27 355 6.5Q316 -14 265 -14Q218 -14 174.5 4Q131 22 97.5 55.5Q64 89 44 136.5Q24 184 24 242ZM342 731Q360 731 371 711L463 563Q471 551 464.5 542.5Q458 534 450 534H376Q365 534 359.5 538Q354 542 348 550L288 631L229 550Q222 542 216.5 538Q211 534 200 534H127Q118 534 111.5 542.5Q105 551 113 563L205 711Q216 731 235 731Z" glyph-name="acircumflex" horiz-adv-x="589" unicode="â" /><glyph d="M154 241Q154 213 164 188Q174 163 191.5 144.5Q209 126 232.5 115.5Q256 105 284 105Q312 105 335.5 115.5Q359 126 376 144.5Q393 163 403 188Q413 213 413 241Q413 269 403 293.5Q393 318 376 336.5Q359 355 335.5 365.5Q312 376 284 376Q256 376 232.5 365.5Q209 355 191.5 336.5Q174 318 164 293.5Q154 269 154 241ZM24 242Q24 300 44 347Q64 394 97.5 427Q131 460 174.5 478Q218 496 266 496Q317 496 356 475.5Q395 455 413 423V461Q413 470 419 476Q425 482 433 482H521Q529 482 535 476Q541 470 541 461V20Q541 12 535 6Q529 0 521 0H433Q425 0 419 6Q413 12 413 20V59Q394 27 355 6.5Q316 -14 265 -14Q218 -14 174.5 4Q131 22 97.5 55.5Q64 89 44 136.5Q24 184 24 242ZM188 530Q156 530 134 551.5Q112 573 112 605Q112 637 134 658.5Q156 680 188 680Q220 680 242 658.5Q264 637 264 605Q264 573 242 551.5Q220 530 188 530ZM387 530Q355 530 333 551.5Q311 573 311 605Q311 637 333 658.5Q355 680 387 680Q419 680 441 658.5Q463 637 463 605Q463 573 441 551.5Q419 530 387 530Z" glyph-name="adieresis" horiz-adv-x="589" unicode="ä" /><glyph d="M154 241Q154 213 164 188Q174 163 191.5 144.5Q209 126 232.5 115.5Q256 105 284 105Q312 105 335.5 115.5Q359 126 376 144.5Q393 163 403 188Q413 213 413 241Q413 269 403 293.5Q393 318 376 336.5Q359 355 335.5 365.5Q312 376 284 376Q256 376 232.5 365.5Q209 355 191.5 336.5Q174 318 164 293.5Q154 269 154 241ZM24 242Q24 300 44 347Q64 394 97.5 427Q131 460 174.5 478Q218 496 266 496Q317 496 356 475.5Q395 455 413 423V461Q413 470 419 476Q425 482 433 482H521Q529 482 535 476Q541 470 541 461V20Q541 12 535 6Q529 0 521 0H433Q425 0 419 6Q413 12 413 20V59Q394 27 355 6.5Q316 -14 265 -14Q218 -14 174.5 4Q131 22 97.5 55.5Q64 89 44 136.5Q24 184 24 242ZM270 731Q290 731 295 713L338 563Q344 534 314 534H256Q247 534 241.5 538Q236 542 231 550L143 701Q137 711 142 721Q147 731 161 731Z" glyph-name="agrave" horiz-adv-x="589" unicode="à" /><glyph d="M154 241Q154 213 164 188Q174 163 191.5 144.5Q209 126 232.5 115.5Q256 105 284 105Q312 105 335.5 115.5Q359 126 376 144.5Q393 163 403 188Q413 213 413 241Q413 269 403 293.5Q393 318 376 336.5Q359 355 335.5 365.5Q312 376 284 376Q256 376 232.5 365.5Q209 355 191.5 336.5Q174 318 164 293.5Q154 269 154 241ZM24 242Q24 300 44 347Q64 394 97.5 427Q131 460 174.5 478Q218 496 266 496Q317 496 356 475.5Q395 455 413 423V461Q413 470 419 476Q425 482 433 482H521Q529 482 535 476Q541 470 541 461V20Q541 12 535 6Q529 0 521 0H433Q425 0 419 6Q413 12 413 20V59Q394 27 355 6.5Q316 -14 265 -14Q218 -14 174.5 4Q131 22 97.5 55.5Q64 89 44 136.5Q24 184 24 242ZM288 806Q319 806 346 795.5Q373 785 392.5 766Q412 747 423 721.5Q434 696 434 666Q434 636 423 611Q412 586 392.5 567Q373 548 346 537.5Q319 527 288 527Q257 527 230 537.5Q203 548 183.5 567Q164 586 153 611Q142 636 142 666Q142 696 153 721.5Q164 747 183.5 766Q203 785 230 795.5Q257 806 288 806ZM288 604Q315 604 331.5 622Q348 640 348 666Q348 692 331.5 710.5Q315 729 288 729Q261 729 244.5 710.5Q228 692 228 666Q228 640 244.5 622Q261 604 288 604Z" glyph-name="aring" horiz-adv-x="589" unicode="å" /><glyph d="M154 241Q154 213 164 188Q174 163 191.5 144.5Q209 126 232.5 115.5Q256 105 284 105Q312 105 335.5 115.5Q359 126 376 144.5Q393 163 403 188Q413 213 413 241Q413 269 403 293.5Q393 318 376 336.5Q359 355 335.5 365.5Q312 376 284 376Q256 376 232.5 365.5Q209 355 191.5 336.5Q174 318 164 293.5Q154 269 154 241ZM24 242Q24 300 44 347Q64 394 97.5 427Q131 460 174.5 478Q218 496 266 496Q317 496 356 475.5Q395 455 413 423V461Q413 470 419 476Q425 482 433 482H521Q529 482 535 476Q541 470 541 461V20Q541 12 535 6Q529 0 521 0H433Q425 0 419 6Q413 12 413 20V59Q394 27 355 6.5Q316 -14 265 -14Q218 -14 174.5 4Q131 22 97.5 55.5Q64 89 44 136.5Q24 184 24 242ZM370 547Q352 547 330 552Q308 557 286.5 563Q265 569 246.5 574Q228 579 217 579Q203 579 193.5 574Q184 569 176.5 563Q169 557 163 552Q157 547 150 547Q140 547 132 558L106 596Q98 607 98 621Q98 632 105.5 645.5Q113 659 126.5 670.5Q140 682 159.5 689.5Q179 697 203 697Q220 697 241.5 692Q263 687 284.5 681Q306 675 325 670Q344 665 356 665Q370 665 379.5 670Q389 675 396.5 681Q404 687 410 692Q416 697 423 697Q430 697 434 693.5Q438 690 442 685L467 648Q475 635 475 623Q475 612 467.5 598.5Q460 585 446.5 573.5Q433 562 413.5 554.5Q394 547 370 547Z" glyph-name="atilde" horiz-adv-x="589" unicode="ã" /><glyph d="M154 241Q154 213 164 188Q174 163 191.5 144.5Q209 126 232.5 115.5Q256 105 284 105Q312 105 335.5 115.5Q359 126 376 144.5Q393 163 403 188Q413 213 413 241Q413 269 403 293.5Q393 318 376 336.5Q359 355 335.5 365.5Q312 376 284 376Q256 376 232.5 365.5Q209 355 191.5 336.5Q174 318 164 293.5Q154 269 154 241ZM24 242Q24 300 44 347Q64 394 97.5 427Q131 460 174.5 478Q218 496 266 496Q317 496 356 475.5Q395 455 413 423V461Q413 470 419 476Q425 482 433 482H521Q529 482 535 476Q541 470 541 461V20Q541 12 535 6Q529 0 521 0H433Q425 0 419 6Q413 12 413 20V59Q394 27 355 6.5Q316 -14 265 -14Q218 -14 174.5 4Q131 22 97.5 55.5Q64 89 44 136.5Q24 184 24 242ZM288 529Q207 529 164.5 570Q122 611 122 679V699Q122 706 126.5 710.5Q131 715 137 715H215Q221 715 225.5 710.5Q230 706 230 699V688Q230 661 246.5 646.5Q263 632 288 632Q313 632 330 646.5Q347 661 347 688V699Q347 706 351.5 710.5Q356 715 362 715H439Q455 715 455 699V679Q455 611 412 570Q369 529 288 529Z" glyph-name="abreve" horiz-adv-x="589" unicode="ă" /><glyph d="M154 241Q154 213 164 188Q174 163 191.5 144.5Q209 126 232.5 115.5Q256 105 284 105Q312 105 335.5 115.5Q359 126 376 144.5Q393 163 403 188Q413 213 413 241Q413 269 403 293.5Q393 318 376 336.5Q359 355 335.5 365.5Q312 376 284 376Q256 376 232.5 365.5Q209 355 191.5 336.5Q174 318 164 293.5Q154 269 154 241ZM24 242Q24 300 44 347Q64 394 97.5 427Q131 460 174.5 478Q218 496 266 496Q317 496 356 475.5Q395 455 413 423V461Q413 470 419 476Q425 482 433 482H521Q529 482 535 476Q541 470 541 461V20Q541 12 535 6Q529 0 521 0H433Q425 0 419 6Q413 12 413 20V59Q394 27 355 6.5Q316 -14 265 -14Q218 -14 174.5 4Q131 22 97.5 55.5Q64 89 44 136.5Q24 184 24 242ZM139 552Q130 552 124 558.5Q118 565 118 574V639Q118 648 124 654Q130 660 139 660H436Q445 660 451.5 654Q458 648 458 639V574Q458 565 451.5 558.5Q445 552 436 552Z" glyph-name="amacron" horiz-adv-x="589" unicode="ā" /><glyph d="M154 241Q154 213 164 188Q174 163 191.5 144.5Q209 126 232.5 115.5Q256 105 284 105Q312 105 335.5 115.5Q359 126 376 144.5Q393 163 403 188Q413 213 413 241Q413 269 403 293.5Q393 318 376 336.5Q359 355 335.5 365.5Q312 376 284 376Q256 376 232.5 365.5Q209 355 191.5 336.5Q174 318 164 293.5Q154 269 154 241ZM24 242Q24 300 44 347Q64 394 97.5 427Q131 460 174.5 478Q218 496 266 496Q317 496 356 475.5Q395 455 413 423V461Q413 470 419 476Q425 482 433 482H521Q529 482 535 476Q541 470 541 461V20Q541 12 535 6Q529 0 521 0H433Q425 0 419 6Q413 12 413 20V59Q394 27 355 6.5Q316 -14 265 -14Q218 -14 174.5 4Q131 22 97.5 55.5Q64 89 44 136.5Q24 184 24 242ZM349 -119Q349 -87 365 -59.5Q381 -32 403 -11Q425 10 448 25Q471 40 485 46L520 42L526 30Q500 -6 483.5 -36.5Q467 -67 467 -85Q467 -100 476 -111.5Q485 -123 511 -123Q521 -123 528.5 -122Q536 -121 543 -120Q551 -119 556 -124Q561 -129 559 -143L555 -179Q553 -198 527 -205Q501 -212 469 -212Q415 -212 382 -188Q349 -164 349 -119Z" glyph-name="aogonek" horiz-adv-x="589" unicode="ą" /><glyph d="M498 100Q468 50 412 18Q356 -14 281 -14Q227 -14 180 5.5Q133 25 98.5 59.5Q64 94 44 140.5Q24 187 24 241Q24 295 44 341.5Q64 388 98.5 422.5Q133 457 180 476.5Q227 496 281 496Q356 496 412 464Q468 432 498 382Q504 372 500.5 362Q497 352 489 346L440 308Q427 298 416.5 301Q406 304 398 314Q374 343 348 359.5Q322 376 283 376Q255 376 231.5 365.5Q208 355 190.5 336.5Q173 318 163.5 293.5Q154 269 154 241Q154 213 163.5 188.5Q173 164 190.5 145.5Q208 127 231.5 116.5Q255 106 283 106Q322 106 348 122.5Q374 139 398 168Q406 178 416.5 181Q427 184 440 174L489 136Q497 130 500.5 120Q504 110 498 100ZM344 13 278 -157Q273 -171 256 -171H162Q154 -171 149 -165Q144 -159 148 -148L211 22Z" glyph-name="ccedilla" horiz-adv-x="519" unicode="ç" /><glyph d="M498 100Q468 50 412 18Q356 -14 281 -14Q227 -14 180 5.5Q133 25 98.5 59.5Q64 94 44 140.5Q24 187 24 241Q24 295 44 341.5Q64 388 98.5 422.5Q133 457 180 476.5Q227 496 281 496Q356 496 412 464Q468 432 498 382Q504 372 500.5 362Q497 352 489 346L440 308Q427 298 416.5 301Q406 304 398 314Q374 343 348 359.5Q322 376 283 376Q255 376 231.5 365.5Q208 355 190.5 336.5Q173 318 163.5 293.5Q154 269 154 241Q154 213 163.5 188.5Q173 164 190.5 145.5Q208 127 231.5 116.5Q255 106 283 106Q322 106 348 122.5Q374 139 398 168Q406 178 416.5 181Q427 184 440 174L489 136Q497 130 500.5 120Q504 110 498 100ZM397 731Q411 731 416 721Q421 711 415 701L327 550Q317 534 302 534H244Q214 534 220 563L262 713Q267 731 288 731H397Z" glyph-name="cacute" horiz-adv-x="519" unicode="ć" /><glyph d="M498 100Q468 50 412 18Q356 -14 281 -14Q227 -14 180 5.5Q133 25 98.5 59.5Q64 94 44 140.5Q24 187 24 241Q24 295 44 341.5Q64 388 98.5 422.5Q133 457 180 476.5Q227 496 281 496Q356 496 412 464Q468 432 498 382Q504 372 500.5 362Q497 352 489 346L440 308Q427 298 416.5 301Q406 304 398 314Q374 343 348 359.5Q322 376 283 376Q255 376 231.5 365.5Q208 355 190.5 336.5Q173 318 163.5 293.5Q154 269 154 241Q154 213 163.5 188.5Q173 164 190.5 145.5Q208 127 231.5 116.5Q255 106 283 106Q322 106 348 122.5Q374 139 398 168Q406 178 416.5 181Q427 184 440 174L489 136Q497 130 500.5 120Q504 110 498 100ZM215 534Q196 534 185 554L93 702Q85 715 91.5 723Q98 731 107 731H180Q191 731 196.5 727Q202 723 209 715L268 634L328 715Q334 723 339.5 727Q345 731 356 731H430Q438 731 444.5 723Q451 715 443 702L351 554Q340 534 322 534H215Z" glyph-name="ccaron" horiz-adv-x="519" unicode="č" /><glyph d="M498 100Q468 50 412 18Q356 -14 281 -14Q227 -14 180 5.5Q133 25 98.5 59.5Q64 94 44 140.5Q24 187 24 241Q24 295 44 341.5Q64 388 98.5 422.5Q133 457 180 476.5Q227 496 281 496Q356 496 412 464Q468 432 498 382Q504 372 500.5 362Q497 352 489 346L440 308Q427 298 416.5 301Q406 304 398 314Q374 343 348 359.5Q322 376 283 376Q255 376 231.5 365.5Q208 355 190.5 336.5Q173 318 163.5 293.5Q154 269 154 241Q154 213 163.5 188.5Q173 164 190.5 145.5Q208 127 231.5 116.5Q255 106 283 106Q322 106 348 122.5Q374 139 398 168Q406 178 416.5 181Q427 184 440 174L489 136Q497 130 500.5 120Q504 110 498 100ZM322 731Q340 731 351 711L443 563Q451 551 444.5 542.5Q438 534 430 534H356Q345 534 339.5 538Q334 542 328 550L268 631L209 550Q202 542 196.5 538Q191 534 180 534H107Q98 534 91.5 542.5Q85 551 93 563L185 711Q196 731 215 731Z" glyph-name="ccircumflex" horiz-adv-x="519" unicode="ĉ" /><glyph d="M498 100Q468 50 412 18Q356 -14 281 -14Q227 -14 180 5.5Q133 25 98.5 59.5Q64 94 44 140.5Q24 187 24 241Q24 295 44 341.5Q64 388 98.5 422.5Q133 457 180 476.5Q227 496 281 496Q356 496 412 464Q468 432 498 382Q504 372 500.5 362Q497 352 489 346L440 308Q427 298 416.5 301Q406 304 398 314Q374 343 348 359.5Q322 376 283 376Q255 376 231.5 365.5Q208 355 190.5 336.5Q173 318 163.5 293.5Q154 269 154 241Q154 213 163.5 188.5Q173 164 190.5 145.5Q208 127 231.5 116.5Q255 106 283 106Q322 106 348 122.5Q374 139 398 168Q406 178 416.5 181Q427 184 440 174L489 136Q497 130 500.5 120Q504 110 498 100ZM268 533Q236 533 214 554.5Q192 576 192 608Q192 640 214 661.5Q236 683 268 683Q300 683 322 661.5Q344 640 344 608Q344 576 322 554.5Q300 533 268 533Z" glyph-name="cdotaccent" horiz-adv-x="519" unicode="ċ" /><glyph d="M625 687Q628 700 643 700H736Q744 700 746 694Q748 688 746 682L677 500Q672 487 659 487H587Q579 487 576.5 493.5Q574 500 576 506ZM154 241Q154 213 164 188Q174 163 191.5 144.5Q209 126 232.5 115.5Q256 105 284 105Q312 105 335.5 115.5Q359 126 376 144.5Q393 163 403 188Q413 213 413 241Q413 269 403 293.5Q393 318 376 336.5Q359 355 335.5 365.5Q312 376 284 376Q256 376 232.5 365.5Q209 355 191.5 336.5Q174 318 164 293.5Q154 269 154 241ZM24 242Q24 300 44 347Q64 394 97 427Q130 460 173 478Q216 496 263 496Q315 496 354.5 475.5Q394 455 412 425V680Q412 688 418.5 694Q425 700 433 700H520Q529 700 535 694Q541 688 541 680V20Q541 12 535 6Q529 0 520 0H433Q425 0 419 6Q413 12 413 20V59Q392 27 354 6.5Q316 -14 265 -14Q217 -14 173.5 4Q130 22 97 55.5Q64 89 44 136.5Q24 184 24 242Z" glyph-name="dcaron" horiz-adv-x="645" unicode="ď" /><glyph d="M154 241Q154 213 164 188Q174 163 191.5 144.5Q209 126 232.5 115.5Q256 105 284 105Q312 105 335.5 115.5Q359 126 376 144.5Q393 163 403 188Q413 213 413 241Q413 269 403 293.5Q393 318 376 336.5Q359 355 335.5 365.5Q312 376 284 376Q256 376 232.5 365.5Q209 355 191.5 336.5Q174 318 164 293.5Q154 269 154 241ZM413 59Q392 27 354 6.5Q316 -14 265 -14Q217 -14 173.5 4Q130 22 97 55.5Q64 89 44 136.5Q24 184 24 242Q24 300 44 347Q64 394 97 427Q130 460 173 478Q216 496 263 496Q315 496 354.5 475.5Q394 455 412 425V541H299Q290 541 284 547.5Q278 554 278 563V604Q278 613 284 619.5Q290 626 299 626H412V680Q412 688 418.5 694Q425 700 433 700H520Q529 700 535 694Q541 688 541 680V626H586Q595 626 601 619.5Q607 613 607 604V563Q607 554 601 547.5Q595 541 586 541H541V20Q541 12 535 6Q529 0 520 0H433Q425 0 419 6Q413 12 413 20Z" glyph-name="dcroat" horiz-adv-x="589" unicode="đ" /><glyph d="M278 496Q334 496 379.5 476.5Q425 457 457 423.5Q489 390 506.5 346.5Q524 303 524 255V231Q524 222 519.5 215.5Q515 209 501 209H157Q160 183 170.5 162.5Q181 142 198 127Q215 112 237 104Q259 96 283 96Q321 96 347.5 109Q374 122 396 147Q401 153 407.5 155.5Q414 158 422 152L485 108Q493 102 493.5 93.5Q494 85 489 79Q459 41 409.5 13.5Q360 -14 280 -14Q223 -14 176 5.5Q129 25 95.5 59Q62 93 43 139Q24 185 24 239Q24 293 43 339.5Q62 386 95.5 421Q129 456 175.5 476Q222 496 278 496ZM397 291Q388 341 354.5 366.5Q321 392 279 392Q235 392 202.5 364.5Q170 337 160 291ZM402 731Q416 731 421 721Q426 711 420 701L332 550Q322 534 307 534H249Q219 534 225 563L267 713Q272 731 293 731H402Z" glyph-name="eacute" horiz-adv-x="540" unicode="é" /><glyph d="M278 496Q334 496 379.5 476.5Q425 457 457 423.5Q489 390 506.5 346.5Q524 303 524 255V231Q524 222 519.5 215.5Q515 209 501 209H157Q160 183 170.5 162.5Q181 142 198 127Q215 112 237 104Q259 96 283 96Q321 96 347.5 109Q374 122 396 147Q401 153 407.5 155.5Q414 158 422 152L485 108Q493 102 493.5 93.5Q494 85 489 79Q459 41 409.5 13.5Q360 -14 280 -14Q223 -14 176 5.5Q129 25 95.5 59Q62 93 43 139Q24 185 24 239Q24 293 43 339.5Q62 386 95.5 421Q129 456 175.5 476Q222 496 278 496ZM397 291Q388 341 354.5 366.5Q321 392 279 392Q235 392 202.5 364.5Q170 337 160 291ZM327 731Q345 731 356 711L448 563Q456 551 449.5 542.5Q443 534 435 534H361Q350 534 344.5 538Q339 542 333 550L273 631L214 550Q207 542 201.5 538Q196 534 185 534H112Q103 534 96.5 542.5Q90 551 98 563L190 711Q201 731 220 731Z" glyph-name="ecircumflex" horiz-adv-x="540" unicode="ê" /><glyph d="M278 496Q334 496 379.5 476.5Q425 457 457 423.5Q489 390 506.5 346.5Q524 303 524 255V231Q524 222 519.5 215.5Q515 209 501 209H157Q160 183 170.5 162.5Q181 142 198 127Q215 112 237 104Q259 96 283 96Q321 96 347.5 109Q374 122 396 147Q401 153 407.5 155.5Q414 158 422 152L485 108Q493 102 493.5 93.5Q494 85 489 79Q459 41 409.5 13.5Q360 -14 280 -14Q223 -14 176 5.5Q129 25 95.5 59Q62 93 43 139Q24 185 24 239Q24 293 43 339.5Q62 386 95.5 421Q129 456 175.5 476Q222 496 278 496ZM397 291Q388 341 354.5 366.5Q321 392 279 392Q235 392 202.5 364.5Q170 337 160 291ZM173 530Q141 530 119 551.5Q97 573 97 605Q97 637 119 658.5Q141 680 173 680Q205 680 227 658.5Q249 637 249 605Q249 573 227 551.5Q205 530 173 530ZM372 530Q340 530 318 551.5Q296 573 296 605Q296 637 318 658.5Q340 680 372 680Q404 680 426 658.5Q448 637 448 605Q448 573 426 551.5Q404 530 372 530Z" glyph-name="edieresis" horiz-adv-x="540" unicode="ë" /><glyph d="M278 496Q334 496 379.5 476.5Q425 457 457 423.5Q489 390 506.5 346.5Q524 303 524 255V231Q524 222 519.5 215.5Q515 209 501 209H157Q160 183 170.5 162.5Q181 142 198 127Q215 112 237 104Q259 96 283 96Q321 96 347.5 109Q374 122 396 147Q401 153 407.5 155.5Q414 158 422 152L485 108Q493 102 493.5 93.5Q494 85 489 79Q459 41 409.5 13.5Q360 -14 280 -14Q223 -14 176 5.5Q129 25 95.5 59Q62 93 43 139Q24 185 24 239Q24 293 43 339.5Q62 386 95.5 421Q129 456 175.5 476Q222 496 278 496ZM397 291Q388 341 354.5 366.5Q321 392 279 392Q235 392 202.5 364.5Q170 337 160 291ZM255 731Q275 731 280 713L323 563Q329 534 299 534H241Q232 534 226.5 538Q221 542 216 550L128 701Q122 711 127 721Q132 731 146 731Z" glyph-name="egrave" horiz-adv-x="540" unicode="è" /><glyph d="M278 496Q334 496 379.5 476.5Q425 457 457 423.5Q489 390 506.5 346.5Q524 303 524 255V231Q524 222 519.5 215.5Q515 209 501 209H157Q160 183 170.5 162.5Q181 142 198 127Q215 112 237 104Q259 96 283 96Q321 96 347.5 109Q374 122 396 147Q401 153 407.5 155.5Q414 158 422 152L485 108Q493 102 493.5 93.5Q494 85 489 79Q459 41 409.5 13.5Q360 -14 280 -14Q223 -14 176 5.5Q129 25 95.5 59Q62 93 43 139Q24 185 24 239Q24 293 43 339.5Q62 386 95.5 421Q129 456 175.5 476Q222 496 278 496ZM397 291Q388 341 354.5 366.5Q321 392 279 392Q235 392 202.5 364.5Q170 337 160 291ZM273 529Q192 529 149.5 570Q107 611 107 679V699Q107 706 111.5 710.5Q116 715 122 715H200Q206 715 210.5 710.5Q215 706 215 699V688Q215 661 231.5 646.5Q248 632 273 632Q298 632 315 646.5Q332 661 332 688V699Q332 706 336.5 710.5Q341 715 347 715H424Q440 715 440 699V679Q440 611 397 570Q354 529 273 529Z" glyph-name="ebreve" horiz-adv-x="540" unicode="ĕ" /><glyph d="M278 496Q334 496 379.5 476.5Q425 457 457 423.5Q489 390 506.5 346.5Q524 303 524 255V231Q524 222 519.5 215.5Q515 209 501 209H157Q160 183 170.5 162.5Q181 142 198 127Q215 112 237 104Q259 96 283 96Q321 96 347.5 109Q374 122 396 147Q401 153 407.5 155.5Q414 158 422 152L485 108Q493 102 493.5 93.5Q494 85 489 79Q459 41 409.5 13.5Q360 -14 280 -14Q223 -14 176 5.5Q129 25 95.5 59Q62 93 43 139Q24 185 24 239Q24 293 43 339.5Q62 386 95.5 421Q129 456 175.5 476Q222 496 278 496ZM397 291Q388 341 354.5 366.5Q321 392 279 392Q235 392 202.5 364.5Q170 337 160 291ZM220 534Q201 534 190 554L98 702Q90 715 96.5 723Q103 731 112 731H185Q196 731 201.5 727Q207 723 214 715L273 634L333 715Q339 723 344.5 727Q350 731 361 731H435Q443 731 449.5 723Q456 715 448 702L356 554Q345 534 327 534H220Z" glyph-name="ecaron" horiz-adv-x="540" unicode="ě" /><glyph d="M278 496Q334 496 379.5 476.5Q425 457 457 423.5Q489 390 506.5 346.5Q524 303 524 255V231Q524 222 519.5 215.5Q515 209 501 209H157Q160 183 170.5 162.5Q181 142 198 127Q215 112 237 104Q259 96 283 96Q321 96 347.5 109Q374 122 396 147Q401 153 407.5 155.5Q414 158 422 152L485 108Q493 102 493.5 93.5Q494 85 489 79Q459 41 409.5 13.5Q360 -14 280 -14Q223 -14 176 5.5Q129 25 95.5 59Q62 93 43 139Q24 185 24 239Q24 293 43 339.5Q62 386 95.5 421Q129 456 175.5 476Q222 496 278 496ZM397 291Q388 341 354.5 366.5Q321 392 279 392Q235 392 202.5 364.5Q170 337 160 291ZM273 533Q241 533 219 554.5Q197 576 197 608Q197 640 219 661.5Q241 683 273 683Q305 683 327 661.5Q349 640 349 608Q349 576 327 554.5Q305 533 273 533Z" glyph-name="edotaccent" horiz-adv-x="540" unicode="ė" /><glyph d="M278 496Q334 496 379.5 476.5Q425 457 457 423.5Q489 390 506.5 346.5Q524 303 524 255V231Q524 222 519.5 215.5Q515 209 501 209H157Q160 183 170.5 162.5Q181 142 198 127Q215 112 237 104Q259 96 283 96Q321 96 347.5 109Q374 122 396 147Q401 153 407.5 155.5Q414 158 422 152L485 108Q493 102 493.5 93.5Q494 85 489 79Q459 41 409.5 13.5Q360 -14 280 -14Q223 -14 176 5.5Q129 25 95.5 59Q62 93 43 139Q24 185 24 239Q24 293 43 339.5Q62 386 95.5 421Q129 456 175.5 476Q222 496 278 496ZM397 291Q388 341 354.5 366.5Q321 392 279 392Q235 392 202.5 364.5Q170 337 160 291ZM124 552Q115 552 109 558.5Q103 565 103 574V639Q103 648 109 654Q115 660 124 660H421Q430 660 436.5 654Q443 648 443 639V574Q443 565 436.5 558.5Q430 552 421 552Z" glyph-name="emacron" horiz-adv-x="540" unicode="ē" /><glyph d="M278 496Q334 496 379.5 476.5Q425 457 457 423.5Q489 390 506.5 346.5Q524 303 524 255V231Q524 222 519.5 215.5Q515 209 501 209H157Q160 183 170.5 162.5Q181 142 198 127Q215 112 237 104Q259 96 283 96Q321 96 347.5 109Q374 122 396 147Q401 153 407.5 155.5Q414 158 422 152L485 108Q493 102 493.5 93.5Q494 85 489 79Q459 41 409.5 13.5Q360 -14 280 -14Q223 -14 176 5.5Q129 25 95.5 59Q62 93 43 139Q24 185 24 239Q24 293 43 339.5Q62 386 95.5 421Q129 456 175.5 476Q222 496 278 496ZM397 291Q388 341 354.5 366.5Q321 392 279 392Q235 392 202.5 364.5Q170 337 160 291ZM229 -119Q229 -87 245 -59.5Q261 -32 283 -11Q305 10 328 25Q351 40 365 46L400 42L406 30Q380 -6 363.5 -36.5Q347 -67 347 -85Q347 -100 356 -111.5Q365 -123 391 -123Q401 -123 408.5 -122Q416 -121 423 -120Q431 -119 436 -124Q441 -129 439 -143L435 -179Q433 -198 407 -205Q381 -212 349 -212Q295 -212 262 -188Q229 -164 229 -119Z" glyph-name="eogonek" horiz-adv-x="540" unicode="ę" /><glyph d="M155 244Q155 215 164.5 191Q174 167 191.5 149Q209 131 232.5 121Q256 111 284 111Q312 111 335.5 121Q359 131 376 149Q393 167 403 191Q413 215 413 244Q413 272 403 296.5Q393 321 376 339Q359 357 335.5 367Q312 377 284 377Q256 377 232.5 367Q209 357 191.5 339Q174 321 164.5 296.5Q155 272 155 244ZM286 -119Q350 -119 382 -86Q414 -53 414 1V65Q396 36 357.5 16Q319 -4 268 -4Q218 -4 174 13Q130 30 97 62.5Q64 95 44.5 141Q25 187 25 245Q25 303 44.5 349.5Q64 396 97 428.5Q130 461 173 478.5Q216 496 263 496Q315 496 355 475Q395 454 414 422V461Q414 469 420 475Q426 481 434 481H521Q530 481 536 475Q542 469 542 461V-3Q542 -53 524 -95Q506 -137 472.5 -167Q439 -197 391 -213.5Q343 -230 283 -230Q186 -230 121 -190Q56 -150 39 -81Q37 -75 39 -69Q41 -63 49 -61L142 -36Q160 -31 165 -45Q170 -59 179.5 -72Q189 -85 203.5 -95.5Q218 -106 238.5 -112.5Q259 -119 286 -119ZM288 529Q207 529 164.5 570Q122 611 122 679V699Q122 706 126.5 710.5Q131 715 137 715H215Q221 715 225.5 710.5Q230 706 230 699V688Q230 661 246.5 646.5Q263 632 288 632Q313 632 330 646.5Q347 661 347 688V699Q347 706 351.5 710.5Q356 715 362 715H439Q455 715 455 699V679Q455 611 412 570Q369 529 288 529Z" glyph-name="gbreve" horiz-adv-x="590" unicode="ğ" /><glyph d="M342 731Q360 731 371 711L463 563Q471 551 464.5 542.5Q458 534 450 534H376Q365 534 359.5 538Q354 542 348 550L288 631L229 550Q222 542 216.5 538Q211 534 200 534H127Q118 534 111.5 542.5Q105 551 113 563L205 711Q216 731 235 731ZM155 244Q155 215 164.5 191Q174 167 191.5 149Q209 131 232.5 121Q256 111 284 111Q312 111 335.5 121Q359 131 376 149Q393 167 403 191Q413 215 413 244Q413 272 403 296.5Q393 321 376 339Q359 357 335.5 367Q312 377 284 377Q256 377 232.5 367Q209 357 191.5 339Q174 321 164.5 296.5Q155 272 155 244ZM286 -119Q350 -119 382 -86Q414 -53 414 1V65Q396 36 357.5 16Q319 -4 268 -4Q218 -4 174 13Q130 30 97 62.5Q64 95 44.5 141Q25 187 25 245Q25 303 44.5 349.5Q64 396 97 428.5Q130 461 173 478.5Q216 496 263 496Q315 496 355 475Q395 454 414 422V461Q414 469 420 475Q426 481 434 481H521Q530 481 536 475Q542 469 542 461V-3Q542 -53 524 -95Q506 -137 472.5 -167Q439 -197 391 -213.5Q343 -230 283 -230Q186 -230 121 -190Q56 -150 39 -81Q37 -75 39 -69Q41 -63 49 -61L142 -36Q160 -31 165 -45Q170 -59 179.5 -72Q189 -85 203.5 -95.5Q218 -106 238.5 -112.5Q259 -119 286 -119Z" glyph-name="gcircumflex" horiz-adv-x="590" unicode="ĝ" /><glyph d="M220 546Q206 546 201 556Q196 566 202 576L290 727Q300 743 315 743H373Q387 743 394 735.5Q401 728 397 714L355 564Q350 546 329 546H220ZM155 244Q155 215 164.5 191Q174 167 191.5 149Q209 131 232.5 121Q256 111 284 111Q312 111 335.5 121Q359 131 376 149Q393 167 403 191Q413 215 413 244Q413 272 403 296.5Q393 321 376 339Q359 357 335.5 367Q312 377 284 377Q256 377 232.5 367Q209 357 191.5 339Q174 321 164.5 296.5Q155 272 155 244ZM286 -119Q350 -119 382 -86Q414 -53 414 1V65Q396 36 357.5 16Q319 -4 268 -4Q218 -4 174 13Q130 30 97 62.5Q64 95 44.5 141Q25 187 25 245Q25 303 44.5 349.5Q64 396 97 428.5Q130 461 173 478.5Q216 496 263 496Q315 496 355 475Q395 454 414 422V461Q414 469 420 475Q426 481 434 481H521Q530 481 536 475Q542 469 542 461V-3Q542 -53 524 -95Q506 -137 472.5 -167Q439 -197 391 -213.5Q343 -230 283 -230Q186 -230 121 -190Q56 -150 39 -81Q37 -75 39 -69Q41 -63 49 -61L142 -36Q160 -31 165 -45Q170 -59 179.5 -72Q189 -85 203.5 -95.5Q218 -106 238.5 -112.5Q259 -119 286 -119Z" glyph-name="gcommaaccent" horiz-adv-x="590" unicode="ģ" /><glyph d="M155 244Q155 215 164.5 191Q174 167 191.5 149Q209 131 232.5 121Q256 111 284 111Q312 111 335.5 121Q359 131 376 149Q393 167 403 191Q413 215 413 244Q413 272 403 296.5Q393 321 376 339Q359 357 335.5 367Q312 377 284 377Q256 377 232.5 367Q209 357 191.5 339Q174 321 164.5 296.5Q155 272 155 244ZM286 -119Q350 -119 382 -86Q414 -53 414 1V65Q396 36 357.5 16Q319 -4 268 -4Q218 -4 174 13Q130 30 97 62.5Q64 95 44.5 141Q25 187 25 245Q25 303 44.5 349.5Q64 396 97 428.5Q130 461 173 478.5Q216 496 263 496Q315 496 355 475Q395 454 414 422V461Q414 469 420 475Q426 481 434 481H521Q530 481 536 475Q542 469 542 461V-3Q542 -53 524 -95Q506 -137 472.5 -167Q439 -197 391 -213.5Q343 -230 283 -230Q186 -230 121 -190Q56 -150 39 -81Q37 -75 39 -69Q41 -63 49 -61L142 -36Q160 -31 165 -45Q170 -59 179.5 -72Q189 -85 203.5 -95.5Q218 -106 238.5 -112.5Q259 -119 286 -119ZM281 534Q249 534 227 555.5Q205 577 205 609Q205 641 227 662.5Q249 684 281 684Q313 684 335 662.5Q357 641 357 609Q357 577 335 555.5Q313 534 281 534Z" glyph-name="gdotaccent" horiz-adv-x="590" unicode="ġ" /><glyph d="M177 19Q177 11 170.5 5.5Q164 0 156 0H68Q60 0 54 6Q48 12 48 20V541H3Q-6 541 -12 547.5Q-18 554 -18 563V604Q-18 613 -12 619.5Q-6 626 3 626H48V680Q48 688 54 694Q60 700 68 700H156Q164 700 170.5 694.5Q177 689 177 681V626H290Q299 626 305 619.5Q311 613 311 604V563Q311 554 305 547.5Q299 541 290 541H177V425Q198 454 238.5 475Q279 496 337 496Q385 496 423.5 480Q462 464 488.5 436Q515 408 529.5 370Q544 332 544 287V19Q544 11 537.5 5.5Q531 0 523 0H436Q428 0 421.5 5.5Q415 11 415 19V252Q415 309 384.5 343Q354 377 298 377Q243 377 210 342.5Q177 308 177 252V19Z" glyph-name="hbar" horiz-adv-x="587" unicode="ħ" /><glyph d="M346 949Q364 949 375 929L467 781Q475 769 468.5 760.5Q462 752 454 752H380Q369 752 363.5 756Q358 760 352 768L292 849L233 768Q226 760 220.5 756Q215 752 204 752H131Q122 752 115.5 760.5Q109 769 117 781L209 929Q220 949 239 949ZM415 252Q415 309 384.5 343Q354 377 298 377Q243 377 210 342.5Q177 308 177 252V19Q177 11 170.5 5.5Q164 0 156 0H68Q60 0 54 6Q48 12 48 20V680Q48 688 54 694Q60 700 68 700H156Q164 700 170.5 694.5Q177 689 177 681V425Q198 454 238.5 475Q279 496 337 496Q385 496 423.5 480Q462 464 488.5 436Q515 408 529.5 370Q544 332 544 287V19Q544 11 537.5 5.5Q531 0 523 0H436Q428 0 421.5 5.5Q415 11 415 19Z" glyph-name="hcircumflex" horiz-adv-x="587" unicode="ĥ" /><glyph d="M241 731Q255 731 260 721Q265 711 259 701L171 550Q161 534 146 534H88Q58 534 64 563L106 713Q111 731 132 731H241ZM69 0Q60 0 54 6.5Q48 13 48 21V461Q48 470 54 476Q60 482 69 482H156Q165 482 171 476Q177 470 177 461V21Q177 13 171 6.5Q165 0 156 0Z" glyph-name="iacute" horiz-adv-x="225" unicode="í" /><glyph d="M165 731Q183 731 194 711L286 563Q294 551 287.5 542.5Q281 534 273 534H199Q188 534 182.5 538Q177 542 171 550L111 631L52 550Q45 542 39.5 538Q34 534 23 534H-50Q-59 534 -65.5 542.5Q-72 551 -64 563L28 711Q39 731 58 731ZM68 0Q59 0 53 6.5Q47 13 47 21V461Q47 470 53 476Q59 482 68 482H155Q164 482 170 476Q176 470 176 461V21Q176 13 170 6.5Q164 0 155 0Z" glyph-name="icircumflex" horiz-adv-x="225" unicode="î" /><glyph d="M13 530Q-19 530 -41 551.5Q-63 573 -63 605Q-63 637 -41 658.5Q-19 680 13 680Q45 680 67 658.5Q89 637 89 605Q89 573 67 551.5Q45 530 13 530ZM212 530Q180 530 158 551.5Q136 573 136 605Q136 637 158 658.5Q180 680 212 680Q244 680 266 658.5Q288 637 288 605Q288 573 266 551.5Q244 530 212 530ZM69 0Q60 0 54 6.5Q48 13 48 21V461Q48 470 54 476Q60 482 69 482H156Q165 482 171 476Q177 470 177 461V21Q177 13 171 6.5Q165 0 156 0Z" glyph-name="idieresis" horiz-adv-x="225" unicode="ï" /><glyph d="M69 0Q60 0 54 6.5Q48 13 48 21V461Q48 470 54 476Q60 482 69 482H156Q165 482 171 476Q177 470 177 461V21Q177 13 171 6.5Q165 0 156 0ZM95 731Q115 731 120 713L163 563Q169 534 139 534H81Q72 534 66.5 538Q61 542 56 550L-32 701Q-38 711 -33 721Q-28 731 -14 731Z" glyph-name="igrave" horiz-adv-x="225" unicode="ì" /><glyph d="M69 0Q60 0 54 6.5Q48 13 48 21V461Q48 470 54 476Q60 482 69 482H156Q165 482 171 476Q177 470 177 461V21Q177 13 171 6.5Q165 0 156 0ZM112 529Q31 529 -11.5 570Q-54 611 -54 679V699Q-54 706 -49.5 710.5Q-45 715 -39 715H39Q45 715 49.5 710.5Q54 706 54 699V688Q54 661 70.5 646.5Q87 632 112 632Q137 632 154 646.5Q171 661 171 688V699Q171 706 175.5 710.5Q180 715 186 715H263Q279 715 279 699V679Q279 611 236 570Q193 529 112 529Z" glyph-name="ibreve" horiz-adv-x="225" unicode="ĭ" /><glyph d="M69 0Q60 0 54 6.5Q48 13 48 21V461Q48 470 54 476Q60 482 69 482H156Q165 482 171 476Q177 470 177 461V21Q177 13 171 6.5Q165 0 156 0ZM-37 552Q-46 552 -52 558.5Q-58 565 -58 574V639Q-58 648 -52 654Q-46 660 -37 660H260Q269 660 275.5 654Q282 648 282 639V574Q282 565 275.5 558.5Q269 552 260 552Z" glyph-name="imacron" horiz-adv-x="225" unicode="ī" /><glyph d="M69 0Q60 0 54 6.5Q48 13 48 21V461Q48 470 54 476Q60 482 69 482H156Q165 482 171 476Q177 470 177 461V21Q177 13 171 6.5Q165 0 156 0ZM113 550Q81 550 59 571.5Q37 593 37 625Q37 657 59 678.5Q81 700 113 700Q145 700 167 678.5Q189 657 189 625Q189 593 167 571.5Q145 550 113 550ZM-12 -142Q-12 -110 4 -82.5Q20 -55 42 -34Q64 -13 87 2Q110 17 124 23L159 19L165 7Q139 -29 122.5 -59.5Q106 -90 106 -108Q106 -123 115 -134.5Q124 -146 150 -146Q160 -146 167.5 -145Q175 -144 182 -143Q190 -142 195 -147Q200 -152 198 -166L194 -202Q192 -221 166 -228Q140 -235 108 -235Q54 -235 21 -211Q-12 -187 -12 -142Z" glyph-name="iogonek" horiz-adv-x="225" unicode="į" /><glyph d="M69 0Q60 0 54 6.5Q48 13 48 21V461Q48 470 54 476Q60 482 69 482H156Q165 482 171 476Q177 470 177 461V21Q177 13 171 6.5Q165 0 156 0ZM193 549Q175 549 153 554Q131 559 109.5 565Q88 571 69.5 576Q51 581 40 581Q26 581 16.5 576Q7 571 -0.5 565Q-8 559 -14 554Q-20 549 -27 549Q-37 549 -45 560L-71 598Q-79 609 -79 623Q-79 634 -71.5 647.5Q-64 661 -50.5 672.5Q-37 684 -17.5 691.5Q2 699 26 699Q43 699 64.5 694Q86 689 107.5 683Q129 677 148 672Q167 667 179 667Q193 667 202.5 672Q212 677 219.5 683Q227 689 233 694Q239 699 246 699Q253 699 257 695.5Q261 692 265 687L290 650Q298 637 298 625Q298 614 290.5 600.5Q283 587 269.5 575.5Q256 564 236.5 556.5Q217 549 193 549Z" glyph-name="itilde" horiz-adv-x="225" unicode="ĩ" /><glyph d="M155 482Q164 482 170 475.5Q176 469 176 461V-52Q176 -100 161 -133.5Q146 -167 122 -188.5Q98 -210 67 -220Q36 -230 5 -230Q-30 -230 -67 -219Q-104 -208 -127 -185Q-134 -178 -135 -169Q-136 -160 -129 -151L-93 -103Q-85 -92 -74 -92Q-63 -92 -55 -97Q-30 -113 -7 -113Q2 -113 11.5 -110Q21 -107 29 -100Q37 -93 42 -80.5Q47 -68 47 -50V461Q47 469 53 475.5Q59 482 68 482ZM166 731Q184 731 195 711L287 563Q295 551 288.5 542.5Q282 534 274 534H200Q189 534 183.5 538Q178 542 172 550L112 631L53 550Q46 542 40.5 538Q35 534 24 534H-49Q-58 534 -64.5 542.5Q-71 551 -63 563L29 711Q40 731 59 731Z" glyph-name="jcircumflex" horiz-adv-x="225" unicode="ĵ" /><glyph d="M69 0Q60 0 54 6.5Q48 13 48 21V461Q48 470 54 476Q60 482 69 482H156Q165 482 171 476Q177 470 177 461V21Q177 13 171 6.5Q165 0 156 0ZM113 550Q81 550 59 571.5Q37 593 37 625Q37 657 59 678.5Q81 700 113 700Q145 700 167 678.5Q189 657 189 625Q189 593 167 571.5Q145 550 113 550ZM379 482Q388 482 394 475.5Q400 469 400 461V-52Q400 -100 385 -133.5Q370 -167 346 -188.5Q322 -210 291 -220Q260 -230 229 -230Q194 -230 157 -219Q120 -208 97 -185Q90 -178 89 -169Q88 -160 95 -151L131 -103Q139 -92 150 -92Q161 -92 169 -97Q194 -113 217 -113Q226 -113 235.5 -110Q245 -107 253 -100Q261 -93 266 -80.5Q271 -68 271 -50V461Q271 469 277 475.5Q283 482 292 482ZM336 550Q304 550 282 571.5Q260 593 260 625Q260 657 282 678.5Q304 700 336 700Q368 700 390 678.5Q412 657 412 625Q412 593 390 571.5Q368 550 336 550Z" glyph-name="ij" horiz-adv-x="448" unicode="ĳ" /><glyph d="M177 20Q177 12 171 6Q165 0 156 0H69Q60 0 54 6Q48 12 48 20V680Q48 688 54 694Q60 700 69 700H156Q165 700 171 694Q177 688 177 680V308H214L336 467Q347 482 363 482H461Q475 482 478.5 472Q482 462 474 451L325 270L499 32Q507 21 502 10.5Q497 0 482 0H381Q362 0 351 17L217 208H177V20ZM192 -59Q194 -51 198.5 -47Q203 -43 213 -43H305Q316 -43 319.5 -50.5Q323 -58 320 -66L266 -199Q263 -207 258.5 -211Q254 -215 244 -215H169Q158 -215 154.5 -208Q151 -201 153 -192Z" glyph-name="kcommaaccent" horiz-adv-x="501" unicode="ķ" /><glyph d="M177 20Q177 12 171 6Q165 0 156 0H69Q60 0 54 6Q48 12 48 20V461Q48 470 54 476Q60 482 69 482H156Q165 482 171 476Q177 470 177 461V303H213L336 467Q347 482 363 482H461Q475 482 479 472Q483 462 474 451L323 265L499 32Q507 21 502 10.5Q497 0 482 0H381Q364 0 351 17L215 203H177V20Z" glyph-name="kgreenlandic" horiz-adv-x="501" unicode="ĸ" /><glyph d="M239 949Q253 949 258 939Q263 929 257 919L169 768Q159 752 144 752H86Q56 752 62 781L104 931Q109 949 130 949H239ZM170 0Q105 0 75.5 32.5Q46 65 46 120V679Q46 687 52 693.5Q58 700 67 700H154Q163 700 169 693.5Q175 687 175 679V145Q175 128 184 117.5Q193 107 211 107H240Q248 107 254 103Q260 99 260 88V25Q260 9 251 4.5Q242 0 234 0H170Z" glyph-name="lacute" horiz-adv-x="266" unicode="ĺ" /><glyph d="M261 687Q264 700 279 700H372Q380 700 382 694Q384 688 382 682L313 500Q308 487 295 487H223Q215 487 212.5 493.5Q210 500 212 506ZM170 0Q105 0 75.5 32.5Q46 65 46 120V679Q46 687 52 693.5Q58 700 67 700H154Q163 700 169 693.5Q175 687 175 679V145Q175 128 184 117.5Q193 107 211 107H240Q248 107 254 103Q260 99 260 88V25Q260 9 251 4.5Q242 0 234 0H170Z" glyph-name="lcaron" horiz-adv-x="296" unicode="ľ" /><glyph d="M65 -59Q67 -51 71.5 -47Q76 -43 86 -43H178Q189 -43 192.5 -50.5Q196 -58 193 -66L139 -199Q136 -207 131.5 -211Q127 -215 117 -215H42Q31 -215 27.5 -208Q24 -201 26 -192ZM170 0Q105 0 75.5 32.5Q46 65 46 120V679Q46 687 52 693.5Q58 700 67 700H154Q163 700 169 693.5Q175 687 175 679V145Q175 128 184 117.5Q193 107 211 107H240Q248 107 254 103Q260 99 260 88V25Q260 9 251 4.5Q242 0 234 0H170Z" glyph-name="lcommaaccent" horiz-adv-x="266" unicode="ļ" /><glyph d="M170 0Q105 0 75.5 32.5Q46 65 46 120V679Q46 687 52 693.5Q58 700 67 700H154Q163 700 169 693.5Q175 687 175 679V145Q175 128 184 117.5Q193 107 211 107H240Q248 107 254 103Q260 99 260 88V25Q260 9 251 4.5Q242 0 234 0H170ZM301 267Q283 267 267.5 273.5Q252 280 240.5 291.5Q229 303 222.5 318.5Q216 334 216 351Q216 368 222.5 383.5Q229 399 240.5 410.5Q252 422 267.5 428.5Q283 435 301 435Q319 435 334.5 428.5Q350 422 361.5 410.5Q373 399 379.5 383.5Q386 368 386 351Q386 334 379.5 318.5Q373 303 361.5 291.5Q350 280 334.5 273.5Q319 267 301 267Z" glyph-name="ldot" horiz-adv-x="354" unicode="ŀ" /><glyph d="M415 252Q415 309 384.5 343Q354 377 298 377Q243 377 210 342.5Q177 308 177 252V19Q177 11 170.5 5.5Q164 0 156 0H68Q60 0 54 6Q48 12 48 20V461Q48 470 54 476Q60 482 68 482H156Q164 482 170.5 476.5Q177 471 177 463V425Q198 454 238.5 475Q279 496 337 496Q385 496 423.5 480Q462 464 488.5 436Q515 408 529.5 370Q544 332 544 287V19Q544 11 537.5 5.5Q531 0 523 0H436Q428 0 421.5 5.5Q415 11 415 19ZM357 549Q339 549 317 554Q295 559 273.5 565Q252 571 233.5 576Q215 581 204 581Q190 581 180.5 576Q171 571 163.5 565Q156 559 150 554Q144 549 137 549Q127 549 119 560L93 598Q85 609 85 623Q85 634 92.5 647.5Q100 661 113.5 672.5Q127 684 146.5 691.5Q166 699 190 699Q207 699 228.5 694Q250 689 271.5 683Q293 677 312 672Q331 667 343 667Q357 667 366.5 672Q376 677 383.5 683Q391 689 397 694Q403 699 410 699Q417 699 421 695.5Q425 692 429 687L454 650Q462 637 462 625Q462 614 454.5 600.5Q447 587 433.5 575.5Q420 564 400.5 556.5Q381 549 357 549Z" glyph-name="ntilde" horiz-adv-x="587" unicode="ñ" /><glyph d="M422 731Q436 731 441 721Q446 711 440 701L352 550Q342 534 327 534H269Q239 534 245 563L287 713Q292 731 313 731H422ZM415 252Q415 309 384.5 343Q354 377 298 377Q243 377 210 342.5Q177 308 177 252V19Q177 11 170.5 5.5Q164 0 156 0H68Q60 0 54 6Q48 12 48 20V461Q48 470 54 476Q60 482 68 482H156Q164 482 170.5 476.5Q177 471 177 463V425Q198 454 238.5 475Q279 496 337 496Q385 496 423.5 480Q462 464 488.5 436Q515 408 529.5 370Q544 332 544 287V19Q544 11 537.5 5.5Q531 0 523 0H436Q428 0 421.5 5.5Q415 11 415 19Z" glyph-name="nacute" horiz-adv-x="587" unicode="ń" /><glyph d="M239 534Q220 534 209 554L117 702Q109 715 115.5 723Q122 731 131 731H204Q215 731 220.5 727Q226 723 233 715L292 634L352 715Q358 723 363.5 727Q369 731 380 731H454Q462 731 468.5 723Q475 715 467 702L375 554Q364 534 346 534H239ZM415 252Q415 309 384.5 343Q354 377 298 377Q243 377 210 342.5Q177 308 177 252V19Q177 11 170.5 5.5Q164 0 156 0H68Q60 0 54 6Q48 12 48 20V461Q48 470 54 476Q60 482 68 482H156Q164 482 170.5 476.5Q177 471 177 463V425Q198 454 238.5 475Q279 496 337 496Q385 496 423.5 480Q462 464 488.5 436Q515 408 529.5 370Q544 332 544 287V19Q544 11 537.5 5.5Q531 0 523 0H436Q428 0 421.5 5.5Q415 11 415 19Z" glyph-name="ncaron" horiz-adv-x="587" unicode="ň" /><glyph d="M213 -59Q215 -51 219.5 -47Q224 -43 234 -43H326Q337 -43 340.5 -50.5Q344 -58 341 -66L287 -199Q284 -207 279.5 -211Q275 -215 265 -215H190Q179 -215 175.5 -208Q172 -201 174 -192ZM415 252Q415 309 384.5 343Q354 377 298 377Q243 377 210 342.5Q177 308 177 252V19Q177 11 170.5 5.5Q164 0 156 0H68Q60 0 54 6Q48 12 48 20V461Q48 470 54 476Q60 482 68 482H156Q164 482 170.5 476.5Q177 471 177 463V425Q198 454 238.5 475Q279 496 337 496Q385 496 423.5 480Q462 464 488.5 436Q515 408 529.5 370Q544 332 544 287V19Q544 11 537.5 5.5Q531 0 523 0H436Q428 0 421.5 5.5Q415 11 415 19Z" glyph-name="ncommaaccent" horiz-adv-x="587" unicode="ņ" /><glyph d="M373 -230Q338 -230 301 -219Q264 -208 241 -185Q234 -178 233 -169Q232 -160 239 -151L273 -105Q283 -91 294 -91.5Q305 -92 313 -97Q338 -113 361 -113Q370 -113 379.5 -110Q389 -107 397 -100Q405 -93 410 -80.5Q415 -68 415 -50V252Q415 309 384.5 343Q354 377 298 377Q243 377 210 342.5Q177 308 177 252V19Q177 11 170.5 5.5Q164 0 156 0H68Q60 0 54 6Q48 12 48 20V461Q48 470 54 476Q60 482 68 482H156Q164 482 170.5 476.5Q177 471 177 463V425Q198 455 237.5 475.5Q277 496 335 496Q389 496 428.5 478Q468 460 493.5 428.5Q519 397 531.5 354.5Q544 312 544 264V-52Q544 -100 529 -133.5Q514 -167 490 -188.5Q466 -210 435 -220Q404 -230 373 -230Z" glyph-name="eng" horiz-adv-x="587" unicode="ŋ" /><glyph d="M99 754Q102 767 117 767H210Q218 767 220 761Q222 755 220 749L151 567Q146 554 133 554H61Q53 554 50.5 560.5Q48 567 50 573ZM415 252Q415 309 384.5 343Q354 377 298 377Q243 377 210 342.5Q177 308 177 252V19Q177 11 170.5 5.5Q164 0 156 0H68Q60 0 54 6Q48 12 48 20V461Q48 470 54 476Q60 482 68 482H156Q164 482 170.5 476.5Q177 471 177 463V425Q198 454 238.5 475Q279 496 337 496Q385 496 423.5 480Q462 464 488.5 436Q515 408 529.5 370Q544 332 544 287V19Q544 11 537.5 5.5Q531 0 523 0H436Q428 0 421.5 5.5Q415 11 415 19Z" glyph-name="napostrophe" horiz-adv-x="587" unicode="ŉ" /><glyph d="M23 240Q23 294 43 340.5Q63 387 98.5 421.5Q134 456 181 476Q228 496 282 496Q336 496 383 476Q430 456 465.5 421.5Q501 387 521 340.5Q541 294 541 240Q541 186 521 140Q501 94 465.5 59.5Q430 25 383 5.5Q336 -14 282 -14Q228 -14 181 5.5Q134 25 98.5 59.5Q63 94 43 140Q23 186 23 240ZM153 241Q153 213 162.5 188.5Q172 164 189.5 145.5Q207 127 230.5 116.5Q254 106 282 106Q310 106 333.5 116.5Q357 127 374 145.5Q391 164 401 188.5Q411 213 411 241Q411 269 401 293.5Q391 318 374 336.5Q357 355 333.5 365.5Q310 376 282 376Q254 376 230.5 365.5Q207 355 189.5 336.5Q172 318 162.5 293.5Q153 269 153 241ZM411 731Q425 731 430 721Q435 711 429 701L341 550Q331 534 316 534H258Q228 534 234 563L276 713Q281 731 302 731H411Z" glyph-name="oacute" horiz-adv-x="564" unicode="ó" /><glyph d="M23 240Q23 294 43 340.5Q63 387 98.5 421.5Q134 456 181 476Q228 496 282 496Q336 496 383 476Q430 456 465.5 421.5Q501 387 521 340.5Q541 294 541 240Q541 186 521 140Q501 94 465.5 59.5Q430 25 383 5.5Q336 -14 282 -14Q228 -14 181 5.5Q134 25 98.5 59.5Q63 94 43 140Q23 186 23 240ZM153 241Q153 213 162.5 188.5Q172 164 189.5 145.5Q207 127 230.5 116.5Q254 106 282 106Q310 106 333.5 116.5Q357 127 374 145.5Q391 164 401 188.5Q411 213 411 241Q411 269 401 293.5Q391 318 374 336.5Q357 355 333.5 365.5Q310 376 282 376Q254 376 230.5 365.5Q207 355 189.5 336.5Q172 318 162.5 293.5Q153 269 153 241ZM336 731Q354 731 365 711L457 563Q465 551 458.5 542.5Q452 534 444 534H370Q359 534 353.5 538Q348 542 342 550L282 631L223 550Q216 542 210.5 538Q205 534 194 534H121Q112 534 105.5 542.5Q99 551 107 563L199 711Q210 731 229 731Z" glyph-name="ocircumflex" horiz-adv-x="564" unicode="ô" /><glyph d="M23 240Q23 294 43 340.5Q63 387 98.5 421.5Q134 456 181 476Q228 496 282 496Q336 496 383 476Q430 456 465.5 421.5Q501 387 521 340.5Q541 294 541 240Q541 186 521 140Q501 94 465.5 59.5Q430 25 383 5.5Q336 -14 282 -14Q228 -14 181 5.5Q134 25 98.5 59.5Q63 94 43 140Q23 186 23 240ZM153 241Q153 213 162.5 188.5Q172 164 189.5 145.5Q207 127 230.5 116.5Q254 106 282 106Q310 106 333.5 116.5Q357 127 374 145.5Q391 164 401 188.5Q411 213 411 241Q411 269 401 293.5Q391 318 374 336.5Q357 355 333.5 365.5Q310 376 282 376Q254 376 230.5 365.5Q207 355 189.5 336.5Q172 318 162.5 293.5Q153 269 153 241ZM182 530Q150 530 128 551.5Q106 573 106 605Q106 637 128 658.5Q150 680 182 680Q214 680 236 658.5Q258 637 258 605Q258 573 236 551.5Q214 530 182 530ZM381 530Q349 530 327 551.5Q305 573 305 605Q305 637 327 658.5Q349 680 381 680Q413 680 435 658.5Q457 637 457 605Q457 573 435 551.5Q413 530 381 530Z" glyph-name="odieresis" horiz-adv-x="564" unicode="ö" /><glyph d="M23 240Q23 294 43 340.5Q63 387 98.5 421.5Q134 456 181 476Q228 496 282 496Q336 496 383 476Q430 456 465.5 421.5Q501 387 521 340.5Q541 294 541 240Q541 186 521 140Q501 94 465.5 59.5Q430 25 383 5.5Q336 -14 282 -14Q228 -14 181 5.5Q134 25 98.5 59.5Q63 94 43 140Q23 186 23 240ZM153 241Q153 213 162.5 188.5Q172 164 189.5 145.5Q207 127 230.5 116.5Q254 106 282 106Q310 106 333.5 116.5Q357 127 374 145.5Q391 164 401 188.5Q411 213 411 241Q411 269 401 293.5Q391 318 374 336.5Q357 355 333.5 365.5Q310 376 282 376Q254 376 230.5 365.5Q207 355 189.5 336.5Q172 318 162.5 293.5Q153 269 153 241ZM264 731Q284 731 289 713L332 563Q338 534 308 534H250Q241 534 235.5 538Q230 542 225 550L137 701Q131 711 136 721Q141 731 155 731Z" glyph-name="ograve" horiz-adv-x="564" unicode="ò" /><glyph d="M23 240Q23 294 43 340.5Q63 387 98.5 421.5Q134 456 181 476Q228 496 282 496Q336 496 383 476Q430 456 465.5 421.5Q501 387 521 340.5Q541 294 541 240Q541 186 521 140Q501 94 465.5 59.5Q430 25 383 5.5Q336 -14 282 -14Q228 -14 181 5.5Q134 25 98.5 59.5Q63 94 43 140Q23 186 23 240ZM153 241Q153 213 162.5 188.5Q172 164 189.5 145.5Q207 127 230.5 116.5Q254 106 282 106Q310 106 333.5 116.5Q357 127 374 145.5Q391 164 401 188.5Q411 213 411 241Q411 269 401 293.5Q391 318 374 336.5Q357 355 333.5 365.5Q310 376 282 376Q254 376 230.5 365.5Q207 355 189.5 336.5Q172 318 162.5 293.5Q153 269 153 241ZM364 547Q346 547 324 552Q302 557 280.5 563Q259 569 240.5 574Q222 579 211 579Q197 579 187.5 574Q178 569 170.5 563Q163 557 157 552Q151 547 144 547Q134 547 126 558L100 596Q92 607 92 621Q92 632 99.5 645.5Q107 659 120.5 670.5Q134 682 153.5 689.5Q173 697 197 697Q214 697 235.5 692Q257 687 278.5 681Q300 675 319 670Q338 665 350 665Q364 665 373.5 670Q383 675 390.5 681Q398 687 404 692Q410 697 417 697Q424 697 428 693.5Q432 690 436 685L461 648Q469 635 469 623Q469 612 461.5 598.5Q454 585 440.5 573.5Q427 562 407.5 554.5Q388 547 364 547Z" glyph-name="otilde" horiz-adv-x="564" unicode="õ" /><glyph d="M23 240Q23 294 43 340.5Q63 387 98.5 421.5Q134 456 181 476Q228 496 282 496Q336 496 383 476Q430 456 465.5 421.5Q501 387 521 340.5Q541 294 541 240Q541 186 521 140Q501 94 465.5 59.5Q430 25 383 5.5Q336 -14 282 -14Q228 -14 181 5.5Q134 25 98.5 59.5Q63 94 43 140Q23 186 23 240ZM153 241Q153 213 162.5 188.5Q172 164 189.5 145.5Q207 127 230.5 116.5Q254 106 282 106Q310 106 333.5 116.5Q357 127 374 145.5Q391 164 401 188.5Q411 213 411 241Q411 269 401 293.5Q391 318 374 336.5Q357 355 333.5 365.5Q310 376 282 376Q254 376 230.5 365.5Q207 355 189.5 336.5Q172 318 162.5 293.5Q153 269 153 241ZM282 529Q201 529 158.5 570Q116 611 116 679V699Q116 706 120.5 710.5Q125 715 131 715H209Q215 715 219.5 710.5Q224 706 224 699V688Q224 661 240.5 646.5Q257 632 282 632Q307 632 324 646.5Q341 661 341 688V699Q341 706 345.5 710.5Q350 715 356 715H433Q449 715 449 699V679Q449 611 406 570Q363 529 282 529Z" glyph-name="obreve" horiz-adv-x="564" unicode="ŏ" /><glyph d="M23 240Q23 294 43 340.5Q63 387 98.5 421.5Q134 456 181 476Q228 496 282 496Q336 496 383 476Q430 456 465.5 421.5Q501 387 521 340.5Q541 294 541 240Q541 186 521 140Q501 94 465.5 59.5Q430 25 383 5.5Q336 -14 282 -14Q228 -14 181 5.5Q134 25 98.5 59.5Q63 94 43 140Q23 186 23 240ZM153 241Q153 213 162.5 188.5Q172 164 189.5 145.5Q207 127 230.5 116.5Q254 106 282 106Q310 106 333.5 116.5Q357 127 374 145.5Q391 164 401 188.5Q411 213 411 241Q411 269 401 293.5Q391 318 374 336.5Q357 355 333.5 365.5Q310 376 282 376Q254 376 230.5 365.5Q207 355 189.5 336.5Q172 318 162.5 293.5Q153 269 153 241ZM510 731Q524 731 529 721Q534 711 528 701L440 550Q435 542 429.5 538Q424 534 415 534H357Q343 534 336.5 541.5Q330 549 334 563L376 713Q381 731 401 731ZM309 731Q323 731 328 721Q333 711 327 701L239 550Q234 542 228.5 538Q223 534 214 534H156Q125 534 133 563L175 713Q180 731 200 731Z" glyph-name="ohungarumlaut" horiz-adv-x="564" unicode="ő" /><glyph d="M23 240Q23 294 43 340.5Q63 387 98.5 421.5Q134 456 181 476Q228 496 282 496Q336 496 383 476Q430 456 465.5 421.5Q501 387 521 340.5Q541 294 541 240Q541 186 521 140Q501 94 465.5 59.5Q430 25 383 5.5Q336 -14 282 -14Q228 -14 181 5.5Q134 25 98.5 59.5Q63 94 43 140Q23 186 23 240ZM153 241Q153 213 162.5 188.5Q172 164 189.5 145.5Q207 127 230.5 116.5Q254 106 282 106Q310 106 333.5 116.5Q357 127 374 145.5Q391 164 401 188.5Q411 213 411 241Q411 269 401 293.5Q391 318 374 336.5Q357 355 333.5 365.5Q310 376 282 376Q254 376 230.5 365.5Q207 355 189.5 336.5Q172 318 162.5 293.5Q153 269 153 241ZM133 552Q124 552 118 558.5Q112 565 112 574V639Q112 648 118 654Q124 660 133 660H430Q439 660 445.5 654Q452 648 452 639V574Q452 565 445.5 558.5Q439 552 430 552Z" glyph-name="omacron" horiz-adv-x="564" unicode="ō" /><glyph d="M311 731Q325 731 330 721Q335 711 329 701L241 550Q231 534 216 534H158Q128 534 134 563L176 713Q181 731 202 731H311ZM303 488Q311 488 318.5 483Q326 478 326 463V377Q326 362 317 357Q308 352 302 352H278Q230 352 203.5 325.5Q177 299 177 236V19Q177 11 170.5 5.5Q164 0 156 0H68Q60 0 54 6Q48 12 48 20V461Q48 470 54 476Q60 482 68 482H151Q159 482 165 476.5Q171 471 171 463V417Q190 449 220.5 468.5Q251 488 289 488Z" glyph-name="racute" horiz-adv-x="337" unicode="ŕ" /><glyph d="M128 534Q109 534 98 554L6 702Q-2 715 4.5 723Q11 731 20 731H93Q104 731 109.5 727Q115 723 122 715L181 634L241 715Q247 723 252.5 727Q258 731 269 731H343Q351 731 357.5 723Q364 715 356 702L264 554Q253 534 235 534H128ZM302 488Q310 488 317.5 483Q325 478 325 463V377Q325 362 316 357Q307 352 301 352H277Q229 352 202.5 325.5Q176 299 176 236V19Q176 11 169.5 5.5Q163 0 155 0H67Q59 0 53 6Q47 12 47 20V461Q47 470 53 476Q59 482 67 482H150Q158 482 164 476.5Q170 471 170 463V417Q189 449 219.5 468.5Q250 488 288 488Z" glyph-name="rcaron" horiz-adv-x="337" unicode="ř" /><glyph d="M44 -59Q46 -51 50.5 -47Q55 -43 65 -43H157Q168 -43 171.5 -50.5Q175 -58 172 -66L118 -199Q115 -207 110.5 -211Q106 -215 96 -215H21Q10 -215 6.5 -208Q3 -201 5 -192ZM303 488Q311 488 318.5 483Q326 478 326 463V377Q326 362 317 357Q308 352 302 352H278Q230 352 203.5 325.5Q177 299 177 236V19Q177 11 170.5 5.5Q164 0 156 0H68Q60 0 54 6Q48 12 48 20V461Q48 470 54 476Q60 482 68 482H151Q159 482 165 476.5Q171 471 171 463V417Q190 449 220.5 468.5Q251 488 289 488Z" glyph-name="rcommaaccent" horiz-adv-x="337" unicode="ŗ" /><glyph d="M236 496Q270 496 299.5 490.5Q329 485 352.5 476Q376 467 393.5 456Q411 445 423 435Q434 426 433 415.5Q432 405 424 395L392 357Q374 336 347 354Q324 370 294.5 382.5Q265 395 233 395Q200 395 180.5 382Q161 369 161 352Q161 335 175 323Q189 311 222 305L301 290Q365 278 406 245.5Q447 213 447 148Q447 113 431.5 83.5Q416 54 387.5 32Q359 10 320 -2Q281 -14 233 -14Q170 -14 124 3.5Q78 21 49 43Q21 64 20 81Q19 98 34 110L71 140Q85 151 96 148Q107 145 116 137Q140 116 170.5 101.5Q201 87 239 87Q278 87 297 101.5Q316 116 316 135Q316 156 296.5 164.5Q277 173 239 181L162 197Q103 209 68.5 245Q34 281 34 339Q34 372 48 400.5Q62 429 88.5 450.5Q115 472 152 484Q189 496 236 496ZM183 534Q164 534 153 554L61 702Q53 715 59.5 723Q66 731 75 731H148Q159 731 164.5 727Q170 723 177 715L236 634L296 715Q302 723 307.5 727Q313 731 324 731H398Q406 731 412.5 723Q419 715 411 702L319 554Q308 534 290 534H183Z" glyph-name="scaron" horiz-adv-x="469" unicode="š" /><glyph d="M236 496Q270 496 299.5 490.5Q329 485 352.5 476Q376 467 393.5 456Q411 445 423 435Q434 426 433 415.5Q432 405 424 395L392 357Q374 336 347 354Q324 370 294.5 382.5Q265 395 233 395Q200 395 180.5 382Q161 369 161 352Q161 335 175 323Q189 311 222 305L301 290Q365 278 406 245.5Q447 213 447 148Q447 113 431.5 83.5Q416 54 387.5 32Q359 10 320 -2Q281 -14 233 -14Q170 -14 124 3.5Q78 21 49 43Q21 64 20 81Q19 98 34 110L71 140Q85 151 96 148Q107 145 116 137Q140 116 170.5 101.5Q201 87 239 87Q278 87 297 101.5Q316 116 316 135Q316 156 296.5 164.5Q277 173 239 181L162 197Q103 209 68.5 245Q34 281 34 339Q34 372 48 400.5Q62 429 88.5 450.5Q115 472 152 484Q189 496 236 496ZM365 731Q379 731 384 721Q389 711 383 701L295 550Q285 534 270 534H212Q182 534 188 563L230 713Q235 731 256 731H365Z" glyph-name="sacute" horiz-adv-x="469" unicode="ś" /><glyph d="M236 496Q270 496 299.5 490.5Q329 485 352.5 476Q376 467 393.5 456Q411 445 423 435Q434 426 433 415.5Q432 405 424 395L392 357Q374 336 347 354Q324 370 294.5 382.5Q265 395 233 395Q200 395 180.5 382Q161 369 161 352Q161 335 175 323Q189 311 222 305L301 290Q365 278 406 245.5Q447 213 447 148Q447 113 431.5 83.5Q416 54 387.5 32Q359 10 320 -2Q281 -14 233 -14Q170 -14 124 3.5Q78 21 49 43Q21 64 20 81Q19 98 34 110L71 140Q85 151 96 148Q107 145 116 137Q140 116 170.5 101.5Q201 87 239 87Q278 87 297 101.5Q316 116 316 135Q316 156 296.5 164.5Q277 173 239 181L162 197Q103 209 68.5 245Q34 281 34 339Q34 372 48 400.5Q62 429 88.5 450.5Q115 472 152 484Q189 496 236 496ZM312 13 246 -157Q241 -171 224 -171H130Q122 -171 117 -165Q112 -159 116 -148L179 22Z" glyph-name="scedilla" horiz-adv-x="469" unicode="ş" /><glyph d="M236 496Q270 496 299.5 490.5Q329 485 352.5 476Q376 467 393.5 456Q411 445 423 435Q434 426 433 415.5Q432 405 424 395L392 357Q374 336 347 354Q324 370 294.5 382.5Q265 395 233 395Q200 395 180.5 382Q161 369 161 352Q161 335 175 323Q189 311 222 305L301 290Q365 278 406 245.5Q447 213 447 148Q447 113 431.5 83.5Q416 54 387.5 32Q359 10 320 -2Q281 -14 233 -14Q170 -14 124 3.5Q78 21 49 43Q21 64 20 81Q19 98 34 110L71 140Q85 151 96 148Q107 145 116 137Q140 116 170.5 101.5Q201 87 239 87Q278 87 297 101.5Q316 116 316 135Q316 156 296.5 164.5Q277 173 239 181L162 197Q103 209 68.5 245Q34 281 34 339Q34 372 48 400.5Q62 429 88.5 450.5Q115 472 152 484Q189 496 236 496ZM290 731Q308 731 319 711L411 563Q419 551 412.5 542.5Q406 534 398 534H324Q313 534 307.5 538Q302 542 296 550L236 631L177 550Q170 542 164.5 538Q159 534 148 534H75Q66 534 59.5 542.5Q53 551 61 563L153 711Q164 731 183 731Z" glyph-name="scircumflex" horiz-adv-x="469" unicode="ŝ" /><glyph d="M236 496Q270 496 299.5 490.5Q329 485 352.5 476Q376 467 393.5 456Q411 445 423 435Q434 426 433 415.5Q432 405 424 395L392 357Q374 336 347 354Q324 370 294.5 382.5Q265 395 233 395Q200 395 180.5 382Q161 369 161 352Q161 335 175 323Q189 311 222 305L301 290Q365 278 406 245.5Q447 213 447 148Q447 113 431.5 83.5Q416 54 387.5 32Q359 10 320 -2Q281 -14 233 -14Q170 -14 124 3.5Q78 21 49 43Q21 64 20 81Q19 98 34 110L71 140Q85 151 96 148Q107 145 116 137Q140 116 170.5 101.5Q201 87 239 87Q278 87 297 101.5Q316 116 316 135Q316 156 296.5 164.5Q277 173 239 181L162 197Q103 209 68.5 245Q34 281 34 339Q34 372 48 400.5Q62 429 88.5 450.5Q115 472 152 484Q189 496 236 496ZM168 -59Q170 -51 174.5 -47Q179 -43 189 -43H281Q292 -43 295.5 -50.5Q299 -58 296 -66L242 -199Q239 -207 234.5 -211Q230 -215 220 -215H145Q134 -215 130.5 -208Q127 -201 129 -192Z" glyph-name="scommaaccent" horiz-adv-x="469" unicode="ș" /><glyph d="M391 38Q368 15 332.5 2.5Q297 -10 255 -10Q225 -10 196 -1.5Q167 7 144.5 25.5Q122 44 108.5 72.5Q95 101 95 142V232H31Q22 232 15.5 238.5Q9 245 9 254V288Q9 297 15.5 303.5Q22 310 31 310H95V374H29Q21 374 15 380.5Q9 387 9 395V461Q9 470 15 476Q21 482 29 482H95V616Q95 625 101 631Q107 637 116 637H204Q212 637 218 631Q224 625 224 616V482H364Q372 482 378.5 476Q385 470 385 461V395Q385 387 378.5 380.5Q372 374 364 374H224V310H363Q372 310 378.5 303.5Q385 297 385 288V254Q385 245 378.5 238.5Q372 232 363 232H224V171Q224 153 229.5 141Q235 129 243 122Q251 115 260.5 112Q270 109 279 109Q288 109 300 112.5Q312 116 325 124Q336 131 346.5 130.5Q357 130 364 120L394 71Q406 53 391 38Z" glyph-name="tbar" horiz-adv-x="403" unicode="ŧ" /><glyph d="M323 754Q326 767 341 767H434Q442 767 444 761Q446 755 444 749L375 567Q370 554 357 554H285Q277 554 274.5 560.5Q272 567 274 573ZM92 374 26 374Q18 374 12 380.5Q6 387 6 395V461Q6 470 12 476Q18 482 26 482H92V616Q92 625 98 631Q104 637 113 637H201Q209 637 215 631Q221 625 221 616V482H361Q369 482 375.5 476Q382 470 382 461V395Q382 387 375.5 380.5Q369 374 361 374H221V171Q221 153 226.5 141Q232 129 240 122Q248 115 257.5 112Q267 109 276 109Q285 109 297 112.5Q309 116 322 124Q333 131 343.5 130.5Q354 130 361 120L391 71Q403 53 388 38Q365 15 329.5 2.5Q294 -10 252 -10Q222 -10 193 -1.5Q164 7 141.5 25.5Q119 44 105.5 72.5Q92 101 92 142Z" glyph-name="tcaron" horiz-adv-x="399" unicode="ť" /><glyph d="M133 -59Q135 -51 139.5 -47Q144 -43 154 -43H246Q257 -43 260.5 -50.5Q264 -58 261 -66L207 -199Q204 -207 199.5 -211Q195 -215 185 -215H110Q99 -215 95.5 -208Q92 -201 94 -192ZM92 374 26 374Q18 374 12 380.5Q6 387 6 395V461Q6 470 12 476Q18 482 26 482H92V616Q92 625 98 631Q104 637 113 637H201Q209 637 215 631Q221 625 221 616V482H361Q369 482 375.5 476Q382 470 382 461V395Q382 387 375.5 380.5Q369 374 361 374H221V171Q221 153 226.5 141Q232 129 240 122Q248 115 257.5 112Q267 109 276 109Q285 109 297 112.5Q309 116 322 124Q333 131 343.5 130.5Q354 130 361 120L391 71Q403 53 388 38Q365 15 329.5 2.5Q294 -10 252 -10Q222 -10 193 -1.5Q164 7 141.5 25.5Q119 44 105.5 72.5Q92 101 92 142Z" glyph-name="tcommaaccent" horiz-adv-x="399" unicode="ţ" /><glyph d="M133 -59Q135 -51 139.5 -47Q144 -43 154 -43H246Q257 -43 260.5 -50.5Q264 -58 261 -66L207 -199Q204 -207 199.5 -211Q195 -215 185 -215H110Q99 -215 95.5 -208Q92 -201 94 -192ZM92 374 26 374Q18 374 12 380.5Q6 387 6 395V461Q6 470 12 476Q18 482 26 482H92V616Q92 625 98 631Q104 637 113 637H201Q209 637 215 631Q221 625 221 616V482H361Q369 482 375.5 476Q382 470 382 461V395Q382 387 375.5 380.5Q369 374 361 374H221V171Q221 153 226.5 141Q232 129 240 122Q248 115 257.5 112Q267 109 276 109Q285 109 297 112.5Q309 116 322 124Q333 131 343.5 130.5Q354 130 361 120L391 71Q403 53 388 38Q365 15 329.5 2.5Q294 -10 252 -10Q222 -10 193 -1.5Q164 7 141.5 25.5Q119 44 105.5 72.5Q92 101 92 142Z" glyph-name="uni021B" horiz-adv-x="399" unicode="ț" /><glyph d="M172 213Q172 160 198.5 128Q225 96 280 96Q334 96 362.5 128Q391 160 391 211V463Q391 471 397 476.5Q403 482 411 482H499Q508 482 514 476Q520 470 520 461V20Q520 12 514 6Q508 0 499 0H411Q403 0 397 5.5Q391 11 391 19V57Q368 26 333 6Q298 -14 241 -14Q195 -14 158 1Q121 16 95.5 43Q70 70 56.5 107.5Q43 145 43 191V463Q43 471 49.5 476.5Q56 482 64 482H151Q159 482 165.5 476.5Q172 471 172 463ZM407 731Q421 731 426 721Q431 711 425 701L337 550Q327 534 312 534H254Q224 534 230 563L272 713Q277 731 298 731H407Z" glyph-name="uacute" horiz-adv-x="568" unicode="ú" /><glyph d="M172 213Q172 160 198.5 128Q225 96 280 96Q334 96 362.5 128Q391 160 391 211V463Q391 471 397 476.5Q403 482 411 482H499Q508 482 514 476Q520 470 520 461V20Q520 12 514 6Q508 0 499 0H411Q403 0 397 5.5Q391 11 391 19V57Q368 26 333 6Q298 -14 241 -14Q195 -14 158 1Q121 16 95.5 43Q70 70 56.5 107.5Q43 145 43 191V463Q43 471 49.5 476.5Q56 482 64 482H151Q159 482 165.5 476.5Q172 471 172 463ZM332 731Q350 731 361 711L453 563Q461 551 454.5 542.5Q448 534 440 534H366Q355 534 349.5 538Q344 542 338 550L278 631L219 550Q212 542 206.5 538Q201 534 190 534H117Q108 534 101.5 542.5Q95 551 103 563L195 711Q206 731 225 731Z" glyph-name="ucircumflex" horiz-adv-x="568" unicode="û" /><glyph d="M172 213Q172 160 198.5 128Q225 96 280 96Q334 96 362.5 128Q391 160 391 211V463Q391 471 397 476.5Q403 482 411 482H499Q508 482 514 476Q520 470 520 461V20Q520 12 514 6Q508 0 499 0H411Q403 0 397 5.5Q391 11 391 19V57Q368 26 333 6Q298 -14 241 -14Q195 -14 158 1Q121 16 95.5 43Q70 70 56.5 107.5Q43 145 43 191V463Q43 471 49.5 476.5Q56 482 64 482H151Q159 482 165.5 476.5Q172 471 172 463ZM178 530Q146 530 124 551.5Q102 573 102 605Q102 637 124 658.5Q146 680 178 680Q210 680 232 658.5Q254 637 254 605Q254 573 232 551.5Q210 530 178 530ZM377 530Q345 530 323 551.5Q301 573 301 605Q301 637 323 658.5Q345 680 377 680Q409 680 431 658.5Q453 637 453 605Q453 573 431 551.5Q409 530 377 530Z" glyph-name="udieresis" horiz-adv-x="568" unicode="ü" /><glyph d="M172 213Q172 160 198.5 128Q225 96 280 96Q334 96 362.5 128Q391 160 391 211V463Q391 471 397 476.5Q403 482 411 482H499Q508 482 514 476Q520 470 520 461V20Q520 12 514 6Q508 0 499 0H411Q403 0 397 5.5Q391 11 391 19V57Q368 26 333 6Q298 -14 241 -14Q195 -14 158 1Q121 16 95.5 43Q70 70 56.5 107.5Q43 145 43 191V463Q43 471 49.5 476.5Q56 482 64 482H151Q159 482 165.5 476.5Q172 471 172 463ZM260 731Q280 731 285 713L328 563Q334 534 304 534H246Q237 534 231.5 538Q226 542 221 550L133 701Q127 711 132 721Q137 731 151 731Z" glyph-name="ugrave" horiz-adv-x="568" unicode="ù" /><glyph d="M172 213Q172 160 198.5 128Q225 96 280 96Q334 96 362.5 128Q391 160 391 211V463Q391 471 397 476.5Q403 482 411 482H499Q508 482 514 476Q520 470 520 461V20Q520 12 514 6Q508 0 499 0H411Q403 0 397 5.5Q391 11 391 19V57Q368 26 333 6Q298 -14 241 -14Q195 -14 158 1Q121 16 95.5 43Q70 70 56.5 107.5Q43 145 43 191V463Q43 471 49.5 476.5Q56 482 64 482H151Q159 482 165.5 476.5Q172 471 172 463ZM278 529Q197 529 154.5 570Q112 611 112 679V699Q112 706 116.5 710.5Q121 715 127 715H205Q211 715 215.5 710.5Q220 706 220 699V688Q220 661 236.5 646.5Q253 632 278 632Q303 632 320 646.5Q337 661 337 688V699Q337 706 341.5 710.5Q346 715 352 715H429Q445 715 445 699V679Q445 611 402 570Q359 529 278 529Z" glyph-name="ubreve" horiz-adv-x="568" unicode="ŭ" /><glyph d="M172 213Q172 160 198.5 128Q225 96 280 96Q334 96 362.5 128Q391 160 391 211V463Q391 471 397 476.5Q403 482 411 482H499Q508 482 514 476Q520 470 520 461V20Q520 12 514 6Q508 0 499 0H411Q403 0 397 5.5Q391 11 391 19V57Q368 26 333 6Q298 -14 241 -14Q195 -14 158 1Q121 16 95.5 43Q70 70 56.5 107.5Q43 145 43 191V463Q43 471 49.5 476.5Q56 482 64 482H151Q159 482 165.5 476.5Q172 471 172 463ZM506 731Q520 731 525 721Q530 711 524 701L436 550Q431 542 425.5 538Q420 534 411 534H353Q339 534 332.5 541.5Q326 549 330 563L372 713Q377 731 397 731ZM305 731Q319 731 324 721Q329 711 323 701L235 550Q230 542 224.5 538Q219 534 210 534H152Q121 534 129 563L171 713Q176 731 196 731Z" glyph-name="uhungarumlaut" horiz-adv-x="568" unicode="ű" /><glyph d="M172 213Q172 160 198.5 128Q225 96 280 96Q334 96 362.5 128Q391 160 391 211V463Q391 471 397 476.5Q403 482 411 482H499Q508 482 514 476Q520 470 520 461V20Q520 12 514 6Q508 0 499 0H411Q403 0 397 5.5Q391 11 391 19V57Q368 26 333 6Q298 -14 241 -14Q195 -14 158 1Q121 16 95.5 43Q70 70 56.5 107.5Q43 145 43 191V463Q43 471 49.5 476.5Q56 482 64 482H151Q159 482 165.5 476.5Q172 471 172 463ZM129 552Q120 552 114 558.5Q108 565 108 574V639Q108 648 114 654Q120 660 129 660H426Q435 660 441.5 654Q448 648 448 639V574Q448 565 441.5 558.5Q435 552 426 552Z" glyph-name="umacron" horiz-adv-x="568" unicode="ū" /><glyph d="M172 213Q172 160 198.5 128Q225 96 280 96Q334 96 362.5 128Q391 160 391 211V463Q391 471 397 476.5Q403 482 411 482H499Q508 482 514 476Q520 470 520 461V20Q520 12 514 6Q508 0 499 0H411Q403 0 397 5.5Q391 11 391 19V57Q368 26 333 6Q298 -14 241 -14Q195 -14 158 1Q121 16 95.5 43Q70 70 56.5 107.5Q43 145 43 191V463Q43 471 49.5 476.5Q56 482 64 482H151Q159 482 165.5 476.5Q172 471 172 463ZM324 -142Q324 -110 340 -82.5Q356 -55 378 -34Q400 -13 423 2Q446 17 460 23L495 19L501 7Q475 -29 458.5 -59.5Q442 -90 442 -108Q442 -123 451 -134.5Q460 -146 486 -146Q496 -146 503.5 -145Q511 -144 518 -143Q526 -142 531 -147Q536 -152 534 -166L530 -202Q528 -221 502 -228Q476 -235 444 -235Q390 -235 357 -211Q324 -187 324 -142Z" glyph-name="uogonek" horiz-adv-x="568" unicode="ų" /><glyph d="M172 213Q172 160 198.5 128Q225 96 280 96Q334 96 362.5 128Q391 160 391 211V463Q391 471 397 476.5Q403 482 411 482H499Q508 482 514 476Q520 470 520 461V20Q520 12 514 6Q508 0 499 0H411Q403 0 397 5.5Q391 11 391 19V57Q368 26 333 6Q298 -14 241 -14Q195 -14 158 1Q121 16 95.5 43Q70 70 56.5 107.5Q43 145 43 191V463Q43 471 49.5 476.5Q56 482 64 482H151Q159 482 165.5 476.5Q172 471 172 463ZM278 806Q309 806 336 795.5Q363 785 382.5 766Q402 747 413 721.5Q424 696 424 666Q424 636 413 611Q402 586 382.5 567Q363 548 336 537.5Q309 527 278 527Q247 527 220 537.5Q193 548 173.5 567Q154 586 143 611Q132 636 132 666Q132 696 143 721.5Q154 747 173.5 766Q193 785 220 795.5Q247 806 278 806ZM278 604Q305 604 321.5 622Q338 640 338 666Q338 692 321.5 710.5Q305 729 278 729Q251 729 234.5 710.5Q218 692 218 666Q218 640 234.5 622Q251 604 278 604Z" glyph-name="uring" horiz-adv-x="568" unicode="ů" /><glyph d="M172 213Q172 160 198.5 128Q225 96 280 96Q334 96 362.5 128Q391 160 391 211V463Q391 471 397 476.5Q403 482 411 482H499Q508 482 514 476Q520 470 520 461V20Q520 12 514 6Q508 0 499 0H411Q403 0 397 5.5Q391 11 391 19V57Q368 26 333 6Q298 -14 241 -14Q195 -14 158 1Q121 16 95.5 43Q70 70 56.5 107.5Q43 145 43 191V463Q43 471 49.5 476.5Q56 482 64 482H151Q159 482 165.5 476.5Q172 471 172 463ZM360 547Q342 547 320 552Q298 557 276.5 563Q255 569 236.5 574Q218 579 207 579Q193 579 183.5 574Q174 569 166.5 563Q159 557 153 552Q147 547 140 547Q130 547 122 558L96 596Q88 607 88 621Q88 632 95.5 645.5Q103 659 116.5 670.5Q130 682 149.5 689.5Q169 697 193 697Q210 697 231.5 692Q253 687 274.5 681Q296 675 315 670Q334 665 346 665Q360 665 369.5 670Q379 675 386.5 681Q394 687 400 692Q406 697 413 697Q420 697 424 693.5Q428 690 432 685L457 648Q465 635 465 623Q465 612 457.5 598.5Q450 585 436.5 573.5Q423 562 403.5 554.5Q384 547 360 547Z" glyph-name="utilde" horiz-adv-x="568" unicode="ũ" /><glyph d="M311 21Q308 12 301.5 6Q295 0 285 0H179Q169 0 162.5 6Q156 12 153 21L7 453Q2 467 8 474.5Q14 482 26 482H120Q131 482 137 476Q143 470 145 462L237 154L339 462Q346 482 364 482H467Q486 482 493 462L595 154L689 462Q691 470 697 476Q703 482 714 482H798Q810 482 816 474.5Q822 467 817 453L671 21Q668 12 661.5 6Q655 0 644 0H541Q530 0 523 6Q516 12 513 21L412 326L311 21ZM541 731Q555 731 560 721Q565 711 559 701L471 550Q461 534 446 534H388Q358 534 364 563L406 713Q411 731 432 731H541Z" glyph-name="wacute" horiz-adv-x="824" unicode="ẃ" /><glyph d="M311 21Q308 12 301.5 6Q295 0 285 0H179Q169 0 162.5 6Q156 12 153 21L7 453Q2 467 8 474.5Q14 482 26 482H120Q131 482 137 476Q143 470 145 462L237 154L339 462Q346 482 364 482H467Q486 482 493 462L595 154L689 462Q691 470 697 476Q703 482 714 482H798Q810 482 816 474.5Q822 467 817 453L671 21Q668 12 661.5 6Q655 0 644 0H541Q530 0 523 6Q516 12 513 21L412 326L311 21ZM466 731Q484 731 495 711L587 563Q595 551 588.5 542.5Q582 534 574 534H500Q489 534 483.5 538Q478 542 472 550L412 631L353 550Q346 542 340.5 538Q335 534 324 534H251Q242 534 235.5 542.5Q229 551 237 563L329 711Q340 731 359 731Z" glyph-name="wcircumflex" horiz-adv-x="824" unicode="ŵ" /><glyph d="M311 21Q308 12 301.5 6Q295 0 285 0H179Q169 0 162.5 6Q156 12 153 21L7 453Q2 467 8 474.5Q14 482 26 482H120Q131 482 137 476Q143 470 145 462L237 154L339 462Q346 482 364 482H467Q486 482 493 462L595 154L689 462Q691 470 697 476Q703 482 714 482H798Q810 482 816 474.5Q822 467 817 453L671 21Q668 12 661.5 6Q655 0 644 0H541Q530 0 523 6Q516 12 513 21L412 326L311 21ZM312 530Q280 530 258 551.5Q236 573 236 605Q236 637 258 658.5Q280 680 312 680Q344 680 366 658.5Q388 637 388 605Q388 573 366 551.5Q344 530 312 530ZM511 530Q479 530 457 551.5Q435 573 435 605Q435 637 457 658.5Q479 680 511 680Q543 680 565 658.5Q587 637 587 605Q587 573 565 551.5Q543 530 511 530Z" glyph-name="wdieresis" horiz-adv-x="824" unicode="ẅ" /><glyph d="M311 21Q308 12 301.5 6Q295 0 285 0H179Q169 0 162.5 6Q156 12 153 21L7 453Q2 467 8 474.5Q14 482 26 482H120Q131 482 137 476Q143 470 145 462L237 154L339 462Q346 482 364 482H467Q486 482 493 462L595 154L689 462Q691 470 697 476Q703 482 714 482H798Q810 482 816 474.5Q822 467 817 453L671 21Q668 12 661.5 6Q655 0 644 0H541Q530 0 523 6Q516 12 513 21L412 326L311 21ZM394 731Q414 731 419 713L462 563Q468 534 438 534H380Q371 534 365.5 538Q360 542 355 550L267 701Q261 711 266 721Q271 731 285 731Z" glyph-name="wgrave" horiz-adv-x="824" unicode="ẁ" /><glyph d="M151 -230Q108 -230 73 -216.5Q38 -203 13 -180Q6 -173 5.5 -163.5Q5 -154 12 -145L43 -101Q52 -89 63.5 -89Q75 -89 84 -96Q97 -106 112 -112.5Q127 -119 145 -119Q168 -119 184.5 -104.5Q201 -90 210 -67L237 0H189Q172 0 164 20L-2 451Q-7 463 -2.5 472.5Q2 482 19 482H122Q131 482 136 475.5Q141 469 144 461L272 107L398 461Q401 469 407 475.5Q413 482 424 482H519Q533 482 537.5 473.5Q542 465 537 451L333 -88Q309 -152 265 -191Q221 -230 151 -230ZM393 731Q407 731 412 721Q417 711 411 701L323 550Q313 534 298 534H240Q210 534 216 563L258 713Q263 731 284 731H393Z" glyph-name="yacute" horiz-adv-x="536" unicode="ý" /><glyph d="M151 -230Q108 -230 73 -216.5Q38 -203 13 -180Q6 -173 5.5 -163.5Q5 -154 12 -145L43 -101Q52 -89 63.5 -89Q75 -89 84 -96Q97 -106 112 -112.5Q127 -119 145 -119Q168 -119 184.5 -104.5Q201 -90 210 -67L237 0H189Q172 0 164 20L-2 451Q-7 463 -2.5 472.5Q2 482 19 482H122Q131 482 136 475.5Q141 469 144 461L272 107L398 461Q401 469 407 475.5Q413 482 424 482H519Q533 482 537.5 473.5Q542 465 537 451L333 -88Q309 -152 265 -191Q221 -230 151 -230ZM164 530Q132 530 110 551.5Q88 573 88 605Q88 637 110 658.5Q132 680 164 680Q196 680 218 658.5Q240 637 240 605Q240 573 218 551.5Q196 530 164 530ZM363 530Q331 530 309 551.5Q287 573 287 605Q287 637 309 658.5Q331 680 363 680Q395 680 417 658.5Q439 637 439 605Q439 573 417 551.5Q395 530 363 530Z" glyph-name="ydieresis" horiz-adv-x="536" unicode="ÿ" /><glyph d="M151 -230Q108 -230 73 -216.5Q38 -203 13 -180Q6 -173 5.5 -163.5Q5 -154 12 -145L43 -101Q52 -89 63.5 -89Q75 -89 84 -96Q97 -106 112 -112.5Q127 -119 145 -119Q168 -119 184.5 -104.5Q201 -90 210 -67L237 0H189Q172 0 164 20L-2 451Q-7 463 -2.5 472.5Q2 482 19 482H122Q131 482 136 475.5Q141 469 144 461L272 107L398 461Q401 469 407 475.5Q413 482 424 482H519Q533 482 537.5 473.5Q542 465 537 451L333 -88Q309 -152 265 -191Q221 -230 151 -230ZM318 731Q336 731 347 711L439 563Q447 551 440.5 542.5Q434 534 426 534H352Q341 534 335.5 538Q330 542 324 550L264 631L205 550Q198 542 192.5 538Q187 534 176 534H103Q94 534 87.5 542.5Q81 551 89 563L181 711Q192 731 211 731Z" glyph-name="ycircumflex" horiz-adv-x="536" unicode="ŷ" /><glyph d="M151 -230Q108 -230 73 -216.5Q38 -203 13 -180Q6 -173 5.5 -163.5Q5 -154 12 -145L43 -101Q52 -89 63.5 -89Q75 -89 84 -96Q97 -106 112 -112.5Q127 -119 145 -119Q168 -119 184.5 -104.5Q201 -90 210 -67L237 0H189Q172 0 164 20L-2 451Q-7 463 -2.5 472.5Q2 482 19 482H122Q131 482 136 475.5Q141 469 144 461L272 107L398 461Q401 469 407 475.5Q413 482 424 482H519Q533 482 537.5 473.5Q542 465 537 451L333 -88Q309 -152 265 -191Q221 -230 151 -230ZM246 731Q266 731 271 713L314 563Q320 534 290 534H232Q223 534 217.5 538Q212 542 207 550L119 701Q113 711 118 721Q123 731 137 731Z" glyph-name="ygrave" horiz-adv-x="536" unicode="ỳ" /><glyph d="M182 534Q163 534 152 554L60 702Q52 715 58.5 723Q65 731 74 731H147Q158 731 163.5 727Q169 723 176 715L235 634L295 715Q301 723 306.5 727Q312 731 323 731H397Q405 731 411.5 723Q418 715 410 702L318 554Q307 534 289 534H182ZM194 111 428 111Q436 111 442 105Q448 99 448 90V20Q448 12 442 6Q436 0 428 0H42Q34 0 27.5 6.5Q21 13 21 21V80Q21 95 31 105L266 371H53Q45 371 38.5 377.5Q32 384 32 392V461Q32 469 38.5 475.5Q45 482 53 482H416Q424 482 430.5 475.5Q437 469 437 461V402Q437 386 427 376Z" glyph-name="zcaron" horiz-adv-x="469" unicode="ž" /><glyph d="M364 731Q378 731 383 721Q388 711 382 701L294 550Q284 534 269 534H211Q181 534 187 563L229 713Q234 731 255 731H364ZM194 111 428 111Q436 111 442 105Q448 99 448 90V20Q448 12 442 6Q436 0 428 0H42Q34 0 27.5 6.5Q21 13 21 21V80Q21 95 31 105L266 371H53Q45 371 38.5 377.5Q32 384 32 392V461Q32 469 38.5 475.5Q45 482 53 482H416Q424 482 430.5 475.5Q437 469 437 461V402Q437 386 427 376Z" glyph-name="zacute" horiz-adv-x="469" unicode="ź" /><glyph d="M194 111 428 111Q436 111 442 105Q448 99 448 90V20Q448 12 442 6Q436 0 428 0H42Q34 0 27.5 6.5Q21 13 21 21V80Q21 95 31 105L266 371H53Q45 371 38.5 377.5Q32 384 32 392V461Q32 469 38.5 475.5Q45 482 53 482H416Q424 482 430.5 475.5Q437 469 437 461V402Q437 386 427 376ZM244 530Q212 530 190 551.5Q168 573 168 605Q168 637 190 658.5Q212 680 244 680Q276 680 298 658.5Q320 637 320 605Q320 573 298 551.5Q276 530 244 530Z" glyph-name="zdotaccent" horiz-adv-x="469" unicode="ż" /><glyph d="M364 731Q378 731 383 721Q388 711 382 701L294 550Q284 534 269 534H211Q181 534 187 563L229 713Q234 731 255 731H364Z" glyph-name="acute" horiz-adv-x="263" unicode="´" /><glyph d="M246 731Q266 731 271 713L314 563Q320 534 290 534H232Q223 534 217.5 538Q212 542 207 550L119 701Q113 711 118 721Q123 731 137 731Z" glyph-name="grave" horiz-adv-x="263" unicode="`" /><glyph d="M318 731Q336 731 347 711L439 563Q447 551 440.5 542.5Q434 534 426 534H352Q341 534 335.5 538Q330 542 324 550L264 631L205 550Q198 542 192.5 538Q187 534 176 534H103Q94 534 87.5 542.5Q81 551 89 563L181 711Q192 731 211 731Z" glyph-name="circumflex" horiz-adv-x="414" unicode="ˆ" /><glyph d="M182 534Q163 534 152 554L60 702Q52 715 58.5 723Q65 731 74 731H147Q158 731 163.5 727Q169 723 176 715L235 634L295 715Q301 723 306.5 727Q312 731 323 731H397Q405 731 411.5 723Q418 715 410 702L318 554Q307 534 289 534H182Z" glyph-name="caron" horiz-adv-x="414" unicode="ˇ" /><glyph d="M360 547Q342 547 320 552Q298 557 276.5 563Q255 569 236.5 574Q218 579 207 579Q193 579 183.5 574Q174 569 166.5 563Q159 557 153 552Q147 547 140 547Q130 547 122 558L96 596Q88 607 88 621Q88 632 95.5 645.5Q103 659 116.5 670.5Q130 682 149.5 689.5Q169 697 193 697Q210 697 231.5 692Q253 687 274.5 681Q296 675 315 670Q334 665 346 665Q360 665 369.5 670Q379 675 386.5 681Q394 687 400 692Q406 697 413 697Q420 697 424 693.5Q428 690 432 685L457 648Q465 635 465 623Q465 612 457.5 598.5Q450 585 436.5 573.5Q423 562 403.5 554.5Q384 547 360 547Z" glyph-name="tilde" horiz-adv-x="415" unicode="˜" /><glyph d="M164 530Q132 530 110 551.5Q88 573 88 605Q88 637 110 658.5Q132 680 164 680Q196 680 218 658.5Q240 637 240 605Q240 573 218 551.5Q196 530 164 530ZM363 530Q331 530 309 551.5Q287 573 287 605Q287 637 309 658.5Q331 680 363 680Q395 680 417 658.5Q439 637 439 605Q439 573 417 551.5Q395 530 363 530Z" glyph-name="dieresis" horiz-adv-x="422" unicode="¨" /><glyph d="M278 806Q309 806 336 795.5Q363 785 382.5 766Q402 747 413 721.5Q424 696 424 666Q424 636 413 611Q402 586 382.5 567Q363 548 336 537.5Q309 527 278 527Q247 527 220 537.5Q193 548 173.5 567Q154 586 143 611Q132 636 132 666Q132 696 143 721.5Q154 747 173.5 766Q193 785 220 795.5Q247 806 278 806ZM278 604Q305 604 321.5 622Q338 640 338 666Q338 692 321.5 710.5Q305 729 278 729Q251 729 234.5 710.5Q218 692 218 666Q218 640 234.5 622Q251 604 278 604Z" glyph-name="ring" horiz-adv-x="348" unicode="˚" /><glyph d="M312 13 246 -157Q241 -171 224 -171H130Q122 -171 117 -165Q112 -159 116 -148L179 22Z" glyph-name="cedilla" horiz-adv-x="255" unicode="¸" /><glyph d="M506 731Q520 731 525 721Q530 711 524 701L436 550Q431 542 425.5 538Q420 534 411 534H353Q339 534 332.5 541.5Q326 549 330 563L372 713Q377 731 397 731ZM305 731Q319 731 324 721Q329 711 323 701L235 550Q230 542 224.5 538Q219 534 210 534H152Q121 534 129 563L171 713Q176 731 196 731Z" glyph-name="hungarumlaut" horiz-adv-x="466" unicode="˝" /><glyph d="M278 529Q197 529 154.5 570Q112 611 112 679V699Q112 706 116.5 710.5Q121 715 127 715H205Q211 715 215.5 710.5Q220 706 220 699V688Q220 661 236.5 646.5Q253 632 278 632Q303 632 320 646.5Q337 661 337 688V699Q337 706 341.5 710.5Q346 715 352 715H429Q445 715 445 699V679Q445 611 402 570Q359 529 278 529Z" glyph-name="breve" horiz-adv-x="386" unicode="˘" /><glyph d="M129 552Q120 552 114 558.5Q108 565 108 574V639Q108 648 114 654Q120 660 129 660H426Q435 660 441.5 654Q448 648 448 639V574Q448 565 441.5 558.5Q435 552 426 552Z" glyph-name="macron" horiz-adv-x="506" unicode="¯" /><glyph d="M244 530Q212 530 190 551.5Q168 573 168 605Q168 637 190 658.5Q212 680 244 680Q276 680 298 658.5Q320 637 320 605Q320 573 298 551.5Q276 530 244 530Z" glyph-name="dotaccent" horiz-adv-x="238" unicode="˙" /><glyph d="M301 267Q283 267 267.5 273.5Q252 280 240.5 291.5Q229 303 222.5 318.5Q216 334 216 351Q216 368 222.5 383.5Q229 399 240.5 410.5Q252 422 267.5 428.5Q283 435 301 435Q319 435 334.5 428.5Q350 422 361.5 410.5Q373 399 379.5 383.5Q386 368 386 351Q386 334 379.5 318.5Q373 303 361.5 291.5Q350 280 334.5 273.5Q319 267 301 267Z" glyph-name="periodcentered" horiz-adv-x="250" unicode="·" /><glyph d="M324 -142Q324 -110 340 -82.5Q356 -55 378 -34Q400 -13 423 2Q446 17 460 23L495 19L501 7Q475 -29 458.5 -59.5Q442 -90 442 -108Q442 -123 451 -134.5Q460 -146 486 -146Q496 -146 503.5 -145Q511 -144 518 -143Q526 -142 531 -147Q536 -152 534 -166L530 -202Q528 -221 502 -228Q476 -235 444 -235Q390 -235 357 -211Q324 -187 324 -142Z" glyph-name="ogonek" horiz-adv-x="317" unicode="˛" /><glyph d="M133 -59Q135 -51 139.5 -47Q144 -43 154 -43H246Q257 -43 260.5 -50.5Q264 -58 261 -66L207 -199Q204 -207 199.5 -211Q195 -215 185 -215H110Q99 -215 95.5 -208Q92 -201 94 -192Z" glyph-name="commaaccent" horiz-adv-x="255" unicode="" /><glyph d="M220 546Q206 546 201 556Q196 566 202 576L290 727Q300 743 315 743H373Q387 743 394 735.5Q401 728 397 714L355 564Q350 546 329 546H220Z" glyph-name="revcommaaccent" horiz-adv-x="264" unicode="" /><glyph d="M119 -10Q101 -10 85.5 -3.5Q70 3 58.5 14.5Q47 26 40.5 41.5Q34 57 34 74Q34 91 40.5 106.5Q47 122 58.5 133.5Q70 145 85.5 151.5Q101 158 119 158Q137 158 152.5 151.5Q168 145 179.5 133.5Q191 122 197.5 106.5Q204 91 204 74Q204 57 197.5 41.5Q191 26 179.5 14.5Q168 3 152.5 -3.5Q137 -10 119 -10Z" glyph-name="period" horiz-adv-x="238" unicode="." /><glyph d="M72 129Q77 145 94 145H198Q209 145 211.5 137.5Q214 130 211 122L124 -105Q121 -113 116.5 -117Q112 -121 102 -121H25Q14 -121 11.5 -113.5Q9 -106 11 -98Z" glyph-name="comma" horiz-adv-x="253" unicode="," /><glyph d="M130 -10Q112 -10 96.5 -3.5Q81 3 69.5 14.5Q58 26 51.5 41.5Q45 57 45 74Q45 91 51.5 106.5Q58 122 69.5 133.5Q81 145 96.5 151.5Q112 158 130 158Q148 158 163.5 151.5Q179 145 190.5 133.5Q202 122 208.5 106.5Q215 91 215 74Q215 57 208.5 41.5Q202 26 190.5 14.5Q179 3 163.5 -3.5Q148 -10 130 -10ZM130 314Q112 314 96.5 320.5Q81 327 69.5 338.5Q58 350 51.5 365.5Q45 381 45 398Q45 415 51.5 430.5Q58 446 69.5 457.5Q81 469 96.5 475.5Q112 482 130 482Q148 482 163.5 475.5Q179 469 190.5 457.5Q202 446 208.5 430.5Q215 415 215 398Q215 381 208.5 365.5Q202 350 190.5 338.5Q179 327 163.5 320.5Q148 314 130 314Z" glyph-name="colon" horiz-adv-x="260" unicode=":" /><glyph d="M72 129Q77 145 94 145H198Q209 145 211.5 137.5Q214 130 211 122L124 -105Q121 -113 116.5 -117Q112 -121 102 -121H25Q14 -121 11.5 -113.5Q9 -106 11 -98ZM130 314Q112 314 96.5 320.5Q81 327 69.5 338.5Q58 350 51.5 365.5Q45 381 45 398Q45 415 51.5 430.5Q58 446 69.5 457.5Q81 469 96.5 475.5Q112 482 130 482Q148 482 163.5 475.5Q179 469 190.5 457.5Q202 446 208.5 430.5Q215 415 215 398Q215 381 208.5 365.5Q202 350 190.5 338.5Q179 327 163.5 320.5Q148 314 130 314Z" glyph-name="semicolon" horiz-adv-x="263" unicode=";" /><glyph d="M119 -10Q101 -10 85.5 -3.5Q70 3 58.5 14.5Q47 26 40.5 41.5Q34 57 34 74Q34 91 40.5 106.5Q47 122 58.5 133.5Q70 145 85.5 151.5Q101 158 119 158Q137 158 152.5 151.5Q168 145 179.5 133.5Q191 122 197.5 106.5Q204 91 204 74Q204 57 197.5 41.5Q191 26 179.5 14.5Q168 3 152.5 -3.5Q137 -10 119 -10ZM447 -10Q429 -10 413.5 -3.5Q398 3 386.5 14.5Q375 26 368.5 41.5Q362 57 362 74Q362 91 368.5 106.5Q375 122 386.5 133.5Q398 145 413.5 151.5Q429 158 447 158Q465 158 480.5 151.5Q496 145 507.5 133.5Q519 122 525.5 106.5Q532 91 532 74Q532 57 525.5 41.5Q519 26 507.5 14.5Q496 3 480.5 -3.5Q465 -10 447 -10ZM776 -10Q758 -10 742.5 -3.5Q727 3 715.5 14.5Q704 26 697.5 41.5Q691 57 691 74Q691 91 697.5 106.5Q704 122 715.5 133.5Q727 145 742.5 151.5Q758 158 776 158Q794 158 809.5 151.5Q825 145 836.5 133.5Q848 122 854.5 106.5Q861 91 861 74Q861 57 854.5 41.5Q848 26 836.5 14.5Q825 3 809.5 -3.5Q794 -10 776 -10Z" glyph-name="ellipsis" horiz-adv-x="895" unicode="…" /><glyph d="M244 714Q296 714 336 698.5Q376 683 403 657Q430 631 444 597.5Q458 564 458 529Q458 478 435.5 439.5Q413 401 385.5 369Q358 337 335.5 309Q313 281 313 253V246Q313 236 307 231Q301 226 293 226H205Q197 226 191 232Q185 238 185 247V269Q185 306 206 338Q227 370 252.5 399Q278 428 299 457Q320 486 320 518Q320 549 297.5 571.5Q275 594 234 594Q202 594 176.5 577Q151 560 131 532Q123 521 111 520Q99 519 88 527L42 559Q34 564 28 575.5Q22 587 36 610Q48 629 67.5 648Q87 667 113 681.5Q139 696 171.5 705Q204 714 244 714ZM249 -10Q231 -10 215.5 -3.5Q200 3 188.5 14.5Q177 26 170.5 41.5Q164 57 164 74Q164 91 170.5 106.5Q177 122 188.5 133.5Q200 145 215.5 151.5Q231 158 249 158Q267 158 282.5 151.5Q298 145 309.5 133.5Q321 122 327.5 106.5Q334 91 334 74Q334 57 327.5 41.5Q321 26 309.5 14.5Q298 3 282.5 -3.5Q267 -10 249 -10Z" glyph-name="question" horiz-adv-x="498" unicode="?" /><glyph d="M206 258Q206 250 199.5 243.5Q193 237 184 237H95Q86 237 80 243.5Q74 250 74 258L71 679Q71 687 77.5 693.5Q84 700 93 700H186Q195 700 201.5 693.5Q208 687 208 679ZM139 -10Q121 -10 105.5 -3.5Q90 3 78.5 14.5Q67 26 60.5 41.5Q54 57 54 74Q54 91 60.5 106.5Q67 122 78.5 133.5Q90 145 105.5 151.5Q121 158 139 158Q157 158 172.5 151.5Q188 145 199.5 133.5Q211 122 217.5 106.5Q224 91 224 74Q224 57 217.5 41.5Q211 26 199.5 14.5Q188 3 172.5 -3.5Q157 -10 139 -10Z" glyph-name="exclam" horiz-adv-x="278" unicode="!" /><glyph d="M253 -14Q200 -14 160 1.5Q120 17 93 43Q66 69 52.5 102.5Q39 136 39 171Q39 222 61.5 260.5Q84 299 111.5 331Q139 363 161.5 390.5Q184 418 184 447V454Q184 464 190 469Q196 474 204 474H292Q300 474 306 468Q312 462 312 453V431Q312 393 291 361.5Q270 330 244.5 301Q219 272 198 243Q177 214 177 182Q177 151 199.5 128.5Q222 106 263 106Q295 106 320.5 123Q346 140 366 168Q374 179 386 180Q398 181 409 173L455 141Q463 136 469 124.5Q475 113 461 90Q449 70 429.5 51.5Q410 33 384 18.5Q358 4 325.5 -5Q293 -14 253 -14ZM248 710Q266 710 281.5 703.5Q297 697 308.5 685.5Q320 674 326.5 658.5Q333 643 333 626Q333 609 326.5 593.5Q320 578 308.5 566.5Q297 555 281.5 548.5Q266 542 248 542Q230 542 214.5 548.5Q199 555 187.5 566.5Q176 578 169.5 593.5Q163 609 163 626Q163 643 169.5 658.5Q176 674 187.5 685.5Q199 697 214.5 703.5Q230 710 248 710Z" glyph-name="questiondown.alt" horiz-adv-x="497" unicode="" /><glyph d="M213 21Q213 13 206.5 6.5Q200 0 191 0H98Q89 0 82.5 6.5Q76 13 76 21L79 442Q79 450 85 456.5Q91 463 100 463H189Q198 463 204.5 456.5Q211 450 211 442ZM144 710Q162 710 177.5 703.5Q193 697 204.5 685.5Q216 674 222.5 658.5Q229 643 229 626Q229 609 222.5 593.5Q216 578 204.5 566.5Q193 555 177.5 548.5Q162 542 144 542Q126 542 110.5 548.5Q95 555 83.5 566.5Q72 578 65.5 593.5Q59 609 59 626Q59 643 65.5 658.5Q72 674 83.5 685.5Q95 697 110.5 703.5Q126 710 144 710Z" glyph-name="exclamdown.alt" horiz-adv-x="289" unicode="" /><glyph d="M253 -14Q200 -14 160 1.5Q120 17 93 43Q66 69 52.5 102.5Q39 136 39 171Q39 222 61.5 260.5Q84 299 111.5 331Q139 363 161.5 390.5Q184 418 184 447V454Q184 464 190 469Q196 474 204 474H292Q300 474 306 468Q312 462 312 453V431Q312 393 291 361.5Q270 330 244.5 301Q219 272 198 243Q177 214 177 182Q177 151 199.5 128.5Q222 106 263 106Q295 106 320.5 123Q346 140 366 168Q374 179 386 180Q398 181 409 173L455 141Q463 136 469 124.5Q475 113 461 90Q449 70 429.5 51.5Q410 33 384 18.5Q358 4 325.5 -5Q293 -14 253 -14ZM248 710Q266 710 281.5 703.5Q297 697 308.5 685.5Q320 674 326.5 658.5Q333 643 333 626Q333 609 326.5 593.5Q320 578 308.5 566.5Q297 555 281.5 548.5Q266 542 248 542Q230 542 214.5 548.5Q199 555 187.5 566.5Q176 578 169.5 593.5Q163 609 163 626Q163 643 169.5 658.5Q176 674 187.5 685.5Q199 697 214.5 703.5Q230 710 248 710Z" glyph-name="questiondown" horiz-adv-x="488" unicode="¿" /><glyph d="M213 21Q213 13 206.5 6.5Q200 0 191 0H98Q89 0 82.5 6.5Q76 13 76 21L79 442Q79 450 85 456.5Q91 463 100 463H189Q198 463 204.5 456.5Q211 450 211 442ZM144 710Q162 710 177.5 703.5Q193 697 204.5 685.5Q216 674 222.5 658.5Q229 643 229 626Q229 609 222.5 593.5Q216 578 204.5 566.5Q193 555 177.5 548.5Q162 542 144 542Q126 542 110.5 548.5Q95 555 83.5 566.5Q72 578 65.5 593.5Q59 609 59 626Q59 643 65.5 658.5Q72 674 83.5 685.5Q95 697 110.5 703.5Q126 710 144 710Z" glyph-name="exclamdown" horiz-adv-x="262" unicode="¡" /><glyph d="M169 315Q169 205 196 108Q223 11 269 -76Q274 -86 277.5 -93Q281 -100 281 -106Q281 -120 264 -120H216Q203 -120 194.5 -114.5Q186 -109 179 -101Q152 -68 125 -22Q98 24 76.5 79Q55 134 41.5 194.5Q28 255 28 315Q28 375 41.5 435.5Q55 496 76.5 550.5Q98 605 125 651.5Q152 698 179 731Q186 739 194.5 744.5Q203 750 216 750H264Q281 750 281 736Q281 730 277.5 723Q274 716 269 706Q223 619 196 522Q169 425 169 315Z" glyph-name="parenleft" horiz-adv-x="301" unicode="(" /><glyph d="M132 315Q132 425 105 522Q78 619 32 706Q27 716 23.5 723Q20 730 20 736Q20 750 37 750H85Q98 750 106.5 744.5Q115 739 122 731Q149 698 176 651.5Q203 605 224.5 550.5Q246 496 259.5 435.5Q273 375 273 315Q273 255 259.5 194.5Q246 134 224.5 79Q203 24 176 -22Q149 -68 122 -101Q115 -109 106.5 -114.5Q98 -120 85 -120H37Q20 -120 20 -106Q20 -100 23.5 -93Q27 -86 32 -76Q78 11 105 108Q132 205 132 315Z" glyph-name="parenright" horiz-adv-x="302" unicode=")" /><glyph d="M222 33Q222 11 231 2Q240 -7 259 -7H306Q314 -7 320.5 -13Q327 -19 327 -28V-82Q327 -91 320.5 -97Q314 -103 306 -103H212Q157 -103 123.5 -74.5Q90 -46 90 22V247Q90 268 81.5 275.5Q73 283 56 283H41Q34 283 26 288Q18 293 18 308V355Q18 370 26 375Q34 380 41 380H56Q73 380 81.5 387.5Q90 395 90 416V625Q90 693 123.5 721.5Q157 750 212 750H306Q314 750 320.5 743.5Q327 737 327 729V674Q327 666 320.5 659.5Q314 653 306 653H259Q240 653 231 644.5Q222 636 222 613V433Q222 403 212 383.5Q202 364 189.5 352.5Q177 341 165 336.5Q153 332 149 331Q153 330 165 325.5Q177 321 189.5 310Q202 299 212 279.5Q222 260 222 230V33Z" glyph-name="braceleft" horiz-adv-x="343" unicode="{" /><glyph d="M121 230Q121 260 130.5 279.5Q140 299 153 310Q166 321 177.5 325.5Q189 330 194 331Q189 332 177.5 336.5Q166 341 153 352.5Q140 364 130.5 383.5Q121 403 121 433V613Q121 636 112 644.5Q103 653 84 653H37Q29 653 22.5 659.5Q16 666 16 674V729Q16 737 22.5 743.5Q29 750 37 750H131Q186 750 219.5 721.5Q253 693 253 625V416Q253 395 261.5 387.5Q270 380 287 380H302Q309 380 317 375Q325 370 325 355V308Q325 293 317 288Q309 283 302 283H287Q270 283 261.5 275.5Q253 268 253 247V22Q253 -46 219.5 -74.5Q186 -103 131 -103H37Q29 -103 22.5 -97Q16 -91 16 -82V-28Q16 -19 22.5 -13Q29 -7 37 -7H84Q103 -7 112 2Q121 11 121 33Z" glyph-name="braceright" horiz-adv-x="343" unicode="}" /><glyph d="M327 674Q327 665 321 659Q315 653 306 653H193V-8H306Q315 -8 321 -14Q327 -20 327 -28V-83Q327 -92 321 -98Q315 -104 306 -104H91Q83 -104 76.5 -98Q70 -92 70 -84V730Q70 738 76.5 744Q83 750 91 750H306Q315 750 321 743.5Q327 737 327 729Z" glyph-name="bracketleft" horiz-adv-x="341" unicode="[" /><glyph d="M14 729Q14 737 20 743.5Q26 750 35 750H250Q258 750 264.5 744Q271 738 271 730V-84Q271 -92 264.5 -98Q258 -104 250 -104H35Q26 -104 20 -98Q14 -92 14 -83V-28Q14 -20 20 -14Q26 -8 35 -8H148V653H35Q26 653 20 659Q14 665 14 674V729Z" glyph-name="bracketright" horiz-adv-x="341" unicode="]" /><glyph d="M324 684Q327 692 331.5 696Q336 700 346 700H435Q446 700 448.5 692.5Q451 685 448 677L146 -105Q143 -113 138.5 -117Q134 -121 124 -121H35Q24 -121 21.5 -113.5Q19 -106 22 -98Z" glyph-name="slash" horiz-adv-x="469" unicode="/" /><glyph d="M146 684 448 -98Q451 -106 448.5 -113.5Q446 -121 435 -121H346Q336 -121 331.5 -117Q327 -113 324 -105L22 677Q19 685 21.5 692.5Q24 700 35 700H124Q134 700 138.5 696Q143 692 146 684Z" glyph-name="backslash" horiz-adv-x="469" unicode="\" /><glyph d="M27 -178Q18 -178 11.5 -171.5Q5 -165 5 -156V-79Q5 -70 11.5 -64Q18 -58 27 -58H302Q311 -58 317.5 -64Q324 -70 324 -79V-156Q324 -165 317.5 -171.5Q311 -178 302 -178Z" glyph-name="underscore" horiz-adv-x="329" unicode="_" /><glyph d="M70 222Q61 222 55 228.5Q49 235 49 244V334Q49 343 55 349.5Q61 356 70 356H302Q311 356 317.5 349.5Q324 343 324 334V244Q324 235 317.5 228.5Q311 222 302 222Z" glyph-name="hyphen" horiz-adv-x="373" unicode="-" /><glyph d="M70 222Q61 222 55 228.5Q49 235 49 244V334Q49 343 55 349.5Q61 356 70 356H566Q575 356 581.5 349.5Q588 343 588 334V244Q588 235 581.5 228.5Q575 222 566 222Z" glyph-name="endash" horiz-adv-x="637" unicode="–" /><glyph d="M70 222Q61 222 55 228.5Q49 235 49 244V334Q49 343 55 349.5Q61 356 70 356H920Q929 356 935.5 349.5Q942 343 942 334V244Q942 235 935.5 228.5Q929 222 920 222Z" glyph-name="emdash" horiz-adv-x="991" unicode="—" /><glyph d="M150 447Q150 439 144 433Q138 427 130 427H93Q85 427 78.5 433Q72 439 72 447V805Q72 813 78.5 819Q85 825 93 825H130Q138 825 144 819Q150 813 150 805ZM150 -104Q150 -112 144 -118.5Q138 -125 130 -125H93Q85 -125 78.5 -118.5Q72 -112 72 -104V253Q72 262 78.5 268Q85 274 93 274H130Q138 274 144 268Q150 262 150 253Z" glyph-name="brokenbar" horiz-adv-x="222" unicode="¦" /><glyph d="M91 -125Q83 -125 76.5 -118.5Q70 -112 70 -104V805Q70 813 76.5 819Q83 825 91 825H127Q136 825 142 819Q148 813 148 805V-104Q148 -112 142 -118.5Q136 -125 127 -125Z" glyph-name="bar" horiz-adv-x="218" unicode="|" /><glyph d="M249 27Q253 16 247.5 8Q242 0 234 0H154Q145 0 136.5 3.5Q128 7 123 18L43 224Q40 232 39.5 240.5Q39 249 43 257L123 464Q127 475 136 478.5Q145 482 154 482H234Q242 482 247.5 473.5Q253 465 249 455L171 241ZM470 27Q474 16 468.5 8Q463 0 455 0H375Q366 0 357.5 3.5Q349 7 344 18L264 224Q261 232 260.5 240.5Q260 249 264 257L344 464Q348 475 357 478.5Q366 482 375 482H455Q463 482 468.5 473.5Q474 465 470 455L392 241Z" glyph-name="guillemotleft" horiz-adv-x="516" unicode="«" /><glyph d="M267 455Q263 465 268.5 473.5Q274 482 282 482H362Q371 482 380 478.5Q389 475 393 464L473 257Q477 249 476.5 240.5Q476 232 473 224L393 18Q388 7 379.5 3.5Q371 0 362 0H282Q274 0 268.5 8Q263 16 267 27L345 241ZM46 455Q42 465 47.5 473.5Q53 482 61 482H141Q150 482 159 478.5Q168 475 172 464L252 257Q256 249 255.5 240.5Q255 232 252 224L172 18Q167 7 158.5 3.5Q150 0 141 0H61Q53 0 47.5 8Q42 16 46 27L124 241Z" glyph-name="guillemotright" horiz-adv-x="516" unicode="»" /><glyph d="M249 27Q253 16 247.5 8Q242 0 234 0H154Q145 0 136.5 3.5Q128 7 123 18L43 224Q40 232 39.5 240.5Q39 249 43 257L123 464Q127 475 136 478.5Q145 482 154 482H234Q242 482 247.5 473.5Q253 465 249 455L171 241Z" glyph-name="guilsinglleft" horiz-adv-x="296" unicode="‹" /><glyph d="M46 455Q42 465 47.5 473.5Q53 482 61 482H141Q150 482 159 478.5Q168 475 172 464L252 257Q256 249 255.5 240.5Q255 232 252 224L172 18Q167 7 158.5 3.5Q150 0 141 0H61Q53 0 47.5 8Q42 16 46 27L124 241Z" glyph-name="guilsinglright" horiz-adv-x="296" unicode="›" /><glyph d="M72 129Q77 145 94 145H198Q209 145 211.5 137.5Q214 130 211 122L124 -105Q121 -113 116.5 -117Q112 -121 102 -121H25Q14 -121 11.5 -113.5Q9 -106 11 -98Z" glyph-name="quotesinglbase" horiz-adv-x="253" unicode="‚" /><glyph d="M72 129Q77 145 94 145H198Q209 145 211.5 137.5Q214 130 211 122L124 -105Q121 -113 116.5 -117Q112 -121 102 -121H25Q14 -121 11.5 -113.5Q9 -106 11 -98ZM282 129Q287 145 304 145H408Q419 145 421.5 137.5Q424 130 421 122L334 -105Q331 -113 326.5 -117Q322 -121 312 -121H235Q224 -121 221.5 -113.5Q219 -106 221 -98Z" glyph-name="quotedblbase" horiz-adv-x="463" unicode="„" /><glyph d="M181 450Q176 434 159 434H55Q44 434 41.5 441.5Q39 449 42 457L129 684Q132 692 136.5 696Q141 700 151 700H228Q239 700 241.5 692.5Q244 685 242 677Z" glyph-name="quoteleft" horiz-adv-x="253" unicode="‘" /><glyph d="M391 450Q386 434 369 434H265Q254 434 251.5 441.5Q249 449 252 457L339 684Q342 692 346.5 696Q351 700 361 700H438Q449 700 451.5 692.5Q454 685 452 677ZM181 450Q176 434 159 434H55Q44 434 41.5 441.5Q39 449 42 457L129 684Q132 692 136.5 696Q141 700 151 700H228Q239 700 241.5 692.5Q244 685 242 677Z" glyph-name="quotedblleft" horiz-adv-x="463" unicode="“" /><glyph d="M72 684Q77 700 94 700H198Q209 700 211.5 692.5Q214 685 211 677L124 450Q121 442 116.5 438Q112 434 102 434H25Q14 434 11.5 441.5Q9 449 11 457Z" glyph-name="quoteright" horiz-adv-x="253" unicode="’" /><glyph d="M72 684Q77 700 94 700H198Q209 700 211.5 692.5Q214 685 211 677L124 450Q121 442 116.5 438Q112 434 102 434H25Q14 434 11.5 441.5Q9 449 11 457ZM282 684Q287 700 304 700H408Q419 700 421.5 692.5Q424 685 421 677L334 450Q331 442 326.5 438Q322 434 312 434H235Q224 434 221.5 441.5Q219 449 221 457Z" glyph-name="quotedblright" horiz-adv-x="463" unicode="”" /><glyph d="M72 684Q77 700 94 700H198Q209 700 211.5 692.5Q214 685 211 677L124 450Q121 442 116.5 438Q112 434 102 434H25Q14 434 11.5 441.5Q9 449 11 457Z" glyph-name="quotesingle" horiz-adv-x="253" unicode="'" /><glyph d="M72 684Q77 700 94 700H198Q209 700 211.5 692.5Q214 685 211 677L124 450Q121 442 116.5 438Q112 434 102 434H25Q14 434 11.5 441.5Q9 449 11 457ZM282 684Q287 700 304 700H408Q419 700 421.5 692.5Q424 685 421 677L334 450Q331 442 326.5 438Q322 434 312 434H235Q224 434 221.5 441.5Q219 449 221 457Z" glyph-name="quotedbl" horiz-adv-x="463" unicode="&quot;" /><glyph d="M323 754Q326 767 341 767H434Q442 767 444 761Q446 755 444 749L375 567Q370 554 357 554H285Q277 554 274.5 560.5Q272 567 274 573Z" glyph-name="apostrophemod" horiz-adv-x="364" unicode="" /></font>
</defs>
</svg>
