<?xml version="1.0" standalone="no"?>
<!DOCTYPE svg
  PUBLIC '-//W3C//DTD SVG 1.1//EN'
  'http://www.w3.org/Graphics/SVG/1.1/DTD/svg11.dtd'><svg version="1.1" xmlns="http://www.w3.org/2000/svg"><defs><font horiz-adv-x="0" id="font"><font-face ascent="750" bbox="-122 -244 4647 993" cap-height="700" descent="-250" font-family="Qualcomm Next WEB" font-stretch="normal" font-style="normal" font-weight="700" units-per-em="1000" x-height="472" /><missing-glyph d="" horiz-adv-x="0" /><glyph d="" glyph-name=".null" horiz-adv-x="0" unicode="" /><glyph d="" glyph-name="nonmarkingreturn" horiz-adv-x="0" unicode="" /><glyph d="" glyph-name="space" horiz-adv-x="227" unicode=" " /><glyph d="" glyph-name="uni00A0" horiz-adv-x="225" unicode=" " /><glyph d="M491 188 178 188L114 17Q107 0 94 0H25Q16 0 11.5 6.5Q7 13 11 24L266 682Q270 691 276.5 695.5Q283 700 291 700H384Q392 700 399 695.5Q406 691 410 682L665 25Q670 14 665 7Q660 0 651 0H577Q563 0 557 17ZM210 272 459 272L336 595H332Z" glyph-name="A" horiz-adv-x="676" unicode="A" /><glyph d="M387 700Q445 700 486 684Q527 668 553 643Q579 618 591 587Q603 556 603 526Q603 471 576 432.5Q549 394 504 376Q571 356 606 308Q641 260 641 200Q641 161 626.5 125Q612 89 583 61Q554 33 510.5 16.5Q467 0 410 0H95Q87 0 82 5.5Q77 11 77 19V681Q77 689 82 694.5Q87 700 95 700ZM500 513Q500 563 467 591Q434 619 377 619H177V406H377Q434 406 467 434Q500 462 500 513ZM177 328 177 81H400Q427 81 452 89Q477 97 496 112.5Q515 128 526.5 151.5Q538 175 538 205Q538 234 527 257Q516 280 497 295.5Q478 311 453 319.5Q428 328 400 328Z" glyph-name="B" horiz-adv-x="673" unicode="B" /><glyph d="M393 -13Q318 -13 252 14.5Q186 42 137.5 90.5Q89 139 61 205.5Q33 272 33 350Q33 428 61 494.5Q89 561 137.5 609.5Q186 658 252 685.5Q318 713 393 713Q449 713 501 698Q553 683 596.5 655Q640 627 673 586.5Q706 546 724 495Q726 489 724 483.5Q722 478 713 476L644 461Q634 459 630 464Q626 469 624 475Q594 541 535.5 581.5Q477 622 394 622Q338 622 290.5 601Q243 580 208.5 543.5Q174 507 155 457.5Q136 408 136 350Q136 292 155 242.5Q174 193 208.5 156.5Q243 120 290.5 99Q338 78 394 78Q477 78 535.5 118.5Q594 159 624 225Q626 231 630 236Q634 241 644 239L713 224Q722 222 724 216.5Q726 211 724 205Q706 154 673 113.5Q640 73 596.5 45Q553 17 501 2Q449 -13 393 -13Z" glyph-name="C" horiz-adv-x="743" unicode="C" /><glyph d="M331 700Q418 700 486 674.5Q554 649 601.5 603Q649 557 673.5 492.5Q698 428 698 350Q698 272 673.5 207.5Q649 143 601.5 97Q554 51 486 25.5Q418 0 331 0H95Q87 0 82 5.5Q77 11 77 19V681Q77 689 82 694.5Q87 700 95 700ZM337 92Q394 92 441.5 110Q489 128 522.5 161.5Q556 195 575 242.5Q594 290 594 350Q594 410 575 458Q556 506 522.5 539.5Q489 573 441.5 590.5Q394 608 337 608H177V92Z" glyph-name="D" horiz-adv-x="733" unicode="D" /><glyph d="M571 700Q579 700 584.5 694.5Q590 689 590 681V627Q590 619 584.5 613.5Q579 608 571 608H177V398H380Q399 398 399 379V328Q399 320 393.5 314Q388 308 380 308H177V92H575Q583 92 588.5 86.5Q594 81 594 73V19Q594 11 588.5 5.5Q583 0 575 0H95Q87 0 82 5.5Q77 11 77 19V681Q77 689 82 694.5Q87 700 95 700Z" glyph-name="E" horiz-adv-x="619" unicode="E" /><glyph d="M469 304Q469 296 463.5 290.5Q458 285 450 285H177V19Q177 11 171 5.5Q165 0 157 0H95Q87 0 82 5.5Q77 11 77 19V681Q77 689 82 694.5Q87 700 95 700H546Q554 700 559.5 694.5Q565 689 565 681V627Q565 619 559.5 613.5Q554 608 546 608H177V375H450Q469 375 469 356Z" glyph-name="F" horiz-adv-x="582" unicode="F" /><glyph d="M397 713Q454 713 506.5 698Q559 683 603 655Q647 627 680.5 586.5Q714 546 733 495Q735 490 733.5 484Q732 478 722 476L654 461Q644 459 640 464Q636 469 634 475Q602 542 542 582Q482 622 397 622Q341 622 293 601Q245 580 210 543Q175 506 155.5 456Q136 406 136 349Q136 290 155.5 240.5Q175 191 209.5 154.5Q244 118 292 97.5Q340 77 397 77Q444 77 483.5 91.5Q523 106 553 130Q583 154 603 185.5Q623 217 631 250H417Q409 250 403 255.5Q397 261 397 269V313Q397 321 403 326Q409 331 417 331H709Q717 331 722.5 326Q728 321 728 313V19Q728 11 722.5 5.5Q717 0 709 0H656Q648 0 642 5.5Q636 11 636 19V119Q623 95 601 71.5Q579 48 548 29.5Q517 11 476 -1Q435 -13 384 -13Q309 -13 245 14.5Q181 42 133.5 90.5Q86 139 59.5 205.5Q33 272 33 350Q33 428 61.5 494.5Q90 561 139 609.5Q188 658 254.5 685.5Q321 713 397 713Z" glyph-name="G" horiz-adv-x="777" unicode="G" /><glyph d="M673 19Q673 11 667.5 5.5Q662 0 654 0H592Q584 0 578.5 5.5Q573 11 573 19V308H177V19Q177 11 171.5 5.5Q166 0 158 0H95Q87 0 82 5.5Q77 11 77 19V681Q77 689 82 694.5Q87 700 95 700H158Q166 700 171.5 694.5Q177 689 177 681V398H573V681Q573 689 578.5 694.5Q584 700 592 700H654Q662 700 667.5 694.5Q673 689 673 681Z" glyph-name="H" horiz-adv-x="750" unicode="H" /><glyph d="M95 0Q87 0 82 5.5Q77 11 77 19V681Q77 689 82 694.5Q87 700 95 700H158Q166 700 171.5 694.5Q177 689 177 681V19Q177 11 171.5 5.5Q166 0 158 0Z" glyph-name="I" horiz-adv-x="254" unicode="I" /><glyph d="M537 226Q537 171 517.5 127Q498 83 463.5 52Q429 21 382 4Q335 -13 279 -13Q223 -13 175.5 3.5Q128 20 94 50Q60 80 41 123.5Q22 167 22 221V264Q22 272 27.5 277Q33 282 41 282H102Q110 282 116 277Q122 272 122 264V227Q122 195 132 167Q142 139 162 119Q182 99 211 87.5Q240 76 279 76Q318 76 347.5 88Q377 100 397 120.5Q417 141 427 169Q437 197 437 230V681Q437 689 442.5 694.5Q448 700 456 700H518Q526 700 531.5 694.5Q537 689 537 681V226Z" glyph-name="J" horiz-adv-x="607" unicode="J" /><glyph d="M358 368 638 20Q643 12 640 6Q637 0 629 0H548Q529 0 518 15L277 317H177V19Q177 11 171 5.5Q165 0 157 0H95Q87 0 82 5.5Q77 11 77 19V681Q77 689 82 694.5Q87 700 95 700H157Q165 700 171 694.5Q177 689 177 681V405H276L521 684Q528 692 535 696Q542 700 553 700H631Q640 700 642.5 692.5Q645 685 640 679Z" glyph-name="K" horiz-adv-x="645" unicode="K" /><glyph d="M542 19Q542 11 536.5 5.5Q531 0 523 0H95Q87 0 82 5.5Q77 11 77 19V681Q77 689 82 694.5Q87 700 95 700H157Q165 700 171 694.5Q177 689 177 681V92H523Q531 92 536.5 86.5Q542 81 542 73Z" glyph-name="L" horiz-adv-x="550" unicode="L" /><glyph d="M415 122Q406 122 399.5 125.5Q393 129 388 140L175 580V19Q175 11 170 5.5Q165 0 157 0H95Q87 0 82 5.5Q77 11 77 19V681Q77 689 82 694.5Q87 700 95 700H208Q226 700 235 683L441 252L647 683Q652 692 659.5 696Q667 700 675 700H785Q793 700 798.5 694.5Q804 689 804 681V19Q804 11 798.5 5.5Q793 0 785 0H724Q705 0 705 19V580L491 140Q486 129 479.5 125.5Q473 122 464 122Z" glyph-name="M" horiz-adv-x="881" unicode="M" /><glyph d="M177 542 177 19Q177 11 171.5 5.5Q166 0 158 0H95Q87 0 82 5.5Q77 11 77 19V681Q77 689 82 694.5Q87 700 95 700H176Q193 700 204 685L548 164V681Q548 689 553 694.5Q558 700 566 700H628Q636 700 642 694.5Q648 689 648 681V19Q648 11 642 5.5Q636 0 628 0H560Q536 0 525 18Z" glyph-name="N" horiz-adv-x="725" unicode="N" /><glyph d="M754 350Q754 272 725.5 205.5Q697 139 648.5 90.5Q600 42 534 14.5Q468 -13 393 -13Q318 -13 252.5 14.5Q187 42 138 90.5Q89 139 61 205.5Q33 272 33 350Q33 428 61 494.5Q89 561 138 609.5Q187 658 252.5 685.5Q318 713 393 713Q468 713 534 685.5Q600 658 648.5 609.5Q697 561 725.5 494.5Q754 428 754 350ZM650 350Q650 408 631 457.5Q612 507 578 543.5Q544 580 496.5 601Q449 622 393 622Q337 622 289.5 601Q242 580 208 543.5Q174 507 155 457.5Q136 408 136 350Q136 292 155 242.5Q174 193 208 156.5Q242 120 289.5 99Q337 78 393 78Q449 78 496.5 99Q544 120 578 156.5Q612 193 631 242.5Q650 292 650 350Z" glyph-name="O" horiz-adv-x="787" unicode="O" /><glyph d="M177 19Q177 11 171.5 5.5Q166 0 158 0H95Q87 0 82 5.5Q77 11 77 19V681Q77 689 82 694.5Q87 700 95 700H347Q409 700 455.5 682Q502 664 532.5 633.5Q563 603 578.5 562.5Q594 522 594 477Q594 432 578.5 391Q563 350 532 319Q501 288 455 270Q409 252 347 252H177ZM342 341Q373 341 400 350Q427 359 447 376Q467 393 479 418.5Q491 444 491 477Q491 510 479 535Q467 560 447 577Q427 594 400 603Q373 612 342 612H177V341Z" glyph-name="P" horiz-adv-x="613" unicode="P" /><glyph d="M754 350Q754 256 714 180Q674 104 607 55L663 -91Q668 -105 661.5 -112.5Q655 -120 644 -120H591Q571 -120 564 -102L521 9Q491 -2 459 -7.5Q427 -13 393 -13Q318 -13 252.5 14.5Q187 42 138 90.5Q89 139 61 205.5Q33 272 33 350Q33 428 61 494.5Q89 561 138 609.5Q187 658 252.5 685.5Q318 713 393 713Q468 713 534 685.5Q600 658 648.5 609.5Q697 561 725.5 494.5Q754 428 754 350ZM650 350Q650 408 631 457.5Q612 507 578 543.5Q544 580 496.5 601Q449 622 393 622Q337 622 289.5 601Q242 580 208 543.5Q174 507 155 457.5Q136 408 136 350Q136 292 155 242.5Q174 193 208 156.5Q242 120 289.5 99Q337 78 393 78Q443 78 488 95L428 251Q423 265 430 272.5Q437 280 448 280H498Q512 280 518.5 274.5Q525 269 528 261L571 149Q608 186 629 237.5Q650 289 650 350Z" glyph-name="Q" horiz-adv-x="787" unicode="Q" /><glyph d="M385 367Q450 367 487.5 401.5Q525 436 525 491Q525 545 487.5 578.5Q450 612 385 612H177V367ZM560 0Q549 0 543 4.5Q537 9 531 19L375 284H177V19Q177 11 171.5 5.5Q166 0 158 0H95Q87 0 82 5.5Q77 11 77 19V681Q77 689 82 694.5Q87 700 95 700H390Q445 700 489.5 685Q534 670 565 643Q596 616 612.5 578.5Q629 541 629 496Q629 471 622 442Q615 413 597.5 386Q580 359 550.5 336.5Q521 314 477 302L645 22Q650 14 646 7Q642 0 633 0Z" glyph-name="R" horiz-adv-x="675" unicode="R" /><glyph d="M303 713Q384 713 445 687Q506 661 543 623Q555 611 553 601.5Q551 592 544 585L514 556Q496 538 474 556Q437 588 395 607Q353 626 300 626Q270 626 243 619Q216 612 196 598Q176 584 164 564Q152 544 152 519Q152 489 171.5 464Q191 439 251 423L397 383Q484 360 528.5 314.5Q573 269 573 194Q573 156 556.5 119Q540 82 507 52.5Q474 23 423 5Q372 -13 303 -13Q251 -13 208.5 -3Q166 7 132.5 23Q99 39 74.5 59Q50 79 35 98Q27 108 26 119.5Q25 131 36 139L75 169Q86 177 95 174Q104 171 112 162Q142 128 190 101.5Q238 75 308 75Q348 75 377.5 84.5Q407 94 426.5 109.5Q446 125 456 145Q466 165 466 186Q466 228 438 253.5Q410 279 353 294L211 332Q125 354 86 400.5Q47 447 47 513Q47 557 66 594Q85 631 119.5 657.5Q154 684 200.5 698.5Q247 713 303 713Z" glyph-name="S" horiz-adv-x="603" unicode="S" /><glyph d="M11 681Q11 689 16 694.5Q21 700 29 700H584Q592 700 597.5 694.5Q603 689 603 681V627Q603 619 597.5 613.5Q592 608 584 608H357V19Q357 11 351.5 5.5Q346 0 338 0H274Q266 0 260.5 5.5Q255 11 255 19V608H29Q21 608 16 613.5Q11 619 11 627Z" glyph-name="T" horiz-adv-x="614" unicode="T" /><glyph d="M629 244Q629 180 607 132Q585 84 547 51.5Q509 19 458 3Q407 -13 349 -13Q291 -13 240.5 3Q190 19 152 51Q114 83 92 131Q70 179 70 243V681Q70 689 75 694.5Q80 700 88 700H150Q158 700 163.5 694.5Q169 689 169 681V247Q169 166 218.5 121.5Q268 77 349 77Q389 77 422 88.5Q455 100 479 122Q503 144 516.5 175.5Q530 207 530 247V681Q530 689 535.5 694.5Q541 700 549 700H610Q618 700 623.5 694.5Q629 689 629 681V244Z" glyph-name="U" horiz-adv-x="699" unicode="U" /><glyph d="M291 0Q283 0 276 4.5Q269 9 265 18L10 675Q5 686 10 693Q15 700 24 700H98Q112 700 118 683L339 105H343L561 683Q568 700 581 700H650Q659 700 663.5 693.5Q668 687 664 676L409 18Q401 0 384 0Z" glyph-name="V" horiz-adv-x="674" unicode="V" /><glyph d="M826 18Q823 9 815 4.5Q807 0 802 0H708Q701 0 693.5 4.5Q686 9 684 18L526 553L367 18Q365 9 357.5 4.5Q350 0 343 0H245Q238 0 231 4.5Q224 9 221 18L14 675Q10 687 16.5 693.5Q23 700 32 700H103Q111 700 116 695Q121 690 123 682L297 117L464 683Q469 700 485 700H565Q573 700 579 695Q585 690 587 683L754 121L927 682Q929 690 934 695Q939 700 947 700H1015Q1025 700 1031 694.5Q1037 689 1032 675L826 18Z" glyph-name="W" horiz-adv-x="1047" unicode="W" /><glyph d="M123 15Q118 8 112 4Q106 0 95 0H18Q7 0 4 7.5Q1 15 6 22L243 358L25 678Q20 685 24.5 692.5Q29 700 38 700H112Q122 700 127.5 695.5Q133 691 138 685L312 432L485 685Q489 691 495 695.5Q501 700 511 700H584Q595 700 597.5 692.5Q600 685 595 678L374 362L611 22Q616 15 613 7.5Q610 0 600 0H519Q509 0 503.5 4.5Q498 9 493 16L307 283L123 15Z" glyph-name="X" horiz-adv-x="618" unicode="X" /><glyph d="M264 286 14 676Q8 684 12 692Q16 700 24 700H106Q121 700 130 686L314 395H318L502 686Q511 700 524 700H604Q612 700 616.5 693Q621 686 615 676L364 286V19Q364 11 358.5 5.5Q353 0 345 0H283Q275 0 269.5 5.5Q264 11 264 19Z" glyph-name="Y" horiz-adv-x="628" unicode="Y" /><glyph d="M35 0Q26 0 20.5 5.5Q15 11 15 19V60Q15 68 19.5 76Q24 84 29 89L431 611H61Q53 611 47.5 616.5Q42 622 42 629V681Q42 689 47.5 694.5Q53 700 61 700H542Q550 700 555 694.5Q560 689 560 681V634Q560 626 556 617.5Q552 609 547 603L154 89H564Q572 89 577 84Q582 79 582 71V19Q582 11 577 5.5Q572 0 564 0Z" glyph-name="Z" horiz-adv-x="600" unicode="Z" /><glyph d="M331 620 206 273H456ZM117 18Q115 10 109 5Q103 0 93 0H25Q16 0 11 6.5Q6 13 10 24L255 682Q258 691 265.5 695.5Q273 700 280 700H875Q883 700 889 694.5Q895 689 895 681V625Q895 617 889 611.5Q883 606 875 606H440L519 398H740Q748 398 754 392.5Q760 387 760 379V328Q760 320 754 314Q748 308 740 308H550L632 94H875Q883 94 889 88.5Q895 83 895 75V19Q895 11 889 5.5Q883 0 875 0H571Q551 0 545 18L482 188H178Z" glyph-name="AE" horiz-adv-x="921" unicode="Æ" /><glyph d="M651 350Q651 408 632 457.5Q613 507 579 543.5Q545 580 498 601Q451 622 395 622Q339 622 291.5 601Q244 580 209.5 543.5Q175 507 156 457.5Q137 408 137 350Q137 292 156 242.5Q175 193 209.5 156.5Q244 120 291.5 99Q339 78 395 78Q451 78 498 99Q545 120 579 156.5Q613 193 632 242.5Q651 292 651 350ZM645 125Q609 60 541 23.5Q473 -13 389 -13Q315 -13 250 14.5Q185 42 137 90.5Q89 139 61.5 205.5Q34 272 34 350Q34 428 61.5 494.5Q89 561 136.5 609.5Q184 658 248.5 685.5Q313 713 387 713Q472 713 540.5 676Q609 639 645 575V681Q645 689 650.5 694.5Q656 700 664 700H1144Q1152 700 1157 694.5Q1162 689 1162 681V627Q1162 619 1157 613.5Q1152 608 1144 608H745V398H949Q957 398 962.5 392.5Q968 387 968 379V328Q968 320 962.5 314Q957 308 949 308H745V92H1144Q1152 92 1157 86.5Q1162 81 1162 73V19Q1162 11 1157 5.5Q1152 0 1144 0H664Q656 0 650.5 5.5Q645 11 645 19Z" glyph-name="OE" horiz-adv-x="1189" unicode="Œ" /><glyph d="M98 0Q90 0 84 5.5Q78 11 78 19V258L40 246Q32 244 26 248.5Q20 253 20 261V304Q20 321 36 326L78 339V681Q78 689 84 694.5Q90 700 98 700H159Q167 700 172.5 694.5Q178 689 178 681V368L370 426Q379 428 384.5 424Q390 420 390 412V368Q390 350 374 345L178 286V92H525Q533 92 538.5 86.5Q544 81 544 73V19Q544 11 538.5 5.5Q533 0 525 0Z" glyph-name="Lslash" horiz-adv-x="552" unicode="Ł" /><glyph d="M754 350Q754 272 725.5 205.5Q697 139 648.5 90.5Q600 42 534 14.5Q468 -13 393 -13Q318 -13 252.5 14.5Q187 42 138 90.5Q89 139 61 205.5Q33 272 33 350Q33 428 61 494.5Q89 561 138 609.5Q187 658 252.5 685.5Q318 713 393 713Q468 713 534 685.5Q600 658 648.5 609.5Q697 561 725.5 494.5Q754 428 754 350ZM650 350Q650 401 634.5 446.5Q619 492 591.5 527Q564 562 525 585.5Q486 609 439 617V83Q486 91 525 114.5Q564 138 591.5 173Q619 208 634.5 253.5Q650 299 650 350ZM136 350Q136 299 151.5 253.5Q167 208 194.5 173Q222 138 260.5 114.5Q299 91 346 83V617Q299 609 260.5 585.5Q222 562 194.5 527Q167 492 151.5 446.5Q136 401 136 350Z" glyph-name="Oslash" horiz-adv-x="787" unicode="Ø" /><glyph d="M110 0Q102 0 96.5 5.5Q91 11 91 19V313H19Q11 313 5.5 319Q0 325 0 333V375Q0 383 5.5 388.5Q11 394 19 394H91V681Q91 689 96.5 694.5Q102 700 110 700H345Q432 700 500 674.5Q568 649 615.5 603Q663 557 687.5 492.5Q712 428 712 350Q712 272 687.5 207.5Q663 143 615.5 97Q568 51 500 25.5Q432 0 345 0ZM351 92Q408 92 455.5 110Q503 128 536.5 161.5Q570 195 589 242.5Q608 290 608 350Q608 410 589 458Q570 506 536.5 539.5Q503 573 455.5 590.5Q408 608 351 608H191V394H379Q387 394 392.5 388.5Q398 383 398 375V333Q398 325 392.5 319Q387 313 379 313H191V92Z" glyph-name="Eth" horiz-adv-x="747" unicode="Ð" /><glyph d="M95 0Q87 0 82 5.5Q77 11 77 19V681Q77 689 82 694.5Q87 700 95 700H157Q165 700 170.5 694.5Q176 689 176 681V588H347Q409 588 455.5 570.5Q502 553 532.5 522.5Q563 492 578.5 451.5Q594 411 594 365Q594 319 578.5 278Q563 237 532 206.5Q501 176 455 158Q409 140 347 140H176V19Q176 11 170.5 5.5Q165 0 157 0ZM342 229Q373 229 400 238Q427 247 447 264Q467 281 479 306.5Q491 332 491 365Q491 398 479 423Q467 448 447 465Q427 482 400 491Q373 500 342 500H176V229Z" glyph-name="Thorn" horiz-adv-x="622" unicode="Þ" /><glyph d="M128 236Q128 203 139 173.5Q150 144 170.5 122Q191 100 218.5 87.5Q246 75 279 75Q312 75 339.5 87.5Q367 100 387 122Q407 144 418.5 173.5Q430 203 430 236Q430 270 418.5 299Q407 328 387 349.5Q367 371 339.5 383.5Q312 396 279 396Q246 396 218.5 383.5Q191 371 170.5 349.5Q150 328 139 299Q128 270 128 236ZM30 237Q30 292 49 338Q68 384 101 417Q134 450 177 468Q220 486 268 486Q324 486 366.5 460.5Q409 435 429 397V453Q429 461 434.5 466.5Q440 472 448 472H507Q515 472 520 466.5Q525 461 525 453V18Q525 10 520 5Q515 0 507 0H448Q440 0 434.5 5Q429 10 429 18V75Q409 37 366.5 12Q324 -13 267 -13Q219 -13 176 5Q133 23 100.5 56Q68 89 49 135Q30 181 30 237Z" glyph-name="a" horiz-adv-x="583" unicode="a" /><glyph d="M155 399Q175 437 218.5 461Q262 485 319 485Q366 485 408.5 467Q451 449 483.5 416Q516 383 535 337Q554 291 554 236Q554 180 535 134.5Q516 89 483.5 56Q451 23 408 5Q365 -13 317 -13Q262 -13 219.5 11.5Q177 36 155 74V18Q155 10 149.5 5Q144 0 136 0H78Q70 0 64.5 5Q59 10 59 18V682Q59 690 64.5 695Q70 700 78 700H137Q145 700 150 695Q155 690 155 682ZM154 236Q154 202 165.5 172.5Q177 143 197 121.5Q217 100 244.5 87.5Q272 75 305 75Q338 75 366 87.5Q394 100 414 121.5Q434 143 445.5 172.5Q457 202 457 236Q457 269 445.5 298.5Q434 328 414 349.5Q394 371 366 383.5Q338 396 305 396Q272 396 244.5 383.5Q217 371 197 349.5Q177 328 165.5 298.5Q154 269 154 236Z" glyph-name="b" horiz-adv-x="584" unicode="b" /><glyph d="M489 103Q460 50 404.5 18.5Q349 -13 278 -13Q226 -13 180.5 6Q135 25 101.5 58.5Q68 92 49 137.5Q30 183 30 236Q30 289 49 335Q68 381 101.5 414.5Q135 448 180.5 467Q226 486 278 486Q349 486 404.5 454Q460 422 489 369Q494 359 491 351.5Q488 344 481 339L444 315Q424 302 411 321Q387 357 355.5 376.5Q324 396 279 396Q246 396 218 383.5Q190 371 170 349.5Q150 328 139 298.5Q128 269 128 236Q128 203 139 173.5Q150 144 170 122.5Q190 101 218 88.5Q246 76 279 76Q324 76 355.5 95.5Q387 115 411 151Q417 159 425.5 162Q434 165 444 158L481 133Q488 128 491 120.5Q494 113 489 103Z" glyph-name="c" horiz-adv-x="516" unicode="c" /><glyph d="M128 236Q128 202 139 172.5Q150 143 170.5 121.5Q191 100 218.5 87.5Q246 75 279 75Q312 75 339.5 87.5Q367 100 387.5 121.5Q408 143 419 172.5Q430 202 430 236Q430 269 419 298.5Q408 328 387.5 349.5Q367 371 339.5 383.5Q312 396 279 396Q246 396 218.5 383.5Q191 371 170.5 349.5Q150 328 139 298.5Q128 269 128 236ZM30 236Q30 291 49 337Q68 383 100.5 416Q133 449 176 467Q219 485 266 485Q323 485 366 460.5Q409 436 429 398V682Q429 690 434.5 695Q440 700 448 700H507Q515 700 520 695Q525 690 525 682V18Q525 10 520 5Q515 0 507 0H448Q440 0 434.5 5Q429 10 429 18V75Q407 37 365.5 12Q324 -13 267 -13Q219 -13 176 5Q133 23 100.5 56Q68 89 49 134.5Q30 180 30 236Z" glyph-name="d" horiz-adv-x="584" unicode="d" /><glyph d="M275 486Q327 486 371 467.5Q415 449 447 417Q479 385 496.5 341.5Q514 298 514 248V230Q514 222 510 216.5Q506 211 495 211H129Q132 180 144.5 154Q157 128 177 109.5Q197 91 223.5 80.5Q250 70 280 70Q326 70 356 87Q386 104 409 130Q421 143 434 134L478 105Q486 100 486 92.5Q486 85 482 80Q452 39 401.5 13Q351 -13 278 -13Q224 -13 178.5 6Q133 25 100 58Q67 91 48.5 136.5Q30 182 30 235Q30 287 48.5 333Q67 379 99.5 413Q132 447 177 466.5Q222 486 275 486ZM419 276Q411 338 371 372Q331 406 276 406Q219 406 179.5 369.5Q140 333 131 276Z" glyph-name="e" horiz-adv-x="536" unicode="e" /><glyph d="M100 472 100 565Q100 605 113 634.5Q126 664 148 683Q170 702 198 711Q226 720 255 720Q284 720 316 710.5Q348 701 371 682Q376 677 377 669Q378 661 373 654L346 619Q339 608 330 610Q321 612 314 617Q300 626 286.5 629.5Q273 633 262 633Q234 633 215 614Q196 595 196 559V472H296Q303 472 308.5 466.5Q314 461 314 453V410Q314 402 308.5 396.5Q303 391 296 391H196V19Q196 11 191 5.5Q186 0 178 0H119Q111 0 105.5 5.5Q100 11 100 19V391H31Q23 391 18 396.5Q13 402 13 410V453Q13 461 18 466.5Q23 472 31 472Z" glyph-name="f" horiz-adv-x="323" unicode="f" /><glyph d="M129 238Q129 204 140 175Q151 146 171.5 124.5Q192 103 219.5 91Q247 79 280 79Q313 79 340.5 91Q368 103 388 124.5Q408 146 419 175Q430 204 430 238Q430 271 419 300Q408 329 388 350.5Q368 372 340.5 384.5Q313 397 280 397Q247 397 219.5 384.5Q192 372 171.5 350.5Q151 329 140 300Q129 271 129 238ZM281 -142Q356 -142 393.5 -103Q431 -64 431 -1V78Q411 41 368.5 17Q326 -7 270 -7Q221 -7 177.5 10.5Q134 28 101.5 60Q69 92 50 137Q31 182 31 238Q31 294 50 339.5Q69 385 101.5 417.5Q134 450 176.5 467.5Q219 485 267 485Q323 485 367 459.5Q411 434 431 396V453Q431 461 436 466.5Q441 472 449 472H508Q516 472 521.5 466.5Q527 461 527 453V-4Q527 -52 510.5 -93Q494 -134 462 -163Q430 -192 384 -208.5Q338 -225 279 -225Q183 -225 122.5 -183.5Q62 -142 45 -76Q43 -70 46 -64.5Q49 -59 56 -58L118 -41Q135 -38 139 -51Q143 -68 154 -84.5Q165 -101 182.5 -114Q200 -127 224.5 -134.5Q249 -142 281 -142Z" glyph-name="g" horiz-adv-x="585" unicode="g" /><glyph d="M428 255Q428 321 393.5 359Q359 397 295 397Q231 397 193 357.5Q155 318 155 255V17Q155 9 149.5 4.5Q144 0 137 0H77Q69 0 64 5Q59 10 59 18V682Q59 690 64 695Q69 700 77 700H137Q144 700 149.5 695.5Q155 691 155 683V402Q175 437 218 461Q261 485 321 485Q368 485 405.5 469.5Q443 454 469.5 427Q496 400 510 362.5Q524 325 524 280V17Q524 9 518.5 4.5Q513 0 505 0H447Q439 0 433.5 4.5Q428 9 428 17Z" glyph-name="h" horiz-adv-x="577" unicode="h" /><glyph d="M106 555Q81 555 63.5 573Q46 591 46 615Q46 640 63.5 658Q81 676 106 676Q131 676 148.5 658Q166 640 166 615Q166 591 148.5 573Q131 555 106 555ZM77 0Q69 0 63.5 5.5Q58 11 58 19V453Q58 472 77 472H136Q144 472 149 466.5Q154 461 154 453V19Q154 11 149 5.5Q144 0 136 0Z" glyph-name="i" horiz-adv-x="212" unicode="i" /><glyph d="M106 555Q81 555 63.5 573Q46 591 46 615Q46 640 63.5 658Q81 676 106 676Q131 676 148.5 658Q166 640 166 615Q166 591 148.5 573Q131 555 106 555ZM77 0Q69 0 63.5 5.5Q58 11 58 19V453Q58 472 77 472H136Q144 472 149 466.5Q154 461 154 453V19Q154 11 149 5.5Q144 0 136 0Z" glyph-name="i.TRK" horiz-adv-x="212" unicode="" /><glyph d="M104 555Q79 555 61 573Q43 591 43 615Q43 640 61 658Q79 676 104 676Q129 676 147 658Q165 640 165 615Q165 591 147 573Q129 555 104 555ZM135 472Q143 472 148.5 466.5Q154 461 154 453V-64Q154 -106 140.5 -136.5Q127 -167 105.5 -186.5Q84 -206 56 -215.5Q28 -225 0 -225Q-32 -225 -63.5 -215.5Q-95 -206 -115 -187Q-121 -182 -121.5 -174Q-122 -166 -117 -159L-93 -127Q-86 -117 -78.5 -117Q-71 -117 -62 -122Q-48 -130 -36 -134Q-24 -138 -8 -138Q17 -138 37.5 -120Q58 -102 58 -63V453Q58 461 63.5 466.5Q69 472 77 472Z" glyph-name="j" horiz-adv-x="212" unicode="j" /><glyph d="M155 18Q155 10 150 5Q145 0 137 0H78Q70 0 64.5 5Q59 10 59 18V682Q59 690 64.5 695Q70 700 78 700H137Q145 700 150 695Q155 690 155 682V298H205L345 460Q354 472 367 472H442Q452 472 454.5 464.5Q457 457 451 449L284 265L479 24Q484 16 481 8Q478 0 467 0H394Q376 0 365 15L203 220H155V18Z" glyph-name="k" horiz-adv-x="480" unicode="k" /><glyph d="M175 0Q118 0 87.5 29Q57 58 57 116V681Q57 689 62.5 694.5Q68 700 76 700H135Q143 700 148 694.5Q153 689 153 681V131Q153 108 165 94.5Q177 81 203 81H228Q236 81 241.5 76.5Q247 72 247 63V21Q247 9 239.5 4.5Q232 0 224 0H175Z" glyph-name="l" horiz-adv-x="249" unicode="l" /><glyph d="M154 17Q154 9 148.5 4.5Q143 0 136 0H76Q68 0 63 5Q58 10 58 18V453Q58 461 63 466.5Q68 472 76 472H136Q143 472 148.5 467Q154 462 154 454V403Q174 438 216 461.5Q258 485 311 485Q369 485 410 458.5Q451 432 471 389Q501 440 547 462.5Q593 485 646 485Q695 485 732.5 469Q770 453 794.5 425.5Q819 398 831.5 361Q844 324 844 283V17Q844 9 838.5 4.5Q833 0 825 0H767Q759 0 753.5 4.5Q748 9 748 17V262Q748 320 718.5 358.5Q689 397 627 397Q566 397 532.5 358.5Q499 320 499 262V17Q499 9 493.5 4.5Q488 0 481 0H422Q415 0 409 4.5Q403 9 403 17V262Q403 320 373.5 358.5Q344 397 283 397Q221 397 187.5 358.5Q154 320 154 262Z" glyph-name="m" horiz-adv-x="897" unicode="m" /><glyph d="M427 255Q427 321 392.5 359Q358 397 294 397Q230 397 192 357.5Q154 318 154 255V17Q154 9 148.5 4.5Q143 0 136 0H76Q68 0 63 5Q58 10 58 18V453Q58 461 63 466.5Q68 472 76 472H136Q143 472 148.5 467Q154 462 154 454V402Q174 437 217 461Q260 485 320 485Q367 485 404.5 469.5Q442 454 468.5 427Q495 400 509 362.5Q523 325 523 280V17Q523 9 517.5 4.5Q512 0 504 0H446Q438 0 432.5 4.5Q427 9 427 17Z" glyph-name="n" horiz-adv-x="576" unicode="n" /><glyph d="M30 236Q30 289 49.5 334.5Q69 380 102.5 413.5Q136 447 181 466Q226 485 278 485Q330 485 375 466Q420 447 453.5 413.5Q487 380 506.5 334.5Q526 289 526 236Q526 183 506.5 137.5Q487 92 453.5 58.5Q420 25 375 6Q330 -13 278 -13Q226 -13 181 6Q136 25 102.5 58.5Q69 92 49.5 137.5Q30 183 30 236ZM127 236Q127 203 138 173.5Q149 144 169.5 122.5Q190 101 217.5 88.5Q245 76 278 76Q311 76 338.5 88.5Q366 101 386.5 122.5Q407 144 418 173.5Q429 203 429 236Q429 270 418 299Q407 328 386.5 349.5Q366 371 338.5 383.5Q311 396 278 396Q245 396 217.5 383.5Q190 371 169.5 349.5Q149 328 138 299Q127 270 127 236Z" glyph-name="o" horiz-adv-x="556" unicode="o" /><glyph d="M153 236Q153 202 164.5 172.5Q176 143 196 121.5Q216 100 244 87.5Q272 75 305 75Q338 75 365.5 87.5Q393 100 413 121.5Q433 143 444 172.5Q455 202 455 236Q455 269 444 298.5Q433 328 413 349.5Q393 371 365.5 383.5Q338 396 305 396Q272 396 244 383.5Q216 371 196 349.5Q176 328 164.5 298.5Q153 269 153 236ZM153 397Q175 435 218 460Q261 485 318 485Q366 485 408.5 467Q451 449 483 416Q515 383 534 337.5Q553 292 553 237Q553 181 534.5 135Q516 89 483.5 56Q451 23 408 5Q365 -13 317 -13Q265 -13 221 10Q177 33 154 72V-192Q154 -200 149 -205Q144 -210 136 -210H76Q68 -210 63 -205Q58 -200 58 -192V453Q58 461 63 466.5Q68 472 76 472H135Q143 472 148 466.5Q153 461 153 453Z" glyph-name="p" horiz-adv-x="583" unicode="p" /><glyph d="M30 237Q30 292 49 337.5Q68 383 100.5 416Q133 449 176 467Q219 485 267 485Q324 485 366.5 460.5Q409 436 429 398V453Q429 461 434.5 466.5Q440 472 448 472H507Q515 472 520 466.5Q525 461 525 453V-192Q525 -200 520 -205Q515 -210 507 -210H447Q439 -210 434 -205Q429 -200 429 -192V75Q407 37 365.5 12Q324 -13 267 -13Q219 -13 176 5Q133 23 100.5 56Q68 89 49 135Q30 181 30 237ZM128 236Q128 202 139 172.5Q150 143 170.5 121.5Q191 100 218.5 87.5Q246 75 279 75Q312 75 339.5 87.5Q367 100 387 121.5Q407 143 418.5 172.5Q430 202 430 236Q430 269 418.5 298.5Q407 328 387 349.5Q367 371 339.5 383.5Q312 396 279 396Q246 396 218.5 383.5Q191 371 170.5 349.5Q150 328 139 298.5Q128 269 128 236Z" glyph-name="q" horiz-adv-x="583" unicode="q" /><glyph d="M289 475Q296 475 302 470.5Q308 466 308 455V396Q308 385 301.5 380.5Q295 376 289 376H269Q218 376 186 344.5Q154 313 154 237V17Q154 9 148.5 4.5Q143 0 136 0H76Q68 0 63 5Q58 10 58 18V453Q58 461 63 466.5Q68 472 76 472H132Q139 472 144.5 467Q150 462 150 454V396Q165 428 197 451.5Q229 475 274 475Z" glyph-name="r" horiz-adv-x="318" unicode="r" /><glyph d="M228 486Q290 486 335 467.5Q380 449 406 426Q422 411 407 394L383 366Q375 358 366 358.5Q357 359 347 366Q321 386 291 397.5Q261 409 226 409Q186 409 160 393Q134 377 134 352Q134 330 150 315.5Q166 301 204 293L287 275Q355 261 392.5 229.5Q430 198 430 137Q430 108 416.5 81Q403 54 377.5 33Q352 12 314.5 -0.5Q277 -13 229 -13Q166 -13 120 5.5Q74 24 45 48Q26 64 25.5 77Q25 90 36 99L62 121Q73 130 81.5 127Q90 124 98 118Q124 94 157.5 78.5Q191 63 233 63Q281 63 306 82.5Q331 102 331 127Q331 155 312 168Q293 181 250 190L168 208Q108 222 75 254Q42 286 42 341Q42 372 55.5 399Q69 426 93 445Q117 464 151.5 475Q186 486 228 486Z" glyph-name="s" horiz-adv-x="456" unicode="s" /><glyph d="M95 391 25 391Q18 391 13 396.5Q8 402 8 410V453Q8 461 13 466.5Q18 472 25 472H95V615Q95 634 114 634H173Q181 634 186 628.5Q191 623 191 615V472H336Q344 472 349 466.5Q354 461 354 453V410Q354 402 349 396.5Q344 391 336 391H191V154Q191 115 211.5 97.5Q232 80 257 80Q268 80 281.5 83.5Q295 87 309 95Q330 108 342 92L363 59Q374 43 360 31Q316 -8 241 -8Q214 -8 187.5 0Q161 8 140.5 25Q120 42 107.5 69.5Q95 97 95 135Z" glyph-name="t" horiz-adv-x="373" unicode="t" /><glyph d="M149 206Q149 143 181.5 106Q214 69 278 69Q341 69 376 107Q411 145 411 205V454Q411 462 416.5 467Q422 472 429 472H488Q496 472 501.5 466.5Q507 461 507 453V18Q507 10 501.5 5Q496 0 488 0H429Q422 0 416.5 4.5Q411 9 411 17V70Q389 33 350 10Q311 -13 251 -13Q205 -13 168 1.5Q131 16 105.5 42.5Q80 69 66.5 106.5Q53 144 53 189V454Q53 462 58.5 467Q64 472 72 472H131Q139 472 144 467Q149 462 149 454Z" glyph-name="u" horiz-adv-x="565" unicode="u" /><glyph d="M202 0Q194 0 187.5 5Q181 10 178 18L12 448Q8 457 13 464.5Q18 472 28 472H95Q105 472 109.5 467.5Q114 463 117 455L249 96L378 455Q381 463 385.5 467.5Q390 472 400 472H466Q476 472 481 464.5Q486 457 482 448L316 18Q313 10 306.5 5Q300 0 291 0Z" glyph-name="v" horiz-adv-x="494" unicode="v" /><glyph d="M281 18Q279 10 272 5Q265 0 257 0H182Q174 0 167 5Q160 10 158 18L12 449Q8 460 13 466Q18 472 28 472H94Q111 472 116 455L223 98L347 454Q353 472 368 472H439Q455 472 461 454L585 98L694 455Q696 462 701 467Q706 472 716 472H776Q785 472 790 466Q795 460 791 449L645 18Q643 10 636 5Q629 0 620 0H547Q538 0 531.5 5Q525 10 523 18L402 365L281 18Z" glyph-name="w" horiz-adv-x="803" unicode="w" /><glyph d="M121 15Q110 0 96 0H25Q16 0 13 6.5Q10 13 15 21L184 246L26 452Q21 458 24.5 465Q28 472 36 472H117Q131 472 143 457L252 316L351 457Q362 472 376 472H446Q454 472 457.5 465.5Q461 459 456 452L303 244L475 21Q480 13 477 6.5Q474 0 465 0H383Q369 0 357 15L236 173L121 15Z" glyph-name="x" horiz-adv-x="486" unicode="x" /><glyph d="M123 -225Q85 -225 54 -212.5Q23 -200 1 -178Q-4 -173 -5 -164.5Q-6 -156 1 -148L24 -119Q32 -109 41 -110Q50 -111 58 -117Q72 -128 87 -134.5Q102 -141 121 -141Q149 -141 167.5 -124Q186 -107 195 -84L228 0H203Q187 0 181 16L14 448Q10 457 14.5 464.5Q19 472 31 472H100Q108 472 113 466.5Q118 461 120 454L258 79L397 454Q399 461 404 466.5Q409 472 419 472H483Q494 472 498 465Q502 458 498 448L286 -101Q266 -154 226.5 -189.5Q187 -225 123 -225Z" glyph-name="y" horiz-adv-x="508" unicode="y" /><glyph d="M151 83 414 83Q421 83 426 77.5Q431 72 431 64V18Q431 10 426 5Q421 0 414 0H42Q34 0 29 5.5Q24 11 24 19V59Q24 67 26 72Q28 77 33 82L294 389H56Q48 389 42.5 394.5Q37 400 37 408V453Q37 461 42.5 466.5Q48 472 56 472H402Q409 472 414.5 466.5Q420 461 420 453V414Q420 400 411 390Z" glyph-name="z" horiz-adv-x="456" unicode="z" /><glyph d="M634 -13Q578 -13 531.5 7Q485 27 452 62Q421 26 376.5 6.5Q332 -13 278 -13Q226 -13 181 6Q136 25 102.5 58.5Q69 92 49.5 137.5Q30 183 30 236Q30 289 49.5 334.5Q69 380 102.5 414Q136 448 181 467Q226 486 278 486Q331 486 376 465.5Q421 445 453 410Q486 445 531.5 465.5Q577 486 631 486Q683 486 727 467.5Q771 449 802.5 417Q834 385 851.5 341.5Q869 298 869 248V230Q869 222 865 216.5Q861 211 850 211H484Q487 180 499.5 154Q512 128 532 109.5Q552 91 579 80.5Q606 70 636 70Q681 70 711 87Q741 104 764 130Q776 143 789 134L834 105Q842 100 842 92.5Q842 85 838 80Q808 39 757.5 13Q707 -13 634 -13ZM775 276Q767 338 726.5 372Q686 406 631 406Q574 406 535 369.5Q496 333 487 276ZM279 76Q318 76 350.5 92.5Q383 109 403 138Q385 183 385 235Q385 289 404 333Q384 362 351.5 379Q319 396 279 396Q246 396 218 383.5Q190 371 170 349.5Q150 328 138.5 299Q127 270 127 236Q127 203 138.5 173.5Q150 144 170 122.5Q190 101 218 88.5Q246 76 279 76Z" glyph-name="ae" horiz-adv-x="892" unicode="æ" /><glyph d="M678 -13Q612 -13 560.5 13.5Q509 40 477 87Q443 40 391.5 13.5Q340 -13 278 -13Q226 -13 181 6Q136 25 102.5 58.5Q69 92 49.5 137.5Q30 183 30 236Q30 289 49.5 334.5Q69 380 102.5 413.5Q136 447 181 466Q226 485 278 485Q340 485 392 458Q444 431 477 385Q509 431 560 458.5Q611 486 675 486Q727 486 771 467.5Q815 449 846.5 417Q878 385 896 341.5Q914 298 914 248V230Q914 222 909.5 216.5Q905 211 894 211H529Q532 180 544 154Q556 128 576 109.5Q596 91 622.5 80.5Q649 70 680 70Q725 70 755 87Q785 104 808 130Q820 143 833 134L877 105Q885 100 885 92.5Q885 85 881 80Q852 39 801.5 13Q751 -13 678 -13ZM819 276Q811 338 770.5 372Q730 406 675 406Q647 406 622.5 396.5Q598 387 579.5 369.5Q561 352 548 328Q535 304 531 276ZM127 236Q127 203 138 173.5Q149 144 169.5 122.5Q190 101 217.5 88.5Q245 76 278 76Q311 76 338.5 88.5Q366 101 386.5 122.5Q407 144 418 173.5Q429 203 429 236Q429 270 418 299Q407 328 386.5 349.5Q366 371 338.5 383.5Q311 396 278 396Q245 396 217.5 383.5Q190 371 169.5 349.5Q149 328 138 299Q127 270 127 236Z" glyph-name="oe" horiz-adv-x="936" unicode="œ" /><glyph d="M187 0Q130 0 100 29Q70 58 70 116V264L37 250Q29 247 23.5 250Q18 253 18 261V303Q18 312 22 316Q26 320 34 324L70 339V681Q70 689 75 694.5Q80 700 88 700H147Q155 700 160.5 694.5Q166 689 166 681V379L228 407Q236 411 242 407.5Q248 404 248 396V354Q248 340 232 334L166 304V131Q166 108 177.5 94.5Q189 81 215 81H241Q248 81 253.5 76.5Q259 72 259 63V21Q259 9 251.5 4.5Q244 0 237 0Z" glyph-name="lslash" horiz-adv-x="267" unicode="ł" /><glyph d="M30 236Q30 289 49.5 334.5Q69 380 102.5 413.5Q136 447 181 466Q226 485 278 485Q330 485 375 466Q420 447 453.5 413.5Q487 380 506.5 334.5Q526 289 526 236Q526 183 506.5 137.5Q487 92 453.5 58.5Q420 25 375 6Q330 -13 278 -13Q226 -13 181 6Q136 25 102.5 58.5Q69 92 49.5 137.5Q30 183 30 236ZM127 236Q127 180 157 137.5Q187 95 238 82V390Q187 377 157 335Q127 293 127 236ZM429 236Q429 293 398.5 335Q368 377 318 390V82Q368 95 398.5 137Q429 179 429 236Z" glyph-name="oslash" horiz-adv-x="556" unicode="ø" /><glyph d="M283 -13Q230 -13 183.5 6Q137 25 103 59Q69 93 49.5 139Q30 185 30 238Q30 289 48 333.5Q66 378 97.5 410.5Q129 443 172 462Q215 481 265 481Q300 481 339 467.5Q378 454 404 425Q382 465 352 502.5Q322 540 290 575L200 530Q194 527 186.5 528Q179 529 175 538L164 562Q156 579 173 587L242 622Q218 645 195 664Q172 683 152 698Q145 704 147.5 712.5Q150 721 162 721L237 723Q243 724 249.5 722.5Q256 721 262 716Q289 697 328 661L419 706Q426 709 433 708Q440 707 444 699L455 674Q463 657 446 649L375 614Q405 582 434 542.5Q463 503 486 458Q509 413 523 362Q537 311 537 256Q537 197 518 148Q499 99 465.5 63Q432 27 385 7Q338 -13 283 -13ZM128 236Q128 202 139.5 172.5Q151 143 171 121.5Q191 100 219.5 87.5Q248 75 281 75Q314 75 341.5 87.5Q369 100 389.5 121.5Q410 143 421 172.5Q432 202 432 236Q432 270 421 299Q410 328 389.5 349.5Q369 371 341.5 383.5Q314 396 281 396Q248 396 219.5 383.5Q191 371 171 349.5Q151 328 139.5 299Q128 270 128 236Z" glyph-name="eth" horiz-adv-x="570" unicode="ð" /><glyph d="M155 236Q155 202 166.5 172.5Q178 143 198 121.5Q218 100 245.5 87.5Q273 75 306 75Q339 75 366.5 87.5Q394 100 414.5 121.5Q435 143 446 172.5Q457 202 457 236Q457 269 446 298.5Q435 328 414.5 349.5Q394 371 366.5 383.5Q339 396 306 396Q273 396 245.5 383.5Q218 371 198 349.5Q178 328 166.5 298.5Q155 269 155 236ZM156 397Q178 435 220.5 460Q263 485 320 485Q368 485 410.5 467Q453 449 485 416Q517 383 536 337.5Q555 292 555 237Q555 181 536 135Q517 89 485 56Q453 23 410 5Q367 -13 319 -13Q267 -13 223 10Q179 33 156 72V-192Q156 -200 151 -205Q146 -210 138 -210H78Q70 -210 64.5 -205Q59 -200 59 -192V681Q59 689 64.5 694.5Q70 700 78 700H138Q146 700 151 694.5Q156 689 156 681Z" glyph-name="thorn" horiz-adv-x="585" unicode="þ" /><glyph d="M59 490Q59 545 75 588Q91 631 120.5 660Q150 689 190.5 704.5Q231 720 280 720Q329 720 366 705.5Q403 691 427.5 667.5Q452 644 464 614.5Q476 585 476 556Q476 518 460 486Q444 454 424.5 427.5Q405 401 389 380.5Q373 360 373 347Q373 336 384.5 323.5Q396 311 412.5 296.5Q429 282 449 264.5Q469 247 485.5 227Q502 207 513.5 183Q525 159 525 131Q525 99 513 72.5Q501 46 479.5 27Q458 8 427 -3Q396 -14 357 -14Q310 -14 272 -3Q265 -1 259.5 4.5Q254 10 256 19L271 68Q276 83 288 78Q299 75 314.5 72Q330 69 346 69Q379 69 400.5 85.5Q422 102 422 133Q422 158 398 182Q374 206 345.5 230Q317 254 293 279.5Q269 305 269 334Q269 356 286 383.5Q303 411 324 439.5Q345 468 362 496Q379 524 379 547Q379 580 353.5 607Q328 634 277 634Q220 634 188 594.5Q156 555 156 492V19Q156 11 151 5.5Q146 0 138 0H78Q70 0 64.5 5.5Q59 11 59 19V490Z" glyph-name="germandbls" horiz-adv-x="546" unicode="ß" /><glyph d="M196 19Q196 11 191 5.5Q186 0 178 0H119Q111 0 105.5 5.5Q100 11 100 19V391H31Q23 391 18 396.5Q13 402 13 410V453Q13 461 18 466.5Q23 472 31 472H100V565Q100 605 113 634.5Q126 664 148 683Q170 702 198 711Q226 720 255 720Q284 720 316 710.5Q348 701 371 682Q376 677 377 669Q378 661 373 654L347 619Q339 610 330 611Q321 612 314 617Q300 626 286.5 629.5Q273 633 262 633Q234 633 215 614Q196 595 196 559Z" glyph-name="longs" horiz-adv-x="265" unicode="ſ" /><glyph d="M77 0Q69 0 63.5 5.5Q58 11 58 19V453Q58 472 77 472H136Q144 472 149 466.5Q154 461 154 453V19Q154 11 149 5.5Q144 0 136 0Z" glyph-name="dotlessi" horiz-adv-x="212" unicode="ı" /><glyph d="M135 472Q143 472 148.5 466.5Q154 461 154 453V-64Q154 -106 140.5 -136.5Q127 -167 105.5 -186.5Q84 -206 56 -215.5Q28 -225 0 -225Q-32 -225 -63.5 -215.5Q-95 -206 -115 -187Q-121 -182 -121.5 -174Q-122 -166 -117 -159L-93 -127Q-86 -117 -78.5 -117Q-71 -117 -62 -122Q-48 -130 -36 -134Q-24 -138 -8 -138Q17 -138 37.5 -120Q58 -102 58 -63V453Q58 461 63.5 466.5Q69 472 77 472Z" glyph-name="dotlessj" horiz-adv-x="212" unicode="ȷ" /><glyph d="M196 19Q196 11 191 5.5Q186 0 178 0H119Q111 0 105.5 5.5Q100 11 100 19V391H31Q23 391 18 395.5Q13 400 13 408V453Q13 461 18 466.5Q23 472 31 472H100V565Q100 605 113 634.5Q126 664 148 683Q170 702 198 711Q226 720 255 720Q284 720 316 710.5Q348 701 371 682Q376 677 377 669Q378 661 373 654L347 619Q339 608 330 610Q321 612 314 617Q300 626 286.5 629.5Q273 633 262 633Q234 633 215 614Q196 595 196 559V472H416Q424 472 429 466.5Q434 461 434 453V19Q434 11 429 5.5Q424 0 416 0H356Q348 0 342.5 5.5Q337 11 337 19V391H196Z" glyph-name="fi" horiz-adv-x="492" unicode="ﬁ" /><glyph d="M337 681Q337 689 342.5 694.5Q348 700 356 700H416Q424 700 429 694.5Q434 689 434 681V131Q434 108 445.5 94.5Q457 81 483 81H509Q516 81 521.5 76.5Q527 72 527 63V21Q527 9 519.5 4.5Q512 0 505 0H456Q399 0 368 29Q337 58 337 116V391H196V19Q196 11 191 5.5Q186 0 178 0H119Q111 0 105.5 5.5Q100 11 100 19V391H31Q23 391 18 396.5Q13 402 13 410V453Q13 461 18 466.5Q23 472 31 472H100V564Q100 601 111 627Q122 653 140 669Q158 685 180.5 692.5Q203 700 226 700H256Q281 700 281 677V631Q281 612 263 612H253Q196 612 196 555V472H337Z" glyph-name="fl" horiz-adv-x="530" unicode="ﬂ" /><glyph d="M433 472 529 472Q536 472 541.5 466.5Q547 461 547 453V410Q547 402 541.5 396.5Q536 391 529 391H433V19Q433 11 428 5.5Q423 0 415 0H356Q348 0 342.5 5.5Q337 11 337 19V391H196V19Q196 11 191 5.5Q186 0 178 0H119Q111 0 105.5 5.5Q100 11 100 19V391H31Q23 391 18 396.5Q13 402 13 410V453Q13 461 18 466.5Q23 472 31 472H100V564Q100 601 111 627Q122 653 140 669Q158 685 180.5 692.5Q203 700 226 700H256Q281 700 281 677V631Q281 612 263 612H253Q196 612 196 555V472H337V565Q337 605 350.5 634.5Q364 664 385.5 683Q407 702 435 711Q463 720 492 720Q522 720 553.5 710.5Q585 701 607 682Q613 677 614 669Q615 661 609 654L584 619Q577 608 568 610Q559 612 551 617Q537 626 523.5 629.5Q510 633 499 633Q471 633 452 614Q433 595 433 559Z" glyph-name="f_f" horiz-adv-x="556" unicode="ﬀ" /><glyph d="M337 565Q337 605 350.5 634.5Q364 664 385.5 683Q407 702 435 711Q463 720 492 720Q522 720 554 710.5Q586 701 608 682Q614 677 614.5 669Q615 661 610 654L584 619Q577 610 568 611Q559 612 552 617Q537 626 524 629.5Q511 633 500 633Q472 633 453 614Q434 595 434 559V472H654Q662 472 667 466.5Q672 461 672 453V19Q672 11 667 5.5Q662 0 654 0H594Q586 0 581 5.5Q576 11 576 19V391H434V19Q434 11 428.5 5.5Q423 0 415 0H356Q348 0 342.5 5.5Q337 11 337 19V391H196V19Q196 11 191 5.5Q186 0 178 0H119Q111 0 105.5 5.5Q100 11 100 19V391H31Q23 391 18 396.5Q13 402 13 410V453Q13 461 18 466.5Q23 472 31 472H100V564Q100 601 111 627Q122 653 140 669Q158 685 180.5 692.5Q203 700 226 700H256Q281 700 281 677V631Q281 612 263 612H253Q196 612 196 555V472H337V565Z" glyph-name="f_f_i" horiz-adv-x="730" unicode="ﬃ" /><glyph d="M337 682Q337 690 342.5 695Q348 700 356 700H415Q423 700 428 695Q433 690 433 682V399Q455 437 498.5 461Q542 485 598 485Q646 485 688.5 467Q731 449 763 416Q795 383 813.5 337Q832 291 832 236Q832 180 813.5 134.5Q795 89 763 56Q731 23 688 5Q645 -13 597 -13Q545 -13 500.5 10Q456 33 433 72V18Q433 10 428 5Q423 0 415 0H356Q348 0 342.5 5Q337 10 337 18V391H196V19Q196 11 191 5.5Q186 0 178 0H119Q111 0 105.5 5.5Q100 11 100 19V391H31Q23 391 18 396.5Q13 402 13 410V453Q13 461 18 466.5Q23 472 31 472H100V564Q100 601 111 627Q122 653 140 669Q158 685 180.5 692.5Q203 700 226 700H256Q281 700 281 677V631Q281 612 263 612H253Q196 612 196 555V472H337ZM433 235Q433 202 444.5 172.5Q456 143 476 121.5Q496 100 523.5 87.5Q551 75 584 75Q617 75 644.5 87.5Q672 100 692.5 121.5Q713 143 724 172.5Q735 202 735 235Q735 269 724 298Q713 327 692.5 349Q672 371 644.5 383.5Q617 396 584 396Q551 396 523.5 383.5Q496 371 476 349Q456 327 444.5 298Q433 269 433 235Z" glyph-name="f_b" horiz-adv-x="863" unicode="" /><glyph d="M1070 236Q1070 180 1051.5 134.5Q1033 89 1000.5 56Q968 23 925 5Q882 -13 834 -13Q783 -13 738 10Q693 33 671 72V18Q671 10 665.5 5Q660 0 652 0H593Q586 0 580.5 5Q575 10 575 18V391H433V19Q433 11 428 5.5Q423 0 415 0H356Q348 0 342.5 5.5Q337 11 337 19V391H196V19Q196 11 191 5.5Q186 0 178 0H119Q111 0 105.5 5.5Q100 11 100 19V391H31Q23 391 18 396.5Q13 402 13 410V453Q13 461 18 466.5Q23 472 31 472H100V564Q100 601 111 627Q122 653 140 669Q158 685 180.5 692.5Q203 700 226 700H256Q281 700 281 677V631Q281 612 263 612H253Q196 612 196 555V472H337V564Q337 601 348 627Q359 653 377 669Q395 685 417.5 692.5Q440 700 463 700H494Q504 700 511 694.5Q518 689 518 677V631Q518 612 500 612H489Q433 612 433 555V472H575V682Q575 690 580.5 695Q586 700 593 700H652Q660 700 665.5 695Q671 690 671 682V399Q692 437 735.5 461Q779 485 834 485Q882 485 925 467Q968 449 1000.5 416Q1033 383 1051.5 337Q1070 291 1070 236ZM670 235Q670 202 681.5 172.5Q693 143 713 121.5Q733 100 761 87.5Q789 75 822 75Q855 75 882.5 87.5Q910 100 930 121.5Q950 143 961.5 172.5Q973 202 973 235Q973 269 961.5 298Q950 327 930 349Q910 371 882.5 383.5Q855 396 822 396Q789 396 761 383.5Q733 371 713 349Q693 327 681.5 298Q670 269 670 235Z" glyph-name="f_f_b" horiz-adv-x="1100" unicode="" /><glyph d="M671 472 771 472Q778 472 783.5 466.5Q789 461 789 453V410Q789 402 783.5 396.5Q778 391 771 391H671V19Q671 11 666 5.5Q661 0 653 0H594Q586 0 580.5 5.5Q575 11 575 19V391H433V19Q433 11 428 5.5Q423 0 415 0H356Q348 0 342.5 5.5Q337 11 337 19V391H196V19Q196 11 191 5.5Q186 0 178 0H119Q111 0 105.5 5.5Q100 11 100 19V391H31Q23 391 18 396.5Q13 402 13 410V453Q13 461 18 466.5Q23 472 31 472H100V564Q100 601 111 627Q122 653 140 669Q158 685 180.5 692.5Q203 700 226 700H256Q281 700 281 677V631Q281 612 263 612H253Q196 612 196 555V472H337V564Q337 601 348 627Q359 653 377 669Q395 685 417.5 692.5Q440 700 463 700H494Q504 700 511 694.5Q518 689 518 677V631Q518 612 500 612H489Q433 612 433 555V472H575V565Q575 605 588.5 634.5Q602 664 623.5 683Q645 702 673 711Q701 720 730 720Q759 720 791 710.5Q823 701 845 682Q852 677 852 669Q852 661 847 654L822 619Q814 608 805 610Q796 612 789 617Q775 626 761.5 629.5Q748 633 737 633Q709 633 690 614Q671 595 671 559Z" glyph-name="f_f_f" horiz-adv-x="798" unicode="" /><glyph d="M575 472 575 682Q575 690 580.5 695Q586 700 593 700H653Q660 700 665.5 695.5Q671 691 671 683V402Q692 438 734 461.5Q776 485 836 485Q887 485 925.5 468.5Q964 452 989.5 422.5Q1015 393 1027.5 353Q1040 313 1040 266V17Q1040 9 1034.5 4.5Q1029 0 1022 0H963Q956 0 950 4.5Q944 9 944 17V255Q944 321 909.5 359Q875 397 811 397Q747 397 709 357.5Q671 318 671 255V17Q671 9 665.5 4.5Q660 0 653 0H593Q586 0 580.5 5Q575 10 575 18V391H433V19Q433 11 428 5.5Q423 0 415 0H356Q348 0 342.5 5.5Q337 11 337 19V391H196V19Q196 11 191 5.5Q186 0 178 0H119Q111 0 105.5 5.5Q100 11 100 19V391H31Q23 391 18 396.5Q13 402 13 410V453Q13 461 18 466.5Q23 472 31 472H100V564Q100 601 111 627Q122 653 140 669Q158 685 180.5 692.5Q203 700 226 700H256Q281 700 281 677V631Q281 612 263 612H253Q196 612 196 555V472H337V564Q337 601 348 627Q359 653 377 669Q395 685 417.5 692.5Q440 700 463 700H494Q504 700 511 694.5Q518 689 518 677V631Q518 612 500 612H489Q433 612 433 555V472Z" glyph-name="f_f_h" horiz-adv-x="1093" unicode="" /><glyph d="M434 472 653 472Q661 472 666 466.5Q671 461 671 453V-64Q671 -106 658 -136.5Q645 -167 623 -186.5Q601 -206 573.5 -215.5Q546 -225 517 -225Q485 -225 453.5 -215.5Q422 -206 402 -187Q396 -182 395.5 -174Q395 -166 400 -159L424 -127Q431 -117 439.5 -117Q448 -117 456 -122Q470 -130 484 -134Q498 -138 509 -138Q534 -138 554.5 -120Q575 -102 575 -63V391H434V19Q434 11 428.5 5.5Q423 0 415 0H357Q349 0 343.5 5.5Q338 11 338 19V391H196V19Q196 11 191 5.5Q186 0 178 0H119Q111 0 105.5 5.5Q100 11 100 19V391H31Q23 391 18 396.5Q13 402 13 410V453Q13 461 18 466.5Q23 472 31 472H100V564Q100 601 111.5 627Q123 653 142 669Q161 685 186 692.5Q211 700 238 700H256Q281 700 281 677V631Q281 612 263 612H253Q196 612 196 555V472H338V565Q338 605 351 634.5Q364 664 386 683Q408 702 435.5 711Q463 720 492 720Q522 720 554 710.5Q586 701 608 682Q614 677 614.5 669Q615 661 610 654L584 619Q577 608 568 610Q559 612 552 617Q537 626 524 629.5Q511 633 500 633Q472 633 453 614Q434 595 434 559Z" glyph-name="f_f_j" horiz-adv-x="729" unicode="" /><glyph d="M196 19Q196 11 191 5.5Q186 0 178 0H119Q111 0 105.5 5.5Q100 11 100 19V391H31Q23 391 18 396.5Q13 402 13 410V453Q13 461 18 466.5Q23 472 31 472H100V564Q100 601 111 627Q122 653 140 669Q158 685 180.5 692.5Q203 700 226 700H256Q281 700 281 677V631Q281 612 263 612H253Q196 612 196 555V472H337V564Q337 601 348 627Q359 653 377 669Q395 685 417.5 692.5Q440 700 463 700H494Q504 700 511 694.5Q518 689 518 677V631Q518 612 500 612H489Q434 612 434 555V472H575V682Q575 690 580.5 695Q586 700 594 700H653Q661 700 666 695Q671 690 671 682V295H713L861 460Q871 472 883 472H958Q968 472 970.5 464.5Q973 457 967 449L793 265L995 24Q1001 16 997.5 8Q994 0 983 0H910Q892 0 881 15L711 221H671V18Q671 10 666 5Q661 0 653 0H594Q586 0 580.5 5Q575 10 575 18V391H434V19Q434 11 428.5 5.5Q423 0 415 0H356Q348 0 342.5 5.5Q337 11 337 19V391H196V19Z" glyph-name="f_f_k" horiz-adv-x="996" unicode="" /><glyph d="M576 681Q576 689 581 694.5Q586 700 594 700H654Q662 700 667 694.5Q672 689 672 681V131Q672 108 683.5 94.5Q695 81 721 81H747Q754 81 759.5 76.5Q765 72 765 63V21Q765 9 758 4.5Q751 0 743 0H693Q636 0 606 29Q576 58 576 116V391H434V19Q434 11 428.5 5.5Q423 0 415 0H356Q348 0 342.5 5.5Q337 11 337 19V391H196V19Q196 11 191 5.5Q186 0 178 0H119Q111 0 105.5 5.5Q100 11 100 19V391H31Q23 391 18 396.5Q13 402 13 410V453Q13 461 18 466.5Q23 472 31 472H100V564Q100 601 111 627Q122 653 140 669Q158 685 180.5 692.5Q203 700 226 700H256Q281 700 281 677V631Q281 612 263 612H253Q196 612 196 555V472H337V564Q337 601 348 627Q359 653 377 669Q395 685 417.5 692.5Q440 700 463 700H495Q505 700 511.5 694.5Q518 689 518 677V631Q518 612 501 612H490Q434 612 434 555V472H576Z" glyph-name="f_f_l" horiz-adv-x="768" unicode="ﬄ" /><glyph d="M672 154Q672 115 692.5 97.5Q713 80 738 80Q749 80 762.5 83.5Q776 87 791 95Q813 108 823 92L844 59Q855 43 841 31Q821 12 790 2Q759 -8 723 -8Q695 -8 668.5 0Q642 8 621.5 25Q601 42 588.5 69.5Q576 97 576 135V391H434V19Q434 11 429 5.5Q424 0 416 0H356Q348 0 342.5 5.5Q337 11 337 19V391H196V19Q196 11 191 5.5Q186 0 178 0H119Q111 0 105.5 5.5Q100 11 100 19V391H31Q23 391 18 396.5Q13 402 13 410V453Q13 461 18 466.5Q23 472 31 472H100V564Q100 601 111 627Q122 653 140 669Q158 685 180.5 692.5Q203 700 226 700H256Q281 700 281 677V631Q281 612 263 612H253Q196 612 196 555V472H337V564Q337 601 348 627Q359 653 377 669Q395 685 417.5 692.5Q440 700 463 700H495Q505 700 511.5 694.5Q518 689 518 677V631Q518 612 501 612H490Q434 612 434 555V472H576V615Q576 623 581 628.5Q586 634 594 634H654Q662 634 667 628.5Q672 623 672 615V472H817Q824 472 829.5 466.5Q835 461 835 453V410Q835 402 829.5 396.5Q824 391 817 391H672V154Z" glyph-name="f_f_t" horiz-adv-x="854" unicode="" /><glyph d="M337 472 337 682Q337 690 342.5 695Q348 700 356 700H416Q423 700 428.5 695.5Q434 691 434 683V402Q455 438 497 461.5Q539 485 599 485Q650 485 688 468.5Q726 452 751.5 422.5Q777 393 790 353Q803 313 803 266V17Q803 9 797.5 4.5Q792 0 785 0H726Q718 0 712.5 4.5Q707 9 707 17V255Q707 321 673 359Q639 397 574 397Q510 397 472 357.5Q434 318 434 255V17Q434 9 428.5 4.5Q423 0 416 0H356Q348 0 342.5 5Q337 10 337 18V391H196V19Q196 11 191 5.5Q186 0 178 0H119Q111 0 105.5 5.5Q100 11 100 19V391H31Q23 391 18 396.5Q13 402 13 410V453Q13 461 18 466.5Q23 472 31 472H100V564Q100 601 111.5 627Q123 653 142 669Q161 685 186 692.5Q211 700 238 700H256Q281 700 281 677V631Q281 612 263 612H253Q196 612 196 555V472Z" glyph-name="f_h" horiz-adv-x="856" unicode="" /><glyph d="M196 472 415 472Q423 472 428.5 466.5Q434 461 434 453V-64Q434 -106 420.5 -136.5Q407 -167 385.5 -186.5Q364 -206 336 -215.5Q308 -225 280 -225Q248 -225 216.5 -215.5Q185 -206 165 -187Q159 -182 158.5 -174Q158 -166 163 -159L187 -127Q194 -117 202 -117Q210 -117 218 -122Q232 -130 246.5 -134Q261 -138 272 -138Q297 -138 317.5 -120Q338 -102 338 -63V391H196V19Q196 11 191 5.5Q186 0 178 0H119Q111 0 105.5 5.5Q100 11 100 19V391H31Q23 391 18 396.5Q13 402 13 410V453Q13 461 18 466.5Q23 472 31 472H100V565Q100 605 113 634.5Q126 664 148 683Q170 702 198 711Q226 720 255 720Q284 720 316 710.5Q348 701 371 682Q376 677 377 669Q378 661 373 654L347 619Q339 608 330 610Q321 612 314 617Q300 626 286.5 629.5Q273 633 262 633Q234 633 215 614Q196 595 196 559Z" glyph-name="f_j" horiz-adv-x="492" unicode="" /><glyph d="M196 19Q196 11 191 5.5Q186 0 178 0H119Q111 0 105.5 5.5Q100 11 100 19V391H31Q23 391 18 396.5Q13 402 13 410V453Q13 461 18 466.5Q23 472 31 472H100V564Q100 601 111 627Q122 653 140 669Q158 685 180.5 692.5Q203 700 226 700H256Q281 700 281 677V631Q281 612 263 612H253Q196 612 196 555V472H337V682Q337 690 342.5 695Q348 700 356 700H416Q424 700 429 695Q434 690 434 682V295H475L623 460Q633 472 645 472H720Q731 472 733.5 464.5Q736 457 730 449L556 265L757 24Q763 16 760 8Q757 0 746 0H672Q654 0 644 15L473 221H434V18Q434 10 429 5Q424 0 416 0H356Q348 0 342.5 5Q337 10 337 18V391H196V19Z" glyph-name="f_k" horiz-adv-x="758" unicode="" /><glyph d="M350 391 196 391V19Q196 11 191 5.5Q186 0 178 0H119Q111 0 105.5 5.5Q100 11 100 19V391H31Q23 391 18 396.5Q13 402 13 410V453Q13 461 18 466.5Q23 472 31 472H100V564Q100 601 111.5 627Q123 653 142 669Q161 685 186 692.5Q211 700 238 700H256Q281 700 281 677V631Q281 612 263 612H253Q196 612 196 555V472H350V615Q350 623 355.5 628.5Q361 634 369 634H428Q436 634 441 628.5Q446 623 446 615V472H591Q610 472 610 453V410Q610 402 604.5 396.5Q599 391 591 391H446V154Q446 115 466.5 97.5Q487 80 513 80Q524 80 537.5 83.5Q551 87 565 95Q586 108 598 92L619 59Q628 43 616 31Q572 -8 497 -8Q469 -8 442.5 0Q416 8 395.5 25Q375 42 362.5 69.5Q350 97 350 135Z" glyph-name="f_t" horiz-adv-x="629" unicode="" /><glyph d="M575 -8Q547 -8 520.5 0Q494 8 473.5 25Q453 42 440.5 69.5Q428 97 428 135V391H191V154Q191 115 211.5 97.5Q232 80 257 80Q268 80 281.5 83.5Q295 87 309 95Q330 108 342 92L363 59Q374 43 360 31Q316 -8 241 -8Q214 -8 187.5 0Q161 8 140.5 25Q120 42 107.5 69.5Q95 97 95 135V391H25Q18 391 13 396.5Q8 402 8 410V453Q8 461 13 466.5Q18 472 25 472H95V615Q95 634 114 634H173Q181 634 186 628.5Q191 623 191 615V472H428V615Q428 623 433.5 628.5Q439 634 446 634H506Q514 634 519 628.5Q524 623 524 615V472H669Q677 472 682 466.5Q687 461 687 453V410Q687 402 682 396.5Q677 391 669 391H524V154Q524 115 544.5 97.5Q565 80 590 80Q601 80 614.5 83.5Q628 87 642 95Q664 107 675 92L696 59Q707 43 693 31Q673 12 642 2Q611 -8 575 -8Z" glyph-name="t_t" horiz-adv-x="706" unicode="" /><glyph d="M491 188 178 188L114 17Q107 0 94 0H25Q16 0 11.5 6.5Q7 13 11 24L266 682Q270 691 276.5 695.5Q283 700 291 700H384Q392 700 399 695.5Q406 691 410 682L665 25Q670 14 665 7Q660 0 651 0H577Q563 0 557 17ZM210 272 459 272L336 595H332ZM453 938Q464 938 468 930Q472 922 467 914L386 773Q377 758 364 758H323Q300 758 306 780L353 921Q358 938 377 938H453Z" glyph-name="Aacute" horiz-adv-x="676" unicode="Á" /><glyph d="M491 188 178 188L114 17Q107 0 94 0H25Q16 0 11.5 6.5Q7 13 11 24L266 682Q270 691 276.5 695.5Q283 700 291 700H384Q392 700 399 695.5Q406 691 410 682L665 25Q670 14 665 7Q660 0 651 0H577Q563 0 557 17ZM210 272 459 272L336 595H332ZM372 938Q389 938 399 920L490 781Q496 771 491 764.5Q486 758 479 758H427Q417 758 412 761Q407 764 402 771L337 860L272 771Q266 764 261 761Q256 758 247 758H196Q188 758 183.5 764.5Q179 771 184 781L275 920Q285 938 303 938Z" glyph-name="Acircumflex" horiz-adv-x="676" unicode="Â" /><glyph d="M491 188 178 188L114 17Q107 0 94 0H25Q16 0 11.5 6.5Q7 13 11 24L266 682Q270 691 276.5 695.5Q283 700 291 700H384Q392 700 399 695.5Q406 691 410 682L665 25Q670 14 665 7Q660 0 651 0H577Q563 0 557 17ZM210 272 459 272L336 595H332ZM253 783Q228 783 210.5 801Q193 819 193 843Q193 868 210.5 886Q228 904 253 904Q278 904 295.5 886Q313 868 313 843Q313 819 295.5 801Q278 783 253 783ZM421 783Q396 783 378.5 801Q361 819 361 843Q361 868 378.5 886Q396 904 421 904Q446 904 463.5 886Q481 868 481 843Q481 819 463.5 801Q446 783 421 783Z" glyph-name="Adieresis" horiz-adv-x="676" unicode="Ä" /><glyph d="M491 188 178 188L114 17Q107 0 94 0H25Q16 0 11.5 6.5Q7 13 11 24L266 682Q270 691 276.5 695.5Q283 700 291 700H384Q392 700 399 695.5Q406 691 410 682L665 25Q670 14 665 7Q660 0 651 0H577Q563 0 557 17ZM210 272 459 272L336 595H332ZM300 938Q319 938 324 921L372 780Q376 769 370.5 763.5Q365 758 354 758H313Q305 758 300.5 761.5Q296 765 291 773L210 914Q205 922 209 930Q213 938 224 938Z" glyph-name="Agrave" horiz-adv-x="676" unicode="À" /><glyph d="M491 188 178 188L114 17Q107 0 94 0H25Q16 0 11.5 6.5Q7 13 11 24L266 682Q270 691 276.5 695.5Q283 700 291 700H384Q392 700 399 695.5Q406 691 410 682L665 25Q670 14 665 7Q660 0 651 0H577Q563 0 557 17ZM210 272 459 272L336 595H332ZM337 746Q310 746 287 755Q264 764 246.5 780.5Q229 797 219 819.5Q209 842 209 869Q209 896 219 918.5Q229 941 246.5 957.5Q264 974 287 983.5Q310 993 337 993Q364 993 387 983.5Q410 974 427.5 957.5Q445 941 455 918.5Q465 896 465 869Q465 842 455 819.5Q445 797 427.5 780.5Q410 764 387 755Q364 746 337 746ZM337 807Q364 807 380.5 825Q397 843 397 869Q397 895 380.5 913.5Q364 932 337 932Q310 932 293.5 913.5Q277 895 277 869Q277 843 293.5 825Q310 807 337 807Z" glyph-name="Aring" horiz-adv-x="676" unicode="Å" /><glyph d="M491 188 178 188L114 17Q107 0 94 0H25Q16 0 11.5 6.5Q7 13 11 24L266 682Q270 691 276.5 695.5Q283 700 291 700H384Q392 700 399 695.5Q406 691 410 682L665 25Q670 14 665 7Q660 0 651 0H577Q563 0 557 17ZM210 272 459 272L336 595H332ZM411 772Q395 772 374.5 777Q354 782 334.5 788.5Q315 795 298 800Q281 805 271 805Q251 805 241 794.5Q231 784 220 777Q210 770 199 780L180 803Q172 811 172 821Q172 831 178.5 844Q185 857 197 867.5Q209 878 226 885.5Q243 893 263 893Q279 893 299 887.5Q319 882 338.5 876Q358 870 375 864.5Q392 859 403 859Q423 859 433 869.5Q443 880 454 888Q465 893 476 883L494 862Q502 852 502 843Q502 832 495.5 820Q489 808 477 797Q465 786 448 779Q431 772 411 772Z" glyph-name="Atilde" horiz-adv-x="676" unicode="Ã" /><glyph d="M491 188 178 188L114 17Q107 0 94 0H25Q16 0 11.5 6.5Q7 13 11 24L266 682Q270 691 276.5 695.5Q283 700 291 700H384Q392 700 399 695.5Q406 691 410 682L665 25Q670 14 665 7Q660 0 651 0H577Q563 0 557 17ZM210 272 459 272L336 595H332ZM337 753Q270 753 233 787.5Q196 822 196 880V896Q196 908 208 908H266Q277 908 277 897V887Q277 858 294 844Q311 830 337 830Q363 830 380.5 844Q398 858 398 887V897Q398 908 410 908H466Q479 908 479 896V880Q479 822 442 787.5Q405 753 337 753Z" glyph-name="Abreve" horiz-adv-x="676" unicode="Ă" /><glyph d="M491 188 178 188L114 17Q107 0 94 0H25Q16 0 11.5 6.5Q7 13 11 24L266 682Q270 691 276.5 695.5Q283 700 291 700H384Q392 700 399 695.5Q406 691 410 682L665 25Q670 14 665 7Q660 0 651 0H577Q563 0 557 17ZM210 272 459 272L336 595H332ZM207 778Q199 778 193.5 783.5Q188 789 188 797V840Q188 848 193.5 853Q199 858 207 858H467Q475 858 480.5 853Q486 848 486 840V797Q486 789 480.5 783.5Q475 778 467 778Z" glyph-name="Amacron" horiz-adv-x="676" unicode="Ā" /><glyph d="M491 188 178 188L114 17Q107 0 94 0H25Q16 0 11.5 6.5Q7 13 11 24L266 682Q270 691 276.5 695.5Q283 700 291 700H384Q392 700 399 695.5Q406 691 410 682L665 25Q670 14 665 7Q660 0 651 0H577Q563 0 557 17ZM210 272 459 272L336 595H332ZM492 -132Q492 -105 505 -81Q518 -57 537 -37Q556 -17 575.5 -3Q595 11 609 19L637 16L642 5Q616 -27 598.5 -58.5Q581 -90 581 -110Q581 -127 591 -137.5Q601 -148 624 -148Q632 -148 639.5 -147Q647 -146 655 -145Q661 -143 665.5 -147.5Q670 -152 668 -163L665 -188Q665 -196 658 -201Q651 -206 641 -209Q631 -212 618.5 -213.5Q606 -215 594 -215Q547 -215 519.5 -193Q492 -171 492 -132Z" glyph-name="Aogonek" horiz-adv-x="676" unicode="Ą" /><glyph d="M393 -13Q318 -13 252 14.5Q186 42 137.5 90.5Q89 139 61 205.5Q33 272 33 350Q33 428 61 494.5Q89 561 137.5 609.5Q186 658 252 685.5Q318 713 393 713Q449 713 501 698Q553 683 596.5 655Q640 627 673 586.5Q706 546 724 495Q726 489 724 483.5Q722 478 713 476L644 461Q634 459 630 464Q626 469 624 475Q594 541 535.5 581.5Q477 622 394 622Q338 622 290.5 601Q243 580 208.5 543.5Q174 507 155 457.5Q136 408 136 350Q136 292 155 242.5Q174 193 208.5 156.5Q243 120 290.5 99Q338 78 394 78Q477 78 535.5 118.5Q594 159 624 225Q626 231 630 236Q634 241 644 239L713 224Q722 222 724 216.5Q726 211 724 205Q706 154 673 113.5Q640 73 596.5 45Q553 17 501 2Q449 -13 393 -13ZM433 3 367 -167Q362 -181 345 -181H288Q280 -181 275 -175Q270 -169 274 -158L340 12Z" glyph-name="Ccedilla" horiz-adv-x="743" unicode="Ç" /><glyph d="M393 -13Q318 -13 252 14.5Q186 42 137.5 90.5Q89 139 61 205.5Q33 272 33 350Q33 428 61 494.5Q89 561 137.5 609.5Q186 658 252 685.5Q318 713 393 713Q449 713 501 698Q553 683 596.5 655Q640 627 673 586.5Q706 546 724 495Q726 489 724 483.5Q722 478 713 476L644 461Q634 459 630 464Q626 469 624 475Q594 541 535.5 581.5Q477 622 394 622Q338 622 290.5 601Q243 580 208.5 543.5Q174 507 155 457.5Q136 408 136 350Q136 292 155 242.5Q174 193 208.5 156.5Q243 120 290.5 99Q338 78 394 78Q477 78 535.5 118.5Q594 159 624 225Q626 231 630 236Q634 241 644 239L713 224Q722 222 724 216.5Q726 211 724 205Q706 154 673 113.5Q640 73 596.5 45Q553 17 501 2Q449 -13 393 -13ZM502 938Q513 938 517 930Q521 922 516 914L435 773Q426 758 413 758H372Q349 758 355 780L402 921Q407 938 426 938H502Z" glyph-name="Cacute" horiz-adv-x="743" unicode="Ć" /><glyph d="M393 -13Q318 -13 252 14.5Q186 42 137.5 90.5Q89 139 61 205.5Q33 272 33 350Q33 428 61 494.5Q89 561 137.5 609.5Q186 658 252 685.5Q318 713 393 713Q449 713 501 698Q553 683 596.5 655Q640 627 673 586.5Q706 546 724 495Q726 489 724 483.5Q722 478 713 476L644 461Q634 459 630 464Q626 469 624 475Q594 541 535.5 581.5Q477 622 394 622Q338 622 290.5 601Q243 580 208.5 543.5Q174 507 155 457.5Q136 408 136 350Q136 292 155 242.5Q174 193 208.5 156.5Q243 120 290.5 99Q338 78 394 78Q477 78 535.5 118.5Q594 159 624 225Q626 231 630 236Q634 241 644 239L713 224Q722 222 724 216.5Q726 211 724 205Q706 154 673 113.5Q640 73 596.5 45Q553 17 501 2Q449 -13 393 -13ZM352 758Q334 758 324 775L233 915Q228 925 232.5 931.5Q237 938 245 938H296Q305 938 310 935Q315 932 321 924L386 836L451 924Q456 932 461 935Q466 938 476 938H528Q535 938 540 931.5Q545 925 539 915L448 775Q438 758 421 758H352Z" glyph-name="Ccaron" horiz-adv-x="743" unicode="Č" /><glyph d="M393 -13Q318 -13 252 14.5Q186 42 137.5 90.5Q89 139 61 205.5Q33 272 33 350Q33 428 61 494.5Q89 561 137.5 609.5Q186 658 252 685.5Q318 713 393 713Q449 713 501 698Q553 683 596.5 655Q640 627 673 586.5Q706 546 724 495Q726 489 724 483.5Q722 478 713 476L644 461Q634 459 630 464Q626 469 624 475Q594 541 535.5 581.5Q477 622 394 622Q338 622 290.5 601Q243 580 208.5 543.5Q174 507 155 457.5Q136 408 136 350Q136 292 155 242.5Q174 193 208.5 156.5Q243 120 290.5 99Q338 78 394 78Q477 78 535.5 118.5Q594 159 624 225Q626 231 630 236Q634 241 644 239L713 224Q722 222 724 216.5Q726 211 724 205Q706 154 673 113.5Q640 73 596.5 45Q553 17 501 2Q449 -13 393 -13ZM421 938Q438 938 448 920L539 781Q545 771 540 764.5Q535 758 528 758H476Q466 758 461 761Q456 764 451 771L386 860L321 771Q315 764 310 761Q305 758 296 758H245Q237 758 232.5 764.5Q228 771 233 781L324 920Q334 938 352 938Z" glyph-name="Ccircumflex" horiz-adv-x="743" unicode="Ĉ" /><glyph d="M393 -13Q318 -13 252 14.5Q186 42 137.5 90.5Q89 139 61 205.5Q33 272 33 350Q33 428 61 494.5Q89 561 137.5 609.5Q186 658 252 685.5Q318 713 393 713Q449 713 501 698Q553 683 596.5 655Q640 627 673 586.5Q706 546 724 495Q726 489 724 483.5Q722 478 713 476L644 461Q634 459 630 464Q626 469 624 475Q594 541 535.5 581.5Q477 622 394 622Q338 622 290.5 601Q243 580 208.5 543.5Q174 507 155 457.5Q136 408 136 350Q136 292 155 242.5Q174 193 208.5 156.5Q243 120 290.5 99Q338 78 394 78Q477 78 535.5 118.5Q594 159 624 225Q626 231 630 236Q634 241 644 239L713 224Q722 222 724 216.5Q726 211 724 205Q706 154 673 113.5Q640 73 596.5 45Q553 17 501 2Q449 -13 393 -13ZM385 785Q360 785 342.5 803Q325 821 325 845Q325 870 342.5 888Q360 906 385 906Q410 906 427.5 888Q445 870 445 845Q445 821 427.5 803Q410 785 385 785Z" glyph-name="Cdotaccent" horiz-adv-x="743" unicode="Ċ" /><glyph d="M331 700Q418 700 486 674.5Q554 649 601.5 603Q649 557 673.5 492.5Q698 428 698 350Q698 272 673.5 207.5Q649 143 601.5 97Q554 51 486 25.5Q418 0 331 0H95Q87 0 82 5.5Q77 11 77 19V681Q77 689 82 694.5Q87 700 95 700ZM337 92Q394 92 441.5 110Q489 128 522.5 161.5Q556 195 575 242.5Q594 290 594 350Q594 410 575 458Q556 506 522.5 539.5Q489 573 441.5 590.5Q394 608 337 608H177V92ZM335 758Q317 758 307 775L216 915Q211 925 215.5 931.5Q220 938 228 938H279Q288 938 293 935Q298 932 304 924L369 836L434 924Q439 932 444 935Q449 938 459 938H511Q518 938 523 931.5Q528 925 522 915L431 775Q421 758 404 758H335Z" glyph-name="Dcaron" horiz-adv-x="733" unicode="Ď" /><glyph d="M110 0Q102 0 96.5 5.5Q91 11 91 19V313H19Q11 313 5.5 319Q0 325 0 333V375Q0 383 5.5 388.5Q11 394 19 394H91V681Q91 689 96.5 694.5Q102 700 110 700H345Q432 700 500 674.5Q568 649 615.5 603Q663 557 687.5 492.5Q712 428 712 350Q712 272 687.5 207.5Q663 143 615.5 97Q568 51 500 25.5Q432 0 345 0ZM351 92Q408 92 455.5 110Q503 128 536.5 161.5Q570 195 589 242.5Q608 290 608 350Q608 410 589 458Q570 506 536.5 539.5Q503 573 455.5 590.5Q408 608 351 608H191V394H379Q387 394 392.5 388.5Q398 383 398 375V333Q398 325 392.5 319Q387 313 379 313H191V92Z" glyph-name="Dcroat" horiz-adv-x="747" unicode="Đ" /><glyph d="M571 700Q579 700 584.5 694.5Q590 689 590 681V627Q590 619 584.5 613.5Q579 608 571 608H177V398H380Q399 398 399 379V328Q399 320 393.5 314Q388 308 380 308H177V92H575Q583 92 588.5 86.5Q594 81 594 73V19Q594 11 588.5 5.5Q583 0 575 0H95Q87 0 82 5.5Q77 11 77 19V681Q77 689 82 694.5Q87 700 95 700ZM445 938Q456 938 460 930Q464 922 459 914L378 773Q369 758 356 758H315Q292 758 298 780L345 921Q350 938 369 938H445Z" glyph-name="Eacute" horiz-adv-x="619" unicode="É" /><glyph d="M571 700Q579 700 584.5 694.5Q590 689 590 681V627Q590 619 584.5 613.5Q579 608 571 608H177V398H380Q399 398 399 379V328Q399 320 393.5 314Q388 308 380 308H177V92H575Q583 92 588.5 86.5Q594 81 594 73V19Q594 11 588.5 5.5Q583 0 575 0H95Q87 0 82 5.5Q77 11 77 19V681Q77 689 82 694.5Q87 700 95 700ZM364 938Q381 938 391 920L482 781Q488 771 483 764.5Q478 758 471 758H419Q409 758 404 761Q399 764 394 771L329 860L264 771Q258 764 253 761Q248 758 239 758H188Q180 758 175.5 764.5Q171 771 176 781L267 920Q277 938 295 938Z" glyph-name="Ecircumflex" horiz-adv-x="619" unicode="Ê" /><glyph d="M571 700Q579 700 584.5 694.5Q590 689 590 681V627Q590 619 584.5 613.5Q579 608 571 608H177V398H380Q399 398 399 379V328Q399 320 393.5 314Q388 308 380 308H177V92H575Q583 92 588.5 86.5Q594 81 594 73V19Q594 11 588.5 5.5Q583 0 575 0H95Q87 0 82 5.5Q77 11 77 19V681Q77 689 82 694.5Q87 700 95 700ZM245 783Q220 783 202.5 801Q185 819 185 843Q185 868 202.5 886Q220 904 245 904Q270 904 287.5 886Q305 868 305 843Q305 819 287.5 801Q270 783 245 783ZM413 783Q388 783 370.5 801Q353 819 353 843Q353 868 370.5 886Q388 904 413 904Q438 904 455.5 886Q473 868 473 843Q473 819 455.5 801Q438 783 413 783Z" glyph-name="Edieresis" horiz-adv-x="619" unicode="Ë" /><glyph d="M571 700Q579 700 584.5 694.5Q590 689 590 681V627Q590 619 584.5 613.5Q579 608 571 608H177V398H380Q399 398 399 379V328Q399 320 393.5 314Q388 308 380 308H177V92H575Q583 92 588.5 86.5Q594 81 594 73V19Q594 11 588.5 5.5Q583 0 575 0H95Q87 0 82 5.5Q77 11 77 19V681Q77 689 82 694.5Q87 700 95 700ZM292 938Q311 938 316 921L364 780Q368 769 362.5 763.5Q357 758 346 758H305Q297 758 292.5 761.5Q288 765 283 773L202 914Q197 922 201 930Q205 938 216 938Z" glyph-name="Egrave" horiz-adv-x="619" unicode="È" /><glyph d="M571 700Q579 700 584.5 694.5Q590 689 590 681V627Q590 619 584.5 613.5Q579 608 571 608H177V398H380Q399 398 399 379V328Q399 320 393.5 314Q388 308 380 308H177V92H575Q583 92 588.5 86.5Q594 81 594 73V19Q594 11 588.5 5.5Q583 0 575 0H95Q87 0 82 5.5Q77 11 77 19V681Q77 689 82 694.5Q87 700 95 700ZM329 753Q262 753 225 787.5Q188 822 188 880V896Q188 908 200 908H258Q269 908 269 897V887Q269 858 286 844Q303 830 329 830Q355 830 372.5 844Q390 858 390 887V897Q390 908 402 908H458Q471 908 471 896V880Q471 822 434 787.5Q397 753 329 753Z" glyph-name="Ebreve" horiz-adv-x="619" unicode="Ĕ" /><glyph d="M571 700Q579 700 584.5 694.5Q590 689 590 681V627Q590 619 584.5 613.5Q579 608 571 608H177V398H380Q399 398 399 379V328Q399 320 393.5 314Q388 308 380 308H177V92H575Q583 92 588.5 86.5Q594 81 594 73V19Q594 11 588.5 5.5Q583 0 575 0H95Q87 0 82 5.5Q77 11 77 19V681Q77 689 82 694.5Q87 700 95 700ZM295 758Q277 758 267 775L176 915Q171 925 175.5 931.5Q180 938 188 938H239Q248 938 253 935Q258 932 264 924L329 836L394 924Q399 932 404 935Q409 938 419 938H471Q478 938 483 931.5Q488 925 482 915L391 775Q381 758 364 758H295Z" glyph-name="Ecaron" horiz-adv-x="619" unicode="Ě" /><glyph d="M571 700Q579 700 584.5 694.5Q590 689 590 681V627Q590 619 584.5 613.5Q579 608 571 608H177V398H380Q399 398 399 379V328Q399 320 393.5 314Q388 308 380 308H177V92H575Q583 92 588.5 86.5Q594 81 594 73V19Q594 11 588.5 5.5Q583 0 575 0H95Q87 0 82 5.5Q77 11 77 19V681Q77 689 82 694.5Q87 700 95 700ZM329 785Q304 785 286.5 803Q269 821 269 845Q269 870 286.5 888Q304 906 329 906Q354 906 371.5 888Q389 870 389 845Q389 821 371.5 803Q354 785 329 785Z" glyph-name="Edotaccent" horiz-adv-x="619" unicode="Ė" /><glyph d="M571 700Q579 700 584.5 694.5Q590 689 590 681V627Q590 619 584.5 613.5Q579 608 571 608H177V398H380Q399 398 399 379V328Q399 320 393.5 314Q388 308 380 308H177V92H575Q583 92 588.5 86.5Q594 81 594 73V19Q594 11 588.5 5.5Q583 0 575 0H95Q87 0 82 5.5Q77 11 77 19V681Q77 689 82 694.5Q87 700 95 700ZM199 778Q191 778 185.5 783.5Q180 789 180 797V840Q180 848 185.5 853Q191 858 199 858H459Q467 858 472.5 853Q478 848 478 840V797Q478 789 472.5 783.5Q467 778 459 778Z" glyph-name="Emacron" horiz-adv-x="619" unicode="Ē" /><glyph d="M544 -188Q542 -204 519.5 -209.5Q497 -215 473 -215Q426 -215 398 -193Q370 -171 370 -132Q370 -111 378.5 -92Q387 -73 399.5 -56Q412 -39 427.5 -25Q443 -11 458 0H95Q87 0 82 5.5Q77 11 77 19V681Q77 689 82 694.5Q87 700 95 700H571Q579 700 584.5 694.5Q590 689 590 681V627Q590 619 584.5 613.5Q579 608 571 608H177V398H380Q399 398 399 379V328Q399 320 393.5 314Q388 308 380 308H177V92H575Q583 92 588.5 86.5Q594 81 594 73V19Q594 11 588.5 5.5Q583 0 575 0H517Q493 -31 476 -60.5Q459 -90 459 -110Q459 -127 469 -137.5Q479 -148 502 -148Q510 -148 517.5 -147Q525 -146 533 -145Q540 -143 544.5 -147.5Q549 -152 547 -163L544 -188Z" glyph-name="Eogonek" horiz-adv-x="619" unicode="Ę" /><glyph d="M397 713Q454 713 506.5 698Q559 683 603 655Q647 627 680.5 586.5Q714 546 733 495Q735 490 733.5 484Q732 478 722 476L654 461Q644 459 640 464Q636 469 634 475Q602 542 542 582Q482 622 397 622Q341 622 293 601Q245 580 210 543Q175 506 155.5 456Q136 406 136 349Q136 290 155.5 240.5Q175 191 209.5 154.5Q244 118 292 97.5Q340 77 397 77Q444 77 483.5 91.5Q523 106 553 130Q583 154 603 185.5Q623 217 631 250H417Q409 250 403 255.5Q397 261 397 269V313Q397 321 403 326Q409 331 417 331H709Q717 331 722.5 326Q728 321 728 313V19Q728 11 722.5 5.5Q717 0 709 0H656Q648 0 642 5.5Q636 11 636 19V119Q623 95 601 71.5Q579 48 548 29.5Q517 11 476 -1Q435 -13 384 -13Q309 -13 245 14.5Q181 42 133.5 90.5Q86 139 59.5 205.5Q33 272 33 350Q33 428 61.5 494.5Q90 561 139 609.5Q188 658 254.5 685.5Q321 713 397 713ZM391 753Q324 753 287 787.5Q250 822 250 880V896Q250 908 262 908H320Q331 908 331 897V887Q331 858 348 844Q365 830 391 830Q417 830 434.5 844Q452 858 452 887V897Q452 908 464 908H520Q533 908 533 896V880Q533 822 496 787.5Q459 753 391 753Z" glyph-name="Gbreve" horiz-adv-x="777" unicode="Ğ" /><glyph d="M397 713Q454 713 506.5 698Q559 683 603 655Q647 627 680.5 586.5Q714 546 733 495Q735 490 733.5 484Q732 478 722 476L654 461Q644 459 640 464Q636 469 634 475Q602 542 542 582Q482 622 397 622Q341 622 293 601Q245 580 210 543Q175 506 155.5 456Q136 406 136 349Q136 290 155.5 240.5Q175 191 209.5 154.5Q244 118 292 97.5Q340 77 397 77Q444 77 483.5 91.5Q523 106 553 130Q583 154 603 185.5Q623 217 631 250H417Q409 250 403 255.5Q397 261 397 269V313Q397 321 403 326Q409 331 417 331H709Q717 331 722.5 326Q728 321 728 313V19Q728 11 722.5 5.5Q717 0 709 0H656Q648 0 642 5.5Q636 11 636 19V119Q623 95 601 71.5Q579 48 548 29.5Q517 11 476 -1Q435 -13 384 -13Q309 -13 245 14.5Q181 42 133.5 90.5Q86 139 59.5 205.5Q33 272 33 350Q33 428 61.5 494.5Q90 561 139 609.5Q188 658 254.5 685.5Q321 713 397 713ZM426 938Q443 938 453 920L544 781Q550 771 545 764.5Q540 758 533 758H481Q471 758 466 761Q461 764 456 771L391 860L326 771Q320 764 315 761Q310 758 301 758H250Q242 758 237.5 764.5Q233 771 238 781L329 920Q339 938 357 938Z" glyph-name="Gcircumflex" horiz-adv-x="777" unicode="Ĝ" /><glyph d="M397 713Q454 713 506.5 698Q559 683 603 655Q647 627 680.5 586.5Q714 546 733 495Q735 490 733.5 484Q732 478 722 476L654 461Q644 459 640 464Q636 469 634 475Q602 542 542 582Q482 622 397 622Q341 622 293 601Q245 580 210 543Q175 506 155.5 456Q136 406 136 349Q136 290 155.5 240.5Q175 191 209.5 154.5Q244 118 292 97.5Q340 77 397 77Q444 77 483.5 91.5Q523 106 553 130Q583 154 603 185.5Q623 217 631 250H417Q409 250 403 255.5Q397 261 397 269V313Q397 321 403 326Q409 331 417 331H709Q717 331 722.5 326Q728 321 728 313V19Q728 11 722.5 5.5Q717 0 709 0H656Q648 0 642 5.5Q636 11 636 19V119Q623 95 601 71.5Q579 48 548 29.5Q517 11 476 -1Q435 -13 384 -13Q309 -13 245 14.5Q181 42 133.5 90.5Q86 139 59.5 205.5Q33 272 33 350Q33 428 61.5 494.5Q90 561 139 609.5Q188 658 254.5 685.5Q321 713 397 713ZM332 -53Q334 -45 338.5 -40Q343 -35 351 -35H414Q424 -35 428.5 -42.5Q433 -50 430 -57L383 -178Q377 -194 360 -194H320Q312 -194 307.5 -188.5Q303 -183 305 -175Z" glyph-name="Gcommaaccent" horiz-adv-x="777" unicode="Ģ" /><glyph d="M397 713Q454 713 506.5 698Q559 683 603 655Q647 627 680.5 586.5Q714 546 733 495Q735 490 733.5 484Q732 478 722 476L654 461Q644 459 640 464Q636 469 634 475Q602 542 542 582Q482 622 397 622Q341 622 293 601Q245 580 210 543Q175 506 155.5 456Q136 406 136 349Q136 290 155.5 240.5Q175 191 209.5 154.5Q244 118 292 97.5Q340 77 397 77Q444 77 483.5 91.5Q523 106 553 130Q583 154 603 185.5Q623 217 631 250H417Q409 250 403 255.5Q397 261 397 269V313Q397 321 403 326Q409 331 417 331H709Q717 331 722.5 326Q728 321 728 313V19Q728 11 722.5 5.5Q717 0 709 0H656Q648 0 642 5.5Q636 11 636 19V119Q623 95 601 71.5Q579 48 548 29.5Q517 11 476 -1Q435 -13 384 -13Q309 -13 245 14.5Q181 42 133.5 90.5Q86 139 59.5 205.5Q33 272 33 350Q33 428 61.5 494.5Q90 561 139 609.5Q188 658 254.5 685.5Q321 713 397 713ZM392 785Q367 785 349.5 803Q332 821 332 845Q332 870 349.5 888Q367 906 392 906Q417 906 434.5 888Q452 870 452 845Q452 821 434.5 803Q417 785 392 785Z" glyph-name="Gdotaccent" horiz-adv-x="777" unicode="Ġ" /><glyph d="M574 398 574 509H178V398ZM178 19Q178 11 172.5 5.5Q167 0 159 0H96Q88 0 83 5.5Q78 11 78 19V509H34Q26 509 20.5 514.5Q15 520 15 528V565Q15 573 20.5 578.5Q26 584 34 584H78V681Q78 689 83 694.5Q88 700 96 700H159Q167 700 172.5 694.5Q178 689 178 681V584H574V681Q574 689 579.5 694.5Q585 700 593 700H655Q663 700 668.5 694.5Q674 689 674 681V584H718Q726 584 731.5 578.5Q737 573 737 565V528Q737 520 731.5 514.5Q726 509 718 509H674V19Q674 11 668.5 5.5Q663 0 655 0H593Q585 0 579.5 5.5Q574 11 574 19V308H178Z" glyph-name="Hbar" horiz-adv-x="752" unicode="Ħ" /><glyph d="M673 19Q673 11 667.5 5.5Q662 0 654 0H592Q584 0 578.5 5.5Q573 11 573 19V308H177V19Q177 11 171.5 5.5Q166 0 158 0H95Q87 0 82 5.5Q77 11 77 19V681Q77 689 82 694.5Q87 700 95 700H158Q166 700 171.5 694.5Q177 689 177 681V398H573V681Q573 689 578.5 694.5Q584 700 592 700H654Q662 700 667.5 694.5Q673 689 673 681ZM410 938Q427 938 437 920L528 781Q534 771 529 764.5Q524 758 517 758H465Q455 758 450 761Q445 764 440 771L375 860L310 771Q304 764 299 761Q294 758 285 758H234Q226 758 221.5 764.5Q217 771 222 781L313 920Q323 938 341 938Z" glyph-name="Hcircumflex" horiz-adv-x="750" unicode="Ĥ" /><glyph d="M95 0Q87 0 82 5.5Q77 11 77 19V681Q77 689 82 694.5Q87 700 95 700H158Q166 700 171.5 694.5Q177 689 177 681V19Q177 11 171.5 5.5Q166 0 158 0ZM243 938Q254 938 258 930Q262 922 257 914L176 773Q167 758 154 758H113Q90 758 96 780L143 921Q148 938 167 938H243Z" glyph-name="Iacute" horiz-adv-x="254" unicode="Í" /><glyph d="M95 0Q87 0 82 5.5Q77 11 77 19V681Q77 689 82 694.5Q87 700 95 700H158Q166 700 171.5 694.5Q177 689 177 681V19Q177 11 171.5 5.5Q166 0 158 0ZM161 938Q178 938 188 920L279 781Q285 771 280 764.5Q275 758 268 758H216Q206 758 201 761Q196 764 191 771L126 860L61 771Q55 764 50 761Q45 758 36 758H-15Q-23 758 -27.5 764.5Q-32 771 -27 781L64 920Q74 938 92 938Z" glyph-name="Icircumflex" horiz-adv-x="254" unicode="Î" /><glyph d="M95 0Q87 0 82 5.5Q77 11 77 19V681Q77 689 82 694.5Q87 700 95 700H158Q166 700 171.5 694.5Q177 689 177 681V19Q177 11 171.5 5.5Q166 0 158 0ZM42 783Q17 783 -0.5 801Q-18 819 -18 843Q-18 868 -0.5 886Q17 904 42 904Q67 904 84.5 886Q102 868 102 843Q102 819 84.5 801Q67 783 42 783ZM210 783Q185 783 167.5 801Q150 819 150 843Q150 868 167.5 886Q185 904 210 904Q235 904 252.5 886Q270 868 270 843Q270 819 252.5 801Q235 783 210 783Z" glyph-name="Idieresis" horiz-adv-x="254" unicode="Ï" /><glyph d="M95 0Q87 0 82 5.5Q77 11 77 19V681Q77 689 82 694.5Q87 700 95 700H158Q166 700 171.5 694.5Q177 689 177 681V19Q177 11 171.5 5.5Q166 0 158 0ZM90 938Q109 938 114 921L162 780Q166 769 160.5 763.5Q155 758 144 758H103Q95 758 90.5 761.5Q86 765 81 773L0 914Q-5 922 -1 930Q3 938 14 938Z" glyph-name="Igrave" horiz-adv-x="254" unicode="Ì" /><glyph d="M95 0Q87 0 82 5.5Q77 11 77 19V681Q77 689 82 694.5Q87 700 95 700H158Q166 700 171.5 694.5Q177 689 177 681V19Q177 11 171.5 5.5Q166 0 158 0ZM126 753Q59 753 22 787.5Q-15 822 -15 880V896Q-15 908 -3 908H55Q66 908 66 897V887Q66 858 83 844Q100 830 126 830Q152 830 169.5 844Q187 858 187 887V897Q187 908 199 908H255Q268 908 268 896V880Q268 822 231 787.5Q194 753 126 753Z" glyph-name="Ibreve" horiz-adv-x="254" unicode="Ĭ" /><glyph d="M95 0Q87 0 82 5.5Q77 11 77 19V681Q77 689 82 694.5Q87 700 95 700H158Q166 700 171.5 694.5Q177 689 177 681V19Q177 11 171.5 5.5Q166 0 158 0ZM126 785Q101 785 83.5 803Q66 821 66 845Q66 870 83.5 888Q101 906 126 906Q151 906 168.5 888Q186 870 186 845Q186 821 168.5 803Q151 785 126 785Z" glyph-name="Idotaccent" horiz-adv-x="254" unicode="İ" /><glyph d="M95 0Q87 0 82 5.5Q77 11 77 19V681Q77 689 82 694.5Q87 700 95 700H158Q166 700 171.5 694.5Q177 689 177 681V19Q177 11 171.5 5.5Q166 0 158 0ZM-4 778Q-12 778 -17.5 783.5Q-23 789 -23 797V840Q-23 848 -17.5 853Q-12 858 -4 858H256Q264 858 269.5 853Q275 848 275 840V797Q275 789 269.5 783.5Q264 778 256 778Z" glyph-name="Imacron" horiz-adv-x="254" unicode="Ī" /><glyph d="M95 0Q87 0 82 5.5Q77 11 77 19V681Q77 689 82 694.5Q87 700 95 700H158Q166 700 171.5 694.5Q177 689 177 681V19Q177 11 171.5 5.5Q166 0 158 0ZM13 -132Q13 -105 26 -81Q39 -57 58 -37Q77 -17 96.5 -3Q116 11 130 19L158 16L163 5Q137 -27 119.5 -58.5Q102 -90 102 -110Q102 -127 112 -137.5Q122 -148 145 -148Q153 -148 160.5 -147Q168 -146 176 -145Q182 -143 186.5 -147.5Q191 -152 189 -163L186 -188Q186 -196 179 -201Q172 -206 162 -209Q152 -212 139.5 -213.5Q127 -215 115 -215Q68 -215 40.5 -193Q13 -171 13 -132Z" glyph-name="Iogonek" horiz-adv-x="254" unicode="Į" /><glyph d="M95 0Q87 0 82 5.5Q77 11 77 19V681Q77 689 82 694.5Q87 700 95 700H158Q166 700 171.5 694.5Q177 689 177 681V19Q177 11 171.5 5.5Q166 0 158 0ZM200 772Q184 772 163.5 777Q143 782 123.5 788.5Q104 795 87 800Q70 805 60 805Q40 805 30 794.5Q20 784 9 777Q-1 770 -12 780L-31 803Q-39 811 -39 821Q-39 831 -32.5 844Q-26 857 -14 867.5Q-2 878 15 885.5Q32 893 52 893Q68 893 88 887.5Q108 882 127.5 876Q147 870 164 864.5Q181 859 192 859Q212 859 222 869.5Q232 880 243 888Q254 893 265 883L283 862Q291 852 291 843Q291 832 284.5 820Q278 808 266 797Q254 786 237 779Q220 772 200 772Z" glyph-name="Itilde" horiz-adv-x="254" unicode="Ĩ" /><glyph d="M537 226Q537 171 517.5 127Q498 83 463.5 52Q429 21 382 4Q335 -13 279 -13Q223 -13 175.5 3.5Q128 20 94 50Q60 80 41 123.5Q22 167 22 221V264Q22 272 27.5 277Q33 282 41 282H102Q110 282 116 277Q122 272 122 264V227Q122 195 132 167Q142 139 162 119Q182 99 211 87.5Q240 76 279 76Q318 76 347.5 88Q377 100 397 120.5Q417 141 427 169Q437 197 437 230V681Q437 689 442.5 694.5Q448 700 456 700H518Q526 700 531.5 694.5Q537 689 537 681V226ZM523 938Q540 938 550 920L641 781Q647 771 642 764.5Q637 758 630 758H578Q568 758 563 761Q558 764 553 771L488 860L423 771Q417 764 412 761Q407 758 398 758H347Q339 758 334.5 764.5Q330 771 335 781L426 920Q436 938 454 938Z" glyph-name="Jcircumflex" horiz-adv-x="607" unicode="Ĵ" /><glyph d="M95 0Q87 0 82 5.5Q77 11 77 19V681Q77 689 82 694.5Q87 700 95 700H158Q166 700 171.5 694.5Q177 689 177 681V19Q177 11 171.5 5.5Q166 0 158 0ZM789 226Q789 171 769.5 127Q750 83 715.5 52Q681 21 634 4Q587 -13 531 -13Q475 -13 427.5 3.5Q380 20 346 50Q312 80 293 123.5Q274 167 274 221V264Q274 272 279.5 277Q285 282 293 282H354Q362 282 368 277Q374 272 374 264V227Q374 195 384 167Q394 139 414 119Q434 99 463 87.5Q492 76 531 76Q570 76 599.5 88Q629 100 649 120.5Q669 141 679 169Q689 197 689 230V681Q689 689 694.5 694.5Q700 700 708 700H770Q778 700 783.5 694.5Q789 689 789 681V226Z" glyph-name="IJ" horiz-adv-x="859" unicode="Ĳ" /><glyph d="M358 368 638 20Q643 12 640 6Q637 0 629 0H548Q529 0 518 15L277 317H177V19Q177 11 171 5.5Q165 0 157 0H95Q87 0 82 5.5Q77 11 77 19V681Q77 689 82 694.5Q87 700 95 700H157Q165 700 171 694.5Q177 689 177 681V405H276L521 684Q528 692 535 696Q542 700 553 700H631Q640 700 642.5 692.5Q645 685 640 679ZM268 -53Q270 -45 274.5 -40Q279 -35 287 -35H350Q360 -35 364.5 -42.5Q369 -50 366 -57L319 -178Q313 -194 296 -194H256Q248 -194 243.5 -188.5Q239 -183 241 -175Z" glyph-name="Kcommaaccent" horiz-adv-x="645" unicode="Ķ" /><glyph d="M542 19Q542 11 536.5 5.5Q531 0 523 0H95Q87 0 82 5.5Q77 11 77 19V681Q77 689 82 694.5Q87 700 95 700H157Q165 700 171 694.5Q177 689 177 681V92H523Q531 92 536.5 86.5Q542 81 542 73ZM244 938Q255 938 259 930Q263 922 258 914L177 773Q168 758 155 758H114Q91 758 97 780L144 921Q149 938 168 938H244Z" glyph-name="Lacute" horiz-adv-x="550" unicode="Ĺ" /><glyph d="M369 682Q371 690 375.5 695Q380 700 388 700H451Q461 700 465.5 693Q470 686 467 678L400 507Q394 491 377 491H337Q329 491 324.5 496.5Q320 502 322 510ZM542 19Q542 11 536.5 5.5Q531 0 523 0H95Q87 0 82 5.5Q77 11 77 19V681Q77 689 82 694.5Q87 700 95 700H157Q165 700 171 694.5Q177 689 177 681V92H523Q531 92 536.5 86.5Q542 81 542 73Z" glyph-name="Lcaron" horiz-adv-x="550" unicode="Ľ" /><glyph d="M542 19Q542 11 536.5 5.5Q531 0 523 0H95Q87 0 82 5.5Q77 11 77 19V681Q77 689 82 694.5Q87 700 95 700H157Q165 700 171 694.5Q177 689 177 681V92H523Q531 92 536.5 86.5Q542 81 542 73ZM245 -53Q247 -45 251.5 -40Q256 -35 264 -35H327Q337 -35 341.5 -42.5Q346 -50 343 -57L296 -178Q290 -194 273 -194H233Q225 -194 220.5 -188.5Q216 -183 218 -175Z" glyph-name="Lcommaaccent" horiz-adv-x="550" unicode="Ļ" /><glyph d="M542 19Q542 11 536.5 5.5Q531 0 523 0H95Q87 0 82 5.5Q77 11 77 19V681Q77 689 82 694.5Q87 700 95 700H157Q165 700 171 694.5Q177 689 177 681V92H523Q531 92 536.5 86.5Q542 81 542 73ZM372 287Q343 287 324 306.5Q305 326 305 354Q305 383 324 403Q343 423 372 423Q401 423 421 403Q441 383 441 354Q441 326 421 306.5Q401 287 372 287Z" glyph-name="Ldot" horiz-adv-x="550" unicode="Ŀ" /><glyph d="M177 542 177 19Q177 11 171.5 5.5Q166 0 158 0H95Q87 0 82 5.5Q77 11 77 19V681Q77 689 82 694.5Q87 700 95 700H176Q193 700 204 685L548 164V681Q548 689 553 694.5Q558 700 566 700H628Q636 700 642 694.5Q648 689 648 681V19Q648 11 642 5.5Q636 0 628 0H560Q536 0 525 18ZM436 772Q420 772 399.5 777Q379 782 359.5 788.5Q340 795 323 800Q306 805 296 805Q276 805 266 794.5Q256 784 245 777Q235 770 224 780L205 803Q197 811 197 821Q197 831 203.5 844Q210 857 222 867.5Q234 878 251 885.5Q268 893 288 893Q304 893 324 887.5Q344 882 363.5 876Q383 870 400 864.5Q417 859 428 859Q448 859 458 869.5Q468 880 479 888Q490 893 501 883L519 862Q527 852 527 843Q527 832 520.5 820Q514 808 502 797Q490 786 473 779Q456 772 436 772Z" glyph-name="Ntilde" horiz-adv-x="725" unicode="Ñ" /><glyph d="M177 542 177 19Q177 11 171.5 5.5Q166 0 158 0H95Q87 0 82 5.5Q77 11 77 19V681Q77 689 82 694.5Q87 700 95 700H176Q193 700 204 685L548 164V681Q548 689 553 694.5Q558 700 566 700H628Q636 700 642 694.5Q648 689 648 681V19Q648 11 642 5.5Q636 0 628 0H560Q536 0 525 18ZM478 938Q489 938 493 930Q497 922 492 914L411 773Q402 758 389 758H348Q325 758 331 780L378 921Q383 938 402 938H478Z" glyph-name="Nacute" horiz-adv-x="725" unicode="Ń" /><glyph d="M177 542 177 19Q177 11 171.5 5.5Q166 0 158 0H95Q87 0 82 5.5Q77 11 77 19V681Q77 689 82 694.5Q87 700 95 700H176Q193 700 204 685L548 164V681Q548 689 553 694.5Q558 700 566 700H628Q636 700 642 694.5Q648 689 648 681V19Q648 11 642 5.5Q636 0 628 0H560Q536 0 525 18ZM328 758Q310 758 300 775L209 915Q204 925 208.5 931.5Q213 938 221 938H272Q281 938 286 935Q291 932 297 924L362 836L427 924Q432 932 437 935Q442 938 452 938H504Q511 938 516 931.5Q521 925 515 915L424 775Q414 758 397 758H328Z" glyph-name="Ncaron" horiz-adv-x="725" unicode="Ň" /><glyph d="M177 542 177 19Q177 11 171.5 5.5Q166 0 158 0H95Q87 0 82 5.5Q77 11 77 19V681Q77 689 82 694.5Q87 700 95 700H176Q193 700 204 685L548 164V681Q548 689 553 694.5Q558 700 566 700H628Q636 700 642 694.5Q648 689 648 681V19Q648 11 642 5.5Q636 0 628 0H560Q536 0 525 18ZM303 -53Q305 -45 309.5 -40Q314 -35 322 -35H385Q395 -35 399.5 -42.5Q404 -50 401 -57L354 -178Q348 -194 331 -194H291Q283 -194 278.5 -188.5Q274 -183 276 -175Z" glyph-name="Ncommaaccent" horiz-adv-x="725" unicode="Ņ" /><glyph d="M493 -232Q461 -232 430 -222.5Q399 -213 379 -194Q365 -183 377 -166L401 -132Q407 -123 415.5 -122.5Q424 -122 432 -127Q446 -136 460 -140Q474 -144 485 -144Q511 -144 531 -126Q551 -108 551 -69V0Q537 0 529 13L177 542V19Q177 11 171.5 5.5Q166 0 158 0H95Q87 0 82 5.5Q77 11 77 19V681Q77 689 82 694.5Q87 700 95 700H176Q194 700 204 685L548 164V681Q548 689 553 694.5Q558 700 566 700H628Q636 700 642 694.5Q648 689 648 681V-71Q648 -113 634.5 -143.5Q621 -174 599.5 -193.5Q578 -213 550 -222.5Q522 -232 493 -232Z" glyph-name="Eng" horiz-adv-x="725" unicode="Ŋ" /><glyph d="M754 350Q754 272 725.5 205.5Q697 139 648.5 90.5Q600 42 534 14.5Q468 -13 393 -13Q318 -13 252.5 14.5Q187 42 138 90.5Q89 139 61 205.5Q33 272 33 350Q33 428 61 494.5Q89 561 138 609.5Q187 658 252.5 685.5Q318 713 393 713Q468 713 534 685.5Q600 658 648.5 609.5Q697 561 725.5 494.5Q754 428 754 350ZM650 350Q650 408 631 457.5Q612 507 578 543.5Q544 580 496.5 601Q449 622 393 622Q337 622 289.5 601Q242 580 208 543.5Q174 507 155 457.5Q136 408 136 350Q136 292 155 242.5Q174 193 208 156.5Q242 120 289.5 99Q337 78 393 78Q449 78 496.5 99Q544 120 578 156.5Q612 193 631 242.5Q650 292 650 350ZM509 938Q520 938 524 930Q528 922 523 914L442 773Q433 758 420 758H379Q356 758 362 780L409 921Q414 938 433 938H509Z" glyph-name="Oacute" horiz-adv-x="787" unicode="Ó" /><glyph d="M754 350Q754 272 725.5 205.5Q697 139 648.5 90.5Q600 42 534 14.5Q468 -13 393 -13Q318 -13 252.5 14.5Q187 42 138 90.5Q89 139 61 205.5Q33 272 33 350Q33 428 61 494.5Q89 561 138 609.5Q187 658 252.5 685.5Q318 713 393 713Q468 713 534 685.5Q600 658 648.5 609.5Q697 561 725.5 494.5Q754 428 754 350ZM650 350Q650 408 631 457.5Q612 507 578 543.5Q544 580 496.5 601Q449 622 393 622Q337 622 289.5 601Q242 580 208 543.5Q174 507 155 457.5Q136 408 136 350Q136 292 155 242.5Q174 193 208 156.5Q242 120 289.5 99Q337 78 393 78Q449 78 496.5 99Q544 120 578 156.5Q612 193 631 242.5Q650 292 650 350ZM428 938Q445 938 455 920L546 781Q552 771 547 764.5Q542 758 535 758H483Q473 758 468 761Q463 764 458 771L393 860L328 771Q322 764 317 761Q312 758 303 758H252Q244 758 239.5 764.5Q235 771 240 781L331 920Q341 938 359 938Z" glyph-name="Ocircumflex" horiz-adv-x="787" unicode="Ô" /><glyph d="M754 350Q754 272 725.5 205.5Q697 139 648.5 90.5Q600 42 534 14.5Q468 -13 393 -13Q318 -13 252.5 14.5Q187 42 138 90.5Q89 139 61 205.5Q33 272 33 350Q33 428 61 494.5Q89 561 138 609.5Q187 658 252.5 685.5Q318 713 393 713Q468 713 534 685.5Q600 658 648.5 609.5Q697 561 725.5 494.5Q754 428 754 350ZM650 350Q650 408 631 457.5Q612 507 578 543.5Q544 580 496.5 601Q449 622 393 622Q337 622 289.5 601Q242 580 208 543.5Q174 507 155 457.5Q136 408 136 350Q136 292 155 242.5Q174 193 208 156.5Q242 120 289.5 99Q337 78 393 78Q449 78 496.5 99Q544 120 578 156.5Q612 193 631 242.5Q650 292 650 350ZM308 783Q283 783 265.5 801Q248 819 248 843Q248 868 265.5 886Q283 904 308 904Q333 904 350.5 886Q368 868 368 843Q368 819 350.5 801Q333 783 308 783ZM476 783Q451 783 433.5 801Q416 819 416 843Q416 868 433.5 886Q451 904 476 904Q501 904 518.5 886Q536 868 536 843Q536 819 518.5 801Q501 783 476 783Z" glyph-name="Odieresis" horiz-adv-x="787" unicode="Ö" /><glyph d="M754 350Q754 272 725.5 205.5Q697 139 648.5 90.5Q600 42 534 14.5Q468 -13 393 -13Q318 -13 252.5 14.5Q187 42 138 90.5Q89 139 61 205.5Q33 272 33 350Q33 428 61 494.5Q89 561 138 609.5Q187 658 252.5 685.5Q318 713 393 713Q468 713 534 685.5Q600 658 648.5 609.5Q697 561 725.5 494.5Q754 428 754 350ZM650 350Q650 408 631 457.5Q612 507 578 543.5Q544 580 496.5 601Q449 622 393 622Q337 622 289.5 601Q242 580 208 543.5Q174 507 155 457.5Q136 408 136 350Q136 292 155 242.5Q174 193 208 156.5Q242 120 289.5 99Q337 78 393 78Q449 78 496.5 99Q544 120 578 156.5Q612 193 631 242.5Q650 292 650 350ZM356 938Q375 938 380 921L428 780Q432 769 426.5 763.5Q421 758 410 758H369Q361 758 356.5 761.5Q352 765 347 773L266 914Q261 922 265 930Q269 938 280 938Z" glyph-name="Ograve" horiz-adv-x="787" unicode="Ò" /><glyph d="M754 350Q754 272 725.5 205.5Q697 139 648.5 90.5Q600 42 534 14.5Q468 -13 393 -13Q318 -13 252.5 14.5Q187 42 138 90.5Q89 139 61 205.5Q33 272 33 350Q33 428 61 494.5Q89 561 138 609.5Q187 658 252.5 685.5Q318 713 393 713Q468 713 534 685.5Q600 658 648.5 609.5Q697 561 725.5 494.5Q754 428 754 350ZM650 350Q650 408 631 457.5Q612 507 578 543.5Q544 580 496.5 601Q449 622 393 622Q337 622 289.5 601Q242 580 208 543.5Q174 507 155 457.5Q136 408 136 350Q136 292 155 242.5Q174 193 208 156.5Q242 120 289.5 99Q337 78 393 78Q449 78 496.5 99Q544 120 578 156.5Q612 193 631 242.5Q650 292 650 350ZM466 772Q450 772 429.5 777Q409 782 389.5 788.5Q370 795 353 800Q336 805 326 805Q306 805 296 794.5Q286 784 275 777Q265 770 254 780L235 803Q227 811 227 821Q227 831 233.5 844Q240 857 252 867.5Q264 878 281 885.5Q298 893 318 893Q334 893 354 887.5Q374 882 393.5 876Q413 870 430 864.5Q447 859 458 859Q478 859 488 869.5Q498 880 509 888Q520 893 531 883L549 862Q557 852 557 843Q557 832 550.5 820Q544 808 532 797Q520 786 503 779Q486 772 466 772Z" glyph-name="Otilde" horiz-adv-x="787" unicode="Õ" /><glyph d="M754 350Q754 272 725.5 205.5Q697 139 648.5 90.5Q600 42 534 14.5Q468 -13 393 -13Q318 -13 252.5 14.5Q187 42 138 90.5Q89 139 61 205.5Q33 272 33 350Q33 428 61 494.5Q89 561 138 609.5Q187 658 252.5 685.5Q318 713 393 713Q468 713 534 685.5Q600 658 648.5 609.5Q697 561 725.5 494.5Q754 428 754 350ZM650 350Q650 408 631 457.5Q612 507 578 543.5Q544 580 496.5 601Q449 622 393 622Q337 622 289.5 601Q242 580 208 543.5Q174 507 155 457.5Q136 408 136 350Q136 292 155 242.5Q174 193 208 156.5Q242 120 289.5 99Q337 78 393 78Q449 78 496.5 99Q544 120 578 156.5Q612 193 631 242.5Q650 292 650 350ZM393 753Q326 753 289 787.5Q252 822 252 880V896Q252 908 264 908H322Q333 908 333 897V887Q333 858 350 844Q367 830 393 830Q419 830 436.5 844Q454 858 454 887V897Q454 908 466 908H522Q535 908 535 896V880Q535 822 498 787.5Q461 753 393 753Z" glyph-name="Obreve" horiz-adv-x="787" unicode="Ŏ" /><glyph d="M754 350Q754 272 725.5 205.5Q697 139 648.5 90.5Q600 42 534 14.5Q468 -13 393 -13Q318 -13 252.5 14.5Q187 42 138 90.5Q89 139 61 205.5Q33 272 33 350Q33 428 61 494.5Q89 561 138 609.5Q187 658 252.5 685.5Q318 713 393 713Q468 713 534 685.5Q600 658 648.5 609.5Q697 561 725.5 494.5Q754 428 754 350ZM650 350Q650 408 631 457.5Q612 507 578 543.5Q544 580 496.5 601Q449 622 393 622Q337 622 289.5 601Q242 580 208 543.5Q174 507 155 457.5Q136 408 136 350Q136 292 155 242.5Q174 193 208 156.5Q242 120 289.5 99Q337 78 393 78Q449 78 496.5 99Q544 120 578 156.5Q612 193 631 242.5Q650 292 650 350ZM598 938Q609 938 613 930Q617 922 612 914L531 773Q526 765 521.5 761.5Q517 758 509 758H468Q458 758 453 763.5Q448 769 451 780L498 921Q503 938 522 938ZM418 938Q429 938 433.5 930Q438 922 433 914L352 773Q347 765 342.5 761.5Q338 758 330 758H289Q266 758 272 780L319 921Q324 938 342 938Z" glyph-name="Ohungarumlaut" horiz-adv-x="787" unicode="Ő" /><glyph d="M754 350Q754 272 725.5 205.5Q697 139 648.5 90.5Q600 42 534 14.5Q468 -13 393 -13Q318 -13 252.5 14.5Q187 42 138 90.5Q89 139 61 205.5Q33 272 33 350Q33 428 61 494.5Q89 561 138 609.5Q187 658 252.5 685.5Q318 713 393 713Q468 713 534 685.5Q600 658 648.5 609.5Q697 561 725.5 494.5Q754 428 754 350ZM650 350Q650 408 631 457.5Q612 507 578 543.5Q544 580 496.5 601Q449 622 393 622Q337 622 289.5 601Q242 580 208 543.5Q174 507 155 457.5Q136 408 136 350Q136 292 155 242.5Q174 193 208 156.5Q242 120 289.5 99Q337 78 393 78Q449 78 496.5 99Q544 120 578 156.5Q612 193 631 242.5Q650 292 650 350ZM263 778Q255 778 249.5 783.5Q244 789 244 797V840Q244 848 249.5 853Q255 858 263 858H523Q531 858 536.5 853Q542 848 542 840V797Q542 789 536.5 783.5Q531 778 523 778Z" glyph-name="Omacron" horiz-adv-x="787" unicode="Ō" /><glyph d="M385 367Q450 367 487.5 401.5Q525 436 525 491Q525 545 487.5 578.5Q450 612 385 612H177V367ZM560 0Q549 0 543 4.5Q537 9 531 19L375 284H177V19Q177 11 171.5 5.5Q166 0 158 0H95Q87 0 82 5.5Q77 11 77 19V681Q77 689 82 694.5Q87 700 95 700H390Q445 700 489.5 685Q534 670 565 643Q596 616 612.5 578.5Q629 541 629 496Q629 471 622 442Q615 413 597.5 386Q580 359 550.5 336.5Q521 314 477 302L645 22Q650 14 646 7Q642 0 633 0ZM456 938Q467 938 471 930Q475 922 470 914L389 773Q380 758 367 758H326Q303 758 309 780L356 921Q361 938 380 938H456Z" glyph-name="Racute" horiz-adv-x="675" unicode="Ŕ" /><glyph d="M385 367Q450 367 487.5 401.5Q525 436 525 491Q525 545 487.5 578.5Q450 612 385 612H177V367ZM560 0Q549 0 543 4.5Q537 9 531 19L375 284H177V19Q177 11 171.5 5.5Q166 0 158 0H95Q87 0 82 5.5Q77 11 77 19V681Q77 689 82 694.5Q87 700 95 700H390Q445 700 489.5 685Q534 670 565 643Q596 616 612.5 578.5Q629 541 629 496Q629 471 622 442Q615 413 597.5 386Q580 359 550.5 336.5Q521 314 477 302L645 22Q650 14 646 7Q642 0 633 0ZM306 758Q288 758 278 775L187 915Q182 925 186.5 931.5Q191 938 199 938H250Q259 938 264 935Q269 932 275 924L340 836L405 924Q410 932 415 935Q420 938 430 938H482Q489 938 494 931.5Q499 925 493 915L402 775Q392 758 375 758H306Z" glyph-name="Rcaron" horiz-adv-x="675" unicode="Ř" /><glyph d="M385 367Q450 367 487.5 401.5Q525 436 525 491Q525 545 487.5 578.5Q450 612 385 612H177V367ZM560 0Q549 0 543 4.5Q537 9 531 19L375 284H177V19Q177 11 171.5 5.5Q166 0 158 0H95Q87 0 82 5.5Q77 11 77 19V681Q77 689 82 694.5Q87 700 95 700H390Q445 700 489.5 685Q534 670 565 643Q596 616 612.5 578.5Q629 541 629 496Q629 471 622 442Q615 413 597.5 386Q580 359 550.5 336.5Q521 314 477 302L645 22Q650 14 646 7Q642 0 633 0ZM281 -53Q283 -45 287.5 -40Q292 -35 300 -35H363Q373 -35 377.5 -42.5Q382 -50 379 -57L332 -178Q326 -194 309 -194H269Q261 -194 256.5 -188.5Q252 -183 254 -175Z" glyph-name="Rcommaaccent" horiz-adv-x="675" unicode="Ŗ" /><glyph d="M303 713Q384 713 445 687Q506 661 543 623Q555 611 553 601.5Q551 592 544 585L514 556Q496 538 474 556Q437 588 395 607Q353 626 300 626Q270 626 243 619Q216 612 196 598Q176 584 164 564Q152 544 152 519Q152 489 171.5 464Q191 439 251 423L397 383Q484 360 528.5 314.5Q573 269 573 194Q573 156 556.5 119Q540 82 507 52.5Q474 23 423 5Q372 -13 303 -13Q251 -13 208.5 -3Q166 7 132.5 23Q99 39 74.5 59Q50 79 35 98Q27 108 26 119.5Q25 131 36 139L75 169Q86 177 95 174Q104 171 112 162Q142 128 190 101.5Q238 75 308 75Q348 75 377.5 84.5Q407 94 426.5 109.5Q446 125 456 145Q466 165 466 186Q466 228 438 253.5Q410 279 353 294L211 332Q125 354 86 400.5Q47 447 47 513Q47 557 66 594Q85 631 119.5 657.5Q154 684 200.5 698.5Q247 713 303 713ZM267 758Q249 758 239 775L148 915Q143 925 147.5 931.5Q152 938 160 938H211Q220 938 225 935Q230 932 236 924L301 836L366 924Q371 932 376 935Q381 938 391 938H443Q450 938 455 931.5Q460 925 454 915L363 775Q353 758 336 758H267Z" glyph-name="Scaron" horiz-adv-x="603" unicode="Š" /><glyph d="M303 713Q384 713 445 687Q506 661 543 623Q555 611 553 601.5Q551 592 544 585L514 556Q496 538 474 556Q437 588 395 607Q353 626 300 626Q270 626 243 619Q216 612 196 598Q176 584 164 564Q152 544 152 519Q152 489 171.5 464Q191 439 251 423L397 383Q484 360 528.5 314.5Q573 269 573 194Q573 156 556.5 119Q540 82 507 52.5Q474 23 423 5Q372 -13 303 -13Q251 -13 208.5 -3Q166 7 132.5 23Q99 39 74.5 59Q50 79 35 98Q27 108 26 119.5Q25 131 36 139L75 169Q86 177 95 174Q104 171 112 162Q142 128 190 101.5Q238 75 308 75Q348 75 377.5 84.5Q407 94 426.5 109.5Q446 125 456 145Q466 165 466 186Q466 228 438 253.5Q410 279 353 294L211 332Q125 354 86 400.5Q47 447 47 513Q47 557 66 594Q85 631 119.5 657.5Q154 684 200.5 698.5Q247 713 303 713ZM417 938Q428 938 432 930Q436 922 431 914L350 773Q341 758 328 758H287Q264 758 270 780L317 921Q322 938 341 938H417Z" glyph-name="Sacute" horiz-adv-x="603" unicode="Ś" /><glyph d="M303 713Q384 713 445 687Q506 661 543 623Q555 611 553 601.5Q551 592 544 585L514 556Q496 538 474 556Q437 588 395 607Q353 626 300 626Q270 626 243 619Q216 612 196 598Q176 584 164 564Q152 544 152 519Q152 489 171.5 464Q191 439 251 423L397 383Q484 360 528.5 314.5Q573 269 573 194Q573 156 556.5 119Q540 82 507 52.5Q474 23 423 5Q372 -13 303 -13Q251 -13 208.5 -3Q166 7 132.5 23Q99 39 74.5 59Q50 79 35 98Q27 108 26 119.5Q25 131 36 139L75 169Q86 177 95 174Q104 171 112 162Q142 128 190 101.5Q238 75 308 75Q348 75 377.5 84.5Q407 94 426.5 109.5Q446 125 456 145Q466 165 466 186Q466 228 438 253.5Q410 279 353 294L211 332Q125 354 86 400.5Q47 447 47 513Q47 557 66 594Q85 631 119.5 657.5Q154 684 200.5 698.5Q247 713 303 713ZM347 3 281 -167Q276 -181 259 -181H202Q194 -181 189 -175Q184 -169 188 -158L254 12Z" glyph-name="Scedilla" horiz-adv-x="603" unicode="Ş" /><glyph d="M303 713Q384 713 445 687Q506 661 543 623Q555 611 553 601.5Q551 592 544 585L514 556Q496 538 474 556Q437 588 395 607Q353 626 300 626Q270 626 243 619Q216 612 196 598Q176 584 164 564Q152 544 152 519Q152 489 171.5 464Q191 439 251 423L397 383Q484 360 528.5 314.5Q573 269 573 194Q573 156 556.5 119Q540 82 507 52.5Q474 23 423 5Q372 -13 303 -13Q251 -13 208.5 -3Q166 7 132.5 23Q99 39 74.5 59Q50 79 35 98Q27 108 26 119.5Q25 131 36 139L75 169Q86 177 95 174Q104 171 112 162Q142 128 190 101.5Q238 75 308 75Q348 75 377.5 84.5Q407 94 426.5 109.5Q446 125 456 145Q466 165 466 186Q466 228 438 253.5Q410 279 353 294L211 332Q125 354 86 400.5Q47 447 47 513Q47 557 66 594Q85 631 119.5 657.5Q154 684 200.5 698.5Q247 713 303 713ZM336 938Q353 938 363 920L454 781Q460 771 455 764.5Q450 758 443 758H391Q381 758 376 761Q371 764 366 771L301 860L236 771Q230 764 225 761Q220 758 211 758H160Q152 758 147.5 764.5Q143 771 148 781L239 920Q249 938 267 938Z" glyph-name="Scircumflex" horiz-adv-x="603" unicode="Ŝ" /><glyph d="M303 713Q384 713 445 687Q506 661 543 623Q555 611 553 601.5Q551 592 544 585L514 556Q496 538 474 556Q437 588 395 607Q353 626 300 626Q270 626 243 619Q216 612 196 598Q176 584 164 564Q152 544 152 519Q152 489 171.5 464Q191 439 251 423L397 383Q484 360 528.5 314.5Q573 269 573 194Q573 156 556.5 119Q540 82 507 52.5Q474 23 423 5Q372 -13 303 -13Q251 -13 208.5 -3Q166 7 132.5 23Q99 39 74.5 59Q50 79 35 98Q27 108 26 119.5Q25 131 36 139L75 169Q86 177 95 174Q104 171 112 162Q142 128 190 101.5Q238 75 308 75Q348 75 377.5 84.5Q407 94 426.5 109.5Q446 125 456 145Q466 165 466 186Q466 228 438 253.5Q410 279 353 294L211 332Q125 354 86 400.5Q47 447 47 513Q47 557 66 594Q85 631 119.5 657.5Q154 684 200.5 698.5Q247 713 303 713ZM236 -53Q238 -45 242.5 -40Q247 -35 255 -35H318Q328 -35 332.5 -42.5Q337 -50 334 -57L287 -178Q281 -194 264 -194H224Q216 -194 211.5 -188.5Q207 -183 209 -175Z" glyph-name="Scommaaccent" horiz-adv-x="603" unicode="Ș" /><glyph d="M361 19Q361 11 355.5 5.5Q350 0 342 0H278Q270 0 264.5 5.5Q259 11 259 19V314H148Q140 314 134.5 319.5Q129 325 129 333V375Q129 383 134.5 388.5Q140 394 148 394H259V608H33Q25 608 20 613.5Q15 619 15 627V681Q15 689 20 694.5Q25 700 33 700H588Q596 700 601.5 694.5Q607 689 607 681V627Q607 619 601.5 613.5Q596 608 588 608H361V394H473Q481 394 486.5 388.5Q492 383 492 375V333Q492 325 486.5 319.5Q481 314 473 314H361V19Z" glyph-name="Tbar" horiz-adv-x="622" unicode="Ŧ" /><glyph d="M11 681Q11 689 16 694.5Q21 700 29 700H584Q592 700 597.5 694.5Q603 689 603 681V627Q603 619 597.5 613.5Q592 608 584 608H357V19Q357 11 351.5 5.5Q346 0 338 0H274Q266 0 260.5 5.5Q255 11 255 19V608H29Q21 608 16 613.5Q11 619 11 627ZM273 758Q255 758 245 775L154 915Q149 925 153.5 931.5Q158 938 166 938H217Q226 938 231 935Q236 932 242 924L307 836L372 924Q377 932 382 935Q387 938 397 938H449Q456 938 461 931.5Q466 925 460 915L369 775Q359 758 342 758H273Z" glyph-name="Tcaron" horiz-adv-x="614" unicode="Ť" /><glyph d="M11 681Q11 689 16 694.5Q21 700 29 700H584Q592 700 597.5 694.5Q603 689 603 681V627Q603 619 597.5 613.5Q592 608 584 608H357V19Q357 11 351.5 5.5Q346 0 338 0H274Q266 0 260.5 5.5Q255 11 255 19V608H29Q21 608 16 613.5Q11 619 11 627ZM246 -53Q248 -45 252.5 -40Q257 -35 265 -35H328Q338 -35 342.5 -42.5Q347 -50 344 -57L297 -178Q291 -194 274 -194H234Q226 -194 221.5 -188.5Q217 -183 219 -175Z" glyph-name="Tcommaaccent" horiz-adv-x="614" unicode="Ţ" /><glyph d="M11 681Q11 689 16 694.5Q21 700 29 700H584Q592 700 597.5 694.5Q603 689 603 681V627Q603 619 597.5 613.5Q592 608 584 608H357V19Q357 11 351.5 5.5Q346 0 338 0H274Q266 0 260.5 5.5Q255 11 255 19V608H29Q21 608 16 613.5Q11 619 11 627ZM248 -53Q250 -45 254.5 -40Q259 -35 267 -35H330Q340 -35 344.5 -42.5Q349 -50 346 -57L299 -178Q293 -194 276 -194H236Q228 -194 223.5 -188.5Q219 -183 221 -175Z" glyph-name="uni021A" horiz-adv-x="614" unicode="Ț" /><glyph d="M629 244Q629 180 607 132Q585 84 547 51.5Q509 19 458 3Q407 -13 349 -13Q291 -13 240.5 3Q190 19 152 51Q114 83 92 131Q70 179 70 243V681Q70 689 75 694.5Q80 700 88 700H150Q158 700 163.5 694.5Q169 689 169 681V247Q169 166 218.5 121.5Q268 77 349 77Q389 77 422 88.5Q455 100 479 122Q503 144 516.5 175.5Q530 207 530 247V681Q530 689 535.5 694.5Q541 700 549 700H610Q618 700 623.5 694.5Q629 689 629 681V244ZM465 938Q476 938 480 930Q484 922 479 914L398 773Q389 758 376 758H335Q312 758 318 780L365 921Q370 938 389 938H465Z" glyph-name="Uacute" horiz-adv-x="699" unicode="Ú" /><glyph d="M629 244Q629 180 607 132Q585 84 547 51.5Q509 19 458 3Q407 -13 349 -13Q291 -13 240.5 3Q190 19 152 51Q114 83 92 131Q70 179 70 243V681Q70 689 75 694.5Q80 700 88 700H150Q158 700 163.5 694.5Q169 689 169 681V247Q169 166 218.5 121.5Q268 77 349 77Q389 77 422 88.5Q455 100 479 122Q503 144 516.5 175.5Q530 207 530 247V681Q530 689 535.5 694.5Q541 700 549 700H610Q618 700 623.5 694.5Q629 689 629 681V244ZM384 938Q401 938 411 920L502 781Q508 771 503 764.5Q498 758 491 758H439Q429 758 424 761Q419 764 414 771L349 860L284 771Q278 764 273 761Q268 758 259 758H208Q200 758 195.5 764.5Q191 771 196 781L287 920Q297 938 315 938Z" glyph-name="Ucircumflex" horiz-adv-x="699" unicode="Û" /><glyph d="M629 244Q629 180 607 132Q585 84 547 51.5Q509 19 458 3Q407 -13 349 -13Q291 -13 240.5 3Q190 19 152 51Q114 83 92 131Q70 179 70 243V681Q70 689 75 694.5Q80 700 88 700H150Q158 700 163.5 694.5Q169 689 169 681V247Q169 166 218.5 121.5Q268 77 349 77Q389 77 422 88.5Q455 100 479 122Q503 144 516.5 175.5Q530 207 530 247V681Q530 689 535.5 694.5Q541 700 549 700H610Q618 700 623.5 694.5Q629 689 629 681V244ZM265 783Q240 783 222.5 801Q205 819 205 843Q205 868 222.5 886Q240 904 265 904Q290 904 307.5 886Q325 868 325 843Q325 819 307.5 801Q290 783 265 783ZM433 783Q408 783 390.5 801Q373 819 373 843Q373 868 390.5 886Q408 904 433 904Q458 904 475.5 886Q493 868 493 843Q493 819 475.5 801Q458 783 433 783Z" glyph-name="Udieresis" horiz-adv-x="699" unicode="Ü" /><glyph d="M629 244Q629 180 607 132Q585 84 547 51.5Q509 19 458 3Q407 -13 349 -13Q291 -13 240.5 3Q190 19 152 51Q114 83 92 131Q70 179 70 243V681Q70 689 75 694.5Q80 700 88 700H150Q158 700 163.5 694.5Q169 689 169 681V247Q169 166 218.5 121.5Q268 77 349 77Q389 77 422 88.5Q455 100 479 122Q503 144 516.5 175.5Q530 207 530 247V681Q530 689 535.5 694.5Q541 700 549 700H610Q618 700 623.5 694.5Q629 689 629 681V244ZM312 938Q331 938 336 921L384 780Q388 769 382.5 763.5Q377 758 366 758H325Q317 758 312.5 761.5Q308 765 303 773L222 914Q217 922 221 930Q225 938 236 938Z" glyph-name="Ugrave" horiz-adv-x="699" unicode="Ù" /><glyph d="M629 244Q629 180 607 132Q585 84 547 51.5Q509 19 458 3Q407 -13 349 -13Q291 -13 240.5 3Q190 19 152 51Q114 83 92 131Q70 179 70 243V681Q70 689 75 694.5Q80 700 88 700H150Q158 700 163.5 694.5Q169 689 169 681V247Q169 166 218.5 121.5Q268 77 349 77Q389 77 422 88.5Q455 100 479 122Q503 144 516.5 175.5Q530 207 530 247V681Q530 689 535.5 694.5Q541 700 549 700H610Q618 700 623.5 694.5Q629 689 629 681V244ZM349 753Q282 753 245 787.5Q208 822 208 880V896Q208 908 220 908H278Q289 908 289 897V887Q289 858 306 844Q323 830 349 830Q375 830 392.5 844Q410 858 410 887V897Q410 908 422 908H478Q491 908 491 896V880Q491 822 454 787.5Q417 753 349 753Z" glyph-name="Ubreve" horiz-adv-x="699" unicode="Ŭ" /><glyph d="M629 244Q629 180 607 132Q585 84 547 51.5Q509 19 458 3Q407 -13 349 -13Q291 -13 240.5 3Q190 19 152 51Q114 83 92 131Q70 179 70 243V681Q70 689 75 694.5Q80 700 88 700H150Q158 700 163.5 694.5Q169 689 169 681V247Q169 166 218.5 121.5Q268 77 349 77Q389 77 422 88.5Q455 100 479 122Q503 144 516.5 175.5Q530 207 530 247V681Q530 689 535.5 694.5Q541 700 549 700H610Q618 700 623.5 694.5Q629 689 629 681V244ZM554 938Q565 938 569 930Q573 922 568 914L487 773Q482 765 477.5 761.5Q473 758 465 758H424Q414 758 409 763.5Q404 769 407 780L454 921Q459 938 478 938ZM374 938Q385 938 389.5 930Q394 922 389 914L308 773Q303 765 298.5 761.5Q294 758 286 758H245Q222 758 228 780L275 921Q280 938 298 938Z" glyph-name="Uhungarumlaut" horiz-adv-x="699" unicode="Ű" /><glyph d="M629 244Q629 180 607 132Q585 84 547 51.5Q509 19 458 3Q407 -13 349 -13Q291 -13 240.5 3Q190 19 152 51Q114 83 92 131Q70 179 70 243V681Q70 689 75 694.5Q80 700 88 700H150Q158 700 163.5 694.5Q169 689 169 681V247Q169 166 218.5 121.5Q268 77 349 77Q389 77 422 88.5Q455 100 479 122Q503 144 516.5 175.5Q530 207 530 247V681Q530 689 535.5 694.5Q541 700 549 700H610Q618 700 623.5 694.5Q629 689 629 681V244ZM219 778Q211 778 205.5 783.5Q200 789 200 797V840Q200 848 205.5 853Q211 858 219 858H479Q487 858 492.5 853Q498 848 498 840V797Q498 789 492.5 783.5Q487 778 479 778Z" glyph-name="Umacron" horiz-adv-x="699" unicode="Ū" /><glyph d="M629 244Q629 180 607 132Q585 84 547 51.5Q509 19 458 3Q407 -13 349 -13Q291 -13 240.5 3Q190 19 152 51Q114 83 92 131Q70 179 70 243V681Q70 689 75 694.5Q80 700 88 700H150Q158 700 163.5 694.5Q169 689 169 681V247Q169 166 218.5 121.5Q268 77 349 77Q389 77 422 88.5Q455 100 479 122Q503 144 516.5 175.5Q530 207 530 247V681Q530 689 535.5 694.5Q541 700 549 700H610Q618 700 623.5 694.5Q629 689 629 681V244ZM336 -108Q336 -81 349 -57Q362 -33 381 -13Q400 7 419.5 21Q439 35 453 43L481 40L486 29Q460 -3 442.5 -34.5Q425 -66 425 -86Q425 -103 435 -113.5Q445 -124 468 -124Q476 -124 483.5 -123Q491 -122 499 -121Q505 -119 509.5 -123.5Q514 -128 512 -139L509 -164Q509 -172 502 -177Q495 -182 485 -185Q475 -188 462.5 -189.5Q450 -191 438 -191Q391 -191 363.5 -169Q336 -147 336 -108Z" glyph-name="Uogonek" horiz-adv-x="699" unicode="Ų" /><glyph d="M629 244Q629 180 607 132Q585 84 547 51.5Q509 19 458 3Q407 -13 349 -13Q291 -13 240.5 3Q190 19 152 51Q114 83 92 131Q70 179 70 243V681Q70 689 75 694.5Q80 700 88 700H150Q158 700 163.5 694.5Q169 689 169 681V247Q169 166 218.5 121.5Q268 77 349 77Q389 77 422 88.5Q455 100 479 122Q503 144 516.5 175.5Q530 207 530 247V681Q530 689 535.5 694.5Q541 700 549 700H610Q618 700 623.5 694.5Q629 689 629 681V244ZM349 746Q322 746 299 755Q276 764 258.5 780.5Q241 797 231 819.5Q221 842 221 869Q221 896 231 918.5Q241 941 258.5 957.5Q276 974 299 983.5Q322 993 349 993Q376 993 399 983.5Q422 974 439.5 957.5Q457 941 467 918.5Q477 896 477 869Q477 842 467 819.5Q457 797 439.5 780.5Q422 764 399 755Q376 746 349 746ZM349 807Q376 807 392.5 825Q409 843 409 869Q409 895 392.5 913.5Q376 932 349 932Q322 932 305.5 913.5Q289 895 289 869Q289 843 305.5 825Q322 807 349 807Z" glyph-name="Uring" horiz-adv-x="699" unicode="Ů" /><glyph d="M629 244Q629 180 607 132Q585 84 547 51.5Q509 19 458 3Q407 -13 349 -13Q291 -13 240.5 3Q190 19 152 51Q114 83 92 131Q70 179 70 243V681Q70 689 75 694.5Q80 700 88 700H150Q158 700 163.5 694.5Q169 689 169 681V247Q169 166 218.5 121.5Q268 77 349 77Q389 77 422 88.5Q455 100 479 122Q503 144 516.5 175.5Q530 207 530 247V681Q530 689 535.5 694.5Q541 700 549 700H610Q618 700 623.5 694.5Q629 689 629 681V244ZM423 772Q407 772 386.5 777Q366 782 346.5 788.5Q327 795 310 800Q293 805 283 805Q263 805 253 794.5Q243 784 232 777Q222 770 211 780L192 803Q184 811 184 821Q184 831 190.5 844Q197 857 209 867.5Q221 878 238 885.5Q255 893 275 893Q291 893 311 887.5Q331 882 350.5 876Q370 870 387 864.5Q404 859 415 859Q435 859 445 869.5Q455 880 466 888Q477 893 488 883L506 862Q514 852 514 843Q514 832 507.5 820Q501 808 489 797Q477 786 460 779Q443 772 423 772Z" glyph-name="Utilde" horiz-adv-x="699" unicode="Ũ" /><glyph d="M826 18Q823 9 815 4.5Q807 0 802 0H708Q701 0 693.5 4.5Q686 9 684 18L526 553L367 18Q365 9 357.5 4.5Q350 0 343 0H245Q238 0 231 4.5Q224 9 221 18L14 675Q10 687 16.5 693.5Q23 700 32 700H103Q111 700 116 695Q121 690 123 682L297 117L464 683Q469 700 485 700H565Q573 700 579 695Q585 690 587 683L754 121L927 682Q929 690 934 695Q939 700 947 700H1015Q1025 700 1031 694.5Q1037 689 1032 675L826 18ZM641 938Q652 938 656 930Q660 922 655 914L574 773Q565 758 552 758H511Q488 758 494 780L541 921Q546 938 565 938H641Z" glyph-name="Wacute" horiz-adv-x="1047" unicode="Ẃ" /><glyph d="M826 18Q823 9 815 4.5Q807 0 802 0H708Q701 0 693.5 4.5Q686 9 684 18L526 553L367 18Q365 9 357.5 4.5Q350 0 343 0H245Q238 0 231 4.5Q224 9 221 18L14 675Q10 687 16.5 693.5Q23 700 32 700H103Q111 700 116 695Q121 690 123 682L297 117L464 683Q469 700 485 700H565Q573 700 579 695Q585 690 587 683L754 121L927 682Q929 690 934 695Q939 700 947 700H1015Q1025 700 1031 694.5Q1037 689 1032 675L826 18ZM560 938Q577 938 587 920L678 781Q684 771 679 764.5Q674 758 667 758H615Q605 758 600 761Q595 764 590 771L525 860L460 771Q454 764 449 761Q444 758 435 758H384Q376 758 371.5 764.5Q367 771 372 781L463 920Q473 938 491 938Z" glyph-name="Wcircumflex" horiz-adv-x="1047" unicode="Ŵ" /><glyph d="M826 18Q823 9 815 4.5Q807 0 802 0H708Q701 0 693.5 4.5Q686 9 684 18L526 553L367 18Q365 9 357.5 4.5Q350 0 343 0H245Q238 0 231 4.5Q224 9 221 18L14 675Q10 687 16.5 693.5Q23 700 32 700H103Q111 700 116 695Q121 690 123 682L297 117L464 683Q469 700 485 700H565Q573 700 579 695Q585 690 587 683L754 121L927 682Q929 690 934 695Q939 700 947 700H1015Q1025 700 1031 694.5Q1037 689 1032 675L826 18ZM441 783Q416 783 398.5 801Q381 819 381 843Q381 868 398.5 886Q416 904 441 904Q466 904 483.5 886Q501 868 501 843Q501 819 483.5 801Q466 783 441 783ZM609 783Q584 783 566.5 801Q549 819 549 843Q549 868 566.5 886Q584 904 609 904Q634 904 651.5 886Q669 868 669 843Q669 819 651.5 801Q634 783 609 783Z" glyph-name="Wdieresis" horiz-adv-x="1047" unicode="Ẅ" /><glyph d="M826 18Q823 9 815 4.5Q807 0 802 0H708Q701 0 693.5 4.5Q686 9 684 18L526 553L367 18Q365 9 357.5 4.5Q350 0 343 0H245Q238 0 231 4.5Q224 9 221 18L14 675Q10 687 16.5 693.5Q23 700 32 700H103Q111 700 116 695Q121 690 123 682L297 117L464 683Q469 700 485 700H565Q573 700 579 695Q585 690 587 683L754 121L927 682Q929 690 934 695Q939 700 947 700H1015Q1025 700 1031 694.5Q1037 689 1032 675L826 18ZM488 938Q507 938 512 921L560 780Q564 769 558.5 763.5Q553 758 542 758H501Q493 758 488.5 761.5Q484 765 479 773L398 914Q393 922 397 930Q401 938 412 938Z" glyph-name="Wgrave" horiz-adv-x="1047" unicode="Ẁ" /><glyph d="M264 286 14 676Q8 684 12 692Q16 700 24 700H106Q121 700 130 686L314 395H318L502 686Q511 700 524 700H604Q612 700 616.5 693Q621 686 615 676L364 286V19Q364 11 358.5 5.5Q353 0 345 0H283Q275 0 269.5 5.5Q264 11 264 19ZM430 938Q441 938 445 930Q449 922 444 914L363 773Q354 758 341 758H300Q277 758 283 780L330 921Q335 938 354 938H430Z" glyph-name="Yacute" horiz-adv-x="628" unicode="Ý" /><glyph d="M264 286 14 676Q8 684 12 692Q16 700 24 700H106Q121 700 130 686L314 395H318L502 686Q511 700 524 700H604Q612 700 616.5 693Q621 686 615 676L364 286V19Q364 11 358.5 5.5Q353 0 345 0H283Q275 0 269.5 5.5Q264 11 264 19ZM230 783Q205 783 187.5 801Q170 819 170 843Q170 868 187.5 886Q205 904 230 904Q255 904 272.5 886Q290 868 290 843Q290 819 272.5 801Q255 783 230 783ZM398 783Q373 783 355.5 801Q338 819 338 843Q338 868 355.5 886Q373 904 398 904Q423 904 440.5 886Q458 868 458 843Q458 819 440.5 801Q423 783 398 783Z" glyph-name="Ydieresis" horiz-adv-x="628" unicode="Ÿ" /><glyph d="M264 286 14 676Q8 684 12 692Q16 700 24 700H106Q121 700 130 686L314 395H318L502 686Q511 700 524 700H604Q612 700 616.5 693Q621 686 615 676L364 286V19Q364 11 358.5 5.5Q353 0 345 0H283Q275 0 269.5 5.5Q264 11 264 19ZM348 938Q365 938 375 920L466 781Q472 771 467 764.5Q462 758 455 758H403Q393 758 388 761Q383 764 378 771L313 860L248 771Q242 764 237 761Q232 758 223 758H172Q164 758 159.5 764.5Q155 771 160 781L251 920Q261 938 279 938Z" glyph-name="Ycircumflex" horiz-adv-x="628" unicode="Ŷ" /><glyph d="M264 286 14 676Q8 684 12 692Q16 700 24 700H106Q121 700 130 686L314 395H318L502 686Q511 700 524 700H604Q612 700 616.5 693Q621 686 615 676L364 286V19Q364 11 358.5 5.5Q353 0 345 0H283Q275 0 269.5 5.5Q264 11 264 19ZM277 938Q296 938 301 921L349 780Q353 769 347.5 763.5Q342 758 331 758H290Q282 758 277.5 761.5Q273 765 268 773L187 914Q182 922 186 930Q190 938 201 938Z" glyph-name="Ygrave" horiz-adv-x="628" unicode="Ỳ" /><glyph d="M35 0Q26 0 20.5 5.5Q15 11 15 19V60Q15 68 19.5 76Q24 84 29 89L431 611H61Q53 611 47.5 616.5Q42 622 42 629V681Q42 689 47.5 694.5Q53 700 61 700H542Q550 700 555 694.5Q560 689 560 681V634Q560 626 556 617.5Q552 609 547 603L154 89H564Q572 89 577 84Q582 79 582 71V19Q582 11 577 5.5Q572 0 564 0ZM270 758Q252 758 242 775L151 915Q146 925 150.5 931.5Q155 938 163 938H214Q223 938 228 935Q233 932 239 924L304 836L369 924Q374 932 379 935Q384 938 394 938H446Q453 938 458 931.5Q463 925 457 915L366 775Q356 758 339 758H270Z" glyph-name="Zcaron" horiz-adv-x="600" unicode="Ž" /><glyph d="M35 0Q26 0 20.5 5.5Q15 11 15 19V60Q15 68 19.5 76Q24 84 29 89L431 611H61Q53 611 47.5 616.5Q42 622 42 629V681Q42 689 47.5 694.5Q53 700 61 700H542Q550 700 555 694.5Q560 689 560 681V634Q560 626 556 617.5Q552 609 547 603L154 89H564Q572 89 577 84Q582 79 582 71V19Q582 11 577 5.5Q572 0 564 0ZM420 938Q431 938 435 930Q439 922 434 914L353 773Q344 758 331 758H290Q267 758 273 780L320 921Q325 938 344 938H420Z" glyph-name="Zacute" horiz-adv-x="600" unicode="Ź" /><glyph d="M35 0Q26 0 20.5 5.5Q15 11 15 19V60Q15 68 19.5 76Q24 84 29 89L431 611H61Q53 611 47.5 616.5Q42 622 42 629V681Q42 689 47.5 694.5Q53 700 61 700H542Q550 700 555 694.5Q560 689 560 681V634Q560 626 556 617.5Q552 609 547 603L154 89H564Q572 89 577 84Q582 79 582 71V19Q582 11 577 5.5Q572 0 564 0ZM304 785Q279 785 261.5 803Q244 821 244 845Q244 870 261.5 888Q279 906 304 906Q329 906 346.5 888Q364 870 364 845Q364 821 346.5 803Q329 785 304 785Z" glyph-name="Zdotaccent" horiz-adv-x="600" unicode="Ż" /><glyph d="M128 236Q128 203 139 173.5Q150 144 170.5 122Q191 100 218.5 87.5Q246 75 279 75Q312 75 339.5 87.5Q367 100 387 122Q407 144 418.5 173.5Q430 203 430 236Q430 270 418.5 299Q407 328 387 349.5Q367 371 339.5 383.5Q312 396 279 396Q246 396 218.5 383.5Q191 371 170.5 349.5Q150 328 139 299Q128 270 128 236ZM30 237Q30 292 49 338Q68 384 101 417Q134 450 177 468Q220 486 268 486Q324 486 366.5 460.5Q409 435 429 397V453Q429 461 434.5 466.5Q440 472 448 472H507Q515 472 520 466.5Q525 461 525 453V18Q525 10 520 5Q515 0 507 0H448Q440 0 434.5 5Q429 10 429 18V75Q409 37 366.5 12Q324 -13 267 -13Q219 -13 176 5Q133 23 100.5 56Q68 89 49 135Q30 181 30 237ZM397 710Q408 710 412 702Q416 694 411 686L330 545Q321 530 308 530H267Q244 530 250 552L297 693Q302 710 321 710H397Z" glyph-name="aacute" horiz-adv-x="583" unicode="á" /><glyph d="M128 236Q128 203 139 173.5Q150 144 170.5 122Q191 100 218.5 87.5Q246 75 279 75Q312 75 339.5 87.5Q367 100 387 122Q407 144 418.5 173.5Q430 203 430 236Q430 270 418.5 299Q407 328 387 349.5Q367 371 339.5 383.5Q312 396 279 396Q246 396 218.5 383.5Q191 371 170.5 349.5Q150 328 139 299Q128 270 128 236ZM30 237Q30 292 49 338Q68 384 101 417Q134 450 177 468Q220 486 268 486Q324 486 366.5 460.5Q409 435 429 397V453Q429 461 434.5 466.5Q440 472 448 472H507Q515 472 520 466.5Q525 461 525 453V18Q525 10 520 5Q515 0 507 0H448Q440 0 434.5 5Q429 10 429 18V75Q409 37 366.5 12Q324 -13 267 -13Q219 -13 176 5Q133 23 100.5 56Q68 89 49 135Q30 181 30 237ZM317 710Q334 710 344 692L435 553Q441 543 436 536.5Q431 530 424 530H372Q362 530 357 533Q352 536 347 543L282 632L217 543Q211 536 206 533Q201 530 192 530H141Q133 530 128.5 536.5Q124 543 129 553L220 692Q230 710 248 710Z" glyph-name="acircumflex" horiz-adv-x="583" unicode="â" /><glyph d="M128 236Q128 203 139 173.5Q150 144 170.5 122Q191 100 218.5 87.5Q246 75 279 75Q312 75 339.5 87.5Q367 100 387 122Q407 144 418.5 173.5Q430 203 430 236Q430 270 418.5 299Q407 328 387 349.5Q367 371 339.5 383.5Q312 396 279 396Q246 396 218.5 383.5Q191 371 170.5 349.5Q150 328 139 299Q128 270 128 236ZM30 237Q30 292 49 338Q68 384 101 417Q134 450 177 468Q220 486 268 486Q324 486 366.5 460.5Q409 435 429 397V453Q429 461 434.5 466.5Q440 472 448 472H507Q515 472 520 466.5Q525 461 525 453V18Q525 10 520 5Q515 0 507 0H448Q440 0 434.5 5Q429 10 429 18V75Q409 37 366.5 12Q324 -13 267 -13Q219 -13 176 5Q133 23 100.5 56Q68 89 49 135Q30 181 30 237ZM197 555Q172 555 154.5 573Q137 591 137 615Q137 640 154.5 658Q172 676 197 676Q222 676 239.5 658Q257 640 257 615Q257 591 239.5 573Q222 555 197 555ZM365 555Q340 555 322.5 573Q305 591 305 615Q305 640 322.5 658Q340 676 365 676Q390 676 407.5 658Q425 640 425 615Q425 591 407.5 573Q390 555 365 555Z" glyph-name="adieresis" horiz-adv-x="583" unicode="ä" /><glyph d="M128 236Q128 203 139 173.5Q150 144 170.5 122Q191 100 218.5 87.5Q246 75 279 75Q312 75 339.5 87.5Q367 100 387 122Q407 144 418.5 173.5Q430 203 430 236Q430 270 418.5 299Q407 328 387 349.5Q367 371 339.5 383.5Q312 396 279 396Q246 396 218.5 383.5Q191 371 170.5 349.5Q150 328 139 299Q128 270 128 236ZM30 237Q30 292 49 338Q68 384 101 417Q134 450 177 468Q220 486 268 486Q324 486 366.5 460.5Q409 435 429 397V453Q429 461 434.5 466.5Q440 472 448 472H507Q515 472 520 466.5Q525 461 525 453V18Q525 10 520 5Q515 0 507 0H448Q440 0 434.5 5Q429 10 429 18V75Q409 37 366.5 12Q324 -13 267 -13Q219 -13 176 5Q133 23 100.5 56Q68 89 49 135Q30 181 30 237ZM244 710Q263 710 268 693L316 552Q320 541 314.5 535.5Q309 530 298 530H257Q249 530 244.5 533.5Q240 537 235 545L154 686Q149 694 153 702Q157 710 168 710Z" glyph-name="agrave" horiz-adv-x="583" unicode="à" /><glyph d="M128 236Q128 203 139 173.5Q150 144 170.5 122Q191 100 218.5 87.5Q246 75 279 75Q312 75 339.5 87.5Q367 100 387 122Q407 144 418.5 173.5Q430 203 430 236Q430 270 418.5 299Q407 328 387 349.5Q367 371 339.5 383.5Q312 396 279 396Q246 396 218.5 383.5Q191 371 170.5 349.5Q150 328 139 299Q128 270 128 236ZM30 237Q30 292 49 338Q68 384 101 417Q134 450 177 468Q220 486 268 486Q324 486 366.5 460.5Q409 435 429 397V453Q429 461 434.5 466.5Q440 472 448 472H507Q515 472 520 466.5Q525 461 525 453V18Q525 10 520 5Q515 0 507 0H448Q440 0 434.5 5Q429 10 429 18V75Q409 37 366.5 12Q324 -13 267 -13Q219 -13 176 5Q133 23 100.5 56Q68 89 49 135Q30 181 30 237ZM281 518Q254 518 231 527Q208 536 190.5 552.5Q173 569 163 591.5Q153 614 153 641Q153 668 163 690.5Q173 713 190.5 729.5Q208 746 231 755.5Q254 765 281 765Q308 765 331 755.5Q354 746 371.5 729.5Q389 713 399 690.5Q409 668 409 641Q409 614 399 591.5Q389 569 371.5 552.5Q354 536 331 527Q308 518 281 518ZM281 579Q308 579 324.5 597Q341 615 341 641Q341 667 324.5 685.5Q308 704 281 704Q254 704 237.5 685.5Q221 667 221 641Q221 615 237.5 597Q254 579 281 579Z" glyph-name="aring" horiz-adv-x="583" unicode="å" /><glyph d="M128 236Q128 203 139 173.5Q150 144 170.5 122Q191 100 218.5 87.5Q246 75 279 75Q312 75 339.5 87.5Q367 100 387 122Q407 144 418.5 173.5Q430 203 430 236Q430 270 418.5 299Q407 328 387 349.5Q367 371 339.5 383.5Q312 396 279 396Q246 396 218.5 383.5Q191 371 170.5 349.5Q150 328 139 299Q128 270 128 236ZM30 237Q30 292 49 338Q68 384 101 417Q134 450 177 468Q220 486 268 486Q324 486 366.5 460.5Q409 435 429 397V453Q429 461 434.5 466.5Q440 472 448 472H507Q515 472 520 466.5Q525 461 525 453V18Q525 10 520 5Q515 0 507 0H448Q440 0 434.5 5Q429 10 429 18V75Q409 37 366.5 12Q324 -13 267 -13Q219 -13 176 5Q133 23 100.5 56Q68 89 49 135Q30 181 30 237ZM355 544Q339 544 318.5 549Q298 554 278.5 560.5Q259 567 242 572Q225 577 215 577Q195 577 185 566.5Q175 556 164 549Q154 542 143 552L124 575Q116 583 116 593Q116 603 122.5 616Q129 629 141 639.5Q153 650 170 657.5Q187 665 207 665Q223 665 243 659.5Q263 654 282.5 648Q302 642 319 636.5Q336 631 347 631Q367 631 377 641.5Q387 652 398 660Q409 665 420 655L438 634Q446 624 446 615Q446 604 439.5 592Q433 580 421 569Q409 558 392 551Q375 544 355 544Z" glyph-name="atilde" horiz-adv-x="583" unicode="ã" /><glyph d="M128 236Q128 203 139 173.5Q150 144 170.5 122Q191 100 218.5 87.5Q246 75 279 75Q312 75 339.5 87.5Q367 100 387 122Q407 144 418.5 173.5Q430 203 430 236Q430 270 418.5 299Q407 328 387 349.5Q367 371 339.5 383.5Q312 396 279 396Q246 396 218.5 383.5Q191 371 170.5 349.5Q150 328 139 299Q128 270 128 236ZM30 237Q30 292 49 338Q68 384 101 417Q134 450 177 468Q220 486 268 486Q324 486 366.5 460.5Q409 435 429 397V453Q429 461 434.5 466.5Q440 472 448 472H507Q515 472 520 466.5Q525 461 525 453V18Q525 10 520 5Q515 0 507 0H448Q440 0 434.5 5Q429 10 429 18V75Q409 37 366.5 12Q324 -13 267 -13Q219 -13 176 5Q133 23 100.5 56Q68 89 49 135Q30 181 30 237ZM282 525Q215 525 178 559.5Q141 594 141 652V668Q141 680 153 680H211Q222 680 222 669V659Q222 630 239 616Q256 602 282 602Q308 602 325.5 616Q343 630 343 659V669Q343 680 355 680H411Q424 680 424 668V652Q424 594 387 559.5Q350 525 282 525Z" glyph-name="abreve" horiz-adv-x="583" unicode="ă" /><glyph d="M128 236Q128 203 139 173.5Q150 144 170.5 122Q191 100 218.5 87.5Q246 75 279 75Q312 75 339.5 87.5Q367 100 387 122Q407 144 418.5 173.5Q430 203 430 236Q430 270 418.5 299Q407 328 387 349.5Q367 371 339.5 383.5Q312 396 279 396Q246 396 218.5 383.5Q191 371 170.5 349.5Q150 328 139 299Q128 270 128 236ZM30 237Q30 292 49 338Q68 384 101 417Q134 450 177 468Q220 486 268 486Q324 486 366.5 460.5Q409 435 429 397V453Q429 461 434.5 466.5Q440 472 448 472H507Q515 472 520 466.5Q525 461 525 453V18Q525 10 520 5Q515 0 507 0H448Q440 0 434.5 5Q429 10 429 18V75Q409 37 366.5 12Q324 -13 267 -13Q219 -13 176 5Q133 23 100.5 56Q68 89 49 135Q30 181 30 237ZM151 550Q143 550 137.5 555.5Q132 561 132 569V612Q132 620 137.5 625Q143 630 151 630H411Q419 630 424.5 625Q430 620 430 612V569Q430 561 424.5 555.5Q419 550 411 550Z" glyph-name="amacron" horiz-adv-x="583" unicode="ā" /><glyph d="M128 236Q128 203 139 173.5Q150 144 170.5 122Q191 100 218.5 87.5Q246 75 279 75Q312 75 339.5 87.5Q367 100 387 122Q407 144 418.5 173.5Q430 203 430 236Q430 270 418.5 299Q407 328 387 349.5Q367 371 339.5 383.5Q312 396 279 396Q246 396 218.5 383.5Q191 371 170.5 349.5Q150 328 139 299Q128 270 128 236ZM30 237Q30 292 49 338Q68 384 101 417Q134 450 177 468Q220 486 268 486Q324 486 366.5 460.5Q409 435 429 397V453Q429 461 434.5 466.5Q440 472 448 472H507Q515 472 520 466.5Q525 461 525 453V18Q525 10 520 5Q515 0 507 0H448Q440 0 434.5 5Q429 10 429 18V75Q409 37 366.5 12Q324 -13 267 -13Q219 -13 176 5Q133 23 100.5 56Q68 89 49 135Q30 181 30 237ZM363 -114Q363 -87 376 -63Q389 -39 408 -19Q427 1 446.5 15Q466 29 480 37L508 34L513 23Q487 -9 469.5 -40.5Q452 -72 452 -92Q452 -109 462 -119.5Q472 -130 495 -130Q503 -130 510.5 -129Q518 -128 526 -127Q532 -125 536.5 -129.5Q541 -134 539 -145L536 -170Q536 -178 529 -183Q522 -188 512 -191Q502 -194 489.5 -195.5Q477 -197 465 -197Q418 -197 390.5 -175Q363 -153 363 -114Z" glyph-name="aogonek" horiz-adv-x="583" unicode="ą" /><glyph d="M489 103Q460 50 404.5 18.5Q349 -13 278 -13Q226 -13 180.5 6Q135 25 101.5 58.5Q68 92 49 137.5Q30 183 30 236Q30 289 49 335Q68 381 101.5 414.5Q135 448 180.5 467Q226 486 278 486Q349 486 404.5 454Q460 422 489 369Q494 359 491 351.5Q488 344 481 339L444 315Q424 302 411 321Q387 357 355.5 376.5Q324 396 279 396Q246 396 218 383.5Q190 371 170 349.5Q150 328 139 298.5Q128 269 128 236Q128 203 139 173.5Q150 144 170 122.5Q190 101 218 88.5Q246 76 279 76Q324 76 355.5 95.5Q387 115 411 151Q417 159 425.5 162Q434 165 444 158L481 133Q488 128 491 120.5Q494 113 489 103ZM316 3 250 -167Q245 -181 228 -181H171Q163 -181 158 -175Q153 -169 157 -158L223 12Z" glyph-name="ccedilla" horiz-adv-x="516" unicode="ç" /><glyph d="M489 103Q460 50 404.5 18.5Q349 -13 278 -13Q226 -13 180.5 6Q135 25 101.5 58.5Q68 92 49 137.5Q30 183 30 236Q30 289 49 335Q68 381 101.5 414.5Q135 448 180.5 467Q226 486 278 486Q349 486 404.5 454Q460 422 489 369Q494 359 491 351.5Q488 344 481 339L444 315Q424 302 411 321Q387 357 355.5 376.5Q324 396 279 396Q246 396 218 383.5Q190 371 170 349.5Q150 328 139 298.5Q128 269 128 236Q128 203 139 173.5Q150 144 170 122.5Q190 101 218 88.5Q246 76 279 76Q324 76 355.5 95.5Q387 115 411 151Q417 159 425.5 162Q434 165 444 158L481 133Q488 128 491 120.5Q494 113 489 103ZM380 710Q391 710 395 702Q399 694 394 686L313 545Q304 530 291 530H250Q227 530 233 552L280 693Q285 710 304 710H380Z" glyph-name="cacute" horiz-adv-x="516" unicode="ć" /><glyph d="M489 103Q460 50 404.5 18.5Q349 -13 278 -13Q226 -13 180.5 6Q135 25 101.5 58.5Q68 92 49 137.5Q30 183 30 236Q30 289 49 335Q68 381 101.5 414.5Q135 448 180.5 467Q226 486 278 486Q349 486 404.5 454Q460 422 489 369Q494 359 491 351.5Q488 344 481 339L444 315Q424 302 411 321Q387 357 355.5 376.5Q324 396 279 396Q246 396 218 383.5Q190 371 170 349.5Q150 328 139 298.5Q128 269 128 236Q128 203 139 173.5Q150 144 170 122.5Q190 101 218 88.5Q246 76 279 76Q324 76 355.5 95.5Q387 115 411 151Q417 159 425.5 162Q434 165 444 158L481 133Q488 128 491 120.5Q494 113 489 103ZM230 530Q212 530 202 547L111 687Q106 697 110.5 703.5Q115 710 123 710H174Q183 710 188 707Q193 704 199 696L264 608L329 696Q334 704 339 707Q344 710 354 710H406Q413 710 418 703.5Q423 697 417 687L326 547Q316 530 299 530H230Z" glyph-name="ccaron" horiz-adv-x="516" unicode="č" /><glyph d="M489 103Q460 50 404.5 18.5Q349 -13 278 -13Q226 -13 180.5 6Q135 25 101.5 58.5Q68 92 49 137.5Q30 183 30 236Q30 289 49 335Q68 381 101.5 414.5Q135 448 180.5 467Q226 486 278 486Q349 486 404.5 454Q460 422 489 369Q494 359 491 351.5Q488 344 481 339L444 315Q424 302 411 321Q387 357 355.5 376.5Q324 396 279 396Q246 396 218 383.5Q190 371 170 349.5Q150 328 139 298.5Q128 269 128 236Q128 203 139 173.5Q150 144 170 122.5Q190 101 218 88.5Q246 76 279 76Q324 76 355.5 95.5Q387 115 411 151Q417 159 425.5 162Q434 165 444 158L481 133Q488 128 491 120.5Q494 113 489 103ZM299 710Q316 710 326 692L417 553Q423 543 418 536.5Q413 530 406 530H354Q344 530 339 533Q334 536 329 543L264 632L199 543Q193 536 188 533Q183 530 174 530H123Q115 530 110.5 536.5Q106 543 111 553L202 692Q212 710 230 710Z" glyph-name="ccircumflex" horiz-adv-x="516" unicode="ĉ" /><glyph d="M489 103Q460 50 404.5 18.5Q349 -13 278 -13Q226 -13 180.5 6Q135 25 101.5 58.5Q68 92 49 137.5Q30 183 30 236Q30 289 49 335Q68 381 101.5 414.5Q135 448 180.5 467Q226 486 278 486Q349 486 404.5 454Q460 422 489 369Q494 359 491 351.5Q488 344 481 339L444 315Q424 302 411 321Q387 357 355.5 376.5Q324 396 279 396Q246 396 218 383.5Q190 371 170 349.5Q150 328 139 298.5Q128 269 128 236Q128 203 139 173.5Q150 144 170 122.5Q190 101 218 88.5Q246 76 279 76Q324 76 355.5 95.5Q387 115 411 151Q417 159 425.5 162Q434 165 444 158L481 133Q488 128 491 120.5Q494 113 489 103ZM263 557Q238 557 220.5 575Q203 593 203 617Q203 642 220.5 660Q238 678 263 678Q288 678 305.5 660Q323 642 323 617Q323 593 305.5 575Q288 557 263 557Z" glyph-name="cdotaccent" horiz-adv-x="516" unicode="ċ" /><glyph d="M128 236Q128 202 139 172.5Q150 143 170.5 121.5Q191 100 218.5 87.5Q246 75 279 75Q312 75 339.5 87.5Q367 100 387.5 121.5Q408 143 419 172.5Q430 202 430 236Q430 269 419 298.5Q408 328 387.5 349.5Q367 371 339.5 383.5Q312 396 279 396Q246 396 218.5 383.5Q191 371 170.5 349.5Q150 328 139 298.5Q128 269 128 236ZM30 236Q30 291 49 337Q68 383 100.5 416Q133 449 176 467Q219 485 266 485Q323 485 366 460.5Q409 436 429 398V682Q429 690 434.5 695Q440 700 448 700H507Q515 700 520 695Q525 690 525 682V18Q525 10 520 5Q515 0 507 0H448Q440 0 434.5 5Q429 10 429 18V75Q407 37 365.5 12Q324 -13 267 -13Q219 -13 176 5Q133 23 100.5 56Q68 89 49 134.5Q30 180 30 236ZM638 682Q640 690 644.5 695Q649 700 657 700H720Q730 700 734.5 693Q739 686 736 678L669 507Q663 491 646 491H606Q598 491 593.5 496.5Q589 502 591 510Z" glyph-name="dcaron" horiz-adv-x="657" unicode="ď" /><glyph d="M128 236Q128 202 139 172.5Q150 143 170.5 121.5Q191 100 218.5 87.5Q246 75 279 75Q312 75 339.5 87.5Q367 100 387.5 121.5Q408 143 419 172.5Q430 202 430 236Q430 269 419 298.5Q408 328 387.5 349.5Q367 371 339.5 383.5Q312 396 279 396Q246 396 218.5 383.5Q191 371 170.5 349.5Q150 328 139 298.5Q128 269 128 236ZM429 75Q407 37 365.5 12Q324 -13 267 -13Q219 -13 176 5Q133 23 100.5 56Q68 89 49 134.5Q30 180 30 236Q30 291 49 337Q68 383 100.5 416Q133 449 176 467Q219 485 266 485Q323 485 366 460.5Q409 436 429 398V544H302Q294 544 288.5 549.5Q283 555 283 563V591Q283 599 288.5 605Q294 611 302 611H429V682Q429 690 434.5 695Q440 700 448 700H507Q515 700 520 695Q525 690 525 682V611H578Q586 611 591.5 605Q597 599 597 591V563Q597 555 591.5 549.5Q586 544 578 544H525V18Q525 10 520 5Q515 0 507 0H448Q440 0 434.5 5Q429 10 429 18Z" glyph-name="dcroat" horiz-adv-x="584" unicode="đ" /><glyph d="M275 486Q327 486 371 467.5Q415 449 447 417Q479 385 496.5 341.5Q514 298 514 248V230Q514 222 510 216.5Q506 211 495 211H129Q132 180 144.5 154Q157 128 177 109.5Q197 91 223.5 80.5Q250 70 280 70Q326 70 356 87Q386 104 409 130Q421 143 434 134L478 105Q486 100 486 92.5Q486 85 482 80Q452 39 401.5 13Q351 -13 278 -13Q224 -13 178.5 6Q133 25 100 58Q67 91 48.5 136.5Q30 182 30 235Q30 287 48.5 333Q67 379 99.5 413Q132 447 177 466.5Q222 486 275 486ZM419 276Q411 338 371 372Q331 406 276 406Q219 406 179.5 369.5Q140 333 131 276ZM386 710Q397 710 401 702Q405 694 400 686L319 545Q310 530 297 530H256Q233 530 239 552L286 693Q291 710 310 710H386Z" glyph-name="eacute" horiz-adv-x="536" unicode="é" /><glyph d="M275 486Q327 486 371 467.5Q415 449 447 417Q479 385 496.5 341.5Q514 298 514 248V230Q514 222 510 216.5Q506 211 495 211H129Q132 180 144.5 154Q157 128 177 109.5Q197 91 223.5 80.5Q250 70 280 70Q326 70 356 87Q386 104 409 130Q421 143 434 134L478 105Q486 100 486 92.5Q486 85 482 80Q452 39 401.5 13Q351 -13 278 -13Q224 -13 178.5 6Q133 25 100 58Q67 91 48.5 136.5Q30 182 30 235Q30 287 48.5 333Q67 379 99.5 413Q132 447 177 466.5Q222 486 275 486ZM419 276Q411 338 371 372Q331 406 276 406Q219 406 179.5 369.5Q140 333 131 276ZM305 710Q322 710 332 692L423 553Q429 543 424 536.5Q419 530 412 530H360Q350 530 345 533Q340 536 335 543L270 632L205 543Q199 536 194 533Q189 530 180 530H129Q121 530 116.5 536.5Q112 543 117 553L208 692Q218 710 236 710Z" glyph-name="ecircumflex" horiz-adv-x="536" unicode="ê" /><glyph d="M275 486Q327 486 371 467.5Q415 449 447 417Q479 385 496.5 341.5Q514 298 514 248V230Q514 222 510 216.5Q506 211 495 211H129Q132 180 144.5 154Q157 128 177 109.5Q197 91 223.5 80.5Q250 70 280 70Q326 70 356 87Q386 104 409 130Q421 143 434 134L478 105Q486 100 486 92.5Q486 85 482 80Q452 39 401.5 13Q351 -13 278 -13Q224 -13 178.5 6Q133 25 100 58Q67 91 48.5 136.5Q30 182 30 235Q30 287 48.5 333Q67 379 99.5 413Q132 447 177 466.5Q222 486 275 486ZM419 276Q411 338 371 372Q331 406 276 406Q219 406 179.5 369.5Q140 333 131 276ZM186 555Q161 555 143.5 573Q126 591 126 615Q126 640 143.5 658Q161 676 186 676Q211 676 228.5 658Q246 640 246 615Q246 591 228.5 573Q211 555 186 555ZM354 555Q329 555 311.5 573Q294 591 294 615Q294 640 311.5 658Q329 676 354 676Q379 676 396.5 658Q414 640 414 615Q414 591 396.5 573Q379 555 354 555Z" glyph-name="edieresis" horiz-adv-x="536" unicode="ë" /><glyph d="M275 486Q327 486 371 467.5Q415 449 447 417Q479 385 496.5 341.5Q514 298 514 248V230Q514 222 510 216.5Q506 211 495 211H129Q132 180 144.5 154Q157 128 177 109.5Q197 91 223.5 80.5Q250 70 280 70Q326 70 356 87Q386 104 409 130Q421 143 434 134L478 105Q486 100 486 92.5Q486 85 482 80Q452 39 401.5 13Q351 -13 278 -13Q224 -13 178.5 6Q133 25 100 58Q67 91 48.5 136.5Q30 182 30 235Q30 287 48.5 333Q67 379 99.5 413Q132 447 177 466.5Q222 486 275 486ZM419 276Q411 338 371 372Q331 406 276 406Q219 406 179.5 369.5Q140 333 131 276ZM233 710Q252 710 257 693L305 552Q309 541 303.5 535.5Q298 530 287 530H246Q238 530 233.5 533.5Q229 537 224 545L143 686Q138 694 142 702Q146 710 157 710Z" glyph-name="egrave" horiz-adv-x="536" unicode="è" /><glyph d="M275 486Q327 486 371 467.5Q415 449 447 417Q479 385 496.5 341.5Q514 298 514 248V230Q514 222 510 216.5Q506 211 495 211H129Q132 180 144.5 154Q157 128 177 109.5Q197 91 223.5 80.5Q250 70 280 70Q326 70 356 87Q386 104 409 130Q421 143 434 134L478 105Q486 100 486 92.5Q486 85 482 80Q452 39 401.5 13Q351 -13 278 -13Q224 -13 178.5 6Q133 25 100 58Q67 91 48.5 136.5Q30 182 30 235Q30 287 48.5 333Q67 379 99.5 413Q132 447 177 466.5Q222 486 275 486ZM419 276Q411 338 371 372Q331 406 276 406Q219 406 179.5 369.5Q140 333 131 276ZM270 525Q203 525 166 559.5Q129 594 129 652V668Q129 680 141 680H199Q210 680 210 669V659Q210 630 227 616Q244 602 270 602Q296 602 313.5 616Q331 630 331 659V669Q331 680 343 680H399Q412 680 412 668V652Q412 594 375 559.5Q338 525 270 525Z" glyph-name="ebreve" horiz-adv-x="536" unicode="ĕ" /><glyph d="M275 486Q327 486 371 467.5Q415 449 447 417Q479 385 496.5 341.5Q514 298 514 248V230Q514 222 510 216.5Q506 211 495 211H129Q132 180 144.5 154Q157 128 177 109.5Q197 91 223.5 80.5Q250 70 280 70Q326 70 356 87Q386 104 409 130Q421 143 434 134L478 105Q486 100 486 92.5Q486 85 482 80Q452 39 401.5 13Q351 -13 278 -13Q224 -13 178.5 6Q133 25 100 58Q67 91 48.5 136.5Q30 182 30 235Q30 287 48.5 333Q67 379 99.5 413Q132 447 177 466.5Q222 486 275 486ZM419 276Q411 338 371 372Q331 406 276 406Q219 406 179.5 369.5Q140 333 131 276ZM236 530Q218 530 208 547L117 687Q112 697 116.5 703.5Q121 710 129 710H180Q189 710 194 707Q199 704 205 696L270 608L335 696Q340 704 345 707Q350 710 360 710H412Q419 710 424 703.5Q429 697 423 687L332 547Q322 530 305 530H236Z" glyph-name="ecaron" horiz-adv-x="536" unicode="ě" /><glyph d="M275 486Q327 486 371 467.5Q415 449 447 417Q479 385 496.5 341.5Q514 298 514 248V230Q514 222 510 216.5Q506 211 495 211H129Q132 180 144.5 154Q157 128 177 109.5Q197 91 223.5 80.5Q250 70 280 70Q326 70 356 87Q386 104 409 130Q421 143 434 134L478 105Q486 100 486 92.5Q486 85 482 80Q452 39 401.5 13Q351 -13 278 -13Q224 -13 178.5 6Q133 25 100 58Q67 91 48.5 136.5Q30 182 30 235Q30 287 48.5 333Q67 379 99.5 413Q132 447 177 466.5Q222 486 275 486ZM419 276Q411 338 371 372Q331 406 276 406Q219 406 179.5 369.5Q140 333 131 276ZM270 557Q245 557 227.5 575Q210 593 210 617Q210 642 227.5 660Q245 678 270 678Q295 678 312.5 660Q330 642 330 617Q330 593 312.5 575Q295 557 270 557Z" glyph-name="edotaccent" horiz-adv-x="536" unicode="ė" /><glyph d="M275 486Q327 486 371 467.5Q415 449 447 417Q479 385 496.5 341.5Q514 298 514 248V230Q514 222 510 216.5Q506 211 495 211H129Q132 180 144.5 154Q157 128 177 109.5Q197 91 223.5 80.5Q250 70 280 70Q326 70 356 87Q386 104 409 130Q421 143 434 134L478 105Q486 100 486 92.5Q486 85 482 80Q452 39 401.5 13Q351 -13 278 -13Q224 -13 178.5 6Q133 25 100 58Q67 91 48.5 136.5Q30 182 30 235Q30 287 48.5 333Q67 379 99.5 413Q132 447 177 466.5Q222 486 275 486ZM419 276Q411 338 371 372Q331 406 276 406Q219 406 179.5 369.5Q140 333 131 276ZM140 550Q132 550 126.5 555.5Q121 561 121 569V612Q121 620 126.5 625Q132 630 140 630H400Q408 630 413.5 625Q419 620 419 612V569Q419 561 413.5 555.5Q408 550 400 550Z" glyph-name="emacron" horiz-adv-x="536" unicode="ē" /><glyph d="M275 486Q327 486 371 467.5Q415 449 447 417Q479 385 496.5 341.5Q514 298 514 248V230Q514 222 510 216.5Q506 211 495 211H129Q132 180 144.5 154Q157 128 177 109.5Q197 91 223.5 80.5Q250 70 280 70Q326 70 356 87Q386 104 409 130Q421 143 434 134L478 105Q486 100 486 92.5Q486 85 482 80Q452 39 401.5 13Q351 -13 278 -13Q224 -13 178.5 6Q133 25 100 58Q67 91 48.5 136.5Q30 182 30 235Q30 287 48.5 333Q67 379 99.5 413Q132 447 177 466.5Q222 486 275 486ZM419 276Q411 338 371 372Q331 406 276 406Q219 406 179.5 369.5Q140 333 131 276ZM238 -110Q238 -83 251 -59Q264 -35 283 -15Q302 5 321.5 19Q341 33 355 41L383 38L388 27Q362 -5 344.5 -36.5Q327 -68 327 -88Q327 -105 337 -115.5Q347 -126 370 -126Q378 -126 385.5 -125Q393 -124 401 -123Q407 -121 411.5 -125.5Q416 -130 414 -141L411 -166Q411 -174 404 -179Q397 -184 387 -187Q377 -190 364.5 -191.5Q352 -193 340 -193Q293 -193 265.5 -171Q238 -149 238 -110Z" glyph-name="eogonek" horiz-adv-x="536" unicode="ę" /><glyph d="M129 238Q129 204 140 175Q151 146 171.5 124.5Q192 103 219.5 91Q247 79 280 79Q313 79 340.5 91Q368 103 388 124.5Q408 146 419 175Q430 204 430 238Q430 271 419 300Q408 329 388 350.5Q368 372 340.5 384.5Q313 397 280 397Q247 397 219.5 384.5Q192 372 171.5 350.5Q151 329 140 300Q129 271 129 238ZM281 -142Q356 -142 393.5 -103Q431 -64 431 -1V78Q411 41 368.5 17Q326 -7 270 -7Q221 -7 177.5 10.5Q134 28 101.5 60Q69 92 50 137Q31 182 31 238Q31 294 50 339.5Q69 385 101.5 417.5Q134 450 176.5 467.5Q219 485 267 485Q323 485 367 459.5Q411 434 431 396V453Q431 461 436 466.5Q441 472 449 472H508Q516 472 521.5 466.5Q527 461 527 453V-4Q527 -52 510.5 -93Q494 -134 462 -163Q430 -192 384 -208.5Q338 -225 279 -225Q183 -225 122.5 -183.5Q62 -142 45 -76Q43 -70 46 -64.5Q49 -59 56 -58L118 -41Q135 -38 139 -51Q143 -68 154 -84.5Q165 -101 182.5 -114Q200 -127 224.5 -134.5Q249 -142 281 -142ZM281 525Q214 525 177 559.5Q140 594 140 652V668Q140 680 152 680H210Q221 680 221 669V659Q221 630 238 616Q255 602 281 602Q307 602 324.5 616Q342 630 342 659V669Q342 680 354 680H410Q423 680 423 668V652Q423 594 386 559.5Q349 525 281 525Z" glyph-name="gbreve" horiz-adv-x="585" unicode="ğ" /><glyph d="M129 238Q129 204 140 175Q151 146 171.5 124.5Q192 103 219.5 91Q247 79 280 79Q313 79 340.5 91Q368 103 388 124.5Q408 146 419 175Q430 204 430 238Q430 271 419 300Q408 329 388 350.5Q368 372 340.5 384.5Q313 397 280 397Q247 397 219.5 384.5Q192 372 171.5 350.5Q151 329 140 300Q129 271 129 238ZM281 -142Q356 -142 393.5 -103Q431 -64 431 -1V78Q411 41 368.5 17Q326 -7 270 -7Q221 -7 177.5 10.5Q134 28 101.5 60Q69 92 50 137Q31 182 31 238Q31 294 50 339.5Q69 385 101.5 417.5Q134 450 176.5 467.5Q219 485 267 485Q323 485 367 459.5Q411 434 431 396V453Q431 461 436 466.5Q441 472 449 472H508Q516 472 521.5 466.5Q527 461 527 453V-4Q527 -52 510.5 -93Q494 -134 462 -163Q430 -192 384 -208.5Q338 -225 279 -225Q183 -225 122.5 -183.5Q62 -142 45 -76Q43 -70 46 -64.5Q49 -59 56 -58L118 -41Q135 -38 139 -51Q143 -68 154 -84.5Q165 -101 182.5 -114Q200 -127 224.5 -134.5Q249 -142 281 -142ZM316 710Q333 710 343 692L434 553Q440 543 435 536.5Q430 530 423 530H371Q361 530 356 533Q351 536 346 543L281 632L216 543Q210 536 205 533Q200 530 191 530H140Q132 530 127.5 536.5Q123 543 128 553L219 692Q229 710 247 710Z" glyph-name="gcircumflex" horiz-adv-x="585" unicode="ĝ" /><glyph d="M129 238Q129 204 140 175Q151 146 171.5 124.5Q192 103 219.5 91Q247 79 280 79Q313 79 340.5 91Q368 103 388 124.5Q408 146 419 175Q430 204 430 238Q430 271 419 300Q408 329 388 350.5Q368 372 340.5 384.5Q313 397 280 397Q247 397 219.5 384.5Q192 372 171.5 350.5Q151 329 140 300Q129 271 129 238ZM281 -142Q356 -142 393.5 -103Q431 -64 431 -1V78Q411 41 368.5 17Q326 -7 270 -7Q221 -7 177.5 10.5Q134 28 101.5 60Q69 92 50 137Q31 182 31 238Q31 294 50 339.5Q69 385 101.5 417.5Q134 450 176.5 467.5Q219 485 267 485Q323 485 367 459.5Q411 434 431 396V453Q431 461 436 466.5Q441 472 449 472H508Q516 472 521.5 466.5Q527 461 527 453V-4Q527 -52 510.5 -93Q494 -134 462 -163Q430 -192 384 -208.5Q338 -225 279 -225Q183 -225 122.5 -183.5Q62 -142 45 -76Q43 -70 46 -64.5Q49 -59 56 -58L118 -41Q135 -38 139 -51Q143 -68 154 -84.5Q165 -101 182.5 -114Q200 -127 224.5 -134.5Q249 -142 281 -142ZM226 546Q215 546 211 554Q207 562 212 570L293 711Q302 726 315 726H356Q379 726 373 704L326 563Q321 546 302 546H226Z" glyph-name="gcommaaccent" horiz-adv-x="585" unicode="ģ" /><glyph d="M129 238Q129 204 140 175Q151 146 171.5 124.5Q192 103 219.5 91Q247 79 280 79Q313 79 340.5 91Q368 103 388 124.5Q408 146 419 175Q430 204 430 238Q430 271 419 300Q408 329 388 350.5Q368 372 340.5 384.5Q313 397 280 397Q247 397 219.5 384.5Q192 372 171.5 350.5Q151 329 140 300Q129 271 129 238ZM281 -142Q356 -142 393.5 -103Q431 -64 431 -1V78Q411 41 368.5 17Q326 -7 270 -7Q221 -7 177.5 10.5Q134 28 101.5 60Q69 92 50 137Q31 182 31 238Q31 294 50 339.5Q69 385 101.5 417.5Q134 450 176.5 467.5Q219 485 267 485Q323 485 367 459.5Q411 434 431 396V453Q431 461 436 466.5Q441 472 449 472H508Q516 472 521.5 466.5Q527 461 527 453V-4Q527 -52 510.5 -93Q494 -134 462 -163Q430 -192 384 -208.5Q338 -225 279 -225Q183 -225 122.5 -183.5Q62 -142 45 -76Q43 -70 46 -64.5Q49 -59 56 -58L118 -41Q135 -38 139 -51Q143 -68 154 -84.5Q165 -101 182.5 -114Q200 -127 224.5 -134.5Q249 -142 281 -142ZM277 557Q252 557 234.5 575Q217 593 217 617Q217 642 234.5 660Q252 678 277 678Q302 678 319.5 660Q337 642 337 617Q337 593 319.5 575Q302 557 277 557Z" glyph-name="gdotaccent" horiz-adv-x="585" unicode="ġ" /><glyph d="M155 17Q155 9 149.5 4.5Q144 0 137 0H77Q69 0 64 5Q59 10 59 18V544H7Q-1 544 -6.5 549.5Q-12 555 -12 563V591Q-12 599 -6.5 605Q-1 611 7 611H59V682Q59 690 64 695Q69 700 77 700H137Q144 700 149.5 695.5Q155 691 155 683V611H284Q292 611 297.5 605Q303 599 303 591V563Q303 555 297.5 549.5Q292 544 284 544H155V402Q175 437 218 461Q261 485 321 485Q368 485 405.5 469.5Q443 454 469.5 427Q496 400 510 362.5Q524 325 524 280V17Q524 9 518.5 4.5Q513 0 505 0H447Q439 0 433.5 4.5Q428 9 428 17V255Q428 321 393.5 359Q359 397 295 397Q231 397 193 357.5Q155 318 155 255V17Z" glyph-name="hbar" horiz-adv-x="577" unicode="ħ" /><glyph d="M428 255Q428 321 393.5 359Q359 397 295 397Q231 397 193 357.5Q155 318 155 255V17Q155 9 149.5 4.5Q144 0 137 0H77Q69 0 64 5Q59 10 59 18V682Q59 690 64 695Q69 700 77 700H137Q144 700 149.5 695.5Q155 691 155 683V402Q175 437 218 461Q261 485 321 485Q368 485 405.5 469.5Q443 454 469.5 427Q496 400 510 362.5Q524 325 524 280V17Q524 9 518.5 4.5Q513 0 505 0H447Q439 0 433.5 4.5Q428 9 428 17ZM323 938Q340 938 350 920L441 781Q447 771 442 764.5Q437 758 430 758H378Q368 758 363 761Q358 764 353 771L288 860L223 771Q217 764 212 761Q207 758 198 758H147Q139 758 134.5 764.5Q130 771 135 781L226 920Q236 938 254 938Z" glyph-name="hcircumflex" horiz-adv-x="577" unicode="ĥ" /><glyph d="M77 0Q69 0 63.5 5.5Q58 11 58 19V453Q58 472 77 472H136Q144 472 149 466.5Q154 461 154 453V19Q154 11 149 5.5Q144 0 136 0ZM222 710Q233 710 237 702Q241 694 236 686L155 545Q146 530 133 530H92Q69 530 75 552L122 693Q127 710 146 710H222Z" glyph-name="iacute" horiz-adv-x="212" unicode="í" /><glyph d="M77 0Q69 0 63.5 5.5Q58 11 58 19V453Q58 472 77 472H136Q144 472 149 466.5Q154 461 154 453V19Q154 11 149 5.5Q144 0 136 0ZM141 710Q158 710 168 692L259 553Q265 543 260 536.5Q255 530 248 530H196Q186 530 181 533Q176 536 171 543L106 632L41 543Q35 536 30 533Q25 530 16 530H-35Q-43 530 -47.5 536.5Q-52 543 -47 553L44 692Q54 710 72 710Z" glyph-name="icircumflex" horiz-adv-x="212" unicode="î" /><glyph d="M77 0Q69 0 63.5 5.5Q58 11 58 19V453Q58 472 77 472H136Q144 472 149 466.5Q154 461 154 453V19Q154 11 149 5.5Q144 0 136 0ZM22 555Q-3 555 -20.5 573Q-38 591 -38 615Q-38 640 -20.5 658Q-3 676 22 676Q47 676 64.5 658Q82 640 82 615Q82 591 64.5 573Q47 555 22 555ZM190 555Q165 555 147.5 573Q130 591 130 615Q130 640 147.5 658Q165 676 190 676Q215 676 232.5 658Q250 640 250 615Q250 591 232.5 573Q215 555 190 555Z" glyph-name="idieresis" horiz-adv-x="212" unicode="ï" /><glyph d="M77 0Q69 0 63.5 5.5Q58 11 58 19V453Q58 472 77 472H136Q144 472 149 466.5Q154 461 154 453V19Q154 11 149 5.5Q144 0 136 0ZM69 710Q88 710 93 693L141 552Q145 541 139.5 535.5Q134 530 123 530H82Q74 530 69.5 533.5Q65 537 60 545L-21 686Q-26 694 -22 702Q-18 710 -7 710Z" glyph-name="igrave" horiz-adv-x="212" unicode="ì" /><glyph d="M77 0Q69 0 63.5 5.5Q58 11 58 19V453Q58 472 77 472H136Q144 472 149 466.5Q154 461 154 453V19Q154 11 149 5.5Q144 0 136 0ZM106 525Q39 525 2 559.5Q-35 594 -35 652V668Q-35 680 -23 680H35Q46 680 46 669V659Q46 630 63 616Q80 602 106 602Q132 602 149.5 616Q167 630 167 659V669Q167 680 179 680H235Q248 680 248 668V652Q248 594 211 559.5Q174 525 106 525Z" glyph-name="ibreve" horiz-adv-x="212" unicode="ĭ" /><glyph d="M77 0Q69 0 63.5 5.5Q58 11 58 19V453Q58 472 77 472H136Q144 472 149 466.5Q154 461 154 453V19Q154 11 149 5.5Q144 0 136 0ZM-24 550Q-32 550 -37.5 555.5Q-43 561 -43 569V612Q-43 620 -37.5 625Q-32 630 -24 630H236Q244 630 249.5 625Q255 620 255 612V569Q255 561 249.5 555.5Q244 550 236 550Z" glyph-name="imacron" horiz-adv-x="212" unicode="ī" /><glyph d="M106 555Q81 555 63.5 573Q46 591 46 615Q46 640 63.5 658Q81 676 106 676Q131 676 148.5 658Q166 640 166 615Q166 591 148.5 573Q131 555 106 555ZM77 0Q69 0 63.5 5.5Q58 11 58 19V453Q58 472 77 472H136Q144 472 149 466.5Q154 461 154 453V19Q154 11 149 5.5Q144 0 136 0ZM-7 -132Q-7 -105 6 -81Q19 -57 38 -37Q57 -17 76.5 -3Q96 11 110 19L138 16L143 5Q117 -27 99.5 -58.5Q82 -90 82 -110Q82 -127 92 -137.5Q102 -148 125 -148Q133 -148 140.5 -147Q148 -146 156 -145Q162 -143 166.5 -147.5Q171 -152 169 -163L166 -188Q166 -196 159 -201Q152 -206 142 -209Q132 -212 119.5 -213.5Q107 -215 95 -215Q48 -215 20.5 -193Q-7 -171 -7 -132Z" glyph-name="iogonek" horiz-adv-x="212" unicode="į" /><glyph d="M77 0Q69 0 63.5 5.5Q58 11 58 19V453Q58 472 77 472H136Q144 472 149 466.5Q154 461 154 453V19Q154 11 149 5.5Q144 0 136 0ZM176 545Q160 545 139.5 550Q119 555 99.5 561.5Q80 568 63 573Q46 578 36 578Q16 578 6 567.5Q-4 557 -15 550Q-25 543 -36 553L-55 576Q-63 584 -63 594Q-63 604 -56.5 617Q-50 630 -38 640.5Q-26 651 -9 658.5Q8 666 28 666Q44 666 64 660.5Q84 655 103.5 649Q123 643 140 637.5Q157 632 168 632Q188 632 198 642.5Q208 653 219 661Q230 666 241 656L259 635Q267 625 267 616Q267 605 260.5 593Q254 581 242 570Q230 559 213 552Q196 545 176 545Z" glyph-name="itilde" horiz-adv-x="212" unicode="ĩ" /><glyph d="M135 472Q143 472 148.5 466.5Q154 461 154 453V-64Q154 -106 140.5 -136.5Q127 -167 105.5 -186.5Q84 -206 56 -215.5Q28 -225 0 -225Q-32 -225 -63.5 -215.5Q-95 -206 -115 -187Q-121 -182 -121.5 -174Q-122 -166 -117 -159L-93 -127Q-86 -117 -78.5 -117Q-71 -117 -62 -122Q-48 -130 -36 -134Q-24 -138 -8 -138Q17 -138 37.5 -120Q58 -102 58 -63V453Q58 461 63.5 466.5Q69 472 77 472ZM142 710Q159 710 169 692L260 553Q266 543 261 536.5Q256 530 249 530H197Q187 530 182 533Q177 536 172 543L107 632L42 543Q36 536 31 533Q26 530 17 530H-34Q-42 530 -46.5 536.5Q-51 543 -46 553L45 692Q55 710 73 710Z" glyph-name="jcircumflex" horiz-adv-x="212" unicode="ĵ" /><glyph d="M106 555Q81 555 63.5 573Q46 591 46 615Q46 640 63.5 658Q81 676 106 676Q131 676 148.5 658Q166 640 166 615Q166 591 148.5 573Q131 555 106 555ZM77 0Q69 0 63.5 5.5Q58 11 58 19V453Q58 472 77 472H136Q144 472 149 466.5Q154 461 154 453V19Q154 11 149 5.5Q144 0 136 0ZM315 555Q290 555 272 573Q254 591 254 615Q254 640 272 658Q290 676 315 676Q340 676 358 658Q376 640 376 615Q376 591 358 573Q340 555 315 555ZM346 472Q354 472 359.5 466.5Q365 461 365 453V-64Q365 -106 351.5 -136.5Q338 -167 316.5 -186.5Q295 -206 267 -215.5Q239 -225 211 -225Q179 -225 147.5 -215.5Q116 -206 96 -187Q90 -182 89.5 -174Q89 -166 94 -159L118 -127Q125 -117 132.5 -117Q140 -117 149 -122Q163 -130 175 -134Q187 -138 203 -138Q228 -138 248.5 -120Q269 -102 269 -63V453Q269 461 274.5 466.5Q280 472 288 472Z" glyph-name="ij" horiz-adv-x="423" unicode="ĳ" /><glyph d="M155 18Q155 10 150 5Q145 0 137 0H78Q70 0 64.5 5Q59 10 59 18V682Q59 690 64.5 695Q70 700 78 700H137Q145 700 150 695Q155 690 155 682V298H205L345 460Q354 472 367 472H442Q452 472 454.5 464.5Q457 457 451 449L284 265L479 24Q484 16 481 8Q478 0 467 0H394Q376 0 365 15L203 220H155V18ZM183 -53Q185 -45 189.5 -40Q194 -35 202 -35H265Q275 -35 279.5 -42.5Q284 -50 281 -57L234 -178Q228 -194 211 -194H171Q163 -194 158.5 -188.5Q154 -183 156 -175Z" glyph-name="kcommaaccent" horiz-adv-x="480" unicode="ķ" /><glyph d="M154 18Q154 10 149 5Q144 0 136 0H77Q69 0 63.5 5Q58 10 58 18V453Q58 472 77 472H136Q144 472 149 466.5Q154 461 154 453V284H198L344 460Q354 472 366 472H441Q451 472 454 464.5Q457 457 450 449L280 253L478 24Q484 16 480.5 8Q477 0 466 0H393Q377 0 364 15L199 206H154V18Z" glyph-name="kgreenlandic" horiz-adv-x="479" unicode="ĸ" /><glyph d="M175 0Q118 0 87.5 29Q57 58 57 116V681Q57 689 62.5 694.5Q68 700 76 700H135Q143 700 148 694.5Q153 689 153 681V131Q153 108 165 94.5Q177 81 203 81H228Q236 81 241.5 76.5Q247 72 247 63V21Q247 9 239.5 4.5Q232 0 224 0H175ZM221 938Q232 938 236 930Q240 922 235 914L154 773Q145 758 132 758H91Q68 758 74 780L121 921Q126 938 145 938H221Z" glyph-name="lacute" horiz-adv-x="249" unicode="ĺ" /><glyph d="M175 0Q118 0 87.5 29Q57 58 57 116V681Q57 689 62.5 694.5Q68 700 76 700H135Q143 700 148 694.5Q153 689 153 681V131Q153 108 165 94.5Q177 81 203 81H228Q236 81 241.5 76.5Q247 72 247 63V21Q247 9 239.5 4.5Q232 0 224 0H175ZM248 682Q250 690 254.5 695Q259 700 267 700H330Q340 700 344.5 693Q349 686 346 678L279 507Q273 491 256 491H216Q208 491 203.5 496.5Q199 502 201 510Z" glyph-name="lcaron" horiz-adv-x="287" unicode="ľ" /><glyph d="M175 0Q118 0 87.5 29Q57 58 57 116V681Q57 689 62.5 694.5Q68 700 76 700H135Q143 700 148 694.5Q153 689 153 681V131Q153 108 165 94.5Q177 81 203 81H228Q236 81 241.5 76.5Q247 72 247 63V21Q247 9 239.5 4.5Q232 0 224 0H175ZM72 -53Q74 -45 78.5 -40Q83 -35 91 -35H154Q164 -35 168.5 -42.5Q173 -50 170 -57L123 -178Q117 -194 100 -194H60Q52 -194 47.5 -188.5Q43 -183 45 -175Z" glyph-name="lcommaaccent" horiz-adv-x="249" unicode="ļ" /><glyph d="M175 0Q118 0 87.5 29Q57 58 57 116V681Q57 689 62.5 694.5Q68 700 76 700H135Q143 700 148 694.5Q153 689 153 681V131Q153 108 165 94.5Q177 81 203 81H228Q236 81 241.5 76.5Q247 72 247 63V21Q247 9 239.5 4.5Q232 0 224 0H175ZM281 235Q252 235 233 254.5Q214 274 214 302Q214 331 233 351Q252 371 281 371Q310 371 330 351Q350 331 350 302Q350 274 330 254.5Q310 235 281 235Z" glyph-name="ldot" horiz-adv-x="339" unicode="ŀ" /><glyph d="M427 255Q427 321 392.5 359Q358 397 294 397Q230 397 192 357.5Q154 318 154 255V17Q154 9 148.5 4.5Q143 0 136 0H76Q68 0 63 5Q58 10 58 18V453Q58 461 63 466.5Q68 472 76 472H136Q143 472 148.5 467Q154 462 154 454V402Q174 437 217 461Q260 485 320 485Q367 485 404.5 469.5Q442 454 468.5 427Q495 400 509 362.5Q523 325 523 280V17Q523 9 517.5 4.5Q512 0 504 0H446Q438 0 432.5 4.5Q427 9 427 17ZM347 545Q331 545 310.5 550Q290 555 270.5 561.5Q251 568 234 573Q217 578 207 578Q187 578 177 567.5Q167 557 156 550Q146 543 135 553L116 576Q108 584 108 594Q108 604 114.5 617Q121 630 133 640.5Q145 651 162 658.5Q179 666 199 666Q215 666 235 660.5Q255 655 274.5 649Q294 643 311 637.5Q328 632 339 632Q359 632 369 642.5Q379 653 390 661Q401 666 412 656L430 635Q438 625 438 616Q438 605 431.5 593Q425 581 413 570Q401 559 384 552Q367 545 347 545Z" glyph-name="ntilde" horiz-adv-x="576" unicode="ñ" /><glyph d="M427 255Q427 321 392.5 359Q358 397 294 397Q230 397 192 357.5Q154 318 154 255V17Q154 9 148.5 4.5Q143 0 136 0H76Q68 0 63 5Q58 10 58 18V453Q58 461 63 466.5Q68 472 76 472H136Q143 472 148.5 467Q154 462 154 454V402Q174 437 217 461Q260 485 320 485Q367 485 404.5 469.5Q442 454 468.5 427Q495 400 509 362.5Q523 325 523 280V17Q523 9 517.5 4.5Q512 0 504 0H446Q438 0 432.5 4.5Q427 9 427 17ZM403 710Q414 710 418 702Q422 694 417 686L336 545Q327 530 314 530H273Q250 530 256 552L303 693Q308 710 327 710H403Z" glyph-name="nacute" horiz-adv-x="576" unicode="ń" /><glyph d="M427 255Q427 321 392.5 359Q358 397 294 397Q230 397 192 357.5Q154 318 154 255V17Q154 9 148.5 4.5Q143 0 136 0H76Q68 0 63 5Q58 10 58 18V453Q58 461 63 466.5Q68 472 76 472H136Q143 472 148.5 467Q154 462 154 454V402Q174 437 217 461Q260 485 320 485Q367 485 404.5 469.5Q442 454 468.5 427Q495 400 509 362.5Q523 325 523 280V17Q523 9 517.5 4.5Q512 0 504 0H446Q438 0 432.5 4.5Q427 9 427 17ZM253 530Q235 530 225 547L134 687Q129 697 133.5 703.5Q138 710 146 710H197Q206 710 211 707Q216 704 222 696L287 608L352 696Q357 704 362 707Q367 710 377 710H429Q436 710 441 703.5Q446 697 440 687L349 547Q339 530 322 530H253Z" glyph-name="ncaron" horiz-adv-x="576" unicode="ň" /><glyph d="M427 255Q427 321 392.5 359Q358 397 294 397Q230 397 192 357.5Q154 318 154 255V17Q154 9 148.5 4.5Q143 0 136 0H76Q68 0 63 5Q58 10 58 18V453Q58 461 63 466.5Q68 472 76 472H136Q143 472 148.5 467Q154 462 154 454V402Q174 437 217 461Q260 485 320 485Q367 485 404.5 469.5Q442 454 468.5 427Q495 400 509 362.5Q523 325 523 280V17Q523 9 517.5 4.5Q512 0 504 0H446Q438 0 432.5 4.5Q427 9 427 17ZM221 -53Q223 -45 227.5 -40Q232 -35 240 -35H303Q313 -35 317.5 -42.5Q322 -50 319 -57L272 -178Q266 -194 249 -194H209Q201 -194 196.5 -188.5Q192 -183 194 -175Z" glyph-name="ncommaaccent" horiz-adv-x="576" unicode="ņ" /><glyph d="M369 -228Q337 -228 305.5 -219Q274 -210 254 -191Q241 -179 252 -163L276 -130Q282 -121 291 -120.5Q300 -120 308 -125Q322 -133 336 -137.5Q350 -142 361 -142Q386 -142 406.5 -124Q427 -106 427 -66V255Q427 321 392.5 359Q358 397 294 397Q230 397 192 357.5Q154 318 154 255V17Q154 9 148.5 4.5Q143 0 136 0H76Q68 0 63 5Q58 10 58 18V453Q58 461 63 466.5Q68 472 76 472H136Q143 472 148.5 467Q154 462 154 454V402Q174 438 216.5 461.5Q259 485 319 485Q370 485 408 468.5Q446 452 471.5 422.5Q497 393 510 353Q523 313 523 266V-67Q523 -110 509.5 -140.5Q496 -171 474.5 -190.5Q453 -210 425 -219Q397 -228 369 -228Z" glyph-name="eng" horiz-adv-x="576" unicode="ŋ" /><glyph d="M427 255Q427 321 392.5 359Q358 397 294 397Q230 397 192 357.5Q154 318 154 255V17Q154 9 148.5 4.5Q143 0 136 0H76Q68 0 63 5Q58 10 58 18V453Q58 461 63 466.5Q68 472 76 472H136Q143 472 148.5 467Q154 462 154 454V402Q174 437 217 461Q260 485 320 485Q367 485 404.5 469.5Q442 454 468.5 427Q495 400 509 362.5Q523 325 523 280V17Q523 9 517.5 4.5Q512 0 504 0H446Q438 0 432.5 4.5Q427 9 427 17ZM110 748Q112 756 116.5 761Q121 766 129 766H192Q202 766 206.5 759Q211 752 208 744L141 573Q135 557 118 557H78Q70 557 65.5 562.5Q61 568 63 576Z" glyph-name="napostrophe" horiz-adv-x="576" unicode="ŉ" /><glyph d="M30 236Q30 289 49.5 334.5Q69 380 102.5 413.5Q136 447 181 466Q226 485 278 485Q330 485 375 466Q420 447 453.5 413.5Q487 380 506.5 334.5Q526 289 526 236Q526 183 506.5 137.5Q487 92 453.5 58.5Q420 25 375 6Q330 -13 278 -13Q226 -13 181 6Q136 25 102.5 58.5Q69 92 49.5 137.5Q30 183 30 236ZM127 236Q127 203 138 173.5Q149 144 169.5 122.5Q190 101 217.5 88.5Q245 76 278 76Q311 76 338.5 88.5Q366 101 386.5 122.5Q407 144 418 173.5Q429 203 429 236Q429 270 418 299Q407 328 386.5 349.5Q366 371 338.5 383.5Q311 396 278 396Q245 396 217.5 383.5Q190 371 169.5 349.5Q149 328 138 299Q127 270 127 236ZM394 710Q405 710 409 702Q413 694 408 686L327 545Q318 530 305 530H264Q241 530 247 552L294 693Q299 710 318 710H394Z" glyph-name="oacute" horiz-adv-x="556" unicode="ó" /><glyph d="M30 236Q30 289 49.5 334.5Q69 380 102.5 413.5Q136 447 181 466Q226 485 278 485Q330 485 375 466Q420 447 453.5 413.5Q487 380 506.5 334.5Q526 289 526 236Q526 183 506.5 137.5Q487 92 453.5 58.5Q420 25 375 6Q330 -13 278 -13Q226 -13 181 6Q136 25 102.5 58.5Q69 92 49.5 137.5Q30 183 30 236ZM127 236Q127 203 138 173.5Q149 144 169.5 122.5Q190 101 217.5 88.5Q245 76 278 76Q311 76 338.5 88.5Q366 101 386.5 122.5Q407 144 418 173.5Q429 203 429 236Q429 270 418 299Q407 328 386.5 349.5Q366 371 338.5 383.5Q311 396 278 396Q245 396 217.5 383.5Q190 371 169.5 349.5Q149 328 138 299Q127 270 127 236ZM313 710Q330 710 340 692L431 553Q437 543 432 536.5Q427 530 420 530H368Q358 530 353 533Q348 536 343 543L278 632L213 543Q207 536 202 533Q197 530 188 530H137Q129 530 124.5 536.5Q120 543 125 553L216 692Q226 710 244 710Z" glyph-name="ocircumflex" horiz-adv-x="556" unicode="ô" /><glyph d="M30 236Q30 289 49.5 334.5Q69 380 102.5 413.5Q136 447 181 466Q226 485 278 485Q330 485 375 466Q420 447 453.5 413.5Q487 380 506.5 334.5Q526 289 526 236Q526 183 506.5 137.5Q487 92 453.5 58.5Q420 25 375 6Q330 -13 278 -13Q226 -13 181 6Q136 25 102.5 58.5Q69 92 49.5 137.5Q30 183 30 236ZM127 236Q127 203 138 173.5Q149 144 169.5 122.5Q190 101 217.5 88.5Q245 76 278 76Q311 76 338.5 88.5Q366 101 386.5 122.5Q407 144 418 173.5Q429 203 429 236Q429 270 418 299Q407 328 386.5 349.5Q366 371 338.5 383.5Q311 396 278 396Q245 396 217.5 383.5Q190 371 169.5 349.5Q149 328 138 299Q127 270 127 236ZM194 555Q169 555 151.5 573Q134 591 134 615Q134 640 151.5 658Q169 676 194 676Q219 676 236.5 658Q254 640 254 615Q254 591 236.5 573Q219 555 194 555ZM362 555Q337 555 319.5 573Q302 591 302 615Q302 640 319.5 658Q337 676 362 676Q387 676 404.5 658Q422 640 422 615Q422 591 404.5 573Q387 555 362 555Z" glyph-name="odieresis" horiz-adv-x="556" unicode="ö" /><glyph d="M30 236Q30 289 49.5 334.5Q69 380 102.5 413.5Q136 447 181 466Q226 485 278 485Q330 485 375 466Q420 447 453.5 413.5Q487 380 506.5 334.5Q526 289 526 236Q526 183 506.5 137.5Q487 92 453.5 58.5Q420 25 375 6Q330 -13 278 -13Q226 -13 181 6Q136 25 102.5 58.5Q69 92 49.5 137.5Q30 183 30 236ZM127 236Q127 203 138 173.5Q149 144 169.5 122.5Q190 101 217.5 88.5Q245 76 278 76Q311 76 338.5 88.5Q366 101 386.5 122.5Q407 144 418 173.5Q429 203 429 236Q429 270 418 299Q407 328 386.5 349.5Q366 371 338.5 383.5Q311 396 278 396Q245 396 217.5 383.5Q190 371 169.5 349.5Q149 328 138 299Q127 270 127 236ZM241 710Q260 710 265 693L313 552Q317 541 311.5 535.5Q306 530 295 530H254Q246 530 241.5 533.5Q237 537 232 545L151 686Q146 694 150 702Q154 710 165 710Z" glyph-name="ograve" horiz-adv-x="556" unicode="ò" /><glyph d="M30 236Q30 289 49.5 334.5Q69 380 102.5 413.5Q136 447 181 466Q226 485 278 485Q330 485 375 466Q420 447 453.5 413.5Q487 380 506.5 334.5Q526 289 526 236Q526 183 506.5 137.5Q487 92 453.5 58.5Q420 25 375 6Q330 -13 278 -13Q226 -13 181 6Q136 25 102.5 58.5Q69 92 49.5 137.5Q30 183 30 236ZM127 236Q127 203 138 173.5Q149 144 169.5 122.5Q190 101 217.5 88.5Q245 76 278 76Q311 76 338.5 88.5Q366 101 386.5 122.5Q407 144 418 173.5Q429 203 429 236Q429 270 418 299Q407 328 386.5 349.5Q366 371 338.5 383.5Q311 396 278 396Q245 396 217.5 383.5Q190 371 169.5 349.5Q149 328 138 299Q127 270 127 236ZM352 544Q336 544 315.5 549Q295 554 275.5 560.5Q256 567 239 572Q222 577 212 577Q192 577 182 566.5Q172 556 161 549Q151 542 140 552L121 575Q113 583 113 593Q113 603 119.5 616Q126 629 138 639.5Q150 650 167 657.5Q184 665 204 665Q220 665 240 659.5Q260 654 279.5 648Q299 642 316 636.5Q333 631 344 631Q364 631 374 641.5Q384 652 395 660Q406 665 417 655L435 634Q443 624 443 615Q443 604 436.5 592Q430 580 418 569Q406 558 389 551Q372 544 352 544Z" glyph-name="otilde" horiz-adv-x="556" unicode="õ" /><glyph d="M30 236Q30 289 49.5 334.5Q69 380 102.5 413.5Q136 447 181 466Q226 485 278 485Q330 485 375 466Q420 447 453.5 413.5Q487 380 506.5 334.5Q526 289 526 236Q526 183 506.5 137.5Q487 92 453.5 58.5Q420 25 375 6Q330 -13 278 -13Q226 -13 181 6Q136 25 102.5 58.5Q69 92 49.5 137.5Q30 183 30 236ZM127 236Q127 203 138 173.5Q149 144 169.5 122.5Q190 101 217.5 88.5Q245 76 278 76Q311 76 338.5 88.5Q366 101 386.5 122.5Q407 144 418 173.5Q429 203 429 236Q429 270 418 299Q407 328 386.5 349.5Q366 371 338.5 383.5Q311 396 278 396Q245 396 217.5 383.5Q190 371 169.5 349.5Q149 328 138 299Q127 270 127 236ZM278 525Q211 525 174 559.5Q137 594 137 652V668Q137 680 149 680H207Q218 680 218 669V659Q218 630 235 616Q252 602 278 602Q304 602 321.5 616Q339 630 339 659V669Q339 680 351 680H407Q420 680 420 668V652Q420 594 383 559.5Q346 525 278 525Z" glyph-name="obreve" horiz-adv-x="556" unicode="ŏ" /><glyph d="M30 236Q30 289 49.5 334.5Q69 380 102.5 413.5Q136 447 181 466Q226 485 278 485Q330 485 375 466Q420 447 453.5 413.5Q487 380 506.5 334.5Q526 289 526 236Q526 183 506.5 137.5Q487 92 453.5 58.5Q420 25 375 6Q330 -13 278 -13Q226 -13 181 6Q136 25 102.5 58.5Q69 92 49.5 137.5Q30 183 30 236ZM127 236Q127 203 138 173.5Q149 144 169.5 122.5Q190 101 217.5 88.5Q245 76 278 76Q311 76 338.5 88.5Q366 101 386.5 122.5Q407 144 418 173.5Q429 203 429 236Q429 270 418 299Q407 328 386.5 349.5Q366 371 338.5 383.5Q311 396 278 396Q245 396 217.5 383.5Q190 371 169.5 349.5Q149 328 138 299Q127 270 127 236ZM483 710Q494 710 498 702Q502 694 497 686L416 545Q411 537 406.5 533.5Q402 530 394 530H353Q343 530 338 535.5Q333 541 336 552L383 693Q388 710 407 710ZM303 710Q314 710 318.5 702Q323 694 318 686L237 545Q232 537 227.5 533.5Q223 530 215 530H174Q151 530 157 552L204 693Q209 710 227 710Z" glyph-name="ohungarumlaut" horiz-adv-x="556" unicode="ő" /><glyph d="M30 236Q30 289 49.5 334.5Q69 380 102.5 413.5Q136 447 181 466Q226 485 278 485Q330 485 375 466Q420 447 453.5 413.5Q487 380 506.5 334.5Q526 289 526 236Q526 183 506.5 137.5Q487 92 453.5 58.5Q420 25 375 6Q330 -13 278 -13Q226 -13 181 6Q136 25 102.5 58.5Q69 92 49.5 137.5Q30 183 30 236ZM127 236Q127 203 138 173.5Q149 144 169.5 122.5Q190 101 217.5 88.5Q245 76 278 76Q311 76 338.5 88.5Q366 101 386.5 122.5Q407 144 418 173.5Q429 203 429 236Q429 270 418 299Q407 328 386.5 349.5Q366 371 338.5 383.5Q311 396 278 396Q245 396 217.5 383.5Q190 371 169.5 349.5Q149 328 138 299Q127 270 127 236ZM148 550Q140 550 134.5 555.5Q129 561 129 569V612Q129 620 134.5 625Q140 630 148 630H408Q416 630 421.5 625Q427 620 427 612V569Q427 561 421.5 555.5Q416 550 408 550Z" glyph-name="omacron" horiz-adv-x="556" unicode="ō" /><glyph d="M289 475Q296 475 302 470.5Q308 466 308 455V396Q308 385 301.5 380.5Q295 376 289 376H269Q218 376 186 344.5Q154 313 154 237V17Q154 9 148.5 4.5Q143 0 136 0H76Q68 0 63 5Q58 10 58 18V453Q58 461 63 466.5Q68 472 76 472H132Q139 472 144.5 467Q150 462 150 454V396Q165 428 197 451.5Q229 475 274 475ZM292 710Q303 710 307 702Q311 694 306 686L225 545Q216 530 203 530H162Q139 530 145 552L192 693Q197 710 216 710H292Z" glyph-name="racute" horiz-adv-x="318" unicode="ŕ" /><glyph d="M289 475Q296 475 302 470.5Q308 466 308 455V396Q308 385 301.5 380.5Q295 376 289 376H269Q218 376 186 344.5Q154 313 154 237V17Q154 9 148.5 4.5Q143 0 136 0H76Q68 0 63 5Q58 10 58 18V453Q58 461 63 466.5Q68 472 76 472H132Q139 472 144.5 467Q150 462 150 454V396Q165 428 197 451.5Q229 475 274 475ZM142 530Q124 530 114 547L23 687Q18 697 22.5 703.5Q27 710 35 710H86Q95 710 100 707Q105 704 111 696L176 608L241 696Q246 704 251 707Q256 710 266 710H318Q325 710 330 703.5Q335 697 329 687L238 547Q228 530 211 530H142Z" glyph-name="rcaron" horiz-adv-x="318" unicode="ř" /><glyph d="M289 475Q296 475 302 470.5Q308 466 308 455V396Q308 385 301.5 380.5Q295 376 289 376H269Q218 376 186 344.5Q154 313 154 237V17Q154 9 148.5 4.5Q143 0 136 0H76Q68 0 63 5Q58 10 58 18V453Q58 461 63 466.5Q68 472 76 472H132Q139 472 144.5 467Q150 462 150 454V396Q165 428 197 451.5Q229 475 274 475ZM47 -53Q49 -45 53.5 -40Q58 -35 66 -35H129Q139 -35 143.5 -42.5Q148 -50 145 -57L98 -178Q92 -194 75 -194H35Q27 -194 22.5 -188.5Q18 -183 20 -175Z" glyph-name="rcommaaccent" horiz-adv-x="318" unicode="ŗ" /><glyph d="M228 486Q290 486 335 467.5Q380 449 406 426Q422 411 407 394L383 366Q375 358 366 358.5Q357 359 347 366Q321 386 291 397.5Q261 409 226 409Q186 409 160 393Q134 377 134 352Q134 330 150 315.5Q166 301 204 293L287 275Q355 261 392.5 229.5Q430 198 430 137Q430 108 416.5 81Q403 54 377.5 33Q352 12 314.5 -0.5Q277 -13 229 -13Q166 -13 120 5.5Q74 24 45 48Q26 64 25.5 77Q25 90 36 99L62 121Q73 130 81.5 127Q90 124 98 118Q124 94 157.5 78.5Q191 63 233 63Q281 63 306 82.5Q331 102 331 127Q331 155 312 168Q293 181 250 190L168 208Q108 222 75 254Q42 286 42 341Q42 372 55.5 399Q69 426 93 445Q117 464 151.5 475Q186 486 228 486ZM197 530Q179 530 169 547L78 687Q73 697 77.5 703.5Q82 710 90 710H141Q150 710 155 707Q160 704 166 696L231 608L296 696Q301 704 306 707Q311 710 321 710H373Q380 710 385 703.5Q390 697 384 687L293 547Q283 530 266 530H197Z" glyph-name="scaron" horiz-adv-x="456" unicode="š" /><glyph d="M228 486Q290 486 335 467.5Q380 449 406 426Q422 411 407 394L383 366Q375 358 366 358.5Q357 359 347 366Q321 386 291 397.5Q261 409 226 409Q186 409 160 393Q134 377 134 352Q134 330 150 315.5Q166 301 204 293L287 275Q355 261 392.5 229.5Q430 198 430 137Q430 108 416.5 81Q403 54 377.5 33Q352 12 314.5 -0.5Q277 -13 229 -13Q166 -13 120 5.5Q74 24 45 48Q26 64 25.5 77Q25 90 36 99L62 121Q73 130 81.5 127Q90 124 98 118Q124 94 157.5 78.5Q191 63 233 63Q281 63 306 82.5Q331 102 331 127Q331 155 312 168Q293 181 250 190L168 208Q108 222 75 254Q42 286 42 341Q42 372 55.5 399Q69 426 93 445Q117 464 151.5 475Q186 486 228 486ZM347 710Q358 710 362 702Q366 694 361 686L280 545Q271 530 258 530H217Q194 530 200 552L247 693Q252 710 271 710H347Z" glyph-name="sacute" horiz-adv-x="456" unicode="ś" /><glyph d="M228 486Q290 486 335 467.5Q380 449 406 426Q422 411 407 394L383 366Q375 358 366 358.5Q357 359 347 366Q321 386 291 397.5Q261 409 226 409Q186 409 160 393Q134 377 134 352Q134 330 150 315.5Q166 301 204 293L287 275Q355 261 392.5 229.5Q430 198 430 137Q430 108 416.5 81Q403 54 377.5 33Q352 12 314.5 -0.5Q277 -13 229 -13Q166 -13 120 5.5Q74 24 45 48Q26 64 25.5 77Q25 90 36 99L62 121Q73 130 81.5 127Q90 124 98 118Q124 94 157.5 78.5Q191 63 233 63Q281 63 306 82.5Q331 102 331 127Q331 155 312 168Q293 181 250 190L168 208Q108 222 75 254Q42 286 42 341Q42 372 55.5 399Q69 426 93 445Q117 464 151.5 475Q186 486 228 486ZM283 3 217 -167Q212 -181 195 -181H138Q130 -181 125 -175Q120 -169 124 -158L190 12Z" glyph-name="scedilla" horiz-adv-x="456" unicode="ş" /><glyph d="M228 486Q290 486 335 467.5Q380 449 406 426Q422 411 407 394L383 366Q375 358 366 358.5Q357 359 347 366Q321 386 291 397.5Q261 409 226 409Q186 409 160 393Q134 377 134 352Q134 330 150 315.5Q166 301 204 293L287 275Q355 261 392.5 229.5Q430 198 430 137Q430 108 416.5 81Q403 54 377.5 33Q352 12 314.5 -0.5Q277 -13 229 -13Q166 -13 120 5.5Q74 24 45 48Q26 64 25.5 77Q25 90 36 99L62 121Q73 130 81.5 127Q90 124 98 118Q124 94 157.5 78.5Q191 63 233 63Q281 63 306 82.5Q331 102 331 127Q331 155 312 168Q293 181 250 190L168 208Q108 222 75 254Q42 286 42 341Q42 372 55.5 399Q69 426 93 445Q117 464 151.5 475Q186 486 228 486ZM266 710Q283 710 293 692L384 553Q390 543 385 536.5Q380 530 373 530H321Q311 530 306 533Q301 536 296 543L231 632L166 543Q160 536 155 533Q150 530 141 530H90Q82 530 77.5 536.5Q73 543 78 553L169 692Q179 710 197 710Z" glyph-name="scircumflex" horiz-adv-x="456" unicode="ŝ" /><glyph d="M228 486Q290 486 335 467.5Q380 449 406 426Q422 411 407 394L383 366Q375 358 366 358.5Q357 359 347 366Q321 386 291 397.5Q261 409 226 409Q186 409 160 393Q134 377 134 352Q134 330 150 315.5Q166 301 204 293L287 275Q355 261 392.5 229.5Q430 198 430 137Q430 108 416.5 81Q403 54 377.5 33Q352 12 314.5 -0.5Q277 -13 229 -13Q166 -13 120 5.5Q74 24 45 48Q26 64 25.5 77Q25 90 36 99L62 121Q73 130 81.5 127Q90 124 98 118Q124 94 157.5 78.5Q191 63 233 63Q281 63 306 82.5Q331 102 331 127Q331 155 312 168Q293 181 250 190L168 208Q108 222 75 254Q42 286 42 341Q42 372 55.5 399Q69 426 93 445Q117 464 151.5 475Q186 486 228 486ZM173 -53Q175 -45 179.5 -40Q184 -35 192 -35H255Q265 -35 269.5 -42.5Q274 -50 271 -57L224 -178Q218 -194 201 -194H161Q153 -194 148.5 -188.5Q144 -183 146 -175Z" glyph-name="scommaaccent" horiz-adv-x="456" unicode="ș" /><glyph d="M365 31Q321 -8 246 -8Q219 -8 192.5 0Q166 8 145 25Q124 42 111.5 69.5Q99 97 99 135V246H31Q23 246 17.5 251.5Q12 257 12 265V289Q12 297 17.5 302.5Q23 308 31 308H99V391H31Q23 391 17.5 396.5Q12 402 12 410V453Q12 461 17.5 466.5Q23 472 31 472H99V615Q99 623 104.5 628.5Q110 634 118 634H178Q185 634 190.5 628.5Q196 623 196 615V472H340Q348 472 353.5 466.5Q359 461 359 453V410Q359 402 353.5 396.5Q348 391 340 391H196V308H340Q348 308 353.5 302.5Q359 297 359 289V265Q359 257 353.5 251.5Q348 246 340 246H196V154Q196 115 216.5 97.5Q237 80 262 80Q273 80 286.5 83.5Q300 87 314 95Q324 101 333 100.5Q342 100 347 92L368 59Q378 42 365 31Z" glyph-name="tbar" horiz-adv-x="380" unicode="ŧ" /><glyph d="M95 391 25 391Q18 391 13 396.5Q8 402 8 410V453Q8 461 13 466.5Q18 472 25 472H95V615Q95 634 114 634H173Q181 634 186 628.5Q191 623 191 615V472H336Q344 472 349 466.5Q354 461 354 453V410Q354 402 349 396.5Q344 391 336 391H191V154Q191 115 211.5 97.5Q232 80 257 80Q268 80 281.5 83.5Q295 87 309 95Q330 108 342 92L363 59Q374 43 360 31Q316 -8 241 -8Q214 -8 187.5 0Q161 8 140.5 25Q120 42 107.5 69.5Q95 97 95 135ZM302 747Q304 755 308.5 760Q313 765 321 765H384Q394 765 398.5 758Q403 751 400 743L333 572Q327 556 310 556H270Q262 556 257.5 561.5Q253 567 255 575Z" glyph-name="tcaron" horiz-adv-x="373" unicode="ť" /><glyph d="M95 391 25 391Q18 391 13 396.5Q8 402 8 410V453Q8 461 13 466.5Q18 472 25 472H95V615Q95 634 114 634H173Q181 634 186 628.5Q191 623 191 615V472H336Q344 472 349 466.5Q354 461 354 453V410Q354 402 349 396.5Q344 391 336 391H191V154Q191 115 211.5 97.5Q232 80 257 80Q268 80 281.5 83.5Q295 87 309 95Q330 108 342 92L363 59Q374 43 360 31Q316 -8 241 -8Q214 -8 187.5 0Q161 8 140.5 25Q120 42 107.5 69.5Q95 97 95 135ZM140 -53Q142 -45 146.5 -40Q151 -35 159 -35H222Q232 -35 236.5 -42.5Q241 -50 238 -57L191 -178Q185 -194 168 -194H128Q120 -194 115.5 -188.5Q111 -183 113 -175Z" glyph-name="tcommaaccent" horiz-adv-x="373" unicode="ţ" /><glyph d="M95 391 25 391Q18 391 13 396.5Q8 402 8 410V453Q8 461 13 466.5Q18 472 25 472H95V615Q95 634 114 634H173Q181 634 186 628.5Q191 623 191 615V472H336Q344 472 349 466.5Q354 461 354 453V410Q354 402 349 396.5Q344 391 336 391H191V154Q191 115 211.5 97.5Q232 80 257 80Q268 80 281.5 83.5Q295 87 309 95Q330 108 342 92L363 59Q374 43 360 31Q316 -8 241 -8Q214 -8 187.5 0Q161 8 140.5 25Q120 42 107.5 69.5Q95 97 95 135ZM140 -53Q142 -45 146.5 -40Q151 -35 159 -35H222Q232 -35 236.5 -42.5Q241 -50 238 -57L191 -178Q185 -194 168 -194H128Q120 -194 115.5 -188.5Q111 -183 113 -175Z" glyph-name="uni021B" horiz-adv-x="373" unicode="ț" /><glyph d="M149 206Q149 143 181.5 106Q214 69 278 69Q341 69 376 107Q411 145 411 205V454Q411 462 416.5 467Q422 472 429 472H488Q496 472 501.5 466.5Q507 461 507 453V18Q507 10 501.5 5Q496 0 488 0H429Q422 0 416.5 4.5Q411 9 411 17V70Q389 33 350 10Q311 -13 251 -13Q205 -13 168 1.5Q131 16 105.5 42.5Q80 69 66.5 106.5Q53 144 53 189V454Q53 462 58.5 467Q64 472 72 472H131Q139 472 144 467Q149 462 149 454ZM395 710Q406 710 410 702Q414 694 409 686L328 545Q319 530 306 530H265Q242 530 248 552L295 693Q300 710 319 710H395Z" glyph-name="uacute" horiz-adv-x="565" unicode="ú" /><glyph d="M149 206Q149 143 181.5 106Q214 69 278 69Q341 69 376 107Q411 145 411 205V454Q411 462 416.5 467Q422 472 429 472H488Q496 472 501.5 466.5Q507 461 507 453V18Q507 10 501.5 5Q496 0 488 0H429Q422 0 416.5 4.5Q411 9 411 17V70Q389 33 350 10Q311 -13 251 -13Q205 -13 168 1.5Q131 16 105.5 42.5Q80 69 66.5 106.5Q53 144 53 189V454Q53 462 58.5 467Q64 472 72 472H131Q139 472 144 467Q149 462 149 454ZM314 710Q331 710 341 692L432 553Q438 543 433 536.5Q428 530 421 530H369Q359 530 354 533Q349 536 344 543L279 632L214 543Q208 536 203 533Q198 530 189 530H138Q130 530 125.5 536.5Q121 543 126 553L217 692Q227 710 245 710Z" glyph-name="ucircumflex" horiz-adv-x="565" unicode="û" /><glyph d="M149 206Q149 143 181.5 106Q214 69 278 69Q341 69 376 107Q411 145 411 205V454Q411 462 416.5 467Q422 472 429 472H488Q496 472 501.5 466.5Q507 461 507 453V18Q507 10 501.5 5Q496 0 488 0H429Q422 0 416.5 4.5Q411 9 411 17V70Q389 33 350 10Q311 -13 251 -13Q205 -13 168 1.5Q131 16 105.5 42.5Q80 69 66.5 106.5Q53 144 53 189V454Q53 462 58.5 467Q64 472 72 472H131Q139 472 144 467Q149 462 149 454ZM195 555Q170 555 152.5 573Q135 591 135 615Q135 640 152.5 658Q170 676 195 676Q220 676 237.5 658Q255 640 255 615Q255 591 237.5 573Q220 555 195 555ZM363 555Q338 555 320.5 573Q303 591 303 615Q303 640 320.5 658Q338 676 363 676Q388 676 405.5 658Q423 640 423 615Q423 591 405.5 573Q388 555 363 555Z" glyph-name="udieresis" horiz-adv-x="565" unicode="ü" /><glyph d="M149 206Q149 143 181.5 106Q214 69 278 69Q341 69 376 107Q411 145 411 205V454Q411 462 416.5 467Q422 472 429 472H488Q496 472 501.5 466.5Q507 461 507 453V18Q507 10 501.5 5Q496 0 488 0H429Q422 0 416.5 4.5Q411 9 411 17V70Q389 33 350 10Q311 -13 251 -13Q205 -13 168 1.5Q131 16 105.5 42.5Q80 69 66.5 106.5Q53 144 53 189V454Q53 462 58.5 467Q64 472 72 472H131Q139 472 144 467Q149 462 149 454ZM242 710Q261 710 266 693L314 552Q318 541 312.5 535.5Q307 530 296 530H255Q247 530 242.5 533.5Q238 537 233 545L152 686Q147 694 151 702Q155 710 166 710Z" glyph-name="ugrave" horiz-adv-x="565" unicode="ù" /><glyph d="M149 206Q149 143 181.5 106Q214 69 278 69Q341 69 376 107Q411 145 411 205V454Q411 462 416.5 467Q422 472 429 472H488Q496 472 501.5 466.5Q507 461 507 453V18Q507 10 501.5 5Q496 0 488 0H429Q422 0 416.5 4.5Q411 9 411 17V70Q389 33 350 10Q311 -13 251 -13Q205 -13 168 1.5Q131 16 105.5 42.5Q80 69 66.5 106.5Q53 144 53 189V454Q53 462 58.5 467Q64 472 72 472H131Q139 472 144 467Q149 462 149 454ZM279 525Q212 525 175 559.5Q138 594 138 652V668Q138 680 150 680H208Q219 680 219 669V659Q219 630 236 616Q253 602 279 602Q305 602 322.5 616Q340 630 340 659V669Q340 680 352 680H408Q421 680 421 668V652Q421 594 384 559.5Q347 525 279 525Z" glyph-name="ubreve" horiz-adv-x="565" unicode="ŭ" /><glyph d="M149 206Q149 143 181.5 106Q214 69 278 69Q341 69 376 107Q411 145 411 205V454Q411 462 416.5 467Q422 472 429 472H488Q496 472 501.5 466.5Q507 461 507 453V18Q507 10 501.5 5Q496 0 488 0H429Q422 0 416.5 4.5Q411 9 411 17V70Q389 33 350 10Q311 -13 251 -13Q205 -13 168 1.5Q131 16 105.5 42.5Q80 69 66.5 106.5Q53 144 53 189V454Q53 462 58.5 467Q64 472 72 472H131Q139 472 144 467Q149 462 149 454ZM484 710Q495 710 499 702Q503 694 498 686L417 545Q412 537 407.5 533.5Q403 530 395 530H354Q344 530 339 535.5Q334 541 337 552L384 693Q389 710 408 710ZM304 710Q315 710 319.5 702Q324 694 319 686L238 545Q233 537 228.5 533.5Q224 530 216 530H175Q152 530 158 552L205 693Q210 710 228 710Z" glyph-name="uhungarumlaut" horiz-adv-x="565" unicode="ű" /><glyph d="M149 206Q149 143 181.5 106Q214 69 278 69Q341 69 376 107Q411 145 411 205V454Q411 462 416.5 467Q422 472 429 472H488Q496 472 501.5 466.5Q507 461 507 453V18Q507 10 501.5 5Q496 0 488 0H429Q422 0 416.5 4.5Q411 9 411 17V70Q389 33 350 10Q311 -13 251 -13Q205 -13 168 1.5Q131 16 105.5 42.5Q80 69 66.5 106.5Q53 144 53 189V454Q53 462 58.5 467Q64 472 72 472H131Q139 472 144 467Q149 462 149 454ZM149 550Q141 550 135.5 555.5Q130 561 130 569V612Q130 620 135.5 625Q141 630 149 630H409Q417 630 422.5 625Q428 620 428 612V569Q428 561 422.5 555.5Q417 550 409 550Z" glyph-name="umacron" horiz-adv-x="565" unicode="ū" /><glyph d="M149 206Q149 143 181.5 106Q214 69 278 69Q341 69 376 107Q411 145 411 205V454Q411 462 416.5 467Q422 472 429 472H488Q496 472 501.5 466.5Q507 461 507 453V18Q507 10 501.5 5Q496 0 488 0H429Q422 0 416.5 4.5Q411 9 411 17V70Q389 33 350 10Q311 -13 251 -13Q205 -13 168 1.5Q131 16 105.5 42.5Q80 69 66.5 106.5Q53 144 53 189V454Q53 462 58.5 467Q64 472 72 472H131Q139 472 144 467Q149 462 149 454ZM342 -132Q342 -105 355 -81Q368 -57 387 -37Q406 -17 425.5 -3Q445 11 459 19L487 16L492 5Q466 -27 448.5 -58.5Q431 -90 431 -110Q431 -127 441 -137.5Q451 -148 474 -148Q482 -148 489.5 -147Q497 -146 505 -145Q511 -143 515.5 -147.5Q520 -152 518 -163L515 -188Q515 -196 508 -201Q501 -206 491 -209Q481 -212 468.5 -213.5Q456 -215 444 -215Q397 -215 369.5 -193Q342 -171 342 -132Z" glyph-name="uogonek" horiz-adv-x="565" unicode="ų" /><glyph d="M149 206Q149 143 181.5 106Q214 69 278 69Q341 69 376 107Q411 145 411 205V454Q411 462 416.5 467Q422 472 429 472H488Q496 472 501.5 466.5Q507 461 507 453V18Q507 10 501.5 5Q496 0 488 0H429Q422 0 416.5 4.5Q411 9 411 17V70Q389 33 350 10Q311 -13 251 -13Q205 -13 168 1.5Q131 16 105.5 42.5Q80 69 66.5 106.5Q53 144 53 189V454Q53 462 58.5 467Q64 472 72 472H131Q139 472 144 467Q149 462 149 454ZM279 518Q252 518 229 527Q206 536 188.5 552.5Q171 569 161 591.5Q151 614 151 641Q151 668 161 690.5Q171 713 188.5 729.5Q206 746 229 755.5Q252 765 279 765Q306 765 329 755.5Q352 746 369.5 729.5Q387 713 397 690.5Q407 668 407 641Q407 614 397 591.5Q387 569 369.5 552.5Q352 536 329 527Q306 518 279 518ZM279 579Q306 579 322.5 597Q339 615 339 641Q339 667 322.5 685.5Q306 704 279 704Q252 704 235.5 685.5Q219 667 219 641Q219 615 235.5 597Q252 579 279 579Z" glyph-name="uring" horiz-adv-x="565" unicode="ů" /><glyph d="M149 206Q149 143 181.5 106Q214 69 278 69Q341 69 376 107Q411 145 411 205V454Q411 462 416.5 467Q422 472 429 472H488Q496 472 501.5 466.5Q507 461 507 453V18Q507 10 501.5 5Q496 0 488 0H429Q422 0 416.5 4.5Q411 9 411 17V70Q389 33 350 10Q311 -13 251 -13Q205 -13 168 1.5Q131 16 105.5 42.5Q80 69 66.5 106.5Q53 144 53 189V454Q53 462 58.5 467Q64 472 72 472H131Q139 472 144 467Q149 462 149 454ZM353 544Q337 544 316.5 549Q296 554 276.5 560.5Q257 567 240 572Q223 577 213 577Q193 577 183 566.5Q173 556 162 549Q152 542 141 552L122 575Q114 583 114 593Q114 603 120.5 616Q127 629 139 639.5Q151 650 168 657.5Q185 665 205 665Q221 665 241 659.5Q261 654 280.5 648Q300 642 317 636.5Q334 631 345 631Q365 631 375 641.5Q385 652 396 660Q407 665 418 655L436 634Q444 624 444 615Q444 604 437.5 592Q431 580 419 569Q407 558 390 551Q373 544 353 544Z" glyph-name="utilde" horiz-adv-x="565" unicode="ũ" /><glyph d="M281 18Q279 10 272 5Q265 0 257 0H182Q174 0 167 5Q160 10 158 18L12 449Q8 460 13 466Q18 472 28 472H94Q111 472 116 455L223 98L347 454Q353 472 368 472H439Q455 472 461 454L585 98L694 455Q696 462 701 467Q706 472 716 472H776Q785 472 790 466Q795 460 791 449L645 18Q643 10 636 5Q629 0 620 0H547Q538 0 531.5 5Q525 10 523 18L402 365L281 18ZM521 710Q532 710 536 702Q540 694 535 686L454 545Q445 530 432 530H391Q368 530 374 552L421 693Q426 710 445 710H521Z" glyph-name="wacute" horiz-adv-x="803" unicode="ẃ" /><glyph d="M281 18Q279 10 272 5Q265 0 257 0H182Q174 0 167 5Q160 10 158 18L12 449Q8 460 13 466Q18 472 28 472H94Q111 472 116 455L223 98L347 454Q353 472 368 472H439Q455 472 461 454L585 98L694 455Q696 462 701 467Q706 472 716 472H776Q785 472 790 466Q795 460 791 449L645 18Q643 10 636 5Q629 0 620 0H547Q538 0 531.5 5Q525 10 523 18L402 365L281 18ZM440 710Q457 710 467 692L558 553Q564 543 559 536.5Q554 530 547 530H495Q485 530 480 533Q475 536 470 543L405 632L340 543Q334 536 329 533Q324 530 315 530H264Q256 530 251.5 536.5Q247 543 252 553L343 692Q353 710 371 710Z" glyph-name="wcircumflex" horiz-adv-x="803" unicode="ŵ" /><glyph d="M281 18Q279 10 272 5Q265 0 257 0H182Q174 0 167 5Q160 10 158 18L12 449Q8 460 13 466Q18 472 28 472H94Q111 472 116 455L223 98L347 454Q353 472 368 472H439Q455 472 461 454L585 98L694 455Q696 462 701 467Q706 472 716 472H776Q785 472 790 466Q795 460 791 449L645 18Q643 10 636 5Q629 0 620 0H547Q538 0 531.5 5Q525 10 523 18L402 365L281 18ZM321 555Q296 555 278.5 573Q261 591 261 615Q261 640 278.5 658Q296 676 321 676Q346 676 363.5 658Q381 640 381 615Q381 591 363.5 573Q346 555 321 555ZM489 555Q464 555 446.5 573Q429 591 429 615Q429 640 446.5 658Q464 676 489 676Q514 676 531.5 658Q549 640 549 615Q549 591 531.5 573Q514 555 489 555Z" glyph-name="wdieresis" horiz-adv-x="803" unicode="ẅ" /><glyph d="M281 18Q279 10 272 5Q265 0 257 0H182Q174 0 167 5Q160 10 158 18L12 449Q8 460 13 466Q18 472 28 472H94Q111 472 116 455L223 98L347 454Q353 472 368 472H439Q455 472 461 454L585 98L694 455Q696 462 701 467Q706 472 716 472H776Q785 472 790 466Q795 460 791 449L645 18Q643 10 636 5Q629 0 620 0H547Q538 0 531.5 5Q525 10 523 18L402 365L281 18ZM368 710Q387 710 392 693L440 552Q444 541 438.5 535.5Q433 530 422 530H381Q373 530 368.5 533.5Q364 537 359 545L278 686Q273 694 277 702Q281 710 292 710Z" glyph-name="wgrave" horiz-adv-x="803" unicode="ẁ" /><glyph d="M123 -225Q85 -225 54 -212.5Q23 -200 1 -178Q-4 -173 -5 -164.5Q-6 -156 1 -148L24 -119Q32 -109 41 -110Q50 -111 58 -117Q72 -128 87 -134.5Q102 -141 121 -141Q149 -141 167.5 -124Q186 -107 195 -84L228 0H203Q187 0 181 16L14 448Q10 457 14.5 464.5Q19 472 31 472H100Q108 472 113 466.5Q118 461 120 454L258 79L397 454Q399 461 404 466.5Q409 472 419 472H483Q494 472 498 465Q502 458 498 448L286 -101Q266 -154 226.5 -189.5Q187 -225 123 -225ZM373 710Q384 710 388 702Q392 694 387 686L306 545Q297 530 284 530H243Q220 530 226 552L273 693Q278 710 297 710H373Z" glyph-name="yacute" horiz-adv-x="508" unicode="ý" /><glyph d="M123 -225Q85 -225 54 -212.5Q23 -200 1 -178Q-4 -173 -5 -164.5Q-6 -156 1 -148L24 -119Q32 -109 41 -110Q50 -111 58 -117Q72 -128 87 -134.5Q102 -141 121 -141Q149 -141 167.5 -124Q186 -107 195 -84L228 0H203Q187 0 181 16L14 448Q10 457 14.5 464.5Q19 472 31 472H100Q108 472 113 466.5Q118 461 120 454L258 79L397 454Q399 461 404 466.5Q409 472 419 472H483Q494 472 498 465Q502 458 498 448L286 -101Q266 -154 226.5 -189.5Q187 -225 123 -225ZM173 555Q148 555 130.5 573Q113 591 113 615Q113 640 130.5 658Q148 676 173 676Q198 676 215.5 658Q233 640 233 615Q233 591 215.5 573Q198 555 173 555ZM341 555Q316 555 298.5 573Q281 591 281 615Q281 640 298.5 658Q316 676 341 676Q366 676 383.5 658Q401 640 401 615Q401 591 383.5 573Q366 555 341 555Z" glyph-name="ydieresis" horiz-adv-x="508" unicode="ÿ" /><glyph d="M123 -225Q85 -225 54 -212.5Q23 -200 1 -178Q-4 -173 -5 -164.5Q-6 -156 1 -148L24 -119Q32 -109 41 -110Q50 -111 58 -117Q72 -128 87 -134.5Q102 -141 121 -141Q149 -141 167.5 -124Q186 -107 195 -84L228 0H203Q187 0 181 16L14 448Q10 457 14.5 464.5Q19 472 31 472H100Q108 472 113 466.5Q118 461 120 454L258 79L397 454Q399 461 404 466.5Q409 472 419 472H483Q494 472 498 465Q502 458 498 448L286 -101Q266 -154 226.5 -189.5Q187 -225 123 -225ZM292 710Q309 710 319 692L410 553Q416 543 411 536.5Q406 530 399 530H347Q337 530 332 533Q327 536 322 543L257 632L192 543Q186 536 181 533Q176 530 167 530H116Q108 530 103.5 536.5Q99 543 104 553L195 692Q205 710 223 710Z" glyph-name="ycircumflex" horiz-adv-x="508" unicode="ŷ" /><glyph d="M123 -225Q85 -225 54 -212.5Q23 -200 1 -178Q-4 -173 -5 -164.5Q-6 -156 1 -148L24 -119Q32 -109 41 -110Q50 -111 58 -117Q72 -128 87 -134.5Q102 -141 121 -141Q149 -141 167.5 -124Q186 -107 195 -84L228 0H203Q187 0 181 16L14 448Q10 457 14.5 464.5Q19 472 31 472H100Q108 472 113 466.5Q118 461 120 454L258 79L397 454Q399 461 404 466.5Q409 472 419 472H483Q494 472 498 465Q502 458 498 448L286 -101Q266 -154 226.5 -189.5Q187 -225 123 -225ZM220 710Q239 710 244 693L292 552Q296 541 290.5 535.5Q285 530 274 530H233Q225 530 220.5 533.5Q216 537 211 545L130 686Q125 694 129 702Q133 710 144 710Z" glyph-name="ygrave" horiz-adv-x="508" unicode="ỳ" /><glyph d="M151 83 414 83Q421 83 426 77.5Q431 72 431 64V18Q431 10 426 5Q421 0 414 0H42Q34 0 29 5.5Q24 11 24 19V59Q24 67 26 72Q28 77 33 82L294 389H56Q48 389 42.5 394.5Q37 400 37 408V453Q37 461 42.5 466.5Q48 472 56 472H402Q409 472 414.5 466.5Q420 461 420 453V414Q420 400 411 390ZM193 530Q175 530 165 547L74 687Q69 697 73.5 703.5Q78 710 86 710H137Q146 710 151 707Q156 704 162 696L227 608L292 696Q297 704 302 707Q307 710 317 710H369Q376 710 381 703.5Q386 697 380 687L289 547Q279 530 262 530H193Z" glyph-name="zcaron" horiz-adv-x="456" unicode="ž" /><glyph d="M151 83 414 83Q421 83 426 77.5Q431 72 431 64V18Q431 10 426 5Q421 0 414 0H42Q34 0 29 5.5Q24 11 24 19V59Q24 67 26 72Q28 77 33 82L294 389H56Q48 389 42.5 394.5Q37 400 37 408V453Q37 461 42.5 466.5Q48 472 56 472H402Q409 472 414.5 466.5Q420 461 420 453V414Q420 400 411 390ZM343 710Q354 710 358 702Q362 694 357 686L276 545Q267 530 254 530H213Q190 530 196 552L243 693Q248 710 267 710H343Z" glyph-name="zacute" horiz-adv-x="456" unicode="ź" /><glyph d="M151 83 414 83Q421 83 426 77.5Q431 72 431 64V18Q431 10 426 5Q421 0 414 0H42Q34 0 29 5.5Q24 11 24 19V59Q24 67 26 72Q28 77 33 82L294 389H56Q48 389 42.5 394.5Q37 400 37 408V453Q37 461 42.5 466.5Q48 472 56 472H402Q409 472 414.5 466.5Q420 461 420 453V414Q420 400 411 390ZM233 555Q208 555 190.5 573Q173 591 173 615Q173 640 190.5 658Q208 676 233 676Q258 676 275.5 658Q293 640 293 615Q293 591 275.5 573Q258 555 233 555Z" glyph-name="zdotaccent" horiz-adv-x="456" unicode="ż" /><glyph d="M343 710Q354 710 358 702Q362 694 357 686L276 545Q267 530 254 530H213Q190 530 196 552L243 693Q248 710 267 710H343Z" glyph-name="acute" horiz-adv-x="231" unicode="´" /><glyph d="M220 710Q239 710 244 693L292 552Q296 541 290.5 535.5Q285 530 274 530H233Q225 530 220.5 533.5Q216 537 211 545L130 686Q125 694 129 702Q133 710 144 710Z" glyph-name="grave" horiz-adv-x="231" unicode="`" /><glyph d="M292 710Q309 710 319 692L410 553Q416 543 411 536.5Q406 530 399 530H347Q337 530 332 533Q327 536 322 543L257 632L192 543Q186 536 181 533Q176 530 167 530H116Q108 530 103.5 536.5Q99 543 104 553L195 692Q205 710 223 710Z" glyph-name="circumflex" horiz-adv-x="367" unicode="ˆ" /><glyph d="M193 530Q175 530 165 547L74 687Q69 697 73.5 703.5Q78 710 86 710H137Q146 710 151 707Q156 704 162 696L227 608L292 696Q297 704 302 707Q307 710 317 710H369Q376 710 381 703.5Q386 697 380 687L289 547Q279 530 262 530H193Z" glyph-name="caron" horiz-adv-x="367" unicode="ˇ" /><glyph d="M353 544Q337 544 316.5 549Q296 554 276.5 560.5Q257 567 240 572Q223 577 213 577Q193 577 183 566.5Q173 556 162 549Q152 542 141 552L122 575Q114 583 114 593Q114 603 120.5 616Q127 629 139 639.5Q151 650 168 657.5Q185 665 205 665Q221 665 241 659.5Q261 654 280.5 648Q300 642 317 636.5Q334 631 345 631Q365 631 375 641.5Q385 652 396 660Q407 665 418 655L436 634Q444 624 444 615Q444 604 437.5 592Q431 580 419 569Q407 558 390 551Q373 544 353 544Z" glyph-name="tilde" horiz-adv-x="370" unicode="˜" /><glyph d="M173 555Q148 555 130.5 573Q113 591 113 615Q113 640 130.5 658Q148 676 173 676Q198 676 215.5 658Q233 640 233 615Q233 591 215.5 573Q198 555 173 555ZM341 555Q316 555 298.5 573Q281 591 281 615Q281 640 298.5 658Q316 676 341 676Q366 676 383.5 658Q401 640 401 615Q401 591 383.5 573Q366 555 341 555Z" glyph-name="dieresis" horiz-adv-x="365" unicode="¨" /><glyph d="M279 518Q252 518 229 527Q206 536 188.5 552.5Q171 569 161 591.5Q151 614 151 641Q151 668 161 690.5Q171 713 188.5 729.5Q206 746 229 755.5Q252 765 279 765Q306 765 329 755.5Q352 746 369.5 729.5Q387 713 397 690.5Q407 668 407 641Q407 614 397 591.5Q387 569 369.5 552.5Q352 536 329 527Q306 518 279 518ZM279 579Q306 579 322.5 597Q339 615 339 641Q339 667 322.5 685.5Q306 704 279 704Q252 704 235.5 685.5Q219 667 219 641Q219 615 235.5 597Q252 579 279 579Z" glyph-name="ring" horiz-adv-x="314" unicode="˚" /><glyph d="M283 3 217 -167Q212 -181 195 -181H138Q130 -181 125 -175Q120 -169 124 -158L190 12Z" glyph-name="cedilla" horiz-adv-x="217" unicode="¸" /><glyph d="M484 710Q495 710 499 702Q503 694 498 686L417 545Q412 537 407.5 533.5Q403 530 395 530H354Q344 530 339 535.5Q334 541 337 552L384 693Q389 710 408 710ZM304 710Q315 710 319.5 702Q324 694 319 686L238 545Q233 537 228.5 533.5Q224 530 216 530H175Q152 530 158 552L205 693Q210 710 228 710Z" glyph-name="hungarumlaut" horiz-adv-x="403" unicode="˝" /><glyph d="M279 525Q212 525 175 559.5Q138 594 138 652V668Q138 680 150 680H208Q219 680 219 669V659Q219 630 236 616Q253 602 279 602Q305 602 322.5 616Q340 630 340 659V669Q340 680 352 680H408Q421 680 421 668V652Q421 594 384 559.5Q347 525 279 525Z" glyph-name="breve" horiz-adv-x="339" unicode="˘" /><glyph d="M149 550Q141 550 135.5 555.5Q130 561 130 569V612Q130 620 135.5 625Q141 630 149 630H409Q417 630 422.5 625Q428 620 428 612V569Q428 561 422.5 555.5Q417 550 409 550Z" glyph-name="macron" horiz-adv-x="522" unicode="¯" /><glyph d="M233 555Q208 555 190.5 573Q173 591 173 615Q173 640 190.5 658Q208 676 233 676Q258 676 275.5 658Q293 640 293 615Q293 591 275.5 573Q258 555 233 555Z" glyph-name="dotaccent" horiz-adv-x="199" unicode="˙" /><glyph d="M281 235Q252 235 233 254.5Q214 274 214 302Q214 331 233 351Q252 371 281 371Q310 371 330 351Q350 331 350 302Q350 274 330 254.5Q310 235 281 235Z" glyph-name="periodcentered" horiz-adv-x="249" unicode="·" /><glyph d="M342 -132Q342 -105 355 -81Q368 -57 387 -37Q406 -17 425.5 -3Q445 11 459 19L487 16L492 5Q466 -27 448.5 -58.5Q431 -90 431 -110Q431 -127 441 -137.5Q451 -148 474 -148Q482 -148 489.5 -147Q497 -146 505 -145Q511 -143 515.5 -147.5Q520 -152 518 -163L515 -188Q515 -196 508 -201Q501 -206 491 -209Q481 -212 468.5 -213.5Q456 -215 444 -215Q397 -215 369.5 -193Q342 -171 342 -132Z" glyph-name="ogonek" horiz-adv-x="281" unicode="˛" /><glyph d="M140 -53Q142 -45 146.5 -40Q151 -35 159 -35H222Q232 -35 236.5 -42.5Q241 -50 238 -57L191 -178Q185 -194 168 -194H128Q120 -194 115.5 -188.5Q111 -183 113 -175Z" glyph-name="commaaccent" horiz-adv-x="221" unicode="" /><glyph d="M226 546Q215 546 211 554Q207 562 212 570L293 711Q302 726 315 726H356Q379 726 373 704L326 563Q321 546 302 546H226Z" glyph-name="revcommaaccent" horiz-adv-x="227" unicode="" /><glyph d="M108 -5Q79 -5 60 14.5Q41 34 41 62Q41 91 60 111Q79 131 108 131Q137 131 157 111Q177 91 177 62Q177 34 157 14.5Q137 -5 108 -5Z" glyph-name="period" horiz-adv-x="217" unicode="." /><glyph d="M78 97Q80 105 84.5 110Q89 115 97 115H160Q170 115 174.5 108Q179 101 176 93L109 -78Q103 -94 86 -94H46Q38 -94 33.5 -88.5Q29 -83 31 -75Z" glyph-name="comma" horiz-adv-x="227" unicode="," /><glyph d="M116 337Q88 337 68.5 356.5Q49 376 49 405Q49 433 68.5 452.5Q88 472 116 472Q145 472 165 452.5Q185 433 185 405Q185 376 165 356.5Q145 337 116 337ZM116 -5Q88 -5 68.5 15Q49 35 49 63Q49 91 68.5 111Q88 131 116 131Q145 131 165 111Q185 91 185 63Q185 35 165 15Q145 -5 116 -5Z" glyph-name="colon" horiz-adv-x="233" unicode=":" /><glyph d="M122 337Q94 337 74 356Q54 375 54 404Q54 433 74 452.5Q94 472 122 472Q151 472 171 452.5Q191 433 191 404Q191 375 171 356Q151 337 122 337ZM78 97Q80 105 84.5 110Q89 115 97 115H160Q170 115 174.5 108Q179 101 176 93L109 -78Q103 -94 86 -94H46Q38 -94 33.5 -88.5Q29 -83 31 -75Z" glyph-name="semicolon" horiz-adv-x="243" unicode=";" /><glyph d="M598 -5Q569 -5 549 14.5Q529 34 529 62Q529 91 549 111Q569 131 598 131Q626 131 646 111Q666 91 666 62Q666 34 646 14.5Q626 -5 598 -5ZM354 -5Q325 -5 304.5 14.5Q284 34 284 62Q284 91 304.5 111Q325 131 354 131Q382 131 401.5 111Q421 91 421 62Q421 34 401.5 14.5Q382 -5 354 -5ZM108 -5Q79 -5 60 14.5Q41 34 41 62Q41 91 60 111Q79 131 108 131Q137 131 157 111Q177 91 177 62Q177 34 157 14.5Q137 -5 108 -5Z" glyph-name="ellipsis" horiz-adv-x="706" unicode="…" /><glyph d="M240 713Q288 713 325.5 698.5Q363 684 389.5 660Q416 636 430 604Q444 572 444 536Q444 482 419.5 442.5Q395 403 365.5 369.5Q336 336 311.5 305.5Q287 275 287 239V229Q287 221 282 216.5Q277 212 270 212H210Q202 212 197.5 217Q193 222 193 230V249Q193 294 216 328.5Q239 363 267 394.5Q295 426 318 457.5Q341 489 341 528Q341 571 311 598Q281 625 234 625Q155 625 110 545Q98 525 77 538L41 559Q34 563 30 572Q26 581 35 597Q47 621 67 642Q87 663 113 678.5Q139 694 171 703.5Q203 713 240 713ZM242 -5Q213 -5 193 14.5Q173 34 173 62Q173 91 193 111Q213 131 242 131Q270 131 289.5 111Q309 91 309 62Q309 34 289.5 14.5Q270 -5 242 -5Z" glyph-name="question" horiz-adv-x="486" unicode="?" /><glyph d="M180 250Q180 242 174.5 237Q169 232 161 232H103Q95 232 89.5 237Q84 242 84 250L79 681Q79 689 84.5 694.5Q90 700 98 700H165Q173 700 178.5 694.5Q184 689 184 681ZM131 -5Q102 -5 82.5 14.5Q63 34 63 62Q63 91 82.5 111Q102 131 131 131Q160 131 179.5 111Q199 91 199 62Q199 34 179.5 14.5Q160 -5 131 -5Z" glyph-name="exclam" horiz-adv-x="263" unicode="!" /><glyph d="M246 -14Q198 -14 160 0.5Q122 15 96 39.5Q70 64 56 96Q42 128 42 164Q42 200 53.5 229Q65 258 82.5 283Q100 308 120 330Q140 352 157.5 373Q175 394 186.5 415.5Q198 437 198 461V470Q198 478 203.5 482.5Q209 487 215 487H276Q283 487 288 482Q293 477 293 469V451Q293 421 282 395.5Q271 370 254.5 347.5Q238 325 218.5 304.5Q199 284 182.5 263Q166 242 155 219.5Q144 197 144 171Q144 129 174.5 102Q205 75 251 75Q330 75 375 155Q380 164 390.5 165Q401 166 410 161L444 140Q451 136 455 127Q459 118 451 102Q439 78 419 57Q399 36 373 20.5Q347 5 315 -4.5Q283 -14 246 -14ZM244 706Q273 706 292.5 686Q312 666 312 638Q312 609 292.5 589.5Q273 570 244 570Q216 570 196 589.5Q176 609 176 638Q176 666 196 686Q216 706 244 706Z" glyph-name="questiondown.alt" horiz-adv-x="485" unicode="" /><glyph d="M190 19Q190 11 184 5.5Q178 0 170 0H104Q96 0 90.5 5.5Q85 11 85 19L90 450Q90 458 95 463.5Q100 469 108 469H167Q175 469 180.5 463.5Q186 458 186 450ZM137 714Q169 714 191 691.5Q213 669 213 638Q213 606 191 584Q169 562 137 562Q105 562 83 584Q61 606 61 638Q61 669 83 691.5Q105 714 137 714Z" glyph-name="exclamdown.alt" horiz-adv-x="275" unicode="" /><glyph d="M246 -14Q198 -14 160 0.5Q122 15 96 39.5Q70 64 56 96Q42 128 42 164Q42 200 53.5 229Q65 258 82.5 283Q100 308 120 330Q140 352 157.5 373Q175 394 186.5 415.5Q198 437 198 461V470Q198 478 203.5 482.5Q209 487 215 487H276Q283 487 288 482Q293 477 293 469V451Q293 421 282 395.5Q271 370 254.5 347.5Q238 325 218.5 304.5Q199 284 182.5 263Q166 242 155 219.5Q144 197 144 171Q144 129 174.5 102Q205 75 251 75Q330 75 375 155Q380 164 390.5 165Q401 166 410 161L444 140Q451 136 455 127Q459 118 451 102Q439 78 419 57Q399 36 373 20.5Q347 5 315 -4.5Q283 -14 246 -14ZM244 706Q273 706 292.5 686Q312 666 312 638Q312 609 292.5 589.5Q273 570 244 570Q216 570 196 589.5Q176 609 176 638Q176 666 196 686Q216 706 244 706Z" glyph-name="questiondown" horiz-adv-x="475" unicode="¿" /><glyph d="M190 19Q190 11 184 5.5Q178 0 170 0H104Q96 0 90.5 5.5Q85 11 85 19L90 450Q90 458 95 463.5Q100 469 108 469H167Q175 469 180.5 463.5Q186 458 186 450ZM137 714Q169 714 191 691.5Q213 669 213 638Q213 606 191 584Q169 562 137 562Q105 562 83 584Q61 606 61 638Q61 669 83 691.5Q105 714 137 714Z" glyph-name="exclamdown" horiz-adv-x="247" unicode="¡" /><glyph d="M138 315Q138 206 173 104Q208 2 263 -85Q267 -91 270 -96.5Q273 -102 273 -108Q273 -112 269.5 -116Q266 -120 258 -120H222Q212 -120 204 -115.5Q196 -111 190 -104Q159 -66 131 -19Q103 28 81.5 81.5Q60 135 47 194Q34 253 34 315Q34 377 47 436Q60 495 81.5 548.5Q103 602 131 649Q159 696 190 734Q196 741 204 745.5Q212 750 222 750H258Q266 750 269.5 746Q273 742 273 738Q273 732 270 726.5Q267 721 263 715Q208 628 173 526Q138 424 138 315Z" glyph-name="parenleft" horiz-adv-x="288" unicode="(" /><glyph d="M150 315Q150 424 115 526Q80 628 25 715Q22 721 19 726.5Q16 732 16 738Q16 742 19.5 746Q23 750 30 750H66Q77 750 85 745.5Q93 741 98 734Q129 696 157 649Q185 602 206.5 548.5Q228 495 241 436Q254 377 254 315Q254 253 241 194Q228 135 206.5 81.5Q185 28 157 -19Q129 -66 98 -104Q93 -111 85 -115.5Q77 -120 66 -120H30Q23 -120 19.5 -116Q16 -112 16 -108Q16 -102 19 -96.5Q22 -91 25 -85Q80 2 115 104Q150 206 150 315Z" glyph-name="parenright" horiz-adv-x="288" unicode=")" /><glyph d="M195 18Q195 -8 205 -18Q215 -28 236 -28H296Q304 -28 309 -33.5Q314 -39 314 -47V-85Q314 -93 309 -98Q304 -103 296 -103H204Q157 -103 126.5 -77.5Q96 -52 96 8V267Q96 285 88 292Q80 299 65 299H41Q34 299 27.5 304.5Q21 310 21 321V353Q21 364 27.5 369Q34 374 41 374H65Q80 374 88 381.5Q96 389 96 407V638Q96 698 126.5 724Q157 750 204 750H296Q304 750 309 744.5Q314 739 314 731V693Q314 685 309 679.5Q304 674 296 674H236Q215 674 205 664Q195 654 195 628V423Q195 399 187.5 383Q180 367 170 357Q160 347 149.5 342Q139 337 133 336Q139 335 149.5 330.5Q160 326 170 316.5Q180 307 187.5 291Q195 275 195 251V18Z" glyph-name="braceleft" horiz-adv-x="330" unicode="{" /><glyph d="M135 251Q135 275 142.5 291Q150 307 160 316.5Q170 326 180.5 330.5Q191 335 197 336Q191 337 180.5 342Q170 347 160 357Q150 367 142.5 383Q135 399 135 423V628Q135 654 125 664Q115 674 94 674H34Q26 674 20.5 679.5Q15 685 15 693V731Q15 739 20.5 744.5Q26 750 34 750H126Q173 750 203.5 724Q234 698 234 638V407Q234 389 242 381.5Q250 374 265 374H289Q295 374 302 369Q309 364 309 353V321Q309 310 302 304.5Q295 299 289 299H265Q250 299 242 292Q234 285 234 267V8Q234 -52 203.5 -77.5Q173 -103 126 -103H34Q26 -103 20.5 -98Q15 -93 15 -85V-47Q15 -39 20.5 -33.5Q26 -28 34 -28H94Q115 -28 125 -18Q135 -8 135 18Z" glyph-name="braceright" horiz-adv-x="330" unicode="}" /><glyph d="M308 693Q308 685 303 679.5Q298 674 290 674H170V-28H290Q298 -28 303 -33.5Q308 -39 308 -47V-85Q308 -93 303 -98Q298 -103 290 -103H96Q88 -103 82.5 -98.5Q77 -94 77 -86V732Q77 740 82.5 745Q88 750 96 750H290Q298 750 303 744.5Q308 739 308 731Z" glyph-name="bracketleft" horiz-adv-x="322" unicode="[" /><glyph d="M14 731Q14 739 19 744.5Q24 750 32 750H226Q234 750 239.5 745Q245 740 245 732V-86Q245 -94 239.5 -98.5Q234 -103 226 -103H32Q24 -103 19 -98Q14 -93 14 -85V-47Q14 -39 19 -33.5Q24 -28 32 -28H152V674H32Q24 674 19 679.5Q14 685 14 693V731Z" glyph-name="bracketright" horiz-adv-x="322" unicode="]" /><glyph d="M324 684Q327 692 331.5 696Q336 700 346 700H405Q416 700 418.5 692.5Q421 685 418 677L116 -105Q113 -113 108.5 -117Q104 -121 94 -121H35Q24 -121 21.5 -113.5Q19 -106 22 -98Z" glyph-name="slash" horiz-adv-x="439" unicode="/" /><glyph d="M116 684 418 -98Q421 -106 418.5 -113.5Q416 -121 405 -121H346Q336 -121 331.5 -117Q327 -113 324 -105L22 677Q19 685 21.5 692.5Q24 700 35 700H94Q104 700 108.5 696Q113 692 116 684Z" glyph-name="backslash" horiz-adv-x="439" unicode="\" /><glyph d="M24 -161Q16 -161 10.5 -155.5Q5 -150 5 -142V-90Q5 -82 10.5 -76.5Q16 -71 24 -71H273Q281 -71 287 -76.5Q293 -82 293 -90V-142Q293 -150 287 -155.5Q281 -161 273 -161Z" glyph-name="underscore" horiz-adv-x="298" unicode="_" /><glyph d="M74 227Q66 227 60.5 233Q55 239 55 247V308Q55 316 60.5 321.5Q66 327 74 327H285Q293 327 299 321.5Q305 316 305 308V247Q305 239 299 233Q293 227 285 227Z" glyph-name="hyphen" horiz-adv-x="360" unicode="-" /><glyph d="M74 227Q66 227 60.5 233Q55 239 55 247V308Q55 316 60.5 321.5Q66 327 74 327H532Q540 327 546 321.5Q552 316 552 308V247Q552 239 546 233Q540 227 532 227Z" glyph-name="endash" horiz-adv-x="607" unicode="–" /><glyph d="M74 227Q66 227 60.5 233Q55 239 55 247V308Q55 316 60.5 321.5Q66 327 74 327H931Q939 327 944.5 321.5Q950 316 950 308V247Q950 239 944.5 233Q939 227 931 227Z" glyph-name="emdash" horiz-adv-x="1005" unicode="—" /><glyph d="M147 439Q147 431 142 425.5Q137 420 129 420H99Q91 420 85.5 425.5Q80 431 80 439V807Q80 815 85.5 820Q91 825 99 825H129Q137 825 142 820Q147 815 147 807ZM147 -106Q147 -114 142 -119.5Q137 -125 129 -125H99Q91 -125 85.5 -119.5Q80 -114 80 -106V262Q80 270 85.5 275Q91 280 99 280H129Q137 280 142 275Q147 270 147 262Z" glyph-name="brokenbar" horiz-adv-x="227" unicode="¦" /><glyph d="M96 -125Q88 -125 82.5 -119.5Q77 -114 77 -106V807Q77 815 82.5 820Q88 825 96 825H124Q132 825 137.5 820Q143 815 143 807V-106Q143 -114 137.5 -119.5Q132 -125 124 -125Z" glyph-name="bar" horiz-adv-x="220" unicode="|" /><glyph d="M218 22Q221 14 216.5 7Q212 0 203 0H147Q127 0 120 19L43 221Q41 228 40.5 236.5Q40 245 43 253L120 453Q127 472 147 472H203Q212 472 216.5 465Q221 458 218 450L140 236ZM398 22Q401 14 396.5 7Q392 0 383 0H327Q307 0 300 19L223 221Q221 228 220.5 236.5Q220 245 223 253L300 453Q307 472 327 472H383Q392 472 396.5 465Q401 458 398 450L320 236Z" glyph-name="guillemotleft" horiz-adv-x="444" unicode="«" /><glyph d="M226 450Q223 458 227.5 465Q232 472 241 472H297Q317 472 324 453L401 253Q404 245 403.5 236.5Q403 228 401 221L324 19Q317 0 297 0H241Q232 0 227.5 7Q223 14 226 22L304 236ZM46 450Q43 458 47.5 465Q52 472 61 472H117Q137 472 144 453L221 253Q224 245 223.5 236.5Q223 228 221 221L144 19Q137 0 117 0H61Q52 0 47.5 7Q43 14 46 22L124 236Z" glyph-name="guillemotright" horiz-adv-x="444" unicode="»" /><glyph d="M218 22Q221 14 216.5 7Q212 0 203 0H147Q127 0 120 19L43 221Q41 228 40.5 236.5Q40 245 43 253L120 453Q127 472 147 472H203Q212 472 216.5 465Q221 458 218 450L140 236Z" glyph-name="guilsinglleft" horiz-adv-x="264" unicode="‹" /><glyph d="M46 450Q43 458 47.5 465Q52 472 61 472H117Q137 472 144 453L221 253Q224 245 223.5 236.5Q223 228 221 221L144 19Q137 0 117 0H61Q52 0 47.5 7Q43 14 46 22L124 236Z" glyph-name="guilsinglright" horiz-adv-x="264" unicode="›" /><glyph d="M78 97Q80 105 84.5 110Q89 115 97 115H160Q170 115 174.5 108Q179 101 176 93L109 -78Q103 -94 86 -94H46Q38 -94 33.5 -88.5Q29 -83 31 -75Z" glyph-name="quotesinglbase" horiz-adv-x="227" unicode="‚" /><glyph d="M78 97Q80 105 84.5 110Q89 115 97 115H160Q170 115 174.5 108Q179 101 176 93L109 -78Q103 -94 86 -94H46Q38 -94 33.5 -88.5Q29 -83 31 -75ZM228 97Q230 105 234.5 110Q239 115 247 115H310Q320 115 324.5 108Q329 101 326 93L259 -78Q253 -94 236 -94H196Q188 -94 183.5 -88.5Q179 -83 181 -75Z" glyph-name="quotedblbase" horiz-adv-x="357" unicode="„" /><glyph d="M129 509Q127 501 122.5 496Q118 491 110 491H47Q37 491 32.5 498Q28 505 31 513L98 684Q104 700 121 700H161Q169 700 173.5 694.5Q178 689 176 681Z" glyph-name="quoteleft" horiz-adv-x="207" unicode="‘" /><glyph d="M279 509Q277 501 272.5 496Q268 491 260 491H197Q187 491 182.5 498Q178 505 181 513L248 684Q254 700 271 700H311Q319 700 323.5 694.5Q328 689 326 681ZM129 509Q127 501 122.5 496Q118 491 110 491H47Q37 491 32.5 498Q28 505 31 513L98 684Q104 700 121 700H161Q169 700 173.5 694.5Q178 689 176 681Z" glyph-name="quotedblleft" horiz-adv-x="357" unicode="“" /><glyph d="M78 682Q80 690 84.5 695Q89 700 97 700H160Q170 700 174.5 693Q179 686 176 678L109 507Q103 491 86 491H46Q38 491 33.5 496.5Q29 502 31 510Z" glyph-name="quoteright" horiz-adv-x="207" unicode="’" /><glyph d="M78 682Q80 690 84.5 695Q89 700 97 700H160Q170 700 174.5 693Q179 686 176 678L109 507Q103 491 86 491H46Q38 491 33.5 496.5Q29 502 31 510ZM228 682Q230 690 234.5 695Q239 700 247 700H310Q320 700 324.5 693Q329 686 326 678L259 507Q253 491 236 491H196Q188 491 183.5 496.5Q179 502 181 510Z" glyph-name="quotedblright" horiz-adv-x="357" unicode="”" /><glyph d="M78 682Q80 690 84.5 695Q89 700 97 700H160Q170 700 174.5 693Q179 686 176 678L109 507Q103 491 86 491H46Q38 491 33.5 496.5Q29 502 31 510Z" glyph-name="quotesingle" horiz-adv-x="177" unicode="'" /><glyph d="M78 682Q80 690 84.5 695Q89 700 97 700H160Q170 700 174.5 693Q179 686 176 678L109 507Q103 491 86 491H46Q38 491 33.5 496.5Q29 502 31 510ZM228 682Q230 690 234.5 695Q239 700 247 700H310Q320 700 324.5 693Q329 686 326 678L259 507Q253 491 236 491H196Q188 491 183.5 496.5Q179 502 181 510Z" glyph-name="quotedbl" horiz-adv-x="357" unicode="&quot;" /><glyph d="M302 747Q304 755 308.5 760Q313 765 321 765H384Q394 765 398.5 758Q403 751 400 743L333 572Q327 556 310 556H270Q262 556 257.5 561.5Q253 567 255 575Z" glyph-name="apostrophemod" horiz-adv-x="207" unicode="" /><glyph d="M78 682Q80 690 84.5 695Q89 700 97 700H160Q170 700 174.5 693Q179 686 176 678L109 507Q103 491 86 491H46Q38 491 33.5 496.5Q29 502 31 510Z" glyph-name="apostrophe" horiz-adv-x="207" unicode="ʼ" /><glyph d="M175 248Q153 248 133.5 256.5Q114 265 99.5 279.5Q85 294 76.5 313.5Q68 333 68 355Q68 377 76.5 396.5Q85 416 99.5 430.5Q114 445 133.5 453.5Q153 462 175 462Q197 462 216.5 453.5Q236 445 251 430.5Q266 416 274.5 396.5Q283 377 283 355Q283 333 274.5 313.5Q266 294 251 279.5Q236 265 216.5 256.5Q197 248 175 248Z" glyph-name="bullet" horiz-adv-x="351" unicode="•" /><glyph d="M206 546Q206 519 221 491.5Q236 464 268 432L291 448Q335 478 353 504Q371 530 371 559Q371 598 346.5 617.5Q322 637 291 637Q258 637 232 613Q206 589 206 546ZM273 70Q319 70 353.5 88Q388 106 419 138L242 328L225 316Q179 284 159.5 252Q140 220 140 185Q140 163 149 142.5Q158 122 175 106Q192 90 216.5 80Q241 70 273 70ZM478 79Q427 31 376 9Q325 -13 264 -13Q213 -13 172 2.5Q131 18 101.5 44.5Q72 71 56 106Q40 141 40 181Q40 237 68.5 283.5Q97 330 162 372L185 386Q147 424 129.5 464Q112 504 112 543Q112 579 125.5 610Q139 641 163 664.5Q187 688 220.5 701Q254 714 295 714Q336 714 367 701.5Q398 689 419 668Q440 647 451 619Q462 591 462 560Q462 512 435 472Q408 432 347 391L323 375L476 212Q496 250 508 295.5Q520 341 526 392Q528 408 546 408H598Q605 408 610.5 404Q616 400 616 390Q616 368 611 338.5Q606 309 596 276.5Q586 244 571.5 210.5Q557 177 539 147L662 21Q669 14 665.5 7Q662 0 655 0H566Q557 0 551.5 2.5Q546 5 541 10Z" glyph-name="ampersand" horiz-adv-x="686" unicode="&amp;" /><glyph d="M31 499Q31 540 46 576.5Q61 613 87 640.5Q113 668 149.5 684Q186 700 229 700H470Q478 700 483.5 694.5Q489 689 489 681V19Q489 11 483.5 5.5Q478 0 470 0H430Q422 0 416 5.5Q410 11 410 19V632H306V19Q306 0 287 0H246Q238 0 233 5.5Q228 11 228 19V302H224Q180 302 144.5 317.5Q109 333 84 360Q59 387 45 423Q31 459 31 499Z" glyph-name="paragraph" horiz-adv-x="579" unicode="¶" /><glyph d="M262 163Q262 156 257 151Q252 146 245 146H195Q188 146 182.5 151Q177 156 177 163V456H56Q49 456 44 460.5Q39 465 39 472V518Q39 525 44 529.5Q49 534 56 534H177V683Q177 691 182.5 695.5Q188 700 195 700H245Q252 700 257 695.5Q262 691 262 683V534H384Q391 534 396 529.5Q401 525 401 518V472Q401 465 396 460.5Q391 456 384 456H262Z" glyph-name="dagger" horiz-adv-x="441" unicode="†" /><glyph d="M262 17Q262 0 245 0H195Q188 0 183 4.5Q178 9 178 17V195H57Q50 195 44.5 200Q39 205 39 212V257Q39 265 44.5 269.5Q50 274 57 274H178V426H57Q50 426 44.5 430.5Q39 435 39 443V488Q39 495 44.5 500Q50 505 57 505H178V683Q178 691 183 695.5Q188 700 195 700H245Q262 700 262 683V505H385Q392 505 397 500Q402 495 402 488V443Q402 435 397 430.5Q392 426 385 426H262V274H385Q392 274 397 269.5Q402 265 402 257V212Q402 205 397 200Q392 195 385 195H262Z" glyph-name="daggerdbl" horiz-adv-x="441" unicode="‡" /><glyph d="M418 152Q448 138 475 121.5Q502 105 523 83Q557 99 574 123.5Q591 148 591 176Q591 200 581 219Q571 238 552 254Q533 270 504 284.5Q475 299 438 316L304 376Q274 390 247 406.5Q220 423 199 445Q165 429 148 405Q131 381 131 352Q131 304 170 274.5Q209 245 284 212ZM337 -244Q264 -244 204.5 -216.5Q145 -189 110 -147Q101 -135 102 -125Q103 -115 111 -110L146 -80Q154 -73 164.5 -74.5Q175 -76 182 -84Q214 -120 254 -137.5Q294 -155 337 -155Q366 -155 390 -147Q414 -139 431.5 -125Q449 -111 458.5 -92.5Q468 -74 468 -53Q468 -11 442 18Q416 47 354 74L175 154Q100 188 64.5 235Q29 282 29 343Q29 394 60.5 442.5Q92 491 157 517Q149 546 149 577Q149 617 166.5 652.5Q184 688 214.5 714.5Q245 741 288.5 756.5Q332 772 385 772Q457 772 517 744Q577 716 612 676Q621 664 620 654Q619 644 611 638L576 609Q567 601 557 602.5Q547 604 540 612Q507 648 467.5 665.5Q428 683 385 683Q356 683 331.5 675Q307 667 290 653Q273 639 263.5 620.5Q254 602 254 581Q254 539 280 510Q306 481 368 454L547 374Q622 340 657.5 293Q693 246 693 186Q693 160 685 134.5Q677 109 661 86Q645 63 621 43.5Q597 24 564 11Q573 -16 573 -49Q573 -89 556 -124.5Q539 -160 508 -186.5Q477 -213 433.5 -228.5Q390 -244 337 -244Z" glyph-name="section" horiz-adv-x="722" unicode="§" /><glyph d="M287 323Q287 304 274.5 292Q262 280 244 280Q226 280 213.5 292Q201 304 201 323Q201 329 205 350.5Q209 372 214 397Q219 422 224 445Q229 468 231 477Q223 471 205 456.5Q187 442 167 425.5Q147 409 129.5 395Q112 381 105 378Q89 370 72.5 375Q56 380 47 396Q39 413 43.5 429.5Q48 446 65 455Q72 459 94 465Q116 471 140.5 477.5Q165 484 187.5 489.5Q210 495 218 498Q210 501 187.5 507.5Q165 514 140.5 521Q116 528 94 534.5Q72 541 65 545Q49 553 43.5 570Q38 587 46 603Q55 620 72 625Q89 630 105 622Q111 618 128.5 604Q146 590 166.5 573.5Q187 557 205 542.5Q223 528 231 522Q229 531 224 553.5Q219 576 214 601Q209 626 205 647.5Q201 669 201 676Q201 693 213.5 706Q226 719 244 719Q262 719 274.5 706Q287 693 287 676Q287 669 283 647.5Q279 626 273.5 601Q268 576 263 553.5Q258 531 256 522Q264 528 282 542.5Q300 557 320 573.5Q340 590 357.5 604Q375 618 381 622Q397 630 414 625Q431 620 440 603Q448 587 442.5 570Q437 553 421 545Q414 541 392 534.5Q370 528 345.5 521Q321 514 298.5 507.5Q276 501 268 498Q276 495 298 489.5Q320 484 345 477.5Q370 471 391.5 465Q413 459 421 455Q438 446 442.5 429.5Q447 413 439 396Q430 380 413.5 375Q397 370 381 378Q374 381 356.5 395Q339 409 319 425.5Q299 442 281 456.5Q263 471 255 477Q257 468 262.5 445Q268 422 273.5 397Q279 372 283 350.5Q287 329 287 323Z" glyph-name="asterisk" horiz-adv-x="487" unicode="*" /><glyph d="M32 686Q32 691 36 695.5Q40 700 45 700H343Q348 700 352 695.5Q356 691 356 686V658Q356 652 352 648Q348 644 343 644H225V370Q225 356 212 356H176Q170 356 165.5 360Q161 364 161 370V644H45Q32 644 32 658ZM601 502 690 686Q697 700 709 700H777Q782 700 786.5 695.5Q791 691 791 686V369Q791 364 786.5 360Q782 356 777 356H740Q727 356 727 370V628L635 442Q629 429 616 429H583Q570 429 564 442L473 628V370Q473 364 468.5 360Q464 356 459 356H423Q418 356 413.5 360Q409 364 409 369V686Q409 691 413.5 695.5Q418 700 423 700H493Q506 700 513 686Z" glyph-name="trademark" horiz-adv-x="863" unicode="™" /></font>
</defs>
</svg>
