<?xml version="1.0" standalone="no"?>
<!DOCTYPE svg
  PUBLIC '-//W3C//DTD SVG 1.1//EN'
  'http://www.w3.org/Graphics/SVG/1.1/DTD/svg11.dtd'><svg version="1.1" xmlns="http://www.w3.org/2000/svg"><defs><font horiz-adv-x="0" id="font"><font-face ascent="750" bbox="-178 -257 4647 944" cap-height="700" descent="-250" font-family="Qualcomm Next WEB" font-stretch="normal" font-style="normal" font-weight="700" units-per-em="1000" x-height="456" /><missing-glyph d="" horiz-adv-x="0" /><glyph d="" glyph-name=".null" horiz-adv-x="0" unicode="" /><glyph d="" glyph-name="nonmarkingreturn" horiz-adv-x="0" unicode="" /><glyph d="" glyph-name="space" horiz-adv-x="256" unicode=" " /><glyph d="" glyph-name="uni00A0" horiz-adv-x="256" unicode=" " /><glyph d="M389 654 163 255H476ZM26 14Q18 0 6 0H-14Q-19 0 -21.5 4.5Q-24 9 -21 14L364 687Q371 700 383 700H406Q419 700 423 686L575 14Q578 0 565 0H545Q532 0 529 14L485 216H141Z" glyph-name="A" horiz-adv-x="627" unicode="A" /><glyph d="M72 0Q67 0 62.5 3.5Q58 7 60 15L178 685Q179 691 184 695.5Q189 700 195 700H451Q497 700 531.5 686.5Q566 673 589 650.5Q612 628 623 599.5Q634 571 634 541Q634 511 624 483Q614 455 595.5 432Q577 409 549.5 392Q522 375 487 368Q549 351 582 308.5Q615 266 615 209Q615 175 601.5 138Q588 101 558.5 70.5Q529 40 482.5 20Q436 0 370 0ZM170 390 405 390Q444 390 477 399.5Q510 409 534 428Q558 447 571.5 475.5Q585 504 585 542Q585 600 547 630Q509 660 448 660H218ZM381 40Q420 40 454.5 52Q489 64 514.5 86Q540 108 554.5 139.5Q569 171 569 210Q569 245 554.5 271.5Q540 298 516 315.5Q492 333 460 341.5Q428 350 393 350H164L109 40Z" glyph-name="B" horiz-adv-x="668" unicode="B" /><glyph d="M111 311Q111 250 130.5 198.5Q150 147 186 109Q222 71 272 49.5Q322 28 383 28Q482 28 552.5 78.5Q623 129 667 210Q671 217 674 220Q677 223 684 223H704Q710 223 712.5 218Q715 213 712 208Q689 157 655 116.5Q621 76 578 47.5Q535 19 484.5 3.5Q434 -12 378 -12Q309 -12 251.5 12Q194 36 153 79Q112 122 89 181Q66 240 66 310Q66 397 97 470.5Q128 544 180.5 597.5Q233 651 301 681.5Q369 712 444 712Q499 712 547 696.5Q595 681 633.5 652Q672 623 700 582Q728 541 742 491Q746 478 732 478H713Q703 478 700 486Q671 571 605 621.5Q539 672 439 672Q372 672 312.5 643.5Q253 615 208 566.5Q163 518 137 452Q111 386 111 311Z" glyph-name="C" horiz-adv-x="739" unicode="C" /><glyph d="M368 700Q450 700 512.5 679Q575 658 617 619Q659 580 680.5 525Q702 470 702 403Q702 315 674 241Q646 167 593.5 113.5Q541 60 464 30Q387 0 290 0H72Q67 0 62.5 3.5Q58 7 60 15L178 685Q179 691 184 695.5Q189 700 195 700ZM298 42Q375 42 440.5 66Q506 90 554 136.5Q602 183 629 249.5Q656 316 656 402Q656 465 635.5 513Q615 561 578 593.5Q541 626 488.5 642Q436 658 373 658H218L109 42Z" glyph-name="D" horiz-adv-x="725" unicode="D" /><glyph d="M638 700Q644 700 647.5 695.5Q651 691 650 685L648 673Q647 667 642.5 662.5Q638 658 630 658H218L168 377H379Q385 377 389 372.5Q393 368 391 362L389 350Q388 344 384 339.5Q380 335 372 335H161L109 42H522Q528 42 532 38.5Q536 35 534 27L532 15Q531 9 526.5 4.5Q522 0 514 0H72Q66 0 62 4Q58 8 60 15L178 685Q179 691 183.5 695.5Q188 700 195 700Z" glyph-name="E" horiz-adv-x="600" unicode="E" /><glyph d="M457 341Q454 326 439 326H159L104 15Q101 0 87 0H72Q66 0 62 4Q58 8 60 15L178 685Q179 691 184 695.5Q189 700 195 700H607Q613 700 617 696.5Q621 693 619 685L617 673Q616 667 612 662.5Q608 658 600 658H218L166 368H447Q453 368 457 364.5Q461 361 459 353Z" glyph-name="F" horiz-adv-x="556" unicode="F" /><glyph d="M656 159Q644 134 620.5 104Q597 74 561 48.5Q525 23 475.5 5.5Q426 -12 363 -12Q297 -12 242.5 11Q188 34 148.5 75Q109 116 87 173Q65 230 65 299Q65 386 94.5 461Q124 536 176 592Q228 648 299 680Q370 712 452 712Q506 712 555.5 697Q605 682 645.5 653.5Q686 625 715 584Q744 543 757 492Q760 478 744 478H724Q717 478 715 481.5Q713 485 711 492Q683 577 615 624.5Q547 672 447 672Q375 672 313.5 642.5Q252 613 207 562.5Q162 512 136.5 445Q111 378 111 303Q111 243 129.5 192.5Q148 142 182.5 105.5Q217 69 265.5 48.5Q314 28 373 28Q434 28 483.5 47Q533 66 570.5 98.5Q608 131 633.5 173.5Q659 216 673 263H426Q420 263 416 266.5Q412 270 414 278L416 289Q419 302 431 302H706Q714 302 717.5 297.5Q721 293 720 287L673 15Q672 9 668.5 4.5Q665 0 655 0H644Q636 0 633 4.5Q630 9 631 15L656 159Z" glyph-name="G" horiz-adv-x="765" unicode="G" /><glyph d="M618 15Q615 0 602 0H585Q571 0 574 15L630 335H160L104 15Q101 0 88 0H71Q57 0 60 15L178 685Q181 700 195 700H210Q216 700 220 696.5Q224 693 222 685L168 377H638L692 685Q695 700 709 700H724Q730 700 734 696.5Q738 693 736 685Z" glyph-name="H" horiz-adv-x="752" unicode="H" /><glyph d="M71 0Q57 0 60 15L178 685Q181 700 195 700H210Q216 700 220 696.5Q224 693 222 685L104 15Q101 0 88 0Z" glyph-name="I" horiz-adv-x="238" unicode="I" /><glyph d="M483 205Q466 105 408 46.5Q350 -12 235 -12Q176 -12 133 6Q90 24 63 55.5Q36 87 26 130.5Q16 174 24 224L28 249Q29 255 34 259.5Q39 264 45 264H59Q65 264 68.5 259.5Q72 255 71 249L66 220Q59 178 67.5 142.5Q76 107 98.5 81.5Q121 56 156.5 41.5Q192 27 238 27Q327 27 374 71.5Q421 116 438 211L522 685Q523 691 528.5 695.5Q534 700 540 700H554Q560 700 564 695.5Q568 691 567 685L483 205Z" glyph-name="J" horiz-adv-x="575" unicode="J" /><glyph d="M104 15Q101 0 89 0H70Q57 0 60 15L178 685Q181 700 193 700H211Q225 700 222 685L169 386H280L625 689Q631 694 635.5 697Q640 700 647 700H685Q690 700 691 696Q692 692 688 689L316 366L563 11Q565 8 564 4Q563 0 558 0H529Q517 0 509 11L279 348H163L104 15Z" glyph-name="K" horiz-adv-x="614" unicode="K" /><glyph d="M482 15Q479 0 465 0H72Q66 0 62 4Q58 8 60 15L178 685Q181 700 195 700H210Q216 700 220 696Q224 692 222 685L109 42H472Q478 42 482 38Q486 34 484 26Z" glyph-name="L" horiz-adv-x="524" unicode="L" /><glyph d="M423 150 784 687Q788 693 793 696.5Q798 700 808 700H850Q856 700 859.5 695.5Q863 691 862 685L744 15Q742 7 737 3.5Q732 0 726 0H711Q706 0 701.5 3.5Q697 7 699 15L812 655L445 113Q436 100 421 100H410Q395 100 391 113L217 655L104 15Q101 0 87 0H72Q66 0 62 4Q58 8 60 15L178 685Q181 700 195 700H233Q248 700 252 687Z" glyph-name="M" horiz-adv-x="878" unicode="M" /><glyph d="M211 629 103 15Q100 0 86 0H72Q66 0 62 3.5Q58 7 60 15L178 685Q179 691 183 695.5Q187 700 193 700H209Q222 700 228 688L549 71L657 685Q660 700 674 700H688Q694 700 698.5 696.5Q703 693 701 685L582 15Q579 0 565 0H552Q538 0 532 12Z" glyph-name="N" horiz-adv-x="716" unicode="N" /><glyph d="M438 712Q507 712 565.5 688Q624 664 666 620.5Q708 577 732 517.5Q756 458 756 388Q756 304 727 231Q698 158 647.5 104Q597 50 529.5 19Q462 -12 384 -12Q315 -12 257 12Q199 36 156.5 79.5Q114 123 90.5 182Q67 241 67 312Q67 396 96 469Q125 542 175 596Q225 650 292.5 681Q360 712 438 712ZM438 672Q369 672 309.5 643.5Q250 615 206.5 566.5Q163 518 138 452.5Q113 387 113 312Q113 252 132.5 200Q152 148 188 109.5Q224 71 274 49.5Q324 28 386 28Q455 28 514 56.5Q573 85 616.5 133.5Q660 182 685 247.5Q710 313 710 388Q710 448 690.5 500Q671 552 635.5 590.5Q600 629 549.5 650.5Q499 672 438 672Z" glyph-name="O" horiz-adv-x="779" unicode="O" /><glyph d="M150 274 104 15Q101 0 87 0H72Q66 0 62.5 4.5Q59 9 60 15L178 685Q179 691 184 695.5Q189 700 195 700H407Q465 700 506.5 684.5Q548 669 575 642.5Q602 616 615 581Q628 546 628 507Q628 459 611 417Q594 375 560.5 343Q527 311 476 292.5Q425 274 357 274ZM363 314Q410 314 450.5 326Q491 338 520.5 362Q550 386 567 421Q584 456 584 503Q584 581 535.5 620.5Q487 660 405 660H218L157 314Z" glyph-name="P" horiz-adv-x="609" unicode="P" /><glyph d="M438 712Q507 712 565.5 688Q624 664 666 620.5Q708 577 732 517.5Q756 458 756 388Q756 332 743 281Q730 230 706.5 186Q683 142 649.5 105.5Q616 69 575 43L654 -107Q660 -120 646 -120H621Q610 -120 604 -107L536 22Q463 -12 384 -12Q315 -12 257 12Q199 36 156.5 79.5Q114 123 90.5 182Q67 241 67 312Q67 396 96 469Q125 542 175 596Q225 650 292.5 681Q360 712 438 712ZM438 672Q369 672 309.5 643.5Q250 615 206.5 566.5Q163 518 138 452.5Q113 387 113 312Q113 252 132.5 200Q152 148 188 109.5Q224 71 274 49.5Q324 28 386 28Q421 28 454 36Q487 44 517 58L407 267Q404 273 406.5 276.5Q409 280 415 280H440Q447 280 450.5 276.5Q454 273 457 267L555 80Q626 128 668 208.5Q710 289 710 388Q710 448 690.5 500Q671 552 635.5 590.5Q600 629 549.5 650.5Q499 672 438 672Z" glyph-name="Q" horiz-adv-x="779" unicode="Q" /><glyph d="M402 350Q462 350 503.5 366Q545 382 570.5 407Q596 432 607.5 462.5Q619 493 619 522Q619 584 577.5 622Q536 660 456 660H218L163 350ZM104 15Q101 0 87 0H72Q66 0 62 4Q58 8 60 15L178 685Q179 691 184 695.5Q189 700 195 700H454Q556 700 610 651.5Q664 603 664 524Q664 502 656.5 469.5Q649 437 626.5 405.5Q604 374 562 348.5Q520 323 451 315L609 13Q615 0 601 0H576Q565 0 559 13L403 310H156Z" glyph-name="R" horiz-adv-x="672" unicode="R" /><glyph d="M351 712Q437 712 502.5 680.5Q568 649 606 593Q613 582 599 575L588 569Q576 562 566 576Q528 629 470 651.5Q412 674 347 674Q307 674 272.5 663.5Q238 653 212.5 633.5Q187 614 172.5 586.5Q158 559 158 524Q158 507 163 490.5Q168 474 180.5 458Q193 442 214.5 428Q236 414 268 402L419 345Q491 318 521 276Q551 234 551 184Q551 149 536 114Q521 79 489.5 51Q458 23 410 5.5Q362 -12 296 -12Q239 -12 192.5 2Q146 16 111.5 37.5Q77 59 54.5 85Q32 111 22 134Q20 139 22.5 144.5Q25 150 30 152L43 158Q56 164 64 150Q78 125 100 102.5Q122 80 151.5 63Q181 46 217.5 36Q254 26 297 26Q349 26 388 39.5Q427 53 453.5 74.5Q480 96 493 124.5Q506 153 506 183Q506 267 399 307L244 366Q207 380 182 398Q157 416 141.5 436Q126 456 119.5 478Q113 500 113 523Q113 566 131.5 601Q150 636 182 660.5Q214 685 257.5 698.5Q301 712 351 712Z" glyph-name="S" horiz-adv-x="602" unicode="S" /><glyph d="M93 685Q96 700 108 700H661Q667 700 671 696.5Q675 693 673 685L671 673Q668 658 654 658H400L286 15Q283 0 269 0H254Q248 0 244 4Q240 8 242 15L355 658H102Q96 658 93 662.5Q90 667 91 673Z" glyph-name="T" horiz-adv-x="607" unicode="T" /><glyph d="M612 235Q592 121 522 54.5Q452 -12 327 -12Q268 -12 220 5Q172 22 139.5 53.5Q107 85 93 130.5Q79 176 89 233L169 685Q172 700 186 700H202Q216 700 213 685L133 230Q124 181 135.5 143.5Q147 106 174.5 80Q202 54 243 40.5Q284 27 334 27Q424 27 487.5 79.5Q551 132 568 230L648 685Q651 700 666 700H680Q695 700 692 685L612 235Z" glyph-name="U" horiz-adv-x="699" unicode="U" /><glyph d="M265 0Q250 0 247 14L96 686Q94 692 97.5 696Q101 700 107 700H127Q139 700 142 687L283 43H287L653 687Q661 700 672 700H695Q700 700 702.5 695.5Q705 691 702 686L315 14Q306 0 292 0Z" glyph-name="V" horiz-adv-x="636" unicode="V" /><glyph d="M256 14Q250 0 234 0H209Q203 0 198 3Q193 6 192 14L99 686Q98 691 102 695.5Q106 700 111 700H129Q140 700 142 686L230 48L548 686Q555 700 569 700H592Q607 700 609 686L708 51L1016 686Q1023 700 1035 700H1057Q1062 700 1064.5 696Q1067 692 1064 686L734 14Q730 6 724 3Q718 0 711 0H689Q673 0 671 14L575 653L256 14Z" glyph-name="W" horiz-adv-x="1002" unicode="W" /><glyph d="M30 12Q20 0 9 0H-20Q-25 0 -26.5 4Q-28 8 -24 12L290 356L104 688Q102 693 104 696.5Q106 700 111 700H134Q146 700 153 688L320 386L592 688Q602 700 614 700H642Q649 700 650 695.5Q651 691 648 688L343 355L535 12Q537 8 535.5 4Q534 0 527 0H504Q496 0 492.5 3.5Q489 7 486 12L313 324L30 12Z" glyph-name="X" horiz-adv-x="587" unicode="X" /><glyph d="M254 0Q248 0 244 4Q240 8 242 15L294 311L103 688Q101 693 103 696.5Q105 700 110 700H137Q148 700 154 688L320 354H323L607 688Q617 700 628 700H659Q664 700 665.5 696.5Q667 693 663 688L339 311L286 15Q283 0 270 0Z" glyph-name="Y" horiz-adv-x="603" unicode="Y" /><glyph d="M-10 0Q-26 0 -23 15L-21 26Q-19 33 -14 40Q-9 47 -4 52L560 658H136Q131 658 126 661.5Q121 665 123 673L125 685Q127 693 132 696.5Q137 700 143 700H609Q615 700 619 696.5Q623 693 621 685L620 677Q618 667 611.5 658.5Q605 650 598 643L41 42H513Q519 42 523 38.5Q527 35 525 27L523 15Q521 7 516 3.5Q511 0 505 0Z" glyph-name="Z" horiz-adv-x="578" unicode="Z" /><glyph d="M391 660 162 255H478ZM26 14Q18 0 7 0H-14Q-19 0 -22 3.5Q-25 7 -21 14L364 686Q372 700 387 700H929Q937 700 940.5 695.5Q944 691 943 685L941 673Q939 665 935.5 661.5Q932 658 923 658H432L495 377H741Q747 377 751 373.5Q755 370 753 362L751 350Q749 342 746 338.5Q743 335 734 335H504L569 42H815Q821 42 825 38.5Q829 35 827 27L825 15Q823 7 819.5 3.5Q816 0 807 0H549Q539 0 535.5 4Q532 8 530 14L486 216H140Z" glyph-name="AE" horiz-adv-x="893" unicode="Æ" /><glyph d="M437 672Q368 672 309 643.5Q250 615 206.5 566.5Q163 518 138.5 452.5Q114 387 114 312Q114 252 133.5 200Q153 148 188 109.5Q223 71 273 49.5Q323 28 385 28Q454 28 512 56.5Q570 85 612 133.5Q654 182 677.5 247.5Q701 313 701 388Q701 448 683 500Q665 552 630.5 590.5Q596 629 547 650.5Q498 672 437 672ZM662 141Q614 71 542 29.5Q470 -12 381 -12Q312 -12 254.5 12Q197 36 155.5 79.5Q114 123 91 182Q68 241 68 312Q68 396 96 469Q124 542 173.5 596Q223 650 290 681Q357 712 435 712Q548 712 622.5 652.5Q697 593 723 493L757 685Q760 700 774 700H1217Q1223 700 1226.5 695.5Q1230 691 1229 685L1227 673Q1226 667 1221.5 662.5Q1217 658 1209 658H797L747 377H958Q964 377 968 372.5Q972 368 970 362L968 350Q967 344 963 339.5Q959 335 951 335H740L688 42H1101Q1107 42 1110.5 37.5Q1114 33 1113 27L1111 15Q1110 9 1105.5 4.5Q1101 0 1093 0H651Q645 0 641 4Q637 8 639 15Z" glyph-name="OE" horiz-adv-x="1179" unicode="Œ" /><glyph d="M75 0Q69 0 65 4Q61 8 63 15L111 286L34 260Q27 258 24 261.5Q21 265 22 270L24 281Q27 293 39 298L118 325L181 685Q184 700 198 700H213Q219 700 223 696Q227 692 225 685L165 341L371 412Q377 414 380.5 411Q384 408 383 403L381 388Q380 378 364 372L158 302L112 42H475Q481 42 485 38Q489 34 487 26L485 15Q482 0 468 0Z" glyph-name="Lslash" horiz-adv-x="528" unicode="Ł" /><glyph d="M438 712Q507 712 565.5 688Q624 664 666 620.5Q708 577 732 517.5Q756 458 756 388Q756 304 727 231Q698 158 647.5 104Q597 50 529.5 19Q462 -12 384 -12Q315 -12 257 12Q199 36 156.5 79.5Q114 123 90.5 182Q67 241 67 312Q67 396 96 469Q125 542 175 596Q225 650 292.5 681Q360 712 438 712ZM113 312Q113 255 130.5 205.5Q148 156 181 118L621 604Q586 636 540 654Q494 672 438 672Q369 672 309.5 643.5Q250 615 206.5 566.5Q163 518 138 452.5Q113 387 113 312ZM386 28Q455 28 514 56.5Q573 85 616.5 133.5Q660 182 685 247.5Q710 313 710 388Q710 443 694 491Q678 539 648 576L208 90Q243 61 287.5 44.5Q332 28 386 28Z" glyph-name="Oslash" horiz-adv-x="779" unicode="Ø" /><glyph d="M76 0Q71 0 66.5 3.5Q62 7 64 15L121 336H41Q34 336 30.5 340.5Q27 345 29 351L31 361Q34 376 48 376H128L182 685Q183 691 188 695.5Q193 700 199 700H372Q454 700 516.5 679Q579 658 621 619Q663 580 684.5 525Q706 470 706 403Q706 315 678 241Q650 167 597.5 113.5Q545 60 468 30Q391 0 294 0ZM302 42Q379 42 444.5 66Q510 90 558 136.5Q606 183 633 249.5Q660 316 660 402Q660 465 639.5 513Q619 561 582 593.5Q545 626 492.5 642Q440 658 377 658H222L172 376H405Q410 376 414.5 372.5Q419 369 417 361L415 351Q413 343 408 339.5Q403 336 397 336H165L113 42Z" glyph-name="Eth" horiz-adv-x="729" unicode="Ð" /><glyph d="M103 15Q100 0 86 0H72Q66 0 62 3.5Q58 7 60 15L178 685Q181 700 195 700H209Q215 700 219 696.5Q223 693 221 685L203 580H386Q444 580 485.5 564.5Q527 549 554 522.5Q581 496 594 461Q607 426 607 387Q607 339 590 297Q573 255 539.5 223Q506 191 455 172.5Q404 154 336 154H128ZM197 540 136 194H342Q389 194 429.5 206Q470 218 499.5 242Q529 266 546 301Q563 336 563 383Q563 461 514.5 500.5Q466 540 384 540Z" glyph-name="Thorn" horiz-adv-x="619" unicode="Þ" /><glyph d="M248 27Q289 27 326 45Q363 63 390.5 93.5Q418 124 434.5 165.5Q451 207 451 255Q451 291 439 323Q427 355 405 378.5Q383 402 352 415.5Q321 429 283 429Q241 429 204.5 411Q168 393 141.5 362.5Q115 332 99.5 290.5Q84 249 84 202Q84 168 94.5 136.5Q105 105 126 80.5Q147 56 177.5 41.5Q208 27 248 27ZM40 202Q40 260 60 309Q80 358 113 393.5Q146 429 190 448.5Q234 468 282 468Q346 468 397.5 432.5Q449 397 468 336L486 441Q489 456 503 456H517Q533 456 530 441L454 15Q451 0 437 0H423Q417 0 413 4Q409 8 411 15L424 88Q396 44 349 16Q302 -12 246 -12Q200 -12 162 4.5Q124 21 97 49.5Q70 78 55 117Q40 156 40 202Z" glyph-name="a" horiz-adv-x="566" unicode="a" /><glyph d="M186 700Q192 700 196.5 696Q201 692 199 685L142 369Q169 414 217 441Q265 468 321 468Q367 468 405 451.5Q443 435 470 406.5Q497 378 512 339Q527 300 527 254Q527 195 507 146.5Q487 98 454 62.5Q421 27 377 7.5Q333 -12 285 -12Q221 -12 169.5 23.5Q118 59 99 120L81 15Q78 0 64 0H50Q44 0 39.5 3.5Q35 7 37 15L155 685Q156 691 160 695.5Q164 700 172 700ZM319 429Q278 429 241 411Q204 393 176 362.5Q148 332 132 290.5Q116 249 116 201Q116 165 128 133Q140 101 162 77.5Q184 54 215 40.5Q246 27 284 27Q326 27 362.5 44.5Q399 62 425.5 93Q452 124 467.5 165.5Q483 207 483 254Q483 288 472.5 319.5Q462 351 441 375.5Q420 400 389.5 414.5Q359 429 319 429Z" glyph-name="b" horiz-adv-x="567" unicode="b" /><glyph d="M444 89Q415 42 365.5 15Q316 -12 253 -12Q205 -12 166 4.5Q127 21 99 49.5Q71 78 55.5 117Q40 156 40 202Q40 258 58 306.5Q76 355 108.5 391Q141 427 185 447.5Q229 468 282 468Q355 468 402 437.5Q449 407 473 361Q477 354 474.5 349Q472 344 467 342L454 336Q448 333 444 335Q440 337 438 340Q426 359 411.5 375.5Q397 392 378.5 404Q360 416 336 422.5Q312 429 280 429Q240 429 204.5 411.5Q169 394 142 363.5Q115 333 99.5 292.5Q84 252 84 206Q84 164 97 130.5Q110 97 133.5 74Q157 51 188 39Q219 27 255 27Q304 27 341.5 48Q379 69 409 111Q418 123 429 116L442 108Q448 104 447 98.5Q446 93 444 89Z" glyph-name="c" horiz-adv-x="498" unicode="c" /><glyph d="M248 27Q289 27 326 45Q363 63 390.5 93.5Q418 124 434.5 165.5Q451 207 451 255Q451 291 439 323Q427 355 405 378.5Q383 402 352 415.5Q321 429 283 429Q241 429 204.5 411Q168 393 141.5 362.5Q115 332 99.5 290.5Q84 249 84 202Q84 168 94.5 136.5Q105 105 126 80.5Q147 56 177.5 41.5Q208 27 248 27ZM424 88Q396 44 349 16Q302 -12 246 -12Q200 -12 162 4.5Q124 21 97 49.5Q70 78 55 117Q40 156 40 202Q40 260 60 309Q80 358 113 393.5Q146 429 190 448.5Q234 468 282 468Q346 468 397.5 432.5Q449 397 468 336L529 685Q532 700 545 700H561Q566 700 570.5 696.5Q575 693 573 685L454 15Q451 0 437 0H423Q417 0 413 4Q409 8 411 15Z" glyph-name="d" horiz-adv-x="566" unicode="d" /><glyph d="M255 -12Q207 -12 167.5 4.5Q128 21 100 50Q72 79 56.5 118.5Q41 158 41 205Q41 260 59.5 308Q78 356 111.5 391.5Q145 427 190.5 447.5Q236 468 290 468Q333 468 371 454Q409 440 437 414Q465 388 481 350Q497 312 497 264V237Q497 225 490.5 220Q484 215 476 215H85V208Q85 170 97 137Q109 104 131.5 79.5Q154 55 185.5 41Q217 27 255 27Q312 27 351 48.5Q390 70 418 99Q430 111 443 103L452 97Q457 94 457.5 88Q458 82 454 77Q440 60 420.5 44.5Q401 29 376 16Q351 3 321 -4.5Q291 -12 255 -12ZM287 429Q249 429 216 415.5Q183 402 157 378Q131 354 114 322Q97 290 90 253H455Q458 333 413 381Q368 429 287 429Z" glyph-name="e" horiz-adv-x="528" unicode="e" /><glyph d="M140 456 162 576Q174 645 214 677.5Q254 710 308 710Q332 710 354.5 703.5Q377 697 392 684Q403 675 394 665L385 655Q379 648 373 650Q367 652 362 656Q347 666 332.5 669Q318 672 305 672Q268 672 240.5 646.5Q213 621 205 578L184 456H289Q296 456 299.5 451.5Q303 447 301 441L299 431Q296 418 280 418H177L106 15Q103 0 89 0H75Q69 0 65 3.5Q61 7 63 15L134 418H60Q55 418 51 422.5Q47 427 49 433L51 443Q54 456 67 456Z" glyph-name="f" horiz-adv-x="274" unicode="f" /><glyph d="M247 37Q288 37 324 53Q360 69 386.5 98Q413 127 428 167Q443 207 443 255Q443 291 431.5 323Q420 355 398 378.5Q376 402 345.5 415.5Q315 429 277 429Q235 429 200 411.5Q165 394 139.5 364Q114 334 100 294.5Q86 255 86 212Q86 178 96 146.5Q106 115 126.5 90.5Q147 66 177 51.5Q207 37 247 37ZM195 -226Q156 -226 124 -217.5Q92 -209 67 -194.5Q42 -180 23.5 -162Q5 -144 -7 -125Q-9 -121 -8.5 -116.5Q-8 -112 0 -107L12 -100Q20 -95 25 -99Q30 -103 32 -106Q43 -121 58 -136Q73 -151 93.5 -163Q114 -175 140.5 -182Q167 -189 201 -189Q244 -189 277.5 -176Q311 -163 335.5 -140Q360 -117 375.5 -85Q391 -53 398 -15L417 88Q389 44 342.5 21Q296 -2 240 -2Q194 -2 157.5 14.5Q121 31 95.5 59.5Q70 88 56 127Q42 166 42 212Q42 267 60 313.5Q78 360 109.5 394.5Q141 429 183.5 448.5Q226 468 276 468Q340 468 390.5 432.5Q441 397 460 336L478 441Q481 456 495 456H509Q525 456 522 441L441 -15Q433 -60 415 -99Q397 -138 367 -166Q337 -194 294.5 -210Q252 -226 195 -226Z" glyph-name="g" horiz-adv-x="559" unicode="g" /><glyph d="M80 15Q78 7 73 3.5Q68 0 62 0H48Q34 0 37 15L155 685Q158 700 171 700H187Q193 700 197 696.5Q201 693 199 685L142 365Q170 411 217.5 439.5Q265 468 328 468Q373 468 407.5 453.5Q442 439 464 413Q486 387 494 350.5Q502 314 494 269L449 15Q447 7 442 3.5Q437 0 431 0H416Q402 0 405 15L449 261Q463 342 428.5 385.5Q394 429 319 429Q280 429 247 415.5Q214 402 188.5 377.5Q163 353 145.5 319.5Q128 286 121 247L80 15Z" glyph-name="h" horiz-adv-x="554" unicode="h" /><glyph d="M49 0Q42 0 39 4.5Q36 9 37 15L112 441Q113 447 117.5 451.5Q122 456 130 456H143Q159 456 156 441L80 15Q77 0 63 0ZM163 587Q148 587 137 598Q126 609 126 625Q126 640 137 651Q148 662 163 662Q178 662 189 651Q200 640 200 625Q200 609 189 598Q178 587 163 587Z" glyph-name="i" horiz-adv-x="192" unicode="i" /><glyph d="M49 0Q42 0 39 4.5Q36 9 37 15L112 441Q113 447 117.5 451.5Q122 456 130 456H143Q159 456 156 441L80 15Q77 0 63 0ZM163 587Q148 587 137 598Q126 609 126 625Q126 640 137 651Q148 662 163 662Q178 662 189 651Q200 640 200 625Q200 609 189 598Q178 587 163 587Z" glyph-name="i.TRK" horiz-adv-x="192" unicode="" /><glyph d="M112 441Q113 447 117.5 451.5Q122 456 130 456H143Q159 456 156 441L61 -91Q48 -161 9.5 -193Q-29 -225 -80 -225Q-114 -225 -137 -216Q-160 -207 -171 -197Q-178 -190 -170 -179L-165 -172Q-160 -165 -154 -164Q-148 -163 -143 -167Q-129 -177 -112 -182Q-95 -187 -81 -187Q-43 -187 -16.5 -161.5Q10 -136 18 -93ZM163 587Q148 587 137 598Q126 609 126 625Q126 640 137 651Q148 662 163 662Q178 662 189 651Q200 640 200 625Q200 609 189 598Q178 587 163 587Z" glyph-name="j" horiz-adv-x="192" unicode="j" /><glyph d="M80 15Q77 0 62 0H49Q34 0 37 15L155 685Q158 700 172 700H186Q202 700 199 685L126 276H205L401 449Q409 456 417 456H455Q459 456 460.5 452.5Q462 449 458 446L236 255L422 11Q425 7 423.5 3.5Q422 0 417 0H392Q382 0 377.5 3Q373 6 369 11L199 238H120L80 15Z" glyph-name="k" horiz-adv-x="457" unicode="k" /><glyph d="M131 0Q113 0 96.5 5.5Q80 11 68 23.5Q56 36 51 57Q46 78 51 108L153 685Q156 700 169 700H185Q191 700 195 696Q199 692 197 685L95 109Q83 38 141 38H173Q187 38 184 24L182 13Q179 0 165 0H131Z" glyph-name="l" horiz-adv-x="220" unicode="l" /><glyph d="M80 15Q77 0 63 0H48Q34 0 37 15L112 441Q115 456 129 456H144Q150 456 154 452Q158 448 156 441L142 365Q170 411 214 439.5Q258 468 321 468Q378 468 420.5 437.5Q463 407 472 350Q507 414 560.5 441Q614 468 668 468Q710 468 742.5 453.5Q775 439 796 413Q817 387 825 350.5Q833 314 825 269L780 15Q778 7 773 3.5Q768 0 762 0H747Q733 0 736 15L780 261Q794 342 762 385.5Q730 429 662 429Q586 429 536.5 381.5Q487 334 473 255L430 15Q428 7 423 3.5Q418 0 412 0H397Q383 0 386 15L430 261Q444 342 412 385.5Q380 429 312 429Q273 429 241 415.5Q209 402 184.5 377.5Q160 353 144 319.5Q128 286 121 247Z" glyph-name="m" horiz-adv-x="885" unicode="m" /><glyph d="M449 261Q463 342 428.5 385.5Q394 429 319 429Q280 429 247 415.5Q214 402 188.5 377.5Q163 353 145.5 319.5Q128 286 121 247L80 15Q77 0 63 0H48Q34 0 37 15L112 441Q115 456 129 456H144Q150 456 154 452Q158 448 156 441L142 365Q170 411 217.5 439.5Q265 468 328 468Q373 468 407.5 453.5Q442 439 464 413Q486 387 494 350.5Q502 314 494 269L449 15Q447 7 442 3.5Q437 0 431 0H416Q402 0 405 15Z" glyph-name="n" horiz-adv-x="554" unicode="n" /><glyph d="M290 468Q330 468 367.5 454Q405 440 433.5 413Q462 386 479.5 346.5Q497 307 497 256Q497 200 478 151Q459 102 425.5 66Q392 30 346 9Q300 -12 247 -12Q207 -12 169.5 2Q132 16 103.5 43Q75 70 57.5 109.5Q40 149 40 200Q40 256 59 305Q78 354 111.5 390Q145 426 191 447Q237 468 290 468ZM286 430Q243 430 206 412Q169 394 142 363.5Q115 333 99.5 292Q84 251 84 205Q84 163 96.5 130Q109 97 131.5 73.5Q154 50 184.5 38Q215 26 251 26Q294 26 331 44Q368 62 395 92.5Q422 123 437.5 164Q453 205 453 251Q453 293 440.5 326Q428 359 405.5 382.5Q383 406 352.5 418Q322 430 286 430Z" glyph-name="o" horiz-adv-x="537" unicode="o" /><glyph d="M319 429Q278 429 241 411Q204 393 176 362.5Q148 332 132 290.5Q116 249 116 201Q116 165 128 133Q140 101 162 77.5Q184 54 215 40.5Q246 27 284 27Q326 27 362.5 44.5Q399 62 425.5 93Q452 124 467.5 165.5Q483 207 483 254Q483 288 472.5 319.5Q462 351 441 375.5Q420 400 389.5 414.5Q359 429 319 429ZM45 -187Q43 -195 38 -198.5Q33 -202 27 -202H13Q8 -202 3.5 -198Q-1 -194 1 -187L112 441Q115 456 129 456H143Q149 456 153.5 452Q158 448 156 441L143 369Q171 414 218 441Q265 468 321 468Q367 468 405 451.5Q443 435 470 406.5Q497 378 512 339Q527 300 527 254Q527 195 507 146.5Q487 98 454 62.5Q421 27 377 7.5Q333 -12 285 -12Q221 -12 169.5 23.5Q118 59 99 120Z" glyph-name="p" horiz-adv-x="567" unicode="p" /><glyph d="M388 -202Q382 -202 377.5 -198Q373 -194 375 -187L424 88Q396 44 349 16Q302 -12 246 -12Q200 -12 162 4.5Q124 21 97 49.5Q70 78 55 117Q40 156 40 202Q40 260 60 309Q80 358 113 393.5Q146 429 190 448.5Q234 468 282 468Q346 468 397.5 432.5Q449 397 468 336L486 441Q489 456 503 456H518Q524 456 528 452.5Q532 449 530 441L419 -187Q416 -202 402 -202ZM248 27Q289 27 326 45Q363 63 390.5 93.5Q418 124 434.5 165.5Q451 207 451 255Q451 291 439 323Q427 355 405 378.5Q383 402 352 415.5Q321 429 283 429Q241 429 204.5 411Q168 393 141.5 362.5Q115 332 99.5 290.5Q84 249 84 202Q84 168 94.5 136.5Q105 105 126 80.5Q147 56 177.5 41.5Q208 27 248 27Z" glyph-name="q" horiz-adv-x="566" unicode="q" /><glyph d="M316 456Q329 456 327 444L323 422Q321 410 310 410H301Q273 410 244 400.5Q215 391 190 369.5Q165 348 145.5 313Q126 278 117 227L80 15Q79 9 75 4.5Q71 0 63 0H49Q34 0 37 15L112 441Q115 456 130 456H141Q147 456 151.5 452Q156 448 154 441L137 351Q144 367 159.5 385.5Q175 404 196 420Q217 436 243.5 446Q270 456 300 456Z" glyph-name="r" horiz-adv-x="300" unicode="r" /><glyph d="M66 342Q66 371 79 394.5Q92 418 114 434.5Q136 451 166 459.5Q196 468 230 468Q295 468 340 445.5Q385 423 410 397Q412 394 412 389Q412 384 407 379L396 370Q386 362 374 374Q349 399 313 415Q277 431 232 431Q207 431 184.5 424.5Q162 418 145.5 407Q129 396 119.5 380.5Q110 365 110 346Q110 312 132 295.5Q154 279 190 268L268 245Q329 227 355.5 197.5Q382 168 382 124Q382 102 373 78Q364 54 343.5 34Q323 14 290 1Q257 -12 209 -12Q172 -12 142 -4.5Q112 3 88 15Q64 27 46 42Q28 57 16 73Q9 82 20 91L32 101Q43 109 53 97Q80 65 121 45Q162 25 210 25Q240 25 263.5 33Q287 41 303.5 54Q320 67 329 84.5Q338 102 338 121Q338 150 318.5 171.5Q299 193 253 207L184 227Q127 244 96.5 269Q66 294 66 342Z" glyph-name="s" horiz-adv-x="437" unicode="s" /><glyph d="M281 38Q287 28 275 21Q232 -5 181 -5Q154 -5 132 4.5Q110 14 96 31Q82 48 77 71.5Q72 95 78 124L130 418H55Q41 418 44 433L46 443Q48 451 52.5 453.5Q57 456 63 456H136L164 615Q167 630 184 630H195Q211 630 208 615L180 456H330Q336 456 340.5 452.5Q345 449 343 441L341 430Q338 418 324 418H173L122 127Q117 103 120 85.5Q123 68 132 56.5Q141 45 154.5 39.5Q168 34 184 34Q201 34 218.5 39.5Q236 45 252 53Q262 58 266.5 56Q271 54 275 48Z" glyph-name="t" horiz-adv-x="321" unicode="t" /><glyph d="M105 195Q91 114 127 70.5Q163 27 231 27Q309 27 360.5 77Q412 127 426 209L467 441Q470 456 484 456H499Q513 456 510 441L435 15Q432 0 418 0H403Q397 0 393 4Q389 8 391 15L405 91Q377 45 331 16.5Q285 -12 222 -12Q180 -12 146.5 2.5Q113 17 91.5 43Q70 69 61 105.5Q52 142 60 187L105 441Q108 456 122 456H136Q152 456 149 441Z" glyph-name="u" horiz-adv-x="546" unicode="u" /><glyph d="M176 0Q161 0 158 14L62 442Q60 448 63.5 452Q67 456 72 456H96Q106 456 109 445L195 44L422 445Q426 452 429.5 454Q433 456 440 456H462Q467 456 469.5 451.5Q472 447 469 442L223 14Q214 0 200 0Z" glyph-name="v" horiz-adv-x="456" unicode="v" /><glyph d="M198 14Q191 0 176 0H151Q136 0 134 14L61 442Q60 447 63.5 451.5Q67 456 72 456H91Q105 456 106 445L171 42L370 442Q377 456 389 456H414Q426 456 428 442L487 42L692 444Q698 456 711 456H731Q736 456 739 452Q742 448 739 442L515 14Q507 0 493 0H467Q452 0 450 14L392 403L198 14Z" glyph-name="w" horiz-adv-x="725" unicode="w" /><glyph d="M37 12Q27 0 16 0H-14Q-19 0 -20.5 4Q-22 8 -18 12L197 235L68 444Q66 448 68 452Q70 456 76 456H99Q106 456 109.5 452.5Q113 449 116 444L229 262L398 444Q408 456 419 456H446Q451 456 452.5 452Q454 448 450 444L248 231L384 12Q386 8 384 4Q382 0 376 0H351Q344 0 340.5 3.5Q337 7 334 12L216 203L37 12Z" glyph-name="x" horiz-adv-x="441" unicode="x" /><glyph d="M7 -226Q-36 -226 -65 -208Q-94 -190 -107 -173Q-110 -169 -110 -162.5Q-110 -156 -104 -151L-97 -145Q-90 -140 -84 -142Q-78 -144 -74 -149Q-62 -163 -41.5 -175.5Q-21 -188 8 -188Q48 -188 71.5 -164.5Q95 -141 112 -111L174 0H167Q154 0 152 10L65 442Q63 450 67.5 453Q72 456 77 456H93Q108 456 111 442L190 31L413 442Q420 456 433 456H453Q458 456 461.5 451.5Q465 447 462 442L143 -137Q121 -177 87.5 -201.5Q54 -226 7 -226Z" glyph-name="y" horiz-adv-x="448" unicode="y" /><glyph d="M48 38 352 38Q366 38 363 25L360 12Q357 0 343 0H0Q-7 0 -11 4.5Q-15 9 -13 15L-11 25Q-9 32 -6.5 36Q-4 40 1 45L362 418H88Q82 418 79 422.5Q76 427 78 433L81 444Q84 456 95 456H413Q419 456 422.5 451.5Q426 447 424 441L422 432Q420 425 417.5 421Q415 417 410 412Z" glyph-name="z" horiz-adv-x="424" unicode="z" /><glyph d="M609 -12Q552 -12 508 10.5Q464 33 435 72Q403 32 356 10Q309 -12 253 -12Q206 -12 167 4.5Q128 21 99.5 49.5Q71 78 55.5 117Q40 156 40 202Q40 257 58 305.5Q76 354 109 390Q142 426 188.5 447Q235 468 291 468Q347 468 390.5 445Q434 422 461 386Q494 424 540.5 446Q587 468 644 468Q687 468 725 454Q763 440 791 414Q819 388 835 350Q851 312 851 264V237Q851 225 844.5 220Q838 215 830 215H439V208Q439 170 451 137Q463 104 485.5 79.5Q508 55 539.5 41Q571 27 609 27Q666 27 705 48.5Q744 70 772 99Q784 111 797 103L806 97Q811 94 811.5 88Q812 82 808 77Q794 60 774.5 44.5Q755 29 730 16Q705 3 675 -4.5Q645 -12 609 -12ZM641 429Q603 429 570 415.5Q537 402 511 378Q485 354 468 322Q451 290 444 253H809Q812 333 767 381Q722 429 641 429ZM256 27Q304 27 344 45.5Q384 64 416 105Q395 150 395 205Q395 247 405.5 284Q416 321 436 353Q413 388 375.5 408.5Q338 429 290 429Q246 429 208.5 411.5Q171 394 143 363.5Q115 333 99.5 292.5Q84 252 84 206Q84 165 97.5 132Q111 99 134 76Q157 53 188.5 40Q220 27 256 27Z" glyph-name="ae" horiz-adv-x="882" unicode="æ" /><glyph d="M655 -12Q579 -12 528 27Q477 66 457 130Q428 66 372 27Q316 -12 244 -12Q205 -12 168 2Q131 16 103 43Q75 70 58 109.5Q41 149 41 200Q41 256 59.5 305Q78 354 111 390Q144 426 189 447Q234 468 286 468Q317 468 346.5 459Q376 450 401 432.5Q426 415 444.5 389Q463 363 473 329Q502 392 558.5 430Q615 468 690 468Q733 468 771 454Q809 440 837 414Q865 388 881 350Q897 312 897 264V237Q897 225 890.5 220Q884 215 876 215H485V208Q485 170 497 137Q509 104 531.5 79.5Q554 55 585.5 41Q617 27 655 27Q712 27 751 48.5Q790 70 818 99Q830 111 843 103L852 97Q857 94 857.5 88Q858 82 854 77Q840 60 820.5 44.5Q801 29 776 16Q751 3 721 -4.5Q691 -12 655 -12ZM282 431Q240 431 204 413Q168 395 141 364Q114 333 98.5 292Q83 251 83 205Q83 163 95.5 129.5Q108 96 130 73Q152 50 182.5 37.5Q213 25 248 25Q290 25 326 43Q362 61 389 92Q416 123 431.5 164Q447 205 447 251Q447 293 434.5 326.5Q422 360 400 383Q378 406 347.5 418.5Q317 431 282 431ZM687 429Q649 429 616 415.5Q583 402 557 378Q531 354 514 322Q497 290 490 253H855Q858 333 813 381Q768 429 687 429Z" glyph-name="oe" horiz-adv-x="928" unicode="œ" /><glyph d="M134 0Q116 0 99.5 5.5Q83 11 71 23.5Q59 36 54 57Q49 78 54 108L87 293L49 273Q44 270 40 272.5Q36 275 37 280L40 299Q42 306 45.5 309.5Q49 313 56 317L95 338L156 685Q159 700 172 700H188Q194 700 198 696Q202 692 200 685L143 364L217 403Q222 406 226 403.5Q230 401 229 396L226 378Q223 366 211 360L135 319L98 109Q86 38 144 38H175Q181 38 185 34.5Q189 31 187 24L185 13Q182 0 168 0Z" glyph-name="lslash" horiz-adv-x="228" unicode="ł" /><glyph d="M290 468Q330 468 367.5 454Q405 440 433.5 413Q462 386 479.5 346.5Q497 307 497 256Q497 200 478 151Q459 102 425.5 66Q392 30 346 9Q300 -12 247 -12Q207 -12 169.5 2Q132 16 103.5 43Q75 70 57.5 109.5Q40 149 40 200Q40 256 59 305Q78 354 111.5 390Q145 426 191 447Q237 468 290 468ZM84 205Q84 169 93 140Q102 111 119 88L398 390Q353 430 286 430Q243 430 206 412Q169 394 142 363.5Q115 333 99.5 292Q84 251 84 205ZM251 26Q294 26 331 44Q368 62 395 92.5Q422 123 437.5 164Q453 205 453 251Q453 317 422 362L145 62Q187 26 251 26Z" glyph-name="oslash" horiz-adv-x="537" unicode="ø" /><glyph d="M248 -12Q207 -12 169.5 2Q132 16 103.5 43.5Q75 71 58 110.5Q41 150 41 201Q41 257 59 305.5Q77 354 109 390Q141 426 186 447Q231 468 284 468Q301 468 320.5 465Q340 462 360.5 455Q381 448 400 435Q419 422 436 403Q417 450 396 489Q375 528 352 560L242 537Q225 534 221 547L219 554Q215 570 233 575L327 595Q301 629 276.5 656Q252 683 232 704Q228 708 230 711Q232 714 235 714H269Q279 714 284 709Q299 694 323.5 667.5Q348 641 374 605L471 625Q478 627 484 625Q490 623 493 615L496 607Q502 593 483 588L398 570Q417 540 435.5 505Q454 470 467.5 431.5Q481 393 489.5 351Q498 309 498 264Q498 211 481 161.5Q464 112 431.5 73.5Q399 35 352.5 11.5Q306 -12 248 -12ZM287 430Q244 430 207 412Q170 394 143 363.5Q116 333 100.5 292Q85 251 85 205Q85 163 97.5 130Q110 97 132.5 73.5Q155 50 185.5 38Q216 26 252 26Q295 26 332 44Q369 62 396 92.5Q423 123 438.5 164Q454 205 454 251Q454 293 441.5 326Q429 359 406.5 382.5Q384 406 353.5 418Q323 430 287 430Z" glyph-name="eth" horiz-adv-x="538" unicode="ð" /><glyph d="M319 429Q278 429 241 411Q204 393 176 362.5Q148 332 132 290.5Q116 249 116 201Q116 165 128 133Q140 101 162 77.5Q184 54 215 40.5Q246 27 284 27Q326 27 362.5 44.5Q399 62 425.5 93Q452 124 467.5 165.5Q483 207 483 254Q483 288 472.5 319.5Q462 351 441 375.5Q420 400 389.5 414.5Q359 429 319 429ZM45 -187Q43 -193 38 -197.5Q33 -202 27 -202H13Q8 -202 4 -197.5Q0 -193 1 -187L155 685Q158 700 172 700H187Q193 700 197.5 696.5Q202 693 200 685L144 370Q172 415 219 441.5Q266 468 321 468Q367 468 405 451.5Q443 435 470 406.5Q497 378 512 339Q527 300 527 254Q527 195 507 146.5Q487 98 454 62.5Q421 27 377 7.5Q333 -12 285 -12Q221 -12 169.5 23.5Q118 59 99 120Z" glyph-name="thorn" horiz-adv-x="567" unicode="þ" /><glyph d="M124 504Q143 610 200.5 672.5Q258 735 352 735Q397 735 428.5 722Q460 709 480 689Q500 669 509 645Q518 621 518 598Q518 568 504.5 542Q491 516 470.5 492.5Q450 469 426.5 449Q403 429 382.5 411.5Q362 394 348.5 379Q335 364 335 352Q335 330 357 306.5Q379 283 406 256Q433 229 455 197.5Q477 166 477 129Q477 96 464.5 69.5Q452 43 430 25Q408 7 378.5 -3Q349 -13 316 -13Q296 -13 275.5 -10Q255 -7 236 1Q225 6 230 17L236 31Q241 43 255 38Q269 33 285 29.5Q301 26 317 26Q365 26 398.5 53Q432 80 432 128Q432 158 410 186Q388 214 361.5 240.5Q335 267 313 293Q291 319 291 346Q291 364 304.5 383Q318 402 338.5 421.5Q359 441 383 461Q407 481 427.5 502.5Q448 524 461.5 547Q475 570 475 594Q475 614 467.5 632.5Q460 651 445 665.5Q430 680 407 688.5Q384 697 354 697Q316 697 285 682.5Q254 668 230 642.5Q206 617 190 580.5Q174 544 167 501L82 15Q80 6 75 3Q70 0 64 0H49Q43 0 39 3.5Q35 7 37 15L124 504Z" glyph-name="germandbls" horiz-adv-x="519" unicode="ß" /><glyph d="M140 456 162 576Q174 645 214 677.5Q254 710 308 710Q332 710 354.5 703.5Q377 697 392 684Q403 675 394 665L385 655Q379 648 373 650Q367 652 362 656Q347 666 332.5 669Q318 672 305 672Q268 672 240.5 646.5Q213 621 205 578L106 15Q103 0 89 0H75Q69 0 65 3.5Q61 7 63 15L134 418H60Q55 418 51 422.5Q47 427 49 433L51 443Q54 456 67 456Z" glyph-name="longs" horiz-adv-x="227" unicode="ſ" /><glyph d="M49 0Q43 0 39 4.5Q35 9 37 15L112 441Q113 447 118.5 451.5Q124 456 130 456H143Q149 456 153 451.5Q157 447 156 441L80 15Q79 9 74 4.5Q69 0 63 0Z" glyph-name="dotlessi" horiz-adv-x="192" unicode="ı" /><glyph d="M112 441Q113 447 117.5 451.5Q122 456 130 456H143Q159 456 156 441L61 -91Q48 -161 9.5 -193Q-29 -225 -80 -225Q-114 -225 -137 -216Q-160 -207 -171 -197Q-178 -190 -170 -179L-165 -172Q-160 -165 -154 -164Q-148 -163 -143 -167Q-129 -177 -112 -182Q-95 -187 -81 -187Q-43 -187 -16.5 -161.5Q10 -136 18 -93Z" glyph-name="dotlessj" horiz-adv-x="192" unicode="ȷ" /><glyph d="M162 576Q174 645 214 677.5Q254 710 308 710Q332 710 354 703.5Q376 697 392 684Q403 675 394 665L385 655Q379 649 373 650.5Q367 652 362 656Q348 664 335 668Q322 672 305 672Q268 672 240.5 646.5Q213 621 205 578L184 456H391Q397 456 400.5 451.5Q404 447 403 441L328 15Q327 9 321.5 4.5Q316 0 310 0H297Q291 0 286.5 4Q282 8 284 15L355 418H177L106 15Q103 0 89 0H75Q69 0 65 4Q61 8 63 15L134 418H60Q55 418 51 422.5Q47 427 49 433L51 443Q54 456 67 456H140Z" glyph-name="fi" horiz-adv-x="440" unicode="ﬁ" /><glyph d="M60 418Q55 418 51 422.5Q47 427 49 433L51 443Q54 456 67 456H140L162 576Q168 611 181.5 634.5Q195 658 213 672.5Q231 687 252 693.5Q273 700 295 700H319Q324 700 328 697Q332 694 330 687L327 673Q324 662 314 662H301Q221 661 205 578L184 456H362L402 685Q405 700 418 700H434Q440 700 444 696Q448 692 446 685L344 109Q332 38 390 38H421Q427 38 431 34.5Q435 31 433 24L431 13Q428 0 414 0H380Q362 0 345.5 5.5Q329 11 317 23.5Q305 36 300 57Q295 78 300 108L355 418H177L106 15Q103 0 89 0H75Q69 0 65 4Q61 8 63 15L134 418Z" glyph-name="fl" horiz-adv-x="469" unicode="ﬂ" /><glyph d="M510 456Q517 456 520.5 451.5Q524 447 522 441L520 431Q517 418 501 418H398L327 15Q324 0 310 0H296Q290 0 286 4Q282 8 284 15L355 418H177L106 15Q103 0 89 0H75Q69 0 65 4Q61 8 63 15L134 418H60Q55 418 51 422.5Q47 427 49 433L51 443Q54 456 67 456H140L163 582Q169 616 182.5 639Q196 662 213.5 675.5Q231 689 252 694.5Q273 700 295 700H319Q324 700 328 696.5Q332 693 330 687L327 673Q324 662 314 662H301Q221 661 205 578L184 456H361L383 576Q395 645 435 677.5Q475 710 529 710Q553 710 575.5 703Q598 696 613 684Q624 675 615 665L606 654Q601 647 594.5 649.5Q588 652 583 656Q569 665 554 668.5Q539 672 526 672Q489 672 461.5 646.5Q434 621 426 578L405 456Z" glyph-name="f_f" horiz-adv-x="495" unicode="ﬀ" /><glyph d="M355 418 177 418L106 15Q103 0 89 0H75Q69 0 65 4Q61 8 63 15L134 418H60Q55 418 51 422.5Q47 427 49 433L51 443Q54 456 67 456H140L163 582Q169 616 182.5 639Q196 662 213.5 675.5Q231 689 252 694.5Q273 700 295 700H319Q332 700 330 687L327 673Q325 662 314 662H301Q221 661 205 578L184 456H361L383 576Q395 645 435 677.5Q475 710 529 710Q553 710 575.5 703.5Q598 697 613 684Q624 676 615 665L606 655Q600 649 594 650.5Q588 652 583 656Q569 665 554 668.5Q539 672 526 672Q489 672 461.5 646.5Q434 621 426 578L405 456H612Q618 456 621.5 451.5Q625 447 624 441L549 15Q547 7 542 3.5Q537 0 531 0H517Q511 0 507 3.5Q503 7 505 15L576 418H399L308 -91Q295 -161 256.5 -193Q218 -225 167 -225Q133 -225 110 -216Q87 -207 76 -197Q68 -189 77 -179L82 -172Q87 -165 93 -164Q99 -163 104 -167Q118 -177 135 -182Q152 -187 166 -187Q204 -187 230.5 -161.5Q257 -136 265 -93Z" glyph-name="f_f_i" horiz-adv-x="660" unicode="ﬃ" /><glyph d="M531 -12Q467 -12 415.5 23.5Q364 59 345 120L327 15Q324 0 310 0H296Q290 0 285.5 3.5Q281 7 283 15L354 418H177L106 15Q103 0 89 0H75Q69 0 65 4Q61 8 63 15L134 418H60Q55 418 51 422.5Q47 427 49 433L51 443Q54 456 67 456H140L162 576Q168 611 181.5 634.5Q195 658 213 672.5Q231 687 252 693.5Q273 700 295 700H319Q332 700 330 687L327 673Q325 662 314 662H301Q221 661 205 578L184 456H361L401 685Q402 691 406 695.5Q410 700 418 700H432Q438 700 442.5 696Q447 692 445 685L388 369Q415 414 463 441Q511 468 567 468Q613 468 651 451.5Q689 435 716 406.5Q743 378 758 339Q773 300 773 254Q773 195 753 146.5Q733 98 700 62.5Q667 27 623 7.5Q579 -12 531 -12ZM565 429Q524 429 487 411Q450 393 422 362.5Q394 332 378 290.5Q362 249 362 201Q362 165 374 133Q386 101 408 77.5Q430 54 461 40.5Q492 27 530 27Q572 27 608.5 44.5Q645 62 671.5 93Q698 124 713.5 165.5Q729 207 729 254Q729 288 718.5 319.5Q708 351 687 375.5Q666 400 635.5 414.5Q605 429 565 429Z" glyph-name="f_b" horiz-adv-x="813" unicode="" /><glyph d="M786 429Q745 429 708 411Q671 393 643 362.5Q615 332 599 290.5Q583 249 583 201Q583 165 595 133Q607 101 629 77.5Q651 54 682 40.5Q713 27 751 27Q793 27 829.5 44.5Q866 62 892.5 93Q919 124 934.5 165.5Q950 207 950 254Q950 288 939.5 319.5Q929 351 908 375.5Q887 400 856.5 414.5Q826 429 786 429ZM177 418 106 15Q105 9 100 4.5Q95 0 89 0H75Q69 0 65 4.5Q61 9 63 15L134 418H60Q55 418 51 422.5Q47 427 49 433L51 443Q54 456 67 456H140L163 582Q169 616 182.5 639Q196 662 213.5 675.5Q231 689 252 694.5Q273 700 295 700H319Q332 700 330 687L327 673Q325 662 314 662H301Q221 661 205 578L184 456H361L384 582Q390 616 403.5 639Q417 662 434.5 675.5Q452 689 473 694.5Q494 700 516 700H540Q546 700 549.5 696Q553 692 551 687L548 673Q548 662 535 662H522Q443 661 426 578L405 456H582L622 685Q623 691 627 695.5Q631 700 639 700H653Q659 700 663 695.5Q667 691 666 685L609 369Q636 414 684 441Q732 468 788 468Q834 468 872 451.5Q910 435 937 406.5Q964 378 979 339Q994 300 994 254Q994 195 974 146.5Q954 98 921 62.5Q888 27 844 7.5Q800 -12 752 -12Q688 -12 636.5 23.5Q585 59 566 120L548 15Q545 0 531 0H517Q511 0 506.5 3.5Q502 7 504 15L575 418H399L308 -91Q295 -161 256.5 -193Q218 -225 167 -225Q133 -225 110 -216Q87 -207 76 -197Q68 -189 77 -179L82 -172Q87 -165 93 -164Q99 -163 104 -167Q118 -177 135 -182Q152 -187 166 -187Q204 -187 230.5 -161.5Q257 -136 265 -93L355 418Z" glyph-name="f_f_b" horiz-adv-x="1034" unicode="" /><glyph d="M604 576Q616 645 656 677.5Q696 710 750 710Q774 710 796.5 703.5Q819 697 834 684Q845 675 836 665L827 655Q821 649 815 650.5Q809 652 804 656Q790 665 775 668.5Q760 672 747 672Q710 672 682.5 646.5Q655 621 647 578L626 456H731Q738 456 741.5 451.5Q745 447 743 441L741 431Q738 418 722 418H619L548 15Q545 0 531 0H517Q511 0 507 4Q503 8 505 15L576 418H399L308 -91Q295 -161 256.5 -193Q218 -225 167 -225Q133 -225 110 -216Q87 -207 76 -197Q69 -190 77 -179L82 -172Q87 -165 93 -164Q99 -163 104 -167Q118 -177 135 -182Q152 -187 166 -187Q204 -187 230.5 -161.5Q257 -136 265 -93L355 418H177L106 15Q103 0 89 0H75Q69 0 65 3.5Q61 7 63 15L134 418H60Q55 418 51 422.5Q47 427 49 433L51 443Q54 456 67 456H140L163 582Q169 616 182.5 639Q196 662 213.5 675.5Q231 689 252 694.5Q273 700 295 700H319Q324 700 328 696.5Q332 693 330 687L327 673Q325 662 314 662H301Q221 661 205 578L184 456H361L384 582Q390 616 403.5 639Q417 662 434.5 675.5Q452 689 473 694.5Q494 700 516 700H540Q554 700 551 687L548 673Q546 662 535 662H522Q443 661 426 578L405 456H582Z" glyph-name="f_f_f" horiz-adv-x="716" unicode="" /><glyph d="M177 418 106 15Q103 0 89 0H75Q69 0 65 3.5Q61 7 63 15L134 418H60Q55 418 51 422.5Q47 427 49 433L51 443Q54 456 67 456H140L163 582Q169 616 182.5 639Q196 662 213.5 675.5Q231 689 252 694.5Q273 700 295 700H319Q324 700 328 696.5Q332 693 330 687L327 673Q325 662 314 662H301Q221 661 205 578L184 456H361L384 582Q390 616 403.5 639Q417 662 434.5 675.5Q452 689 473 694.5Q494 700 516 700H540Q554 700 551 687L548 673Q546 662 535 662H522Q443 661 426 578L405 456H582L622 685Q625 700 638 700H654Q660 700 664 696.5Q668 693 666 685L609 365Q637 411 684.5 439.5Q732 468 795 468Q840 468 874.5 453.5Q909 439 931 413Q953 387 961 350.5Q969 314 961 269L916 15Q914 7 909 3.5Q904 0 898 0H883Q869 0 872 15L916 261Q930 342 895.5 385.5Q861 429 786 429Q747 429 714 415.5Q681 402 655.5 377.5Q630 353 612.5 319.5Q595 286 588 247L547 15Q544 0 530 0H515Q501 0 504 15L575 418H399L308 -91Q295 -161 256.5 -193Q218 -225 167 -225Q133 -225 110 -216Q87 -207 76 -197Q69 -190 77 -179L82 -172Q87 -165 93 -164Q99 -163 104 -167Q118 -177 135 -182Q152 -187 166 -187Q204 -187 230.5 -161.5Q257 -136 265 -93L355 418Z" glyph-name="f_f_h" horiz-adv-x="1021" unicode="" /><glyph d="M383 576Q395 645 435 677.5Q475 710 529 710Q553 710 575.5 703Q598 696 613 684Q624 675 615 665L606 655Q600 649 594 650.5Q588 652 583 656Q569 665 554 668.5Q539 672 526 672Q489 672 461.5 646.5Q434 621 426 578L405 456H611Q617 456 621.5 452.5Q626 449 624 441L529 -91Q516 -161 477.5 -193Q439 -225 388 -225Q354 -225 331 -216Q308 -207 297 -197Q290 -190 298 -179L303 -172Q308 -165 314 -164Q320 -163 325 -167Q339 -177 356 -182Q373 -187 387 -187Q425 -187 451.5 -161.5Q478 -136 486 -93L576 418H398L327 15Q324 0 310 0H296Q290 0 286 3.5Q282 7 284 15L355 418H177L106 15Q103 0 89 0H75Q69 0 65 3.5Q61 7 63 15L134 418H60Q55 418 51 422.5Q47 427 49 433L51 443Q54 456 67 456H140L163 582Q169 616 182.5 639Q196 662 213.5 675.5Q231 689 252 694.5Q273 700 295 700H319Q324 700 328 697Q332 694 330 687L327 673Q324 662 314 662H301Q221 661 205 578L184 456H361Z" glyph-name="f_f_j" horiz-adv-x="660" unicode="" /><glyph d="M177 418 106 15Q103 0 89 0H75Q69 0 65 3.5Q61 7 63 15L134 418H60Q55 418 51 422.5Q47 427 49 433L51 443Q54 456 67 456H140L163 582Q169 616 182.5 639Q196 662 213.5 675.5Q231 689 252 694.5Q273 700 295 700H319Q324 700 328 696.5Q332 693 330 687L327 673Q325 662 314 662H301Q221 661 205 578L184 456H361L384 582Q390 616 403.5 639Q417 662 434.5 675.5Q452 689 473 694.5Q494 700 516 700H540Q554 700 551 687L548 673Q546 662 535 662H522Q443 661 426 578L405 456H582L622 685Q625 700 639 700H653Q669 700 666 685L593 276H672L868 449Q876 456 884 456H921Q926 456 927 452.5Q928 449 925 446L703 255L889 11Q892 7 890.5 3.5Q889 0 884 0H860Q849 0 844.5 3Q840 6 836 11L666 238H587L547 15Q544 0 530 0H516Q501 0 504 15L575 418H399L308 -91Q295 -161 256.5 -193Q218 -225 167 -225Q133 -225 110 -216Q87 -207 76 -197Q69 -190 77 -179L82 -172Q87 -165 93 -164Q99 -163 104 -167Q118 -177 135 -182Q152 -187 166 -187Q204 -187 230.5 -161.5Q257 -136 265 -93L355 418Z" glyph-name="f_f_k" horiz-adv-x="924" unicode="" /><glyph d="M308 -91Q295 -161 256.5 -193Q218 -225 167 -225Q133 -225 110 -216Q87 -207 76 -197Q69 -190 77 -179L82 -172Q87 -165 93 -164Q99 -163 104 -167Q118 -177 135 -182Q152 -187 166 -187Q204 -187 230.5 -161.5Q257 -136 265 -93L355 418H177L106 15Q103 0 89 0H75Q69 0 65 3.5Q61 7 63 15L134 418H60Q55 418 51 422.5Q47 427 49 433L51 443Q54 456 67 456H140L163 582Q169 616 182.5 639Q196 662 213.5 675.5Q231 689 252 694.5Q273 700 295 700H319Q324 700 328 696.5Q332 693 330 687L327 673Q325 662 314 662H301Q221 661 205 578L184 456H361L384 582Q390 616 403.5 639Q417 662 434.5 675.5Q452 689 473 694.5Q494 700 516 700H540Q554 700 551 687L548 673Q546 662 535 662H522Q443 661 426 578L405 456H582L622 685Q625 700 638 700H654Q660 700 664 696Q668 692 666 685L564 109Q552 38 610 38H641Q655 38 653 24L651 13Q649 0 634 0H600Q582 0 565.5 5.5Q549 11 537 23.5Q525 36 520 57Q515 78 520 108L575 418H399Z" glyph-name="f_f_l" horiz-adv-x="689" unicode="ﬄ" /><glyph d="M167 -225Q133 -225 110 -216Q87 -207 76 -197Q69 -190 77 -179L82 -172Q87 -165 93 -164Q99 -163 104 -167Q118 -177 135 -182Q152 -187 166 -187Q204 -187 230.5 -161.5Q257 -136 265 -93L355 418H177L106 15Q103 0 89 0H75Q69 0 65 3.5Q61 7 63 15L134 418H60Q55 418 51 422.5Q47 427 49 433L51 443Q54 456 67 456H140L163 582Q169 616 182.5 639Q196 662 213.5 675.5Q231 689 252 694.5Q273 700 295 700H319Q324 700 328 696.5Q332 693 330 687L327 673Q325 662 314 662H301Q221 661 205 578L184 456H361L384 582Q390 616 403.5 639Q417 662 434.5 675.5Q452 689 473 694.5Q494 700 516 700H540Q554 700 551 687L548 673Q546 662 535 662H522Q443 661 426 578L405 456H582L610 615Q613 630 630 630H641Q657 630 654 615L626 456H776Q782 456 786.5 452.5Q791 449 789 441L787 430Q785 418 770 418H619L568 127Q563 103 566 85.5Q569 68 578 56.5Q587 45 600.5 39.5Q614 34 630 34Q647 34 664.5 39.5Q682 45 698 53Q708 58 712.5 56Q717 54 721 48L727 38Q733 28 721 21Q678 -5 627 -5Q600 -5 578 4.5Q556 14 542 31Q528 48 523 71.5Q518 95 524 124L576 418H399L308 -91Q295 -161 256.5 -193Q218 -225 167 -225Z" glyph-name="f_f_t" horiz-adv-x="767" unicode="" /><glyph d="M75 0Q69 0 65 4Q61 8 63 15L134 418H60Q55 418 51 422.5Q47 427 49 433L51 443Q54 456 67 456H140L163 582Q169 616 182.5 639Q196 662 213.5 675.5Q231 689 252 694.5Q273 700 295 700H319Q324 700 328 696.5Q332 693 330 687L327 673Q324 662 314 662H301Q221 661 205 578L184 456H362L402 685Q405 700 418 700H434Q440 700 444 696.5Q448 693 446 685L389 365Q417 411 464.5 439.5Q512 468 575 468Q620 468 654.5 453.5Q689 439 711 413Q733 387 741 350.5Q749 314 741 269L696 15Q694 7 689 3.5Q684 0 678 0H663Q649 0 652 15L696 261Q710 342 675.5 385.5Q641 429 566 429Q527 429 494 415.5Q461 402 435.5 377.5Q410 353 392.5 319.5Q375 286 368 247L327 15Q324 0 310 0H295Q281 0 284 15L355 418H177L106 15Q103 0 89 0Z" glyph-name="f_h" horiz-adv-x="801" unicode="" /><glyph d="M162 576Q174 645 214 677.5Q254 710 308 710Q332 710 354 703.5Q376 697 392 684Q403 675 394 665L385 655Q379 649 373 650.5Q367 652 362 656Q348 664 335 668Q322 672 305 672Q268 672 240.5 646.5Q213 621 205 578L184 456H390Q406 456 403 441L308 -91Q295 -161 256.5 -193Q218 -225 167 -225Q133 -225 110 -216Q87 -207 76 -197Q69 -190 77 -179L82 -172Q87 -165 93 -164Q99 -163 104 -167Q118 -177 135 -182Q152 -187 166 -187Q204 -187 230.5 -161.5Q257 -136 265 -93L355 418H177L106 15Q103 0 89 0H75Q69 0 65 3.5Q61 7 63 15L134 418H60Q55 418 51 422.5Q47 427 49 433L51 443Q54 456 67 456H140Z" glyph-name="f_j" horiz-adv-x="439" unicode="" /><glyph d="M106 15Q103 0 89 0H75Q69 0 65 4Q61 8 63 15L134 418H60Q55 418 51 422.5Q47 427 49 433L51 443Q54 456 67 456H140L163 582Q169 616 182.5 639Q196 662 213.5 675.5Q231 689 252 694.5Q273 700 295 700H319Q324 700 328 696.5Q332 693 330 687L327 673Q324 662 314 662H301Q221 661 205 578L184 456H362L402 685Q405 700 419 700H433Q449 700 446 685L373 276H452L648 449Q656 456 664 456H702Q706 456 707.5 452.5Q709 449 705 446L483 255L669 11Q672 7 670.5 3.5Q669 0 664 0H640Q629 0 624.5 3Q620 6 616 11L446 238H367L327 15Q324 0 310 0H296Q281 0 284 15L355 418H177L106 15Z" glyph-name="f_k" horiz-adv-x="704" unicode="" /><glyph d="M406 -5Q379 -5 357 4.5Q335 14 321 31Q307 48 302 71.5Q297 95 303 124L355 418H177L106 15Q103 0 89 0H75Q69 0 65 4Q61 8 63 15L134 418H60Q55 418 51 422.5Q47 427 49 433L51 443Q54 456 67 456H140L162 576Q168 611 181.5 634.5Q195 658 213 672.5Q231 687 252 693.5Q273 700 295 700H319Q324 700 328 696.5Q332 693 330 687L327 673Q324 662 314 662H301Q221 661 205 578L184 456H361L389 615Q392 630 409 630H420Q436 630 433 615L405 456H555Q561 456 565.5 452.5Q570 449 568 441L566 430Q563 418 549 418H398L347 127Q342 103 345 85.5Q348 68 357 56.5Q366 45 379.5 39.5Q393 34 409 34Q426 34 443.5 39.5Q461 45 477 53Q487 58 491.5 56Q496 54 500 48L506 38Q512 28 500 21Q457 -5 406 -5Z" glyph-name="f_t" horiz-adv-x="546" unicode="" /><glyph d="M470 -5Q443 -5 421 4.5Q399 14 385 31Q371 48 366 71.5Q361 95 367 124L419 418H173L122 127Q117 103 120 85.5Q123 68 132 56.5Q141 45 154.5 39.5Q168 34 184 34Q201 34 218.5 39.5Q236 45 252 53Q262 58 266.5 56Q271 54 275 48L281 38Q287 28 275 21Q232 -5 181 -5Q154 -5 132 4.5Q110 14 96 31Q82 48 77 71.5Q72 95 78 124L130 418H56Q41 418 44 433L46 443Q48 451 52.5 453.5Q57 456 63 456H136L164 615Q167 630 184 630H195Q211 630 208 615L180 456H425L453 615Q456 630 473 630H484Q500 630 497 615L469 456H619Q625 456 629.5 452.5Q634 449 632 441L630 430Q628 418 613 418H462L411 127Q406 103 409 85.5Q412 68 421 56.5Q430 45 443.5 39.5Q457 34 473 34Q490 34 507.5 39.5Q525 45 541 53Q551 58 555.5 56Q560 54 564 48L570 38Q576 28 564 21Q521 -5 470 -5Z" glyph-name="t_t" horiz-adv-x="610" unicode="" /><glyph d="M389 654 163 255H476ZM26 14Q18 0 6 0H-14Q-19 0 -21.5 4.5Q-24 9 -21 14L364 687Q371 700 383 700H406Q419 700 423 686L575 14Q578 0 565 0H545Q532 0 529 14L485 216H141ZM524 920Q530 920 532.5 915.5Q535 911 531 906L434 777Q429 771 426 769Q423 767 416 767H400Q395 767 392.5 771Q390 775 394 780L477 906Q481 911 484.5 915.5Q488 920 497 920H524Z" glyph-name="Aacute" horiz-adv-x="627" unicode="Á" /><glyph d="M389 654 163 255H476ZM26 14Q18 0 6 0H-14Q-19 0 -21.5 4.5Q-24 9 -21 14L364 687Q371 700 383 700H406Q419 700 423 686L575 14Q578 0 565 0H545Q532 0 529 14L485 216H141ZM442 920Q455 920 462 907L528 780Q530 775 528.5 771Q527 767 519 767H505Q494 767 488 777L432 878L340 777Q330 767 320 767H302Q296 767 294 771Q292 775 296 780L407 907Q419 920 433 920Z" glyph-name="Acircumflex" horiz-adv-x="627" unicode="Â" /><glyph d="M389 654 163 255H476ZM26 14Q18 0 6 0H-14Q-19 0 -21.5 4.5Q-24 9 -21 14L364 687Q371 700 383 700H406Q419 700 423 686L575 14Q578 0 565 0H545Q532 0 529 14L485 216H141ZM333 774Q319 774 309 784Q299 794 299 808Q299 822 309 832Q319 842 333 842Q347 842 357 832Q367 822 367 808Q367 794 357 784Q347 774 333 774ZM484 774Q470 774 460 784Q450 794 450 808Q450 822 460 832Q470 842 484 842Q498 842 508 832Q518 822 518 808Q518 794 508 784Q498 774 484 774Z" glyph-name="Adieresis" horiz-adv-x="627" unicode="Ä" /><glyph d="M389 654 163 255H476ZM26 14Q18 0 6 0H-14Q-19 0 -21.5 4.5Q-24 9 -21 14L364 687Q371 700 383 700H406Q419 700 423 686L575 14Q578 0 565 0H545Q532 0 529 14L485 216H141ZM319 920Q328 920 332 915.5Q336 911 340 906L422 780Q426 775 423 771Q420 767 415 767H400Q393 767 389.5 769.5Q386 772 382 777L285 906Q281 911 284 915.5Q287 920 293 920Z" glyph-name="Agrave" horiz-adv-x="627" unicode="À" /><glyph d="M389 654 163 255H476ZM26 14Q18 0 6 0H-14Q-19 0 -21.5 4.5Q-24 9 -21 14L364 687Q371 700 383 700H406Q419 700 423 686L575 14Q578 0 565 0H545Q532 0 529 14L485 216H141ZM413 944Q453 944 482 916.5Q511 889 512 846Q511 803 482 775.5Q453 748 413 748Q373 748 344 775.5Q315 803 314 846Q315 889 344 916.5Q373 944 413 944ZM413 783Q440 783 456.5 801.5Q473 820 473 846Q473 872 456.5 890.5Q440 909 413 909Q386 909 369.5 890.5Q353 872 353 846Q353 820 369.5 801.5Q386 783 413 783Z" glyph-name="Aring" horiz-adv-x="627" unicode="Å" /><glyph d="M389 654 163 255H476ZM26 14Q18 0 6 0H-14Q-19 0 -21.5 4.5Q-24 9 -21 14L364 687Q371 700 383 700H406Q419 700 423 686L575 14Q578 0 565 0H545Q532 0 529 14L485 216H141ZM354 856Q367 856 386 850.5Q405 845 424.5 839Q444 833 460.5 827.5Q477 822 485 822Q495 822 502 826Q509 830 520 846Q528 859 541 854L549 851Q554 849 556 843.5Q558 838 555 833Q544 813 527.5 798Q511 783 485 783Q472 783 453 788.5Q434 794 414.5 800Q395 806 378.5 811.5Q362 817 354 817Q344 817 337 813Q330 809 319 793Q311 780 298 785L290 788Q285 790 283 795.5Q281 801 284 806Q295 826 311.5 841Q328 856 354 856Z" glyph-name="Atilde" horiz-adv-x="627" unicode="Ã" /><glyph d="M389 654 163 255H476ZM26 14Q18 0 6 0H-14Q-19 0 -21.5 4.5Q-24 9 -21 14L364 687Q371 700 383 700H406Q419 700 423 686L575 14Q578 0 565 0H545Q532 0 529 14L485 216H141ZM360 855Q356 841 359.5 830Q363 819 371 812Q379 805 391 801.5Q403 798 416 798Q445 798 464.5 811.5Q484 825 489 854L491 863Q492 869 498 869H522Q529 869 528 862L526 851Q518 809 489.5 785.5Q461 762 413 762Q366 762 340 788.5Q314 815 322 853L324 862Q326 869 332 869H358Q364 869 362 863L360 855Z" glyph-name="Abreve" horiz-adv-x="627" unicode="Ă" /><glyph d="M389 654 163 255H476ZM26 14Q18 0 6 0H-14Q-19 0 -21.5 4.5Q-24 9 -21 14L364 687Q371 700 383 700H406Q419 700 423 686L575 14Q578 0 565 0H545Q532 0 529 14L485 216H141ZM312 790Q297 790 301 804L303 812Q305 818 309 822.5Q313 827 321 827H521Q535 827 532 813L530 805Q526 790 512 790Z" glyph-name="Amacron" horiz-adv-x="627" unicode="Ā" /><glyph d="M389 654 163 255H476ZM26 14Q18 0 6 0H-14Q-19 0 -21.5 4.5Q-24 9 -21 14L364 687Q371 700 383 700H406Q419 700 423 686L575 14Q578 0 565 0H545Q532 0 529 14L485 216H141ZM440 -130Q440 -109 451.5 -87.5Q463 -66 479.5 -47Q496 -28 515 -12.5Q534 3 549 12L565 10L567 1Q550 -14 535 -30Q520 -46 508 -62.5Q496 -79 489 -94.5Q482 -110 482 -122Q482 -151 517 -151Q531 -151 538.5 -148.5Q546 -146 549 -146Q557 -146 555 -155L553 -167Q552 -172 546 -175Q540 -178 532 -180Q524 -182 516 -183Q508 -184 502 -184Q471 -184 455.5 -168.5Q440 -153 440 -130Z" glyph-name="Aogonek" horiz-adv-x="627" unicode="Ą" /><glyph d="M111 311Q111 250 130.5 198.5Q150 147 186 109Q222 71 272 49.5Q322 28 383 28Q482 28 552.5 78.5Q623 129 667 210Q671 217 674 220Q677 223 684 223H704Q710 223 712.5 218Q715 213 712 208Q689 157 655 116.5Q621 76 578 47.5Q535 19 484.5 3.5Q434 -12 378 -12Q309 -12 251.5 12Q194 36 153 79Q112 122 89 181Q66 240 66 310Q66 397 97 470.5Q128 544 180.5 597.5Q233 651 301 681.5Q369 712 444 712Q499 712 547 696.5Q595 681 633.5 652Q672 623 700 582Q728 541 742 491Q746 478 732 478H713Q703 478 700 486Q671 571 605 621.5Q539 672 439 672Q372 672 312.5 643.5Q253 615 208 566.5Q163 518 137 452Q111 386 111 311ZM403 2 321 -129Q313 -141 302 -141H287Q282 -141 279 -137.5Q276 -134 281 -127L357 2Z" glyph-name="Ccedilla" horiz-adv-x="739" unicode="Ç" /><glyph d="M111 311Q111 250 130.5 198.5Q150 147 186 109Q222 71 272 49.5Q322 28 383 28Q482 28 552.5 78.5Q623 129 667 210Q671 217 674 220Q677 223 684 223H704Q710 223 712.5 218Q715 213 712 208Q689 157 655 116.5Q621 76 578 47.5Q535 19 484.5 3.5Q434 -12 378 -12Q309 -12 251.5 12Q194 36 153 79Q112 122 89 181Q66 240 66 310Q66 397 97 470.5Q128 544 180.5 597.5Q233 651 301 681.5Q369 712 444 712Q499 712 547 696.5Q595 681 633.5 652Q672 623 700 582Q728 541 742 491Q746 478 732 478H713Q703 478 700 486Q671 571 605 621.5Q539 672 439 672Q372 672 312.5 643.5Q253 615 208 566.5Q163 518 137 452Q111 386 111 311ZM574 919Q580 919 582.5 914.5Q585 910 581 905L484 776Q479 770 476 768Q473 766 466 766H450Q445 766 442.5 770Q440 774 444 779L527 905Q531 910 534.5 914.5Q538 919 547 919H574Z" glyph-name="Cacute" horiz-adv-x="739" unicode="Ć" /><glyph d="M111 311Q111 250 130.5 198.5Q150 147 186 109Q222 71 272 49.5Q322 28 383 28Q482 28 552.5 78.5Q623 129 667 210Q671 217 674 220Q677 223 684 223H704Q710 223 712.5 218Q715 213 712 208Q689 157 655 116.5Q621 76 578 47.5Q535 19 484.5 3.5Q434 -12 378 -12Q309 -12 251.5 12Q194 36 153 79Q112 122 89 181Q66 240 66 310Q66 397 97 470.5Q128 544 180.5 597.5Q233 651 301 681.5Q369 712 444 712Q499 712 547 696.5Q595 681 633.5 652Q672 623 700 582Q728 541 742 491Q746 478 732 478H713Q703 478 700 486Q671 571 605 621.5Q539 672 439 672Q372 672 312.5 643.5Q253 615 208 566.5Q163 518 137 452Q111 386 111 311ZM456 766Q442 766 436 779L370 906Q368 911 369.5 915Q371 919 379 919H393Q404 919 410 909L466 808L558 909Q568 919 578 919H596Q602 919 604 915Q606 911 602 906L491 779Q479 766 465 766H456Z" glyph-name="Ccaron" horiz-adv-x="739" unicode="Č" /><glyph d="M111 311Q111 250 130.5 198.5Q150 147 186 109Q222 71 272 49.5Q322 28 383 28Q482 28 552.5 78.5Q623 129 667 210Q671 217 674 220Q677 223 684 223H704Q710 223 712.5 218Q715 213 712 208Q689 157 655 116.5Q621 76 578 47.5Q535 19 484.5 3.5Q434 -12 378 -12Q309 -12 251.5 12Q194 36 153 79Q112 122 89 181Q66 240 66 310Q66 397 97 470.5Q128 544 180.5 597.5Q233 651 301 681.5Q369 712 444 712Q499 712 547 696.5Q595 681 633.5 652Q672 623 700 582Q728 541 742 491Q746 478 732 478H713Q703 478 700 486Q671 571 605 621.5Q539 672 439 672Q372 672 312.5 643.5Q253 615 208 566.5Q163 518 137 452Q111 386 111 311ZM492 919Q505 919 512 906L578 779Q580 774 578.5 770Q577 766 569 766H555Q544 766 538 776L482 877L390 776Q380 766 370 766H352Q346 766 344 770Q342 774 346 779L457 906Q469 919 483 919Z" glyph-name="Ccircumflex" horiz-adv-x="739" unicode="Ĉ" /><glyph d="M111 311Q111 250 130.5 198.5Q150 147 186 109Q222 71 272 49.5Q322 28 383 28Q482 28 552.5 78.5Q623 129 667 210Q671 217 674 220Q677 223 684 223H704Q710 223 712.5 218Q715 213 712 208Q689 157 655 116.5Q621 76 578 47.5Q535 19 484.5 3.5Q434 -12 378 -12Q309 -12 251.5 12Q194 36 153 79Q112 122 89 181Q66 240 66 310Q66 397 97 470.5Q128 544 180.5 597.5Q233 651 301 681.5Q369 712 444 712Q499 712 547 696.5Q595 681 633.5 652Q672 623 700 582Q728 541 742 491Q746 478 732 478H713Q703 478 700 486Q671 571 605 621.5Q539 672 439 672Q372 672 312.5 643.5Q253 615 208 566.5Q163 518 137 452Q111 386 111 311ZM461 773Q447 773 437 783Q427 793 427 807Q427 821 437 831Q447 841 461 841Q475 841 485 831Q495 821 495 807Q495 793 485 783Q475 773 461 773Z" glyph-name="Cdotaccent" horiz-adv-x="739" unicode="Ċ" /><glyph d="M368 700Q450 700 512.5 679Q575 658 617 619Q659 580 680.5 525Q702 470 702 403Q702 315 674 241Q646 167 593.5 113.5Q541 60 464 30Q387 0 290 0H72Q67 0 62.5 3.5Q58 7 60 15L178 685Q179 691 184 695.5Q189 700 195 700ZM298 42Q375 42 440.5 66Q506 90 554 136.5Q602 183 629 249.5Q656 316 656 402Q656 465 635.5 513Q615 561 578 593.5Q541 626 488.5 642Q436 658 373 658H218L109 42ZM436 767Q422 767 416 780L350 907Q348 912 349.5 916Q351 920 359 920H373Q384 920 390 910L446 809L538 910Q548 920 558 920H576Q582 920 584 916Q586 912 582 907L471 780Q459 767 445 767H436Z" glyph-name="Dcaron" horiz-adv-x="725" unicode="Ď" /><glyph d="M76 0Q71 0 66.5 3.5Q62 7 64 15L121 336H41Q34 336 30.5 340.5Q27 345 29 351L31 361Q34 376 48 376H128L182 685Q183 691 188 695.5Q193 700 199 700H372Q454 700 516.5 679Q579 658 621 619Q663 580 684.5 525Q706 470 706 403Q706 315 678 241Q650 167 597.5 113.5Q545 60 468 30Q391 0 294 0ZM302 42Q379 42 444.5 66Q510 90 558 136.5Q606 183 633 249.5Q660 316 660 402Q660 465 639.5 513Q619 561 582 593.5Q545 626 492.5 642Q440 658 377 658H222L172 376H405Q410 376 414.5 372.5Q419 369 417 361L415 351Q413 343 408 339.5Q403 336 397 336H165L113 42Z" glyph-name="Dcroat" horiz-adv-x="729" unicode="Đ" /><glyph d="M638 700Q644 700 647.5 695.5Q651 691 650 685L648 673Q647 667 642.5 662.5Q638 658 630 658H218L168 377H379Q385 377 389 372.5Q393 368 391 362L389 350Q388 344 384 339.5Q380 335 372 335H161L109 42H522Q528 42 532 38.5Q536 35 534 27L532 15Q531 9 526.5 4.5Q522 0 514 0H72Q66 0 62 4Q58 8 60 15L178 685Q179 691 183.5 695.5Q188 700 195 700ZM533 920Q539 920 541.5 915.5Q544 911 540 906L443 777Q438 771 435 769Q432 767 425 767H409Q404 767 401.5 771Q399 775 403 780L486 906Q490 911 493.5 915.5Q497 920 506 920H533Z" glyph-name="Eacute" horiz-adv-x="600" unicode="É" /><glyph d="M638 700Q644 700 647.5 695.5Q651 691 650 685L648 673Q647 667 642.5 662.5Q638 658 630 658H218L168 377H379Q385 377 389 372.5Q393 368 391 362L389 350Q388 344 384 339.5Q380 335 372 335H161L109 42H522Q528 42 532 38.5Q536 35 534 27L532 15Q531 9 526.5 4.5Q522 0 514 0H72Q66 0 62 4Q58 8 60 15L178 685Q179 691 183.5 695.5Q188 700 195 700ZM451 920Q464 920 471 907L537 780Q539 775 537.5 771Q536 767 528 767H514Q503 767 497 777L441 878L349 777Q339 767 329 767H311Q305 767 303 771Q301 775 305 780L416 907Q428 920 442 920Z" glyph-name="Ecircumflex" horiz-adv-x="600" unicode="Ê" /><glyph d="M638 700Q644 700 647.5 695.5Q651 691 650 685L648 673Q647 667 642.5 662.5Q638 658 630 658H218L168 377H379Q385 377 389 372.5Q393 368 391 362L389 350Q388 344 384 339.5Q380 335 372 335H161L109 42H522Q528 42 532 38.5Q536 35 534 27L532 15Q531 9 526.5 4.5Q522 0 514 0H72Q66 0 62 4Q58 8 60 15L178 685Q179 691 183.5 695.5Q188 700 195 700ZM342 774Q328 774 318 784Q308 794 308 808Q308 822 318 832Q328 842 342 842Q356 842 366 832Q376 822 376 808Q376 794 366 784Q356 774 342 774ZM493 774Q479 774 469 784Q459 794 459 808Q459 822 469 832Q479 842 493 842Q507 842 517 832Q527 822 527 808Q527 794 517 784Q507 774 493 774Z" glyph-name="Edieresis" horiz-adv-x="600" unicode="Ë" /><glyph d="M638 700Q644 700 647.5 695.5Q651 691 650 685L648 673Q647 667 642.5 662.5Q638 658 630 658H218L168 377H379Q385 377 389 372.5Q393 368 391 362L389 350Q388 344 384 339.5Q380 335 372 335H161L109 42H522Q528 42 532 38.5Q536 35 534 27L532 15Q531 9 526.5 4.5Q522 0 514 0H72Q66 0 62 4Q58 8 60 15L178 685Q179 691 183.5 695.5Q188 700 195 700ZM328 920Q337 920 341 915.5Q345 911 349 906L431 780Q435 775 432 771Q429 767 424 767H409Q402 767 398.5 769.5Q395 772 391 777L294 906Q290 911 293 915.5Q296 920 302 920Z" glyph-name="Egrave" horiz-adv-x="600" unicode="È" /><glyph d="M638 700Q644 700 647.5 695.5Q651 691 650 685L648 673Q647 667 642.5 662.5Q638 658 630 658H218L168 377H379Q385 377 389 372.5Q393 368 391 362L389 350Q388 344 384 339.5Q380 335 372 335H161L109 42H522Q528 42 532 38.5Q536 35 534 27L532 15Q531 9 526.5 4.5Q522 0 514 0H72Q66 0 62 4Q58 8 60 15L178 685Q179 691 183.5 695.5Q188 700 195 700ZM369 855Q365 841 368.5 830Q372 819 380 812Q388 805 400 801.5Q412 798 425 798Q454 798 473.5 811.5Q493 825 498 854L500 863Q501 869 507 869H531Q538 869 537 862L535 851Q527 809 498.5 785.5Q470 762 422 762Q375 762 349 788.5Q323 815 331 853L333 862Q335 869 341 869H367Q373 869 371 863L369 855Z" glyph-name="Ebreve" horiz-adv-x="600" unicode="Ĕ" /><glyph d="M638 700Q644 700 647.5 695.5Q651 691 650 685L648 673Q647 667 642.5 662.5Q638 658 630 658H218L168 377H379Q385 377 389 372.5Q393 368 391 362L389 350Q388 344 384 339.5Q380 335 372 335H161L109 42H522Q528 42 532 38.5Q536 35 534 27L532 15Q531 9 526.5 4.5Q522 0 514 0H72Q66 0 62 4Q58 8 60 15L178 685Q179 691 183.5 695.5Q188 700 195 700ZM415 767Q401 767 395 780L329 907Q327 912 328.5 916Q330 920 338 920H352Q363 920 369 910L425 809L517 910Q527 920 537 920H555Q561 920 563 916Q565 912 561 907L450 780Q438 767 424 767H415Z" glyph-name="Ecaron" horiz-adv-x="600" unicode="Ě" /><glyph d="M638 700Q644 700 647.5 695.5Q651 691 650 685L648 673Q647 667 642.5 662.5Q638 658 630 658H218L168 377H379Q385 377 389 372.5Q393 368 391 362L389 350Q388 344 384 339.5Q380 335 372 335H161L109 42H522Q528 42 532 38.5Q536 35 534 27L532 15Q531 9 526.5 4.5Q522 0 514 0H72Q66 0 62 4Q58 8 60 15L178 685Q179 691 183.5 695.5Q188 700 195 700ZM420 774Q406 774 396 784Q386 794 386 808Q386 822 396 832Q406 842 420 842Q434 842 444 832Q454 822 454 808Q454 794 444 784Q434 774 420 774Z" glyph-name="Edotaccent" horiz-adv-x="600" unicode="Ė" /><glyph d="M638 700Q644 700 647.5 695.5Q651 691 650 685L648 673Q647 667 642.5 662.5Q638 658 630 658H218L168 377H379Q385 377 389 372.5Q393 368 391 362L389 350Q388 344 384 339.5Q380 335 372 335H161L109 42H522Q528 42 532 38.5Q536 35 534 27L532 15Q531 9 526.5 4.5Q522 0 514 0H72Q66 0 62 4Q58 8 60 15L178 685Q179 691 183.5 695.5Q188 700 195 700ZM321 790Q306 790 310 804L312 812Q314 818 318 822.5Q322 827 330 827H530Q544 827 541 813L539 805Q535 790 521 790Z" glyph-name="Emacron" horiz-adv-x="600" unicode="Ē" /><glyph d="M638 700Q644 700 647.5 695.5Q651 691 650 685L648 673Q647 667 642.5 662.5Q638 658 630 658H218L168 377H379Q385 377 389 372.5Q393 368 391 362L389 350Q388 344 384 339.5Q380 335 372 335H161L109 42H522Q528 42 532 38.5Q536 35 534 27L532 15Q531 9 526.5 4.5Q522 0 514 0H72Q66 0 62 4Q58 8 60 15L178 685Q179 691 183.5 695.5Q188 700 195 700ZM338 -130Q338 -109 349.5 -87.5Q361 -66 377.5 -47Q394 -28 413 -12.5Q432 3 447 12L463 10L465 1Q448 -14 433 -30Q418 -46 406 -62.5Q394 -79 387 -94.5Q380 -110 380 -122Q380 -151 415 -151Q429 -151 436.5 -148.5Q444 -146 447 -146Q455 -146 453 -155L451 -167Q450 -172 444 -175Q438 -178 430 -180Q422 -182 414 -183Q406 -184 400 -184Q369 -184 353.5 -168.5Q338 -153 338 -130Z" glyph-name="Eogonek" horiz-adv-x="600" unicode="Ę" /><glyph d="M656 159Q644 134 620.5 104Q597 74 561 48.5Q525 23 475.5 5.5Q426 -12 363 -12Q297 -12 242.5 11Q188 34 148.5 75Q109 116 87 173Q65 230 65 299Q65 386 94.5 461Q124 536 176 592Q228 648 299 680Q370 712 452 712Q506 712 555.5 697Q605 682 645.5 653.5Q686 625 715 584Q744 543 757 492Q760 478 744 478H724Q717 478 715 481.5Q713 485 711 492Q683 577 615 624.5Q547 672 447 672Q375 672 313.5 642.5Q252 613 207 562.5Q162 512 136.5 445Q111 378 111 303Q111 243 129.5 192.5Q148 142 182.5 105.5Q217 69 265.5 48.5Q314 28 373 28Q434 28 483.5 47Q533 66 570.5 98.5Q608 131 633.5 173.5Q659 216 673 263H426Q420 263 416 266.5Q412 270 414 278L416 289Q419 302 431 302H706Q714 302 717.5 297.5Q721 293 720 287L673 15Q672 9 668.5 4.5Q665 0 655 0H644Q636 0 633 4.5Q630 9 631 15L656 159ZM427 855Q423 841 426.5 830Q430 819 438 812Q446 805 458 801.5Q470 798 483 798Q512 798 531.5 811.5Q551 825 556 854L558 863Q559 869 565 869H589Q596 869 595 862L593 851Q585 809 556.5 785.5Q528 762 480 762Q433 762 407 788.5Q381 815 389 853L391 862Q393 869 399 869H425Q431 869 429 863L427 855Z" glyph-name="Gbreve" horiz-adv-x="765" unicode="Ğ" /><glyph d="M656 159Q644 134 620.5 104Q597 74 561 48.5Q525 23 475.5 5.5Q426 -12 363 -12Q297 -12 242.5 11Q188 34 148.5 75Q109 116 87 173Q65 230 65 299Q65 386 94.5 461Q124 536 176 592Q228 648 299 680Q370 712 452 712Q506 712 555.5 697Q605 682 645.5 653.5Q686 625 715 584Q744 543 757 492Q760 478 744 478H724Q717 478 715 481.5Q713 485 711 492Q683 577 615 624.5Q547 672 447 672Q375 672 313.5 642.5Q252 613 207 562.5Q162 512 136.5 445Q111 378 111 303Q111 243 129.5 192.5Q148 142 182.5 105.5Q217 69 265.5 48.5Q314 28 373 28Q434 28 483.5 47Q533 66 570.5 98.5Q608 131 633.5 173.5Q659 216 673 263H426Q420 263 416 266.5Q412 270 414 278L416 289Q419 302 431 302H706Q714 302 717.5 297.5Q721 293 720 287L673 15Q672 9 668.5 4.5Q665 0 655 0H644Q636 0 633 4.5Q630 9 631 15L656 159ZM509 920Q522 920 529 907L595 780Q597 775 595.5 771Q594 767 586 767H572Q561 767 555 777L499 878L407 777Q397 767 387 767H369Q363 767 361 771Q359 775 363 780L474 907Q486 920 500 920Z" glyph-name="Gcircumflex" horiz-adv-x="765" unicode="Ĝ" /><glyph d="M656 159Q644 134 620.5 104Q597 74 561 48.5Q525 23 475.5 5.5Q426 -12 363 -12Q297 -12 242.5 11Q188 34 148.5 75Q109 116 87 173Q65 230 65 299Q65 386 94.5 461Q124 536 176 592Q228 648 299 680Q370 712 452 712Q506 712 555.5 697Q605 682 645.5 653.5Q686 625 715 584Q744 543 757 492Q760 478 744 478H724Q717 478 715 481.5Q713 485 711 492Q683 577 615 624.5Q547 672 447 672Q375 672 313.5 642.5Q252 613 207 562.5Q162 512 136.5 445Q111 378 111 303Q111 243 129.5 192.5Q148 142 182.5 105.5Q217 69 265.5 48.5Q314 28 373 28Q434 28 483.5 47Q533 66 570.5 98.5Q608 131 633.5 173.5Q659 216 673 263H426Q420 263 416 266.5Q412 270 414 278L416 289Q419 302 431 302H706Q714 302 717.5 297.5Q721 293 720 287L673 15Q672 9 668.5 4.5Q665 0 655 0H644Q636 0 633 4.5Q630 9 631 15L656 159ZM334 -64Q338 -57 341.5 -53.5Q345 -50 354 -50H371Q376 -50 379 -54.5Q382 -59 379 -64L313 -183Q309 -190 305.5 -193.5Q302 -197 294 -197H279Q273 -197 269.5 -193.5Q266 -190 270 -183L334 -64Z" glyph-name="Gcommaaccent" horiz-adv-x="765" unicode="Ģ" /><glyph d="M656 159Q644 134 620.5 104Q597 74 561 48.5Q525 23 475.5 5.5Q426 -12 363 -12Q297 -12 242.5 11Q188 34 148.5 75Q109 116 87 173Q65 230 65 299Q65 386 94.5 461Q124 536 176 592Q228 648 299 680Q370 712 452 712Q506 712 555.5 697Q605 682 645.5 653.5Q686 625 715 584Q744 543 757 492Q760 478 744 478H724Q717 478 715 481.5Q713 485 711 492Q683 577 615 624.5Q547 672 447 672Q375 672 313.5 642.5Q252 613 207 562.5Q162 512 136.5 445Q111 378 111 303Q111 243 129.5 192.5Q148 142 182.5 105.5Q217 69 265.5 48.5Q314 28 373 28Q434 28 483.5 47Q533 66 570.5 98.5Q608 131 633.5 173.5Q659 216 673 263H426Q420 263 416 266.5Q412 270 414 278L416 289Q419 302 431 302H706Q714 302 717.5 297.5Q721 293 720 287L673 15Q672 9 668.5 4.5Q665 0 655 0H644Q636 0 633 4.5Q630 9 631 15L656 159ZM478 774Q464 774 454 784Q444 794 444 808Q444 822 454 832Q464 842 478 842Q492 842 502 832Q512 822 512 808Q512 794 502 784Q492 774 478 774Z" glyph-name="Gdotaccent" horiz-adv-x="765" unicode="Ġ" /><glyph d="M639 377 663 515H193L169 377ZM105 15Q102 0 89 0H72Q58 0 61 15L149 515H82Q77 515 73 519.5Q69 524 70 530L72 542Q74 548 79 552.5Q84 557 90 557H156L179 685Q182 700 196 700H211Q217 700 221 696.5Q225 693 223 685L201 557H671L693 685Q696 700 710 700H725Q731 700 735 696.5Q739 693 737 685L714 557H767Q773 557 777 552.5Q781 548 779 542L777 530Q776 524 771 519.5Q766 515 760 515H707L619 15Q616 0 603 0H586Q572 0 575 15L631 335H161Z" glyph-name="Hbar" horiz-adv-x="754" unicode="Ħ" /><glyph d="M618 15Q615 0 602 0H585Q571 0 574 15L630 335H160L104 15Q101 0 88 0H71Q57 0 60 15L178 685Q181 700 195 700H210Q216 700 220 696.5Q224 693 222 685L168 377H638L692 685Q695 700 709 700H724Q730 700 734 696.5Q738 693 736 685ZM504 920Q517 920 524 907L590 780Q592 775 590.5 771Q589 767 581 767H567Q556 767 550 777L494 878L402 777Q392 767 382 767H364Q358 767 356 771Q354 775 358 780L469 907Q481 920 495 920Z" glyph-name="Hcircumflex" horiz-adv-x="752" unicode="Ĥ" /><glyph d="M71 0Q57 0 60 15L178 685Q181 700 195 700H210Q216 700 220 696.5Q224 693 222 685L104 15Q101 0 88 0ZM328 920Q334 920 336.5 915.5Q339 911 335 906L238 777Q233 771 230 769Q227 767 220 767H204Q199 767 196.5 771Q194 775 198 780L281 906Q285 911 288.5 915.5Q292 920 301 920H328Z" glyph-name="Iacute" horiz-adv-x="238" unicode="Í" /><glyph d="M71 0Q57 0 60 15L178 685Q181 700 195 700H210Q216 700 220 696.5Q224 693 222 685L104 15Q101 0 88 0ZM246 920Q259 920 266 907L332 780Q334 775 332.5 771Q331 767 323 767H309Q298 767 292 777L236 878L144 777Q134 767 124 767H106Q100 767 98 771Q96 775 100 780L211 907Q223 920 237 920Z" glyph-name="Icircumflex" horiz-adv-x="238" unicode="Î" /><glyph d="M71 0Q57 0 60 15L178 685Q181 700 195 700H210Q216 700 220 696.5Q224 693 222 685L104 15Q101 0 88 0ZM137 774Q123 774 113 784Q103 794 103 808Q103 822 113 832Q123 842 137 842Q151 842 161 832Q171 822 171 808Q171 794 161 784Q151 774 137 774ZM288 774Q274 774 264 784Q254 794 254 808Q254 822 264 832Q274 842 288 842Q302 842 312 832Q322 822 322 808Q322 794 312 784Q302 774 288 774Z" glyph-name="Idieresis" horiz-adv-x="238" unicode="Ï" /><glyph d="M71 0Q57 0 60 15L178 685Q181 700 195 700H210Q216 700 220 696.5Q224 693 222 685L104 15Q101 0 88 0ZM123 920Q132 920 136 915.5Q140 911 144 906L226 780Q230 775 227 771Q224 767 219 767H204Q197 767 193.5 769.5Q190 772 186 777L89 906Q85 911 88 915.5Q91 920 97 920Z" glyph-name="Igrave" horiz-adv-x="238" unicode="Ì" /><glyph d="M71 0Q57 0 60 15L178 685Q181 700 195 700H210Q216 700 220 696.5Q224 693 222 685L104 15Q101 0 88 0ZM164 855Q160 841 163.5 830Q167 819 175 812Q183 805 195 801.5Q207 798 220 798Q249 798 268.5 811.5Q288 825 293 854L295 863Q296 869 302 869H326Q333 869 332 862L330 851Q322 809 293.5 785.5Q265 762 217 762Q170 762 144 788.5Q118 815 126 853L128 862Q130 869 136 869H162Q168 869 166 863L164 855Z" glyph-name="Ibreve" horiz-adv-x="238" unicode="Ĭ" /><glyph d="M71 0Q57 0 60 15L178 685Q181 700 195 700H210Q216 700 220 696.5Q224 693 222 685L104 15Q101 0 88 0ZM215 774Q201 774 191 784Q181 794 181 808Q181 822 191 832Q201 842 215 842Q229 842 239 832Q249 822 249 808Q249 794 239 784Q229 774 215 774Z" glyph-name="Idotaccent" horiz-adv-x="238" unicode="İ" /><glyph d="M71 0Q57 0 60 15L178 685Q181 700 195 700H210Q216 700 220 696.5Q224 693 222 685L104 15Q101 0 88 0ZM116 790Q101 790 105 804L107 812Q109 818 113 822.5Q117 827 125 827H325Q339 827 336 813L334 805Q330 790 316 790Z" glyph-name="Imacron" horiz-adv-x="238" unicode="Ī" /><glyph d="M71 0Q57 0 60 15L178 685Q181 700 195 700H210Q216 700 220 696.5Q224 693 222 685L104 15Q101 0 88 0ZM-35 -130Q-35 -109 -23.5 -87.5Q-12 -66 4.5 -47Q21 -28 40 -12.5Q59 3 74 12L90 10L92 1Q75 -14 60 -30Q45 -46 33 -62.5Q21 -79 14 -94.5Q7 -110 7 -122Q7 -151 42 -151Q56 -151 63.5 -148.5Q71 -146 74 -146Q82 -146 80 -155L78 -167Q77 -172 71 -175Q65 -178 57 -180Q49 -182 41 -183Q33 -184 27 -184Q-4 -184 -19.5 -168.5Q-35 -153 -35 -130Z" glyph-name="Iogonek" horiz-adv-x="238" unicode="Į" /><glyph d="M71 0Q57 0 60 15L178 685Q181 700 195 700H210Q216 700 220 696.5Q224 693 222 685L104 15Q101 0 88 0ZM158 856Q171 856 190 850.5Q209 845 228.5 839Q248 833 264.5 827.5Q281 822 289 822Q299 822 306 826Q313 830 324 846Q332 859 345 854L353 851Q358 849 360 843.5Q362 838 359 833Q348 813 331.5 798Q315 783 289 783Q276 783 257 788.5Q238 794 218.5 800Q199 806 182.5 811.5Q166 817 158 817Q148 817 141 813Q134 809 123 793Q115 780 102 785L94 788Q89 790 87 795.5Q85 801 88 806Q99 826 115.5 841Q132 856 158 856Z" glyph-name="Itilde" horiz-adv-x="238" unicode="Ĩ" /><glyph d="M483 205Q466 105 408 46.5Q350 -12 235 -12Q176 -12 133 6Q90 24 63 55.5Q36 87 26 130.5Q16 174 24 224L28 249Q29 255 34 259.5Q39 264 45 264H59Q65 264 68.5 259.5Q72 255 71 249L66 220Q59 178 67.5 142.5Q76 107 98.5 81.5Q121 56 156.5 41.5Q192 27 238 27Q327 27 374 71.5Q421 116 438 211L522 685Q523 691 528.5 695.5Q534 700 540 700H554Q560 700 564 695.5Q568 691 567 685L483 205ZM593 920Q606 920 613 907L679 780Q681 775 679.5 771Q678 767 670 767H656Q645 767 639 777L583 878L491 777Q481 767 471 767H453Q447 767 445 771Q443 775 447 780L558 907Q570 920 584 920Z" glyph-name="Jcircumflex" horiz-adv-x="575" unicode="Ĵ" /><glyph d="M71 0Q57 0 60 15L178 685Q181 700 195 700H210Q216 700 220 696.5Q224 693 222 685L104 15Q101 0 88 0ZM744 205Q727 105 669 46.5Q611 -12 496 -12Q437 -12 394 6Q351 24 324 55.5Q297 87 287 130.5Q277 174 285 224L289 249Q290 255 295 259.5Q300 264 306 264H320Q326 264 329.5 259.5Q333 255 332 249L327 220Q320 178 328.5 142.5Q337 107 359.5 81.5Q382 56 417.5 41.5Q453 27 499 27Q588 27 635 71.5Q682 116 699 211L783 685Q784 691 789.5 695.5Q795 700 801 700H815Q821 700 825 695.5Q829 691 828 685L744 205Z" glyph-name="IJ" horiz-adv-x="836" unicode="Ĳ" /><glyph d="M104 15Q101 0 89 0H70Q57 0 60 15L178 685Q181 700 193 700H211Q225 700 222 685L169 386H280L625 689Q631 694 635.5 697Q640 700 647 700H685Q690 700 691 696Q692 692 688 689L316 366L563 11Q565 8 564 4Q563 0 558 0H529Q517 0 509 11L279 348H163L104 15ZM254 -64Q258 -57 261.5 -53.5Q265 -50 274 -50H291Q296 -50 299 -54.5Q302 -59 299 -64L233 -183Q229 -190 225.5 -193.5Q222 -197 214 -197H199Q193 -197 189.5 -193.5Q186 -190 190 -183L254 -64Z" glyph-name="Kcommaaccent" horiz-adv-x="614" unicode="Ķ" /><glyph d="M482 15Q479 0 465 0H72Q66 0 62 4Q58 8 60 15L178 685Q181 700 195 700H210Q216 700 220 696Q224 692 222 685L109 42H472Q478 42 482 38Q486 34 484 26ZM329 920Q335 920 337.5 915.5Q340 911 336 906L239 777Q234 771 231 769Q228 767 221 767H205Q200 767 197.5 771Q195 775 199 780L282 906Q286 911 289.5 915.5Q293 920 302 920H329Z" glyph-name="Lacute" horiz-adv-x="524" unicode="Ĺ" /><glyph d="M482 15Q479 0 465 0H72Q66 0 62 4Q58 8 60 15L178 685Q181 700 195 700H210Q216 700 220 696Q224 692 222 685L109 42H472Q478 42 482 38Q486 34 484 26ZM485 686Q489 693 492 696.5Q495 700 504 700H522Q527 700 529.5 695.5Q532 691 530 686L457 550Q453 543 449.5 539.5Q446 536 438 536H423Q417 536 414.5 540.5Q412 545 414 550L485 686Z" glyph-name="Lcaron" horiz-adv-x="531" unicode="Ľ" /><glyph d="M482 15Q479 0 465 0H72Q66 0 62 4Q58 8 60 15L178 685Q181 700 195 700H210Q216 700 220 696Q224 692 222 685L109 42H472Q478 42 482 38Q486 34 484 26ZM244 -64Q248 -57 251.5 -53.5Q255 -50 264 -50H281Q286 -50 289 -54.5Q292 -59 289 -64L223 -183Q219 -190 215.5 -193.5Q212 -197 204 -197H189Q183 -197 179.5 -193.5Q176 -190 180 -183L244 -64Z" glyph-name="Lcommaaccent" horiz-adv-x="524" unicode="Ļ" /><glyph d="M482 15Q479 0 465 0H72Q66 0 62 4Q58 8 60 15L178 685Q181 700 195 700H210Q216 700 220 696Q224 692 222 685L109 42H472Q478 42 482 38Q486 34 484 26ZM341 262Q322 262 309 275Q296 288 296 307Q296 326 309 339Q322 352 341 352Q360 352 373 339Q386 326 386 307Q386 288 373 275Q360 262 341 262Z" glyph-name="Ldot" horiz-adv-x="525" unicode="Ŀ" /><glyph d="M211 629 103 15Q100 0 86 0H72Q66 0 62 3.5Q58 7 60 15L178 685Q179 691 183 695.5Q187 700 193 700H209Q222 700 228 688L549 71L657 685Q660 700 674 700H688Q694 700 698.5 696.5Q703 693 701 685L582 15Q579 0 565 0H552Q538 0 532 12ZM398 856Q411 856 430 850.5Q449 845 468.5 839Q488 833 504.5 827.5Q521 822 529 822Q539 822 546 826Q553 830 564 846Q572 859 585 854L593 851Q598 849 600 843.5Q602 838 599 833Q588 813 571.5 798Q555 783 529 783Q516 783 497 788.5Q478 794 458.5 800Q439 806 422.5 811.5Q406 817 398 817Q388 817 381 813Q374 809 363 793Q355 780 342 785L334 788Q329 790 327 795.5Q325 801 328 806Q339 826 355.5 841Q372 856 398 856Z" glyph-name="Ntilde" horiz-adv-x="716" unicode="Ñ" /><glyph d="M211 629 103 15Q100 0 86 0H72Q66 0 62 3.5Q58 7 60 15L178 685Q179 691 183 695.5Q187 700 193 700H209Q222 700 228 688L549 71L657 685Q660 700 674 700H688Q694 700 698.5 696.5Q703 693 701 685L582 15Q579 0 565 0H552Q538 0 532 12ZM568 920Q574 920 576.5 915.5Q579 911 575 906L478 777Q473 771 470 769Q467 767 460 767H444Q439 767 436.5 771Q434 775 438 780L521 906Q525 911 528.5 915.5Q532 920 541 920H568Z" glyph-name="Nacute" horiz-adv-x="716" unicode="Ń" /><glyph d="M211 629 103 15Q100 0 86 0H72Q66 0 62 3.5Q58 7 60 15L178 685Q179 691 183 695.5Q187 700 193 700H209Q222 700 228 688L549 71L657 685Q660 700 674 700H688Q694 700 698.5 696.5Q703 693 701 685L582 15Q579 0 565 0H552Q538 0 532 12ZM450 767Q436 767 430 780L364 907Q362 912 363.5 916Q365 920 373 920H387Q398 920 404 910L460 809L552 910Q562 920 572 920H590Q596 920 598 916Q600 912 596 907L485 780Q473 767 459 767H450Z" glyph-name="Ncaron" horiz-adv-x="716" unicode="Ň" /><glyph d="M211 629 103 15Q100 0 86 0H72Q66 0 62 3.5Q58 7 60 15L178 685Q179 691 183 695.5Q187 700 193 700H209Q222 700 228 688L549 71L657 685Q660 700 674 700H688Q694 700 698.5 696.5Q703 693 701 685L582 15Q579 0 565 0H552Q538 0 532 12ZM300 -64Q304 -57 307.5 -53.5Q311 -50 320 -50H337Q342 -50 345 -54.5Q348 -59 345 -64L279 -183Q275 -190 271.5 -193.5Q268 -197 260 -197H245Q239 -197 235.5 -193.5Q232 -190 236 -183L300 -64Z" glyph-name="Ncommaaccent" horiz-adv-x="716" unicode="Ņ" /><glyph d="M421 -225Q387 -225 364 -216Q341 -207 330 -197Q322 -189 331 -179L336 -172Q341 -165 347 -164Q353 -163 358 -167Q372 -177 388.5 -182Q405 -187 418 -187Q458 -187 484.5 -161.5Q511 -136 519 -93L536 6L532 12L211 629L103 15Q102 9 97 4.5Q92 0 86 0H72Q66 0 62 4.5Q58 9 60 15L178 685Q179 691 183 695.5Q187 700 193 700H209Q222 700 228 688L548 73L657 685Q658 691 663.5 695.5Q669 700 674 700H688Q694 700 698 695.5Q702 691 701 685L563 -91Q551 -161 511.5 -193Q472 -225 421 -225Z" glyph-name="Eng" horiz-adv-x="716" unicode="Ŋ" /><glyph d="M438 712Q507 712 565.5 688Q624 664 666 620.5Q708 577 732 517.5Q756 458 756 388Q756 304 727 231Q698 158 647.5 104Q597 50 529.5 19Q462 -12 384 -12Q315 -12 257 12Q199 36 156.5 79.5Q114 123 90.5 182Q67 241 67 312Q67 396 96 469Q125 542 175 596Q225 650 292.5 681Q360 712 438 712ZM438 672Q369 672 309.5 643.5Q250 615 206.5 566.5Q163 518 138 452.5Q113 387 113 312Q113 252 132.5 200Q152 148 188 109.5Q224 71 274 49.5Q324 28 386 28Q455 28 514 56.5Q573 85 616.5 133.5Q660 182 685 247.5Q710 313 710 388Q710 448 690.5 500Q671 552 635.5 590.5Q600 629 549.5 650.5Q499 672 438 672ZM575 919Q581 919 583.5 914.5Q586 910 582 905L485 776Q480 770 477 768Q474 766 467 766H451Q446 766 443.5 770Q441 774 445 779L528 905Q532 910 535.5 914.5Q539 919 548 919H575Z" glyph-name="Oacute" horiz-adv-x="779" unicode="Ó" /><glyph d="M438 712Q507 712 565.5 688Q624 664 666 620.5Q708 577 732 517.5Q756 458 756 388Q756 304 727 231Q698 158 647.5 104Q597 50 529.5 19Q462 -12 384 -12Q315 -12 257 12Q199 36 156.5 79.5Q114 123 90.5 182Q67 241 67 312Q67 396 96 469Q125 542 175 596Q225 650 292.5 681Q360 712 438 712ZM438 672Q369 672 309.5 643.5Q250 615 206.5 566.5Q163 518 138 452.5Q113 387 113 312Q113 252 132.5 200Q152 148 188 109.5Q224 71 274 49.5Q324 28 386 28Q455 28 514 56.5Q573 85 616.5 133.5Q660 182 685 247.5Q710 313 710 388Q710 448 690.5 500Q671 552 635.5 590.5Q600 629 549.5 650.5Q499 672 438 672ZM493 919Q506 919 513 906L579 779Q581 774 579.5 770Q578 766 570 766H556Q545 766 539 776L483 877L391 776Q381 766 371 766H353Q347 766 345 770Q343 774 347 779L458 906Q470 919 484 919Z" glyph-name="Ocircumflex" horiz-adv-x="779" unicode="Ô" /><glyph d="M438 712Q507 712 565.5 688Q624 664 666 620.5Q708 577 732 517.5Q756 458 756 388Q756 304 727 231Q698 158 647.5 104Q597 50 529.5 19Q462 -12 384 -12Q315 -12 257 12Q199 36 156.5 79.5Q114 123 90.5 182Q67 241 67 312Q67 396 96 469Q125 542 175 596Q225 650 292.5 681Q360 712 438 712ZM438 672Q369 672 309.5 643.5Q250 615 206.5 566.5Q163 518 138 452.5Q113 387 113 312Q113 252 132.5 200Q152 148 188 109.5Q224 71 274 49.5Q324 28 386 28Q455 28 514 56.5Q573 85 616.5 133.5Q660 182 685 247.5Q710 313 710 388Q710 448 690.5 500Q671 552 635.5 590.5Q600 629 549.5 650.5Q499 672 438 672ZM384 773Q370 773 360 783Q350 793 350 807Q350 821 360 831Q370 841 384 841Q398 841 408 831Q418 821 418 807Q418 793 408 783Q398 773 384 773ZM535 773Q521 773 511 783Q501 793 501 807Q501 821 511 831Q521 841 535 841Q549 841 559 831Q569 821 569 807Q569 793 559 783Q549 773 535 773Z" glyph-name="Odieresis" horiz-adv-x="779" unicode="Ö" /><glyph d="M438 712Q507 712 565.5 688Q624 664 666 620.5Q708 577 732 517.5Q756 458 756 388Q756 304 727 231Q698 158 647.5 104Q597 50 529.5 19Q462 -12 384 -12Q315 -12 257 12Q199 36 156.5 79.5Q114 123 90.5 182Q67 241 67 312Q67 396 96 469Q125 542 175 596Q225 650 292.5 681Q360 712 438 712ZM438 672Q369 672 309.5 643.5Q250 615 206.5 566.5Q163 518 138 452.5Q113 387 113 312Q113 252 132.5 200Q152 148 188 109.5Q224 71 274 49.5Q324 28 386 28Q455 28 514 56.5Q573 85 616.5 133.5Q660 182 685 247.5Q710 313 710 388Q710 448 690.5 500Q671 552 635.5 590.5Q600 629 549.5 650.5Q499 672 438 672ZM370 919Q379 919 383 914.5Q387 910 391 905L473 779Q477 774 474 770Q471 766 466 766H451Q444 766 440.5 768.5Q437 771 433 776L336 905Q332 910 335 914.5Q338 919 344 919Z" glyph-name="Ograve" horiz-adv-x="779" unicode="Ò" /><glyph d="M438 712Q507 712 565.5 688Q624 664 666 620.5Q708 577 732 517.5Q756 458 756 388Q756 304 727 231Q698 158 647.5 104Q597 50 529.5 19Q462 -12 384 -12Q315 -12 257 12Q199 36 156.5 79.5Q114 123 90.5 182Q67 241 67 312Q67 396 96 469Q125 542 175 596Q225 650 292.5 681Q360 712 438 712ZM438 672Q369 672 309.5 643.5Q250 615 206.5 566.5Q163 518 138 452.5Q113 387 113 312Q113 252 132.5 200Q152 148 188 109.5Q224 71 274 49.5Q324 28 386 28Q455 28 514 56.5Q573 85 616.5 133.5Q660 182 685 247.5Q710 313 710 388Q710 448 690.5 500Q671 552 635.5 590.5Q600 629 549.5 650.5Q499 672 438 672ZM405 855Q418 855 437 849.5Q456 844 475.5 838Q495 832 511.5 826.5Q528 821 536 821Q546 821 553 825Q560 829 571 845Q579 858 592 853L600 850Q605 848 607 842.5Q609 837 606 832Q595 812 578.5 797Q562 782 536 782Q523 782 504 787.5Q485 793 465.5 799Q446 805 429.5 810.5Q413 816 405 816Q395 816 388 812Q381 808 370 792Q362 779 349 784L341 787Q336 789 334 794.5Q332 800 335 805Q346 825 362.5 840Q379 855 405 855Z" glyph-name="Otilde" horiz-adv-x="779" unicode="Õ" /><glyph d="M438 712Q507 712 565.5 688Q624 664 666 620.5Q708 577 732 517.5Q756 458 756 388Q756 304 727 231Q698 158 647.5 104Q597 50 529.5 19Q462 -12 384 -12Q315 -12 257 12Q199 36 156.5 79.5Q114 123 90.5 182Q67 241 67 312Q67 396 96 469Q125 542 175 596Q225 650 292.5 681Q360 712 438 712ZM438 672Q369 672 309.5 643.5Q250 615 206.5 566.5Q163 518 138 452.5Q113 387 113 312Q113 252 132.5 200Q152 148 188 109.5Q224 71 274 49.5Q324 28 386 28Q455 28 514 56.5Q573 85 616.5 133.5Q660 182 685 247.5Q710 313 710 388Q710 448 690.5 500Q671 552 635.5 590.5Q600 629 549.5 650.5Q499 672 438 672ZM411 854Q407 840 410.5 829Q414 818 422 811Q430 804 442 800.5Q454 797 467 797Q496 797 515.5 810.5Q535 824 540 853L542 862Q543 868 549 868H573Q580 868 579 861L577 850Q569 808 540.5 784.5Q512 761 464 761Q417 761 391 787.5Q365 814 373 852L375 861Q377 868 383 868H409Q415 868 413 862L411 854Z" glyph-name="Obreve" horiz-adv-x="779" unicode="Ŏ" /><glyph d="M438 712Q507 712 565.5 688Q624 664 666 620.5Q708 577 732 517.5Q756 458 756 388Q756 304 727 231Q698 158 647.5 104Q597 50 529.5 19Q462 -12 384 -12Q315 -12 257 12Q199 36 156.5 79.5Q114 123 90.5 182Q67 241 67 312Q67 396 96 469Q125 542 175 596Q225 650 292.5 681Q360 712 438 712ZM438 672Q369 672 309.5 643.5Q250 615 206.5 566.5Q163 518 138 452.5Q113 387 113 312Q113 252 132.5 200Q152 148 188 109.5Q224 71 274 49.5Q324 28 386 28Q455 28 514 56.5Q573 85 616.5 133.5Q660 182 685 247.5Q710 313 710 388Q710 448 690.5 500Q671 552 635.5 590.5Q600 629 549.5 650.5Q499 672 438 672ZM658 919Q664 919 666.5 914.5Q669 910 665 905L568 776Q563 770 560 768Q557 766 550 766H534Q529 766 526.5 770Q524 774 528 779L611 905Q615 910 618.5 914.5Q622 919 631 919ZM518 919Q524 919 526.5 914.5Q529 910 525 905L428 776Q423 770 420 768Q417 766 410 766H394Q389 766 386.5 770Q384 774 388 779L471 905Q475 910 478.5 914.5Q482 919 491 919Z" glyph-name="Ohungarumlaut" horiz-adv-x="779" unicode="Ő" /><glyph d="M438 712Q507 712 565.5 688Q624 664 666 620.5Q708 577 732 517.5Q756 458 756 388Q756 304 727 231Q698 158 647.5 104Q597 50 529.5 19Q462 -12 384 -12Q315 -12 257 12Q199 36 156.5 79.5Q114 123 90.5 182Q67 241 67 312Q67 396 96 469Q125 542 175 596Q225 650 292.5 681Q360 712 438 712ZM438 672Q369 672 309.5 643.5Q250 615 206.5 566.5Q163 518 138 452.5Q113 387 113 312Q113 252 132.5 200Q152 148 188 109.5Q224 71 274 49.5Q324 28 386 28Q455 28 514 56.5Q573 85 616.5 133.5Q660 182 685 247.5Q710 313 710 388Q710 448 690.5 500Q671 552 635.5 590.5Q600 629 549.5 650.5Q499 672 438 672ZM363 789Q348 789 352 803L354 811Q356 817 360 821.5Q364 826 372 826H572Q586 826 583 812L581 804Q577 789 563 789Z" glyph-name="Omacron" horiz-adv-x="779" unicode="Ō" /><glyph d="M402 350Q462 350 503.5 366Q545 382 570.5 407Q596 432 607.5 462.5Q619 493 619 522Q619 584 577.5 622Q536 660 456 660H218L163 350ZM104 15Q101 0 87 0H72Q66 0 62 4Q58 8 60 15L178 685Q179 691 184 695.5Q189 700 195 700H454Q556 700 610 651.5Q664 603 664 524Q664 502 656.5 469.5Q649 437 626.5 405.5Q604 374 562 348.5Q520 323 451 315L609 13Q615 0 601 0H576Q565 0 559 13L403 310H156ZM546 920Q552 920 554.5 915.5Q557 911 553 906L456 777Q451 771 448 769Q445 767 438 767H422Q417 767 414.5 771Q412 775 416 780L499 906Q503 911 506.5 915.5Q510 920 519 920H546Z" glyph-name="Racute" horiz-adv-x="672" unicode="Ŕ" /><glyph d="M402 350Q462 350 503.5 366Q545 382 570.5 407Q596 432 607.5 462.5Q619 493 619 522Q619 584 577.5 622Q536 660 456 660H218L163 350ZM104 15Q101 0 87 0H72Q66 0 62 4Q58 8 60 15L178 685Q179 691 184 695.5Q189 700 195 700H454Q556 700 610 651.5Q664 603 664 524Q664 502 656.5 469.5Q649 437 626.5 405.5Q604 374 562 348.5Q520 323 451 315L609 13Q615 0 601 0H576Q565 0 559 13L403 310H156ZM428 767Q414 767 408 780L342 907Q340 912 341.5 916Q343 920 351 920H365Q376 920 382 910L438 809L530 910Q540 920 550 920H568Q574 920 576 916Q578 912 574 907L463 780Q451 767 437 767H428Z" glyph-name="Rcaron" horiz-adv-x="672" unicode="Ř" /><glyph d="M402 350Q462 350 503.5 366Q545 382 570.5 407Q596 432 607.5 462.5Q619 493 619 522Q619 584 577.5 622Q536 660 456 660H218L163 350ZM104 15Q101 0 87 0H72Q66 0 62 4Q58 8 60 15L178 685Q179 691 184 695.5Q189 700 195 700H454Q556 700 610 651.5Q664 603 664 524Q664 502 656.5 469.5Q649 437 626.5 405.5Q604 374 562 348.5Q520 323 451 315L609 13Q615 0 601 0H576Q565 0 559 13L403 310H156ZM279 -64Q283 -57 286.5 -53.5Q290 -50 299 -50H316Q321 -50 324 -54.5Q327 -59 324 -64L258 -183Q254 -190 250.5 -193.5Q247 -197 239 -197H224Q218 -197 214.5 -193.5Q211 -190 215 -183L279 -64Z" glyph-name="Rcommaaccent" horiz-adv-x="672" unicode="Ŗ" /><glyph d="M351 712Q437 712 502.5 680.5Q568 649 606 593Q613 582 599 575L588 569Q576 562 566 576Q528 629 470 651.5Q412 674 347 674Q307 674 272.5 663.5Q238 653 212.5 633.5Q187 614 172.5 586.5Q158 559 158 524Q158 507 163 490.5Q168 474 180.5 458Q193 442 214.5 428Q236 414 268 402L419 345Q491 318 521 276Q551 234 551 184Q551 149 536 114Q521 79 489.5 51Q458 23 410 5.5Q362 -12 296 -12Q239 -12 192.5 2Q146 16 111.5 37.5Q77 59 54.5 85Q32 111 22 134Q20 139 22.5 144.5Q25 150 30 152L43 158Q56 164 64 150Q78 125 100 102.5Q122 80 151.5 63Q181 46 217.5 36Q254 26 297 26Q349 26 388 39.5Q427 53 453.5 74.5Q480 96 493 124.5Q506 153 506 183Q506 267 399 307L244 366Q207 380 182 398Q157 416 141.5 436Q126 456 119.5 478Q113 500 113 523Q113 566 131.5 601Q150 636 182 660.5Q214 685 257.5 698.5Q301 712 351 712ZM390 767Q376 767 370 780L304 907Q302 912 303.5 916Q305 920 313 920H327Q338 920 344 910L400 809L492 910Q502 920 512 920H530Q536 920 538 916Q540 912 536 907L425 780Q413 767 399 767H390Z" glyph-name="Scaron" horiz-adv-x="602" unicode="Š" /><glyph d="M351 712Q437 712 502.5 680.5Q568 649 606 593Q613 582 599 575L588 569Q576 562 566 576Q528 629 470 651.5Q412 674 347 674Q307 674 272.5 663.5Q238 653 212.5 633.5Q187 614 172.5 586.5Q158 559 158 524Q158 507 163 490.5Q168 474 180.5 458Q193 442 214.5 428Q236 414 268 402L419 345Q491 318 521 276Q551 234 551 184Q551 149 536 114Q521 79 489.5 51Q458 23 410 5.5Q362 -12 296 -12Q239 -12 192.5 2Q146 16 111.5 37.5Q77 59 54.5 85Q32 111 22 134Q20 139 22.5 144.5Q25 150 30 152L43 158Q56 164 64 150Q78 125 100 102.5Q122 80 151.5 63Q181 46 217.5 36Q254 26 297 26Q349 26 388 39.5Q427 53 453.5 74.5Q480 96 493 124.5Q506 153 506 183Q506 267 399 307L244 366Q207 380 182 398Q157 416 141.5 436Q126 456 119.5 478Q113 500 113 523Q113 566 131.5 601Q150 636 182 660.5Q214 685 257.5 698.5Q301 712 351 712ZM508 920Q514 920 516.5 915.5Q519 911 515 906L418 777Q413 771 410 769Q407 767 400 767H384Q379 767 376.5 771Q374 775 378 780L461 906Q465 911 468.5 915.5Q472 920 481 920H508Z" glyph-name="Sacute" horiz-adv-x="602" unicode="Ś" /><glyph d="M351 712Q437 712 502.5 680.5Q568 649 606 593Q613 582 599 575L588 569Q576 562 566 576Q528 629 470 651.5Q412 674 347 674Q307 674 272.5 663.5Q238 653 212.5 633.5Q187 614 172.5 586.5Q158 559 158 524Q158 507 163 490.5Q168 474 180.5 458Q193 442 214.5 428Q236 414 268 402L419 345Q491 318 521 276Q551 234 551 184Q551 149 536 114Q521 79 489.5 51Q458 23 410 5.5Q362 -12 296 -12Q239 -12 192.5 2Q146 16 111.5 37.5Q77 59 54.5 85Q32 111 22 134Q20 139 22.5 144.5Q25 150 30 152L43 158Q56 164 64 150Q78 125 100 102.5Q122 80 151.5 63Q181 46 217.5 36Q254 26 297 26Q349 26 388 39.5Q427 53 453.5 74.5Q480 96 493 124.5Q506 153 506 183Q506 267 399 307L244 366Q207 380 182 398Q157 416 141.5 436Q126 456 119.5 478Q113 500 113 523Q113 566 131.5 601Q150 636 182 660.5Q214 685 257.5 698.5Q301 712 351 712ZM284 0 202 -131Q194 -143 183 -143H168Q163 -143 160 -139.5Q157 -136 162 -129L238 0Z" glyph-name="Scedilla" horiz-adv-x="602" unicode="Ş" /><glyph d="M351 712Q437 712 502.5 680.5Q568 649 606 593Q613 582 599 575L588 569Q576 562 566 576Q528 629 470 651.5Q412 674 347 674Q307 674 272.5 663.5Q238 653 212.5 633.5Q187 614 172.5 586.5Q158 559 158 524Q158 507 163 490.5Q168 474 180.5 458Q193 442 214.5 428Q236 414 268 402L419 345Q491 318 521 276Q551 234 551 184Q551 149 536 114Q521 79 489.5 51Q458 23 410 5.5Q362 -12 296 -12Q239 -12 192.5 2Q146 16 111.5 37.5Q77 59 54.5 85Q32 111 22 134Q20 139 22.5 144.5Q25 150 30 152L43 158Q56 164 64 150Q78 125 100 102.5Q122 80 151.5 63Q181 46 217.5 36Q254 26 297 26Q349 26 388 39.5Q427 53 453.5 74.5Q480 96 493 124.5Q506 153 506 183Q506 267 399 307L244 366Q207 380 182 398Q157 416 141.5 436Q126 456 119.5 478Q113 500 113 523Q113 566 131.5 601Q150 636 182 660.5Q214 685 257.5 698.5Q301 712 351 712ZM426 920Q439 920 446 907L512 780Q514 775 512.5 771Q511 767 503 767H489Q478 767 472 777L416 878L324 777Q314 767 304 767H286Q280 767 278 771Q276 775 280 780L391 907Q403 920 417 920Z" glyph-name="Scircumflex" horiz-adv-x="602" unicode="Ŝ" /><glyph d="M351 712Q437 712 502.5 680.5Q568 649 606 593Q613 582 599 575L588 569Q576 562 566 576Q528 629 470 651.5Q412 674 347 674Q307 674 272.5 663.5Q238 653 212.5 633.5Q187 614 172.5 586.5Q158 559 158 524Q158 507 163 490.5Q168 474 180.5 458Q193 442 214.5 428Q236 414 268 402L419 345Q491 318 521 276Q551 234 551 184Q551 149 536 114Q521 79 489.5 51Q458 23 410 5.5Q362 -12 296 -12Q239 -12 192.5 2Q146 16 111.5 37.5Q77 59 54.5 85Q32 111 22 134Q20 139 22.5 144.5Q25 150 30 152L43 158Q56 164 64 150Q78 125 100 102.5Q122 80 151.5 63Q181 46 217.5 36Q254 26 297 26Q349 26 388 39.5Q427 53 453.5 74.5Q480 96 493 124.5Q506 153 506 183Q506 267 399 307L244 366Q207 380 182 398Q157 416 141.5 436Q126 456 119.5 478Q113 500 113 523Q113 566 131.5 601Q150 636 182 660.5Q214 685 257.5 698.5Q301 712 351 712ZM241 -64Q245 -57 248.5 -53.5Q252 -50 261 -50H278Q283 -50 286 -54.5Q289 -59 286 -64L220 -183Q216 -190 212.5 -193.5Q209 -197 201 -197H186Q180 -197 176.5 -193.5Q173 -190 177 -183L241 -64Z" glyph-name="Scommaaccent" horiz-adv-x="602" unicode="Ș" /><glyph d="M289 15Q286 0 272 0H257Q251 0 247 4.5Q243 9 245 15L305 358H185Q179 358 175 362.5Q171 367 172 373L174 385Q176 391 181 395.5Q186 400 192 400H313L358 658H105Q99 658 95.5 662.5Q92 667 94 673L96 685Q97 691 101 695.5Q105 700 111 700H664Q670 700 673.5 695.5Q677 691 676 685L674 673Q671 658 657 658H403L357 400H485Q491 400 495 395.5Q499 391 497 385L495 373Q494 367 488.5 362.5Q483 358 478 358H350L289 15Z" glyph-name="Tbar" horiz-adv-x="616" unicode="Ŧ" /><glyph d="M93 685Q96 700 108 700H661Q667 700 671 696.5Q675 693 673 685L671 673Q668 658 654 658H400L286 15Q283 0 269 0H254Q248 0 244 4Q240 8 242 15L355 658H102Q96 658 93 662.5Q90 667 91 673ZM394 767Q380 767 374 780L308 907Q306 912 307.5 916Q309 920 317 920H331Q342 920 348 910L404 809L496 910Q506 920 516 920H534Q540 920 542 916Q544 912 540 907L429 780Q417 767 403 767H394Z" glyph-name="Tcaron" horiz-adv-x="607" unicode="Ť" /><glyph d="M93 685Q96 700 108 700H661Q667 700 671 696.5Q675 693 673 685L671 673Q668 658 654 658H400L286 15Q283 0 269 0H254Q248 0 244 4Q240 8 242 15L355 658H102Q96 658 93 662.5Q90 667 91 673ZM220 -64Q224 -57 227.5 -53.5Q231 -50 240 -50H257Q262 -50 265 -54.5Q268 -59 265 -64L199 -183Q195 -190 191.5 -193.5Q188 -197 180 -197H165Q159 -197 155.5 -193.5Q152 -190 156 -183L220 -64Z" glyph-name="Tcommaaccent" horiz-adv-x="607" unicode="Ţ" /><glyph d="M93 685Q96 700 108 700H661Q667 700 671 696.5Q675 693 673 685L671 673Q668 658 654 658H400L286 15Q283 0 269 0H254Q248 0 244 4Q240 8 242 15L355 658H102Q96 658 93 662.5Q90 667 91 673ZM220 -64Q224 -57 227.5 -53.5Q231 -50 240 -50H257Q262 -50 265 -54.5Q268 -59 265 -64L199 -183Q195 -190 191.5 -193.5Q188 -197 180 -197H165Q159 -197 155.5 -193.5Q152 -190 156 -183L220 -64Z" glyph-name="uni021A" horiz-adv-x="607" unicode="Ț" /><glyph d="M612 235Q592 121 522 54.5Q452 -12 327 -12Q268 -12 220 5Q172 22 139.5 53.5Q107 85 93 130.5Q79 176 89 233L169 685Q172 700 186 700H202Q216 700 213 685L133 230Q124 181 135.5 143.5Q147 106 174.5 80Q202 54 243 40.5Q284 27 334 27Q424 27 487.5 79.5Q551 132 568 230L648 685Q651 700 666 700H680Q695 700 692 685L612 235ZM559 920Q565 920 567.5 915.5Q570 911 566 906L469 777Q464 771 461 769Q458 767 451 767H435Q430 767 427.5 771Q425 775 429 780L512 906Q516 911 519.5 915.5Q523 920 532 920H559Z" glyph-name="Uacute" horiz-adv-x="699" unicode="Ú" /><glyph d="M612 235Q592 121 522 54.5Q452 -12 327 -12Q268 -12 220 5Q172 22 139.5 53.5Q107 85 93 130.5Q79 176 89 233L169 685Q172 700 186 700H202Q216 700 213 685L133 230Q124 181 135.5 143.5Q147 106 174.5 80Q202 54 243 40.5Q284 27 334 27Q424 27 487.5 79.5Q551 132 568 230L648 685Q651 700 666 700H680Q695 700 692 685L612 235ZM477 920Q490 920 497 907L563 780Q565 775 563.5 771Q562 767 554 767H540Q529 767 523 777L467 878L375 777Q365 767 355 767H337Q331 767 329 771Q327 775 331 780L442 907Q454 920 468 920Z" glyph-name="Ucircumflex" horiz-adv-x="699" unicode="Û" /><glyph d="M612 235Q592 121 522 54.5Q452 -12 327 -12Q268 -12 220 5Q172 22 139.5 53.5Q107 85 93 130.5Q79 176 89 233L169 685Q172 700 186 700H202Q216 700 213 685L133 230Q124 181 135.5 143.5Q147 106 174.5 80Q202 54 243 40.5Q284 27 334 27Q424 27 487.5 79.5Q551 132 568 230L648 685Q651 700 666 700H680Q695 700 692 685L612 235ZM368 774Q354 774 344 784Q334 794 334 808Q334 822 344 832Q354 842 368 842Q382 842 392 832Q402 822 402 808Q402 794 392 784Q382 774 368 774ZM519 774Q505 774 495 784Q485 794 485 808Q485 822 495 832Q505 842 519 842Q533 842 543 832Q553 822 553 808Q553 794 543 784Q533 774 519 774Z" glyph-name="Udieresis" horiz-adv-x="699" unicode="Ü" /><glyph d="M612 235Q592 121 522 54.5Q452 -12 327 -12Q268 -12 220 5Q172 22 139.5 53.5Q107 85 93 130.5Q79 176 89 233L169 685Q172 700 186 700H202Q216 700 213 685L133 230Q124 181 135.5 143.5Q147 106 174.5 80Q202 54 243 40.5Q284 27 334 27Q424 27 487.5 79.5Q551 132 568 230L648 685Q651 700 666 700H680Q695 700 692 685L612 235ZM354 920Q363 920 367 915.5Q371 911 375 906L457 780Q461 775 458 771Q455 767 450 767H435Q428 767 424.5 769.5Q421 772 417 777L320 906Q316 911 319 915.5Q322 920 328 920Z" glyph-name="Ugrave" horiz-adv-x="699" unicode="Ù" /><glyph d="M612 235Q592 121 522 54.5Q452 -12 327 -12Q268 -12 220 5Q172 22 139.5 53.5Q107 85 93 130.5Q79 176 89 233L169 685Q172 700 186 700H202Q216 700 213 685L133 230Q124 181 135.5 143.5Q147 106 174.5 80Q202 54 243 40.5Q284 27 334 27Q424 27 487.5 79.5Q551 132 568 230L648 685Q651 700 666 700H680Q695 700 692 685L612 235ZM395 855Q391 841 394.5 830Q398 819 406 812Q414 805 426 801.5Q438 798 451 798Q480 798 499.5 811.5Q519 825 524 854L526 863Q527 869 533 869H557Q564 869 563 862L561 851Q553 809 524.5 785.5Q496 762 448 762Q401 762 375 788.5Q349 815 357 853L359 862Q361 869 367 869H393Q399 869 397 863L395 855Z" glyph-name="Ubreve" horiz-adv-x="699" unicode="Ŭ" /><glyph d="M612 235Q592 121 522 54.5Q452 -12 327 -12Q268 -12 220 5Q172 22 139.5 53.5Q107 85 93 130.5Q79 176 89 233L169 685Q172 700 186 700H202Q216 700 213 685L133 230Q124 181 135.5 143.5Q147 106 174.5 80Q202 54 243 40.5Q284 27 334 27Q424 27 487.5 79.5Q551 132 568 230L648 685Q651 700 666 700H680Q695 700 692 685L612 235ZM642 920Q648 920 650.5 915.5Q653 911 649 906L552 777Q547 771 544 769Q541 767 534 767H518Q513 767 510.5 771Q508 775 512 780L595 906Q599 911 602.5 915.5Q606 920 615 920ZM502 920Q508 920 510.5 915.5Q513 911 509 906L412 777Q407 771 404 769Q401 767 394 767H378Q373 767 370.5 771Q368 775 372 780L455 906Q459 911 462.5 915.5Q466 920 475 920Z" glyph-name="Uhungarumlaut" horiz-adv-x="699" unicode="Ű" /><glyph d="M612 235Q592 121 522 54.5Q452 -12 327 -12Q268 -12 220 5Q172 22 139.5 53.5Q107 85 93 130.5Q79 176 89 233L169 685Q172 700 186 700H202Q216 700 213 685L133 230Q124 181 135.5 143.5Q147 106 174.5 80Q202 54 243 40.5Q284 27 334 27Q424 27 487.5 79.5Q551 132 568 230L648 685Q651 700 666 700H680Q695 700 692 685L612 235ZM347 790Q332 790 336 804L338 812Q340 818 344 822.5Q348 827 356 827H556Q570 827 567 813L565 805Q561 790 547 790Z" glyph-name="Umacron" horiz-adv-x="699" unicode="Ū" /><glyph d="M612 235Q592 121 522 54.5Q452 -12 327 -12Q268 -12 220 5Q172 22 139.5 53.5Q107 85 93 130.5Q79 176 89 233L169 685Q172 700 186 700H202Q216 700 213 685L133 230Q124 181 135.5 143.5Q147 106 174.5 80Q202 54 243 40.5Q284 27 334 27Q424 27 487.5 79.5Q551 132 568 230L648 685Q651 700 666 700H680Q695 700 692 685L612 235ZM308 -110Q308 -89 319.5 -67.5Q331 -46 347.5 -27Q364 -8 383 7.5Q402 23 417 32L433 30L435 21Q418 6 403 -10Q388 -26 376 -42.5Q364 -59 357 -74.5Q350 -90 350 -102Q350 -131 385 -131Q399 -131 406.5 -128.5Q414 -126 417 -126Q425 -126 423 -135L421 -147Q420 -152 414 -155Q408 -158 400 -160Q392 -162 384 -163Q376 -164 370 -164Q339 -164 323.5 -148.5Q308 -133 308 -110Z" glyph-name="Uogonek" horiz-adv-x="699" unicode="Ų" /><glyph d="M612 235Q592 121 522 54.5Q452 -12 327 -12Q268 -12 220 5Q172 22 139.5 53.5Q107 85 93 130.5Q79 176 89 233L169 685Q172 700 186 700H202Q216 700 213 685L133 230Q124 181 135.5 143.5Q147 106 174.5 80Q202 54 243 40.5Q284 27 334 27Q424 27 487.5 79.5Q551 132 568 230L648 685Q651 700 666 700H680Q695 700 692 685L612 235ZM448 944Q488 944 517 916.5Q546 889 547 846Q546 803 517 775.5Q488 748 448 748Q408 748 379 775.5Q350 803 349 846Q350 889 379 916.5Q408 944 448 944ZM448 783Q475 783 491.5 801.5Q508 820 508 846Q508 872 491.5 890.5Q475 909 448 909Q421 909 404.5 890.5Q388 872 388 846Q388 820 404.5 801.5Q421 783 448 783Z" glyph-name="Uring" horiz-adv-x="699" unicode="Ů" /><glyph d="M612 235Q592 121 522 54.5Q452 -12 327 -12Q268 -12 220 5Q172 22 139.5 53.5Q107 85 93 130.5Q79 176 89 233L169 685Q172 700 186 700H202Q216 700 213 685L133 230Q124 181 135.5 143.5Q147 106 174.5 80Q202 54 243 40.5Q284 27 334 27Q424 27 487.5 79.5Q551 132 568 230L648 685Q651 700 666 700H680Q695 700 692 685L612 235ZM389 856Q402 856 421 850.5Q440 845 459.5 839Q479 833 495.5 827.5Q512 822 520 822Q530 822 537 826Q544 830 555 846Q563 859 576 854L584 851Q589 849 591 843.5Q593 838 590 833Q579 813 562.5 798Q546 783 520 783Q507 783 488 788.5Q469 794 449.5 800Q430 806 413.5 811.5Q397 817 389 817Q379 817 372 813Q365 809 354 793Q346 780 333 785L325 788Q320 790 318 795.5Q316 801 319 806Q330 826 346.5 841Q363 856 389 856Z" glyph-name="Utilde" horiz-adv-x="699" unicode="Ũ" /><glyph d="M256 14Q250 0 234 0H209Q203 0 198 3Q193 6 192 14L99 686Q98 691 102 695.5Q106 700 111 700H129Q140 700 142 686L230 48L548 686Q555 700 569 700H592Q607 700 609 686L708 51L1016 686Q1023 700 1035 700H1057Q1062 700 1064.5 696Q1067 692 1064 686L734 14Q730 6 724 3Q718 0 711 0H689Q673 0 671 14L575 653L256 14ZM709 920Q715 920 717.5 915.5Q720 911 716 906L619 777Q614 771 611 769Q608 767 601 767H585Q580 767 577.5 771Q575 775 579 780L662 906Q666 911 669.5 915.5Q673 920 682 920H709Z" glyph-name="Wacute" horiz-adv-x="1002" unicode="Ẃ" /><glyph d="M256 14Q250 0 234 0H209Q203 0 198 3Q193 6 192 14L99 686Q98 691 102 695.5Q106 700 111 700H129Q140 700 142 686L230 48L548 686Q555 700 569 700H592Q607 700 609 686L708 51L1016 686Q1023 700 1035 700H1057Q1062 700 1064.5 696Q1067 692 1064 686L734 14Q730 6 724 3Q718 0 711 0H689Q673 0 671 14L575 653L256 14ZM627 920Q640 920 647 907L713 780Q715 775 713.5 771Q712 767 704 767H690Q679 767 673 777L617 878L525 777Q515 767 505 767H487Q481 767 479 771Q477 775 481 780L592 907Q604 920 618 920Z" glyph-name="Wcircumflex" horiz-adv-x="1002" unicode="Ŵ" /><glyph d="M256 14Q250 0 234 0H209Q203 0 198 3Q193 6 192 14L99 686Q98 691 102 695.5Q106 700 111 700H129Q140 700 142 686L230 48L548 686Q555 700 569 700H592Q607 700 609 686L708 51L1016 686Q1023 700 1035 700H1057Q1062 700 1064.5 696Q1067 692 1064 686L734 14Q730 6 724 3Q718 0 711 0H689Q673 0 671 14L575 653L256 14ZM518 774Q504 774 494 784Q484 794 484 808Q484 822 494 832Q504 842 518 842Q532 842 542 832Q552 822 552 808Q552 794 542 784Q532 774 518 774ZM669 774Q655 774 645 784Q635 794 635 808Q635 822 645 832Q655 842 669 842Q683 842 693 832Q703 822 703 808Q703 794 693 784Q683 774 669 774Z" glyph-name="Wdieresis" horiz-adv-x="1002" unicode="Ẅ" /><glyph d="M256 14Q250 0 234 0H209Q203 0 198 3Q193 6 192 14L99 686Q98 691 102 695.5Q106 700 111 700H129Q140 700 142 686L230 48L548 686Q555 700 569 700H592Q607 700 609 686L708 51L1016 686Q1023 700 1035 700H1057Q1062 700 1064.5 696Q1067 692 1064 686L734 14Q730 6 724 3Q718 0 711 0H689Q673 0 671 14L575 653L256 14ZM504 920Q513 920 517 915.5Q521 911 525 906L607 780Q611 775 608 771Q605 767 600 767H585Q578 767 574.5 769.5Q571 772 567 777L470 906Q466 911 469 915.5Q472 920 478 920Z" glyph-name="Wgrave" horiz-adv-x="1002" unicode="Ẁ" /><glyph d="M254 0Q248 0 244 4Q240 8 242 15L294 311L103 688Q101 693 103 696.5Q105 700 110 700H137Q148 700 154 688L320 354H323L607 688Q617 700 628 700H659Q664 700 665.5 696.5Q667 693 663 688L339 311L286 15Q283 0 270 0ZM510 920Q516 920 518.5 915.5Q521 911 517 906L420 777Q415 771 412 769Q409 767 402 767H386Q381 767 378.5 771Q376 775 380 780L463 906Q467 911 470.5 915.5Q474 920 483 920H510Z" glyph-name="Yacute" horiz-adv-x="603" unicode="Ý" /><glyph d="M254 0Q248 0 244 4Q240 8 242 15L294 311L103 688Q101 693 103 696.5Q105 700 110 700H137Q148 700 154 688L320 354H323L607 688Q617 700 628 700H659Q664 700 665.5 696.5Q667 693 663 688L339 311L286 15Q283 0 270 0ZM319 774Q305 774 295 784Q285 794 285 808Q285 822 295 832Q305 842 319 842Q333 842 343 832Q353 822 353 808Q353 794 343 784Q333 774 319 774ZM470 774Q456 774 446 784Q436 794 436 808Q436 822 446 832Q456 842 470 842Q484 842 494 832Q504 822 504 808Q504 794 494 784Q484 774 470 774Z" glyph-name="Ydieresis" horiz-adv-x="603" unicode="Ÿ" /><glyph d="M254 0Q248 0 244 4Q240 8 242 15L294 311L103 688Q101 693 103 696.5Q105 700 110 700H137Q148 700 154 688L320 354H323L607 688Q617 700 628 700H659Q664 700 665.5 696.5Q667 693 663 688L339 311L286 15Q283 0 270 0ZM428 920Q441 920 448 907L514 780Q516 775 514.5 771Q513 767 505 767H491Q480 767 474 777L418 878L326 777Q316 767 306 767H288Q282 767 280 771Q278 775 282 780L393 907Q405 920 419 920Z" glyph-name="Ycircumflex" horiz-adv-x="603" unicode="Ŷ" /><glyph d="M254 0Q248 0 244 4Q240 8 242 15L294 311L103 688Q101 693 103 696.5Q105 700 110 700H137Q148 700 154 688L320 354H323L607 688Q617 700 628 700H659Q664 700 665.5 696.5Q667 693 663 688L339 311L286 15Q283 0 270 0ZM305 920Q314 920 318 915.5Q322 911 326 906L408 780Q412 775 409 771Q406 767 401 767H386Q379 767 375.5 769.5Q372 772 368 777L271 906Q267 911 270 915.5Q273 920 279 920Z" glyph-name="Ygrave" horiz-adv-x="603" unicode="Ỳ" /><glyph d="M-10 0Q-26 0 -23 15L-21 26Q-19 33 -14 40Q-9 47 -4 52L560 658H136Q131 658 126 661.5Q121 665 123 673L125 685Q127 693 132 696.5Q137 700 143 700H609Q615 700 619 696.5Q623 693 621 685L620 677Q618 667 611.5 658.5Q605 650 598 643L41 42H513Q519 42 523 38.5Q527 35 525 27L523 15Q521 7 516 3.5Q511 0 505 0ZM380 767Q366 767 360 780L294 907Q292 912 293.5 916Q295 920 303 920H317Q328 920 334 910L390 809L482 910Q492 920 502 920H520Q526 920 528 916Q530 912 526 907L415 780Q403 767 389 767H380Z" glyph-name="Zcaron" horiz-adv-x="578" unicode="Ž" /><glyph d="M-10 0Q-26 0 -23 15L-21 26Q-19 33 -14 40Q-9 47 -4 52L560 658H136Q131 658 126 661.5Q121 665 123 673L125 685Q127 693 132 696.5Q137 700 143 700H609Q615 700 619 696.5Q623 693 621 685L620 677Q618 667 611.5 658.5Q605 650 598 643L41 42H513Q519 42 523 38.5Q527 35 525 27L523 15Q521 7 516 3.5Q511 0 505 0ZM498 920Q504 920 506.5 915.5Q509 911 505 906L408 777Q403 771 400 769Q397 767 390 767H374Q369 767 366.5 771Q364 775 368 780L451 906Q455 911 458.5 915.5Q462 920 471 920H498Z" glyph-name="Zacute" horiz-adv-x="578" unicode="Ź" /><glyph d="M-10 0Q-26 0 -23 15L-21 26Q-19 33 -14 40Q-9 47 -4 52L560 658H136Q131 658 126 661.5Q121 665 123 673L125 685Q127 693 132 696.5Q137 700 143 700H609Q615 700 619 696.5Q623 693 621 685L620 677Q618 667 611.5 658.5Q605 650 598 643L41 42H513Q519 42 523 38.5Q527 35 525 27L523 15Q521 7 516 3.5Q511 0 505 0ZM385 774Q371 774 361 784Q351 794 351 808Q351 822 361 832Q371 842 385 842Q399 842 409 832Q419 822 419 808Q419 794 409 784Q399 774 385 774Z" glyph-name="Zdotaccent" horiz-adv-x="578" unicode="Ż" /><glyph d="M248 27Q289 27 326 45Q363 63 390.5 93.5Q418 124 434.5 165.5Q451 207 451 255Q451 291 439 323Q427 355 405 378.5Q383 402 352 415.5Q321 429 283 429Q241 429 204.5 411Q168 393 141.5 362.5Q115 332 99.5 290.5Q84 249 84 202Q84 168 94.5 136.5Q105 105 126 80.5Q147 56 177.5 41.5Q208 27 248 27ZM40 202Q40 260 60 309Q80 358 113 393.5Q146 429 190 448.5Q234 468 282 468Q346 468 397.5 432.5Q449 397 468 336L486 441Q489 456 503 456H517Q533 456 530 441L454 15Q451 0 437 0H423Q417 0 413 4Q409 8 411 15L424 88Q396 44 349 16Q302 -12 246 -12Q200 -12 162 4.5Q124 21 97 49.5Q70 78 55 117Q40 156 40 202ZM433 676Q439 676 441.5 671.5Q444 667 440 662L343 533Q338 527 335 525Q332 523 325 523H309Q304 523 301.5 527Q299 531 303 536L386 662Q390 667 393.5 671.5Q397 676 406 676H433Z" glyph-name="aacute" horiz-adv-x="566" unicode="á" /><glyph d="M248 27Q289 27 326 45Q363 63 390.5 93.5Q418 124 434.5 165.5Q451 207 451 255Q451 291 439 323Q427 355 405 378.5Q383 402 352 415.5Q321 429 283 429Q241 429 204.5 411Q168 393 141.5 362.5Q115 332 99.5 290.5Q84 249 84 202Q84 168 94.5 136.5Q105 105 126 80.5Q147 56 177.5 41.5Q208 27 248 27ZM40 202Q40 260 60 309Q80 358 113 393.5Q146 429 190 448.5Q234 468 282 468Q346 468 397.5 432.5Q449 397 468 336L486 441Q489 456 503 456H517Q533 456 530 441L454 15Q451 0 437 0H423Q417 0 413 4Q409 8 411 15L424 88Q396 44 349 16Q302 -12 246 -12Q200 -12 162 4.5Q124 21 97 49.5Q70 78 55 117Q40 156 40 202ZM351 676Q364 676 371 663L437 536Q439 531 437.5 527Q436 523 428 523H414Q403 523 397 533L341 634L249 533Q239 523 229 523H211Q205 523 203 527Q201 531 205 536L316 663Q328 676 342 676Z" glyph-name="acircumflex" horiz-adv-x="566" unicode="â" /><glyph d="M248 27Q289 27 326 45Q363 63 390.5 93.5Q418 124 434.5 165.5Q451 207 451 255Q451 291 439 323Q427 355 405 378.5Q383 402 352 415.5Q321 429 283 429Q241 429 204.5 411Q168 393 141.5 362.5Q115 332 99.5 290.5Q84 249 84 202Q84 168 94.5 136.5Q105 105 126 80.5Q147 56 177.5 41.5Q208 27 248 27ZM40 202Q40 260 60 309Q80 358 113 393.5Q146 429 190 448.5Q234 468 282 468Q346 468 397.5 432.5Q449 397 468 336L486 441Q489 456 503 456H517Q533 456 530 441L454 15Q451 0 437 0H423Q417 0 413 4Q409 8 411 15L424 88Q396 44 349 16Q302 -12 246 -12Q200 -12 162 4.5Q124 21 97 49.5Q70 78 55 117Q40 156 40 202ZM242 530Q228 530 218 540Q208 550 208 564Q208 578 218 588Q228 598 242 598Q256 598 266 588Q276 578 276 564Q276 550 266 540Q256 530 242 530ZM393 530Q379 530 369 540Q359 550 359 564Q359 578 369 588Q379 598 393 598Q407 598 417 588Q427 578 427 564Q427 550 417 540Q407 530 393 530Z" glyph-name="adieresis" horiz-adv-x="566" unicode="ä" /><glyph d="M248 27Q289 27 326 45Q363 63 390.5 93.5Q418 124 434.5 165.5Q451 207 451 255Q451 291 439 323Q427 355 405 378.5Q383 402 352 415.5Q321 429 283 429Q241 429 204.5 411Q168 393 141.5 362.5Q115 332 99.5 290.5Q84 249 84 202Q84 168 94.5 136.5Q105 105 126 80.5Q147 56 177.5 41.5Q208 27 248 27ZM40 202Q40 260 60 309Q80 358 113 393.5Q146 429 190 448.5Q234 468 282 468Q346 468 397.5 432.5Q449 397 468 336L486 441Q489 456 503 456H517Q533 456 530 441L454 15Q451 0 437 0H423Q417 0 413 4Q409 8 411 15L424 88Q396 44 349 16Q302 -12 246 -12Q200 -12 162 4.5Q124 21 97 49.5Q70 78 55 117Q40 156 40 202ZM228 676Q237 676 241 671.5Q245 667 249 662L331 536Q335 531 332 527Q329 523 324 523H309Q302 523 298.5 525.5Q295 528 291 533L194 662Q190 667 193 671.5Q196 676 202 676Z" glyph-name="agrave" horiz-adv-x="566" unicode="à" /><glyph d="M248 27Q289 27 326 45Q363 63 390.5 93.5Q418 124 434.5 165.5Q451 207 451 255Q451 291 439 323Q427 355 405 378.5Q383 402 352 415.5Q321 429 283 429Q241 429 204.5 411Q168 393 141.5 362.5Q115 332 99.5 290.5Q84 249 84 202Q84 168 94.5 136.5Q105 105 126 80.5Q147 56 177.5 41.5Q208 27 248 27ZM40 202Q40 260 60 309Q80 358 113 393.5Q146 429 190 448.5Q234 468 282 468Q346 468 397.5 432.5Q449 397 468 336L486 441Q489 456 503 456H517Q533 456 530 441L454 15Q451 0 437 0H423Q417 0 413 4Q409 8 411 15L424 88Q396 44 349 16Q302 -12 246 -12Q200 -12 162 4.5Q124 21 97 49.5Q70 78 55 117Q40 156 40 202ZM322 700Q362 700 391 672.5Q420 645 421 602Q420 559 391 531.5Q362 504 322 504Q282 504 253 531.5Q224 559 223 602Q224 645 253 672.5Q282 700 322 700ZM322 539Q349 539 365.5 557.5Q382 576 382 602Q382 628 365.5 646.5Q349 665 322 665Q295 665 278.5 646.5Q262 628 262 602Q262 576 278.5 557.5Q295 539 322 539Z" glyph-name="aring" horiz-adv-x="566" unicode="å" /><glyph d="M248 27Q289 27 326 45Q363 63 390.5 93.5Q418 124 434.5 165.5Q451 207 451 255Q451 291 439 323Q427 355 405 378.5Q383 402 352 415.5Q321 429 283 429Q241 429 204.5 411Q168 393 141.5 362.5Q115 332 99.5 290.5Q84 249 84 202Q84 168 94.5 136.5Q105 105 126 80.5Q147 56 177.5 41.5Q208 27 248 27ZM40 202Q40 260 60 309Q80 358 113 393.5Q146 429 190 448.5Q234 468 282 468Q346 468 397.5 432.5Q449 397 468 336L486 441Q489 456 503 456H517Q533 456 530 441L454 15Q451 0 437 0H423Q417 0 413 4Q409 8 411 15L424 88Q396 44 349 16Q302 -12 246 -12Q200 -12 162 4.5Q124 21 97 49.5Q70 78 55 117Q40 156 40 202ZM263 612Q276 612 295 606.5Q314 601 333.5 595Q353 589 369.5 583.5Q386 578 394 578Q404 578 411 582Q418 586 429 602Q437 615 450 610L458 607Q463 605 465 599.5Q467 594 464 589Q453 569 436.5 554Q420 539 394 539Q381 539 362 544.5Q343 550 323.5 556Q304 562 287.5 567.5Q271 573 263 573Q253 573 246 569Q239 565 228 549Q220 536 207 541L199 544Q194 546 192 551.5Q190 557 193 562Q204 582 220.5 597Q237 612 263 612Z" glyph-name="atilde" horiz-adv-x="566" unicode="ã" /><glyph d="M248 27Q289 27 326 45Q363 63 390.5 93.5Q418 124 434.5 165.5Q451 207 451 255Q451 291 439 323Q427 355 405 378.5Q383 402 352 415.5Q321 429 283 429Q241 429 204.5 411Q168 393 141.5 362.5Q115 332 99.5 290.5Q84 249 84 202Q84 168 94.5 136.5Q105 105 126 80.5Q147 56 177.5 41.5Q208 27 248 27ZM40 202Q40 260 60 309Q80 358 113 393.5Q146 429 190 448.5Q234 468 282 468Q346 468 397.5 432.5Q449 397 468 336L486 441Q489 456 503 456H517Q533 456 530 441L454 15Q451 0 437 0H423Q417 0 413 4Q409 8 411 15L424 88Q396 44 349 16Q302 -12 246 -12Q200 -12 162 4.5Q124 21 97 49.5Q70 78 55 117Q40 156 40 202ZM269 611Q265 597 268.5 586Q272 575 280 568Q288 561 300 557.5Q312 554 325 554Q354 554 373.5 567.5Q393 581 398 610L400 619Q401 625 407 625H431Q438 625 437 618L435 607Q427 565 398.5 541.5Q370 518 322 518Q275 518 249 544.5Q223 571 231 609L233 618Q235 625 241 625H267Q273 625 271 619L269 611Z" glyph-name="abreve" horiz-adv-x="566" unicode="ă" /><glyph d="M248 27Q289 27 326 45Q363 63 390.5 93.5Q418 124 434.5 165.5Q451 207 451 255Q451 291 439 323Q427 355 405 378.5Q383 402 352 415.5Q321 429 283 429Q241 429 204.5 411Q168 393 141.5 362.5Q115 332 99.5 290.5Q84 249 84 202Q84 168 94.5 136.5Q105 105 126 80.5Q147 56 177.5 41.5Q208 27 248 27ZM40 202Q40 260 60 309Q80 358 113 393.5Q146 429 190 448.5Q234 468 282 468Q346 468 397.5 432.5Q449 397 468 336L486 441Q489 456 503 456H517Q533 456 530 441L454 15Q451 0 437 0H423Q417 0 413 4Q409 8 411 15L424 88Q396 44 349 16Q302 -12 246 -12Q200 -12 162 4.5Q124 21 97 49.5Q70 78 55 117Q40 156 40 202ZM221 546Q206 546 210 560L212 568Q214 574 218 578.5Q222 583 230 583H430Q444 583 441 569L439 561Q435 546 421 546Z" glyph-name="amacron" horiz-adv-x="566" unicode="ā" /><glyph d="M248 27Q289 27 326 45Q363 63 390.5 93.5Q418 124 434.5 165.5Q451 207 451 255Q451 291 439 323Q427 355 405 378.5Q383 402 352 415.5Q321 429 283 429Q241 429 204.5 411Q168 393 141.5 362.5Q115 332 99.5 290.5Q84 249 84 202Q84 168 94.5 136.5Q105 105 126 80.5Q147 56 177.5 41.5Q208 27 248 27ZM40 202Q40 260 60 309Q80 358 113 393.5Q146 429 190 448.5Q234 468 282 468Q346 468 397.5 432.5Q449 397 468 336L486 441Q489 456 503 456H517Q533 456 530 441L454 15Q451 0 437 0H423Q417 0 413 4Q409 8 411 15L424 88Q396 44 349 16Q302 -12 246 -12Q200 -12 162 4.5Q124 21 97 49.5Q70 78 55 117Q40 156 40 202ZM320 -120Q320 -99 331.5 -77.5Q343 -56 359.5 -37Q376 -18 395 -2.5Q414 13 429 22L445 20L447 11Q430 -4 415 -20Q400 -36 388 -52.5Q376 -69 369 -84.5Q362 -100 362 -112Q362 -141 397 -141Q411 -141 418.5 -138.5Q426 -136 429 -136Q437 -136 435 -145L433 -157Q432 -162 426 -165Q420 -168 412 -170Q404 -172 396 -173Q388 -174 382 -174Q351 -174 335.5 -158.5Q320 -143 320 -120Z" glyph-name="aogonek" horiz-adv-x="566" unicode="ą" /><glyph d="M445 89Q416 42 366.5 15Q317 -12 254 -12Q206 -12 167 4.5Q128 21 100 49.5Q72 78 56.5 117Q41 156 41 202Q41 258 59 306.5Q77 355 109.5 391Q142 427 186 447.5Q230 468 283 468Q356 468 403 437.5Q450 407 474 361Q478 354 475.5 349Q473 344 468 342L455 336Q449 333 445 335Q441 337 439 340Q427 359 412.5 375.5Q398 392 379.5 404Q361 416 337 422.5Q313 429 281 429Q241 429 205.5 411.5Q170 394 143 363.5Q116 333 100.5 292.5Q85 252 85 206Q85 164 98 130.5Q111 97 134.5 74Q158 51 189 39Q220 27 256 27Q305 27 342.5 48Q380 69 410 111Q419 123 430 116L443 108Q449 104 448 98.5Q447 93 445 89ZM242 2 160 -129Q152 -141 141 -141H126Q121 -141 118 -137.5Q115 -134 120 -127L196 2Z" glyph-name="ccedilla" horiz-adv-x="499" unicode="ç" /><glyph d="M444 89Q415 42 365.5 15Q316 -12 253 -12Q205 -12 166 4.5Q127 21 99 49.5Q71 78 55.5 117Q40 156 40 202Q40 258 58 306.5Q76 355 108.5 391Q141 427 185 447.5Q229 468 282 468Q355 468 402 437.5Q449 407 473 361Q477 354 474.5 349Q472 344 467 342L454 336Q448 333 444 335Q440 337 438 340Q426 359 411.5 375.5Q397 392 378.5 404Q360 416 336 422.5Q312 429 280 429Q240 429 204.5 411.5Q169 394 142 363.5Q115 333 99.5 292.5Q84 252 84 206Q84 164 97 130.5Q110 97 133.5 74Q157 51 188 39Q219 27 255 27Q304 27 341.5 48Q379 69 409 111Q418 123 429 116L442 108Q448 104 447 98.5Q446 93 444 89ZM423 673Q429 673 431.5 668.5Q434 664 430 659L333 530Q328 524 325 522Q322 520 315 520H299Q294 520 291.5 524Q289 528 293 533L376 659Q380 664 383.5 668.5Q387 673 396 673H423Z" glyph-name="cacute" horiz-adv-x="498" unicode="ć" /><glyph d="M444 89Q415 42 365.5 15Q316 -12 253 -12Q205 -12 166 4.5Q127 21 99 49.5Q71 78 55.5 117Q40 156 40 202Q40 258 58 306.5Q76 355 108.5 391Q141 427 185 447.5Q229 468 282 468Q355 468 402 437.5Q449 407 473 361Q477 354 474.5 349Q472 344 467 342L454 336Q448 333 444 335Q440 337 438 340Q426 359 411.5 375.5Q397 392 378.5 404Q360 416 336 422.5Q312 429 280 429Q240 429 204.5 411.5Q169 394 142 363.5Q115 333 99.5 292.5Q84 252 84 206Q84 164 97 130.5Q110 97 133.5 74Q157 51 188 39Q219 27 255 27Q304 27 341.5 48Q379 69 409 111Q418 123 429 116L442 108Q448 104 447 98.5Q446 93 444 89ZM305 520Q291 520 285 533L219 660Q217 665 218.5 669Q220 673 228 673H242Q253 673 259 663L315 562L407 663Q417 673 427 673H445Q451 673 453 669Q455 665 451 660L340 533Q328 520 314 520H305Z" glyph-name="ccaron" horiz-adv-x="498" unicode="č" /><glyph d="M444 89Q415 42 365.5 15Q316 -12 253 -12Q205 -12 166 4.5Q127 21 99 49.5Q71 78 55.5 117Q40 156 40 202Q40 258 58 306.5Q76 355 108.5 391Q141 427 185 447.5Q229 468 282 468Q355 468 402 437.5Q449 407 473 361Q477 354 474.5 349Q472 344 467 342L454 336Q448 333 444 335Q440 337 438 340Q426 359 411.5 375.5Q397 392 378.5 404Q360 416 336 422.5Q312 429 280 429Q240 429 204.5 411.5Q169 394 142 363.5Q115 333 99.5 292.5Q84 252 84 206Q84 164 97 130.5Q110 97 133.5 74Q157 51 188 39Q219 27 255 27Q304 27 341.5 48Q379 69 409 111Q418 123 429 116L442 108Q448 104 447 98.5Q446 93 444 89ZM341 673Q354 673 361 660L427 533Q429 528 427.5 524Q426 520 418 520H404Q393 520 387 530L331 631L239 530Q229 520 219 520H201Q195 520 193 524Q191 528 195 533L306 660Q318 673 332 673Z" glyph-name="ccircumflex" horiz-adv-x="498" unicode="ĉ" /><glyph d="M444 89Q415 42 365.5 15Q316 -12 253 -12Q205 -12 166 4.5Q127 21 99 49.5Q71 78 55.5 117Q40 156 40 202Q40 258 58 306.5Q76 355 108.5 391Q141 427 185 447.5Q229 468 282 468Q355 468 402 437.5Q449 407 473 361Q477 354 474.5 349Q472 344 467 342L454 336Q448 333 444 335Q440 337 438 340Q426 359 411.5 375.5Q397 392 378.5 404Q360 416 336 422.5Q312 429 280 429Q240 429 204.5 411.5Q169 394 142 363.5Q115 333 99.5 292.5Q84 252 84 206Q84 164 97 130.5Q110 97 133.5 74Q157 51 188 39Q219 27 255 27Q304 27 341.5 48Q379 69 409 111Q418 123 429 116L442 108Q448 104 447 98.5Q446 93 444 89ZM310 527Q296 527 286 537Q276 547 276 561Q276 575 286 585Q296 595 310 595Q324 595 334 585Q344 575 344 561Q344 547 334 537Q324 527 310 527Z" glyph-name="cdotaccent" horiz-adv-x="498" unicode="ċ" /><glyph d="M677 686Q681 693 684 696.5Q687 700 696 700H714Q719 700 721.5 695.5Q724 691 722 686L649 550Q645 543 641.5 539.5Q638 536 630 536H615Q609 536 606.5 540.5Q604 545 606 550L677 686ZM248 27Q289 27 326 45Q363 63 390.5 93.5Q418 124 434.5 165.5Q451 207 451 255Q451 291 439 323Q427 355 405 378.5Q383 402 352 415.5Q321 429 283 429Q241 429 204.5 411Q168 393 141.5 362.5Q115 332 99.5 290.5Q84 249 84 202Q84 168 94.5 136.5Q105 105 126 80.5Q147 56 177.5 41.5Q208 27 248 27ZM424 88Q396 44 349 16Q302 -12 246 -12Q200 -12 162 4.5Q124 21 97 49.5Q70 78 55 117Q40 156 40 202Q40 260 60 309Q80 358 113 393.5Q146 429 190 448.5Q234 468 282 468Q346 468 397.5 432.5Q449 397 468 336L529 685Q532 700 545 700H561Q566 700 570.5 696.5Q575 693 573 685L454 15Q451 0 437 0H423Q417 0 413 4Q409 8 411 15Z" glyph-name="dcaron" horiz-adv-x="578" unicode="ď" /><glyph d="M248 27Q289 27 326 45Q363 63 390.5 93.5Q418 124 434.5 165.5Q451 207 451 255Q451 291 439 323Q427 355 405 378.5Q383 402 352 415.5Q321 429 283 429Q241 429 204.5 411Q168 393 141.5 362.5Q115 332 99.5 290.5Q84 249 84 202Q84 168 94.5 136.5Q105 105 126 80.5Q147 56 177.5 41.5Q208 27 248 27ZM424 88Q396 44 349 16Q302 -12 246 -12Q200 -12 162 4.5Q124 21 97 49.5Q70 78 55 117Q40 156 40 202Q40 260 60 309Q80 358 113 393.5Q146 429 190 448.5Q234 468 282 468Q346 468 397.5 432.5Q449 397 468 336L505 548H357Q351 548 347 552.5Q343 557 344 563L346 571Q347 577 352 581.5Q357 586 363 586H512L529 685Q532 700 545 700H561Q566 700 570.5 696.5Q575 693 573 685L555 586H621Q627 586 630.5 581.5Q634 577 633 571L631 563Q630 557 625 552.5Q620 548 614 548H549L454 15Q453 9 448 4.5Q443 0 437 0H423Q417 0 413 4.5Q409 9 411 15Z" glyph-name="dcroat" horiz-adv-x="566" unicode="đ" /><glyph d="M255 -12Q207 -12 167.5 4.5Q128 21 100 50Q72 79 56.5 118.5Q41 158 41 205Q41 260 59.5 308Q78 356 111.5 391.5Q145 427 190.5 447.5Q236 468 290 468Q333 468 371 454Q409 440 437 414Q465 388 481 350Q497 312 497 264V237Q497 225 490.5 220Q484 215 476 215H85V208Q85 170 97 137Q109 104 131.5 79.5Q154 55 185.5 41Q217 27 255 27Q312 27 351 48.5Q390 70 418 99Q430 111 443 103L452 97Q457 94 457.5 88Q458 82 454 77Q440 60 420.5 44.5Q401 29 376 16Q351 3 321 -4.5Q291 -12 255 -12ZM287 429Q249 429 216 415.5Q183 402 157 378Q131 354 114 322Q97 290 90 253H455Q458 333 413 381Q368 429 287 429ZM412 676Q418 676 420.5 671.5Q423 667 419 662L322 533Q317 527 314 525Q311 523 304 523H288Q283 523 280.5 527Q278 531 282 536L365 662Q369 667 372.5 671.5Q376 676 385 676H412Z" glyph-name="eacute" horiz-adv-x="528" unicode="é" /><glyph d="M255 -12Q207 -12 167.5 4.5Q128 21 100 50Q72 79 56.5 118.5Q41 158 41 205Q41 260 59.5 308Q78 356 111.5 391.5Q145 427 190.5 447.5Q236 468 290 468Q333 468 371 454Q409 440 437 414Q465 388 481 350Q497 312 497 264V237Q497 225 490.5 220Q484 215 476 215H85V208Q85 170 97 137Q109 104 131.5 79.5Q154 55 185.5 41Q217 27 255 27Q312 27 351 48.5Q390 70 418 99Q430 111 443 103L452 97Q457 94 457.5 88Q458 82 454 77Q440 60 420.5 44.5Q401 29 376 16Q351 3 321 -4.5Q291 -12 255 -12ZM287 429Q249 429 216 415.5Q183 402 157 378Q131 354 114 322Q97 290 90 253H455Q458 333 413 381Q368 429 287 429ZM330 676Q343 676 350 663L416 536Q418 531 416.5 527Q415 523 407 523H393Q382 523 376 533L320 634L228 533Q218 523 208 523H190Q184 523 182 527Q180 531 184 536L295 663Q307 676 321 676Z" glyph-name="ecircumflex" horiz-adv-x="528" unicode="ê" /><glyph d="M255 -12Q207 -12 167.5 4.5Q128 21 100 50Q72 79 56.5 118.5Q41 158 41 205Q41 260 59.5 308Q78 356 111.5 391.5Q145 427 190.5 447.5Q236 468 290 468Q333 468 371 454Q409 440 437 414Q465 388 481 350Q497 312 497 264V237Q497 225 490.5 220Q484 215 476 215H85V208Q85 170 97 137Q109 104 131.5 79.5Q154 55 185.5 41Q217 27 255 27Q312 27 351 48.5Q390 70 418 99Q430 111 443 103L452 97Q457 94 457.5 88Q458 82 454 77Q440 60 420.5 44.5Q401 29 376 16Q351 3 321 -4.5Q291 -12 255 -12ZM287 429Q249 429 216 415.5Q183 402 157 378Q131 354 114 322Q97 290 90 253H455Q458 333 413 381Q368 429 287 429ZM221 530Q207 530 197 540Q187 550 187 564Q187 578 197 588Q207 598 221 598Q235 598 245 588Q255 578 255 564Q255 550 245 540Q235 530 221 530ZM372 530Q358 530 348 540Q338 550 338 564Q338 578 348 588Q358 598 372 598Q386 598 396 588Q406 578 406 564Q406 550 396 540Q386 530 372 530Z" glyph-name="edieresis" horiz-adv-x="528" unicode="ë" /><glyph d="M255 -12Q207 -12 167.5 4.5Q128 21 100 50Q72 79 56.5 118.5Q41 158 41 205Q41 260 59.5 308Q78 356 111.5 391.5Q145 427 190.5 447.5Q236 468 290 468Q333 468 371 454Q409 440 437 414Q465 388 481 350Q497 312 497 264V237Q497 225 490.5 220Q484 215 476 215H85V208Q85 170 97 137Q109 104 131.5 79.5Q154 55 185.5 41Q217 27 255 27Q312 27 351 48.5Q390 70 418 99Q430 111 443 103L452 97Q457 94 457.5 88Q458 82 454 77Q440 60 420.5 44.5Q401 29 376 16Q351 3 321 -4.5Q291 -12 255 -12ZM287 429Q249 429 216 415.5Q183 402 157 378Q131 354 114 322Q97 290 90 253H455Q458 333 413 381Q368 429 287 429ZM207 676Q216 676 220 671.5Q224 667 228 662L310 536Q314 531 311 527Q308 523 303 523H288Q281 523 277.5 525.5Q274 528 270 533L173 662Q169 667 172 671.5Q175 676 181 676Z" glyph-name="egrave" horiz-adv-x="528" unicode="è" /><glyph d="M255 -12Q207 -12 167.5 4.5Q128 21 100 50Q72 79 56.5 118.5Q41 158 41 205Q41 260 59.5 308Q78 356 111.5 391.5Q145 427 190.5 447.5Q236 468 290 468Q333 468 371 454Q409 440 437 414Q465 388 481 350Q497 312 497 264V237Q497 225 490.5 220Q484 215 476 215H85V208Q85 170 97 137Q109 104 131.5 79.5Q154 55 185.5 41Q217 27 255 27Q312 27 351 48.5Q390 70 418 99Q430 111 443 103L452 97Q457 94 457.5 88Q458 82 454 77Q440 60 420.5 44.5Q401 29 376 16Q351 3 321 -4.5Q291 -12 255 -12ZM287 429Q249 429 216 415.5Q183 402 157 378Q131 354 114 322Q97 290 90 253H455Q458 333 413 381Q368 429 287 429ZM248 611Q244 597 247.5 586Q251 575 259 568Q267 561 279 557.5Q291 554 304 554Q333 554 352.5 567.5Q372 581 377 610L379 619Q380 625 386 625H410Q417 625 416 618L414 607Q406 565 377.5 541.5Q349 518 301 518Q254 518 228 544.5Q202 571 210 609L212 618Q214 625 220 625H246Q252 625 250 619L248 611Z" glyph-name="ebreve" horiz-adv-x="528" unicode="ĕ" /><glyph d="M255 -12Q207 -12 167.5 4.5Q128 21 100 50Q72 79 56.5 118.5Q41 158 41 205Q41 260 59.5 308Q78 356 111.5 391.5Q145 427 190.5 447.5Q236 468 290 468Q333 468 371 454Q409 440 437 414Q465 388 481 350Q497 312 497 264V237Q497 225 490.5 220Q484 215 476 215H85V208Q85 170 97 137Q109 104 131.5 79.5Q154 55 185.5 41Q217 27 255 27Q312 27 351 48.5Q390 70 418 99Q430 111 443 103L452 97Q457 94 457.5 88Q458 82 454 77Q440 60 420.5 44.5Q401 29 376 16Q351 3 321 -4.5Q291 -12 255 -12ZM287 429Q249 429 216 415.5Q183 402 157 378Q131 354 114 322Q97 290 90 253H455Q458 333 413 381Q368 429 287 429ZM294 523Q280 523 274 536L208 663Q206 668 207.5 672Q209 676 217 676H231Q242 676 248 666L304 565L396 666Q406 676 416 676H434Q440 676 442 672Q444 668 440 663L329 536Q317 523 303 523H294Z" glyph-name="ecaron" horiz-adv-x="528" unicode="ě" /><glyph d="M255 -12Q207 -12 167.5 4.5Q128 21 100 50Q72 79 56.5 118.5Q41 158 41 205Q41 260 59.5 308Q78 356 111.5 391.5Q145 427 190.5 447.5Q236 468 290 468Q333 468 371 454Q409 440 437 414Q465 388 481 350Q497 312 497 264V237Q497 225 490.5 220Q484 215 476 215H85V208Q85 170 97 137Q109 104 131.5 79.5Q154 55 185.5 41Q217 27 255 27Q312 27 351 48.5Q390 70 418 99Q430 111 443 103L452 97Q457 94 457.5 88Q458 82 454 77Q440 60 420.5 44.5Q401 29 376 16Q351 3 321 -4.5Q291 -12 255 -12ZM287 429Q249 429 216 415.5Q183 402 157 378Q131 354 114 322Q97 290 90 253H455Q458 333 413 381Q368 429 287 429ZM299 530Q285 530 275 540Q265 550 265 564Q265 578 275 588Q285 598 299 598Q313 598 323 588Q333 578 333 564Q333 550 323 540Q313 530 299 530Z" glyph-name="edotaccent" horiz-adv-x="528" unicode="ė" /><glyph d="M255 -12Q207 -12 167.5 4.5Q128 21 100 50Q72 79 56.5 118.5Q41 158 41 205Q41 260 59.5 308Q78 356 111.5 391.5Q145 427 190.5 447.5Q236 468 290 468Q333 468 371 454Q409 440 437 414Q465 388 481 350Q497 312 497 264V237Q497 225 490.5 220Q484 215 476 215H85V208Q85 170 97 137Q109 104 131.5 79.5Q154 55 185.5 41Q217 27 255 27Q312 27 351 48.5Q390 70 418 99Q430 111 443 103L452 97Q457 94 457.5 88Q458 82 454 77Q440 60 420.5 44.5Q401 29 376 16Q351 3 321 -4.5Q291 -12 255 -12ZM287 429Q249 429 216 415.5Q183 402 157 378Q131 354 114 322Q97 290 90 253H455Q458 333 413 381Q368 429 287 429ZM200 546Q185 546 189 560L191 568Q193 574 197 578.5Q201 583 209 583H409Q423 583 420 569L418 561Q414 546 400 546Z" glyph-name="emacron" horiz-adv-x="528" unicode="ē" /><glyph d="M255 -12Q207 -12 167.5 4.5Q128 21 100 50Q72 79 56.5 118.5Q41 158 41 205Q41 260 59.5 308Q78 356 111.5 391.5Q145 427 190.5 447.5Q236 468 290 468Q333 468 371 454Q409 440 437 414Q465 388 481 350Q497 312 497 264V237Q497 225 490.5 220Q484 215 476 215H85V208Q85 170 97 137Q109 104 131.5 79.5Q154 55 185.5 41Q217 27 255 27Q312 27 351 48.5Q390 70 418 99Q430 111 443 103L452 97Q457 94 457.5 88Q458 82 454 77Q440 60 420.5 44.5Q401 29 376 16Q351 3 321 -4.5Q291 -12 255 -12ZM287 429Q249 429 216 415.5Q183 402 157 378Q131 354 114 322Q97 290 90 253H455Q458 333 413 381Q368 429 287 429ZM242 -110Q242 -89 253.5 -67.5Q265 -46 281.5 -27Q298 -8 317 7.5Q336 23 351 32L367 30L369 21Q352 6 337 -10Q322 -26 310 -42.5Q298 -59 291 -74.5Q284 -90 284 -102Q284 -131 319 -131Q333 -131 340.5 -128.5Q348 -126 351 -126Q359 -126 357 -135L355 -147Q354 -152 348 -155Q342 -158 334 -160Q326 -162 318 -163Q310 -164 304 -164Q273 -164 257.5 -148.5Q242 -133 242 -110Z" glyph-name="eogonek" horiz-adv-x="528" unicode="ę" /><glyph d="M247 37Q288 37 324 53Q360 69 386.5 98Q413 127 428 167Q443 207 443 255Q443 291 431.5 323Q420 355 398 378.5Q376 402 345.5 415.5Q315 429 277 429Q235 429 200 411.5Q165 394 139.5 364Q114 334 100 294.5Q86 255 86 212Q86 178 96 146.5Q106 115 126.5 90.5Q147 66 177 51.5Q207 37 247 37ZM195 -226Q156 -226 124 -217.5Q92 -209 67 -194.5Q42 -180 23.5 -162Q5 -144 -7 -125Q-9 -121 -8.5 -116.5Q-8 -112 0 -107L12 -100Q20 -95 25 -99Q30 -103 32 -106Q43 -121 58 -136Q73 -151 93.5 -163Q114 -175 140.5 -182Q167 -189 201 -189Q244 -189 277.5 -176Q311 -163 335.5 -140Q360 -117 375.5 -85Q391 -53 398 -15L417 88Q389 44 342.5 21Q296 -2 240 -2Q194 -2 157.5 14.5Q121 31 95.5 59.5Q70 88 56 127Q42 166 42 212Q42 267 60 313.5Q78 360 109.5 394.5Q141 429 183.5 448.5Q226 468 276 468Q340 468 390.5 432.5Q441 397 460 336L478 441Q481 456 495 456H509Q525 456 522 441L441 -15Q433 -60 415 -99Q397 -138 367 -166Q337 -194 294.5 -210Q252 -226 195 -226ZM260 611Q256 597 259.5 586Q263 575 271 568Q279 561 291 557.5Q303 554 316 554Q345 554 364.5 567.5Q384 581 389 610L391 619Q392 625 398 625H422Q429 625 428 618L426 607Q418 565 389.5 541.5Q361 518 313 518Q266 518 240 544.5Q214 571 222 609L224 618Q226 625 232 625H258Q264 625 262 619L260 611Z" glyph-name="gbreve" horiz-adv-x="559" unicode="ğ" /><glyph d="M247 37Q288 37 324 53Q360 69 386.5 98Q413 127 428 167Q443 207 443 255Q443 291 431.5 323Q420 355 398 378.5Q376 402 345.5 415.5Q315 429 277 429Q235 429 200 411.5Q165 394 139.5 364Q114 334 100 294.5Q86 255 86 212Q86 178 96 146.5Q106 115 126.5 90.5Q147 66 177 51.5Q207 37 247 37ZM195 -226Q156 -226 124 -217.5Q92 -209 67 -194.5Q42 -180 23.5 -162Q5 -144 -7 -125Q-9 -121 -8.5 -116.5Q-8 -112 0 -107L12 -100Q20 -95 25 -99Q30 -103 32 -106Q43 -121 58 -136Q73 -151 93.5 -163Q114 -175 140.5 -182Q167 -189 201 -189Q244 -189 277.5 -176Q311 -163 335.5 -140Q360 -117 375.5 -85Q391 -53 398 -15L417 88Q389 44 342.5 21Q296 -2 240 -2Q194 -2 157.5 14.5Q121 31 95.5 59.5Q70 88 56 127Q42 166 42 212Q42 267 60 313.5Q78 360 109.5 394.5Q141 429 183.5 448.5Q226 468 276 468Q340 468 390.5 432.5Q441 397 460 336L478 441Q481 456 495 456H509Q525 456 522 441L441 -15Q433 -60 415 -99Q397 -138 367 -166Q337 -194 294.5 -210Q252 -226 195 -226ZM342 676Q355 676 362 663L428 536Q430 531 428.5 527Q427 523 419 523H405Q394 523 388 533L332 634L240 533Q230 523 220 523H202Q196 523 194 527Q192 531 196 536L307 663Q319 676 333 676Z" glyph-name="gcircumflex" horiz-adv-x="559" unicode="ĝ" /><glyph d="M247 37Q288 37 324 53Q360 69 386.5 98Q413 127 428 167Q443 207 443 255Q443 291 431.5 323Q420 355 398 378.5Q376 402 345.5 415.5Q315 429 277 429Q235 429 200 411.5Q165 394 139.5 364Q114 334 100 294.5Q86 255 86 212Q86 178 96 146.5Q106 115 126.5 90.5Q147 66 177 51.5Q207 37 247 37ZM195 -226Q156 -226 124 -217.5Q92 -209 67 -194.5Q42 -180 23.5 -162Q5 -144 -7 -125Q-9 -121 -8.5 -116.5Q-8 -112 0 -107L12 -100Q20 -95 25 -99Q30 -103 32 -106Q43 -121 58 -136Q73 -151 93.5 -163Q114 -175 140.5 -182Q167 -189 201 -189Q244 -189 277.5 -176Q311 -163 335.5 -140Q360 -117 375.5 -85Q391 -53 398 -15L417 88Q389 44 342.5 21Q296 -2 240 -2Q194 -2 157.5 14.5Q121 31 95.5 59.5Q70 88 56 127Q42 166 42 212Q42 267 60 313.5Q78 360 109.5 394.5Q141 429 183.5 448.5Q226 468 276 468Q340 468 390.5 432.5Q441 397 460 336L478 441Q481 456 495 456H509Q525 456 522 441L441 -15Q433 -60 415 -99Q397 -138 367 -166Q337 -194 294.5 -210Q252 -226 195 -226ZM282 553Q277 553 275 557Q273 561 276 566L362 693Q366 699 369.5 702.5Q373 706 380 706H396Q401 706 404 702.5Q407 699 404 694L328 566Q324 559 320 556Q316 553 307 553H282Z" glyph-name="gcommaaccent" horiz-adv-x="559" unicode="ģ" /><glyph d="M247 37Q288 37 324 53Q360 69 386.5 98Q413 127 428 167Q443 207 443 255Q443 291 431.5 323Q420 355 398 378.5Q376 402 345.5 415.5Q315 429 277 429Q235 429 200 411.5Q165 394 139.5 364Q114 334 100 294.5Q86 255 86 212Q86 178 96 146.5Q106 115 126.5 90.5Q147 66 177 51.5Q207 37 247 37ZM195 -226Q156 -226 124 -217.5Q92 -209 67 -194.5Q42 -180 23.5 -162Q5 -144 -7 -125Q-9 -121 -8.5 -116.5Q-8 -112 0 -107L12 -100Q20 -95 25 -99Q30 -103 32 -106Q43 -121 58 -136Q73 -151 93.5 -163Q114 -175 140.5 -182Q167 -189 201 -189Q244 -189 277.5 -176Q311 -163 335.5 -140Q360 -117 375.5 -85Q391 -53 398 -15L417 88Q389 44 342.5 21Q296 -2 240 -2Q194 -2 157.5 14.5Q121 31 95.5 59.5Q70 88 56 127Q42 166 42 212Q42 267 60 313.5Q78 360 109.5 394.5Q141 429 183.5 448.5Q226 468 276 468Q340 468 390.5 432.5Q441 397 460 336L478 441Q481 456 495 456H509Q525 456 522 441L441 -15Q433 -60 415 -99Q397 -138 367 -166Q337 -194 294.5 -210Q252 -226 195 -226ZM311 530Q297 530 287 540Q277 550 277 564Q277 578 287 588Q297 598 311 598Q325 598 335 588Q345 578 345 564Q345 550 335 540Q325 530 311 530Z" glyph-name="gdotaccent" horiz-adv-x="559" unicode="ġ" /><glyph d="M80 15Q77 0 63 0H48Q42 0 38.5 4.5Q35 9 37 15L131 548H70Q64 548 60 552Q56 556 57 562L59 573Q60 579 65 582.5Q70 586 76 586H138L155 685Q158 700 171 700H187Q193 700 197 696.5Q201 693 199 685L181 586H334Q340 586 343.5 581.5Q347 577 346 571L344 560Q343 554 338 551Q333 548 327 548H175L142 365Q170 411 217.5 439.5Q265 468 328 468Q373 468 407.5 453.5Q442 439 464 413Q486 387 494 350.5Q502 314 494 269L449 15Q447 7 442 3.5Q437 0 431 0H416Q410 0 407 4.5Q404 9 405 15L449 261Q463 342 428.5 385.5Q394 429 319 429Q280 429 247 415.5Q214 402 188.5 377.5Q163 353 145.5 319.5Q128 286 121 247L80 15Z" glyph-name="hbar" horiz-adv-x="554" unicode="ħ" /><glyph d="M80 15Q78 7 73 3.5Q68 0 62 0H48Q34 0 37 15L155 685Q158 700 171 700H187Q193 700 197 696.5Q201 693 199 685L142 365Q170 411 217.5 439.5Q265 468 328 468Q373 468 407.5 453.5Q442 439 464 413Q486 387 494 350.5Q502 314 494 269L449 15Q447 7 442 3.5Q437 0 431 0H416Q402 0 405 15L449 261Q463 342 428.5 385.5Q394 429 319 429Q280 429 247 415.5Q214 402 188.5 377.5Q163 353 145.5 319.5Q128 286 121 247L80 15ZM404 920Q417 920 424 907L490 780Q492 775 490.5 771Q489 767 481 767H467Q456 767 450 777L394 878L302 777Q292 767 282 767H264Q258 767 256 771Q254 775 258 780L369 907Q381 920 395 920Z" glyph-name="hcircumflex" horiz-adv-x="554" unicode="ĥ" /><glyph d="M49 0Q43 0 39 4.5Q35 9 37 15L112 441Q113 447 118.5 451.5Q124 456 130 456H143Q149 456 153 451.5Q157 447 156 441L80 15Q79 9 74 4.5Q69 0 63 0ZM262 676Q268 676 270.5 671.5Q273 667 269 662L172 533Q167 527 164 525Q161 523 154 523H138Q133 523 130.5 527Q128 531 132 536L215 662Q219 667 222.5 671.5Q226 676 235 676H262Z" glyph-name="iacute" horiz-adv-x="192" unicode="í" /><glyph d="M49 0Q43 0 39 4.5Q35 9 37 15L112 441Q113 447 118.5 451.5Q124 456 130 456H143Q149 456 153 451.5Q157 447 156 441L80 15Q79 9 74 4.5Q69 0 63 0ZM180 676Q193 676 200 663L266 536Q268 531 266.5 527Q265 523 257 523H243Q232 523 226 533L170 634L78 533Q68 523 58 523H40Q34 523 32 527Q30 531 34 536L145 663Q157 676 171 676Z" glyph-name="icircumflex" horiz-adv-x="192" unicode="î" /><glyph d="M49 0Q43 0 39 4.5Q35 9 37 15L112 441Q113 447 118.5 451.5Q124 456 130 456H143Q149 456 153 451.5Q157 447 156 441L80 15Q79 9 74 4.5Q69 0 63 0ZM71 530Q57 530 47 540Q37 550 37 564Q37 578 47 588Q57 598 71 598Q85 598 95 588Q105 578 105 564Q105 550 95 540Q85 530 71 530ZM222 530Q208 530 198 540Q188 550 188 564Q188 578 198 588Q208 598 222 598Q236 598 246 588Q256 578 256 564Q256 550 246 540Q236 530 222 530Z" glyph-name="idieresis" horiz-adv-x="192" unicode="ï" /><glyph d="M49 0Q43 0 39 4.5Q35 9 37 15L112 441Q113 447 118.5 451.5Q124 456 130 456H143Q149 456 153 451.5Q157 447 156 441L80 15Q79 9 74 4.5Q69 0 63 0ZM57 676Q66 676 70 671.5Q74 667 78 662L160 536Q164 531 161 527Q158 523 153 523H138Q131 523 127.5 525.5Q124 528 120 533L23 662Q19 667 22 671.5Q25 676 31 676Z" glyph-name="igrave" horiz-adv-x="192" unicode="ì" /><glyph d="M49 0Q43 0 39 4.5Q35 9 37 15L112 441Q113 447 118.5 451.5Q124 456 130 456H143Q149 456 153 451.5Q157 447 156 441L80 15Q79 9 74 4.5Q69 0 63 0ZM98 611Q94 597 97.5 586Q101 575 109 568Q117 561 129 557.5Q141 554 154 554Q183 554 202.5 567.5Q222 581 227 610L229 619Q230 625 236 625H260Q267 625 266 618L264 607Q256 565 227.5 541.5Q199 518 151 518Q104 518 78 544.5Q52 571 60 609L62 618Q64 625 70 625H96Q102 625 100 619L98 611Z" glyph-name="ibreve" horiz-adv-x="192" unicode="ĭ" /><glyph d="M49 0Q43 0 39 4.5Q35 9 37 15L112 441Q113 447 118.5 451.5Q124 456 130 456H143Q149 456 153 451.5Q157 447 156 441L80 15Q79 9 74 4.5Q69 0 63 0ZM50 546Q35 546 39 560L41 568Q43 574 47 578.5Q51 583 59 583H259Q273 583 270 569L268 561Q264 546 250 546Z" glyph-name="imacron" horiz-adv-x="192" unicode="ī" /><glyph d="M49 0Q42 0 39 4.5Q36 9 37 15L112 441Q113 447 117.5 451.5Q122 456 130 456H143Q159 456 156 441L80 15Q77 0 63 0ZM163 587Q148 587 137 598Q126 609 126 625Q126 640 137 651Q148 662 163 662Q178 662 189 651Q200 640 200 625Q200 609 189 598Q178 587 163 587ZM-58 -130Q-58 -109 -46.5 -87.5Q-35 -66 -18.5 -47Q-2 -28 17 -12.5Q36 3 51 12L67 10L69 1Q52 -14 37 -30Q22 -46 10 -62.5Q-2 -79 -9 -94.5Q-16 -110 -16 -122Q-16 -151 19 -151Q33 -151 40.5 -148.5Q48 -146 51 -146Q59 -146 57 -155L55 -167Q54 -172 48 -175Q42 -178 34 -180Q26 -182 18 -183Q10 -184 4 -184Q-27 -184 -42.5 -168.5Q-58 -153 -58 -130Z" glyph-name="iogonek" horiz-adv-x="192" unicode="į" /><glyph d="M49 0Q43 0 39 4.5Q35 9 37 15L112 441Q113 447 118.5 451.5Q124 456 130 456H143Q149 456 153 451.5Q157 447 156 441L80 15Q79 9 74 4.5Q69 0 63 0ZM92 612Q105 612 124 606.5Q143 601 162.5 595Q182 589 198.5 583.5Q215 578 223 578Q233 578 240 582Q247 586 258 602Q266 615 279 610L287 607Q292 605 294 599.5Q296 594 293 589Q282 569 265.5 554Q249 539 223 539Q210 539 191 544.5Q172 550 152.5 556Q133 562 116.5 567.5Q100 573 92 573Q82 573 75 569Q68 565 57 549Q49 536 36 541L28 544Q23 546 21 551.5Q19 557 22 562Q33 582 49.5 597Q66 612 92 612Z" glyph-name="itilde" horiz-adv-x="192" unicode="ĩ" /><glyph d="M112 441Q113 447 117.5 451.5Q122 456 130 456H143Q159 456 156 441L61 -91Q48 -161 9.5 -193Q-29 -225 -80 -225Q-114 -225 -137 -216Q-160 -207 -171 -197Q-178 -190 -170 -179L-165 -172Q-160 -165 -154 -164Q-148 -163 -143 -167Q-129 -177 -112 -182Q-95 -187 -81 -187Q-43 -187 -16.5 -161.5Q10 -136 18 -93ZM180 676Q193 676 200 663L266 536Q268 531 266.5 527Q265 523 257 523H243Q232 523 226 533L170 634L78 533Q68 523 58 523H40Q34 523 32 527Q30 531 34 536L145 663Q157 676 171 676Z" glyph-name="jcircumflex" horiz-adv-x="192" unicode="ĵ" /><glyph d="M49 0Q42 0 39 4.5Q36 9 37 15L112 441Q113 447 117.5 451.5Q122 456 130 456H143Q159 456 156 441L80 15Q77 0 63 0ZM163 587Q148 587 137 598Q126 609 126 625Q126 640 137 651Q148 662 163 662Q178 662 189 651Q200 640 200 625Q200 609 189 598Q178 587 163 587ZM303 441Q304 447 308.5 451.5Q313 456 321 456H334Q350 456 347 441L252 -91Q239 -161 200.5 -193Q162 -225 111 -225Q77 -225 54 -216Q31 -207 20 -197Q13 -190 21 -179L26 -172Q31 -165 37 -164Q43 -163 48 -167Q62 -177 79 -182Q96 -187 110 -187Q148 -187 174.5 -161.5Q201 -136 209 -93ZM354 587Q339 587 328 598Q317 609 317 625Q317 640 328 651Q339 662 354 662Q369 662 380 651Q391 640 391 625Q391 609 380 598Q369 587 354 587Z" glyph-name="ij" horiz-adv-x="383" unicode="ĳ" /><glyph d="M80 15Q77 0 62 0H49Q34 0 37 15L155 685Q158 700 172 700H186Q202 700 199 685L126 276H205L401 449Q409 456 417 456H455Q459 456 460.5 452.5Q462 449 458 446L236 255L422 11Q425 7 423.5 3.5Q422 0 417 0H392Q382 0 377.5 3Q373 6 369 11L199 238H120L80 15ZM159 -64Q163 -57 166.5 -53.5Q170 -50 179 -50H196Q201 -50 204 -54.5Q207 -59 204 -64L138 -183Q134 -190 130.5 -193.5Q127 -197 119 -197H104Q98 -197 94.5 -193.5Q91 -190 95 -183L159 -64Z" glyph-name="kcommaaccent" horiz-adv-x="457" unicode="ķ" /><glyph d="M80 15Q79 9 74 4.5Q69 0 63 0H49Q43 0 39 4.5Q35 9 37 15L112 441Q113 447 118.5 451.5Q124 456 130 456H143Q149 456 153 451.5Q157 447 156 441L127 276H205L401 449Q408 456 417 456H455Q459 456 460 452.5Q461 449 458 446L236 255L422 11Q425 7 423.5 3.5Q422 0 417 0H393Q382 0 377.5 3Q373 6 369 11L199 238H120L80 15Z" glyph-name="kgreenlandic" horiz-adv-x="457" unicode="ĸ" /><glyph d="M131 0Q113 0 96.5 5.5Q80 11 68 23.5Q56 36 51 57Q46 78 51 108L153 685Q156 700 169 700H185Q191 700 195 696Q199 692 197 685L95 109Q83 38 141 38H173Q187 38 184 24L182 13Q179 0 165 0H131ZM304 920Q310 920 312.5 915.5Q315 911 311 906L214 777Q209 771 206 769Q203 767 196 767H180Q175 767 172.5 771Q170 775 174 780L257 906Q261 911 264.5 915.5Q268 920 277 920H304Z" glyph-name="lacute" horiz-adv-x="220" unicode="ĺ" /><glyph d="M131 0Q113 0 96.5 5.5Q80 11 68 23.5Q56 36 51 57Q46 78 51 108L153 685Q156 700 169 700H185Q191 700 195 696Q199 692 197 685L95 109Q83 38 141 38H173Q187 38 184 24L182 13Q179 0 165 0H131ZM311 686Q315 693 318 696.5Q321 700 330 700H348Q353 700 355.5 695.5Q358 691 356 686L283 550Q279 543 275.5 539.5Q272 536 264 536H249Q243 536 240.5 540.5Q238 545 240 550L311 686Z" glyph-name="lcaron" horiz-adv-x="237" unicode="ľ" /><glyph d="M131 0Q113 0 96.5 5.5Q80 11 68 23.5Q56 36 51 57Q46 78 51 108L153 685Q156 700 169 700H185Q191 700 195 696Q199 692 197 685L95 109Q83 38 141 38H173Q187 38 184 24L182 13Q179 0 165 0H131ZM65 -64Q69 -57 72.5 -53.5Q76 -50 85 -50H102Q107 -50 110 -54.5Q113 -59 110 -64L44 -183Q40 -190 36.5 -193.5Q33 -197 25 -197H10Q4 -197 0.5 -193.5Q-3 -190 1 -183L65 -64Z" glyph-name="lcommaaccent" horiz-adv-x="220" unicode="ļ" /><glyph d="M131 0Q113 0 96.5 5.5Q80 11 68 23.5Q56 36 51 57Q46 78 51 108L153 685Q156 700 169 700H185Q191 700 195 696Q199 692 197 685L95 109Q83 38 141 38H173Q187 38 184 24L182 13Q179 0 165 0ZM251 212Q232 212 219 225Q206 238 206 257Q206 276 219 289Q232 302 251 302Q270 302 283 289Q296 276 296 257Q296 238 283 225Q270 212 251 212Z" glyph-name="ldot" horiz-adv-x="311" unicode="ŀ" /><glyph d="M449 261Q463 342 428.5 385.5Q394 429 319 429Q280 429 247 415.5Q214 402 188.5 377.5Q163 353 145.5 319.5Q128 286 121 247L80 15Q77 0 63 0H48Q34 0 37 15L112 441Q115 456 129 456H144Q150 456 154 452Q158 448 156 441L142 365Q170 411 217.5 439.5Q265 468 328 468Q373 468 407.5 453.5Q442 439 464 413Q486 387 494 350.5Q502 314 494 269L449 15Q447 7 442 3.5Q437 0 431 0H416Q402 0 405 15ZM274 612Q287 612 306 606.5Q325 601 344.5 595Q364 589 380.5 583.5Q397 578 405 578Q415 578 422 582Q429 586 440 602Q448 615 461 610L469 607Q474 605 476 599.5Q478 594 475 589Q464 569 447.5 554Q431 539 405 539Q392 539 373 544.5Q354 550 334.5 556Q315 562 298.5 567.5Q282 573 274 573Q264 573 257 569Q250 565 239 549Q231 536 218 541L210 544Q205 546 203 551.5Q201 557 204 562Q215 582 231.5 597Q248 612 274 612Z" glyph-name="ntilde" horiz-adv-x="554" unicode="ñ" /><glyph d="M449 261Q463 342 428.5 385.5Q394 429 319 429Q280 429 247 415.5Q214 402 188.5 377.5Q163 353 145.5 319.5Q128 286 121 247L80 15Q77 0 63 0H48Q34 0 37 15L112 441Q115 456 129 456H144Q150 456 154 452Q158 448 156 441L142 365Q170 411 217.5 439.5Q265 468 328 468Q373 468 407.5 453.5Q442 439 464 413Q486 387 494 350.5Q502 314 494 269L449 15Q447 7 442 3.5Q437 0 431 0H416Q402 0 405 15ZM444 676Q450 676 452.5 671.5Q455 667 451 662L354 533Q349 527 346 525Q343 523 336 523H320Q315 523 312.5 527Q310 531 314 536L397 662Q401 667 404.5 671.5Q408 676 417 676H444Z" glyph-name="nacute" horiz-adv-x="554" unicode="ń" /><glyph d="M449 261Q463 342 428.5 385.5Q394 429 319 429Q280 429 247 415.5Q214 402 188.5 377.5Q163 353 145.5 319.5Q128 286 121 247L80 15Q77 0 63 0H48Q34 0 37 15L112 441Q115 456 129 456H144Q150 456 154 452Q158 448 156 441L142 365Q170 411 217.5 439.5Q265 468 328 468Q373 468 407.5 453.5Q442 439 464 413Q486 387 494 350.5Q502 314 494 269L449 15Q447 7 442 3.5Q437 0 431 0H416Q402 0 405 15ZM326 523Q312 523 306 536L240 663Q238 668 239.5 672Q241 676 249 676H263Q274 676 280 666L336 565L428 666Q438 676 448 676H466Q472 676 474 672Q476 668 472 663L361 536Q349 523 335 523H326Z" glyph-name="ncaron" horiz-adv-x="554" unicode="ň" /><glyph d="M449 261Q463 342 428.5 385.5Q394 429 319 429Q280 429 247 415.5Q214 402 188.5 377.5Q163 353 145.5 319.5Q128 286 121 247L80 15Q77 0 63 0H48Q34 0 37 15L112 441Q115 456 129 456H144Q150 456 154 452Q158 448 156 441L142 365Q170 411 217.5 439.5Q265 468 328 468Q373 468 407.5 453.5Q442 439 464 413Q486 387 494 350.5Q502 314 494 269L449 15Q447 7 442 3.5Q437 0 431 0H416Q402 0 405 15ZM219 -64Q223 -57 226.5 -53.5Q230 -50 239 -50H256Q261 -50 264 -54.5Q267 -59 264 -64L198 -183Q194 -190 190.5 -193.5Q187 -197 179 -197H164Q158 -197 154.5 -193.5Q151 -190 155 -183L219 -64Z" glyph-name="ncommaaccent" horiz-adv-x="554" unicode="ņ" /><glyph d="M449 261Q463 342 428.5 385.5Q394 429 319 429Q280 429 247 415.5Q214 402 188.5 377.5Q163 353 145.5 319.5Q128 286 121 247L80 15Q77 0 63 0H48Q34 0 37 15L112 441Q115 456 129 456H144Q150 456 153.5 451.5Q157 447 156 441L142 365Q170 411 217.5 439.5Q265 468 328 468Q373 468 407.5 453.5Q442 439 464 413Q486 387 494 350.5Q502 314 494 269L430 -91Q417 -161 378 -193Q339 -225 288 -225Q254 -225 231 -216Q208 -207 197 -197Q189 -189 198 -179L203 -172Q208 -165 214 -164Q220 -163 225 -167Q239 -177 255.5 -182Q272 -187 285 -187Q325 -187 351.5 -161.5Q378 -136 386 -93Z" glyph-name="eng" horiz-adv-x="554" unicode="ŋ" /><glyph d="M449 261Q463 342 428.5 385.5Q394 429 319 429Q280 429 247 415.5Q214 402 188.5 377.5Q163 353 145.5 319.5Q128 286 121 247L80 15Q77 0 63 0H48Q34 0 37 15L112 441Q115 456 129 456H144Q150 456 154 452Q158 448 156 441L142 365Q170 411 217.5 439.5Q265 468 328 468Q373 468 407.5 453.5Q442 439 464 413Q486 387 494 350.5Q502 314 494 269L449 15Q447 7 442 3.5Q437 0 431 0H416Q402 0 405 15ZM205 696Q209 703 212 706.5Q215 710 224 710H242Q247 710 249.5 705.5Q252 701 250 696L177 560Q173 553 169.5 549.5Q166 546 158 546H143Q137 546 134.5 550.5Q132 555 134 560L205 696Z" glyph-name="napostrophe" horiz-adv-x="554" unicode="ŉ" /><glyph d="M290 468Q330 468 367.5 454Q405 440 433.5 413Q462 386 479.5 346.5Q497 307 497 256Q497 200 478 151Q459 102 425.5 66Q392 30 346 9Q300 -12 247 -12Q207 -12 169.5 2Q132 16 103.5 43Q75 70 57.5 109.5Q40 149 40 200Q40 256 59 305Q78 354 111.5 390Q145 426 191 447Q237 468 290 468ZM286 430Q243 430 206 412Q169 394 142 363.5Q115 333 99.5 292Q84 251 84 205Q84 163 96.5 130Q109 97 131.5 73.5Q154 50 184.5 38Q215 26 251 26Q294 26 331 44Q368 62 395 92.5Q422 123 437.5 164Q453 205 453 251Q453 293 440.5 326Q428 359 405.5 382.5Q383 406 352.5 418Q322 430 286 430ZM423 676Q429 676 431.5 671.5Q434 667 430 662L333 533Q328 527 325 525Q322 523 315 523H299Q294 523 291.5 527Q289 531 293 536L376 662Q380 667 383.5 671.5Q387 676 396 676H423Z" glyph-name="oacute" horiz-adv-x="537" unicode="ó" /><glyph d="M290 468Q330 468 367.5 454Q405 440 433.5 413Q462 386 479.5 346.5Q497 307 497 256Q497 200 478 151Q459 102 425.5 66Q392 30 346 9Q300 -12 247 -12Q207 -12 169.5 2Q132 16 103.5 43Q75 70 57.5 109.5Q40 149 40 200Q40 256 59 305Q78 354 111.5 390Q145 426 191 447Q237 468 290 468ZM286 430Q243 430 206 412Q169 394 142 363.5Q115 333 99.5 292Q84 251 84 205Q84 163 96.5 130Q109 97 131.5 73.5Q154 50 184.5 38Q215 26 251 26Q294 26 331 44Q368 62 395 92.5Q422 123 437.5 164Q453 205 453 251Q453 293 440.5 326Q428 359 405.5 382.5Q383 406 352.5 418Q322 430 286 430ZM341 676Q354 676 361 663L427 536Q429 531 427.5 527Q426 523 418 523H404Q393 523 387 533L331 634L239 533Q229 523 219 523H201Q195 523 193 527Q191 531 195 536L306 663Q318 676 332 676Z" glyph-name="ocircumflex" horiz-adv-x="537" unicode="ô" /><glyph d="M290 468Q330 468 367.5 454Q405 440 433.5 413Q462 386 479.5 346.5Q497 307 497 256Q497 200 478 151Q459 102 425.5 66Q392 30 346 9Q300 -12 247 -12Q207 -12 169.5 2Q132 16 103.5 43Q75 70 57.5 109.5Q40 149 40 200Q40 256 59 305Q78 354 111.5 390Q145 426 191 447Q237 468 290 468ZM286 430Q243 430 206 412Q169 394 142 363.5Q115 333 99.5 292Q84 251 84 205Q84 163 96.5 130Q109 97 131.5 73.5Q154 50 184.5 38Q215 26 251 26Q294 26 331 44Q368 62 395 92.5Q422 123 437.5 164Q453 205 453 251Q453 293 440.5 326Q428 359 405.5 382.5Q383 406 352.5 418Q322 430 286 430ZM232 530Q218 530 208 540Q198 550 198 564Q198 578 208 588Q218 598 232 598Q246 598 256 588Q266 578 266 564Q266 550 256 540Q246 530 232 530ZM383 530Q369 530 359 540Q349 550 349 564Q349 578 359 588Q369 598 383 598Q397 598 407 588Q417 578 417 564Q417 550 407 540Q397 530 383 530Z" glyph-name="odieresis" horiz-adv-x="537" unicode="ö" /><glyph d="M290 468Q330 468 367.5 454Q405 440 433.5 413Q462 386 479.5 346.5Q497 307 497 256Q497 200 478 151Q459 102 425.5 66Q392 30 346 9Q300 -12 247 -12Q207 -12 169.5 2Q132 16 103.5 43Q75 70 57.5 109.5Q40 149 40 200Q40 256 59 305Q78 354 111.5 390Q145 426 191 447Q237 468 290 468ZM286 430Q243 430 206 412Q169 394 142 363.5Q115 333 99.5 292Q84 251 84 205Q84 163 96.5 130Q109 97 131.5 73.5Q154 50 184.5 38Q215 26 251 26Q294 26 331 44Q368 62 395 92.5Q422 123 437.5 164Q453 205 453 251Q453 293 440.5 326Q428 359 405.5 382.5Q383 406 352.5 418Q322 430 286 430ZM218 676Q227 676 231 671.5Q235 667 239 662L321 536Q325 531 322 527Q319 523 314 523H299Q292 523 288.5 525.5Q285 528 281 533L184 662Q180 667 183 671.5Q186 676 192 676Z" glyph-name="ograve" horiz-adv-x="537" unicode="ò" /><glyph d="M290 468Q330 468 367.5 454Q405 440 433.5 413Q462 386 479.5 346.5Q497 307 497 256Q497 200 478 151Q459 102 425.5 66Q392 30 346 9Q300 -12 247 -12Q207 -12 169.5 2Q132 16 103.5 43Q75 70 57.5 109.5Q40 149 40 200Q40 256 59 305Q78 354 111.5 390Q145 426 191 447Q237 468 290 468ZM286 430Q243 430 206 412Q169 394 142 363.5Q115 333 99.5 292Q84 251 84 205Q84 163 96.5 130Q109 97 131.5 73.5Q154 50 184.5 38Q215 26 251 26Q294 26 331 44Q368 62 395 92.5Q422 123 437.5 164Q453 205 453 251Q453 293 440.5 326Q428 359 405.5 382.5Q383 406 352.5 418Q322 430 286 430ZM253 612Q266 612 285 606.5Q304 601 323.5 595Q343 589 359.5 583.5Q376 578 384 578Q394 578 401 582Q408 586 419 602Q427 615 440 610L448 607Q453 605 455 599.5Q457 594 454 589Q443 569 426.5 554Q410 539 384 539Q371 539 352 544.5Q333 550 313.5 556Q294 562 277.5 567.5Q261 573 253 573Q243 573 236 569Q229 565 218 549Q210 536 197 541L189 544Q184 546 182 551.5Q180 557 183 562Q194 582 210.5 597Q227 612 253 612Z" glyph-name="otilde" horiz-adv-x="537" unicode="õ" /><glyph d="M290 468Q330 468 367.5 454Q405 440 433.5 413Q462 386 479.5 346.5Q497 307 497 256Q497 200 478 151Q459 102 425.5 66Q392 30 346 9Q300 -12 247 -12Q207 -12 169.5 2Q132 16 103.5 43Q75 70 57.5 109.5Q40 149 40 200Q40 256 59 305Q78 354 111.5 390Q145 426 191 447Q237 468 290 468ZM286 430Q243 430 206 412Q169 394 142 363.5Q115 333 99.5 292Q84 251 84 205Q84 163 96.5 130Q109 97 131.5 73.5Q154 50 184.5 38Q215 26 251 26Q294 26 331 44Q368 62 395 92.5Q422 123 437.5 164Q453 205 453 251Q453 293 440.5 326Q428 359 405.5 382.5Q383 406 352.5 418Q322 430 286 430ZM259 611Q255 597 258.5 586Q262 575 270 568Q278 561 290 557.5Q302 554 315 554Q344 554 363.5 567.5Q383 581 388 610L390 619Q391 625 397 625H421Q428 625 427 618L425 607Q417 565 388.5 541.5Q360 518 312 518Q265 518 239 544.5Q213 571 221 609L223 618Q225 625 231 625H257Q263 625 261 619L259 611Z" glyph-name="obreve" horiz-adv-x="537" unicode="ŏ" /><glyph d="M290 468Q330 468 367.5 454Q405 440 433.5 413Q462 386 479.5 346.5Q497 307 497 256Q497 200 478 151Q459 102 425.5 66Q392 30 346 9Q300 -12 247 -12Q207 -12 169.5 2Q132 16 103.5 43Q75 70 57.5 109.5Q40 149 40 200Q40 256 59 305Q78 354 111.5 390Q145 426 191 447Q237 468 290 468ZM286 430Q243 430 206 412Q169 394 142 363.5Q115 333 99.5 292Q84 251 84 205Q84 163 96.5 130Q109 97 131.5 73.5Q154 50 184.5 38Q215 26 251 26Q294 26 331 44Q368 62 395 92.5Q422 123 437.5 164Q453 205 453 251Q453 293 440.5 326Q428 359 405.5 382.5Q383 406 352.5 418Q322 430 286 430ZM506 676Q512 676 514.5 671.5Q517 667 513 662L416 533Q411 527 408 525Q405 523 398 523H382Q377 523 374.5 527Q372 531 376 536L459 662Q463 667 466.5 671.5Q470 676 479 676ZM366 676Q372 676 374.5 671.5Q377 667 373 662L276 533Q271 527 268 525Q265 523 258 523H242Q237 523 234.5 527Q232 531 236 536L319 662Q323 667 326.5 671.5Q330 676 339 676Z" glyph-name="ohungarumlaut" horiz-adv-x="537" unicode="ő" /><glyph d="M290 468Q330 468 367.5 454Q405 440 433.5 413Q462 386 479.5 346.5Q497 307 497 256Q497 200 478 151Q459 102 425.5 66Q392 30 346 9Q300 -12 247 -12Q207 -12 169.5 2Q132 16 103.5 43Q75 70 57.5 109.5Q40 149 40 200Q40 256 59 305Q78 354 111.5 390Q145 426 191 447Q237 468 290 468ZM286 430Q243 430 206 412Q169 394 142 363.5Q115 333 99.5 292Q84 251 84 205Q84 163 96.5 130Q109 97 131.5 73.5Q154 50 184.5 38Q215 26 251 26Q294 26 331 44Q368 62 395 92.5Q422 123 437.5 164Q453 205 453 251Q453 293 440.5 326Q428 359 405.5 382.5Q383 406 352.5 418Q322 430 286 430ZM211 546Q196 546 200 560L202 568Q204 574 208 578.5Q212 583 220 583H420Q434 583 431 569L429 561Q425 546 411 546Z" glyph-name="omacron" horiz-adv-x="537" unicode="ō" /><glyph d="M316 456Q329 456 327 444L323 422Q321 410 310 410H301Q273 410 244 400.5Q215 391 190 369.5Q165 348 145.5 313Q126 278 117 227L80 15Q79 9 75 4.5Q71 0 63 0H49Q34 0 37 15L112 441Q115 456 130 456H141Q147 456 151.5 452Q156 448 154 441L137 351Q144 367 159.5 385.5Q175 404 196 420Q217 436 243.5 446Q270 456 300 456ZM333 676Q339 676 341.5 671.5Q344 667 340 662L243 533Q238 527 235 525Q232 523 225 523H209Q204 523 201.5 527Q199 531 203 536L286 662Q290 667 293.5 671.5Q297 676 306 676H333Z" glyph-name="racute" horiz-adv-x="300" unicode="ŕ" /><glyph d="M316 456Q329 456 327 444L323 422Q321 410 310 410H301Q273 410 244 400.5Q215 391 190 369.5Q165 348 145.5 313Q126 278 117 227L80 15Q79 9 75 4.5Q71 0 63 0H49Q34 0 37 15L112 441Q115 456 130 456H141Q147 456 151.5 452Q156 448 154 441L137 351Q144 367 159.5 385.5Q175 404 196 420Q217 436 243.5 446Q270 456 300 456ZM215 523Q201 523 195 536L129 663Q127 668 128.5 672Q130 676 138 676H152Q163 676 169 666L225 565L317 666Q327 676 337 676H355Q361 676 363 672Q365 668 361 663L250 536Q238 523 224 523H215Z" glyph-name="rcaron" horiz-adv-x="300" unicode="ř" /><glyph d="M316 456Q329 456 327 444L323 422Q321 410 310 410H301Q273 410 244 400.5Q215 391 190 369.5Q165 348 145.5 313Q126 278 117 227L80 15Q79 9 75 4.5Q71 0 63 0H49Q34 0 37 15L112 441Q115 456 130 456H141Q147 456 151.5 452Q156 448 154 441L137 351Q144 367 159.5 385.5Q175 404 196 420Q217 436 243.5 446Q270 456 300 456ZM15 -64Q19 -57 22.5 -53.5Q26 -50 35 -50H52Q57 -50 60 -54.5Q63 -59 60 -64L-6 -183Q-10 -190 -13.5 -193.5Q-17 -197 -25 -197H-40Q-46 -197 -49.5 -193.5Q-53 -190 -49 -183L15 -64Z" glyph-name="rcommaaccent" horiz-adv-x="300" unicode="ŗ" /><glyph d="M66 342Q66 371 79 394.5Q92 418 114 434.5Q136 451 166 459.5Q196 468 230 468Q295 468 340 445.5Q385 423 410 397Q412 394 412 389Q412 384 407 379L396 370Q386 362 374 374Q349 399 313 415Q277 431 232 431Q207 431 184.5 424.5Q162 418 145.5 407Q129 396 119.5 380.5Q110 365 110 346Q110 312 132 295.5Q154 279 190 268L268 245Q329 227 355.5 197.5Q382 168 382 124Q382 102 373 78Q364 54 343.5 34Q323 14 290 1Q257 -12 209 -12Q172 -12 142 -4.5Q112 3 88 15Q64 27 46 42Q28 57 16 73Q9 82 20 91L32 101Q43 109 53 97Q80 65 121 45Q162 25 210 25Q240 25 263.5 33Q287 41 303.5 54Q320 67 329 84.5Q338 102 338 121Q338 150 318.5 171.5Q299 193 253 207L184 227Q127 244 96.5 269Q66 294 66 342ZM273 523Q259 523 253 536L187 663Q185 668 186.5 672Q188 676 196 676H210Q221 676 227 666L283 565L375 666Q385 676 395 676H413Q419 676 421 672Q423 668 419 663L308 536Q296 523 282 523H273Z" glyph-name="scaron" horiz-adv-x="437" unicode="š" /><glyph d="M66 342Q66 371 79 394.5Q92 418 114 434.5Q136 451 166 459.5Q196 468 230 468Q295 468 340 445.5Q385 423 410 397Q412 394 412 389Q412 384 407 379L396 370Q386 362 374 374Q349 399 313 415Q277 431 232 431Q207 431 184.5 424.5Q162 418 145.5 407Q129 396 119.5 380.5Q110 365 110 346Q110 312 132 295.5Q154 279 190 268L268 245Q329 227 355.5 197.5Q382 168 382 124Q382 102 373 78Q364 54 343.5 34Q323 14 290 1Q257 -12 209 -12Q172 -12 142 -4.5Q112 3 88 15Q64 27 46 42Q28 57 16 73Q9 82 20 91L32 101Q43 109 53 97Q80 65 121 45Q162 25 210 25Q240 25 263.5 33Q287 41 303.5 54Q320 67 329 84.5Q338 102 338 121Q338 150 318.5 171.5Q299 193 253 207L184 227Q127 244 96.5 269Q66 294 66 342ZM391 676Q397 676 399.5 671.5Q402 667 398 662L301 533Q296 527 293 525Q290 523 283 523H267Q262 523 259.5 527Q257 531 261 536L344 662Q348 667 351.5 671.5Q355 676 364 676H391Z" glyph-name="sacute" horiz-adv-x="437" unicode="ś" /><glyph d="M66 342Q66 371 79 394.5Q92 418 114 434.5Q136 451 166 459.5Q196 468 230 468Q295 468 340 445.5Q385 423 410 397Q412 394 412 389Q412 384 407 379L396 370Q386 362 374 374Q349 399 313 415Q277 431 232 431Q207 431 184.5 424.5Q162 418 145.5 407Q129 396 119.5 380.5Q110 365 110 346Q110 312 132 295.5Q154 279 190 268L268 245Q329 227 355.5 197.5Q382 168 382 124Q382 102 373 78Q364 54 343.5 34Q323 14 290 1Q257 -12 209 -12Q172 -12 142 -4.5Q112 3 88 15Q64 27 46 42Q28 57 16 73Q9 82 20 91L32 101Q43 109 53 97Q80 65 121 45Q162 25 210 25Q240 25 263.5 33Q287 41 303.5 54Q320 67 329 84.5Q338 102 338 121Q338 150 318.5 171.5Q299 193 253 207L184 227Q127 244 96.5 269Q66 294 66 342ZM210 0 128 -131Q120 -143 109 -143H94Q89 -143 86 -139.5Q83 -136 88 -129L164 0Z" glyph-name="scedilla" horiz-adv-x="437" unicode="ş" /><glyph d="M66 342Q66 371 79 394.5Q92 418 114 434.5Q136 451 166 459.5Q196 468 230 468Q295 468 340 445.5Q385 423 410 397Q412 394 412 389Q412 384 407 379L396 370Q386 362 374 374Q349 399 313 415Q277 431 232 431Q207 431 184.5 424.5Q162 418 145.5 407Q129 396 119.5 380.5Q110 365 110 346Q110 312 132 295.5Q154 279 190 268L268 245Q329 227 355.5 197.5Q382 168 382 124Q382 102 373 78Q364 54 343.5 34Q323 14 290 1Q257 -12 209 -12Q172 -12 142 -4.5Q112 3 88 15Q64 27 46 42Q28 57 16 73Q9 82 20 91L32 101Q43 109 53 97Q80 65 121 45Q162 25 210 25Q240 25 263.5 33Q287 41 303.5 54Q320 67 329 84.5Q338 102 338 121Q338 150 318.5 171.5Q299 193 253 207L184 227Q127 244 96.5 269Q66 294 66 342ZM309 676Q322 676 329 663L395 536Q397 531 395.5 527Q394 523 386 523H372Q361 523 355 533L299 634L207 533Q197 523 187 523H169Q163 523 161 527Q159 531 163 536L274 663Q286 676 300 676Z" glyph-name="scircumflex" horiz-adv-x="437" unicode="ŝ" /><glyph d="M66 342Q66 371 79 394.5Q92 418 114 434.5Q136 451 166 459.5Q196 468 230 468Q295 468 340 445.5Q385 423 410 397Q412 394 412 389Q412 384 407 379L396 370Q386 362 374 374Q349 399 313 415Q277 431 232 431Q207 431 184.5 424.5Q162 418 145.5 407Q129 396 119.5 380.5Q110 365 110 346Q110 312 132 295.5Q154 279 190 268L268 245Q329 227 355.5 197.5Q382 168 382 124Q382 102 373 78Q364 54 343.5 34Q323 14 290 1Q257 -12 209 -12Q172 -12 142 -4.5Q112 3 88 15Q64 27 46 42Q28 57 16 73Q9 82 20 91L32 101Q43 109 53 97Q80 65 121 45Q162 25 210 25Q240 25 263.5 33Q287 41 303.5 54Q320 67 329 84.5Q338 102 338 121Q338 150 318.5 171.5Q299 193 253 207L184 227Q127 244 96.5 269Q66 294 66 342ZM167 -64Q171 -57 174.5 -53.5Q178 -50 187 -50H204Q209 -50 212 -54.5Q215 -59 212 -64L146 -183Q142 -190 138.5 -193.5Q135 -197 127 -197H112Q106 -197 102.5 -193.5Q99 -190 103 -183L167 -64Z" glyph-name="scommaaccent" horiz-adv-x="437" unicode="ș" /><glyph d="M282 21Q239 -5 188 -5Q161 -5 139 4.5Q117 14 103 31Q89 48 84 71.5Q79 95 85 124L110 268H33Q27 268 23 272.5Q19 277 21 283L22 291Q24 297 29 301.5Q34 306 40 306H117L137 418H63Q48 418 51 433L53 443Q55 451 59.5 453.5Q64 456 70 456H143L171 615Q174 630 191 630H202Q218 630 215 615L187 456H337Q343 456 347.5 452.5Q352 449 350 441L348 430Q346 418 331 418H180L160 306H307Q313 306 317 301.5Q321 297 319 291L318 283Q316 277 311 272.5Q306 268 300 268H154L129 127Q124 103 127 85.5Q130 68 139 56.5Q148 45 161.5 39.5Q175 34 191 34Q208 34 225.5 39.5Q243 45 259 53Q269 58 273.5 56Q278 54 282 48L288 38Q294 28 282 21Z" glyph-name="tbar" horiz-adv-x="330" unicode="ŧ" /><glyph d="M281 38Q287 28 275 21Q232 -5 181 -5Q154 -5 132 4.5Q110 14 96 31Q82 48 77 71.5Q72 95 78 124L130 418H55Q41 418 44 433L46 443Q48 451 52.5 453.5Q57 456 63 456H136L164 615Q167 630 184 630H195Q211 630 208 615L180 456H330Q336 456 340.5 452.5Q345 449 343 441L341 430Q338 418 324 418H173L122 127Q117 103 120 85.5Q123 68 132 56.5Q141 45 154.5 39.5Q168 34 184 34Q201 34 218.5 39.5Q236 45 252 53Q262 58 266.5 56Q271 54 275 48ZM354 708Q358 715 361 718.5Q364 722 373 722H391Q396 722 398.5 717.5Q401 713 399 708L326 572Q322 565 318.5 561.5Q315 558 307 558H292Q286 558 283.5 562.5Q281 567 283 572L354 708Z" glyph-name="tcaron" horiz-adv-x="321" unicode="ť" /><glyph d="M281 38Q287 28 275 21Q232 -5 181 -5Q154 -5 132 4.5Q110 14 96 31Q82 48 77 71.5Q72 95 78 124L130 418H55Q41 418 44 433L46 443Q48 451 52.5 453.5Q57 456 63 456H136L164 615Q167 630 184 630H195Q211 630 208 615L180 456H330Q336 456 340.5 452.5Q345 449 343 441L341 430Q338 418 324 418H173L122 127Q117 103 120 85.5Q123 68 132 56.5Q141 45 154.5 39.5Q168 34 184 34Q201 34 218.5 39.5Q236 45 252 53Q262 58 266.5 56Q271 54 275 48ZM134 -64Q138 -57 141.5 -53.5Q145 -50 154 -50H171Q176 -50 179 -54.5Q182 -59 179 -64L113 -183Q109 -190 105.5 -193.5Q102 -197 94 -197H79Q73 -197 69.5 -193.5Q66 -190 70 -183L134 -64Z" glyph-name="tcommaaccent" horiz-adv-x="321" unicode="ţ" /><glyph d="M281 38Q287 28 275 21Q232 -5 181 -5Q154 -5 132 4.5Q110 14 96 31Q82 48 77 71.5Q72 95 78 124L130 418H55Q41 418 44 433L46 443Q48 451 52.5 453.5Q57 456 63 456H136L164 615Q167 630 184 630H195Q211 630 208 615L180 456H330Q336 456 340.5 452.5Q345 449 343 441L341 430Q338 418 324 418H173L122 127Q117 103 120 85.5Q123 68 132 56.5Q141 45 154.5 39.5Q168 34 184 34Q201 34 218.5 39.5Q236 45 252 53Q262 58 266.5 56Q271 54 275 48ZM134 -64Q138 -57 141.5 -53.5Q145 -50 154 -50H171Q176 -50 179 -54.5Q182 -59 179 -64L113 -183Q109 -190 105.5 -193.5Q102 -197 94 -197H79Q73 -197 69.5 -193.5Q66 -190 70 -183L134 -64Z" glyph-name="uni021B" horiz-adv-x="321" unicode="ț" /><glyph d="M105 195Q91 114 127 70.5Q163 27 231 27Q309 27 360.5 77Q412 127 426 209L467 441Q470 456 484 456H499Q513 456 510 441L435 15Q432 0 418 0H403Q397 0 393 4Q389 8 391 15L405 91Q377 45 331 16.5Q285 -12 222 -12Q180 -12 146.5 2.5Q113 17 91.5 43Q70 69 61 105.5Q52 142 60 187L105 441Q108 456 122 456H136Q152 456 149 441ZM436 676Q442 676 444.5 671.5Q447 667 443 662L346 533Q341 527 338 525Q335 523 328 523H312Q307 523 304.5 527Q302 531 306 536L389 662Q393 667 396.5 671.5Q400 676 409 676H436Z" glyph-name="uacute" horiz-adv-x="546" unicode="ú" /><glyph d="M105 195Q91 114 127 70.5Q163 27 231 27Q309 27 360.5 77Q412 127 426 209L467 441Q470 456 484 456H499Q513 456 510 441L435 15Q432 0 418 0H403Q397 0 393 4Q389 8 391 15L405 91Q377 45 331 16.5Q285 -12 222 -12Q180 -12 146.5 2.5Q113 17 91.5 43Q70 69 61 105.5Q52 142 60 187L105 441Q108 456 122 456H136Q152 456 149 441ZM354 676Q367 676 374 663L440 536Q442 531 440.5 527Q439 523 431 523H417Q406 523 400 533L344 634L252 533Q242 523 232 523H214Q208 523 206 527Q204 531 208 536L319 663Q331 676 345 676Z" glyph-name="ucircumflex" horiz-adv-x="546" unicode="û" /><glyph d="M105 195Q91 114 127 70.5Q163 27 231 27Q309 27 360.5 77Q412 127 426 209L467 441Q470 456 484 456H499Q513 456 510 441L435 15Q432 0 418 0H403Q397 0 393 4Q389 8 391 15L405 91Q377 45 331 16.5Q285 -12 222 -12Q180 -12 146.5 2.5Q113 17 91.5 43Q70 69 61 105.5Q52 142 60 187L105 441Q108 456 122 456H136Q152 456 149 441ZM245 530Q231 530 221 540Q211 550 211 564Q211 578 221 588Q231 598 245 598Q259 598 269 588Q279 578 279 564Q279 550 269 540Q259 530 245 530ZM396 530Q382 530 372 540Q362 550 362 564Q362 578 372 588Q382 598 396 598Q410 598 420 588Q430 578 430 564Q430 550 420 540Q410 530 396 530Z" glyph-name="udieresis" horiz-adv-x="546" unicode="ü" /><glyph d="M105 195Q91 114 127 70.5Q163 27 231 27Q309 27 360.5 77Q412 127 426 209L467 441Q470 456 484 456H499Q513 456 510 441L435 15Q432 0 418 0H403Q397 0 393 4Q389 8 391 15L405 91Q377 45 331 16.5Q285 -12 222 -12Q180 -12 146.5 2.5Q113 17 91.5 43Q70 69 61 105.5Q52 142 60 187L105 441Q108 456 122 456H136Q152 456 149 441ZM231 676Q240 676 244 671.5Q248 667 252 662L334 536Q338 531 335 527Q332 523 327 523H312Q305 523 301.5 525.5Q298 528 294 533L197 662Q193 667 196 671.5Q199 676 205 676Z" glyph-name="ugrave" horiz-adv-x="546" unicode="ù" /><glyph d="M105 195Q91 114 127 70.5Q163 27 231 27Q309 27 360.5 77Q412 127 426 209L467 441Q470 456 484 456H499Q513 456 510 441L435 15Q432 0 418 0H403Q397 0 393 4Q389 8 391 15L405 91Q377 45 331 16.5Q285 -12 222 -12Q180 -12 146.5 2.5Q113 17 91.5 43Q70 69 61 105.5Q52 142 60 187L105 441Q108 456 122 456H136Q152 456 149 441ZM272 611Q268 597 271.5 586Q275 575 283 568Q291 561 303 557.5Q315 554 328 554Q357 554 376.5 567.5Q396 581 401 610L403 619Q404 625 410 625H434Q441 625 440 618L438 607Q430 565 401.5 541.5Q373 518 325 518Q278 518 252 544.5Q226 571 234 609L236 618Q238 625 244 625H270Q276 625 274 619L272 611Z" glyph-name="ubreve" horiz-adv-x="546" unicode="ŭ" /><glyph d="M105 195Q91 114 127 70.5Q163 27 231 27Q309 27 360.5 77Q412 127 426 209L467 441Q470 456 484 456H499Q513 456 510 441L435 15Q432 0 418 0H403Q397 0 393 4Q389 8 391 15L405 91Q377 45 331 16.5Q285 -12 222 -12Q180 -12 146.5 2.5Q113 17 91.5 43Q70 69 61 105.5Q52 142 60 187L105 441Q108 456 122 456H136Q152 456 149 441ZM519 676Q525 676 527.5 671.5Q530 667 526 662L429 533Q424 527 421 525Q418 523 411 523H395Q390 523 387.5 527Q385 531 389 536L472 662Q476 667 479.5 671.5Q483 676 492 676ZM379 676Q385 676 387.5 671.5Q390 667 386 662L289 533Q284 527 281 525Q278 523 271 523H255Q250 523 247.5 527Q245 531 249 536L332 662Q336 667 339.5 671.5Q343 676 352 676Z" glyph-name="uhungarumlaut" horiz-adv-x="546" unicode="ű" /><glyph d="M105 195Q91 114 127 70.5Q163 27 231 27Q309 27 360.5 77Q412 127 426 209L467 441Q470 456 484 456H499Q513 456 510 441L435 15Q432 0 418 0H403Q397 0 393 4Q389 8 391 15L405 91Q377 45 331 16.5Q285 -12 222 -12Q180 -12 146.5 2.5Q113 17 91.5 43Q70 69 61 105.5Q52 142 60 187L105 441Q108 456 122 456H136Q152 456 149 441ZM224 546Q209 546 213 560L215 568Q217 574 221 578.5Q225 583 233 583H433Q447 583 444 569L442 561Q438 546 424 546Z" glyph-name="umacron" horiz-adv-x="546" unicode="ū" /><glyph d="M105 195Q91 114 127 70.5Q163 27 231 27Q309 27 360.5 77Q412 127 426 209L467 441Q470 456 484 456H499Q513 456 510 441L435 15Q432 0 418 0H403Q397 0 393 4Q389 8 391 15L405 91Q377 45 331 16.5Q285 -12 222 -12Q180 -12 146.5 2.5Q113 17 91.5 43Q70 69 61 105.5Q52 142 60 187L105 441Q108 456 122 456H136Q152 456 149 441ZM297 -130Q297 -109 308.5 -87.5Q320 -66 336.5 -47Q353 -28 372 -12.5Q391 3 406 12L422 10L424 1Q407 -14 392 -30Q377 -46 365 -62.5Q353 -79 346 -94.5Q339 -110 339 -122Q339 -151 374 -151Q388 -151 395.5 -148.5Q403 -146 406 -146Q414 -146 412 -155L410 -167Q409 -172 403 -175Q397 -178 389 -180Q381 -182 373 -183Q365 -184 359 -184Q328 -184 312.5 -168.5Q297 -153 297 -130Z" glyph-name="uogonek" horiz-adv-x="546" unicode="ų" /><glyph d="M105 195Q91 114 127 70.5Q163 27 231 27Q309 27 360.5 77Q412 127 426 209L467 441Q470 456 484 456H499Q513 456 510 441L435 15Q432 0 418 0H403Q397 0 393 4Q389 8 391 15L405 91Q377 45 331 16.5Q285 -12 222 -12Q180 -12 146.5 2.5Q113 17 91.5 43Q70 69 61 105.5Q52 142 60 187L105 441Q108 456 122 456H136Q152 456 149 441ZM325 700Q365 700 394 672.5Q423 645 424 602Q423 559 394 531.5Q365 504 325 504Q285 504 256 531.5Q227 559 226 602Q227 645 256 672.5Q285 700 325 700ZM325 539Q352 539 368.5 557.5Q385 576 385 602Q385 628 368.5 646.5Q352 665 325 665Q298 665 281.5 646.5Q265 628 265 602Q265 576 281.5 557.5Q298 539 325 539Z" glyph-name="uring" horiz-adv-x="546" unicode="ů" /><glyph d="M105 195Q91 114 127 70.5Q163 27 231 27Q309 27 360.5 77Q412 127 426 209L467 441Q470 456 484 456H499Q513 456 510 441L435 15Q432 0 418 0H403Q397 0 393 4Q389 8 391 15L405 91Q377 45 331 16.5Q285 -12 222 -12Q180 -12 146.5 2.5Q113 17 91.5 43Q70 69 61 105.5Q52 142 60 187L105 441Q108 456 122 456H136Q152 456 149 441ZM266 612Q279 612 298 606.5Q317 601 336.5 595Q356 589 372.5 583.5Q389 578 397 578Q407 578 414 582Q421 586 432 602Q440 615 453 610L461 607Q466 605 468 599.5Q470 594 467 589Q456 569 439.5 554Q423 539 397 539Q384 539 365 544.5Q346 550 326.5 556Q307 562 290.5 567.5Q274 573 266 573Q256 573 249 569Q242 565 231 549Q223 536 210 541L202 544Q197 546 195 551.5Q193 557 196 562Q207 582 223.5 597Q240 612 266 612Z" glyph-name="utilde" horiz-adv-x="546" unicode="ũ" /><glyph d="M198 14Q191 0 176 0H151Q136 0 134 14L61 442Q60 447 63.5 451.5Q67 456 72 456H91Q105 456 106 445L171 42L370 442Q377 456 389 456H414Q426 456 428 442L487 42L692 444Q698 456 711 456H731Q736 456 739 452Q742 448 739 442L515 14Q507 0 493 0H467Q452 0 450 14L392 403L198 14ZM529 676Q535 676 537.5 671.5Q540 667 536 662L439 533Q434 527 431 525Q428 523 421 523H405Q400 523 397.5 527Q395 531 399 536L482 662Q486 667 489.5 671.5Q493 676 502 676H529Z" glyph-name="wacute" horiz-adv-x="725" unicode="ẃ" /><glyph d="M198 14Q191 0 176 0H151Q136 0 134 14L61 442Q60 447 63.5 451.5Q67 456 72 456H91Q105 456 106 445L171 42L370 442Q377 456 389 456H414Q426 456 428 442L487 42L692 444Q698 456 711 456H731Q736 456 739 452Q742 448 739 442L515 14Q507 0 493 0H467Q452 0 450 14L392 403L198 14ZM447 676Q460 676 467 663L533 536Q535 531 533.5 527Q532 523 524 523H510Q499 523 493 533L437 634L345 533Q335 523 325 523H307Q301 523 299 527Q297 531 301 536L412 663Q424 676 438 676Z" glyph-name="wcircumflex" horiz-adv-x="725" unicode="ŵ" /><glyph d="M198 14Q191 0 176 0H151Q136 0 134 14L61 442Q60 447 63.5 451.5Q67 456 72 456H91Q105 456 106 445L171 42L370 442Q377 456 389 456H414Q426 456 428 442L487 42L692 444Q698 456 711 456H731Q736 456 739 452Q742 448 739 442L515 14Q507 0 493 0H467Q452 0 450 14L392 403L198 14ZM338 530Q324 530 314 540Q304 550 304 564Q304 578 314 588Q324 598 338 598Q352 598 362 588Q372 578 372 564Q372 550 362 540Q352 530 338 530ZM489 530Q475 530 465 540Q455 550 455 564Q455 578 465 588Q475 598 489 598Q503 598 513 588Q523 578 523 564Q523 550 513 540Q503 530 489 530Z" glyph-name="wdieresis" horiz-adv-x="725" unicode="ẅ" /><glyph d="M198 14Q191 0 176 0H151Q136 0 134 14L61 442Q60 447 63.5 451.5Q67 456 72 456H91Q105 456 106 445L171 42L370 442Q377 456 389 456H414Q426 456 428 442L487 42L692 444Q698 456 711 456H731Q736 456 739 452Q742 448 739 442L515 14Q507 0 493 0H467Q452 0 450 14L392 403L198 14ZM324 676Q333 676 337 671.5Q341 667 345 662L427 536Q431 531 428 527Q425 523 420 523H405Q398 523 394.5 525.5Q391 528 387 533L290 662Q286 667 289 671.5Q292 676 298 676Z" glyph-name="wgrave" horiz-adv-x="725" unicode="ẁ" /><glyph d="M7 -226Q-36 -226 -65 -208Q-94 -190 -107 -173Q-110 -169 -110 -162.5Q-110 -156 -104 -151L-97 -145Q-90 -140 -84 -142Q-78 -144 -74 -149Q-62 -163 -41.5 -175.5Q-21 -188 8 -188Q48 -188 71.5 -164.5Q95 -141 112 -111L174 0H167Q154 0 152 10L65 442Q63 450 67.5 453Q72 456 77 456H93Q108 456 111 442L190 31L413 442Q420 456 433 456H453Q458 456 461.5 451.5Q465 447 462 442L143 -137Q121 -177 87.5 -201.5Q54 -226 7 -226ZM388 676Q394 676 396.5 671.5Q399 667 395 662L298 533Q293 527 290 525Q287 523 280 523H264Q259 523 256.5 527Q254 531 258 536L341 662Q345 667 348.5 671.5Q352 676 361 676H388Z" glyph-name="yacute" horiz-adv-x="448" unicode="ý" /><glyph d="M7 -226Q-36 -226 -65 -208Q-94 -190 -107 -173Q-110 -169 -110 -162.5Q-110 -156 -104 -151L-97 -145Q-90 -140 -84 -142Q-78 -144 -74 -149Q-62 -163 -41.5 -175.5Q-21 -188 8 -188Q48 -188 71.5 -164.5Q95 -141 112 -111L174 0H167Q154 0 152 10L65 442Q63 450 67.5 453Q72 456 77 456H93Q108 456 111 442L190 31L413 442Q420 456 433 456H453Q458 456 461.5 451.5Q465 447 462 442L143 -137Q121 -177 87.5 -201.5Q54 -226 7 -226ZM197 530Q183 530 173 540Q163 550 163 564Q163 578 173 588Q183 598 197 598Q211 598 221 588Q231 578 231 564Q231 550 221 540Q211 530 197 530ZM348 530Q334 530 324 540Q314 550 314 564Q314 578 324 588Q334 598 348 598Q362 598 372 588Q382 578 382 564Q382 550 372 540Q362 530 348 530Z" glyph-name="ydieresis" horiz-adv-x="448" unicode="ÿ" /><glyph d="M7 -226Q-36 -226 -65 -208Q-94 -190 -107 -173Q-110 -169 -110 -162.5Q-110 -156 -104 -151L-97 -145Q-90 -140 -84 -142Q-78 -144 -74 -149Q-62 -163 -41.5 -175.5Q-21 -188 8 -188Q48 -188 71.5 -164.5Q95 -141 112 -111L174 0H167Q154 0 152 10L65 442Q63 450 67.5 453Q72 456 77 456H93Q108 456 111 442L190 31L413 442Q420 456 433 456H453Q458 456 461.5 451.5Q465 447 462 442L143 -137Q121 -177 87.5 -201.5Q54 -226 7 -226ZM306 676Q319 676 326 663L392 536Q394 531 392.5 527Q391 523 383 523H369Q358 523 352 533L296 634L204 533Q194 523 184 523H166Q160 523 158 527Q156 531 160 536L271 663Q283 676 297 676Z" glyph-name="ycircumflex" horiz-adv-x="448" unicode="ŷ" /><glyph d="M7 -226Q-36 -226 -65 -208Q-94 -190 -107 -173Q-110 -169 -110 -162.5Q-110 -156 -104 -151L-97 -145Q-90 -140 -84 -142Q-78 -144 -74 -149Q-62 -163 -41.5 -175.5Q-21 -188 8 -188Q48 -188 71.5 -164.5Q95 -141 112 -111L174 0H167Q154 0 152 10L65 442Q63 450 67.5 453Q72 456 77 456H93Q108 456 111 442L190 31L413 442Q420 456 433 456H453Q458 456 461.5 451.5Q465 447 462 442L143 -137Q121 -177 87.5 -201.5Q54 -226 7 -226ZM183 676Q192 676 196 671.5Q200 667 204 662L286 536Q290 531 287 527Q284 523 279 523H264Q257 523 253.5 525.5Q250 528 246 533L149 662Q145 667 148 671.5Q151 676 157 676Z" glyph-name="ygrave" horiz-adv-x="448" unicode="ỳ" /><glyph d="M48 38 352 38Q366 38 363 25L360 12Q357 0 343 0H0Q-7 0 -11 4.5Q-15 9 -13 15L-11 25Q-9 32 -6.5 36Q-4 40 1 45L362 418H88Q82 418 79 422.5Q76 427 78 433L81 444Q84 456 95 456H413Q419 456 422.5 451.5Q426 447 424 441L422 432Q420 425 417.5 421Q415 417 410 412ZM250 523Q236 523 230 536L164 663Q162 668 163.5 672Q165 676 173 676H187Q198 676 204 666L260 565L352 666Q362 676 372 676H390Q396 676 398 672Q400 668 396 663L285 536Q273 523 259 523H250Z" glyph-name="zcaron" horiz-adv-x="424" unicode="ž" /><glyph d="M48 38 352 38Q366 38 363 25L360 12Q357 0 343 0H0Q-7 0 -11 4.5Q-15 9 -13 15L-11 25Q-9 32 -6.5 36Q-4 40 1 45L362 418H88Q82 418 79 422.5Q76 427 78 433L81 444Q84 456 95 456H413Q419 456 422.5 451.5Q426 447 424 441L422 432Q420 425 417.5 421Q415 417 410 412ZM368 676Q374 676 376.5 671.5Q379 667 375 662L278 533Q273 527 270 525Q267 523 260 523H244Q239 523 236.5 527Q234 531 238 536L321 662Q325 667 328.5 671.5Q332 676 341 676H368Z" glyph-name="zacute" horiz-adv-x="424" unicode="ź" /><glyph d="M48 38 352 38Q366 38 363 25L360 12Q357 0 343 0H0Q-7 0 -11 4.5Q-15 9 -13 15L-11 25Q-9 32 -6.5 36Q-4 40 1 45L362 418H88Q82 418 79 422.5Q76 427 78 433L81 444Q84 456 95 456H413Q419 456 422.5 451.5Q426 447 424 441L422 432Q420 425 417.5 421Q415 417 410 412ZM255 530Q241 530 231 540Q221 550 221 564Q221 578 231 588Q241 598 255 598Q269 598 279 588Q289 578 289 564Q289 550 279 540Q269 530 255 530Z" glyph-name="zdotaccent" horiz-adv-x="424" unicode="ż" /><glyph d="M368 676Q374 676 376.5 671.5Q379 667 375 662L278 533Q273 527 270 525Q267 523 260 523H244Q239 523 236.5 527Q234 531 238 536L321 662Q325 667 328.5 671.5Q332 676 341 676H368Z" glyph-name="acute" horiz-adv-x="179" unicode="´" /><glyph d="M183 676Q192 676 196 671.5Q200 667 204 662L286 536Q290 531 287 527Q284 523 279 523H264Q257 523 253.5 525.5Q250 528 246 533L149 662Q145 667 148 671.5Q151 676 157 676Z" glyph-name="grave" horiz-adv-x="179" unicode="`" /><glyph d="M306 676Q319 676 326 663L392 536Q394 531 392.5 527Q391 523 383 523H369Q358 523 352 533L296 634L204 533Q194 523 184 523H166Q160 523 158 527Q156 531 160 536L271 663Q283 676 297 676Z" glyph-name="circumflex" horiz-adv-x="288" unicode="ˆ" /><glyph d="M250 523Q236 523 230 536L164 663Q162 668 163.5 672Q165 676 173 676H187Q198 676 204 666L260 565L352 666Q362 676 372 676H390Q396 676 398 672Q400 668 396 663L285 536Q273 523 259 523H250Z" glyph-name="caron" horiz-adv-x="288" unicode="ˇ" /><glyph d="M266 612Q279 612 298 606.5Q317 601 336.5 595Q356 589 372.5 583.5Q389 578 397 578Q407 578 414 582Q421 586 432 602Q440 615 453 610L461 607Q466 605 468 599.5Q470 594 467 589Q456 569 439.5 554Q423 539 397 539Q384 539 365 544.5Q346 550 326.5 556Q307 562 290.5 567.5Q274 573 266 573Q256 573 249 569Q242 565 231 549Q223 536 210 541L202 544Q197 546 195 551.5Q193 557 196 562Q207 582 223.5 597Q240 612 266 612Z" glyph-name="tilde" horiz-adv-x="295" unicode="˜" /><glyph d="M197 530Q183 530 173 540Q163 550 163 564Q163 578 173 588Q183 598 197 598Q211 598 221 588Q231 578 231 564Q231 550 221 540Q211 530 197 530ZM348 530Q334 530 324 540Q314 550 314 564Q314 578 324 588Q334 598 348 598Q362 598 372 588Q382 578 382 564Q382 550 372 540Q362 530 348 530Z" glyph-name="dieresis" horiz-adv-x="271" unicode="¨" /><glyph d="M325 700Q365 700 394 672.5Q423 645 424 602Q423 559 394 531.5Q365 504 325 504Q285 504 256 531.5Q227 559 226 602Q227 645 256 672.5Q285 700 325 700ZM325 539Q352 539 368.5 557.5Q385 576 385 602Q385 628 368.5 646.5Q352 665 325 665Q298 665 281.5 646.5Q265 628 265 602Q265 576 281.5 557.5Q298 539 325 539Z" glyph-name="ring" horiz-adv-x="257" unicode="˚" /><glyph d="M210 0 128 -131Q120 -143 109 -143H94Q89 -143 86 -139.5Q83 -136 88 -129L164 0Z" glyph-name="cedilla" horiz-adv-x="155" unicode="¸" /><glyph d="M519 676Q525 676 527.5 671.5Q530 667 526 662L429 533Q424 527 421 525Q418 523 411 523H395Q390 523 387.5 527Q385 531 389 536L472 662Q476 667 479.5 671.5Q483 676 492 676ZM379 676Q385 676 387.5 671.5Q390 667 386 662L289 533Q284 527 281 525Q278 523 271 523H255Q250 523 247.5 527Q245 531 249 536L332 662Q336 667 339.5 671.5Q343 676 352 676Z" glyph-name="hungarumlaut" horiz-adv-x="299" unicode="˝" /><glyph d="M272 611Q268 597 271.5 586Q275 575 283 568Q291 561 303 557.5Q315 554 328 554Q357 554 376.5 567.5Q396 581 401 610L403 619Q404 625 410 625H434Q441 625 440 618L438 607Q430 565 401.5 541.5Q373 518 325 518Q278 518 252 544.5Q226 571 234 609L236 618Q238 625 244 625H270Q276 625 274 619L272 611Z" glyph-name="breve" horiz-adv-x="260" unicode="˘" /><glyph d="M224 546Q209 546 213 560L215 568Q217 574 221 578.5Q225 583 233 583H433Q447 583 444 569L442 561Q438 546 424 546Z" glyph-name="macron" horiz-adv-x="568" unicode="¯" /><glyph d="M255 530Q241 530 231 540Q221 550 221 564Q221 578 231 588Q241 598 255 598Q269 598 279 588Q289 578 289 564Q289 550 279 540Q269 530 255 530Z" glyph-name="dotaccent" horiz-adv-x="135" unicode="˙" /><glyph d="M141 312Q122 312 109 325Q96 338 96 357Q96 376 109 389Q122 402 141 402Q160 402 173 389Q186 376 186 357Q186 338 173 325Q160 312 141 312Z" glyph-name="periodcentered" horiz-adv-x="240" unicode="·" /><glyph d="M297 -130Q297 -109 308.5 -87.5Q320 -66 336.5 -47Q353 -28 372 -12.5Q391 3 406 12L422 10L424 1Q407 -14 392 -30Q377 -46 365 -62.5Q353 -79 346 -94.5Q339 -110 339 -122Q339 -151 374 -151Q388 -151 395.5 -148.5Q403 -146 406 -146Q414 -146 412 -155L410 -167Q409 -172 403 -175Q397 -178 389 -180Q381 -182 373 -183Q365 -184 359 -184Q328 -184 312.5 -168.5Q297 -153 297 -130Z" glyph-name="ogonek" horiz-adv-x="222" unicode="˛" /><glyph d="M134 -64Q138 -57 141.5 -53.5Q145 -50 154 -50H171Q176 -50 179 -54.5Q182 -59 179 -64L113 -183Q109 -190 105.5 -193.5Q102 -197 94 -197H79Q73 -197 69.5 -193.5Q66 -190 70 -183L134 -64Z" glyph-name="commaaccent" horiz-adv-x="231" unicode="" /><glyph d="M282 553Q277 553 275 557Q273 561 276 566L362 693Q366 699 369.5 702.5Q373 706 380 706H396Q401 706 404 702.5Q407 699 404 694L328 566Q324 559 320 556Q316 553 307 553H282Z" glyph-name="revcommaaccent" horiz-adv-x="239" unicode="" /><glyph d="M94 -1Q75 -1 62 12Q49 25 49 44Q49 63 62 76Q75 89 94 89Q112 89 125 76Q138 63 138 44Q138 25 125 12Q112 -1 94 -1Z" glyph-name="period" horiz-adv-x="232" unicode="." /><glyph d="M101 88Q105 95 108 98.5Q111 102 120 102H139Q144 102 147 97.5Q150 93 147 88L43 -97Q39 -104 35.5 -107.5Q32 -111 24 -111H10Q4 -111 1 -106.5Q-2 -102 1 -97L101 88Z" glyph-name="comma" horiz-adv-x="239" unicode="," /><glyph d="M88 -1Q70 -1 57 12Q44 25 44 43Q44 62 57 74.5Q70 87 88 87Q106 87 119 74.5Q132 62 132 43Q132 25 119 12Q106 -1 88 -1ZM149 368Q131 368 118 380.5Q105 393 105 412Q105 431 118 443.5Q131 456 149 456Q167 456 180 443.5Q193 431 193 412Q193 393 180 380.5Q167 368 149 368Z" glyph-name="colon" horiz-adv-x="240" unicode=":" /><glyph d="M153 368Q135 368 122 380.5Q109 393 109 412Q109 431 122 443.5Q135 456 153 456Q171 456 184 443.5Q197 431 197 412Q197 393 184 380.5Q171 368 153 368ZM91 88Q95 95 98 98.5Q101 102 110 102H129Q134 102 137 97.5Q140 93 137 88L33 -97Q29 -104 25.5 -107.5Q22 -111 14 -111H0Q-6 -111 -9 -106.5Q-12 -102 -9 -97Z" glyph-name="semicolon" horiz-adv-x="250" unicode=";" /><glyph d="M94 -1Q75 -1 62 12Q49 25 49 44Q49 63 62 76Q75 89 94 89Q112 89 125 76Q138 63 138 44Q138 25 125 12Q112 -1 94 -1ZM317 -1Q298 -1 285 12Q272 25 272 44Q272 63 285 76Q298 89 317 89Q336 89 349 76Q362 63 362 44Q362 25 349 12Q336 -1 317 -1ZM541 -1Q522 -1 509 12Q496 25 496 44Q496 63 509 76Q522 89 541 89Q560 89 573 76Q586 63 586 44Q586 25 573 12Q560 -1 541 -1Z" glyph-name="ellipsis" horiz-adv-x="680" unicode="…" /><glyph d="M300 712Q337 712 368.5 701Q400 690 423 670.5Q446 651 459 623.5Q472 596 472 563Q472 522 457 489.5Q442 457 418.5 429.5Q395 402 367.5 378Q340 354 315 329Q290 304 271 276.5Q252 249 246 216L243 202Q242 197 239.5 193.5Q237 190 229 190H215Q202 190 204 202L207 219Q214 258 233 288.5Q252 319 276.5 344.5Q301 370 327.5 393Q354 416 376 440.5Q398 465 412.5 494Q427 523 427 560Q427 587 417 608Q407 629 389.5 643.5Q372 658 349 665.5Q326 673 300 673Q244 673 203.5 646Q163 619 137 567Q130 554 117 559L102 565Q97 567 96 572.5Q95 578 97 582Q127 644 177.5 678Q228 712 300 712ZM203 -1Q184 -1 171 12Q158 25 158 44Q158 63 171 76Q184 89 203 89Q221 89 234 76Q247 63 247 44Q247 25 234 12Q221 -1 203 -1Z" glyph-name="question" horiz-adv-x="464" unicode="?" /><glyph d="M139 238Q137 232 132 227.5Q127 223 121 223H111Q105 223 101.5 227.5Q98 232 99 238L171 685Q172 691 176 695.5Q180 700 188 700H211Q217 700 221 696Q225 692 223 685ZM93 -1Q74 -1 61 12Q48 25 48 44Q48 63 61 76Q74 89 93 89Q111 89 124 76Q137 63 137 44Q137 25 124 12Q111 -1 93 -1Z" glyph-name="exclam" horiz-adv-x="243" unicode="!" /><glyph d="M208 -15Q171 -15 139.5 -4Q108 7 85 26.5Q62 46 49 73.5Q36 101 36 134Q36 175 51 207.5Q66 240 89.5 267.5Q113 295 140.5 319Q168 343 193 368Q218 393 237 420Q256 447 262 481L265 495Q266 500 268.5 503.5Q271 507 279 507H293Q306 507 304 495L301 478Q294 438 275 408Q256 378 231.5 352.5Q207 327 180.5 304Q154 281 132 256.5Q110 232 95.5 203Q81 174 81 137Q81 110 91 89Q101 68 118.5 53.5Q136 39 159 31.5Q182 24 208 24Q264 24 304.5 51Q345 78 371 130Q378 143 391 138L406 132Q411 130 412 124.5Q413 119 411 115Q381 53 330.5 19Q280 -15 208 -15ZM305 698Q324 698 337 685Q350 672 350 653Q350 634 337 621Q324 608 305 608Q287 608 274 621Q261 634 261 653Q261 672 274 685Q287 698 305 698Z" glyph-name="questiondown.alt" horiz-adv-x="464" unicode="" /><glyph d="M156 460Q158 466 163 470.5Q168 475 174 475H184Q190 475 193.5 470.5Q197 466 196 460L124 13Q123 7 119 2.5Q115 -2 107 -2H84Q78 -2 74 2Q70 6 72 13ZM202 699Q221 699 234 686Q247 673 247 654Q247 635 234 622Q221 609 202 609Q184 609 171 622Q158 635 158 654Q158 673 171 686Q184 699 202 699Z" glyph-name="exclamdown.alt" horiz-adv-x="257" unicode="" /><glyph d="M208 -15Q171 -15 139.5 -4Q108 7 85 26.5Q62 46 49 73.5Q36 101 36 134Q36 175 51 207.5Q66 240 89.5 267.5Q113 295 140.5 319Q168 343 193 368Q218 393 237 420Q256 447 262 481L265 495Q266 500 268.5 503.5Q271 507 279 507H293Q306 507 304 495L301 478Q294 438 275 408Q256 378 231.5 352.5Q207 327 180.5 304Q154 281 132 256.5Q110 232 95.5 203Q81 174 81 137Q81 110 91 89Q101 68 118.5 53.5Q136 39 159 31.5Q182 24 208 24Q264 24 304.5 51Q345 78 371 130Q378 143 391 138L406 132Q411 130 412 124.5Q413 119 411 115Q381 53 330.5 19Q280 -15 208 -15ZM305 698Q324 698 337 685Q350 672 350 653Q350 634 337 621Q324 608 305 608Q287 608 274 621Q261 634 261 653Q261 672 274 685Q287 698 305 698Z" glyph-name="questiondown" horiz-adv-x="451" unicode="¿" /><glyph d="M156 460Q158 466 163 470.5Q168 475 174 475H184Q190 475 193.5 470.5Q197 466 196 460L124 13Q123 7 119 2.5Q115 -2 107 -2H84Q78 -2 74 2Q70 6 72 13ZM202 699Q221 699 234 686Q247 673 247 654Q247 635 234 622Q221 609 202 609Q184 609 171 622Q158 635 158 654Q158 673 171 686Q184 699 202 699Z" glyph-name="exclamdown" horiz-adv-x="215" unicode="¡" /><glyph d="M152 -104Q107 -32 79.5 52Q52 136 52 228Q52 305 71.5 375.5Q91 446 125 509.5Q159 573 203.5 630Q248 687 298 738Q308 750 322 750H333Q341 750 344 743Q347 736 339 728Q291 680 247 623Q203 566 170 503Q137 440 117 371.5Q97 303 97 232Q97 144 123 61Q149 -22 194 -94Q199 -102 195.5 -109Q192 -116 184 -116H174Q159 -116 152 -104Z" glyph-name="parenleft" horiz-adv-x="266" unicode="(" /><glyph d="M145 738Q190 666 217.5 582Q245 498 245 406Q245 329 225.5 258.5Q206 188 172 124.5Q138 61 93.5 4Q49 -53 -1 -104Q-11 -116 -25 -116H-36Q-44 -116 -47 -109Q-50 -102 -42 -94Q6 -46 50 11Q94 68 127 131Q160 194 180 262.5Q200 331 200 402Q200 490 174 573Q148 656 103 728Q98 736 101.5 743Q105 750 113 750H123Q138 750 145 738Z" glyph-name="parenright" horiz-adv-x="265" unicode=")" /><glyph d="M108 -6Q103 -36 112 -48.5Q121 -61 145 -61H226Q232 -61 236 -64.5Q240 -68 238 -76L236 -88Q233 -103 219 -103H130Q97 -103 74.5 -82Q52 -61 61 -13L115 294Q117 308 111 315Q105 322 93 322H55Q49 322 44.5 325Q40 328 42 336L44 346Q46 355 51 358Q56 361 62 361H100Q126 361 131 389L179 660Q188 708 213.5 729Q239 750 280 750H369Q375 750 379 746.5Q383 743 381 735L379 723Q376 708 362 708H281Q257 708 243 695.5Q229 683 224 653L180 402Q175 379 161 362Q147 345 126 341Q146 337 154.5 320.5Q163 304 158 281L108 -6Z" glyph-name="braceleft" horiz-adv-x="305" unicode="{" /><glyph d="M159 245Q164 268 178 285Q192 302 213 306Q193 310 184.5 326.5Q176 343 181 366L231 653Q236 683 227 695.5Q218 708 194 708H113Q107 708 103 711.5Q99 715 101 723L103 735Q106 750 120 750H209Q242 750 264.5 729Q287 708 278 660L224 353Q222 339 228 332Q234 325 246 325H284Q290 325 294.5 322Q299 319 297 311L295 301Q293 292 288 289Q283 286 277 286H239Q213 286 208 258L160 -13Q151 -61 125.5 -82Q100 -103 59 -103H-30Q-36 -103 -40 -99.5Q-44 -96 -42 -88L-40 -76Q-37 -61 -23 -61H58Q82 -61 96 -48.5Q110 -36 115 -6Z" glyph-name="braceright" horiz-adv-x="306" unicode="}" /><glyph d="M365 723Q363 715 358 711.5Q353 708 347 708H218L82 -61H212Q218 -61 222 -64.5Q226 -68 224 -76L222 -88Q220 -96 215 -99.5Q210 -103 204 -103H46Q40 -103 36 -99.5Q32 -96 34 -88L179 735Q182 750 196 750H355Q361 750 365 746.5Q369 743 367 735Z" glyph-name="bracketleft" horiz-adv-x="290" unicode="[" /><glyph d="M-40 -76Q-38 -68 -33 -64.5Q-28 -61 -22 -61H107L243 708H113Q107 708 103 711.5Q99 715 101 723L103 735Q105 743 110 746.5Q115 750 121 750H279Q285 750 289 746.5Q293 743 291 735L146 -88Q143 -103 129 -103H-30Q-36 -103 -40 -99.5Q-44 -96 -42 -88Z" glyph-name="bracketright" horiz-adv-x="291" unicode="]" /><glyph d="M12 0Q7 0 4 4.5Q1 9 5 14L444 686Q453 700 464 700H482Q487 700 489.5 695.5Q492 691 489 686L52 14Q43 0 32 0Z" glyph-name="slash" horiz-adv-x="451" unicode="/" /><glyph d="M480 14Q482 9 479.5 4.5Q477 0 472 0H452Q441 0 434 14L109 686Q107 691 109.5 695.5Q112 700 117 700H135Q146 700 153 686Z" glyph-name="backslash" horiz-adv-x="545" unicode="\" /><glyph d="M-45 -134Q-51 -134 -54.5 -129.5Q-58 -125 -56 -119L-53 -107Q-51 -101 -47 -96.5Q-43 -92 -35 -92H173Q179 -92 182.5 -96.5Q186 -101 184 -107L181 -119Q179 -125 175 -129.5Q171 -134 163 -134Z" glyph-name="underscore" horiz-adv-x="248" unicode="_" /><glyph d="M82 236Q76 236 71.5 240Q67 244 69 252L71 265Q73 273 78 276.5Q83 280 89 280H263Q269 280 273.5 276Q278 272 276 264L274 251Q272 243 267 239.5Q262 236 256 236Z" glyph-name="hyphen" horiz-adv-x="335" unicode="-" /><glyph d="M82 236Q76 236 71.5 240Q67 244 69 252L71 265Q73 273 78 276.5Q83 280 89 280H481Q487 280 491.5 276Q496 272 494 264L492 251Q490 243 485 239.5Q480 236 474 236Z" glyph-name="endash" horiz-adv-x="553" unicode="–" /><glyph d="M82 236Q76 236 71.5 240Q67 244 69 252L71 265Q73 273 78 276.5Q83 280 89 280H946Q952 280 956.5 276Q961 272 959 264L957 251Q955 243 950 239.5Q945 236 939 236Z" glyph-name="emdash" horiz-adv-x="1018" unicode="—" /><glyph d="M186 425Q186 419 181.5 414.5Q177 410 171 410H153Q147 410 142.5 414.5Q138 419 138 425V810Q138 816 142.5 820.5Q147 825 153 825H171Q177 825 181.5 820.5Q186 816 186 810ZM186 -110Q186 -116 181.5 -120.5Q177 -125 171 -125H153Q147 -125 142.5 -120.5Q138 -116 138 -110V275Q138 281 142.5 285.5Q147 290 153 290H171Q177 290 181.5 285.5Q186 281 186 275Z" glyph-name="brokenbar" horiz-adv-x="281" unicode="¦" /><glyph d="M151 -125Q145 -125 140.5 -120.5Q136 -116 136 -110V810Q136 816 140.5 820.5Q145 825 151 825H167Q173 825 177.5 820.5Q182 816 182 810V-110Q182 -116 177.5 -120.5Q173 -125 167 -125Z" glyph-name="bar" horiz-adv-x="275" unicode="|" /><glyph d="M300 0Q286 0 281 13L207 222Q202 236 211 248L350 443Q360 456 371 456H394Q399 456 401 452Q403 448 399 443L252 230L324 13Q326 8 323.5 4Q321 0 314 0ZM151 0Q137 0 132 13L58 222Q53 236 62 248L201 443Q211 456 222 456H245Q250 456 252 452Q254 448 250 443L103 230L176 13Q178 8 175.5 4Q173 0 166 0Z" glyph-name="guillemotleft" horiz-adv-x="404" unicode="«" /><glyph d="M258 456Q272 456 277 443L351 234Q356 220 347 208L208 13Q198 0 187 0H164Q159 0 157 4Q155 8 159 13L306 226L233 443Q231 448 233.5 452Q236 456 243 456ZM109 456Q123 456 128 443L202 234Q207 220 198 208L59 13Q49 0 38 0H15Q10 0 8 4Q6 8 10 13L157 226L85 443Q83 448 85.5 452Q88 456 95 456Z" glyph-name="guillemotright" horiz-adv-x="398" unicode="»" /><glyph d="M152 0Q138 0 133 13L59 222Q54 236 63 248L202 443Q212 456 223 456H246Q251 456 253 452Q255 448 251 443L104 230L176 13Q178 8 175.5 4Q173 0 166 0Z" glyph-name="guilsinglleft" horiz-adv-x="256" unicode="‹" /><glyph d="M109 456Q123 456 128 443L202 234Q207 220 198 208L59 13Q49 0 38 0H15Q10 0 8 4Q6 8 10 13L157 226L85 443Q83 448 85.5 452Q88 456 95 456Z" glyph-name="guilsinglright" horiz-adv-x="249" unicode="›" /><glyph d="M101 88Q105 95 108 98.5Q111 102 120 102H139Q144 102 147 97.5Q150 93 147 88L43 -97Q39 -104 35.5 -107.5Q32 -111 24 -111H10Q4 -111 1 -106.5Q-2 -102 1 -97L101 88Z" glyph-name="quotesinglbase" horiz-adv-x="239" unicode="‚" /><glyph d="M101 88Q105 95 108 98.5Q111 102 120 102H139Q144 102 147 97.5Q150 93 147 88L43 -97Q39 -104 35.5 -107.5Q32 -111 24 -111H10Q4 -111 1 -106.5Q-2 -102 1 -97ZM261 88Q265 95 268 98.5Q271 102 280 102H299Q304 102 307 97.5Q310 93 307 88L203 -97Q199 -104 195.5 -107.5Q192 -111 184 -111H170Q164 -111 161 -106.5Q158 -102 161 -97Z" glyph-name="quotedblbase" horiz-adv-x="398" unicode="„" /><glyph d="M137 501Q133 494 130 490.5Q127 487 118 487H99Q94 487 91 491.5Q88 496 91 501L195 686Q199 693 202.5 696.5Q206 700 214 700H228Q234 700 237 695.5Q240 691 237 686L137 501Z" glyph-name="quoteleft" horiz-adv-x="238" unicode="‘" /><glyph d="M297 501Q293 494 290 490.5Q287 487 278 487H259Q254 487 251 491.5Q248 496 251 501L355 686Q359 693 362.5 696.5Q366 700 374 700H388Q394 700 397 695.5Q400 691 397 686ZM137 501Q133 494 130 490.5Q127 487 118 487H99Q94 487 91 491.5Q88 496 91 501L195 686Q199 693 202.5 696.5Q206 700 214 700H228Q234 700 237 695.5Q240 691 237 686Z" glyph-name="quotedblleft" horiz-adv-x="398" unicode="“" /><glyph d="M191 686Q195 693 198 696.5Q201 700 210 700H229Q234 700 237 695.5Q240 691 237 686L133 501Q129 494 125.5 490.5Q122 487 114 487H100Q94 487 91 491.5Q88 496 91 501L191 686Z" glyph-name="quoteright" horiz-adv-x="238" unicode="’" /><glyph d="M191 686Q195 693 198 696.5Q201 700 210 700H229Q234 700 237 695.5Q240 691 237 686L133 501Q129 494 125.5 490.5Q122 487 114 487H100Q94 487 91 491.5Q88 496 91 501ZM351 686Q355 693 358 696.5Q361 700 370 700H389Q394 700 397 695.5Q400 691 397 686L293 501Q289 494 285.5 490.5Q282 487 274 487H260Q254 487 251 491.5Q248 496 251 501Z" glyph-name="quotedblright" horiz-adv-x="398" unicode="”" /><glyph d="M191 686Q195 693 198 696.5Q201 700 210 700H229Q234 700 237 695.5Q240 691 237 686L133 501Q129 494 125.5 490.5Q122 487 114 487H100Q94 487 91 491.5Q88 496 91 501L191 686Z" glyph-name="quotesingle" horiz-adv-x="238" unicode="'" /><glyph d="M191 686Q195 693 198 696.5Q201 700 210 700H229Q234 700 237 695.5Q240 691 237 686L133 501Q129 494 125.5 490.5Q122 487 114 487H100Q94 487 91 491.5Q88 496 91 501ZM351 686Q355 693 358 696.5Q361 700 370 700H389Q394 700 397 695.5Q400 691 397 686L293 501Q289 494 285.5 490.5Q282 487 274 487H260Q254 487 251 491.5Q248 496 251 501Z" glyph-name="quotedbl" horiz-adv-x="398" unicode="&quot;" /><glyph d="M354 708Q358 715 361 718.5Q364 722 373 722H391Q396 722 398.5 717.5Q401 713 399 708L326 572Q322 565 318.5 561.5Q315 558 307 558H292Q286 558 283.5 562.5Q281 567 283 572L354 708Z" glyph-name="apostrophemod" horiz-adv-x="221" unicode="" /><glyph d="M191 686Q195 693 198 696.5Q201 700 210 700H229Q234 700 237 695.5Q240 691 237 686L133 501Q129 494 125.5 490.5Q122 487 114 487H100Q94 487 91 491.5Q88 496 91 501L191 686Z" glyph-name="apostrophe" horiz-adv-x="238" unicode="" /><glyph d="M186 282Q154 282 131.5 304.5Q109 327 109 359Q109 390 131.5 412.5Q154 435 186 435Q217 435 239.5 412.5Q262 390 262 359Q262 327 239.5 304.5Q217 282 186 282Z" glyph-name="bullet" horiz-adv-x="329" unicode="•" /><glyph d="M207 543Q207 508 224 474Q241 440 272 402L298 417Q343 443 371 464.5Q399 486 414.5 505.5Q430 525 435.5 543.5Q441 562 441 582Q441 601 433.5 618Q426 635 412 648Q398 661 378.5 668.5Q359 676 335 676Q312 676 289 667.5Q266 659 248 642.5Q230 626 218.5 601Q207 576 207 543ZM236 27Q269 27 298.5 35Q328 43 354.5 57Q381 71 403.5 89.5Q426 108 445 129L256 356L224 338Q181 314 153.5 290.5Q126 267 110 245Q94 223 88 202Q82 181 82 160Q82 136 91.5 112.5Q101 89 120.5 70Q140 51 168.5 39Q197 27 236 27ZM470 100Q425 50 365.5 19Q306 -12 229 -12Q181 -12 145 3Q109 18 84.5 42Q60 66 48 96.5Q36 127 36 158Q36 214 72.5 265Q109 316 198 364L234 383Q199 425 181.5 465.5Q164 506 164 540Q164 579 177 610.5Q190 642 213.5 664.5Q237 687 268.5 699.5Q300 712 337 712Q373 712 400 701Q427 690 445 671.5Q463 653 472.5 629.5Q482 606 482 582Q482 554 473.5 530Q465 506 445.5 483Q426 460 394.5 436.5Q363 413 316 386L295 374L473 163Q506 208 536 267.5Q566 327 588 393Q591 402 595.5 405Q600 408 606 408H621Q637 408 632 393Q621 359 606 324Q591 289 574 255Q557 221 537.5 190Q518 159 498 134L601 11Q605 6 602.5 3Q600 0 595 0H563Q557 0 554 1.5Q551 3 547 8Z" glyph-name="ampersand" horiz-adv-x="660" unicode="&amp;" /><glyph d="M479 700Q485 700 489 696Q493 692 492 686L374 15Q373 9 369.5 4.5Q366 0 358 0H343Q329 0 331 14L444 658H328L215 14Q212 0 199 0H184Q178 0 174 3.5Q170 7 172 14L232 356H229Q197 356 171 367Q145 378 126 396.5Q107 415 96.5 441Q86 467 86 497Q86 543 103 580.5Q120 618 148.5 644.5Q177 671 213.5 685.5Q250 700 289 700Z" glyph-name="paragraph" horiz-adv-x="513" unicode="¶" /><glyph d="M214 165Q211 150 196 150H183Q168 150 171 165L229 493H106Q100 493 96 496.5Q92 500 94 508L96 519Q99 534 114 534H236L263 685Q266 700 280 700H293Q299 700 303.5 696.5Q308 693 306 685L279 534H402Q408 534 412 530.5Q416 527 414 519L412 508Q409 493 394 493H272Z" glyph-name="dagger" horiz-adv-x="408" unicode="†" /><glyph d="M187 15Q184 0 170 0H157Q151 0 146.5 3.5Q142 7 144 15L180 216H57Q51 216 47 219.5Q43 223 45 231L47 242Q50 257 65 257H187L221 443H98Q92 443 88 446.5Q84 450 86 458L88 469Q91 484 106 484H227L263 685Q266 700 280 700H293Q299 700 303.5 696.5Q308 693 306 685L271 484H394Q400 484 404 480.5Q408 477 406 469L404 458Q401 443 386 443H264L230 257H353Q359 257 363 253.5Q367 250 365 242L363 231Q360 216 345 216H224Z" glyph-name="daggerdbl" horiz-adv-x="408" unicode="‡" /><glyph d="M359 144Q437 99 466 51Q578 87 578 176Q578 220 553 248.5Q528 277 476 307L321 396Q243 441 214 489Q102 453 102 364Q102 320 126.5 291.5Q151 263 204 233ZM485 -23Q485 -62 469 -97.5Q453 -133 423 -159Q393 -185 351 -200.5Q309 -216 258 -216Q186 -216 123.5 -186.5Q61 -157 26 -100Q19 -88 32 -81L44 -74Q57 -67 65 -80Q81 -106 103.5 -124.5Q126 -143 151.5 -155Q177 -167 204.5 -172.5Q232 -178 259 -178Q301 -178 335 -166Q369 -154 393 -133Q417 -112 429.5 -84.5Q442 -57 442 -27Q442 12 417.5 45Q393 78 334 112L169 207Q107 243 84 281Q61 319 61 358Q61 414 99 458.5Q137 503 201 520Q195 539 195 563Q195 602 211 637.5Q227 673 257 699Q287 725 329 740.5Q371 756 422 756Q494 756 556.5 726.5Q619 697 654 640Q661 628 648 621L636 614Q623 607 615 620Q582 672 528.5 695Q475 718 421 718Q379 718 345 706Q311 694 287 673Q263 652 250.5 624.5Q238 597 238 567Q238 528 262.5 495Q287 462 346 428L511 333Q573 297 596 259Q619 221 619 182Q619 126 581 81.5Q543 37 479 20Q485 0 485 -23Z" glyph-name="section" horiz-adv-x="665" unicode="§" /><glyph d="M283 366Q281 355 272 348.5Q263 342 252 344Q241 346 234.5 355.5Q228 365 230 376Q231 381 237 400.5Q243 420 251 443.5Q259 467 266 487.5Q273 508 276 515Q270 512 250 502.5Q230 493 208 483Q186 473 167 464Q148 455 142 454Q131 451 121 455.5Q111 460 108 471Q105 482 110 491.5Q115 501 125 506Q131 507 152.5 511Q174 515 198 519Q222 523 243.5 526Q265 529 271 530Q265 534 246 544Q227 554 206 566Q185 578 166.5 588Q148 598 143 602Q135 609 133 621Q131 633 138 641Q146 651 156.5 652.5Q167 654 177 646Q181 643 195.5 628.5Q210 614 227 596.5Q244 579 259.5 564Q275 549 280 544Q280 553 280.5 574Q281 595 281.5 618Q282 641 282.5 660.5Q283 680 285 686Q288 697 296.5 703.5Q305 710 316 708Q327 706 333.5 696.5Q340 687 338 676Q337 671 331 651.5Q325 632 317.5 609.5Q310 587 303.5 567Q297 547 295 541Q301 544 320 553Q339 562 361 572.5Q383 583 402 591.5Q421 600 426 602Q437 606 447 600.5Q457 595 461 584Q464 573 459 563Q454 553 443 549Q437 547 416.5 544Q396 541 372.5 537.5Q349 534 327.5 530.5Q306 527 298 526Q304 523 322.5 512.5Q341 502 362 490Q383 478 401.5 467.5Q420 457 425 453Q433 445 435.5 434.5Q438 424 430 414Q422 404 412 403.5Q402 403 391 410Q386 413 371.5 427.5Q357 442 340 459.5Q323 477 308 492.5Q293 508 289 513Q289 505 288.5 483.5Q288 462 287 437.5Q286 413 285 392.5Q284 372 283 366Z" glyph-name="asterisk" horiz-adv-x="475" unicode="*" /><glyph d="M115 686Q118 700 130 700H432Q438 700 442 697Q446 694 444 686L442 675Q439 661 427 661H297L247 374Q245 366 240 362.5Q235 359 229 359H215Q209 359 205 362.5Q201 366 203 374L254 661H123Q110 661 113 675ZM656 481 794 686Q803 700 817 700H860Q865 700 869.5 696Q874 692 872 685L817 374Q815 366 810 362.5Q805 359 799 359H785Q779 359 774.5 362.5Q770 366 772 374L822 655L678 447Q669 433 655 433H646Q631 433 626 447L549 656L500 374Q499 368 494 363.5Q489 359 483 359H470Q464 359 460 362.5Q456 366 458 374L512 685Q514 693 519 696.5Q524 700 530 700H563Q577 700 582 686Z" glyph-name="trademark" horiz-adv-x="878" unicode="™" /><glyph d="M77 350Q77 428 105 494Q133 560 182 607.5Q231 655 296.5 681.5Q362 708 436 708Q510 708 575.5 681.5Q641 655 689.5 607.5Q738 560 766.5 494Q795 428 795 350Q795 272 766.5 206.5Q738 141 689.5 93.5Q641 46 575.5 19.5Q510 -7 436 -7Q362 -7 296.5 19.5Q231 46 182 93.5Q133 141 105 206.5Q77 272 77 350ZM753 350Q753 420 728 479.5Q703 539 660 581.5Q617 624 559 648Q501 672 436 672Q371 672 313 648Q255 624 212 581.5Q169 539 144 479.5Q119 420 119 350Q119 280 144 221Q169 162 212 119.5Q255 77 313 53Q371 29 436 29Q501 29 559 53Q617 77 660 119.5Q703 162 728 221Q753 280 753 350ZM459 566Q498 566 527.5 555Q557 544 576.5 525Q596 506 606 482Q616 458 616 431Q616 386 588 349Q560 312 505 300L600 139Q602 135 599.5 131.5Q597 128 591 128H570Q559 128 553 139L463 296H459H347V142Q347 137 342.5 133Q338 129 333 129H319Q314 129 310 133Q306 137 306 142V553Q306 558 310 562Q314 566 319 566ZM575 432Q575 479 543 505Q511 531 463 531H347V331H463Q511 331 543 358Q575 385 575 432Z" glyph-name="registered" horiz-adv-x="828" unicode="®" /><glyph d="M239 350Q239 395 254.5 433Q270 471 298 498.5Q326 526 363 541.5Q400 557 444 557Q507 557 554.5 524.5Q602 492 623 438Q625 433 622 428.5Q619 424 613 424H594Q581 424 575 438Q558 475 523.5 496.5Q489 518 442 518Q406 518 377 505Q348 492 327.5 469.5Q307 447 295.5 416.5Q284 386 284 350Q284 314 295.5 283.5Q307 253 327.5 230.5Q348 208 377 195.5Q406 183 442 183Q489 183 523.5 204.5Q558 226 575 263Q581 277 594 277H613Q619 277 622 272.5Q625 268 623 263Q602 209 554.5 176.5Q507 144 444 144Q400 144 363 159Q326 174 298 201.5Q270 229 254.5 267Q239 305 239 350ZM77 350Q77 428 105 494Q133 560 182 607.5Q231 655 296.5 681.5Q362 708 436 708Q510 708 575.5 681.5Q641 655 689.5 607.5Q738 560 766.5 494Q795 428 795 350Q795 272 766.5 206.5Q738 141 689.5 93.5Q641 46 575.5 19.5Q510 -7 436 -7Q362 -7 296.5 19.5Q231 46 182 93.5Q133 141 105 206.5Q77 272 77 350ZM753 350Q753 420 728 479.5Q703 539 660 581.5Q617 624 559 648Q501 672 436 672Q371 672 313 648Q255 624 212 581.5Q169 539 144 479.5Q119 420 119 350Q119 280 144 221Q169 162 212 119.5Q255 77 313 53Q371 29 436 29Q501 29 559 53Q617 77 660 119.5Q703 162 728 221Q753 280 753 350Z" glyph-name="copyright" horiz-adv-x="828" unicode="©" /><glyph d="M77 350Q77 428 105 494Q133 560 182 607.5Q231 655 296.5 681.5Q362 708 436 708Q510 708 575.5 681.5Q641 655 689.5 607.5Q738 560 766.5 494Q795 428 795 350Q795 272 766.5 206.5Q738 141 689.5 93.5Q641 46 575.5 19.5Q510 -7 436 -7Q362 -7 296.5 19.5Q231 46 182 93.5Q133 141 105 206.5Q77 272 77 350ZM753 350Q753 420 728 479.5Q703 539 660 581.5Q617 624 559 648Q501 672 436 672Q371 672 313 648Q255 624 212 581.5Q169 539 144 479.5Q119 420 119 350Q119 280 144 221Q169 162 212 119.5Q255 77 313 53Q371 29 436 29Q501 29 559 53Q617 77 660 119.5Q703 162 728 221Q753 280 753 350ZM459 566Q498 566 527.5 555Q557 544 576.5 525Q596 506 606 482Q616 458 616 431Q616 404 606 380Q596 356 576.5 337Q557 318 527.5 307Q498 296 459 296H347V142Q347 137 342.5 133Q338 129 333 129H319Q314 129 310 133Q306 137 306 142V553Q306 558 310 562Q314 566 319 566ZM575 432Q575 479 543 505Q511 531 463 531H347V331H463Q511 331 543 358Q575 385 575 432Z" glyph-name="product" horiz-adv-x="828" unicode="∏" /></font>
</defs>
</svg>
