<?xml version="1.0" standalone="no"?>
<!DOCTYPE svg
  PUBLIC '-//W3C//DTD SVG 1.1//EN'
  'http://www.w3.org/Graphics/SVG/1.1/DTD/svg11.dtd'><svg version="1.1" xmlns="http://www.w3.org/2000/svg"><defs><font horiz-adv-x="0" id="font"><font-face ascent="750" bbox="-192 -237 4647 993" cap-height="700" descent="-250" font-family="Qualcomm Next WEB" font-stretch="normal" font-style="normal" font-weight="700" units-per-em="1000" x-height="472" /><missing-glyph d="" horiz-adv-x="94" /><glyph d="" glyph-name=".null" horiz-adv-x="0" unicode="" /><glyph d="" glyph-name="nonmarkingreturn" horiz-adv-x="0" unicode="" /><glyph d="" glyph-name="space" horiz-adv-x="229" unicode=" " /><glyph d="" glyph-name="uni00A0" horiz-adv-x="359" unicode=" " /><glyph d="M392 612 213 272H457ZM81 17Q72 0 57 0H-11Q-20 0 -24 7Q-28 14 -22 25L331 682Q341 700 357 700H455Q463 700 468.5 695.5Q474 691 476 682L606 25Q608 13 603 6.5Q598 0 588 0H522Q507 0 504 17L472 188H170Z" glyph-name="A" horiz-adv-x="653" unicode="A" /><glyph d="M55 0Q47 0 42.5 5.5Q38 11 40 19L157 681Q159 689 164.5 694.5Q170 700 178 700H452Q505 700 542.5 685.5Q580 671 604 647.5Q628 624 639 595Q650 566 650 537Q650 514 642.5 489Q635 464 619 440.5Q603 417 578 398.5Q553 380 518 370Q575 348 602 306Q629 264 629 215Q629 182 615.5 144.5Q602 107 572 74.5Q542 42 494.5 21Q447 0 380 0ZM205 405 403 405Q470 405 508 437.5Q546 470 546 525Q546 569 516.5 594.5Q487 620 435 620H244ZM378 80Q411 80 438 90.5Q465 101 484.5 119Q504 137 515 162Q526 187 526 217Q526 244 515.5 264.5Q505 285 486 299Q467 313 442 320.5Q417 328 389 328H192L148 80Z" glyph-name="B" horiz-adv-x="669" unicode="B" /><glyph d="M156 319Q156 265 173 220Q190 175 221 142.5Q252 110 295 92Q338 74 389 74Q471 74 528 114.5Q585 155 622 220Q625 226 630 231Q635 236 643 233L702 210Q711 206 712 201Q713 196 710 190Q663 94 576.5 40Q490 -14 382 -14Q309 -14 249 11Q189 36 146 80.5Q103 125 79 185Q55 245 55 316Q55 400 85 472.5Q115 545 166.5 598.5Q218 652 286.5 682Q355 712 431 712Q490 712 541.5 695.5Q593 679 634 649Q675 619 703 576.5Q731 534 744 482Q745 477 743.5 471.5Q742 466 732 464L672 455Q658 452 653 465Q627 539 571.5 582Q516 625 432 625Q374 625 324 601Q274 577 236.5 535.5Q199 494 177.5 438Q156 382 156 319Z" glyph-name="C" horiz-adv-x="730" unicode="C" /><glyph d="M375 700Q457 700 520.5 677Q584 654 627 613Q670 572 692.5 516Q715 460 715 394Q715 307 684.5 235Q654 163 599.5 110.5Q545 58 469 29Q393 0 302 0H55Q47 0 42.5 5.5Q38 11 40 19L157 681Q159 689 164.5 694.5Q170 700 178 700ZM304 91Q373 91 430 112.5Q487 134 527.5 173.5Q568 213 590.5 268Q613 323 613 390Q613 441 596.5 481.5Q580 522 548.5 550.5Q517 579 472.5 594Q428 609 372 609H242L151 91Z" glyph-name="D" horiz-adv-x="728" unicode="D" /><glyph d="M647 700Q654 700 659 694.5Q664 689 662 681L652 627Q649 608 630 608H242L205 398H406Q414 398 418.5 392.5Q423 387 421 379L412 328Q410 320 404 314Q398 308 390 308H189L151 92H544Q562 92 559 73L550 19Q547 0 527 0H55Q47 0 42.5 5.5Q38 11 40 19L157 681Q159 689 164.5 694.5Q170 700 178 700Z" glyph-name="E" horiz-adv-x="612" unicode="E" /><glyph d="M477 304Q474 285 455 285H185L137 19Q135 11 129.5 5.5Q124 0 116 0H55Q47 0 42.5 5.5Q38 11 40 19L157 681Q159 689 164.5 694.5Q170 700 178 700H623Q631 700 635.5 694.5Q640 689 638 681L628 627Q625 608 606 608H242L200 375H471Q479 375 483.5 369.5Q488 364 486 356Z" glyph-name="F" horiz-adv-x="577" unicode="F" /><glyph d="M612 119Q596 95 572.5 71.5Q549 48 517.5 29Q486 10 447 -1.5Q408 -13 360 -13Q293 -13 236.5 11Q180 35 139.5 77.5Q99 120 76.5 178.5Q54 237 54 306Q54 391 83.5 465.5Q113 540 165 595Q217 650 288 681.5Q359 713 442 713Q500 713 551 698Q602 683 643 655Q684 627 712.5 587.5Q741 548 755 500Q757 495 754.5 489Q752 483 742 480L685 464Q677 462 672 466Q667 470 665 476Q639 545 583 585Q527 625 441 625Q379 625 327 599.5Q275 574 237 531.5Q199 489 177.5 432.5Q156 376 156 313Q156 261 172 217Q188 173 217.5 141.5Q247 110 289 92Q331 74 383 74Q427 74 466 87.5Q505 101 537 124.5Q569 148 593.5 180Q618 212 634 250H417Q409 250 405 255.5Q401 261 403 269L410 314Q412 322 417.5 326.5Q423 331 431 331H719Q728 331 733 326Q738 321 736 313L684 19Q681 0 661 0H611Q603 0 597.5 5.5Q592 11 594 22L612 119Z" glyph-name="G" horiz-adv-x="764" unicode="G" /><glyph d="M628 19Q626 10 620.5 5Q615 0 607 0H545Q537 0 532.5 5.5Q528 11 530 19L581 308H189L138 19Q135 0 117 0H55Q47 0 42.5 5.5Q38 11 40 19L157 681Q160 700 179 700H239Q258 700 255 681L205 398H598L647 681Q650 700 669 700H729Q748 700 745 681Z" glyph-name="H" horiz-adv-x="744" unicode="H" /><glyph d="M54 0Q37 0 40 19L157 681Q160 700 178 700H239Q247 700 251.5 695Q256 690 254 681L137 19Q134 0 116 0Z" glyph-name="I" horiz-adv-x="253" unicode="I" /><glyph d="M505 195Q488 100 423 43.5Q358 -13 244 -13Q189 -13 143.5 5Q98 23 67 55.5Q36 88 22.5 133.5Q9 179 19 234L24 264Q26 272 32 277Q38 282 46 282H104Q112 282 116.5 277Q121 272 119 264L113 229Q107 195 114.5 166.5Q122 138 140 117.5Q158 97 185.5 85.5Q213 74 249 74Q286 74 313.5 84.5Q341 95 360.5 112.5Q380 130 391.5 153.5Q403 177 408 204L492 681Q494 689 500 694.5Q506 700 514 700H574Q582 700 587.5 694.5Q593 689 591 681L505 195Z" glyph-name="J" horiz-adv-x="584" unicode="J" /><glyph d="M138 19Q136 11 130.5 5.5Q125 0 117 0H55Q47 0 42.5 5.5Q38 11 40 19L157 681Q160 700 177 700H239Q257 700 254 681L205 404H296L582 685Q590 693 597 696.5Q604 700 615 700H695Q705 700 707 693.5Q709 687 702 680L375 364L595 20Q600 12 595.5 6Q591 0 583 0H512Q501 0 495 3.5Q489 7 484 15L293 320H190L138 19Z" glyph-name="K" horiz-adv-x="635" unicode="K" /><glyph d="M498 19Q495 0 475 0H55Q47 0 42.5 5.5Q38 11 40 19L157 681Q159 689 164.5 694.5Q170 700 178 700H239Q247 700 251.5 694.5Q256 689 254 681L150 92H492Q511 92 508 73Z" glyph-name="L" horiz-adv-x="541" unicode="L" /><glyph d="M434 245 717 683Q728 700 747 700H858Q866 700 870.5 694.5Q875 689 873 681L756 19Q754 11 748 5.5Q742 0 735 0H674Q666 0 661.5 5Q657 10 659 19L758 580L468 140Q461 129 454 125.5Q447 122 439 122H393Q384 122 378.5 125.5Q373 129 370 140L235 580L137 19Q134 0 115 0H55Q47 0 42.5 5.5Q38 11 40 19L157 681Q159 689 164.5 694.5Q170 700 178 700H280Q288 700 294.5 696Q301 692 303 683Z" glyph-name="M" horiz-adv-x="872" unicode="M" /><glyph d="M230 555 136 19Q133 0 116 0H55Q47 0 42.5 5.5Q38 11 40 19L157 681Q160 700 177 700H250Q266 700 273 685L529 152L621 681Q623 690 629.5 695Q636 700 643 700H704Q712 700 716.5 694.5Q721 689 719 681L602 19Q599 0 581 0H521Q498 0 490 18Z" glyph-name="N" horiz-adv-x="718" unicode="N" /><glyph d="M429 713Q503 713 564.5 687.5Q626 662 669.5 617.5Q713 573 737 512Q761 451 761 380Q761 298 732.5 226.5Q704 155 654 101.5Q604 48 535.5 17.5Q467 -13 387 -13Q313 -13 252 12.5Q191 38 147.5 82.5Q104 127 80 188Q56 249 56 320Q56 402 84.5 473.5Q113 545 163 598Q213 651 281 682Q349 713 429 713ZM429 625Q371 625 321 601Q271 577 234.5 535.5Q198 494 177 438.5Q156 383 156 320Q156 267 173 222Q190 177 221 144.5Q252 112 295 93.5Q338 75 389 75Q447 75 496.5 99Q546 123 582.5 164.5Q619 206 640 261.5Q661 317 661 380Q661 433 644 478Q627 523 596 555.5Q565 588 522.5 606.5Q480 625 429 625Z" glyph-name="O" horiz-adv-x="776" unicode="O" /><glyph d="M180 253 139 19Q136 0 117 0H55Q47 0 42.5 5.5Q38 11 40 19L157 681Q159 689 164.5 694.5Q170 700 178 700H407Q465 700 508.5 683.5Q552 667 580 639.5Q608 612 622 575Q636 538 636 497Q636 447 618.5 403Q601 359 566 325.5Q531 292 479.5 272.5Q428 253 360 253ZM361 341Q437 341 485 380Q533 419 533 490Q533 550 495.5 581.5Q458 613 395 613H244L196 341Z" glyph-name="P" horiz-adv-x="614" unicode="P" /><glyph d="M429 713Q503 713 564.5 687.5Q626 662 669.5 617.5Q713 573 737 512Q761 451 761 380Q761 284 723 203.5Q685 123 619 69L703 -91Q711 -105 703.5 -112.5Q696 -120 685 -120H629Q618 -120 612.5 -115Q607 -110 602 -102L539 19Q504 4 466 -4.5Q428 -13 387 -13Q313 -13 252 12.5Q191 38 147.5 82.5Q104 127 80 188Q56 249 56 320Q56 402 84.5 473.5Q113 545 163 598Q213 651 281 682Q349 713 429 713ZM429 625Q371 625 321 601Q271 577 234.5 535.5Q198 494 177 438.5Q156 383 156 320Q156 267 173 222Q190 177 221 144.5Q252 112 295 93.5Q338 75 389 75Q447 75 497 99L419 251Q411 265 418.5 272.5Q426 280 437 280H491Q505 280 511 274.5Q517 269 521 261L575 156Q615 198 638 255.5Q661 313 661 380Q661 433 644 478Q627 523 596 555.5Q565 588 522.5 606.5Q480 625 429 625Z" glyph-name="Q" horiz-adv-x="776" unicode="Q" /><glyph d="M396 367Q441 367 473 379Q505 391 525.5 410.5Q546 430 555 454Q564 478 564 503Q564 553 531 583Q498 613 438 613H242L199 367ZM137 19Q135 11 130 5.5Q125 0 116 0H55Q47 0 42.5 5.5Q38 11 40 19L157 681Q159 689 164.5 694.5Q170 700 178 700H451Q502 700 542 686Q582 672 609.5 647Q637 622 651.5 588Q666 554 666 514Q666 491 659 459Q652 427 630.5 395Q609 363 570 336.5Q531 310 468 298L610 22Q614 14 609.5 7Q605 0 595 0H530Q519 0 514.5 4Q510 8 505 19L371 284H184Z" glyph-name="R" horiz-adv-x="671" unicode="R" /><glyph d="M350 713Q398 713 438 703.5Q478 694 510.5 678Q543 662 568 641.5Q593 621 610 600Q621 586 616.5 576.5Q612 567 604 561L572 538Q561 530 551.5 532.5Q542 535 534 544Q496 584 450.5 605.5Q405 627 346 627Q281 627 239 597Q197 567 197 516Q197 491 214.5 467.5Q232 444 282 426L417 375Q488 349 527 305Q566 261 566 198Q566 163 551.5 125.5Q537 88 505 57Q473 26 422.5 6.5Q372 -13 300 -13Q245 -13 199.5 -0.5Q154 12 118.5 31.5Q83 51 57.5 75Q32 99 17 121Q2 142 27 161L55 183Q78 201 97 177Q112 157 132 138.5Q152 120 177.5 105.5Q203 91 234 82Q265 73 302 73Q343 73 373.5 83Q404 93 423.5 109.5Q443 126 452.5 147.5Q462 169 462 191Q462 256 365 292L233 340Q162 366 128 409.5Q94 453 94 506Q94 550 111.5 588Q129 626 162 653.5Q195 681 242.5 697Q290 713 350 713Z" glyph-name="S" horiz-adv-x="606" unicode="S" /><glyph d="M90 681Q91 689 96.5 694.5Q102 700 110 700H658Q666 700 670.5 694.5Q675 689 673 681L664 627Q661 608 642 608H418L314 19Q311 0 292 0H229Q221 0 216.5 5.5Q212 11 214 19L318 608H95Q87 608 82.5 613.5Q78 619 80 627Z" glyph-name="T" horiz-adv-x="607" unicode="T" /><glyph d="M630 244Q607 115 528.5 51Q450 -13 323 -13Q266 -13 215.5 4Q165 21 130 53.5Q95 86 78.5 133.5Q62 181 73 243L151 681Q153 689 158.5 694.5Q164 700 172 700H234Q242 700 246.5 694.5Q251 689 249 681L173 247Q166 207 174.5 175.5Q183 144 205 122Q227 100 260 88.5Q293 77 335 77Q414 77 465.5 121.5Q517 166 531 247L607 681Q609 689 615.5 694.5Q622 700 630 700H692Q700 700 704.5 694.5Q709 689 707 681L630 244Z" glyph-name="U" horiz-adv-x="699" unicode="U" /><glyph d="M240 0Q233 0 227 4Q221 8 219 18L90 675Q88 687 93.5 693.5Q99 700 109 700H179Q193 700 196 683L303 105H306L611 683Q620 700 634 700H710Q719 700 722.5 693.5Q726 687 720 676L361 18Q356 9 348 4.5Q340 0 333 0Z" glyph-name="V" horiz-adv-x="654" unicode="V" /><glyph d="M309 18Q305 9 297.5 4.5Q290 0 283 0H183Q176 0 170 4.5Q164 9 163 18L89 675Q87 687 94 693.5Q101 700 111 700H177Q185 700 189 695Q193 690 194 682L252 112L511 683Q518 700 534 700H611Q619 700 624 695Q629 690 630 683L702 116L951 682Q954 690 960 695Q966 700 974 700H1043Q1052 700 1056.5 694.5Q1061 689 1055 675L755 18Q750 9 741.5 4.5Q733 0 728 0H639Q632 0 625.5 4.5Q619 9 617 18L551 553L309 18Z" glyph-name="W" horiz-adv-x="994" unicode="W" /><glyph d="M89 15Q84 9 77.5 4.5Q71 0 62 0H-21Q-32 0 -33.5 8Q-35 16 -29 22L267 361L97 678Q93 686 97.5 693Q102 700 111 700H182Q193 700 197.5 696Q202 692 206 685L339 428L557 685Q562 692 568 696Q574 700 583 700H664Q676 700 677.5 692.5Q679 685 673 678L390 351L566 22Q571 15 566.5 7.5Q562 0 551 0H479Q469 0 465 4.5Q461 9 457 16L316 281L89 15Z" glyph-name="X" horiz-adv-x="611" unicode="X" /><glyph d="M242 0Q234 0 229 5.5Q224 11 226 19L276 295L95 676Q91 684 96 692Q101 700 110 700H180Q195 700 201 686L337 388H340L575 686Q585 700 600 700H681Q690 700 693 693Q696 686 688 676L373 292L324 19Q322 11 316.5 5.5Q311 0 303 0Z" glyph-name="Y" horiz-adv-x="628" unicode="Y" /><glyph d="M-5 0Q-24 0 -21 19L-13 60Q-11 68 -5.5 75.5Q0 83 6 89L492 611H128Q120 611 115.5 616Q111 621 113 629L121 681Q123 691 129.5 695.5Q136 700 144 700H618Q626 700 630.5 694.5Q635 689 633 681L625 634Q623 626 618 618Q613 610 607 603L129 89H532Q540 89 544.5 84Q549 79 547 71L538 19Q536 11 530 5.5Q524 0 516 0Z" glyph-name="Z" horiz-adv-x="594" unicode="Z" /><glyph d="M400 619 216 274H462ZM85 18Q81 10 75.5 5Q70 0 60 0H-13Q-21 0 -25 6.5Q-29 13 -23 24L334 682Q339 691 346.5 695.5Q354 700 361 700H948Q967 700 964 681L954 625Q951 606 932 606H505L544 398H763Q781 398 778 379L770 328Q767 308 747 308H558L601 94H843Q851 94 855.5 88.5Q860 83 858 75L848 19Q846 11 840.5 5.5Q835 0 826 0H527Q507 0 504 18L474 188H175Z" glyph-name="AE" horiz-adv-x="913" unicode="Æ" /><glyph d="M429 625Q371 625 321.5 601Q272 577 235.5 535.5Q199 494 178.5 438.5Q158 383 158 320Q158 267 175 222Q192 177 222.5 144.5Q253 112 295.5 93.5Q338 75 389 75Q447 75 496 99Q545 123 580.5 164.5Q616 206 636 261.5Q656 317 656 380Q656 433 639.5 478Q623 523 593.5 555.5Q564 588 522 606.5Q480 625 429 625ZM609 100Q566 46 505.5 16.5Q445 -13 375 -13Q304 -13 245.5 12Q187 37 145 81.5Q103 126 79.5 186Q56 246 56 316Q56 399 84 471.5Q112 544 161 597.5Q210 651 277.5 682Q345 713 423 713Q519 713 588.5 667.5Q658 622 686 543L712 681Q714 689 719.5 694.5Q725 700 733 700H1202Q1210 700 1214.5 694.5Q1219 689 1217 681L1207 627Q1204 608 1185 608H797L760 398H960Q979 398 976 379L967 328Q965 320 959 314Q953 308 945 308H744L705 92H1098Q1116 92 1113 73L1104 19Q1101 0 1082 0H610Q602 0 597 5.5Q592 11 594 19Z" glyph-name="OE" horiz-adv-x="1167" unicode="Œ" /><glyph d="M66 0Q58 0 53 5.5Q48 11 50 19L94 265L29 246Q18 243 14 247.5Q10 252 12 261L19 305Q22 321 39 326L108 347L168 681Q170 689 175.5 694.5Q181 700 189 700H250Q258 700 262.5 694.5Q267 689 265 681L211 375L389 426Q397 428 402.5 424.5Q408 421 406 412L398 366Q395 349 379 345L197 293L161 92H503Q522 92 519 73L509 19Q506 0 486 0Z" glyph-name="Lslash" horiz-adv-x="552" unicode="Ł" /><glyph d="M429 713Q503 713 564.5 687.5Q626 662 669.5 617.5Q713 573 737 512Q761 451 761 380Q761 298 732.5 226.5Q704 155 654 101.5Q604 48 535.5 17.5Q467 -13 387 -13Q313 -13 252 12.5Q191 38 147.5 82.5Q104 127 80 188Q56 249 56 320Q56 402 84.5 473.5Q113 545 163 598Q213 651 281 682Q349 713 429 713ZM156 320Q156 278 167 241Q178 204 198 175L568 580Q540 601 505 613Q470 625 429 625Q371 625 321 601Q271 577 234.5 535.5Q198 494 177 438.5Q156 383 156 320ZM389 75Q447 75 496.5 99Q546 123 582.5 164.5Q619 206 640 261.5Q661 317 661 380Q661 421 651 456.5Q641 492 622 521L255 116Q283 96 316.5 85.5Q350 75 389 75Z" glyph-name="Oslash" horiz-adv-x="776" unicode="Ø" /><glyph d="M66 0Q58 0 53.5 5.5Q49 11 51 19L103 313H35Q16 313 19 333L27 375Q30 394 49 394H117L168 681Q170 689 175.5 694.5Q181 700 189 700H386Q468 700 531 677Q594 654 637.5 613Q681 572 703.5 516Q726 460 726 394Q726 307 695.5 235Q665 163 610.5 110.5Q556 58 480 29Q404 0 313 0ZM315 91Q384 91 441 112.5Q498 134 538.5 173.5Q579 213 601.5 268Q624 323 624 390Q624 441 607.5 481.5Q591 522 559.5 550.5Q528 579 483.5 594Q439 609 383 609H253L215 394H404Q412 394 416.5 388.5Q421 383 419 375L412 333Q410 325 403.5 319Q397 313 389 313H201L162 91Z" glyph-name="Eth" horiz-adv-x="739" unicode="Ð" /><glyph d="M138 19Q136 10 130.5 5Q125 0 117 0H55Q47 0 42.5 5.5Q38 11 40 19L157 681Q159 690 164.5 695Q170 700 178 700H240Q248 700 252.5 695Q257 690 255 681L239 588H387Q446 588 489 571.5Q532 555 560.5 527.5Q589 500 602.5 463Q616 426 616 386Q616 336 598.5 291.5Q581 247 546 214Q511 181 459.5 161.5Q408 142 340 142H160ZM224 501 177 229H341Q417 229 465 268.5Q513 308 513 378Q513 438 475.5 469.5Q438 501 375 501Z" glyph-name="Thorn" horiz-adv-x="621" unicode="Þ" /><glyph d="M263 71Q297 71 327 85.5Q357 100 379 125Q401 150 414 183.5Q427 217 427 255Q427 285 417.5 311.5Q408 338 390 357.5Q372 377 346.5 388.5Q321 400 290 400Q255 400 225.5 385.5Q196 371 174.5 345.5Q153 320 140.5 286.5Q128 253 128 215Q128 186 137 160Q146 134 163 114Q180 94 205 82.5Q230 71 263 71ZM32 208Q32 270 52.5 321Q73 372 107.5 408.5Q142 445 187 465Q232 485 281 485Q339 485 385 457.5Q431 430 451 383L464 453Q466 463 471.5 467.5Q477 472 485 472H542Q560 472 557 453L480 18Q478 10 472.5 5Q467 0 459 0H401Q393 0 388.5 5.5Q384 11 386 18L396 70Q373 35 331.5 11Q290 -13 236 -13Q191 -13 153.5 4Q116 21 89 50.5Q62 80 47 120.5Q32 161 32 208Z" glyph-name="a" horiz-adv-x="576" unicode="a" /><glyph d="M217 700Q225 700 229.5 695Q234 690 232 682L183 407Q206 439 246.5 462Q287 485 340 485Q384 485 422 468.5Q460 452 487.5 422.5Q515 393 530.5 352.5Q546 312 546 265Q546 203 526 152Q506 101 471.5 64Q437 27 392 7Q347 -13 297 -13Q238 -13 193 14.5Q148 42 127 89L115 18Q113 8 107 4Q101 0 94 0H36Q28 0 23.5 5Q19 10 21 18L138 682Q140 690 145.5 695Q151 700 159 700ZM315 400Q281 400 251 385.5Q221 371 199 346Q177 321 164 287Q151 253 151 215Q151 185 160.5 158.5Q170 132 188 112.5Q206 93 231.5 82Q257 71 288 71Q323 71 352.5 85.5Q382 100 404 125.5Q426 151 438 184.5Q450 218 450 256Q450 285 441 311Q432 337 415 357Q398 377 373 388.5Q348 400 315 400Z" glyph-name="b" horiz-adv-x="576" unicode="b" /><glyph d="M458 84Q426 39 376.5 13Q327 -13 260 -13Q209 -13 167 4.5Q125 22 95 52.5Q65 83 48.5 124Q32 165 32 212Q32 270 51.5 320Q71 370 105 407Q139 444 185 464.5Q231 485 285 485Q368 485 419.5 450Q471 415 494 364Q497 357 494 351Q491 345 484 341L440 318Q429 313 423.5 317Q418 321 415 326Q394 361 363.5 380.5Q333 400 287 400Q254 400 224.5 385.5Q195 371 173.5 346Q152 321 139.5 287.5Q127 254 127 217Q127 184 137.5 157.5Q148 131 166.5 111.5Q185 92 210 81.5Q235 71 265 71Q303 71 332 87.5Q361 104 389 136Q394 142 401.5 145Q409 148 419 141L455 115Q463 109 463 100Q463 91 458 84Z" glyph-name="c" horiz-adv-x="505" unicode="c" /><glyph d="M263 71Q297 71 327 85.5Q357 100 379 125Q401 150 414 183.5Q427 217 427 255Q427 285 417.5 311.5Q408 338 390 357.5Q372 377 346.5 388.5Q321 400 290 400Q255 400 225.5 385.5Q196 371 174.5 345.5Q153 320 140.5 286.5Q128 253 128 215Q128 186 137 160Q146 134 163 114Q180 94 205 82.5Q230 71 263 71ZM396 70Q373 35 331.5 11Q290 -13 236 -13Q191 -13 153.5 4Q116 21 89 50.5Q62 80 47 120.5Q32 161 32 208Q32 270 52.5 321Q73 372 107.5 408.5Q142 445 187 465Q232 485 281 485Q339 485 384.5 457.5Q430 430 450 383L502 682Q504 691 509.5 695.5Q515 700 523 700H583Q590 700 595 695.5Q600 691 598 682L480 18Q478 10 472.5 5Q467 0 459 0H401Q393 0 388.5 5.5Q384 11 386 18Z" glyph-name="d" horiz-adv-x="577" unicode="d" /><glyph d="M261 -13Q208 -13 165.5 4Q123 21 93 51.5Q63 82 47 123.5Q31 165 31 213Q31 269 51 318.5Q71 368 106.5 405Q142 442 190 463.5Q238 485 295 485Q346 485 387 467Q428 449 457 419Q486 389 500.5 348.5Q515 308 513 263L512 235Q510 211 486 211H126V206Q126 146 163.5 108Q201 70 261 70Q306 70 338.5 87Q371 104 394 127Q408 141 421 133L465 105Q472 100 472.5 92.5Q473 85 469 80Q440 43 388.5 15Q337 -13 261 -13ZM291 408Q234 408 191.5 371Q149 334 135 274H421Q422 339 385 373.5Q348 408 291 408Z" glyph-name="e" horiz-adv-x="534" unicode="e" /><glyph d="M141 472 158 565Q173 647 217.5 683.5Q262 720 326 720Q355 720 386.5 709.5Q418 699 438 682Q450 670 439 655L411 618Q404 609 396 609.5Q388 610 380 615Q367 623 354 628Q341 633 327 633Q298 633 278.5 614.5Q259 596 252 556L236 472H334Q342 472 346.5 466.5Q351 461 349 453L341 409Q338 391 318 391H222L156 19Q154 11 148.5 5.5Q143 0 135 0H77Q70 0 65 5.5Q60 11 62 19L128 391H59Q52 391 47.5 396.5Q43 402 45 410L53 455Q55 463 60.5 467.5Q66 472 74 472Z" glyph-name="f" horiz-adv-x="320" unicode="f" /><glyph d="M263 83Q297 83 327 96.5Q357 110 378.5 133.5Q400 157 412.5 189.5Q425 222 425 260Q425 290 415.5 316Q406 342 388 361Q370 380 344.5 391Q319 402 288 402Q253 402 224 387.5Q195 373 174.5 349Q154 325 142.5 293Q131 261 131 225Q131 196 139.5 170.5Q148 145 165 125.5Q182 106 206.5 94.5Q231 83 263 83ZM206 -230Q162 -230 125.5 -219Q89 -208 60.5 -191.5Q32 -175 13 -155Q-6 -135 -16 -117Q-21 -105 -17 -98Q-13 -91 -5 -86L34 -65Q47 -57 53.5 -62Q60 -67 64 -72Q86 -101 121.5 -124Q157 -147 213 -147Q284 -147 324.5 -107.5Q365 -68 376 -10L392 72Q370 40 329.5 21Q289 2 238 2Q193 2 155.5 18.5Q118 35 91 64Q64 93 49 133Q34 173 34 220Q34 278 53 326.5Q72 375 105 410.5Q138 446 182 465.5Q226 485 276 485Q335 485 381 457.5Q427 430 447 383L460 453Q462 463 467.5 467.5Q473 472 481 472H539Q547 472 551.5 466.5Q556 461 554 453L470 -11Q453 -111 387.5 -170.5Q322 -230 206 -230Z" glyph-name="g" horiz-adv-x="573" unicode="g" /><glyph d="M115 17Q113 9 107 4.5Q101 0 94 0H35Q27 0 23 5Q19 10 21 18L138 682Q141 700 158 700H218Q226 700 230.5 695.5Q235 691 233 683L183 404Q209 439 251 462Q293 485 346 485Q391 485 427 470Q463 455 486.5 427Q510 399 519.5 359Q529 319 520 268L476 17Q474 9 468 4.5Q462 0 454 0H396Q388 0 383.5 4.5Q379 9 381 17L423 255Q435 322 408 360Q381 398 318 398Q255 398 211 354Q167 310 154 239L115 17Z" glyph-name="h" horiz-adv-x="566" unicode="h" /><glyph d="M36 0Q28 0 23.5 5.5Q19 11 21 19L98 453Q100 462 106 467Q112 472 120 472H178Q186 472 190.5 466.5Q195 461 193 453L116 19Q114 11 108.5 5.5Q103 0 95 0ZM171 555Q146 555 128.5 573Q111 591 111 615Q111 640 128.5 658Q146 676 171 676Q196 676 213.5 658Q231 640 231 615Q231 591 213.5 573Q196 555 171 555Z" glyph-name="i" horiz-adv-x="212" unicode="i" /><glyph d="M36 0Q28 0 23.5 5.5Q19 11 21 19L98 453Q100 462 106 467Q112 472 120 472H178Q186 472 190.5 466.5Q195 461 193 453L116 19Q114 11 108.5 5.5Q103 0 95 0ZM171 555Q146 555 128.5 573Q111 591 111 615Q111 640 128.5 658Q146 676 171 676Q196 676 213.5 658Q231 640 231 615Q231 591 213.5 573Q196 555 171 555Z" glyph-name="i.TRK" horiz-adv-x="212" unicode="" /><glyph d="M98 453Q100 461 106 466.5Q112 472 120 472H178Q185 472 190.5 466.5Q196 461 194 453L99 -75Q85 -158 40.5 -194Q-4 -230 -68 -230Q-97 -230 -128.5 -219.5Q-160 -209 -180 -192Q-192 -182 -180 -165L-153 -129Q-146 -120 -138 -120.5Q-130 -121 -122 -126Q-96 -143 -69 -143Q-40 -143 -20.5 -125Q-1 -107 6 -68ZM171 555Q146 555 128.5 573Q111 591 111 615Q111 640 128.5 658Q146 676 171 676Q196 676 213.5 658Q231 640 231 615Q231 591 213.5 573Q196 555 171 555Z" glyph-name="j" horiz-adv-x="213" unicode="j" /><glyph d="M115 18Q112 0 94 0H36Q18 0 21 18L138 682Q140 690 145.5 695Q151 700 159 700H217Q226 700 230.5 695Q235 690 233 682L164 298H222L386 460Q398 472 411 472H486Q496 472 499 464.5Q502 457 494 449L294 258L454 24Q459 16 455 8Q451 0 440 0H378Q365 0 360 3.5Q355 7 350 15L214 220H151L115 18Z" glyph-name="k" horiz-adv-x="489" unicode="k" /><glyph d="M133 0Q82 0 54.5 29Q27 58 37 116L137 681Q139 690 144.5 695Q150 700 158 700H217Q225 700 229.5 694.5Q234 689 232 681L133 125Q129 102 139 91.5Q149 81 168 81H200Q207 81 211.5 76.5Q216 72 214 63L207 20Q205 9 197.5 4.5Q190 0 181 0H133Z" glyph-name="l" horiz-adv-x="248" unicode="l" /><glyph d="M116 17Q114 9 107.5 4.5Q101 0 94 0H36Q28 0 23.5 5Q19 10 21 18L98 453Q101 472 119 472H178Q186 472 190.5 467Q195 462 193 454L184 402Q210 438 250 461.5Q290 485 345 485Q399 485 437.5 458.5Q476 432 490 387Q528 441 577.5 463Q627 485 675 485Q723 485 758 469Q793 453 815 425.5Q837 398 844.5 361Q852 324 845 283L798 17Q796 9 790 4.5Q784 0 776 0H718Q711 0 706 4.5Q701 9 703 17L746 261Q757 324 731.5 361Q706 398 649 398Q587 398 549 358.5Q511 319 500 257L457 17Q455 9 448.5 4.5Q442 0 435 0H377Q369 0 364.5 4.5Q360 9 362 17L405 261Q416 324 390.5 361Q365 398 308 398Q276 398 251 387Q226 376 207 356.5Q188 337 175.5 310.5Q163 284 157 253Z" glyph-name="m" horiz-adv-x="888" unicode="m" /><glyph d="M423 255Q436 322 409 360Q382 398 318 398Q254 398 211 354.5Q168 311 155 239L116 17Q114 9 107.5 4.5Q101 0 94 0H36Q28 0 23.5 5Q19 10 21 18L98 453Q101 472 119 472H176Q183 472 188 467Q193 462 191 454L181 402Q204 436 247 460.5Q290 485 347 485Q392 485 428 470Q464 455 487.5 427Q511 399 520 359Q529 319 520 268L476 17Q474 9 468 4.5Q462 0 454 0H396Q388 0 383.5 4.5Q379 9 381 17Z" glyph-name="n" horiz-adv-x="566" unicode="n" /><glyph d="M293 485Q339 485 380.5 469Q422 453 452.5 423Q483 393 501 351Q519 309 519 258Q519 201 499 152Q479 103 444 66Q409 29 361 8Q313 -13 258 -13Q211 -13 169.5 3Q128 19 97.5 49Q67 79 49 120.5Q31 162 31 213Q31 270 51 319.5Q71 369 106 406Q141 443 189 464Q237 485 293 485ZM288 401Q253 401 223.5 386.5Q194 372 172.5 347Q151 322 138.5 289Q126 256 126 219Q126 184 136.5 157Q147 130 165.5 110.5Q184 91 208.5 81Q233 71 262 71Q297 71 327 85.5Q357 100 378.5 125Q400 150 412.5 183Q425 216 425 253Q425 287 414.5 314.5Q404 342 385.5 361.5Q367 381 342 391Q317 401 288 401Z" glyph-name="o" horiz-adv-x="549" unicode="o" /><glyph d="M316 400Q282 400 252 385.5Q222 371 200 345.5Q178 320 165 286Q152 252 152 214Q152 184 161.5 158Q171 132 189 112.5Q207 93 232.5 82Q258 71 289 71Q324 71 353.5 85.5Q383 100 405 125Q427 150 439 183Q451 216 451 254Q451 283 442 309.5Q433 336 416 356Q399 376 374 388Q349 400 316 400ZM79 -192Q77 -200 71 -205Q65 -210 57 -210H-1Q-8 -210 -12.5 -205Q-17 -200 -15 -192L98 453Q101 472 120 472H177Q185 472 190 466.5Q195 461 193 453L183 403Q206 438 248.5 461.5Q291 485 342 485Q386 485 423.5 468.5Q461 452 488.5 422.5Q516 393 531.5 352.5Q547 312 547 265Q547 203 527 152Q507 101 472.5 64Q438 27 393 7Q348 -13 298 -13Q239 -13 194 14.5Q149 42 128 89Z" glyph-name="p" horiz-adv-x="577" unicode="p" /><glyph d="M364 -210Q345 -210 348 -192L395 65Q372 33 331.5 10Q291 -13 237 -13Q193 -13 155.5 4Q118 21 90.5 50.5Q63 80 47.5 120.5Q32 161 32 208Q32 270 52.5 321Q73 372 107.5 408.5Q142 445 187 465Q232 485 281 485Q339 485 385 457.5Q431 430 451 383L463 453Q465 464 471 468Q477 472 484 472H542Q550 472 554.5 467Q559 462 557 453L443 -192Q441 -200 435.5 -205Q430 -210 422 -210ZM263 71Q297 71 327 85.5Q357 100 379 125Q401 150 414 183.5Q427 217 427 255Q427 285 417.5 311.5Q408 338 390 357.5Q372 377 346.5 388.5Q321 400 290 400Q255 400 225.5 385.5Q196 371 174.5 345.5Q153 320 140.5 286.5Q128 253 128 215Q128 186 137 160Q146 134 163 114Q180 94 205 82.5Q230 71 263 71Z" glyph-name="q" horiz-adv-x="577" unicode="q" /><glyph d="M340 475Q347 475 352.5 471Q358 467 356 456L344 393Q342 381 334.5 377Q327 373 321 373H301Q275 373 251.5 365.5Q228 358 208.5 341Q189 324 174.5 297Q160 270 153 231L116 17Q113 0 94 0H36Q28 0 23.5 5Q19 10 21 18L98 453Q101 472 120 472H171Q179 472 184 467Q189 462 187 454L173 382Q193 419 232.5 447Q272 475 323 475Z" glyph-name="r" horiz-adv-x="328" unicode="r" /><glyph d="M57 340Q57 372 69.5 399Q82 426 105.5 445Q129 464 162 474.5Q195 485 236 485Q298 485 347 464.5Q396 444 425 416Q433 409 434.5 400.5Q436 392 425 381L402 358Q393 349 384.5 349.5Q376 350 365 358Q338 378 306 393Q274 408 238 408Q196 408 171.5 392Q147 376 147 353Q147 330 164.5 317Q182 304 215 293L282 270Q345 248 376.5 218.5Q408 189 408 139Q408 111 396.5 83.5Q385 56 361 34.5Q337 13 300 0Q263 -13 213 -13Q147 -13 97 9Q47 31 19 60Q5 74 5 85Q5 96 16 107L36 126Q47 137 57.5 135.5Q68 134 76 126Q104 100 139 81.5Q174 63 217 63Q265 63 288.5 82Q312 101 312 128Q312 153 292.5 166Q273 179 235 193L178 213Q124 232 90.5 260.5Q57 289 57 340Z" glyph-name="s" horiz-adv-x="452" unicode="s" /><glyph d="M323 52Q330 36 312 24Q290 10 263.5 0.5Q237 -9 194 -9Q167 -9 143 0.5Q119 10 102.5 28.5Q86 47 78.5 74.5Q71 102 77 139L121 391H53Q35 391 38 410L47 453Q52 472 67 472H135L161 615Q164 634 184 634H241Q259 634 256 615L230 472H368Q375 472 380 467Q385 462 383 453L375 408Q372 391 353 391H216L173 147Q166 109 178.5 93Q191 77 213 77Q232 77 246.5 83Q261 89 277 97Q297 107 306 88Z" glyph-name="t" horiz-adv-x="363" unicode="t" /><glyph d="M143 206Q131 140 159 104.5Q187 69 244 69Q307 69 346.5 108.5Q386 148 398 213L441 454Q443 463 448.5 467.5Q454 472 462 472H520Q537 472 534 453L458 18Q456 9 450.5 4.5Q445 0 437 0H379Q371 0 366 4.5Q361 9 363 17L374 70Q348 33 308 10Q268 -13 209 -13Q166 -13 132 2Q98 17 76.5 44.5Q55 72 46.5 110Q38 148 46 194L92 454Q94 463 100 467.5Q106 472 113 472H171Q190 472 187 454Z" glyph-name="u" horiz-adv-x="554" unicode="u" /><glyph d="M157 0Q148 0 143 5Q138 10 136 18L56 448Q54 457 60 464.5Q66 472 75 472H140Q154 472 157 455L217 98L403 455Q411 472 428 472H496Q506 472 509 464.5Q512 457 507 448L273 18Q263 0 245 0Z" glyph-name="v" horiz-adv-x="486" unicode="v" /><glyph d="M243 18Q239 10 231.5 5Q224 0 215 0H142Q124 0 121 18L52 449Q50 460 56 466Q62 472 71 472H132Q149 472 151 455L199 111L360 454Q367 472 385 472H445Q461 472 463 454L506 111L671 455Q679 472 696 472H754Q763 472 767 466Q771 460 766 449L549 18Q541 0 522 0H452Q444 0 438.5 5Q433 10 432 18L390 334L243 18Z" glyph-name="w" horiz-adv-x="744" unicode="w" /><glyph d="M86 15Q74 0 58 0H-14Q-23 0 -26 6.5Q-29 13 -22 21L183 247L60 452Q55 459 59 465.5Q63 472 72 472H136Q153 472 161 457L248 309L375 457Q387 472 402 472H473Q481 472 484 465.5Q487 459 481 452L292 239L425 21Q430 13 425.5 6.5Q421 0 412 0H344Q331 0 322 15L227 176L86 15Z" glyph-name="x" horiz-adv-x="472" unicode="x" /><glyph d="M44 -230Q-1 -230 -35 -214Q-69 -198 -85 -178Q-90 -172 -90.5 -163.5Q-91 -155 -83 -146L-60 -119Q-51 -108 -42 -109Q-33 -110 -25 -117Q-14 -127 3 -136.5Q20 -146 45 -146Q74 -146 95.5 -129.5Q117 -113 131 -86L178 0H147Q131 0 128 16L55 448Q53 459 58.5 465.5Q64 472 76 472H139Q155 472 158 454L214 80L397 454Q401 462 407 467Q413 472 422 472H492Q502 472 505 465Q508 458 503 448L218 -108Q190 -164 148.5 -197Q107 -230 44 -230Z" glyph-name="y" horiz-adv-x="483" unicode="y" /><glyph d="M125 83 383 83Q400 83 397 66L388 16Q386 8 380.5 4Q375 0 367 0H1Q-6 0 -11 5.5Q-16 11 -14 19L-6 59Q-4 67 -1.5 71.5Q1 76 7 82L316 389H82Q74 389 70.5 394.5Q67 400 69 408L77 455Q80 472 96 472H439Q446 472 451 466.5Q456 461 454 453L446 414Q444 406 441 401Q438 396 433 391Z" glyph-name="z" horiz-adv-x="451" unicode="z" /><glyph d="M606 -13Q549 -13 505 6Q461 25 431 60Q401 26 356 6.5Q311 -13 257 -13Q206 -13 164 4.5Q122 22 93 52.5Q64 83 48 124Q32 165 32 212Q32 270 51.5 319.5Q71 369 105.5 406Q140 443 187 464Q234 485 290 485Q348 485 390 465Q432 445 459 413Q494 447 539.5 466Q585 485 639 485Q690 485 731 467.5Q772 450 801 419.5Q830 389 845 349Q860 309 858 264L857 235Q855 211 831 211H471V206Q471 146 508.5 108Q546 70 606 70Q651 70 683.5 87Q716 104 739 127Q753 141 766 133L810 105Q817 100 817.5 92.5Q818 85 814 80Q785 43 733.5 15Q682 -13 606 -13ZM636 408Q579 408 536.5 371Q494 334 480 274H766Q767 338 730 373Q693 408 636 408ZM265 71Q300 71 332.5 84.5Q365 98 391 128Q377 167 377 213Q377 286 409 345Q388 371 358 385.5Q328 400 291 400Q256 400 226.5 385.5Q197 371 174.5 346.5Q152 322 139.5 288.5Q127 255 127 217Q127 185 137.5 158.5Q148 132 166.5 112.5Q185 93 210 82Q235 71 265 71Z" glyph-name="ae" horiz-adv-x="879" unicode="æ" /><glyph d="M649 -13Q580 -13 530.5 16Q481 45 454 94Q422 45 370.5 16Q319 -13 253 -13Q206 -13 166 3Q126 19 96 49Q66 79 49 120.5Q32 162 32 213Q32 270 51 319.5Q70 369 104 406Q138 443 184.5 464Q231 485 287 485Q350 485 399 456Q448 427 474 375Q509 425 563 455Q617 485 684 485Q736 485 777.5 467.5Q819 450 847 419.5Q875 389 889.5 349Q904 309 902 264L901 235Q899 211 875 211H515V206Q515 176 525 151Q535 126 552.5 108Q570 90 595 80Q620 70 650 70Q695 70 727.5 87Q760 104 783 127Q797 141 810 133L854 105Q861 100 861.5 92.5Q862 85 858 80Q829 43 777 15Q725 -13 649 -13ZM287 402Q253 402 223.5 387.5Q194 373 172.5 348Q151 323 138.5 289.5Q126 256 126 219Q126 184 136.5 156.5Q147 129 165.5 110Q184 91 208.5 80.5Q233 70 262 70Q296 70 326 85Q356 100 377.5 125Q399 150 411.5 183Q424 216 424 253Q424 287 413.5 315Q403 343 384 362Q365 381 340 391.5Q315 402 287 402ZM680 408Q623 408 580 371Q537 334 523 273H810Q810 305 800.5 330Q791 355 773.5 372.5Q756 390 732 399Q708 408 680 408Z" glyph-name="oe" horiz-adv-x="923" unicode="œ" /><glyph d="M138 0Q87 0 59.5 29Q32 58 42 116L68 262L41 250Q32 246 27 249.5Q22 253 24 261L31 303Q33 312 37.5 316Q42 320 50 324L82 338L143 681Q146 700 163 700H222Q230 700 234.5 694.5Q239 689 237 681L184 382L239 407Q247 411 253 408Q259 405 257 396L249 354Q246 340 231 334L171 307L138 125Q134 102 144 91.5Q154 81 173 81H205Q212 81 217 77Q222 73 220 63L212 20Q210 9 202.5 4.5Q195 0 186 0Z" glyph-name="lslash" horiz-adv-x="258" unicode="ł" /><glyph d="M293 485Q339 485 380.5 469Q422 453 452.5 423Q483 393 501 351Q519 309 519 258Q519 201 499 152Q479 103 444 66Q409 29 361 8Q313 -13 258 -13Q211 -13 169.5 3Q128 19 97.5 49Q67 79 49 120.5Q31 162 31 213Q31 270 51 319.5Q71 369 106 406Q141 443 189 464Q237 485 293 485ZM126 219Q126 171 146 137L368 376Q332 401 288 401Q253 401 223.5 386.5Q194 372 172.5 347Q151 322 138.5 289Q126 256 126 219ZM262 71Q297 71 327 85.5Q357 100 378.5 125Q400 150 412.5 183Q425 216 425 253Q425 276 420 295Q415 314 407 331L188 92Q219 71 262 71Z" glyph-name="oslash" horiz-adv-x="549" unicode="ø" /><glyph d="M262 -13Q216 -13 174.5 2.5Q133 18 101.5 47.5Q70 77 51 120Q32 163 32 217Q32 271 50 319Q68 367 100.5 403Q133 439 178 460Q223 481 277 481Q311 481 349 469Q387 457 413 426Q396 463 376.5 497Q357 531 335 561L231 535Q223 533 217.5 535.5Q212 538 209 548L202 570Q196 588 218 593L296 612Q276 639 256 661.5Q236 684 219 702Q213 709 216 717Q219 725 229 725H292Q297 725 303 724Q309 723 316 716Q328 704 347 683Q366 662 387 635L478 657Q496 662 501 645L507 623Q511 605 492 600L423 583Q443 553 461 517.5Q479 482 493 443Q507 404 515.5 361.5Q524 319 524 274Q524 216 505.5 164Q487 112 453 72.5Q419 33 370.5 10Q322 -13 262 -13ZM290 401Q255 401 225 386.5Q195 372 173.5 347Q152 322 139.5 289Q127 256 127 219Q127 184 137.5 157Q148 130 167 110.5Q186 91 211 81Q236 71 265 71Q299 71 329 85.5Q359 100 381 125Q403 150 415.5 183Q428 216 428 253Q428 287 417.5 314.5Q407 342 388 361.5Q369 381 344 391Q319 401 290 401Z" glyph-name="eth" horiz-adv-x="555" unicode="ð" /><glyph d="M315 400Q281 400 251 385.5Q221 371 199 346Q177 321 164 287Q151 253 151 215Q151 185 160.5 158.5Q170 132 188 112.5Q206 93 231.5 82Q257 71 288 71Q323 71 352.5 85.5Q382 100 404 125.5Q426 151 438 184.5Q450 218 450 256Q450 285 441 311Q432 337 415 357Q398 377 373 388.5Q348 400 315 400ZM78 -192Q76 -200 70 -205Q64 -210 56 -210H-2Q-9 -210 -13.5 -205Q-18 -200 -16 -192L138 682Q140 691 145.5 695.5Q151 700 159 700H217Q224 700 229.5 695Q235 690 233 682L183 406Q208 440 249 462.5Q290 485 341 485Q385 485 422.5 468.5Q460 452 487.5 422.5Q515 393 530.5 352.5Q546 312 546 265Q546 203 526 152Q506 101 471.5 64Q437 27 392 7Q347 -13 297 -13Q238 -13 193 14.5Q148 42 127 89Z" glyph-name="thorn" horiz-adv-x="576" unicode="þ" /><glyph d="M108 495Q127 600 184 661.5Q241 723 347 723Q390 723 423.5 709.5Q457 696 480 674.5Q503 653 514.5 625Q526 597 526 568Q526 526 505 490Q484 454 459.5 426Q435 398 414 377Q393 356 393 344Q393 330 410 309Q427 288 447 261.5Q467 235 484 204.5Q501 174 501 141Q501 111 489.5 83Q478 55 455 33.5Q432 12 398 -1Q364 -14 319 -14Q299 -14 277.5 -11Q256 -8 239 -2Q233 0 228.5 5Q224 10 227 19L243 69Q248 81 261 78Q272 76 287 72Q302 68 322 68Q360 68 381 87.5Q402 107 402 139Q402 161 385 186.5Q368 212 347.5 237.5Q327 263 310 288Q293 313 293 335Q293 357 315 382.5Q337 408 363.5 436.5Q390 465 412 495.5Q434 526 434 558Q434 574 428.5 589Q423 604 411.5 616Q400 628 382.5 635.5Q365 643 341 643Q284 643 249.5 602Q215 561 201 484L120 19Q118 11 112 5.5Q106 0 98 0H39Q31 0 26.5 5.5Q22 11 24 19L108 495Z" glyph-name="germandbls" horiz-adv-x="537" unicode="ß" /><glyph d="M141 472 158 565Q173 647 218.5 683.5Q264 720 328 720Q357 720 388.5 710.5Q420 701 438 682Q450 671 438 654L411 619Q398 603 380 615Q354 633 327 633Q298 633 278.5 614.5Q259 596 252 556L156 19Q155 11 149 5.5Q143 0 135 0H77Q70 0 65 5.5Q60 11 62 19L128 391H59Q52 391 47.5 396.5Q43 402 45 410L53 455Q55 463 60.5 467.5Q66 472 74 472Z" glyph-name="longs" horiz-adv-x="263" unicode="ſ" /><glyph d="M37 0Q29 0 24 5.5Q19 11 21 19L98 453Q100 462 106 467Q112 472 120 472H178Q186 472 190.5 466.5Q195 461 193 453L116 19Q114 11 108.5 5.5Q103 0 95 0Z" glyph-name="dotlessi" horiz-adv-x="212" unicode="ı" /><glyph d="M98 453Q100 461 106 466.5Q112 472 120 472H178Q185 472 190.5 466.5Q196 461 194 453L99 -75Q85 -158 40.5 -194Q-4 -230 -68 -230Q-97 -230 -128.5 -219.5Q-160 -209 -180 -192Q-192 -182 -180 -165L-153 -129Q-146 -120 -138 -120.5Q-130 -121 -122 -126Q-96 -143 -69 -143Q-40 -143 -20.5 -125Q-1 -107 6 -68Z" glyph-name="dotlessj" horiz-adv-x="213" unicode="ȷ" /><glyph d="M158 565Q173 647 217.5 683.5Q262 720 326 720Q355 720 386.5 709.5Q418 699 438 682Q443 677 444 670Q445 663 439 655L411 619Q398 603 380 615Q367 623 354 628Q341 633 327 633Q298 633 278.5 614.5Q259 596 252 556L236 472H453Q461 472 465.5 466.5Q470 461 468 453L391 19Q389 11 383 5.5Q377 0 369 0H312Q304 0 299 5.5Q294 11 296 19L362 391H222L156 19Q154 11 148.5 5.5Q143 0 135 0H77Q69 0 64.5 5.5Q60 11 62 19L127 391H59Q52 391 47.5 396.5Q43 402 45 410L53 455Q55 463 60.5 467.5Q66 472 74 472H141Z" glyph-name="fi" horiz-adv-x="487" unicode="ﬁ" /><glyph d="M59 391Q52 391 47.5 396.5Q43 402 45 410L53 455Q55 463 60.5 467.5Q66 472 74 472H141L158 564Q165 603 180 629Q195 655 214.5 670.5Q234 686 257 693Q280 700 304 700H336Q346 700 352 695Q358 690 356 677L347 631Q344 612 327 612H316Q261 612 251 555L236 472H376L414 681Q417 700 434 700H493Q511 700 508 681L409 125Q405 102 415 91.5Q425 81 444 81H476Q483 81 487.5 76.5Q492 72 490 63L483 20Q481 9 473.5 4.5Q466 0 458 0H409Q358 0 330.5 29Q303 58 313 116L362 391H222L156 19Q154 11 148.5 5.5Q143 0 135 0H77Q69 0 64.5 5.5Q60 11 62 19L127 391Z" glyph-name="fl" horiz-adv-x="524" unicode="ﬂ" /><glyph d="M568 472Q587 472 584 453L576 409Q573 391 553 391H456L391 19Q389 11 383.5 5.5Q378 0 370 0H311Q303 0 298.5 5.5Q294 11 296 19L362 391H222L156 19Q154 11 148.5 5.5Q143 0 135 0H77Q69 0 64.5 5.5Q60 11 62 19L127 391H59Q52 391 47.5 396.5Q43 402 45 410L53 455Q55 463 60.5 467.5Q66 472 74 472H141L158 564Q165 603 180 629Q195 655 214.5 670.5Q234 686 257 693Q280 700 304 700H336Q346 700 352 695Q358 690 356 677L347 631Q344 612 327 612H316Q261 612 251 555L236 472H376L393 565Q407 646 453.5 683Q500 720 563 720Q593 720 622.5 710Q652 700 672 682Q686 671 673 655L644 617Q636 606 627.5 609.5Q619 613 612 617Q599 626 586.5 629.5Q574 633 564 633Q537 633 515 615.5Q493 598 486 558L471 472Z" glyph-name="f_f" horiz-adv-x="555" unicode="ﬀ" /><glyph d="M362 391 222 391L156 19Q154 11 148.5 5.5Q143 0 135 0H77Q69 0 64.5 5.5Q60 11 62 19L127 391H59Q52 391 47.5 396.5Q43 402 45 410L53 455Q55 463 60.5 467.5Q66 472 74 472H141L158 564Q165 603 180 629Q195 655 214.5 670.5Q234 686 257 693Q280 700 304 700H336Q346 700 352 695Q358 690 356 677L347 631Q344 612 327 612H316Q261 612 251 555L236 472H376L393 565Q408 647 452.5 683.5Q497 720 561 720Q590 720 621 709.5Q652 699 672 682Q685 670 673 655L646 619Q639 610 631 610Q623 610 615 615Q602 623 588.5 628Q575 633 562 633Q501 633 486 556L471 472H687Q695 472 699.5 467Q704 462 702 453L625 19Q623 11 617 5.5Q611 0 604 0H546Q538 0 533.5 5.5Q529 11 531 19L596 391H457L374 -75Q360 -158 315.5 -194Q271 -230 207 -230Q178 -230 147 -219.5Q116 -209 96 -192Q83 -180 95 -165L122 -129Q129 -120 137 -120.5Q145 -121 153 -126Q179 -143 206 -143Q235 -143 254.5 -125Q274 -107 281 -68Z" glyph-name="f_f_i" horiz-adv-x="721" unicode="ﬃ" /><glyph d="M571 -13Q512 -13 466.5 14.5Q421 42 401 89L389 18Q387 8 381.5 4Q376 0 368 0H309Q302 0 297.5 5Q293 10 295 18L361 391H222L156 19Q154 11 148.5 5.5Q143 0 135 0H77Q69 0 64.5 5.5Q60 11 62 19L127 391H59Q52 391 47.5 396.5Q43 402 45 410L53 455Q55 463 60.5 467.5Q66 472 74 472H141L158 564Q165 603 180 629Q195 655 214.5 670.5Q234 686 257 693Q280 700 304 700H336Q346 700 352 695Q358 690 356 677L347 631Q344 612 327 612H316Q261 612 251 555L236 472H375L412 682Q415 700 433 700H491Q499 700 503.5 695Q508 690 506 682L457 407Q480 439 520.5 462Q561 485 614 485Q659 485 696.5 468.5Q734 452 761.5 422.5Q789 393 804.5 352.5Q820 312 820 265Q820 203 800 152Q780 101 745.5 64Q711 27 666 7Q621 -13 571 -13ZM590 400Q555 400 525 385.5Q495 371 473 345.5Q451 320 438 286Q425 252 425 214Q425 184 434.5 158Q444 132 462 112.5Q480 93 505.5 82Q531 71 562 71Q597 71 627 85.5Q657 100 678.5 125Q700 150 712.5 183Q725 216 725 254Q725 283 716 309.5Q707 336 689.5 356Q672 376 647 388Q622 400 590 400Z" glyph-name="f_b" horiz-adv-x="850" unicode="" /><glyph d="M824 400Q789 400 759 385.5Q729 371 707 345.5Q685 320 672 286Q659 252 659 214Q659 184 669 158Q679 132 697 112.5Q715 93 740.5 82Q766 71 797 71Q832 71 861.5 85.5Q891 100 913 125Q935 150 947 183Q959 216 959 254Q959 283 950 309.5Q941 336 924 356Q907 376 882 388Q857 400 824 400ZM222 391 156 19Q154 11 148.5 5.5Q143 0 135 0H77Q69 0 64.5 5.5Q60 11 62 19L127 391H59Q52 391 47.5 396.5Q43 402 45 410L53 455Q55 463 60.5 467.5Q66 472 74 472H141L158 564Q165 603 180 629Q195 655 214.5 670.5Q234 686 257 693Q280 700 304 700H336Q346 700 352 694.5Q358 689 356 677L347 631Q344 612 327 612H316Q261 612 251 555L236 472H376L392 564Q399 603 414.5 629Q430 655 450 670.5Q470 686 493 693Q516 700 539 700H571Q581 700 586.5 694.5Q592 689 590 677L582 631Q579 612 561 612H551Q497 612 485 555L471 472H610L647 682Q650 700 668 700H726Q733 700 738 695Q743 690 741 682L692 407Q714 439 755 462Q796 485 849 485Q893 485 931 468.5Q969 452 996.5 422.5Q1024 393 1039.5 352.5Q1055 312 1055 265Q1055 203 1035 152Q1015 101 980.5 64Q946 27 901 7Q856 -13 806 -13Q747 -13 702 14.5Q657 42 636 89L623 18Q621 9 615.5 4.5Q610 0 603 0H545Q537 0 532.5 5Q528 10 530 18L595 391H457L374 -75Q360 -158 315.5 -194Q271 -230 207 -230Q178 -230 147 -219.5Q116 -209 96 -192Q83 -180 95 -165L122 -129Q129 -120 137 -120.5Q145 -121 153 -126Q179 -143 206 -143Q235 -143 254.5 -125Q274 -107 281 -68L362 391Z" glyph-name="f_f_b" horiz-adv-x="1085" unicode="" /><glyph d="M627 565Q642 647 686.5 683.5Q731 720 795 720Q824 720 855.5 709.5Q887 699 907 682Q912 677 913 670Q914 663 908 655L880 619Q874 611 865.5 610.5Q857 610 849 615Q836 623 823 628Q810 633 796 633Q767 633 747.5 614.5Q728 596 721 556L705 472H803Q811 472 815.5 466.5Q820 461 818 453L810 409Q807 391 787 391H691L625 19Q623 11 617.5 5.5Q612 0 604 0H546Q538 0 533.5 5.5Q529 11 531 19L596 391H457L374 -75Q360 -158 315.5 -194Q271 -230 207 -230Q178 -230 147 -219.5Q116 -209 96 -192Q83 -180 95 -165L122 -129Q129 -120 137 -120.5Q145 -121 153 -126Q179 -143 206 -143Q235 -143 254.5 -125Q274 -107 281 -68L362 391H222L156 19Q154 11 148.5 5.5Q143 0 135 0H77Q69 0 64.5 5.5Q60 11 62 19L127 391H59Q52 391 47.5 396.5Q43 402 45 410L53 455Q55 463 60.5 467.5Q66 472 74 472H141L158 564Q165 603 180 629Q195 655 214.5 670.5Q234 686 257 693Q280 700 304 700H336Q346 700 352 695Q358 690 356 677L347 631Q344 612 327 612H316Q261 612 251 555L236 472H376L392 564Q399 603 414.5 629Q430 655 450 670.5Q470 686 493 693Q516 700 539 700H571Q581 700 586.5 695Q592 690 590 677L582 631Q579 612 561 612H551Q497 612 485 555L471 472H610Z" glyph-name="f_f_f" horiz-adv-x="789" unicode="" /><glyph d="M222 391 156 19Q154 11 148.5 5.5Q143 0 135 0H77Q69 0 64.5 5.5Q60 11 62 19L127 391H59Q52 391 47.5 396.5Q43 402 45 410L53 455Q55 463 60.5 467.5Q66 472 74 472H141L158 564Q165 603 180 629Q195 655 214.5 670.5Q234 686 257 693Q280 700 304 700H336Q346 700 352 694.5Q358 689 356 677L347 631Q344 612 327 612H316Q261 612 251 555L236 472H376L392 564Q399 603 414.5 629Q430 655 450 670.5Q470 686 493 693Q516 700 539 700H571Q581 700 586.5 694.5Q592 689 590 677L582 631Q579 612 561 612H551Q497 612 485 555L471 472H610L647 682Q650 700 667 700H727Q734 700 738.5 695.5Q743 691 741 683L692 404Q718 439 760 462Q802 485 855 485Q900 485 936 470Q972 455 995.5 427Q1019 399 1028 359Q1037 319 1028 268L984 17Q982 9 976 4.5Q970 0 963 0H904Q896 0 891.5 4.5Q887 9 889 17L931 255Q943 322 916.5 360Q890 398 826 398Q763 398 719.5 354Q676 310 663 239L624 17Q622 9 615.5 4.5Q609 0 603 0H544Q536 0 532 5Q528 10 530 18L595 391H457L374 -75Q360 -158 315.5 -194Q271 -230 207 -230Q178 -230 147 -219.5Q116 -209 96 -192Q83 -180 95 -165L122 -129Q129 -120 137 -120.5Q145 -121 153 -126Q179 -143 206 -143Q235 -143 254.5 -125Q274 -107 281 -68L362 391Z" glyph-name="f_f_h" horiz-adv-x="1074" unicode="" /><glyph d="M393 565Q407 646 453.5 683Q500 720 563 720Q593 720 622.5 710Q652 700 672 682Q686 671 673 655L644 617Q636 606 627.5 609.5Q619 613 612 617Q599 626 586.5 629.5Q574 633 564 633Q537 633 515 615.5Q493 598 486 558L471 472H686Q694 472 699 466.5Q704 461 702 453L610 -69Q594 -155 548.5 -192.5Q503 -230 442 -230Q403 -230 372.5 -218.5Q342 -207 328 -191Q317 -180 329 -164L353 -131Q361 -121 370 -121Q379 -121 386 -126Q398 -134 412 -138.5Q426 -143 437 -143Q463 -143 485 -125.5Q507 -108 515 -68L596 391H456L391 19Q389 11 383.5 5.5Q378 0 370 0H311Q303 0 298.5 5.5Q294 11 296 19L362 391H222L156 19Q154 11 148.5 5.5Q143 0 135 0H77Q69 0 64.5 5.5Q60 11 62 19L127 391H59Q52 391 47.5 396.5Q43 402 45 410L53 455Q55 463 60.5 467.5Q66 472 74 472H141L158 564Q165 603 180 629Q195 655 214.5 670.5Q234 686 257 693Q280 700 304 700H336Q346 700 352 694Q358 688 356 677L347 631Q344 612 327 612H316Q261 612 251 555L236 472H376Z" glyph-name="f_f_j" horiz-adv-x="721" unicode="" /><glyph d="M222 391 156 19Q154 11 148.5 5.5Q143 0 135 0H77Q69 0 64.5 5.5Q60 11 62 19L127 391H59Q52 391 47.5 396.5Q43 402 45 410L53 455Q55 463 60.5 467.5Q66 472 74 472H141L158 564Q165 603 180 629Q195 655 214.5 670.5Q234 686 257 693Q280 700 304 700H336Q346 700 352 695Q358 690 356 677L347 631Q344 612 327 612H316Q261 612 251 555L236 472H376L392 564Q399 603 414.5 629Q430 655 450 670.5Q470 686 493 693Q516 700 539 700H571Q581 700 586.5 695Q592 690 590 677L582 631Q579 612 561 612H551Q497 612 485 555L471 472H610L647 682Q649 690 654.5 695Q660 700 668 700H726Q734 700 738.5 695Q743 690 741 682L673 295H731L897 460Q909 472 922 472H996Q1007 472 1009.5 464.5Q1012 457 1004 449L805 258L964 24Q969 16 965 8Q961 0 950 0H889Q877 0 871.5 3.5Q866 7 861 15L721 226H660L624 18Q621 0 603 0H545Q527 0 530 18L595 391H457L374 -75Q360 -158 315.5 -194Q271 -230 207 -230Q178 -230 147 -219.5Q116 -209 96 -192Q83 -180 95 -165L122 -129Q129 -120 137 -120.5Q145 -121 153 -126Q179 -143 206 -143Q235 -143 254.5 -125Q274 -107 281 -68L362 391Z" glyph-name="f_f_k" horiz-adv-x="999" unicode="" /><glyph d="M374 -75Q359 -158 314.5 -194Q270 -230 206 -230Q177 -230 146 -219.5Q115 -209 95 -192Q82 -180 94 -165L121 -129Q127 -120 135.5 -120.5Q144 -121 153 -126Q178 -143 206 -143Q235 -143 254 -125Q273 -107 281 -68L362 391H222L156 19Q154 11 148.5 5.5Q143 0 135 0H77Q69 0 64.5 5.5Q60 11 62 19L127 391H59Q52 391 47.5 396.5Q43 402 45 410L53 455Q55 463 60.5 467.5Q66 472 74 472H141L158 564Q165 603 180 629Q195 655 214.5 670.5Q234 686 257 693Q280 700 304 700H336Q346 700 352 695Q358 690 356 677L347 631Q344 612 327 612H316Q261 612 251 555L236 472H376L392 564Q399 603 414.5 629Q430 655 450 670.5Q470 686 493 693Q516 700 539 700H571Q581 700 586.5 695Q592 690 590 677L582 631Q579 612 561 612H551Q497 612 485 555L471 472H610L647 681Q649 690 654.5 695Q660 700 667 700H727Q744 700 741 681L643 125Q639 102 648.5 91.5Q658 81 677 81H710Q717 81 721.5 76.5Q726 72 724 63L716 20Q714 9 706.5 4.5Q699 0 691 0H642Q591 0 564 29Q537 58 547 116L596 391H457Z" glyph-name="f_f_l" horiz-adv-x="758" unicode="ﬄ" /><glyph d="M207 -230Q178 -230 147 -219.5Q116 -209 96 -192Q83 -180 95 -165L122 -129Q129 -120 137 -120.5Q145 -121 153 -126Q179 -143 206 -143Q235 -143 254.5 -125Q274 -107 281 -68L362 391H222L156 19Q154 11 148.5 5.5Q143 0 135 0H77Q69 0 64.5 5.5Q60 11 62 19L127 391H59Q52 391 47.5 396.5Q43 402 45 410L53 455Q55 463 60.5 467.5Q66 472 74 472H141L158 564Q165 603 180 629Q195 655 214.5 670.5Q234 686 257 693Q280 700 304 700H336Q346 700 352 695Q358 690 356 677L347 631Q344 612 327 612H316Q261 612 251 555L236 472H376L392 564Q399 603 414.5 629Q430 655 450 670.5Q470 686 493 693Q516 700 539 700H571Q581 700 586.5 694.5Q592 689 590 677L582 631Q579 612 561 612H551Q497 612 485 555L471 472H610L636 615Q639 634 658 634H715Q734 634 731 615L705 472H841Q849 472 854.5 467Q860 462 858 453L850 408Q847 391 828 391H691L648 147Q641 109 654.5 93Q668 77 690 77Q709 77 722.5 82.5Q736 88 752 96Q771 106 781 86L798 52Q805 36 787 24Q765 10 737 0.5Q709 -9 670 -9Q642 -9 617.5 0.5Q593 10 576 28.5Q559 47 552 74.5Q545 102 552 139L596 391H457L374 -75Q360 -158 315.5 -194Q271 -230 207 -230Z" glyph-name="f_f_t" horiz-adv-x="838" unicode="" /><glyph d="M77 0Q69 0 64.5 5.5Q60 11 62 19L127 391H59Q52 391 47.5 396.5Q43 402 45 410L53 455Q55 463 60.5 467.5Q66 472 74 472H141L158 564Q165 603 180 629Q195 655 214.5 670.5Q234 686 257 693Q280 700 304 700H336Q346 700 352 694Q358 688 356 677L347 631Q344 612 327 612H316Q261 612 251 555L236 472H375L413 682Q416 700 433 700H492Q500 700 505 695.5Q510 691 508 683L458 404Q484 439 525.5 462Q567 485 621 485Q666 485 702 470Q738 455 761.5 427Q785 399 794.5 359Q804 319 795 268L750 17Q748 9 742 4.5Q736 0 728 0H670Q662 0 657.5 4.5Q653 9 655 17L698 255Q709 322 682.5 360Q656 398 593 398Q529 398 486 354.5Q443 311 430 239L390 17Q388 9 382 4.5Q376 0 368 0H310Q302 0 297.5 5Q293 10 295 18L361 391H222L156 19Q154 11 148.5 5.5Q143 0 135 0Z" glyph-name="f_h" horiz-adv-x="840" unicode="" /><glyph d="M158 565Q173 647 217.5 683.5Q262 720 326 720Q355 720 386.5 709.5Q418 699 438 682Q450 670 439 655L411 619Q405 611 396.5 610.5Q388 610 380 615Q367 623 354 628Q341 633 327 633Q298 633 278.5 614.5Q259 596 252 556L236 472H452Q460 472 465 466.5Q470 461 468 453L374 -70Q359 -156 315 -193Q271 -230 207 -230Q175 -230 143 -219Q111 -208 94 -191Q84 -179 95 -164L120 -131Q133 -113 151 -125Q180 -143 205 -143Q233 -143 253 -124Q273 -105 280 -67L362 391H222L156 19Q154 11 148.5 5.5Q143 0 135 0H77Q69 0 64.5 5.5Q60 11 62 19L127 391H59Q52 391 47.5 396.5Q43 402 45 410L53 455Q55 463 60.5 467.5Q66 472 74 472H141Z" glyph-name="f_j" horiz-adv-x="487" unicode="" /><glyph d="M156 19Q154 11 148.5 5.5Q143 0 135 0H77Q69 0 64.5 5.5Q60 11 62 19L127 391H59Q52 391 47.5 396.5Q43 402 45 410L53 455Q55 463 60.5 467.5Q66 472 74 472H141L158 564Q165 603 180 629Q195 655 214.5 670.5Q234 686 257 693Q280 700 304 700H336Q346 700 352 694Q358 688 356 677L347 631Q344 612 327 612H316Q261 612 251 555L236 472H375L413 682Q415 690 420.5 695Q426 700 434 700H492Q500 700 504.5 695Q509 690 507 682L439 295H497L663 460Q675 472 687 472H762Q773 472 775.5 464.5Q778 457 770 449L571 258L730 24Q735 16 731 8Q727 0 716 0H654Q642 0 637 3.5Q632 7 627 15L487 226H427L390 18Q387 0 369 0H311Q292 0 295 18L361 391H222L156 19Z" glyph-name="f_k" horiz-adv-x="765" unicode="" /><glyph d="M434 -9Q407 -9 382.5 0.5Q358 10 340.5 28.5Q323 47 316 74.5Q309 102 316 139L361 391H222L156 19Q154 11 148.5 5.5Q143 0 135 0H77Q69 0 64.5 5.5Q60 11 62 19L127 391H59Q52 391 47.5 396.5Q43 402 45 410L53 455Q55 463 60.5 467.5Q66 472 74 472H141L158 564Q165 603 180 629Q195 655 214.5 670.5Q234 686 257 693Q280 700 304 700H336Q346 700 352 694Q358 688 356 677L347 631Q344 612 327 612H316Q261 612 251 555L236 472H375L400 615Q403 634 423 634H480Q499 634 496 615L470 472H606Q614 472 619 467Q624 462 622 453L614 408Q611 391 593 391H455L413 147Q405 109 419 93Q433 77 454 77Q474 77 487.5 82.5Q501 88 517 96Q536 106 546 86L562 52Q567 43 563.5 36Q560 29 552 24Q530 10 501.5 0.5Q473 -9 434 -9Z" glyph-name="f_t" horiz-adv-x="602" unicode="" /><glyph d="M505 -9Q477 -9 452.5 0.5Q428 10 411 28.5Q394 47 386.5 74.5Q379 102 386 139L431 391H216L173 147Q166 109 179.5 93Q193 77 215 77Q234 77 247.5 82.5Q261 88 277 96Q296 106 306 86L323 52Q330 36 312 24Q290 10 262 0.5Q234 -9 195 -9Q168 -9 143.5 0.5Q119 10 101.5 28.5Q84 47 77 74.5Q70 102 77 139L121 391H53Q35 391 38 410L47 453Q52 472 68 472H135L161 615Q164 634 184 634H240Q259 634 256 615L230 472H445L470 615Q473 634 493 634H550Q569 634 566 615L540 472H676Q684 472 689 467Q694 462 692 453L684 408Q681 391 663 391H526L483 147Q475 109 489 93Q503 77 524 77Q544 77 558 82Q572 87 587 96Q598 102 604.5 98.5Q611 95 616 86L633 52Q640 36 622 24Q600 10 572 0.5Q544 -9 505 -9Z" glyph-name="t_t" horiz-adv-x="673" unicode="" /><glyph d="M392 612 213 272H457ZM81 17Q72 0 57 0H-11Q-20 0 -24 7Q-28 14 -22 25L331 682Q341 700 357 700H455Q463 700 468.5 695.5Q474 691 476 682L606 25Q608 13 603 6.5Q598 0 588 0H522Q507 0 504 17L472 188H170ZM557 938Q568 938 571.5 929.5Q575 921 570 913L461 771Q452 758 438 758H393Q382 758 378.5 764.5Q375 771 380 781L456 921Q460 929 465 933.5Q470 938 480 938H557Z" glyph-name="Aacute" horiz-adv-x="653" unicode="Á" /><glyph d="M392 612 213 272H457ZM81 17Q72 0 57 0H-11Q-20 0 -24 7Q-28 14 -22 25L331 682Q341 700 357 700H455Q463 700 468.5 695.5Q474 691 476 682L606 25Q608 13 603 6.5Q598 0 588 0H522Q507 0 504 17L472 188H170ZM478 938Q494 938 502 920L567 781Q572 771 566.5 764.5Q561 758 553 758H506Q496 758 492 761Q488 764 484 771L435 860L354 771Q347 764 341.5 761Q336 758 327 758H270Q262 758 258.5 764.5Q255 771 263 781L377 920Q392 938 409 938Z" glyph-name="Acircumflex" horiz-adv-x="653" unicode="Â" /><glyph d="M392 612 213 272H457ZM81 17Q72 0 57 0H-11Q-20 0 -24 7Q-28 14 -22 25L331 682Q341 700 357 700H455Q463 700 468.5 695.5Q474 691 476 682L606 25Q608 13 603 6.5Q598 0 588 0H522Q507 0 504 17L472 188H170ZM337 783Q313 783 295 800.5Q277 818 277 843Q277 868 295 886Q313 904 337 904Q363 904 380.5 886Q398 868 398 843Q398 818 380.5 800.5Q363 783 337 783ZM505 783Q480 783 462 800.5Q444 818 444 843Q444 868 462 886Q480 904 505 904Q529 904 547 886Q565 868 565 843Q565 818 547 800.5Q529 783 505 783Z" glyph-name="Adieresis" horiz-adv-x="653" unicode="Ä" /><glyph d="M392 612 213 272H457ZM81 17Q72 0 57 0H-11Q-20 0 -24 7Q-28 14 -22 25L331 682Q341 700 357 700H455Q463 700 468.5 695.5Q474 691 476 682L606 25Q608 13 603 6.5Q598 0 588 0H522Q507 0 504 17L472 188H170ZM364 938Q374 938 379 933.5Q384 929 387 921L450 781Q455 770 451 764Q447 758 436 758H393Q380 758 371 771L273 913Q268 921 272 929.5Q276 938 288 938Z" glyph-name="Agrave" horiz-adv-x="653" unicode="À" /><glyph d="M392 612 213 272H457ZM81 17Q72 0 57 0H-11Q-20 0 -24 7Q-28 14 -22 25L331 682Q341 700 357 700H455Q463 700 468.5 695.5Q474 691 476 682L606 25Q608 13 603 6.5Q598 0 588 0H522Q507 0 504 17L472 188H170ZM423 993Q450 993 473 983.5Q496 974 513.5 957.5Q531 941 541 918.5Q551 896 551 869Q551 842 541 819.5Q531 797 513.5 780.5Q496 764 473 755Q450 746 423 746Q396 746 373 755Q350 764 332.5 780.5Q315 797 305 819.5Q295 842 295 869Q295 896 305 918.5Q315 941 332.5 957.5Q350 974 373 983.5Q396 993 423 993ZM423 807Q450 807 466.5 825Q483 843 483 869Q483 895 466.5 913.5Q450 932 423 932Q396 932 379.5 913.5Q363 895 363 869Q363 843 379.5 825Q396 807 423 807Z" glyph-name="Aring" horiz-adv-x="653" unicode="Å" /><glyph d="M392 612 213 272H457ZM81 17Q72 0 57 0H-11Q-20 0 -24 7Q-28 14 -22 25L331 682Q341 700 357 700H455Q463 700 468.5 695.5Q474 691 476 682L606 25Q608 13 603 6.5Q598 0 588 0H522Q507 0 504 17L472 188H170ZM350 894Q365 894 386 888.5Q407 883 427.5 876.5Q448 870 466 864.5Q484 859 493 859Q513 859 523.5 867Q534 875 546 887Q552 893 559.5 891.5Q567 890 572 882L587 861Q595 849 590 835Q581 810 555.5 791Q530 772 492 772Q476 772 455 777.5Q434 783 413.5 789Q393 795 375.5 800.5Q358 806 349 806Q329 806 319 798.5Q309 791 296 779Q290 774 282.5 774.5Q275 775 270 783L255 806Q248 817 252 830Q261 856 286.5 875Q312 894 350 894Z" glyph-name="Atilde" horiz-adv-x="653" unicode="Ã" /><glyph d="M392 612 213 272H457ZM81 17Q72 0 57 0H-11Q-20 0 -24 7Q-28 14 -22 25L331 682Q341 700 357 700H455Q463 700 468.5 695.5Q474 691 476 682L606 25Q608 13 603 6.5Q598 0 588 0H522Q507 0 504 17L472 188H170ZM369 887Q364 861 379 845.5Q394 830 426 830Q456 830 475.5 844Q495 858 500 886L502 897Q504 908 515 908H573Q586 908 584 896L582 877Q573 819 530 786Q487 753 421 753Q355 753 318 788Q281 823 290 880L292 896Q294 908 307 908H363Q367 908 370 905.5Q373 903 371 897L369 887Z" glyph-name="Abreve" horiz-adv-x="653" unicode="Ă" /><glyph d="M392 612 213 272H457ZM81 17Q72 0 57 0H-11Q-20 0 -24 7Q-28 14 -22 25L331 682Q341 700 357 700H455Q463 700 468.5 695.5Q474 691 476 682L606 25Q608 13 603 6.5Q598 0 588 0H522Q507 0 504 17L472 188H170ZM290 778Q283 778 278 783.5Q273 789 275 797L282 840Q285 858 305 858H563Q571 858 576 853Q581 848 579 840L572 797Q569 778 549 778Z" glyph-name="Amacron" horiz-adv-x="653" unicode="Ā" /><glyph d="M392 612 213 272H457ZM81 17Q72 0 57 0H-11Q-20 0 -24 7Q-28 14 -22 25L331 682Q341 700 357 700H455Q463 700 468.5 695.5Q474 691 476 682L606 25Q608 13 603 6.5Q598 0 588 0H522Q507 0 504 17L472 188H170ZM421 -136Q421 -112 434 -88.5Q447 -65 467 -44Q487 -23 510.5 -5.5Q534 12 554 24L580 20L583 9Q550 -23 527 -56Q504 -89 504 -110Q504 -140 539 -140Q553 -140 562 -137.5Q571 -135 576 -135Q589 -135 586 -151L582 -176Q581 -183 572.5 -188Q564 -193 552 -196.5Q540 -200 526.5 -201.5Q513 -203 502 -203Q465 -203 443 -185.5Q421 -168 421 -136Z" glyph-name="Aogonek" horiz-adv-x="653" unicode="Ą" /><glyph d="M156 319Q156 265 173 220Q190 175 221 142.5Q252 110 295 92Q338 74 389 74Q471 74 528 114.5Q585 155 622 220Q625 226 630 231Q635 236 643 233L702 210Q711 206 712 201Q713 196 710 190Q663 94 576.5 40Q490 -14 382 -14Q309 -14 249 11Q189 36 146 80.5Q103 125 79 185Q55 245 55 316Q55 400 85 472.5Q115 545 166.5 598.5Q218 652 286.5 682Q355 712 431 712Q490 712 541.5 695.5Q593 679 634 649Q675 619 703 576.5Q731 534 744 482Q745 477 743.5 471.5Q742 466 732 464L672 455Q658 452 653 465Q627 539 571.5 582Q516 625 432 625Q374 625 324 601Q274 577 236.5 535.5Q199 494 177.5 438Q156 382 156 319ZM418 4 325 -139Q320 -147 314.5 -149Q309 -151 301 -151H255Q246 -151 241.5 -145.5Q237 -140 242 -130L320 14Z" glyph-name="Ccedilla" horiz-adv-x="730" unicode="Ç" /><glyph d="M156 319Q156 265 173 220Q190 175 221 142.5Q252 110 295 92Q338 74 389 74Q471 74 528 114.5Q585 155 622 220Q625 226 630 231Q635 236 643 233L702 210Q711 206 712 201Q713 196 710 190Q663 94 576.5 40Q490 -14 382 -14Q309 -14 249 11Q189 36 146 80.5Q103 125 79 185Q55 245 55 316Q55 400 85 472.5Q115 545 166.5 598.5Q218 652 286.5 682Q355 712 431 712Q490 712 541.5 695.5Q593 679 634 649Q675 619 703 576.5Q731 534 744 482Q745 477 743.5 471.5Q742 466 732 464L672 455Q658 452 653 465Q627 539 571.5 582Q516 625 432 625Q374 625 324 601Q274 577 236.5 535.5Q199 494 177.5 438Q156 382 156 319ZM606 936Q617 936 620.5 927.5Q624 919 619 911L510 769Q501 756 487 756H442Q431 756 427.5 762.5Q424 769 429 779L505 919Q509 927 514 931.5Q519 936 529 936H606Z" glyph-name="Cacute" horiz-adv-x="730" unicode="Ć" /><glyph d="M156 319Q156 265 173 220Q190 175 221 142.5Q252 110 295 92Q338 74 389 74Q471 74 528 114.5Q585 155 622 220Q625 226 630 231Q635 236 643 233L702 210Q711 206 712 201Q713 196 710 190Q663 94 576.5 40Q490 -14 382 -14Q309 -14 249 11Q189 36 146 80.5Q103 125 79 185Q55 245 55 316Q55 400 85 472.5Q115 545 166.5 598.5Q218 652 286.5 682Q355 712 431 712Q490 712 541.5 695.5Q593 679 634 649Q675 619 703 576.5Q731 534 744 482Q745 477 743.5 471.5Q742 466 732 464L672 455Q658 452 653 465Q627 539 571.5 582Q516 625 432 625Q374 625 324 601Q274 577 236.5 535.5Q199 494 177.5 438Q156 382 156 319ZM426 756Q410 756 403 773L338 913Q333 923 338.5 929.5Q344 936 351 936H399Q408 936 412.5 933Q417 930 421 922L470 833L551 922Q558 930 563.5 933Q569 936 577 936H635Q643 936 646.5 929.5Q650 923 642 913L527 773Q513 756 497 756H426Z" glyph-name="Ccaron" horiz-adv-x="730" unicode="Č" /><glyph d="M156 319Q156 265 173 220Q190 175 221 142.5Q252 110 295 92Q338 74 389 74Q471 74 528 114.5Q585 155 622 220Q625 226 630 231Q635 236 643 233L702 210Q711 206 712 201Q713 196 710 190Q663 94 576.5 40Q490 -14 382 -14Q309 -14 249 11Q189 36 146 80.5Q103 125 79 185Q55 245 55 316Q55 400 85 472.5Q115 545 166.5 598.5Q218 652 286.5 682Q355 712 431 712Q490 712 541.5 695.5Q593 679 634 649Q675 619 703 576.5Q731 534 744 482Q745 477 743.5 471.5Q742 466 732 464L672 455Q658 452 653 465Q627 539 571.5 582Q516 625 432 625Q374 625 324 601Q274 577 236.5 535.5Q199 494 177.5 438Q156 382 156 319ZM528 936Q544 936 552 918L617 779Q622 769 616.5 762.5Q611 756 603 756H556Q546 756 542 759Q538 762 534 769L485 858L404 769Q397 762 391.5 759Q386 756 377 756H320Q312 756 308.5 762.5Q305 769 313 779L427 918Q442 936 459 936Z" glyph-name="Ccircumflex" horiz-adv-x="730" unicode="Ĉ" /><glyph d="M156 319Q156 265 173 220Q190 175 221 142.5Q252 110 295 92Q338 74 389 74Q471 74 528 114.5Q585 155 622 220Q625 226 630 231Q635 236 643 233L702 210Q711 206 712 201Q713 196 710 190Q663 94 576.5 40Q490 -14 382 -14Q309 -14 249 11Q189 36 146 80.5Q103 125 79 185Q55 245 55 316Q55 400 85 472.5Q115 545 166.5 598.5Q218 652 286.5 682Q355 712 431 712Q490 712 541.5 695.5Q593 679 634 649Q675 619 703 576.5Q731 534 744 482Q745 477 743.5 471.5Q742 466 732 464L672 455Q658 452 653 465Q627 539 571.5 582Q516 625 432 625Q374 625 324 601Q274 577 236.5 535.5Q199 494 177.5 438Q156 382 156 319ZM475 783Q451 783 433 800.5Q415 818 415 843Q415 868 433 886Q451 904 475 904Q501 904 518.5 886Q536 868 536 843Q536 818 518.5 800.5Q501 783 475 783Z" glyph-name="Cdotaccent" horiz-adv-x="730" unicode="Ċ" /><glyph d="M375 700Q457 700 520.5 677Q584 654 627 613Q670 572 692.5 516Q715 460 715 394Q715 307 684.5 235Q654 163 599.5 110.5Q545 58 469 29Q393 0 302 0H55Q47 0 42.5 5.5Q38 11 40 19L157 681Q159 689 164.5 694.5Q170 700 178 700ZM304 91Q373 91 430 112.5Q487 134 527.5 173.5Q568 213 590.5 268Q613 323 613 390Q613 441 596.5 481.5Q580 522 548.5 550.5Q517 579 472.5 594Q428 609 372 609H242L151 91ZM406 758Q390 758 383 775L318 915Q313 925 318.5 931.5Q324 938 331 938H379Q388 938 392.5 935Q397 932 401 924L450 835L531 924Q538 932 543.5 935Q549 938 557 938H615Q623 938 626.5 931.5Q630 925 622 915L507 775Q493 758 477 758H406Z" glyph-name="Dcaron" horiz-adv-x="728" unicode="Ď" /><glyph d="M66 0Q58 0 53.5 5.5Q49 11 51 19L103 313H35Q16 313 19 333L27 375Q30 394 49 394H117L168 681Q170 689 175.5 694.5Q181 700 189 700H386Q468 700 531 677Q594 654 637.5 613Q681 572 703.5 516Q726 460 726 394Q726 307 695.5 235Q665 163 610.5 110.5Q556 58 480 29Q404 0 313 0ZM315 91Q384 91 441 112.5Q498 134 538.5 173.5Q579 213 601.5 268Q624 323 624 390Q624 441 607.5 481.5Q591 522 559.5 550.5Q528 579 483.5 594Q439 609 383 609H253L215 394H404Q412 394 416.5 388.5Q421 383 419 375L412 333Q410 325 403.5 319Q397 313 389 313H201L162 91Z" glyph-name="Dcroat" horiz-adv-x="739" unicode="Đ" /><glyph d="M647 700Q654 700 659 694.5Q664 689 662 681L652 627Q649 608 630 608H242L205 398H406Q414 398 418.5 392.5Q423 387 421 379L412 328Q410 320 404 314Q398 308 390 308H189L151 92H544Q562 92 559 73L550 19Q547 0 527 0H55Q47 0 42.5 5.5Q38 11 40 19L157 681Q159 689 164.5 694.5Q170 700 178 700ZM557 938Q568 938 571.5 929.5Q575 921 570 913L461 771Q452 758 438 758H393Q382 758 378.5 764.5Q375 771 380 781L456 921Q460 929 465 933.5Q470 938 480 938H557Z" glyph-name="Eacute" horiz-adv-x="612" unicode="É" /><glyph d="M647 700Q654 700 659 694.5Q664 689 662 681L652 627Q649 608 630 608H242L205 398H406Q414 398 418.5 392.5Q423 387 421 379L412 328Q410 320 404 314Q398 308 390 308H189L151 92H544Q562 92 559 73L550 19Q547 0 527 0H55Q47 0 42.5 5.5Q38 11 40 19L157 681Q159 689 164.5 694.5Q170 700 178 700ZM479 938Q495 938 503 920L568 781Q573 771 567.5 764.5Q562 758 554 758H507Q497 758 493 761Q489 764 485 771L436 860L355 771Q348 764 342.5 761Q337 758 328 758H271Q263 758 259.5 764.5Q256 771 264 781L378 920Q393 938 410 938Z" glyph-name="Ecircumflex" horiz-adv-x="612" unicode="Ê" /><glyph d="M647 700Q654 700 659 694.5Q664 689 662 681L652 627Q649 608 630 608H242L205 398H406Q414 398 418.5 392.5Q423 387 421 379L412 328Q410 320 404 314Q398 308 390 308H189L151 92H544Q562 92 559 73L550 19Q547 0 527 0H55Q47 0 42.5 5.5Q38 11 40 19L157 681Q159 689 164.5 694.5Q170 700 178 700ZM337 783Q313 783 295 800.5Q277 818 277 843Q277 868 295 886Q313 904 337 904Q363 904 380.5 886Q398 868 398 843Q398 818 380.5 800.5Q363 783 337 783ZM505 783Q480 783 462 800.5Q444 818 444 843Q444 868 462 886Q480 904 505 904Q529 904 547 886Q565 868 565 843Q565 818 547 800.5Q529 783 505 783Z" glyph-name="Edieresis" horiz-adv-x="612" unicode="Ë" /><glyph d="M647 700Q654 700 659 694.5Q664 689 662 681L652 627Q649 608 630 608H242L205 398H406Q414 398 418.5 392.5Q423 387 421 379L412 328Q410 320 404 314Q398 308 390 308H189L151 92H544Q562 92 559 73L550 19Q547 0 527 0H55Q47 0 42.5 5.5Q38 11 40 19L157 681Q159 689 164.5 694.5Q170 700 178 700ZM364 938Q374 938 379 933.5Q384 929 387 921L450 781Q455 770 451 764Q447 758 436 758H393Q380 758 371 771L273 913Q268 921 272 929.5Q276 938 288 938Z" glyph-name="Egrave" horiz-adv-x="612" unicode="È" /><glyph d="M647 700Q654 700 659 694.5Q664 689 662 681L652 627Q649 608 630 608H242L205 398H406Q414 398 418.5 392.5Q423 387 421 379L412 328Q410 320 404 314Q398 308 390 308H189L151 92H544Q562 92 559 73L550 19Q547 0 527 0H55Q47 0 42.5 5.5Q38 11 40 19L157 681Q159 689 164.5 694.5Q170 700 178 700ZM370 887Q365 861 380 845.5Q395 830 427 830Q457 830 476.5 844Q496 858 501 886L503 897Q505 908 516 908H574Q587 908 585 896L583 877Q574 819 531 786Q488 753 422 753Q356 753 319 788Q282 823 291 880L293 896Q295 908 308 908H364Q368 908 371 905.5Q374 903 372 897L370 887Z" glyph-name="Ebreve" horiz-adv-x="612" unicode="Ĕ" /><glyph d="M647 700Q654 700 659 694.5Q664 689 662 681L652 627Q649 608 630 608H242L205 398H406Q414 398 418.5 392.5Q423 387 421 379L412 328Q410 320 404 314Q398 308 390 308H189L151 92H544Q562 92 559 73L550 19Q547 0 527 0H55Q47 0 42.5 5.5Q38 11 40 19L157 681Q159 689 164.5 694.5Q170 700 178 700ZM377 758Q361 758 354 775L289 915Q284 925 289.5 931.5Q295 938 302 938H350Q359 938 363.5 935Q368 932 372 924L421 835L502 924Q509 932 514.5 935Q520 938 528 938H586Q594 938 597.5 931.5Q601 925 593 915L478 775Q464 758 448 758H377Z" glyph-name="Ecaron" horiz-adv-x="612" unicode="Ě" /><glyph d="M647 700Q654 700 659 694.5Q664 689 662 681L652 627Q649 608 630 608H242L205 398H406Q414 398 418.5 392.5Q423 387 421 379L412 328Q410 320 404 314Q398 308 390 308H189L151 92H544Q562 92 559 73L550 19Q547 0 527 0H55Q47 0 42.5 5.5Q38 11 40 19L157 681Q159 689 164.5 694.5Q170 700 178 700ZM426 785Q402 785 384 802.5Q366 820 366 845Q366 870 384 888Q402 906 426 906Q452 906 469.5 888Q487 870 487 845Q487 820 469.5 802.5Q452 785 426 785Z" glyph-name="Edotaccent" horiz-adv-x="612" unicode="Ė" /><glyph d="M647 700Q654 700 659 694.5Q664 689 662 681L652 627Q649 608 630 608H242L205 398H406Q414 398 418.5 392.5Q423 387 421 379L412 328Q410 320 404 314Q398 308 390 308H189L151 92H544Q562 92 559 73L550 19Q547 0 527 0H55Q47 0 42.5 5.5Q38 11 40 19L157 681Q159 689 164.5 694.5Q170 700 178 700ZM291 778Q284 778 279 783.5Q274 789 276 797L283 840Q286 858 306 858H564Q572 858 577 853Q582 848 580 840L573 797Q570 778 550 778Z" glyph-name="Emacron" horiz-adv-x="612" unicode="Ē" /><glyph d="M647 700Q654 700 659 694.5Q664 689 662 681L652 627Q649 608 630 608H242L205 398H406Q414 398 418.5 392.5Q423 387 421 379L412 328Q410 320 404 314Q398 308 390 308H189L151 92H544Q562 92 559 73L550 19Q547 0 527 0H55Q47 0 42.5 5.5Q38 11 40 19L157 681Q159 689 164.5 694.5Q170 700 178 700ZM307 -136Q307 -112 320 -88.5Q333 -65 353 -44Q373 -23 396.5 -5.5Q420 12 440 24L466 20L469 9Q436 -23 413 -56Q390 -89 390 -110Q390 -140 425 -140Q439 -140 448 -137.5Q457 -135 462 -135Q475 -135 472 -151L468 -176Q467 -183 458.5 -188Q450 -193 438 -196.5Q426 -200 412.5 -201.5Q399 -203 388 -203Q351 -203 329 -185.5Q307 -168 307 -136Z" glyph-name="Eogonek" horiz-adv-x="612" unicode="Ę" /><glyph d="M612 119Q596 95 572.5 71.5Q549 48 517.5 29Q486 10 447 -1.5Q408 -13 360 -13Q293 -13 236.5 11Q180 35 139.5 77.5Q99 120 76.5 178.5Q54 237 54 306Q54 391 83.5 465.5Q113 540 165 595Q217 650 288 681.5Q359 713 442 713Q500 713 551 698Q602 683 643 655Q684 627 712.5 587.5Q741 548 755 500Q757 495 754.5 489Q752 483 742 480L685 464Q677 462 672 466Q667 470 665 476Q639 545 583 585Q527 625 441 625Q379 625 327 599.5Q275 574 237 531.5Q199 489 177.5 432.5Q156 376 156 313Q156 261 172 217Q188 173 217.5 141.5Q247 110 289 92Q331 74 383 74Q427 74 466 87.5Q505 101 537 124.5Q569 148 593.5 180Q618 212 634 250H417Q409 250 405 255.5Q401 261 403 269L410 314Q412 322 417.5 326.5Q423 331 431 331H719Q728 331 733 326Q738 321 736 313L684 19Q681 0 661 0H611Q603 0 597.5 5.5Q592 11 594 22L612 119ZM427 887Q422 861 437 845.5Q452 830 484 830Q514 830 533.5 844Q553 858 558 886L560 897Q562 908 573 908H631Q644 908 642 896L640 877Q631 819 588 786Q545 753 479 753Q413 753 376 788Q339 823 348 880L350 896Q352 908 365 908H421Q425 908 428 905.5Q431 903 429 897L427 887Z" glyph-name="Gbreve" horiz-adv-x="764" unicode="Ğ" /><glyph d="M612 119Q596 95 572.5 71.5Q549 48 517.5 29Q486 10 447 -1.5Q408 -13 360 -13Q293 -13 236.5 11Q180 35 139.5 77.5Q99 120 76.5 178.5Q54 237 54 306Q54 391 83.5 465.5Q113 540 165 595Q217 650 288 681.5Q359 713 442 713Q500 713 551 698Q602 683 643 655Q684 627 712.5 587.5Q741 548 755 500Q757 495 754.5 489Q752 483 742 480L685 464Q677 462 672 466Q667 470 665 476Q639 545 583 585Q527 625 441 625Q379 625 327 599.5Q275 574 237 531.5Q199 489 177.5 432.5Q156 376 156 313Q156 261 172 217Q188 173 217.5 141.5Q247 110 289 92Q331 74 383 74Q427 74 466 87.5Q505 101 537 124.5Q569 148 593.5 180Q618 212 634 250H417Q409 250 405 255.5Q401 261 403 269L410 314Q412 322 417.5 326.5Q423 331 431 331H719Q728 331 733 326Q738 321 736 313L684 19Q681 0 661 0H611Q603 0 597.5 5.5Q592 11 594 22L612 119ZM536 938Q552 938 560 920L625 781Q630 771 624.5 764.5Q619 758 611 758H564Q554 758 550 761Q546 764 542 771L493 860L412 771Q405 764 399.5 761Q394 758 385 758H328Q320 758 316.5 764.5Q313 771 321 781L435 920Q450 938 467 938Z" glyph-name="Gcircumflex" horiz-adv-x="764" unicode="Ĝ" /><glyph d="M612 119Q596 95 572.5 71.5Q549 48 517.5 29Q486 10 447 -1.5Q408 -13 360 -13Q293 -13 236.5 11Q180 35 139.5 77.5Q99 120 76.5 178.5Q54 237 54 306Q54 391 83.5 465.5Q113 540 165 595Q217 650 288 681.5Q359 713 442 713Q500 713 551 698Q602 683 643 655Q684 627 712.5 587.5Q741 548 755 500Q757 495 754.5 489Q752 483 742 480L685 464Q677 462 672 466Q667 470 665 476Q639 545 583 585Q527 625 441 625Q379 625 327 599.5Q275 574 237 531.5Q199 489 177.5 432.5Q156 376 156 313Q156 261 172 217Q188 173 217.5 141.5Q247 110 289 92Q331 74 383 74Q427 74 466 87.5Q505 101 537 124.5Q569 148 593.5 180Q618 212 634 250H417Q409 250 405 255.5Q401 261 403 269L410 314Q412 322 417.5 326.5Q423 331 431 331H719Q728 331 733 326Q738 321 736 313L684 19Q681 0 661 0H611Q603 0 597.5 5.5Q592 11 594 22L612 119ZM303 -53Q306 -46 310 -40.5Q314 -35 322 -35H390Q400 -35 402.5 -43Q405 -51 401 -57L324 -178Q314 -194 300 -194H256Q248 -194 245 -188.5Q242 -183 246 -175L303 -53Z" glyph-name="Gcommaaccent" horiz-adv-x="764" unicode="Ģ" /><glyph d="M612 119Q596 95 572.5 71.5Q549 48 517.5 29Q486 10 447 -1.5Q408 -13 360 -13Q293 -13 236.5 11Q180 35 139.5 77.5Q99 120 76.5 178.5Q54 237 54 306Q54 391 83.5 465.5Q113 540 165 595Q217 650 288 681.5Q359 713 442 713Q500 713 551 698Q602 683 643 655Q684 627 712.5 587.5Q741 548 755 500Q757 495 754.5 489Q752 483 742 480L685 464Q677 462 672 466Q667 470 665 476Q639 545 583 585Q527 625 441 625Q379 625 327 599.5Q275 574 237 531.5Q199 489 177.5 432.5Q156 376 156 313Q156 261 172 217Q188 173 217.5 141.5Q247 110 289 92Q331 74 383 74Q427 74 466 87.5Q505 101 537 124.5Q569 148 593.5 180Q618 212 634 250H417Q409 250 405 255.5Q401 261 403 269L410 314Q412 322 417.5 326.5Q423 331 431 331H719Q728 331 733 326Q738 321 736 313L684 19Q681 0 661 0H611Q603 0 597.5 5.5Q592 11 594 22L612 119ZM483 785Q459 785 441 802.5Q423 820 423 845Q423 870 441 888Q459 906 483 906Q509 906 526.5 888Q544 870 544 845Q544 820 526.5 802.5Q509 785 483 785Z" glyph-name="Gdotaccent" horiz-adv-x="764" unicode="Ġ" /><glyph d="M601 398 620 509H227L208 398ZM141 19Q138 0 120 0H58Q50 0 45.5 5.5Q41 11 43 19L129 509H79Q71 509 66.5 514.5Q62 520 63 528L69 565Q71 573 77.5 578.5Q84 584 92 584H142L160 681Q163 700 182 700H242Q261 700 258 681L240 584H633L650 681Q653 700 672 700H732Q740 700 745 695Q750 690 748 681L731 584H772Q780 584 785 578.5Q790 573 788 565L781 528Q779 520 773 514.5Q767 509 759 509H717L631 19Q629 10 623.5 5Q618 0 610 0H548Q540 0 535.5 5.5Q531 11 533 19L584 308H192Z" glyph-name="Hbar" horiz-adv-x="748" unicode="Ħ" /><glyph d="M628 19Q626 10 620.5 5Q615 0 607 0H545Q537 0 532.5 5.5Q528 11 530 19L581 308H189L138 19Q135 0 117 0H55Q47 0 42.5 5.5Q38 11 40 19L157 681Q160 700 179 700H239Q258 700 255 681L205 398H598L647 681Q650 700 669 700H729Q748 700 745 681ZM525 938Q541 938 549 920L614 781Q619 771 613.5 764.5Q608 758 600 758H553Q543 758 539 761Q535 764 531 771L482 860L401 771Q394 764 388.5 761Q383 758 374 758H317Q309 758 305.5 764.5Q302 771 310 781L424 920Q439 938 456 938Z" glyph-name="Hcircumflex" horiz-adv-x="744" unicode="Ĥ" /><glyph d="M54 0Q37 0 40 19L157 681Q160 700 178 700H239Q247 700 251.5 695Q256 690 254 681L137 19Q134 0 116 0ZM357 938Q368 938 371.5 929.5Q375 921 370 913L261 771Q252 758 238 758H193Q182 758 178.5 764.5Q175 771 180 781L256 921Q260 929 265 933.5Q270 938 280 938H357Z" glyph-name="Iacute" horiz-adv-x="253" unicode="Í" /><glyph d="M54 0Q37 0 40 19L157 681Q160 700 178 700H239Q247 700 251.5 695Q256 690 254 681L137 19Q134 0 116 0ZM278 938Q294 938 302 920L367 781Q372 771 366.5 764.5Q361 758 353 758H306Q296 758 292 761Q288 764 284 771L235 860L154 771Q147 764 141.5 761Q136 758 127 758H70Q62 758 58.5 764.5Q55 771 63 781L177 920Q192 938 209 938Z" glyph-name="Icircumflex" horiz-adv-x="253" unicode="Î" /><glyph d="M54 0Q37 0 40 19L157 681Q160 700 178 700H239Q247 700 251.5 695Q256 690 254 681L137 19Q134 0 116 0ZM137 783Q113 783 95 800.5Q77 818 77 843Q77 868 95 886Q113 904 137 904Q163 904 180.5 886Q198 868 198 843Q198 818 180.5 800.5Q163 783 137 783ZM305 783Q280 783 262 800.5Q244 818 244 843Q244 868 262 886Q280 904 305 904Q329 904 347 886Q365 868 365 843Q365 818 347 800.5Q329 783 305 783Z" glyph-name="Idieresis" horiz-adv-x="253" unicode="Ï" /><glyph d="M54 0Q37 0 40 19L157 681Q160 700 178 700H239Q247 700 251.5 695Q256 690 254 681L137 19Q134 0 116 0ZM164 938Q174 938 179 933.5Q184 929 187 921L250 781Q255 770 251 764Q247 758 236 758H193Q180 758 171 771L73 913Q68 921 72 929.5Q76 938 88 938Z" glyph-name="Igrave" horiz-adv-x="253" unicode="Ì" /><glyph d="M54 0Q37 0 40 19L157 681Q160 700 178 700H239Q247 700 251.5 695Q256 690 254 681L137 19Q134 0 116 0ZM169 887Q164 861 179 845.5Q194 830 226 830Q256 830 275.5 844Q295 858 300 886L302 897Q304 908 315 908H373Q386 908 384 896L382 877Q373 819 330 786Q287 753 221 753Q155 753 118 788Q81 823 90 880L92 896Q94 908 107 908H163Q167 908 170 905.5Q173 903 171 897L169 887Z" glyph-name="Ibreve" horiz-adv-x="253" unicode="Ĭ" /><glyph d="M54 0Q37 0 40 19L157 681Q160 700 178 700H239Q247 700 251.5 695Q256 690 254 681L137 19Q134 0 116 0ZM225 785Q201 785 183 802.5Q165 820 165 845Q165 870 183 888Q201 906 225 906Q251 906 268.5 888Q286 870 286 845Q286 820 268.5 802.5Q251 785 225 785Z" glyph-name="Idotaccent" horiz-adv-x="253" unicode="İ" /><glyph d="M54 0Q37 0 40 19L157 681Q160 700 178 700H239Q247 700 251.5 695Q256 690 254 681L137 19Q134 0 116 0ZM90 778Q83 778 78 783.5Q73 789 75 797L82 840Q85 858 105 858H363Q371 858 376 853Q381 848 379 840L372 797Q369 778 349 778Z" glyph-name="Imacron" horiz-adv-x="253" unicode="Ī" /><glyph d="M54 0Q37 0 40 19L157 681Q160 700 178 700H239Q247 700 251.5 695Q256 690 254 681L137 19Q134 0 116 0ZM-38 -136Q-38 -112 -25 -88.5Q-12 -65 8 -44Q28 -23 51.5 -5.5Q75 12 95 24L121 20L124 9Q91 -23 68 -56Q45 -89 45 -110Q45 -140 80 -140Q94 -140 103 -137.5Q112 -135 117 -135Q130 -135 127 -151L123 -176Q122 -183 113.5 -188Q105 -193 93 -196.5Q81 -200 67.5 -201.5Q54 -203 43 -203Q6 -203 -16 -185.5Q-38 -168 -38 -136Z" glyph-name="Iogonek" horiz-adv-x="253" unicode="Į" /><glyph d="M54 0Q37 0 40 19L157 681Q160 700 178 700H239Q247 700 251.5 695Q256 690 254 681L137 19Q134 0 116 0ZM150 894Q165 894 186 888.5Q207 883 227.5 876.5Q248 870 266 864.5Q284 859 293 859Q313 859 323.5 867Q334 875 346 887Q352 893 359.5 891.5Q367 890 372 882L387 861Q395 849 390 835Q381 810 355.5 791Q330 772 292 772Q276 772 255 777.5Q234 783 213.5 789Q193 795 175.5 800.5Q158 806 149 806Q129 806 119 798.5Q109 791 96 779Q90 774 82.5 774.5Q75 775 70 783L55 806Q48 817 52 830Q61 856 86.5 875Q112 894 150 894Z" glyph-name="Itilde" horiz-adv-x="253" unicode="Ĩ" /><glyph d="M506 195Q489 100 424 43.5Q359 -13 245 -13Q190 -13 144.5 5Q99 23 68 55.5Q37 88 23.5 133.5Q10 179 20 234L25 264Q27 272 33 277Q39 282 47 282H105Q113 282 117.5 277Q122 272 120 264L114 229Q108 195 115.5 166.5Q123 138 141 117.5Q159 97 186.5 85.5Q214 74 250 74Q287 74 314.5 84.5Q342 95 361.5 112.5Q381 130 392.5 153.5Q404 177 409 204L493 681Q495 689 501 694.5Q507 700 515 700H575Q583 700 588.5 694.5Q594 689 592 681L506 195ZM617 938Q633 938 641 920L706 781Q711 771 705.5 764.5Q700 758 692 758H645Q635 758 631 761Q627 764 623 771L574 860L493 771Q486 764 480.5 761Q475 758 466 758H409Q401 758 397.5 764.5Q394 771 402 781L516 920Q531 938 548 938Z" glyph-name="Jcircumflex" horiz-adv-x="584" unicode="Ĵ" /><glyph d="M54 0Q37 0 40 19L157 681Q160 700 178 700H239Q247 700 251.5 695Q256 690 254 681L137 19Q134 0 116 0ZM773 195Q756 100 691 43.5Q626 -13 512 -13Q457 -13 411.5 5Q366 23 335 55.5Q304 88 290.5 133.5Q277 179 287 234L292 264Q294 272 300 277Q306 282 314 282H372Q380 282 384.5 277Q389 272 387 264L381 229Q375 195 382.5 166.5Q390 138 408 117.5Q426 97 453.5 85.5Q481 74 517 74Q554 74 581.5 84.5Q609 95 628.5 112.5Q648 130 659.5 153.5Q671 177 676 204L760 681Q762 689 768 694.5Q774 700 782 700H842Q850 700 855.5 694.5Q861 689 859 681L773 195Z" glyph-name="IJ" horiz-adv-x="851" unicode="Ĳ" /><glyph d="M138 19Q136 11 130.5 5.5Q125 0 117 0H55Q47 0 42.5 5.5Q38 11 40 19L157 681Q160 700 177 700H239Q257 700 254 681L205 404H296L582 685Q590 693 597 696.5Q604 700 615 700H695Q705 700 707 693.5Q709 687 702 680L375 364L595 20Q600 12 595.5 6Q591 0 583 0H512Q501 0 495 3.5Q489 7 484 15L293 320H190L138 19ZM237 -53Q240 -46 244 -40.5Q248 -35 256 -35H324Q334 -35 336.5 -43Q339 -51 335 -57L258 -178Q248 -194 234 -194H190Q182 -194 179 -188.5Q176 -183 180 -175L237 -53Z" glyph-name="Kcommaaccent" horiz-adv-x="635" unicode="Ķ" /><glyph d="M498 19Q495 0 475 0H55Q47 0 42.5 5.5Q38 11 40 19L157 681Q159 689 164.5 694.5Q170 700 178 700H239Q247 700 251.5 694.5Q256 689 254 681L150 92H492Q511 92 508 73ZM358 938Q369 938 372.5 929.5Q376 921 371 913L262 771Q253 758 239 758H194Q183 758 179.5 764.5Q176 771 181 781L257 921Q261 929 266 933.5Q271 938 281 938H358Z" glyph-name="Lacute" horiz-adv-x="541" unicode="Ĺ" /><glyph d="M498 19Q495 0 475 0H55Q47 0 42.5 5.5Q38 11 40 19L157 681Q159 689 164.5 694.5Q170 700 178 700H239Q247 700 251.5 694.5Q256 689 254 681L150 92H492Q511 92 508 73ZM436 682Q439 690 443 695Q447 700 455 700H518Q528 700 533 692.5Q538 685 534 678L437 507Q427 491 414 491H374Q366 491 360.5 496.5Q355 502 359 510L436 682Z" glyph-name="Lcaron" horiz-adv-x="545" unicode="Ľ" /><glyph d="M498 19Q495 0 475 0H55Q47 0 42.5 5.5Q38 11 40 19L157 681Q159 689 164.5 694.5Q170 700 178 700H239Q247 700 251.5 694.5Q256 689 254 681L150 92H492Q511 92 508 73ZM214 -53Q217 -46 221 -40.5Q225 -35 233 -35H301Q311 -35 313.5 -43Q316 -51 312 -57L235 -178Q225 -194 211 -194H167Q159 -194 156 -188.5Q153 -183 157 -175L214 -53Z" glyph-name="Lcommaaccent" horiz-adv-x="541" unicode="Ļ" /><glyph d="M498 19Q495 0 475 0H55Q47 0 42.5 5.5Q38 11 40 19L157 681Q159 689 164.5 694.5Q170 700 178 700H239Q247 700 251.5 694.5Q256 689 254 681L150 92H492Q511 92 508 73ZM373 276Q344 276 324 295.5Q304 315 304 343Q304 371 324 390.5Q344 410 373 410Q402 410 422 390.5Q442 371 442 343Q442 315 422 295.5Q402 276 373 276Z" glyph-name="Ldot" horiz-adv-x="545" unicode="Ŀ" /><glyph d="M230 555 136 19Q133 0 116 0H55Q47 0 42.5 5.5Q38 11 40 19L157 681Q160 700 177 700H250Q266 700 273 685L529 152L621 681Q623 690 629.5 695Q636 700 643 700H704Q712 700 716.5 694.5Q721 689 719 681L602 19Q599 0 581 0H521Q498 0 490 18ZM383 894Q398 894 419 888.5Q440 883 460.5 876.5Q481 870 499 864.5Q517 859 526 859Q546 859 556.5 867Q567 875 579 887Q585 893 592.5 891.5Q600 890 605 882L620 861Q628 849 623 835Q614 810 588.5 791Q563 772 525 772Q509 772 488 777.5Q467 783 446.5 789Q426 795 408.5 800.5Q391 806 382 806Q362 806 352 798.5Q342 791 329 779Q323 774 315.5 774.5Q308 775 303 783L288 806Q281 817 285 830Q294 856 319.5 875Q345 894 383 894Z" glyph-name="Ntilde" horiz-adv-x="718" unicode="Ñ" /><glyph d="M230 555 136 19Q133 0 116 0H55Q47 0 42.5 5.5Q38 11 40 19L157 681Q160 700 177 700H250Q266 700 273 685L529 152L621 681Q623 690 629.5 695Q636 700 643 700H704Q712 700 716.5 694.5Q721 689 719 681L602 19Q599 0 581 0H521Q498 0 490 18ZM590 938Q601 938 604.5 929.5Q608 921 603 913L494 771Q485 758 471 758H426Q415 758 411.5 764.5Q408 771 413 781L489 921Q493 929 498 933.5Q503 938 513 938H590Z" glyph-name="Nacute" horiz-adv-x="718" unicode="Ń" /><glyph d="M230 555 136 19Q133 0 116 0H55Q47 0 42.5 5.5Q38 11 40 19L157 681Q160 700 177 700H250Q266 700 273 685L529 152L621 681Q623 690 629.5 695Q636 700 643 700H704Q712 700 716.5 694.5Q721 689 719 681L602 19Q599 0 581 0H521Q498 0 490 18ZM409 758Q393 758 386 775L321 915Q316 925 321.5 931.5Q327 938 334 938H382Q391 938 395.5 935Q400 932 404 924L453 835L534 924Q541 932 546.5 935Q552 938 560 938H618Q626 938 629.5 931.5Q633 925 625 915L510 775Q496 758 480 758H409Z" glyph-name="Ncaron" horiz-adv-x="718" unicode="Ň" /><glyph d="M230 555 136 19Q133 0 116 0H55Q47 0 42.5 5.5Q38 11 40 19L157 681Q160 700 177 700H250Q266 700 273 685L529 152L621 681Q623 690 629.5 695Q636 700 643 700H704Q712 700 716.5 694.5Q721 689 719 681L602 19Q599 0 581 0H521Q498 0 490 18ZM271 -53Q274 -46 278 -40.5Q282 -35 290 -35H358Q368 -35 370.5 -43Q373 -51 369 -57L292 -178Q282 -194 268 -194H224Q216 -194 213 -188.5Q210 -183 214 -175L271 -53Z" glyph-name="Ncommaaccent" horiz-adv-x="718" unicode="Ņ" /><glyph d="M418 -230Q385 -230 353.5 -219Q322 -208 305 -191Q293 -179 305 -163L330 -131Q337 -122 345.5 -121Q354 -120 362 -125Q375 -133 388.5 -138Q402 -143 416 -143Q444 -143 464 -124Q484 -105 491 -67L504 1Q494 4 489 15L229 547L136 19Q133 0 116 0H55Q47 0 42.5 5Q38 10 40 19L157 681Q160 700 177 700H250Q267 700 274 685L530 162L621 681Q623 690 629.5 695Q636 700 643 700H704Q712 700 716.5 694.5Q721 689 719 681L586 -70Q571 -156 526 -193Q481 -230 418 -230Z" glyph-name="Eng" horiz-adv-x="717" unicode="Ŋ" /><glyph d="M429 713Q503 713 564.5 687.5Q626 662 669.5 617.5Q713 573 737 512Q761 451 761 380Q761 298 732.5 226.5Q704 155 654 101.5Q604 48 535.5 17.5Q467 -13 387 -13Q313 -13 252 12.5Q191 38 147.5 82.5Q104 127 80 188Q56 249 56 320Q56 402 84.5 473.5Q113 545 163 598Q213 651 281 682Q349 713 429 713ZM429 625Q371 625 321 601Q271 577 234.5 535.5Q198 494 177 438.5Q156 383 156 320Q156 267 173 222Q190 177 221 144.5Q252 112 295 93.5Q338 75 389 75Q447 75 496.5 99Q546 123 582.5 164.5Q619 206 640 261.5Q661 317 661 380Q661 433 644 478Q627 523 596 555.5Q565 588 522.5 606.5Q480 625 429 625ZM596 939Q607 939 610.5 930.5Q614 922 609 914L500 772Q491 759 477 759H432Q421 759 417.5 765.5Q414 772 419 782L495 922Q499 930 504 934.5Q509 939 519 939H596Z" glyph-name="Oacute" horiz-adv-x="776" unicode="Ó" /><glyph d="M429 713Q503 713 564.5 687.5Q626 662 669.5 617.5Q713 573 737 512Q761 451 761 380Q761 298 732.5 226.5Q704 155 654 101.5Q604 48 535.5 17.5Q467 -13 387 -13Q313 -13 252 12.5Q191 38 147.5 82.5Q104 127 80 188Q56 249 56 320Q56 402 84.5 473.5Q113 545 163 598Q213 651 281 682Q349 713 429 713ZM429 625Q371 625 321 601Q271 577 234.5 535.5Q198 494 177 438.5Q156 383 156 320Q156 267 173 222Q190 177 221 144.5Q252 112 295 93.5Q338 75 389 75Q447 75 496.5 99Q546 123 582.5 164.5Q619 206 640 261.5Q661 317 661 380Q661 433 644 478Q627 523 596 555.5Q565 588 522.5 606.5Q480 625 429 625ZM518 939Q534 939 542 921L607 782Q612 772 606.5 765.5Q601 759 593 759H546Q536 759 532 762Q528 765 524 772L475 861L394 772Q387 765 381.5 762Q376 759 367 759H310Q302 759 298.5 765.5Q295 772 303 782L417 921Q432 939 449 939Z" glyph-name="Ocircumflex" horiz-adv-x="776" unicode="Ô" /><glyph d="M429 713Q503 713 564.5 687.5Q626 662 669.5 617.5Q713 573 737 512Q761 451 761 380Q761 298 732.5 226.5Q704 155 654 101.5Q604 48 535.5 17.5Q467 -13 387 -13Q313 -13 252 12.5Q191 38 147.5 82.5Q104 127 80 188Q56 249 56 320Q56 402 84.5 473.5Q113 545 163 598Q213 651 281 682Q349 713 429 713ZM429 625Q371 625 321 601Q271 577 234.5 535.5Q198 494 177 438.5Q156 383 156 320Q156 267 173 222Q190 177 221 144.5Q252 112 295 93.5Q338 75 389 75Q447 75 496.5 99Q546 123 582.5 164.5Q619 206 640 261.5Q661 317 661 380Q661 433 644 478Q627 523 596 555.5Q565 588 522.5 606.5Q480 625 429 625ZM377 784Q353 784 335 801.5Q317 819 317 844Q317 869 335 887Q353 905 377 905Q403 905 420.5 887Q438 869 438 844Q438 819 420.5 801.5Q403 784 377 784ZM545 784Q520 784 502 801.5Q484 819 484 844Q484 869 502 887Q520 905 545 905Q569 905 587 887Q605 869 605 844Q605 819 587 801.5Q569 784 545 784Z" glyph-name="Odieresis" horiz-adv-x="776" unicode="Ö" /><glyph d="M429 713Q503 713 564.5 687.5Q626 662 669.5 617.5Q713 573 737 512Q761 451 761 380Q761 298 732.5 226.5Q704 155 654 101.5Q604 48 535.5 17.5Q467 -13 387 -13Q313 -13 252 12.5Q191 38 147.5 82.5Q104 127 80 188Q56 249 56 320Q56 402 84.5 473.5Q113 545 163 598Q213 651 281 682Q349 713 429 713ZM429 625Q371 625 321 601Q271 577 234.5 535.5Q198 494 177 438.5Q156 383 156 320Q156 267 173 222Q190 177 221 144.5Q252 112 295 93.5Q338 75 389 75Q447 75 496.5 99Q546 123 582.5 164.5Q619 206 640 261.5Q661 317 661 380Q661 433 644 478Q627 523 596 555.5Q565 588 522.5 606.5Q480 625 429 625ZM404 939Q414 939 419 934.5Q424 930 427 922L490 782Q495 771 491 765Q487 759 476 759H433Q420 759 411 772L313 914Q308 922 312 930.5Q316 939 328 939Z" glyph-name="Ograve" horiz-adv-x="776" unicode="Ò" /><glyph d="M429 713Q503 713 564.5 687.5Q626 662 669.5 617.5Q713 573 737 512Q761 451 761 380Q761 298 732.5 226.5Q704 155 654 101.5Q604 48 535.5 17.5Q467 -13 387 -13Q313 -13 252 12.5Q191 38 147.5 82.5Q104 127 80 188Q56 249 56 320Q56 402 84.5 473.5Q113 545 163 598Q213 651 281 682Q349 713 429 713ZM429 625Q371 625 321 601Q271 577 234.5 535.5Q198 494 177 438.5Q156 383 156 320Q156 267 173 222Q190 177 221 144.5Q252 112 295 93.5Q338 75 389 75Q447 75 496.5 99Q546 123 582.5 164.5Q619 206 640 261.5Q661 317 661 380Q661 433 644 478Q627 523 596 555.5Q565 588 522.5 606.5Q480 625 429 625ZM390 895Q405 895 426 889.5Q447 884 467.5 877.5Q488 871 506 865.5Q524 860 533 860Q553 860 563.5 868Q574 876 586 888Q592 894 599.5 892.5Q607 891 612 883L627 862Q635 850 630 836Q621 811 595.5 792Q570 773 532 773Q516 773 495 778.5Q474 784 453.5 790Q433 796 415.5 801.5Q398 807 389 807Q369 807 359 799.5Q349 792 336 780Q330 775 322.5 775.5Q315 776 310 784L295 807Q288 818 292 831Q301 857 326.5 876Q352 895 390 895Z" glyph-name="Otilde" horiz-adv-x="776" unicode="Õ" /><glyph d="M429 713Q503 713 564.5 687.5Q626 662 669.5 617.5Q713 573 737 512Q761 451 761 380Q761 298 732.5 226.5Q704 155 654 101.5Q604 48 535.5 17.5Q467 -13 387 -13Q313 -13 252 12.5Q191 38 147.5 82.5Q104 127 80 188Q56 249 56 320Q56 402 84.5 473.5Q113 545 163 598Q213 651 281 682Q349 713 429 713ZM429 625Q371 625 321 601Q271 577 234.5 535.5Q198 494 177 438.5Q156 383 156 320Q156 267 173 222Q190 177 221 144.5Q252 112 295 93.5Q338 75 389 75Q447 75 496.5 99Q546 123 582.5 164.5Q619 206 640 261.5Q661 317 661 380Q661 433 644 478Q627 523 596 555.5Q565 588 522.5 606.5Q480 625 429 625ZM409 888Q404 862 419 846.5Q434 831 466 831Q496 831 515.5 845Q535 859 540 887L542 898Q544 909 555 909H613Q626 909 624 897L622 878Q613 820 570 787Q527 754 461 754Q395 754 358 789Q321 824 330 881L332 897Q334 909 347 909H403Q407 909 410 906.5Q413 904 411 898L409 888Z" glyph-name="Obreve" horiz-adv-x="776" unicode="Ŏ" /><glyph d="M429 713Q503 713 564.5 687.5Q626 662 669.5 617.5Q713 573 737 512Q761 451 761 380Q761 298 732.5 226.5Q704 155 654 101.5Q604 48 535.5 17.5Q467 -13 387 -13Q313 -13 252 12.5Q191 38 147.5 82.5Q104 127 80 188Q56 249 56 320Q56 402 84.5 473.5Q113 545 163 598Q213 651 281 682Q349 713 429 713ZM429 625Q371 625 321 601Q271 577 234.5 535.5Q198 494 177 438.5Q156 383 156 320Q156 267 173 222Q190 177 221 144.5Q252 112 295 93.5Q338 75 389 75Q447 75 496.5 99Q546 123 582.5 164.5Q619 206 640 261.5Q661 317 661 380Q661 433 644 478Q627 523 596 555.5Q565 588 522.5 606.5Q480 625 429 625ZM693 939Q704 939 707.5 930.5Q711 922 706 914L600 772Q590 759 575 759H535Q524 759 519.5 766Q515 773 520 782L592 922Q596 930 600.5 934.5Q605 939 615 939ZM510 939Q521 939 524.5 930.5Q528 922 523 914L417 772Q407 759 392 759H352Q341 759 336.5 766Q332 773 337 782L409 922Q413 930 417.5 934.5Q422 939 432 939Z" glyph-name="Ohungarumlaut" horiz-adv-x="776" unicode="Ő" /><glyph d="M429 713Q503 713 564.5 687.5Q626 662 669.5 617.5Q713 573 737 512Q761 451 761 380Q761 298 732.5 226.5Q704 155 654 101.5Q604 48 535.5 17.5Q467 -13 387 -13Q313 -13 252 12.5Q191 38 147.5 82.5Q104 127 80 188Q56 249 56 320Q56 402 84.5 473.5Q113 545 163 598Q213 651 281 682Q349 713 429 713ZM429 625Q371 625 321 601Q271 577 234.5 535.5Q198 494 177 438.5Q156 383 156 320Q156 267 173 222Q190 177 221 144.5Q252 112 295 93.5Q338 75 389 75Q447 75 496.5 99Q546 123 582.5 164.5Q619 206 640 261.5Q661 317 661 380Q661 433 644 478Q627 523 596 555.5Q565 588 522.5 606.5Q480 625 429 625ZM330 779Q323 779 318 784.5Q313 790 315 798L322 841Q325 859 345 859H603Q611 859 616 854Q621 849 619 841L612 798Q609 779 589 779Z" glyph-name="Omacron" horiz-adv-x="776" unicode="Ō" /><glyph d="M396 367Q441 367 473 379Q505 391 525.5 410.5Q546 430 555 454Q564 478 564 503Q564 553 531 583Q498 613 438 613H242L199 367ZM137 19Q135 11 130 5.5Q125 0 116 0H55Q47 0 42.5 5.5Q38 11 40 19L157 681Q159 689 164.5 694.5Q170 700 178 700H451Q502 700 542 686Q582 672 609.5 647Q637 622 651.5 588Q666 554 666 514Q666 491 659 459Q652 427 630.5 395Q609 363 570 336.5Q531 310 468 298L610 22Q614 14 609.5 7Q605 0 595 0H530Q519 0 514.5 4Q510 8 505 19L371 284H184ZM559 938Q570 938 573.5 929.5Q577 921 572 913L463 771Q454 758 440 758H395Q384 758 380.5 764.5Q377 771 382 781L458 921Q462 929 467 933.5Q472 938 482 938H559Z" glyph-name="Racute" horiz-adv-x="671" unicode="Ŕ" /><glyph d="M396 367Q441 367 473 379Q505 391 525.5 410.5Q546 430 555 454Q564 478 564 503Q564 553 531 583Q498 613 438 613H242L199 367ZM137 19Q135 11 130 5.5Q125 0 116 0H55Q47 0 42.5 5.5Q38 11 40 19L157 681Q159 689 164.5 694.5Q170 700 178 700H451Q502 700 542 686Q582 672 609.5 647Q637 622 651.5 588Q666 554 666 514Q666 491 659 459Q652 427 630.5 395Q609 363 570 336.5Q531 310 468 298L610 22Q614 14 609.5 7Q605 0 595 0H530Q519 0 514.5 4Q510 8 505 19L371 284H184ZM379 758Q363 758 356 775L291 915Q286 925 291.5 931.5Q297 938 304 938H352Q361 938 365.5 935Q370 932 374 924L423 835L504 924Q511 932 516.5 935Q522 938 530 938H588Q596 938 599.5 931.5Q603 925 595 915L480 775Q466 758 450 758H379Z" glyph-name="Rcaron" horiz-adv-x="671" unicode="Ř" /><glyph d="M396 367Q441 367 473 379Q505 391 525.5 410.5Q546 430 555 454Q564 478 564 503Q564 553 531 583Q498 613 438 613H242L199 367ZM137 19Q135 11 130 5.5Q125 0 116 0H55Q47 0 42.5 5.5Q38 11 40 19L157 681Q159 689 164.5 694.5Q170 700 178 700H451Q502 700 542 686Q582 672 609.5 647Q637 622 651.5 588Q666 554 666 514Q666 491 659 459Q652 427 630.5 395Q609 363 570 336.5Q531 310 468 298L610 22Q614 14 609.5 7Q605 0 595 0H530Q519 0 514.5 4Q510 8 505 19L371 284H184ZM250 -53Q253 -46 257 -40.5Q261 -35 269 -35H337Q347 -35 349.5 -43Q352 -51 348 -57L271 -178Q261 -194 247 -194H203Q195 -194 192 -188.5Q189 -183 193 -175L250 -53Z" glyph-name="Rcommaaccent" horiz-adv-x="671" unicode="Ŗ" /><glyph d="M350 713Q398 713 438 703.5Q478 694 510.5 678Q543 662 568 641.5Q593 621 610 600Q621 586 616.5 576.5Q612 567 604 561L572 538Q561 530 551.5 532.5Q542 535 534 544Q496 584 450.5 605.5Q405 627 346 627Q281 627 239 597Q197 567 197 516Q197 491 214.5 467.5Q232 444 282 426L417 375Q488 349 527 305Q566 261 566 198Q566 163 551.5 125.5Q537 88 505 57Q473 26 422.5 6.5Q372 -13 300 -13Q245 -13 199.5 -0.5Q154 12 118.5 31.5Q83 51 57.5 75Q32 99 17 121Q2 142 27 161L55 183Q78 201 97 177Q112 157 132 138.5Q152 120 177.5 105.5Q203 91 234 82Q265 73 302 73Q343 73 373.5 83Q404 93 423.5 109.5Q443 126 452.5 147.5Q462 169 462 191Q462 256 365 292L233 340Q162 366 128 409.5Q94 453 94 506Q94 550 111.5 588Q129 626 162 653.5Q195 681 242.5 697Q290 713 350 713ZM345 756Q329 756 322 773L257 913Q252 923 257.5 929.5Q263 936 270 936H318Q327 936 331.5 933Q336 930 340 922L389 833L470 922Q477 930 482.5 933Q488 936 496 936H554Q562 936 565.5 929.5Q569 923 561 913L446 773Q432 756 416 756H345Z" glyph-name="Scaron" horiz-adv-x="606" unicode="Š" /><glyph d="M350 713Q398 713 438 703.5Q478 694 510.5 678Q543 662 568 641.5Q593 621 610 600Q621 586 616.5 576.5Q612 567 604 561L572 538Q561 530 551.5 532.5Q542 535 534 544Q496 584 450.5 605.5Q405 627 346 627Q281 627 239 597Q197 567 197 516Q197 491 214.5 467.5Q232 444 282 426L417 375Q488 349 527 305Q566 261 566 198Q566 163 551.5 125.5Q537 88 505 57Q473 26 422.5 6.5Q372 -13 300 -13Q245 -13 199.5 -0.5Q154 12 118.5 31.5Q83 51 57.5 75Q32 99 17 121Q2 142 27 161L55 183Q78 201 97 177Q112 157 132 138.5Q152 120 177.5 105.5Q203 91 234 82Q265 73 302 73Q343 73 373.5 83Q404 93 423.5 109.5Q443 126 452.5 147.5Q462 169 462 191Q462 256 365 292L233 340Q162 366 128 409.5Q94 453 94 506Q94 550 111.5 588Q129 626 162 653.5Q195 681 242.5 697Q290 713 350 713ZM526 936Q537 936 540.5 927.5Q544 919 539 911L430 769Q421 756 407 756H362Q351 756 347.5 762.5Q344 769 349 779L425 919Q429 927 434 931.5Q439 936 449 936H526Z" glyph-name="Sacute" horiz-adv-x="606" unicode="Ś" /><glyph d="M350 713Q398 713 438 703.5Q478 694 510.5 678Q543 662 568 641.5Q593 621 610 600Q621 586 616.5 576.5Q612 567 604 561L572 538Q561 530 551.5 532.5Q542 535 534 544Q496 584 450.5 605.5Q405 627 346 627Q281 627 239 597Q197 567 197 516Q197 491 214.5 467.5Q232 444 282 426L417 375Q488 349 527 305Q566 261 566 198Q566 163 551.5 125.5Q537 88 505 57Q473 26 422.5 6.5Q372 -13 300 -13Q245 -13 199.5 -0.5Q154 12 118.5 31.5Q83 51 57.5 75Q32 99 17 121Q2 142 27 161L55 183Q78 201 97 177Q112 157 132 138.5Q152 120 177.5 105.5Q203 91 234 82Q265 73 302 73Q343 73 373.5 83Q404 93 423.5 109.5Q443 126 452.5 147.5Q462 169 462 191Q462 256 365 292L233 340Q162 366 128 409.5Q94 453 94 506Q94 550 111.5 588Q129 626 162 653.5Q195 681 242.5 697Q290 713 350 713ZM325 4 232 -139Q227 -147 221.5 -149Q216 -151 208 -151H162Q153 -151 148.5 -145.5Q144 -140 149 -130L227 14Z" glyph-name="Scedilla" horiz-adv-x="606" unicode="Ş" /><glyph d="M350 713Q398 713 438 703.5Q478 694 510.5 678Q543 662 568 641.5Q593 621 610 600Q621 586 616.5 576.5Q612 567 604 561L572 538Q561 530 551.5 532.5Q542 535 534 544Q496 584 450.5 605.5Q405 627 346 627Q281 627 239 597Q197 567 197 516Q197 491 214.5 467.5Q232 444 282 426L417 375Q488 349 527 305Q566 261 566 198Q566 163 551.5 125.5Q537 88 505 57Q473 26 422.5 6.5Q372 -13 300 -13Q245 -13 199.5 -0.5Q154 12 118.5 31.5Q83 51 57.5 75Q32 99 17 121Q2 142 27 161L55 183Q78 201 97 177Q112 157 132 138.5Q152 120 177.5 105.5Q203 91 234 82Q265 73 302 73Q343 73 373.5 83Q404 93 423.5 109.5Q443 126 452.5 147.5Q462 169 462 191Q462 256 365 292L233 340Q162 366 128 409.5Q94 453 94 506Q94 550 111.5 588Q129 626 162 653.5Q195 681 242.5 697Q290 713 350 713ZM447 936Q463 936 471 918L536 779Q541 769 535.5 762.5Q530 756 522 756H475Q465 756 461 759Q457 762 453 769L404 858L323 769Q316 762 310.5 759Q305 756 296 756H239Q231 756 227.5 762.5Q224 769 232 779L346 918Q361 936 378 936Z" glyph-name="Scircumflex" horiz-adv-x="606" unicode="Ŝ" /><glyph d="M350 713Q398 713 438 703.5Q478 694 510.5 678Q543 662 568 641.5Q593 621 610 600Q621 586 616.5 576.5Q612 567 604 561L572 538Q561 530 551.5 532.5Q542 535 534 544Q496 584 450.5 605.5Q405 627 346 627Q281 627 239 597Q197 567 197 516Q197 491 214.5 467.5Q232 444 282 426L417 375Q488 349 527 305Q566 261 566 198Q566 163 551.5 125.5Q537 88 505 57Q473 26 422.5 6.5Q372 -13 300 -13Q245 -13 199.5 -0.5Q154 12 118.5 31.5Q83 51 57.5 75Q32 99 17 121Q2 142 27 161L55 183Q78 201 97 177Q112 157 132 138.5Q152 120 177.5 105.5Q203 91 234 82Q265 73 302 73Q343 73 373.5 83Q404 93 423.5 109.5Q443 126 452.5 147.5Q462 169 462 191Q462 256 365 292L233 340Q162 366 128 409.5Q94 453 94 506Q94 550 111.5 588Q129 626 162 653.5Q195 681 242.5 697Q290 713 350 713ZM223 -51Q226 -44 230 -38.5Q234 -33 242 -33H310Q320 -33 322.5 -41Q325 -49 321 -55L244 -176Q234 -192 220 -192H176Q168 -192 165 -186.5Q162 -181 166 -173L223 -51Z" glyph-name="Scommaaccent" horiz-adv-x="606" unicode="Ș" /><glyph d="M315 19Q312 0 293 0H230Q222 0 217.5 5.5Q213 11 215 19L267 314H158Q150 314 145 319Q140 324 142 333L149 375Q151 384 157.5 389Q164 394 172 394H281L319 608H96Q88 608 83.5 613.5Q79 619 81 627L90 681Q92 689 97.5 694.5Q103 700 111 700H659Q667 700 671.5 694.5Q676 689 674 681L664 627Q661 608 642 608H419L381 394H495Q503 394 507.5 389Q512 384 510 376L503 332Q500 314 481 314H367L315 19Z" glyph-name="Tbar" horiz-adv-x="608" unicode="Ŧ" /><glyph d="M90 681Q91 689 96.5 694.5Q102 700 110 700H658Q666 700 670.5 694.5Q675 689 673 681L664 627Q661 608 642 608H418L314 19Q311 0 292 0H229Q221 0 216.5 5.5Q212 11 214 19L318 608H95Q87 608 82.5 613.5Q78 619 80 627ZM353 758Q337 758 330 775L265 915Q260 925 265.5 931.5Q271 938 278 938H326Q335 938 339.5 935Q344 932 348 924L397 835L478 924Q485 932 490.5 935Q496 938 504 938H562Q570 938 573.5 931.5Q577 925 569 915L454 775Q440 758 424 758H353Z" glyph-name="Tcaron" horiz-adv-x="607" unicode="Ť" /><glyph d="M90 681Q91 689 96.5 694.5Q102 700 110 700H658Q666 700 670.5 694.5Q675 689 673 681L664 627Q661 608 642 608H418L314 19Q311 0 292 0H229Q221 0 216.5 5.5Q212 11 214 19L318 608H95Q87 608 82.5 613.5Q78 619 80 627ZM199 -53Q202 -46 206 -40.5Q210 -35 218 -35H286Q296 -35 298.5 -43Q301 -51 297 -57L220 -178Q210 -194 196 -194H152Q144 -194 141 -188.5Q138 -183 142 -175L199 -53Z" glyph-name="Tcommaaccent" horiz-adv-x="607" unicode="Ţ" /><glyph d="M90 681Q91 689 96.5 694.5Q102 700 110 700H658Q666 700 670.5 694.5Q675 689 673 681L664 627Q661 608 642 608H418L314 19Q311 0 292 0H229Q221 0 216.5 5.5Q212 11 214 19L318 608H95Q87 608 82.5 613.5Q78 619 80 627ZM199 -53Q202 -46 206 -40.5Q210 -35 218 -35H286Q296 -35 298.5 -43Q301 -51 297 -57L220 -178Q210 -194 196 -194H152Q144 -194 141 -188.5Q138 -183 142 -175L199 -53Z" glyph-name="uni021A" horiz-adv-x="607" unicode="Ț" /><glyph d="M630 244Q607 115 528.5 51Q450 -13 323 -13Q266 -13 215.5 4Q165 21 130 53.5Q95 86 78.5 133.5Q62 181 73 243L151 681Q153 689 158.5 694.5Q164 700 172 700H234Q242 700 246.5 694.5Q251 689 249 681L173 247Q166 207 174.5 175.5Q183 144 205 122Q227 100 260 88.5Q293 77 335 77Q414 77 465.5 121.5Q517 166 531 247L607 681Q609 689 615.5 694.5Q622 700 630 700H692Q700 700 704.5 694.5Q709 689 707 681L630 244ZM581 938Q592 938 595.5 929.5Q599 921 594 913L485 771Q476 758 462 758H417Q406 758 402.5 764.5Q399 771 404 781L480 921Q484 929 489 933.5Q494 938 504 938H581Z" glyph-name="Uacute" horiz-adv-x="699" unicode="Ú" /><glyph d="M630 244Q607 115 528.5 51Q450 -13 323 -13Q266 -13 215.5 4Q165 21 130 53.5Q95 86 78.5 133.5Q62 181 73 243L151 681Q153 689 158.5 694.5Q164 700 172 700H234Q242 700 246.5 694.5Q251 689 249 681L173 247Q166 207 174.5 175.5Q183 144 205 122Q227 100 260 88.5Q293 77 335 77Q414 77 465.5 121.5Q517 166 531 247L607 681Q609 689 615.5 694.5Q622 700 630 700H692Q700 700 704.5 694.5Q709 689 707 681L630 244ZM502 938Q518 938 526 920L591 781Q596 771 590.5 764.5Q585 758 577 758H530Q520 758 516 761Q512 764 508 771L459 860L378 771Q371 764 365.5 761Q360 758 351 758H294Q286 758 282.5 764.5Q279 771 287 781L401 920Q416 938 433 938Z" glyph-name="Ucircumflex" horiz-adv-x="699" unicode="Û" /><glyph d="M630 244Q607 115 528.5 51Q450 -13 323 -13Q266 -13 215.5 4Q165 21 130 53.5Q95 86 78.5 133.5Q62 181 73 243L151 681Q153 689 158.5 694.5Q164 700 172 700H234Q242 700 246.5 694.5Q251 689 249 681L173 247Q166 207 174.5 175.5Q183 144 205 122Q227 100 260 88.5Q293 77 335 77Q414 77 465.5 121.5Q517 166 531 247L607 681Q609 689 615.5 694.5Q622 700 630 700H692Q700 700 704.5 694.5Q709 689 707 681L630 244ZM361 783Q337 783 319 800.5Q301 818 301 843Q301 868 319 886Q337 904 361 904Q387 904 404.5 886Q422 868 422 843Q422 818 404.5 800.5Q387 783 361 783ZM529 783Q504 783 486 800.5Q468 818 468 843Q468 868 486 886Q504 904 529 904Q553 904 571 886Q589 868 589 843Q589 818 571 800.5Q553 783 529 783Z" glyph-name="Udieresis" horiz-adv-x="699" unicode="Ü" /><glyph d="M630 244Q607 115 528.5 51Q450 -13 323 -13Q266 -13 215.5 4Q165 21 130 53.5Q95 86 78.5 133.5Q62 181 73 243L151 681Q153 689 158.5 694.5Q164 700 172 700H234Q242 700 246.5 694.5Q251 689 249 681L173 247Q166 207 174.5 175.5Q183 144 205 122Q227 100 260 88.5Q293 77 335 77Q414 77 465.5 121.5Q517 166 531 247L607 681Q609 689 615.5 694.5Q622 700 630 700H692Q700 700 704.5 694.5Q709 689 707 681L630 244ZM388 938Q398 938 403 933.5Q408 929 411 921L474 781Q479 770 475 764Q471 758 460 758H417Q404 758 395 771L297 913Q292 921 296 929.5Q300 938 312 938Z" glyph-name="Ugrave" horiz-adv-x="699" unicode="Ù" /><glyph d="M630 244Q607 115 528.5 51Q450 -13 323 -13Q266 -13 215.5 4Q165 21 130 53.5Q95 86 78.5 133.5Q62 181 73 243L151 681Q153 689 158.5 694.5Q164 700 172 700H234Q242 700 246.5 694.5Q251 689 249 681L173 247Q166 207 174.5 175.5Q183 144 205 122Q227 100 260 88.5Q293 77 335 77Q414 77 465.5 121.5Q517 166 531 247L607 681Q609 689 615.5 694.5Q622 700 630 700H692Q700 700 704.5 694.5Q709 689 707 681L630 244ZM393 887Q388 861 403 845.5Q418 830 450 830Q480 830 499.5 844Q519 858 524 886L526 897Q528 908 539 908H597Q610 908 608 896L606 877Q597 819 554 786Q511 753 445 753Q379 753 342 788Q305 823 314 880L316 896Q318 908 331 908H387Q391 908 394 905.5Q397 903 395 897L393 887Z" glyph-name="Ubreve" horiz-adv-x="699" unicode="Ŭ" /><glyph d="M630 244Q607 115 528.5 51Q450 -13 323 -13Q266 -13 215.5 4Q165 21 130 53.5Q95 86 78.5 133.5Q62 181 73 243L151 681Q153 689 158.5 694.5Q164 700 172 700H234Q242 700 246.5 694.5Q251 689 249 681L173 247Q166 207 174.5 175.5Q183 144 205 122Q227 100 260 88.5Q293 77 335 77Q414 77 465.5 121.5Q517 166 531 247L607 681Q609 689 615.5 694.5Q622 700 630 700H692Q700 700 704.5 694.5Q709 689 707 681L630 244ZM678 938Q689 938 692.5 929.5Q696 921 691 913L585 771Q575 758 560 758H520Q509 758 504.5 765Q500 772 505 781L577 921Q581 929 585.5 933.5Q590 938 600 938ZM495 938Q506 938 509.5 929.5Q513 921 508 913L402 771Q392 758 377 758H337Q326 758 321.5 765Q317 772 322 781L394 921Q398 929 402.5 933.5Q407 938 417 938Z" glyph-name="Uhungarumlaut" horiz-adv-x="699" unicode="Ű" /><glyph d="M630 244Q607 115 528.5 51Q450 -13 323 -13Q266 -13 215.5 4Q165 21 130 53.5Q95 86 78.5 133.5Q62 181 73 243L151 681Q153 689 158.5 694.5Q164 700 172 700H234Q242 700 246.5 694.5Q251 689 249 681L173 247Q166 207 174.5 175.5Q183 144 205 122Q227 100 260 88.5Q293 77 335 77Q414 77 465.5 121.5Q517 166 531 247L607 681Q609 689 615.5 694.5Q622 700 630 700H692Q700 700 704.5 694.5Q709 689 707 681L630 244ZM315 778Q308 778 303 783.5Q298 789 300 797L307 840Q310 858 330 858H588Q596 858 601 853Q606 848 604 840L597 797Q594 778 574 778Z" glyph-name="Umacron" horiz-adv-x="699" unicode="Ū" /><glyph d="M630 244Q607 115 528.5 51Q450 -13 323 -13Q266 -13 215.5 4Q165 21 130 53.5Q95 86 78.5 133.5Q62 181 73 243L151 681Q153 689 158.5 694.5Q164 700 172 700H234Q242 700 246.5 694.5Q251 689 249 681L173 247Q166 207 174.5 175.5Q183 144 205 122Q227 100 260 88.5Q293 77 335 77Q414 77 465.5 121.5Q517 166 531 247L607 681Q609 689 615.5 694.5Q622 700 630 700H692Q700 700 704.5 694.5Q709 689 707 681L630 244ZM283 -112Q283 -88 296 -64.5Q309 -41 329 -20Q349 1 372.5 18.5Q396 36 416 48L442 44L445 33Q412 1 389 -32Q366 -65 366 -86Q366 -116 401 -116Q415 -116 424 -113.5Q433 -111 438 -111Q451 -111 448 -127L444 -152Q443 -159 434.5 -164Q426 -169 414 -172.5Q402 -176 388.5 -177.5Q375 -179 364 -179Q327 -179 305 -161.5Q283 -144 283 -112Z" glyph-name="Uogonek" horiz-adv-x="699" unicode="Ų" /><glyph d="M630 244Q607 115 528.5 51Q450 -13 323 -13Q266 -13 215.5 4Q165 21 130 53.5Q95 86 78.5 133.5Q62 181 73 243L151 681Q153 689 158.5 694.5Q164 700 172 700H234Q242 700 246.5 694.5Q251 689 249 681L173 247Q166 207 174.5 175.5Q183 144 205 122Q227 100 260 88.5Q293 77 335 77Q414 77 465.5 121.5Q517 166 531 247L607 681Q609 689 615.5 694.5Q622 700 630 700H692Q700 700 704.5 694.5Q709 689 707 681L630 244ZM447 993Q474 993 497 983.5Q520 974 537.5 957.5Q555 941 565 918.5Q575 896 575 869Q575 842 565 819.5Q555 797 537.5 780.5Q520 764 497 755Q474 746 447 746Q420 746 397 755Q374 764 356.5 780.5Q339 797 329 819.5Q319 842 319 869Q319 896 329 918.5Q339 941 356.5 957.5Q374 974 397 983.5Q420 993 447 993ZM447 807Q474 807 490.5 825Q507 843 507 869Q507 895 490.5 913.5Q474 932 447 932Q420 932 403.5 913.5Q387 895 387 869Q387 843 403.5 825Q420 807 447 807Z" glyph-name="Uring" horiz-adv-x="699" unicode="Ů" /><glyph d="M630 244Q607 115 528.5 51Q450 -13 323 -13Q266 -13 215.5 4Q165 21 130 53.5Q95 86 78.5 133.5Q62 181 73 243L151 681Q153 689 158.5 694.5Q164 700 172 700H234Q242 700 246.5 694.5Q251 689 249 681L173 247Q166 207 174.5 175.5Q183 144 205 122Q227 100 260 88.5Q293 77 335 77Q414 77 465.5 121.5Q517 166 531 247L607 681Q609 689 615.5 694.5Q622 700 630 700H692Q700 700 704.5 694.5Q709 689 707 681L630 244ZM374 894Q389 894 410 888.5Q431 883 451.5 876.5Q472 870 490 864.5Q508 859 517 859Q537 859 547.5 867Q558 875 570 887Q576 893 583.5 891.5Q591 890 596 882L611 861Q619 849 614 835Q605 810 579.5 791Q554 772 516 772Q500 772 479 777.5Q458 783 437.5 789Q417 795 399.5 800.5Q382 806 373 806Q353 806 343 798.5Q333 791 320 779Q314 774 306.5 774.5Q299 775 294 783L279 806Q272 817 276 830Q285 856 310.5 875Q336 894 374 894Z" glyph-name="Utilde" horiz-adv-x="699" unicode="Ũ" /><glyph d="M309 18Q305 9 297.5 4.5Q290 0 283 0H183Q176 0 170 4.5Q164 9 163 18L89 675Q87 687 94 693.5Q101 700 111 700H177Q185 700 189 695Q193 690 194 682L252 112L511 683Q518 700 534 700H611Q619 700 624 695Q629 690 630 683L702 116L951 682Q954 690 960 695Q966 700 974 700H1043Q1052 700 1056.5 694.5Q1061 689 1055 675L755 18Q750 9 741.5 4.5Q733 0 728 0H639Q632 0 625.5 4.5Q619 9 617 18L551 553L309 18ZM728 938Q739 938 742.5 929.5Q746 921 741 913L632 771Q623 758 609 758H564Q553 758 549.5 764.5Q546 771 551 781L627 921Q631 929 636 933.5Q641 938 651 938H728Z" glyph-name="Wacute" horiz-adv-x="994" unicode="Ẃ" /><glyph d="M309 18Q305 9 297.5 4.5Q290 0 283 0H183Q176 0 170 4.5Q164 9 163 18L89 675Q87 687 94 693.5Q101 700 111 700H177Q185 700 189 695Q193 690 194 682L252 112L511 683Q518 700 534 700H611Q619 700 624 695Q629 690 630 683L702 116L951 682Q954 690 960 695Q966 700 974 700H1043Q1052 700 1056.5 694.5Q1061 689 1055 675L755 18Q750 9 741.5 4.5Q733 0 728 0H639Q632 0 625.5 4.5Q619 9 617 18L551 553L309 18ZM649 938Q665 938 673 920L738 781Q743 771 737.5 764.5Q732 758 724 758H677Q667 758 663 761Q659 764 655 771L606 860L525 771Q518 764 512.5 761Q507 758 498 758H441Q433 758 429.5 764.5Q426 771 434 781L548 920Q563 938 580 938Z" glyph-name="Wcircumflex" horiz-adv-x="994" unicode="Ŵ" /><glyph d="M309 18Q305 9 297.5 4.5Q290 0 283 0H183Q176 0 170 4.5Q164 9 163 18L89 675Q87 687 94 693.5Q101 700 111 700H177Q185 700 189 695Q193 690 194 682L252 112L511 683Q518 700 534 700H611Q619 700 624 695Q629 690 630 683L702 116L951 682Q954 690 960 695Q966 700 974 700H1043Q1052 700 1056.5 694.5Q1061 689 1055 675L755 18Q750 9 741.5 4.5Q733 0 728 0H639Q632 0 625.5 4.5Q619 9 617 18L551 553L309 18ZM508 783Q484 783 466 800.5Q448 818 448 843Q448 868 466 886Q484 904 508 904Q534 904 551.5 886Q569 868 569 843Q569 818 551.5 800.5Q534 783 508 783ZM676 783Q651 783 633 800.5Q615 818 615 843Q615 868 633 886Q651 904 676 904Q700 904 718 886Q736 868 736 843Q736 818 718 800.5Q700 783 676 783Z" glyph-name="Wdieresis" horiz-adv-x="994" unicode="Ẅ" /><glyph d="M309 18Q305 9 297.5 4.5Q290 0 283 0H183Q176 0 170 4.5Q164 9 163 18L89 675Q87 687 94 693.5Q101 700 111 700H177Q185 700 189 695Q193 690 194 682L252 112L511 683Q518 700 534 700H611Q619 700 624 695Q629 690 630 683L702 116L951 682Q954 690 960 695Q966 700 974 700H1043Q1052 700 1056.5 694.5Q1061 689 1055 675L755 18Q750 9 741.5 4.5Q733 0 728 0H639Q632 0 625.5 4.5Q619 9 617 18L551 553L309 18ZM535 938Q545 938 550 933.5Q555 929 558 921L621 781Q626 770 622 764Q618 758 607 758H564Q551 758 542 771L444 913Q439 921 443 929.5Q447 938 459 938Z" glyph-name="Wgrave" horiz-adv-x="994" unicode="Ẁ" /><glyph d="M242 0Q234 0 229 5.5Q224 11 226 19L276 295L95 676Q91 684 96 692Q101 700 110 700H180Q195 700 201 686L337 388H340L575 686Q585 700 600 700H681Q690 700 693 693Q696 686 688 676L373 292L324 19Q322 11 316.5 5.5Q311 0 303 0ZM538 938Q549 938 552.5 929.5Q556 921 551 913L442 771Q433 758 419 758H374Q363 758 359.5 764.5Q356 771 361 781L437 921Q441 929 446 933.5Q451 938 461 938H538Z" glyph-name="Yacute" horiz-adv-x="628" unicode="Ý" /><glyph d="M242 0Q234 0 229 5.5Q224 11 226 19L276 295L95 676Q91 684 96 692Q101 700 110 700H180Q195 700 201 686L337 388H340L575 686Q585 700 600 700H681Q690 700 693 693Q696 686 688 676L373 292L324 19Q322 11 316.5 5.5Q311 0 303 0ZM318 783Q294 783 276 800.5Q258 818 258 843Q258 868 276 886Q294 904 318 904Q344 904 361.5 886Q379 868 379 843Q379 818 361.5 800.5Q344 783 318 783ZM486 783Q461 783 443 800.5Q425 818 425 843Q425 868 443 886Q461 904 486 904Q510 904 528 886Q546 868 546 843Q546 818 528 800.5Q510 783 486 783Z" glyph-name="Ydieresis" horiz-adv-x="628" unicode="Ÿ" /><glyph d="M242 0Q234 0 229 5.5Q224 11 226 19L276 295L95 676Q91 684 96 692Q101 700 110 700H180Q195 700 201 686L337 388H340L575 686Q585 700 600 700H681Q690 700 693 693Q696 686 688 676L373 292L324 19Q322 11 316.5 5.5Q311 0 303 0ZM460 938Q476 938 484 920L549 781Q554 771 548.5 764.5Q543 758 535 758H488Q478 758 474 761Q470 764 466 771L417 860L336 771Q329 764 323.5 761Q318 758 309 758H252Q244 758 240.5 764.5Q237 771 245 781L359 920Q374 938 391 938Z" glyph-name="Ycircumflex" horiz-adv-x="628" unicode="Ŷ" /><glyph d="M242 0Q234 0 229 5.5Q224 11 226 19L276 295L95 676Q91 684 96 692Q101 700 110 700H180Q195 700 201 686L337 388H340L575 686Q585 700 600 700H681Q690 700 693 693Q696 686 688 676L373 292L324 19Q322 11 316.5 5.5Q311 0 303 0ZM345 938Q355 938 360 933.5Q365 929 368 921L431 781Q436 770 432 764Q428 758 417 758H374Q361 758 352 771L254 913Q249 921 253 929.5Q257 938 269 938Z" glyph-name="Ygrave" horiz-adv-x="628" unicode="Ỳ" /><glyph d="M-5 0Q-24 0 -21 19L-13 60Q-11 68 -5.5 75.5Q0 83 6 89L492 611H128Q120 611 115.5 616Q111 621 113 629L121 681Q123 691 129.5 695.5Q136 700 144 700H618Q626 700 630.5 694.5Q635 689 633 681L625 634Q623 626 618 618Q613 610 607 603L129 89H532Q540 89 544.5 84Q549 79 547 71L538 19Q536 11 530 5.5Q524 0 516 0ZM350 758Q334 758 327 775L262 915Q257 925 262.5 931.5Q268 938 275 938H323Q332 938 336.5 935Q341 932 345 924L394 835L475 924Q482 932 487.5 935Q493 938 501 938H559Q567 938 570.5 931.5Q574 925 566 915L451 775Q437 758 421 758H350Z" glyph-name="Zcaron" horiz-adv-x="594" unicode="Ž" /><glyph d="M-5 0Q-24 0 -21 19L-13 60Q-11 68 -5.5 75.5Q0 83 6 89L492 611H128Q120 611 115.5 616Q111 621 113 629L121 681Q123 691 129.5 695.5Q136 700 144 700H618Q626 700 630.5 694.5Q635 689 633 681L625 634Q623 626 618 618Q613 610 607 603L129 89H532Q540 89 544.5 84Q549 79 547 71L538 19Q536 11 530 5.5Q524 0 516 0ZM531 938Q542 938 545.5 929.5Q549 921 544 913L435 771Q426 758 412 758H367Q356 758 352.5 764.5Q349 771 354 781L430 921Q434 929 439 933.5Q444 938 454 938H531Z" glyph-name="Zacute" horiz-adv-x="594" unicode="Ź" /><glyph d="M-5 0Q-24 0 -21 19L-13 60Q-11 68 -5.5 75.5Q0 83 6 89L492 611H128Q120 611 115.5 616Q111 621 113 629L121 681Q123 691 129.5 695.5Q136 700 144 700H618Q626 700 630.5 694.5Q635 689 633 681L625 634Q623 626 618 618Q613 610 607 603L129 89H532Q540 89 544.5 84Q549 79 547 71L538 19Q536 11 530 5.5Q524 0 516 0ZM399 785Q375 785 357 802.5Q339 820 339 845Q339 870 357 888Q375 906 399 906Q425 906 442.5 888Q460 870 460 845Q460 820 442.5 802.5Q425 785 399 785Z" glyph-name="Zdotaccent" horiz-adv-x="594" unicode="Ż" /><glyph d="M263 71Q297 71 327 85.5Q357 100 379 125Q401 150 414 183.5Q427 217 427 255Q427 285 417.5 311.5Q408 338 390 357.5Q372 377 346.5 388.5Q321 400 290 400Q255 400 225.5 385.5Q196 371 174.5 345.5Q153 320 140.5 286.5Q128 253 128 215Q128 186 137 160Q146 134 163 114Q180 94 205 82.5Q230 71 263 71ZM32 208Q32 270 52.5 321Q73 372 107.5 408.5Q142 445 187 465Q232 485 281 485Q339 485 385 457.5Q431 430 451 383L464 453Q466 463 471.5 467.5Q477 472 485 472H542Q560 472 557 453L480 18Q478 10 472.5 5Q467 0 459 0H401Q393 0 388.5 5.5Q384 11 386 18L396 70Q373 35 331.5 11Q290 -13 236 -13Q191 -13 153.5 4Q116 21 89 50.5Q62 80 47 120.5Q32 161 32 208ZM469 710Q480 710 483.5 701.5Q487 693 482 685L373 543Q364 530 350 530H305Q294 530 290.5 536.5Q287 543 292 553L368 693Q372 701 377 705.5Q382 710 392 710H469Z" glyph-name="aacute" horiz-adv-x="576" unicode="á" /><glyph d="M263 71Q297 71 327 85.5Q357 100 379 125Q401 150 414 183.5Q427 217 427 255Q427 285 417.5 311.5Q408 338 390 357.5Q372 377 346.5 388.5Q321 400 290 400Q255 400 225.5 385.5Q196 371 174.5 345.5Q153 320 140.5 286.5Q128 253 128 215Q128 186 137 160Q146 134 163 114Q180 94 205 82.5Q230 71 263 71ZM32 208Q32 270 52.5 321Q73 372 107.5 408.5Q142 445 187 465Q232 485 281 485Q339 485 385 457.5Q431 430 451 383L464 453Q466 463 471.5 467.5Q477 472 485 472H542Q560 472 557 453L480 18Q478 10 472.5 5Q467 0 459 0H401Q393 0 388.5 5.5Q384 11 386 18L396 70Q373 35 331.5 11Q290 -13 236 -13Q191 -13 153.5 4Q116 21 89 50.5Q62 80 47 120.5Q32 161 32 208ZM391 710Q407 710 415 692L480 553Q485 543 479.5 536.5Q474 530 466 530H419Q409 530 405 533Q401 536 397 543L348 632L267 543Q260 536 254.5 533Q249 530 240 530H183Q175 530 171.5 536.5Q168 543 176 553L290 692Q305 710 322 710Z" glyph-name="acircumflex" horiz-adv-x="576" unicode="â" /><glyph d="M263 71Q297 71 327 85.5Q357 100 379 125Q401 150 414 183.5Q427 217 427 255Q427 285 417.5 311.5Q408 338 390 357.5Q372 377 346.5 388.5Q321 400 290 400Q255 400 225.5 385.5Q196 371 174.5 345.5Q153 320 140.5 286.5Q128 253 128 215Q128 186 137 160Q146 134 163 114Q180 94 205 82.5Q230 71 263 71ZM32 208Q32 270 52.5 321Q73 372 107.5 408.5Q142 445 187 465Q232 485 281 485Q339 485 385 457.5Q431 430 451 383L464 453Q466 463 471.5 467.5Q477 472 485 472H542Q560 472 557 453L480 18Q478 10 472.5 5Q467 0 459 0H401Q393 0 388.5 5.5Q384 11 386 18L396 70Q373 35 331.5 11Q290 -13 236 -13Q191 -13 153.5 4Q116 21 89 50.5Q62 80 47 120.5Q32 161 32 208ZM249 555Q225 555 207 572.5Q189 590 189 615Q189 640 207 658Q225 676 249 676Q275 676 292.5 658Q310 640 310 615Q310 590 292.5 572.5Q275 555 249 555ZM417 555Q392 555 374 572.5Q356 590 356 615Q356 640 374 658Q392 676 417 676Q441 676 459 658Q477 640 477 615Q477 590 459 572.5Q441 555 417 555Z" glyph-name="adieresis" horiz-adv-x="576" unicode="ä" /><glyph d="M263 71Q297 71 327 85.5Q357 100 379 125Q401 150 414 183.5Q427 217 427 255Q427 285 417.5 311.5Q408 338 390 357.5Q372 377 346.5 388.5Q321 400 290 400Q255 400 225.5 385.5Q196 371 174.5 345.5Q153 320 140.5 286.5Q128 253 128 215Q128 186 137 160Q146 134 163 114Q180 94 205 82.5Q230 71 263 71ZM32 208Q32 270 52.5 321Q73 372 107.5 408.5Q142 445 187 465Q232 485 281 485Q339 485 385 457.5Q431 430 451 383L464 453Q466 463 471.5 467.5Q477 472 485 472H542Q560 472 557 453L480 18Q478 10 472.5 5Q467 0 459 0H401Q393 0 388.5 5.5Q384 11 386 18L396 70Q373 35 331.5 11Q290 -13 236 -13Q191 -13 153.5 4Q116 21 89 50.5Q62 80 47 120.5Q32 161 32 208ZM277 710Q287 710 292 705.5Q297 701 300 693L363 553Q368 542 364 536Q360 530 349 530H306Q293 530 284 543L186 685Q181 693 185 701.5Q189 710 201 710Z" glyph-name="agrave" horiz-adv-x="576" unicode="à" /><glyph d="M263 71Q297 71 327 85.5Q357 100 379 125Q401 150 414 183.5Q427 217 427 255Q427 285 417.5 311.5Q408 338 390 357.5Q372 377 346.5 388.5Q321 400 290 400Q255 400 225.5 385.5Q196 371 174.5 345.5Q153 320 140.5 286.5Q128 253 128 215Q128 186 137 160Q146 134 163 114Q180 94 205 82.5Q230 71 263 71ZM32 208Q32 270 52.5 321Q73 372 107.5 408.5Q142 445 187 465Q232 485 281 485Q339 485 385 457.5Q431 430 451 383L464 453Q466 463 471.5 467.5Q477 472 485 472H542Q560 472 557 453L480 18Q478 10 472.5 5Q467 0 459 0H401Q393 0 388.5 5.5Q384 11 386 18L396 70Q373 35 331.5 11Q290 -13 236 -13Q191 -13 153.5 4Q116 21 89 50.5Q62 80 47 120.5Q32 161 32 208ZM336 765Q363 765 386 755.5Q409 746 426.5 729.5Q444 713 454 690.5Q464 668 464 641Q464 614 454 591.5Q444 569 426.5 552.5Q409 536 386 527Q363 518 336 518Q309 518 286 527Q263 536 245.5 552.5Q228 569 218 591.5Q208 614 208 641Q208 668 218 690.5Q228 713 245.5 729.5Q263 746 286 755.5Q309 765 336 765ZM336 579Q363 579 379.5 597Q396 615 396 641Q396 667 379.5 685.5Q363 704 336 704Q309 704 292.5 685.5Q276 667 276 641Q276 615 292.5 597Q309 579 336 579Z" glyph-name="aring" horiz-adv-x="576" unicode="å" /><glyph d="M263 71Q297 71 327 85.5Q357 100 379 125Q401 150 414 183.5Q427 217 427 255Q427 285 417.5 311.5Q408 338 390 357.5Q372 377 346.5 388.5Q321 400 290 400Q255 400 225.5 385.5Q196 371 174.5 345.5Q153 320 140.5 286.5Q128 253 128 215Q128 186 137 160Q146 134 163 114Q180 94 205 82.5Q230 71 263 71ZM32 208Q32 270 52.5 321Q73 372 107.5 408.5Q142 445 187 465Q232 485 281 485Q339 485 385 457.5Q431 430 451 383L464 453Q466 463 471.5 467.5Q477 472 485 472H542Q560 472 557 453L480 18Q478 10 472.5 5Q467 0 459 0H401Q393 0 388.5 5.5Q384 11 386 18L396 70Q373 35 331.5 11Q290 -13 236 -13Q191 -13 153.5 4Q116 21 89 50.5Q62 80 47 120.5Q32 161 32 208ZM263 666Q278 666 299 660.5Q320 655 340.5 648.5Q361 642 379 636.5Q397 631 406 631Q426 631 436.5 639Q447 647 459 659Q465 665 472.5 663.5Q480 662 485 654L500 633Q508 621 503 607Q494 582 468.5 563Q443 544 405 544Q389 544 368 549.5Q347 555 326.5 561Q306 567 288.5 572.5Q271 578 262 578Q242 578 232 570.5Q222 563 209 551Q203 546 195.5 546.5Q188 547 183 555L168 578Q161 589 165 602Q174 628 199.5 647Q225 666 263 666Z" glyph-name="atilde" horiz-adv-x="576" unicode="ã" /><glyph d="M263 71Q297 71 327 85.5Q357 100 379 125Q401 150 414 183.5Q427 217 427 255Q427 285 417.5 311.5Q408 338 390 357.5Q372 377 346.5 388.5Q321 400 290 400Q255 400 225.5 385.5Q196 371 174.5 345.5Q153 320 140.5 286.5Q128 253 128 215Q128 186 137 160Q146 134 163 114Q180 94 205 82.5Q230 71 263 71ZM32 208Q32 270 52.5 321Q73 372 107.5 408.5Q142 445 187 465Q232 485 281 485Q339 485 385 457.5Q431 430 451 383L464 453Q466 463 471.5 467.5Q477 472 485 472H542Q560 472 557 453L480 18Q478 10 472.5 5Q467 0 459 0H401Q393 0 388.5 5.5Q384 11 386 18L396 70Q373 35 331.5 11Q290 -13 236 -13Q191 -13 153.5 4Q116 21 89 50.5Q62 80 47 120.5Q32 161 32 208ZM282 659Q277 633 292 617.5Q307 602 339 602Q369 602 388.5 616Q408 630 413 658L415 669Q417 680 428 680H486Q499 680 497 668L495 649Q486 591 443 558Q400 525 334 525Q268 525 231 560Q194 595 203 652L205 668Q207 680 220 680H276Q280 680 283 677.5Q286 675 284 669L282 659Z" glyph-name="abreve" horiz-adv-x="576" unicode="ă" /><glyph d="M263 71Q297 71 327 85.5Q357 100 379 125Q401 150 414 183.5Q427 217 427 255Q427 285 417.5 311.5Q408 338 390 357.5Q372 377 346.5 388.5Q321 400 290 400Q255 400 225.5 385.5Q196 371 174.5 345.5Q153 320 140.5 286.5Q128 253 128 215Q128 186 137 160Q146 134 163 114Q180 94 205 82.5Q230 71 263 71ZM32 208Q32 270 52.5 321Q73 372 107.5 408.5Q142 445 187 465Q232 485 281 485Q339 485 385 457.5Q431 430 451 383L464 453Q466 463 471.5 467.5Q477 472 485 472H542Q560 472 557 453L480 18Q478 10 472.5 5Q467 0 459 0H401Q393 0 388.5 5.5Q384 11 386 18L396 70Q373 35 331.5 11Q290 -13 236 -13Q191 -13 153.5 4Q116 21 89 50.5Q62 80 47 120.5Q32 161 32 208ZM203 550Q196 550 191 555.5Q186 561 188 569L195 612Q198 630 218 630H476Q484 630 489 625Q494 620 492 612L485 569Q482 550 462 550Z" glyph-name="amacron" horiz-adv-x="576" unicode="ā" /><glyph d="M263 71Q297 71 327 85.5Q357 100 379 125Q401 150 414 183.5Q427 217 427 255Q427 285 417.5 311.5Q408 338 390 357.5Q372 377 346.5 388.5Q321 400 290 400Q255 400 225.5 385.5Q196 371 174.5 345.5Q153 320 140.5 286.5Q128 253 128 215Q128 186 137 160Q146 134 163 114Q180 94 205 82.5Q230 71 263 71ZM32 208Q32 270 52.5 321Q73 372 107.5 408.5Q142 445 187 465Q232 485 281 485Q339 485 385 457.5Q431 430 451 383L464 453Q466 463 471.5 467.5Q477 472 485 472H542Q560 472 557 453L480 18Q478 10 472.5 5Q467 0 459 0H401Q393 0 388.5 5.5Q384 11 386 18L396 70Q373 35 331.5 11Q290 -13 236 -13Q191 -13 153.5 4Q116 21 89 50.5Q62 80 47 120.5Q32 161 32 208ZM303 -118Q303 -94 316 -70.5Q329 -47 349 -26Q369 -5 392.5 12.5Q416 30 436 42L462 38L465 27Q432 -5 409 -38Q386 -71 386 -92Q386 -122 421 -122Q435 -122 444 -119.5Q453 -117 458 -117Q471 -117 468 -133L464 -158Q463 -165 454.5 -170Q446 -175 434 -178.5Q422 -182 408.5 -183.5Q395 -185 384 -185Q347 -185 325 -167.5Q303 -150 303 -118Z" glyph-name="aogonek" horiz-adv-x="576" unicode="ą" /><glyph d="M457 84Q425 39 375.5 13Q326 -13 259 -13Q208 -13 166 4.5Q124 22 94 52.5Q64 83 47.5 124Q31 165 31 212Q31 270 50.5 320Q70 370 104 407Q138 444 184 464.5Q230 485 284 485Q367 485 418.5 450Q470 415 493 364Q496 357 493 351Q490 345 483 341L439 318Q428 313 422.5 317Q417 321 414 326Q393 361 362.5 380.5Q332 400 286 400Q253 400 223.5 385.5Q194 371 172.5 346Q151 321 138.5 287.5Q126 254 126 217Q126 184 136.5 157.5Q147 131 165.5 111.5Q184 92 209 81.5Q234 71 264 71Q302 71 331 87.5Q360 104 388 136Q393 142 400.5 145Q408 148 418 141L454 115Q462 109 462 100Q462 91 457 84ZM285 4 192 -139Q187 -147 181.5 -149Q176 -151 168 -151H122Q113 -151 108.5 -145.5Q104 -140 109 -130L187 14Z" glyph-name="ccedilla" horiz-adv-x="504" unicode="ç" /><glyph d="M458 84Q426 39 376.5 13Q327 -13 260 -13Q209 -13 167 4.5Q125 22 95 52.5Q65 83 48.5 124Q32 165 32 212Q32 270 51.5 320Q71 370 105 407Q139 444 185 464.5Q231 485 285 485Q368 485 419.5 450Q471 415 494 364Q497 357 494 351Q491 345 484 341L440 318Q429 313 423.5 317Q418 321 415 326Q394 361 363.5 380.5Q333 400 287 400Q254 400 224.5 385.5Q195 371 173.5 346Q152 321 139.5 287.5Q127 254 127 217Q127 184 137.5 157.5Q148 131 166.5 111.5Q185 92 210 81.5Q235 71 265 71Q303 71 332 87.5Q361 104 389 136Q394 142 401.5 145Q409 148 419 141L455 115Q463 109 463 100Q463 91 458 84ZM454 707Q465 707 468.5 698.5Q472 690 467 682L358 540Q349 527 335 527H290Q279 527 275.5 533.5Q272 540 277 550L353 690Q357 698 362 702.5Q367 707 377 707H454Z" glyph-name="cacute" horiz-adv-x="505" unicode="ć" /><glyph d="M458 84Q426 39 376.5 13Q327 -13 260 -13Q209 -13 167 4.5Q125 22 95 52.5Q65 83 48.5 124Q32 165 32 212Q32 270 51.5 320Q71 370 105 407Q139 444 185 464.5Q231 485 285 485Q368 485 419.5 450Q471 415 494 364Q497 357 494 351Q491 345 484 341L440 318Q429 313 423.5 317Q418 321 415 326Q394 361 363.5 380.5Q333 400 287 400Q254 400 224.5 385.5Q195 371 173.5 346Q152 321 139.5 287.5Q127 254 127 217Q127 184 137.5 157.5Q148 131 166.5 111.5Q185 92 210 81.5Q235 71 265 71Q303 71 332 87.5Q361 104 389 136Q394 142 401.5 145Q409 148 419 141L455 115Q463 109 463 100Q463 91 458 84ZM273 527Q257 527 250 544L185 684Q180 694 185.5 700.5Q191 707 198 707H246Q255 707 259.5 704Q264 701 268 693L317 604L398 693Q405 701 410.5 704Q416 707 424 707H482Q490 707 493.5 700.5Q497 694 489 684L374 544Q360 527 344 527H273Z" glyph-name="ccaron" horiz-adv-x="505" unicode="č" /><glyph d="M458 84Q426 39 376.5 13Q327 -13 260 -13Q209 -13 167 4.5Q125 22 95 52.5Q65 83 48.5 124Q32 165 32 212Q32 270 51.5 320Q71 370 105 407Q139 444 185 464.5Q231 485 285 485Q368 485 419.5 450Q471 415 494 364Q497 357 494 351Q491 345 484 341L440 318Q429 313 423.5 317Q418 321 415 326Q394 361 363.5 380.5Q333 400 287 400Q254 400 224.5 385.5Q195 371 173.5 346Q152 321 139.5 287.5Q127 254 127 217Q127 184 137.5 157.5Q148 131 166.5 111.5Q185 92 210 81.5Q235 71 265 71Q303 71 332 87.5Q361 104 389 136Q394 142 401.5 145Q409 148 419 141L455 115Q463 109 463 100Q463 91 458 84ZM375 707Q391 707 399 689L464 550Q469 540 463.5 533.5Q458 527 450 527H403Q393 527 389 530Q385 533 381 540L332 629L251 540Q244 533 238.5 530Q233 527 224 527H167Q159 527 155.5 533.5Q152 540 160 550L274 689Q289 707 306 707Z" glyph-name="ccircumflex" horiz-adv-x="505" unicode="ĉ" /><glyph d="M458 84Q426 39 376.5 13Q327 -13 260 -13Q209 -13 167 4.5Q125 22 95 52.5Q65 83 48.5 124Q32 165 32 212Q32 270 51.5 320Q71 370 105 407Q139 444 185 464.5Q231 485 285 485Q368 485 419.5 450Q471 415 494 364Q497 357 494 351Q491 345 484 341L440 318Q429 313 423.5 317Q418 321 415 326Q394 361 363.5 380.5Q333 400 287 400Q254 400 224.5 385.5Q195 371 173.5 346Q152 321 139.5 287.5Q127 254 127 217Q127 184 137.5 157.5Q148 131 166.5 111.5Q185 92 210 81.5Q235 71 265 71Q303 71 332 87.5Q361 104 389 136Q394 142 401.5 145Q409 148 419 141L455 115Q463 109 463 100Q463 91 458 84ZM322 554Q298 554 280 571.5Q262 589 262 614Q262 639 280 657Q298 675 322 675Q348 675 365.5 657Q383 639 383 614Q383 589 365.5 571.5Q348 554 322 554Z" glyph-name="cdotaccent" horiz-adv-x="505" unicode="ċ" /><glyph d="M691 682Q694 690 698 695Q702 700 710 700H773Q783 700 788 692.5Q793 685 789 678L692 507Q682 491 669 491H629Q621 491 615.5 496.5Q610 502 614 510L691 682ZM263 71Q297 71 327 85.5Q357 100 379 125Q401 150 414 183.5Q427 217 427 255Q427 285 417.5 311.5Q408 338 390 357.5Q372 377 346.5 388.5Q321 400 290 400Q255 400 225.5 385.5Q196 371 174.5 345.5Q153 320 140.5 286.5Q128 253 128 215Q128 186 137 160Q146 134 163 114Q180 94 205 82.5Q230 71 263 71ZM396 70Q373 35 331.5 11Q290 -13 236 -13Q191 -13 153.5 4Q116 21 89 50.5Q62 80 47 120.5Q32 161 32 208Q32 270 52.5 321Q73 372 107.5 408.5Q142 445 187 465Q232 485 281 485Q339 485 384.5 457.5Q430 430 450 383L502 682Q504 691 509.5 695.5Q515 700 523 700H583Q590 700 595 695.5Q600 691 598 682L480 18Q478 10 472.5 5Q467 0 459 0H401Q393 0 388.5 5.5Q384 11 386 18Z" glyph-name="dcaron" horiz-adv-x="618" unicode="ď" /><glyph d="M263 71Q297 71 327 85.5Q357 100 379 125Q401 150 414 183.5Q427 217 427 255Q427 285 417.5 311.5Q408 338 390 357.5Q372 377 346.5 388.5Q321 400 290 400Q255 400 225.5 385.5Q196 371 174.5 345.5Q153 320 140.5 286.5Q128 253 128 215Q128 186 137 160Q146 134 163 114Q180 94 205 82.5Q230 71 263 71ZM396 70Q373 35 331.5 11Q290 -13 236 -13Q191 -13 153.5 4Q116 21 89 50.5Q62 80 47 120.5Q32 161 32 208Q32 270 52.5 321Q73 372 107.5 408.5Q142 445 187 465Q232 485 281 485Q339 485 384.5 457.5Q430 430 450 383L478 544H356Q348 544 343 549.5Q338 555 340 563L345 591Q347 602 353.5 606.5Q360 611 368 611H490L502 682Q504 691 509.5 695.5Q515 700 523 700H583Q590 700 595 695.5Q600 691 598 682L585 611H642Q661 611 658 591L653 562Q651 552 645 548Q639 544 631 544H574L480 18Q478 10 472.5 5Q467 0 459 0H401Q393 0 388.5 5.5Q384 11 386 18Z" glyph-name="dcroat" horiz-adv-x="577" unicode="đ" /><glyph d="M261 -13Q208 -13 165.5 4Q123 21 93 51.5Q63 82 47 123.5Q31 165 31 213Q31 269 51 318.5Q71 368 106.5 405Q142 442 190 463.5Q238 485 295 485Q346 485 387 467Q428 449 457 419Q486 389 500.5 348.5Q515 308 513 263L512 235Q510 211 486 211H126V206Q126 146 163.5 108Q201 70 261 70Q306 70 338.5 87Q371 104 394 127Q408 141 421 133L465 105Q472 100 472.5 92.5Q473 85 469 80Q440 43 388.5 15Q337 -13 261 -13ZM291 408Q234 408 191.5 371Q149 334 135 274H421Q422 339 385 373.5Q348 408 291 408ZM449 710Q460 710 463.5 701.5Q467 693 462 685L353 543Q344 530 330 530H285Q274 530 270.5 536.5Q267 543 272 553L348 693Q352 701 357 705.5Q362 710 372 710H449Z" glyph-name="eacute" horiz-adv-x="534" unicode="é" /><glyph d="M261 -13Q208 -13 165.5 4Q123 21 93 51.5Q63 82 47 123.5Q31 165 31 213Q31 269 51 318.5Q71 368 106.5 405Q142 442 190 463.5Q238 485 295 485Q346 485 387 467Q428 449 457 419Q486 389 500.5 348.5Q515 308 513 263L512 235Q510 211 486 211H126V206Q126 146 163.5 108Q201 70 261 70Q306 70 338.5 87Q371 104 394 127Q408 141 421 133L465 105Q472 100 472.5 92.5Q473 85 469 80Q440 43 388.5 15Q337 -13 261 -13ZM291 408Q234 408 191.5 371Q149 334 135 274H421Q422 339 385 373.5Q348 408 291 408ZM370 710Q386 710 394 692L459 553Q464 543 458.5 536.5Q453 530 445 530H398Q388 530 384 533Q380 536 376 543L327 632L246 543Q239 536 233.5 533Q228 530 219 530H162Q154 530 150.5 536.5Q147 543 155 553L269 692Q284 710 301 710Z" glyph-name="ecircumflex" horiz-adv-x="534" unicode="ê" /><glyph d="M261 -13Q208 -13 165.5 4Q123 21 93 51.5Q63 82 47 123.5Q31 165 31 213Q31 269 51 318.5Q71 368 106.5 405Q142 442 190 463.5Q238 485 295 485Q346 485 387 467Q428 449 457 419Q486 389 500.5 348.5Q515 308 513 263L512 235Q510 211 486 211H126V206Q126 146 163.5 108Q201 70 261 70Q306 70 338.5 87Q371 104 394 127Q408 141 421 133L465 105Q472 100 472.5 92.5Q473 85 469 80Q440 43 388.5 15Q337 -13 261 -13ZM291 408Q234 408 191.5 371Q149 334 135 274H421Q422 339 385 373.5Q348 408 291 408ZM229 555Q205 555 187 572.5Q169 590 169 615Q169 640 187 658Q205 676 229 676Q255 676 272.5 658Q290 640 290 615Q290 590 272.5 572.5Q255 555 229 555ZM397 555Q372 555 354 572.5Q336 590 336 615Q336 640 354 658Q372 676 397 676Q421 676 439 658Q457 640 457 615Q457 590 439 572.5Q421 555 397 555Z" glyph-name="edieresis" horiz-adv-x="534" unicode="ë" /><glyph d="M261 -13Q208 -13 165.5 4Q123 21 93 51.5Q63 82 47 123.5Q31 165 31 213Q31 269 51 318.5Q71 368 106.5 405Q142 442 190 463.5Q238 485 295 485Q346 485 387 467Q428 449 457 419Q486 389 500.5 348.5Q515 308 513 263L512 235Q510 211 486 211H126V206Q126 146 163.5 108Q201 70 261 70Q306 70 338.5 87Q371 104 394 127Q408 141 421 133L465 105Q472 100 472.5 92.5Q473 85 469 80Q440 43 388.5 15Q337 -13 261 -13ZM291 408Q234 408 191.5 371Q149 334 135 274H421Q422 339 385 373.5Q348 408 291 408ZM256 710Q266 710 271 705.5Q276 701 279 693L342 553Q347 542 343 536Q339 530 328 530H285Q272 530 263 543L165 685Q160 693 164 701.5Q168 710 180 710Z" glyph-name="egrave" horiz-adv-x="534" unicode="è" /><glyph d="M261 -13Q208 -13 165.5 4Q123 21 93 51.5Q63 82 47 123.5Q31 165 31 213Q31 269 51 318.5Q71 368 106.5 405Q142 442 190 463.5Q238 485 295 485Q346 485 387 467Q428 449 457 419Q486 389 500.5 348.5Q515 308 513 263L512 235Q510 211 486 211H126V206Q126 146 163.5 108Q201 70 261 70Q306 70 338.5 87Q371 104 394 127Q408 141 421 133L465 105Q472 100 472.5 92.5Q473 85 469 80Q440 43 388.5 15Q337 -13 261 -13ZM291 408Q234 408 191.5 371Q149 334 135 274H421Q422 339 385 373.5Q348 408 291 408ZM261 659Q256 633 271 617.5Q286 602 318 602Q348 602 367.5 616Q387 630 392 658L394 669Q396 680 407 680H465Q478 680 476 668L474 649Q465 591 422 558Q379 525 313 525Q247 525 210 560Q173 595 182 652L184 668Q186 680 199 680H255Q259 680 262 677.5Q265 675 263 669L261 659Z" glyph-name="ebreve" horiz-adv-x="534" unicode="ĕ" /><glyph d="M261 -13Q208 -13 165.5 4Q123 21 93 51.5Q63 82 47 123.5Q31 165 31 213Q31 269 51 318.5Q71 368 106.5 405Q142 442 190 463.5Q238 485 295 485Q346 485 387 467Q428 449 457 419Q486 389 500.5 348.5Q515 308 513 263L512 235Q510 211 486 211H126V206Q126 146 163.5 108Q201 70 261 70Q306 70 338.5 87Q371 104 394 127Q408 141 421 133L465 105Q472 100 472.5 92.5Q473 85 469 80Q440 43 388.5 15Q337 -13 261 -13ZM291 408Q234 408 191.5 371Q149 334 135 274H421Q422 339 385 373.5Q348 408 291 408ZM268 530Q252 530 245 547L180 687Q175 697 180.5 703.5Q186 710 193 710H241Q250 710 254.5 707Q259 704 263 696L312 607L393 696Q400 704 405.5 707Q411 710 419 710H477Q485 710 488.5 703.5Q492 697 484 687L369 547Q355 530 339 530H268Z" glyph-name="ecaron" horiz-adv-x="534" unicode="ě" /><glyph d="M261 -13Q208 -13 165.5 4Q123 21 93 51.5Q63 82 47 123.5Q31 165 31 213Q31 269 51 318.5Q71 368 106.5 405Q142 442 190 463.5Q238 485 295 485Q346 485 387 467Q428 449 457 419Q486 389 500.5 348.5Q515 308 513 263L512 235Q510 211 486 211H126V206Q126 146 163.5 108Q201 70 261 70Q306 70 338.5 87Q371 104 394 127Q408 141 421 133L465 105Q472 100 472.5 92.5Q473 85 469 80Q440 43 388.5 15Q337 -13 261 -13ZM291 408Q234 408 191.5 371Q149 334 135 274H421Q422 339 385 373.5Q348 408 291 408ZM318 557Q294 557 276 574.5Q258 592 258 617Q258 642 276 660Q294 678 318 678Q344 678 361.5 660Q379 642 379 617Q379 592 361.5 574.5Q344 557 318 557Z" glyph-name="edotaccent" horiz-adv-x="534" unicode="ė" /><glyph d="M261 -13Q208 -13 165.5 4Q123 21 93 51.5Q63 82 47 123.5Q31 165 31 213Q31 269 51 318.5Q71 368 106.5 405Q142 442 190 463.5Q238 485 295 485Q346 485 387 467Q428 449 457 419Q486 389 500.5 348.5Q515 308 513 263L512 235Q510 211 486 211H126V206Q126 146 163.5 108Q201 70 261 70Q306 70 338.5 87Q371 104 394 127Q408 141 421 133L465 105Q472 100 472.5 92.5Q473 85 469 80Q440 43 388.5 15Q337 -13 261 -13ZM291 408Q234 408 191.5 371Q149 334 135 274H421Q422 339 385 373.5Q348 408 291 408ZM183 550Q176 550 171 555.5Q166 561 168 569L175 612Q178 630 198 630H456Q464 630 469 625Q474 620 472 612L465 569Q462 550 442 550Z" glyph-name="emacron" horiz-adv-x="534" unicode="ē" /><glyph d="M261 -13Q208 -13 165.5 4Q123 21 93 51.5Q63 82 47 123.5Q31 165 31 213Q31 269 51 318.5Q71 368 106.5 405Q142 442 190 463.5Q238 485 295 485Q346 485 387 467Q428 449 457 419Q486 389 500.5 348.5Q515 308 513 263L512 235Q510 211 486 211H126V206Q126 146 163.5 108Q201 70 261 70Q306 70 338.5 87Q371 104 394 127Q408 141 421 133L465 105Q472 100 472.5 92.5Q473 85 469 80Q440 43 388.5 15Q337 -13 261 -13ZM291 408Q234 408 191.5 371Q149 334 135 274H421Q422 339 385 373.5Q348 408 291 408ZM220 -114Q220 -90 233 -66.5Q246 -43 266 -22Q286 -1 309.5 16.5Q333 34 353 46L379 42L382 31Q349 -1 326 -34Q303 -67 303 -88Q303 -118 338 -118Q352 -118 361 -115.5Q370 -113 375 -113Q388 -113 385 -129L381 -154Q380 -161 371.5 -166Q363 -171 351 -174.5Q339 -178 325.5 -179.5Q312 -181 301 -181Q264 -181 242 -163.5Q220 -146 220 -114Z" glyph-name="eogonek" horiz-adv-x="534" unicode="ę" /><glyph d="M263 83Q297 83 327 96.5Q357 110 378.5 133.5Q400 157 412.5 189.5Q425 222 425 260Q425 290 415.5 316Q406 342 388 361Q370 380 344.5 391Q319 402 288 402Q253 402 224 387.5Q195 373 174.5 349Q154 325 142.5 293Q131 261 131 225Q131 196 139.5 170.5Q148 145 165 125.5Q182 106 206.5 94.5Q231 83 263 83ZM206 -230Q162 -230 125.5 -219Q89 -208 60.5 -191.5Q32 -175 13 -155Q-6 -135 -16 -117Q-21 -105 -17 -98Q-13 -91 -5 -86L34 -65Q47 -57 53.5 -62Q60 -67 64 -72Q86 -101 121.5 -124Q157 -147 213 -147Q284 -147 324.5 -107.5Q365 -68 376 -10L392 72Q370 40 329.5 21Q289 2 238 2Q193 2 155.5 18.5Q118 35 91 64Q64 93 49 133Q34 173 34 220Q34 278 53 326.5Q72 375 105 410.5Q138 446 182 465.5Q226 485 276 485Q335 485 381 457.5Q427 430 447 383L460 453Q462 463 467.5 467.5Q473 472 481 472H539Q547 472 551.5 466.5Q556 461 554 453L470 -11Q453 -111 387.5 -170.5Q322 -230 206 -230ZM276 659Q271 633 286 617.5Q301 602 333 602Q363 602 382.5 616Q402 630 407 658L409 669Q411 680 422 680H480Q493 680 491 668L489 649Q480 591 437 558Q394 525 328 525Q262 525 225 560Q188 595 197 652L199 668Q201 680 214 680H270Q274 680 277 677.5Q280 675 278 669L276 659Z" glyph-name="gbreve" horiz-adv-x="573" unicode="ğ" /><glyph d="M263 83Q297 83 327 96.5Q357 110 378.5 133.5Q400 157 412.5 189.5Q425 222 425 260Q425 290 415.5 316Q406 342 388 361Q370 380 344.5 391Q319 402 288 402Q253 402 224 387.5Q195 373 174.5 349Q154 325 142.5 293Q131 261 131 225Q131 196 139.5 170.5Q148 145 165 125.5Q182 106 206.5 94.5Q231 83 263 83ZM206 -230Q162 -230 125.5 -219Q89 -208 60.5 -191.5Q32 -175 13 -155Q-6 -135 -16 -117Q-21 -105 -17 -98Q-13 -91 -5 -86L34 -65Q47 -57 53.5 -62Q60 -67 64 -72Q86 -101 121.5 -124Q157 -147 213 -147Q284 -147 324.5 -107.5Q365 -68 376 -10L392 72Q370 40 329.5 21Q289 2 238 2Q193 2 155.5 18.5Q118 35 91 64Q64 93 49 133Q34 173 34 220Q34 278 53 326.5Q72 375 105 410.5Q138 446 182 465.5Q226 485 276 485Q335 485 381 457.5Q427 430 447 383L460 453Q462 463 467.5 467.5Q473 472 481 472H539Q547 472 551.5 466.5Q556 461 554 453L470 -11Q453 -111 387.5 -170.5Q322 -230 206 -230ZM385 710Q401 710 409 692L474 553Q479 543 473.5 536.5Q468 530 460 530H413Q403 530 399 533Q395 536 391 543L342 632L261 543Q254 536 248.5 533Q243 530 234 530H177Q169 530 165.5 536.5Q162 543 170 553L284 692Q299 710 316 710Z" glyph-name="gcircumflex" horiz-adv-x="573" unicode="ĝ" /><glyph d="M263 83Q297 83 327 96.5Q357 110 378.5 133.5Q400 157 412.5 189.5Q425 222 425 260Q425 290 415.5 316Q406 342 388 361Q370 380 344.5 391Q319 402 288 402Q253 402 224 387.5Q195 373 174.5 349Q154 325 142.5 293Q131 261 131 225Q131 196 139.5 170.5Q148 145 165 125.5Q182 106 206.5 94.5Q231 83 263 83ZM206 -230Q162 -230 125.5 -219Q89 -208 60.5 -191.5Q32 -175 13 -155Q-6 -135 -16 -117Q-21 -105 -17 -98Q-13 -91 -5 -86L34 -65Q47 -57 53.5 -62Q60 -67 64 -72Q86 -101 121.5 -124Q157 -147 213 -147Q284 -147 324.5 -107.5Q365 -68 376 -10L392 72Q370 40 329.5 21Q289 2 238 2Q193 2 155.5 18.5Q118 35 91 64Q64 93 49 133Q34 173 34 220Q34 278 53 326.5Q72 375 105 410.5Q138 446 182 465.5Q226 485 276 485Q335 485 381 457.5Q427 430 447 383L460 453Q462 463 467.5 467.5Q473 472 481 472H539Q547 472 551.5 466.5Q556 461 554 453L470 -11Q453 -111 387.5 -170.5Q322 -230 206 -230ZM296 553Q285 553 281 561Q277 569 282 577L373 718Q382 733 395 733H436Q447 733 452.5 726.5Q458 720 453 711L383 570Q379 562 374 557.5Q369 553 359 553H296Z" glyph-name="gcommaaccent" horiz-adv-x="573" unicode="ģ" /><glyph d="M263 83Q297 83 327 96.5Q357 110 378.5 133.5Q400 157 412.5 189.5Q425 222 425 260Q425 290 415.5 316Q406 342 388 361Q370 380 344.5 391Q319 402 288 402Q253 402 224 387.5Q195 373 174.5 349Q154 325 142.5 293Q131 261 131 225Q131 196 139.5 170.5Q148 145 165 125.5Q182 106 206.5 94.5Q231 83 263 83ZM206 -230Q162 -230 125.5 -219Q89 -208 60.5 -191.5Q32 -175 13 -155Q-6 -135 -16 -117Q-21 -105 -17 -98Q-13 -91 -5 -86L34 -65Q47 -57 53.5 -62Q60 -67 64 -72Q86 -101 121.5 -124Q157 -147 213 -147Q284 -147 324.5 -107.5Q365 -68 376 -10L392 72Q370 40 329.5 21Q289 2 238 2Q193 2 155.5 18.5Q118 35 91 64Q64 93 49 133Q34 173 34 220Q34 278 53 326.5Q72 375 105 410.5Q138 446 182 465.5Q226 485 276 485Q335 485 381 457.5Q427 430 447 383L460 453Q462 463 467.5 467.5Q473 472 481 472H539Q547 472 551.5 466.5Q556 461 554 453L470 -11Q453 -111 387.5 -170.5Q322 -230 206 -230ZM332 557Q308 557 290 574.5Q272 592 272 617Q272 642 290 660Q308 678 332 678Q358 678 375.5 660Q393 642 393 617Q393 592 375.5 574.5Q358 557 332 557Z" glyph-name="gdotaccent" horiz-adv-x="573" unicode="ġ" /><glyph d="M115 17Q113 9 107 4.5Q101 0 94 0H35Q27 0 23 5Q19 10 21 18L114 544H61Q53 544 48.5 549.5Q44 555 46 563L51 590Q53 601 59 606Q65 611 73 611H126L138 682Q141 700 158 700H218Q226 700 230.5 695.5Q235 691 233 683L220 611H348Q366 611 363 591L358 562Q356 553 350 548.5Q344 544 336 544H208L183 404Q209 439 251 462Q293 485 346 485Q391 485 427 470Q463 455 486.5 427Q510 399 519.5 359Q529 319 520 268L476 17Q474 9 468 4.5Q462 0 454 0H396Q388 0 383.5 4.5Q379 9 381 17L423 255Q435 322 408 360Q381 398 318 398Q255 398 211 354Q167 310 154 239L115 17Z" glyph-name="hbar" horiz-adv-x="566" unicode="ħ" /><glyph d="M115 17Q113 9 107 4.5Q101 0 94 0H35Q27 0 23 5Q19 10 21 18L138 682Q141 700 158 700H218Q226 700 230.5 695.5Q235 691 233 683L183 404Q209 439 251 462Q293 485 346 485Q391 485 427 470Q463 455 486.5 427Q510 399 519.5 359Q529 319 520 268L476 17Q474 9 468 4.5Q462 0 454 0H396Q388 0 383.5 4.5Q379 9 381 17L423 255Q435 322 408 360Q381 398 318 398Q255 398 211 354Q167 310 154 239L115 17ZM436 938Q452 938 460 920L525 781Q530 771 524.5 764.5Q519 758 511 758H464Q454 758 450 761Q446 764 442 771L393 860L312 771Q305 764 299.5 761Q294 758 285 758H228Q220 758 216.5 764.5Q213 771 221 781L335 920Q350 938 367 938Z" glyph-name="hcircumflex" horiz-adv-x="566" unicode="ĥ" /><glyph d="M37 0Q29 0 24 5.5Q19 11 21 19L98 453Q100 462 106 467Q112 472 120 472H178Q186 472 190.5 466.5Q195 461 193 453L116 19Q114 11 108.5 5.5Q103 0 95 0ZM297 710Q308 710 311.5 701.5Q315 693 310 685L201 543Q192 530 178 530H133Q122 530 118.5 536.5Q115 543 120 553L196 693Q200 701 205 705.5Q210 710 220 710H297Z" glyph-name="iacute" horiz-adv-x="212" unicode="í" /><glyph d="M37 0Q29 0 24 5.5Q19 11 21 19L98 453Q100 462 106 467Q112 472 120 472H178Q186 472 190.5 466.5Q195 461 193 453L116 19Q114 11 108.5 5.5Q103 0 95 0ZM219 710Q235 710 243 692L308 553Q313 543 307.5 536.5Q302 530 294 530H247Q237 530 233 533Q229 536 225 543L176 632L95 543Q88 536 82.5 533Q77 530 68 530H11Q3 530 -0.5 536.5Q-4 543 4 553L118 692Q133 710 150 710Z" glyph-name="icircumflex" horiz-adv-x="212" unicode="î" /><glyph d="M37 0Q29 0 24 5.5Q19 11 21 19L98 453Q100 462 106 467Q112 472 120 472H178Q186 472 190.5 466.5Q195 461 193 453L116 19Q114 11 108.5 5.5Q103 0 95 0ZM77 555Q53 555 35 572.5Q17 590 17 615Q17 640 35 658Q53 676 77 676Q103 676 120.5 658Q138 640 138 615Q138 590 120.5 572.5Q103 555 77 555ZM245 555Q220 555 202 572.5Q184 590 184 615Q184 640 202 658Q220 676 245 676Q269 676 287 658Q305 640 305 615Q305 590 287 572.5Q269 555 245 555Z" glyph-name="idieresis" horiz-adv-x="212" unicode="ï" /><glyph d="M37 0Q29 0 24 5.5Q19 11 21 19L98 453Q100 462 106 467Q112 472 120 472H178Q186 472 190.5 466.5Q195 461 193 453L116 19Q114 11 108.5 5.5Q103 0 95 0ZM104 710Q114 710 119 705.5Q124 701 127 693L190 553Q195 542 191 536Q187 530 176 530H133Q120 530 111 543L13 685Q8 693 12 701.5Q16 710 28 710Z" glyph-name="igrave" horiz-adv-x="212" unicode="ì" /><glyph d="M37 0Q29 0 24 5.5Q19 11 21 19L98 453Q100 462 106 467Q112 472 120 472H178Q186 472 190.5 466.5Q195 461 193 453L116 19Q114 11 108.5 5.5Q103 0 95 0ZM110 659Q105 633 120 617.5Q135 602 167 602Q197 602 216.5 616Q236 630 241 658L243 669Q245 680 256 680H314Q327 680 325 668L323 649Q314 591 271 558Q228 525 162 525Q96 525 59 560Q22 595 31 652L33 668Q35 680 48 680H104Q108 680 111 677.5Q114 675 112 669L110 659Z" glyph-name="ibreve" horiz-adv-x="212" unicode="ĭ" /><glyph d="M37 0Q29 0 24 5.5Q19 11 21 19L98 453Q100 462 106 467Q112 472 120 472H178Q186 472 190.5 466.5Q195 461 193 453L116 19Q114 11 108.5 5.5Q103 0 95 0ZM31 550Q24 550 19 555.5Q14 561 16 569L23 612Q26 630 46 630H304Q312 630 317 625Q322 620 320 612L313 569Q310 550 290 550Z" glyph-name="imacron" horiz-adv-x="212" unicode="ī" /><glyph d="M36 0Q28 0 23.5 5.5Q19 11 21 19L98 453Q100 462 106 467Q112 472 120 472H178Q186 472 190.5 466.5Q195 461 193 453L116 19Q114 11 108.5 5.5Q103 0 95 0ZM171 555Q146 555 128.5 573Q111 591 111 615Q111 640 128.5 658Q146 676 171 676Q196 676 213.5 658Q231 640 231 615Q231 591 213.5 573Q196 555 171 555ZM-70 -136Q-70 -112 -57 -88.5Q-44 -65 -24 -44Q-4 -23 19.5 -5.5Q43 12 63 24L89 20L92 9Q59 -23 36 -56Q13 -89 13 -110Q13 -140 48 -140Q62 -140 71 -137.5Q80 -135 85 -135Q98 -135 95 -151L91 -176Q90 -183 81.5 -188Q73 -193 61 -196.5Q49 -200 35.5 -201.5Q22 -203 11 -203Q-26 -203 -48 -185.5Q-70 -168 -70 -136Z" glyph-name="iogonek" horiz-adv-x="212" unicode="į" /><glyph d="M37 0Q29 0 24 5.5Q19 11 21 19L98 453Q100 462 106 467Q112 472 120 472H178Q186 472 190.5 466.5Q195 461 193 453L116 19Q114 11 108.5 5.5Q103 0 95 0ZM91 666Q106 666 127 660.5Q148 655 168.5 648.5Q189 642 207 636.5Q225 631 234 631Q254 631 264.5 639Q275 647 287 659Q293 665 300.5 663.5Q308 662 313 654L328 633Q336 621 331 607Q322 582 296.5 563Q271 544 233 544Q217 544 196 549.5Q175 555 154.5 561Q134 567 116.5 572.5Q99 578 90 578Q70 578 60 570.5Q50 563 37 551Q31 546 23.5 546.5Q16 547 11 555L-4 578Q-11 589 -7 602Q2 628 27.5 647Q53 666 91 666Z" glyph-name="itilde" horiz-adv-x="212" unicode="ĩ" /><glyph d="M98 453Q100 461 106 466.5Q112 472 120 472H178Q185 472 190.5 466.5Q196 461 194 453L99 -75Q85 -158 40.5 -194Q-4 -230 -68 -230Q-97 -230 -128.5 -219.5Q-160 -209 -180 -192Q-192 -182 -180 -165L-153 -129Q-146 -120 -138 -120.5Q-130 -121 -122 -126Q-96 -143 -69 -143Q-40 -143 -20.5 -125Q-1 -107 6 -68ZM219 710Q235 710 243 692L308 553Q313 543 307.5 536.5Q302 530 294 530H247Q237 530 233 533Q229 536 225 543L176 632L95 543Q88 536 82.5 533Q77 530 68 530H11Q3 530 -0.5 536.5Q-4 543 4 553L118 692Q133 710 150 710Z" glyph-name="jcircumflex" horiz-adv-x="213" unicode="ĵ" /><glyph d="M36 0Q28 0 23.5 5.5Q19 11 21 19L98 453Q100 462 106 467Q112 472 120 472H178Q186 472 190.5 466.5Q195 461 193 453L116 19Q114 11 108.5 5.5Q103 0 95 0ZM171 555Q146 555 128.5 573Q111 591 111 615Q111 640 128.5 658Q146 676 171 676Q196 676 213.5 658Q231 640 231 615Q231 591 213.5 573Q196 555 171 555ZM309 453Q311 461 317 466.5Q323 472 331 472H389Q396 472 401.5 466.5Q407 461 405 453L310 -75Q296 -158 251.5 -194Q207 -230 143 -230Q114 -230 82.5 -219.5Q51 -209 31 -192Q19 -182 31 -165L58 -129Q65 -120 73 -120.5Q81 -121 89 -126Q115 -143 142 -143Q171 -143 190.5 -125Q210 -107 217 -68ZM382 555Q357 555 339.5 573Q322 591 322 615Q322 640 339.5 658Q357 676 382 676Q407 676 424.5 658Q442 640 442 615Q442 591 424.5 573Q407 555 382 555Z" glyph-name="ij" horiz-adv-x="424" unicode="ĳ" /><glyph d="M115 18Q112 0 94 0H36Q18 0 21 18L138 682Q140 690 145.5 695Q151 700 159 700H217Q226 700 230.5 695Q235 690 233 682L164 298H222L386 460Q398 472 411 472H486Q496 472 499 464.5Q502 457 494 449L294 258L454 24Q459 16 455 8Q451 0 440 0H378Q365 0 360 3.5Q355 7 350 15L214 220H151L115 18ZM169 -53Q172 -46 176 -40.5Q180 -35 188 -35H256Q266 -35 268.5 -43Q271 -51 267 -57L190 -178Q180 -194 166 -194H122Q114 -194 111 -188.5Q108 -183 112 -175L169 -53Z" glyph-name="kcommaaccent" horiz-adv-x="489" unicode="ķ" /><glyph d="M116 18Q114 10 108.5 5Q103 0 95 0H37Q29 0 24 5Q19 10 21 18L98 453Q100 461 106 466.5Q112 472 120 472H179Q186 472 191 466.5Q196 461 194 453L164 286H219L385 460Q396 472 409 472H487Q497 472 500 464.5Q503 457 495 449L295 248L455 24Q461 16 456.5 8Q452 0 441 0H375Q363 0 357.5 3.5Q352 7 347 15L215 209H150L116 18Z" glyph-name="kgreenlandic" horiz-adv-x="490" unicode="ĸ" /><glyph d="M133 0Q82 0 54.5 29Q27 58 37 116L137 681Q139 690 144.5 695Q150 700 158 700H217Q225 700 229.5 694.5Q234 689 232 681L133 125Q129 102 139 91.5Q149 81 168 81H200Q207 81 211.5 76.5Q216 72 214 63L207 20Q205 9 197.5 4.5Q190 0 181 0H133ZM336 938Q347 938 350.5 929.5Q354 921 349 913L240 771Q231 758 217 758H172Q161 758 157.5 764.5Q154 771 159 781L235 921Q239 929 244 933.5Q249 938 259 938H336Z" glyph-name="lacute" horiz-adv-x="248" unicode="ĺ" /><glyph d="M133 0Q82 0 54.5 29Q27 58 37 116L137 681Q139 690 144.5 695Q150 700 158 700H217Q225 700 229.5 694.5Q234 689 232 681L133 125Q129 102 139 91.5Q149 81 168 81H200Q207 81 211.5 76.5Q216 72 214 63L207 20Q205 9 197.5 4.5Q190 0 181 0H133ZM320 682Q323 690 327 695Q331 700 339 700H402Q412 700 417 692.5Q422 685 418 678L321 507Q311 491 298 491H258Q250 491 244.5 496.5Q239 502 243 510L320 682Z" glyph-name="lcaron" horiz-adv-x="285" unicode="ľ" /><glyph d="M132 0Q81 0 53.5 29Q26 58 36 116L136 681Q138 690 143.5 695Q149 700 157 700H216Q224 700 228.5 694.5Q233 689 231 681L132 125Q128 102 138 91.5Q148 81 167 81H199Q206 81 210.5 76.5Q215 72 213 63L206 20Q204 9 196.5 4.5Q189 0 180 0H132ZM48 -53Q51 -46 55 -40.5Q59 -35 67 -35H135Q145 -35 147.5 -43Q150 -51 146 -57L69 -178Q59 -194 45 -194H1Q-7 -194 -10 -188.5Q-13 -183 -9 -175L48 -53Z" glyph-name="lcommaaccent" horiz-adv-x="248" unicode="ļ" /><glyph d="M133 0Q82 0 54.5 29Q27 58 37 116L137 681Q139 690 144.5 695Q150 700 158 700H217Q225 700 229.5 694.5Q234 689 232 681L133 125Q129 102 139 91.5Q149 81 168 81H200Q207 81 211.5 76.5Q216 72 214 63L207 20Q205 9 197.5 4.5Q190 0 181 0ZM291 203Q262 203 242 222.5Q222 242 222 270Q222 298 242 317.5Q262 337 291 337Q320 337 340 317.5Q360 298 360 270Q360 242 340 222.5Q320 203 291 203Z" glyph-name="ldot" horiz-adv-x="355" unicode="ŀ" /><glyph d="M423 255Q436 322 409 360Q382 398 318 398Q254 398 211 354.5Q168 311 155 239L116 17Q114 9 107.5 4.5Q101 0 94 0H36Q28 0 23.5 5Q19 10 21 18L98 453Q101 472 119 472H176Q183 472 188 467Q193 462 191 454L181 402Q204 436 247 460.5Q290 485 347 485Q392 485 428 470Q464 455 487.5 427Q511 399 520 359Q529 319 520 268L476 17Q474 9 468 4.5Q462 0 454 0H396Q388 0 383.5 4.5Q379 9 381 17ZM270 666Q285 666 306 660.5Q327 655 347.5 648.5Q368 642 386 636.5Q404 631 413 631Q433 631 443.5 639Q454 647 466 659Q472 665 479.5 663.5Q487 662 492 654L507 633Q515 621 510 607Q501 582 475.5 563Q450 544 412 544Q396 544 375 549.5Q354 555 333.5 561Q313 567 295.5 572.5Q278 578 269 578Q249 578 239 570.5Q229 563 216 551Q210 546 202.5 546.5Q195 547 190 555L175 578Q168 589 172 602Q181 628 206.5 647Q232 666 270 666Z" glyph-name="ntilde" horiz-adv-x="566" unicode="ñ" /><glyph d="M423 255Q436 322 409 360Q382 398 318 398Q254 398 211 354.5Q168 311 155 239L116 17Q114 9 107.5 4.5Q101 0 94 0H36Q28 0 23.5 5Q19 10 21 18L98 453Q101 472 119 472H176Q183 472 188 467Q193 462 191 454L181 402Q204 436 247 460.5Q290 485 347 485Q392 485 428 470Q464 455 487.5 427Q511 399 520 359Q529 319 520 268L476 17Q474 9 468 4.5Q462 0 454 0H396Q388 0 383.5 4.5Q379 9 381 17ZM476 710Q487 710 490.5 701.5Q494 693 489 685L380 543Q371 530 357 530H312Q301 530 297.5 536.5Q294 543 299 553L375 693Q379 701 384 705.5Q389 710 399 710H476Z" glyph-name="nacute" horiz-adv-x="566" unicode="ń" /><glyph d="M423 255Q436 322 409 360Q382 398 318 398Q254 398 211 354.5Q168 311 155 239L116 17Q114 9 107.5 4.5Q101 0 94 0H36Q28 0 23.5 5Q19 10 21 18L98 453Q101 472 119 472H176Q183 472 188 467Q193 462 191 454L181 402Q204 436 247 460.5Q290 485 347 485Q392 485 428 470Q464 455 487.5 427Q511 399 520 359Q529 319 520 268L476 17Q474 9 468 4.5Q462 0 454 0H396Q388 0 383.5 4.5Q379 9 381 17ZM296 530Q280 530 273 547L208 687Q203 697 208.5 703.5Q214 710 221 710H269Q278 710 282.5 707Q287 704 291 696L340 607L421 696Q428 704 433.5 707Q439 710 447 710H505Q513 710 516.5 703.5Q520 697 512 687L397 547Q383 530 367 530H296Z" glyph-name="ncaron" horiz-adv-x="566" unicode="ň" /><glyph d="M423 255Q436 322 409 360Q382 398 318 398Q254 398 211 354.5Q168 311 155 239L116 17Q114 9 107.5 4.5Q101 0 94 0H36Q28 0 23.5 5Q19 10 21 18L98 453Q101 472 119 472H176Q183 472 188 467Q193 462 191 454L181 402Q204 436 247 460.5Q290 485 347 485Q392 485 428 470Q464 455 487.5 427Q511 399 520 359Q529 319 520 268L476 17Q474 9 468 4.5Q462 0 454 0H396Q388 0 383.5 4.5Q379 9 381 17ZM198 -53Q201 -46 205 -40.5Q209 -35 217 -35H285Q295 -35 297.5 -43Q300 -51 296 -57L219 -178Q209 -194 195 -194H151Q143 -194 140 -188.5Q137 -183 141 -175L198 -53Z" glyph-name="ncommaaccent" horiz-adv-x="566" unicode="ņ" /><glyph d="M423 255Q436 322 408.5 360Q381 398 318 398Q254 398 211 354.5Q168 311 155 239L116 17Q114 9 107.5 4.5Q101 0 94 0H36Q28 0 23.5 5Q19 10 21 18L98 453Q101 472 119 472H176Q183 472 188 467Q193 462 191 454L181 402Q204 436 247 460.5Q290 485 347 485Q392 485 428 470Q464 455 487.5 427Q511 399 520 359Q529 319 520 268L460 -74Q452 -115 436.5 -144.5Q421 -174 399 -193Q377 -212 349.5 -221Q322 -230 291 -230Q256 -230 226 -219Q196 -208 179 -192Q167 -180 179 -165L205 -129Q213 -118 221.5 -120Q230 -122 237 -126Q250 -135 263 -139.5Q276 -144 287 -144Q315 -144 336.5 -126.5Q358 -109 366 -69Z" glyph-name="eng" horiz-adv-x="566" unicode="ŋ" /><glyph d="M423 255Q436 322 409 360Q382 398 318 398Q254 398 211 354.5Q168 311 155 239L116 17Q114 9 107.5 4.5Q101 0 94 0H36Q28 0 23.5 5Q19 10 21 18L98 453Q101 472 119 472H176Q183 472 188 467Q193 462 191 454L181 402Q204 436 247 460.5Q290 485 347 485Q392 485 428 470Q464 455 487.5 427Q511 399 520 359Q529 319 520 268L476 17Q474 9 468 4.5Q462 0 454 0H396Q388 0 383.5 4.5Q379 9 381 17ZM191 748Q194 756 198 761Q202 766 210 766H273Q283 766 288 758.5Q293 751 289 744L192 573Q182 557 169 557H129Q121 557 115.5 562.5Q110 568 114 576L191 748Z" glyph-name="napostrophe" horiz-adv-x="566" unicode="ŉ" /><glyph d="M293 485Q339 485 380.5 469Q422 453 452.5 423Q483 393 501 351Q519 309 519 258Q519 201 499 152Q479 103 444 66Q409 29 361 8Q313 -13 258 -13Q211 -13 169.5 3Q128 19 97.5 49Q67 79 49 120.5Q31 162 31 213Q31 270 51 319.5Q71 369 106 406Q141 443 189 464Q237 485 293 485ZM288 401Q253 401 223.5 386.5Q194 372 172.5 347Q151 322 138.5 289Q126 256 126 219Q126 184 136.5 157Q147 130 165.5 110.5Q184 91 208.5 81Q233 71 262 71Q297 71 327 85.5Q357 100 378.5 125Q400 150 412.5 183Q425 216 425 253Q425 287 414.5 314.5Q404 342 385.5 361.5Q367 381 342 391Q317 401 288 401ZM447 710Q458 710 461.5 701.5Q465 693 460 685L351 543Q342 530 328 530H283Q272 530 268.5 536.5Q265 543 270 553L346 693Q350 701 355 705.5Q360 710 370 710H447Z" glyph-name="oacute" horiz-adv-x="549" unicode="ó" /><glyph d="M293 485Q339 485 380.5 469Q422 453 452.5 423Q483 393 501 351Q519 309 519 258Q519 201 499 152Q479 103 444 66Q409 29 361 8Q313 -13 258 -13Q211 -13 169.5 3Q128 19 97.5 49Q67 79 49 120.5Q31 162 31 213Q31 270 51 319.5Q71 369 106 406Q141 443 189 464Q237 485 293 485ZM288 401Q253 401 223.5 386.5Q194 372 172.5 347Q151 322 138.5 289Q126 256 126 219Q126 184 136.5 157Q147 130 165.5 110.5Q184 91 208.5 81Q233 71 262 71Q297 71 327 85.5Q357 100 378.5 125Q400 150 412.5 183Q425 216 425 253Q425 287 414.5 314.5Q404 342 385.5 361.5Q367 381 342 391Q317 401 288 401ZM369 710Q385 710 393 692L458 553Q463 543 457.5 536.5Q452 530 444 530H397Q387 530 383 533Q379 536 375 543L326 632L245 543Q238 536 232.5 533Q227 530 218 530H161Q153 530 149.5 536.5Q146 543 154 553L268 692Q283 710 300 710Z" glyph-name="ocircumflex" horiz-adv-x="549" unicode="ô" /><glyph d="M293 485Q339 485 380.5 469Q422 453 452.5 423Q483 393 501 351Q519 309 519 258Q519 201 499 152Q479 103 444 66Q409 29 361 8Q313 -13 258 -13Q211 -13 169.5 3Q128 19 97.5 49Q67 79 49 120.5Q31 162 31 213Q31 270 51 319.5Q71 369 106 406Q141 443 189 464Q237 485 293 485ZM288 401Q253 401 223.5 386.5Q194 372 172.5 347Q151 322 138.5 289Q126 256 126 219Q126 184 136.5 157Q147 130 165.5 110.5Q184 91 208.5 81Q233 71 262 71Q297 71 327 85.5Q357 100 378.5 125Q400 150 412.5 183Q425 216 425 253Q425 287 414.5 314.5Q404 342 385.5 361.5Q367 381 342 391Q317 401 288 401ZM227 555Q203 555 185 572.5Q167 590 167 615Q167 640 185 658Q203 676 227 676Q253 676 270.5 658Q288 640 288 615Q288 590 270.5 572.5Q253 555 227 555ZM395 555Q370 555 352 572.5Q334 590 334 615Q334 640 352 658Q370 676 395 676Q419 676 437 658Q455 640 455 615Q455 590 437 572.5Q419 555 395 555Z" glyph-name="odieresis" horiz-adv-x="549" unicode="ö" /><glyph d="M293 485Q339 485 380.5 469Q422 453 452.5 423Q483 393 501 351Q519 309 519 258Q519 201 499 152Q479 103 444 66Q409 29 361 8Q313 -13 258 -13Q211 -13 169.5 3Q128 19 97.5 49Q67 79 49 120.5Q31 162 31 213Q31 270 51 319.5Q71 369 106 406Q141 443 189 464Q237 485 293 485ZM288 401Q253 401 223.5 386.5Q194 372 172.5 347Q151 322 138.5 289Q126 256 126 219Q126 184 136.5 157Q147 130 165.5 110.5Q184 91 208.5 81Q233 71 262 71Q297 71 327 85.5Q357 100 378.5 125Q400 150 412.5 183Q425 216 425 253Q425 287 414.5 314.5Q404 342 385.5 361.5Q367 381 342 391Q317 401 288 401ZM255 710Q265 710 270 705.5Q275 701 278 693L341 553Q346 542 342 536Q338 530 327 530H284Q271 530 262 543L164 685Q159 693 163 701.5Q167 710 179 710Z" glyph-name="ograve" horiz-adv-x="549" unicode="ò" /><glyph d="M293 485Q339 485 380.5 469Q422 453 452.5 423Q483 393 501 351Q519 309 519 258Q519 201 499 152Q479 103 444 66Q409 29 361 8Q313 -13 258 -13Q211 -13 169.5 3Q128 19 97.5 49Q67 79 49 120.5Q31 162 31 213Q31 270 51 319.5Q71 369 106 406Q141 443 189 464Q237 485 293 485ZM288 401Q253 401 223.5 386.5Q194 372 172.5 347Q151 322 138.5 289Q126 256 126 219Q126 184 136.5 157Q147 130 165.5 110.5Q184 91 208.5 81Q233 71 262 71Q297 71 327 85.5Q357 100 378.5 125Q400 150 412.5 183Q425 216 425 253Q425 287 414.5 314.5Q404 342 385.5 361.5Q367 381 342 391Q317 401 288 401ZM240 666Q255 666 276 660.5Q297 655 317.5 648.5Q338 642 356 636.5Q374 631 383 631Q403 631 413.5 639Q424 647 436 659Q442 665 449.5 663.5Q457 662 462 654L477 633Q485 621 480 607Q471 582 445.5 563Q420 544 382 544Q366 544 345 549.5Q324 555 303.5 561Q283 567 265.5 572.5Q248 578 239 578Q219 578 209 570.5Q199 563 186 551Q180 546 172.5 546.5Q165 547 160 555L145 578Q138 589 142 602Q151 628 176.5 647Q202 666 240 666Z" glyph-name="otilde" horiz-adv-x="549" unicode="õ" /><glyph d="M293 485Q339 485 380.5 469Q422 453 452.5 423Q483 393 501 351Q519 309 519 258Q519 201 499 152Q479 103 444 66Q409 29 361 8Q313 -13 258 -13Q211 -13 169.5 3Q128 19 97.5 49Q67 79 49 120.5Q31 162 31 213Q31 270 51 319.5Q71 369 106 406Q141 443 189 464Q237 485 293 485ZM288 401Q253 401 223.5 386.5Q194 372 172.5 347Q151 322 138.5 289Q126 256 126 219Q126 184 136.5 157Q147 130 165.5 110.5Q184 91 208.5 81Q233 71 262 71Q297 71 327 85.5Q357 100 378.5 125Q400 150 412.5 183Q425 216 425 253Q425 287 414.5 314.5Q404 342 385.5 361.5Q367 381 342 391Q317 401 288 401ZM260 659Q255 633 270 617.5Q285 602 317 602Q347 602 366.5 616Q386 630 391 658L393 669Q395 680 406 680H464Q477 680 475 668L473 649Q464 591 421 558Q378 525 312 525Q246 525 209 560Q172 595 181 652L183 668Q185 680 198 680H254Q258 680 261 677.5Q264 675 262 669L260 659Z" glyph-name="obreve" horiz-adv-x="549" unicode="ŏ" /><glyph d="M293 485Q339 485 380.5 469Q422 453 452.5 423Q483 393 501 351Q519 309 519 258Q519 201 499 152Q479 103 444 66Q409 29 361 8Q313 -13 258 -13Q211 -13 169.5 3Q128 19 97.5 49Q67 79 49 120.5Q31 162 31 213Q31 270 51 319.5Q71 369 106 406Q141 443 189 464Q237 485 293 485ZM288 401Q253 401 223.5 386.5Q194 372 172.5 347Q151 322 138.5 289Q126 256 126 219Q126 184 136.5 157Q147 130 165.5 110.5Q184 91 208.5 81Q233 71 262 71Q297 71 327 85.5Q357 100 378.5 125Q400 150 412.5 183Q425 216 425 253Q425 287 414.5 314.5Q404 342 385.5 361.5Q367 381 342 391Q317 401 288 401ZM544 710Q555 710 558.5 701.5Q562 693 557 685L451 543Q441 530 426 530H386Q375 530 370.5 537Q366 544 371 553L443 693Q447 701 451.5 705.5Q456 710 466 710ZM361 710Q372 710 375.5 701.5Q379 693 374 685L268 543Q258 530 243 530H203Q192 530 187.5 537Q183 544 188 553L260 693Q264 701 268.5 705.5Q273 710 283 710Z" glyph-name="ohungarumlaut" horiz-adv-x="549" unicode="ő" /><glyph d="M293 485Q339 485 380.5 469Q422 453 452.5 423Q483 393 501 351Q519 309 519 258Q519 201 499 152Q479 103 444 66Q409 29 361 8Q313 -13 258 -13Q211 -13 169.5 3Q128 19 97.5 49Q67 79 49 120.5Q31 162 31 213Q31 270 51 319.5Q71 369 106 406Q141 443 189 464Q237 485 293 485ZM288 401Q253 401 223.5 386.5Q194 372 172.5 347Q151 322 138.5 289Q126 256 126 219Q126 184 136.5 157Q147 130 165.5 110.5Q184 91 208.5 81Q233 71 262 71Q297 71 327 85.5Q357 100 378.5 125Q400 150 412.5 183Q425 216 425 253Q425 287 414.5 314.5Q404 342 385.5 361.5Q367 381 342 391Q317 401 288 401ZM181 550Q174 550 169 555.5Q164 561 166 569L173 612Q176 630 196 630H454Q462 630 467 625Q472 620 470 612L463 569Q460 550 440 550Z" glyph-name="omacron" horiz-adv-x="549" unicode="ō" /><glyph d="M340 475Q347 475 352.5 471Q358 467 356 456L344 393Q342 381 334.5 377Q327 373 321 373H301Q275 373 251.5 365.5Q228 358 208.5 341Q189 324 174.5 297Q160 270 153 231L116 17Q113 0 94 0H36Q28 0 23.5 5Q19 10 21 18L98 453Q101 472 120 472H171Q179 472 184 467Q189 462 187 454L173 382Q193 419 232.5 447Q272 475 323 475ZM366 710Q377 710 380.5 701.5Q384 693 379 685L270 543Q261 530 247 530H202Q191 530 187.5 536.5Q184 543 189 553L265 693Q269 701 274 705.5Q279 710 289 710H366Z" glyph-name="racute" horiz-adv-x="328" unicode="ŕ" /><glyph d="M340 475Q347 475 352.5 471Q358 467 356 456L344 393Q342 381 334.5 377Q327 373 321 373H301Q275 373 251.5 365.5Q228 358 208.5 341Q189 324 174.5 297Q160 270 153 231L116 17Q113 0 94 0H36Q28 0 23.5 5Q19 10 21 18L98 453Q101 472 120 472H171Q179 472 184 467Q189 462 187 454L173 382Q193 419 232.5 447Q272 475 323 475ZM186 530Q170 530 163 547L98 687Q93 697 98.5 703.5Q104 710 111 710H159Q168 710 172.5 707Q177 704 181 696L230 607L311 696Q318 704 323.5 707Q329 710 337 710H395Q403 710 406.5 703.5Q410 697 402 687L287 547Q273 530 257 530H186Z" glyph-name="rcaron" horiz-adv-x="328" unicode="ř" /><glyph d="M339 475Q346 475 351.5 471Q357 467 355 456L343 393Q341 381 333.5 377Q326 373 320 373H300Q274 373 250.5 365.5Q227 358 207.5 341Q188 324 173.5 297Q159 270 152 231L115 17Q112 0 93 0H35Q27 0 22.5 5Q18 10 20 18L97 453Q100 472 119 472H170Q178 472 183 467Q188 462 186 454L172 382Q192 419 231.5 447Q271 475 322 475ZM-1 -53Q2 -46 6 -40.5Q10 -35 18 -35H86Q96 -35 98.5 -43Q101 -51 97 -57L20 -178Q10 -194 -4 -194H-48Q-56 -194 -59 -188.5Q-62 -183 -58 -175L-1 -53Z" glyph-name="rcommaaccent" horiz-adv-x="328" unicode="ŗ" /><glyph d="M58 340Q58 372 70.5 399Q83 426 106.5 445Q130 464 163 474.5Q196 485 237 485Q299 485 348 464.5Q397 444 426 416Q434 409 435.5 400.5Q437 392 426 381L403 358Q394 349 385.5 349.5Q377 350 366 358Q339 378 307 393Q275 408 239 408Q197 408 172.5 392Q148 376 148 353Q148 330 165.5 317Q183 304 216 293L283 270Q346 248 377.5 218.5Q409 189 409 139Q409 111 397.5 83.5Q386 56 362 34.5Q338 13 301 0Q264 -13 214 -13Q148 -13 98 9Q48 31 20 60Q6 74 6 85Q6 96 17 107L37 126Q48 137 58.5 135.5Q69 134 77 126Q105 100 140 81.5Q175 63 218 63Q266 63 289.5 82Q313 101 313 128Q313 153 293.5 166Q274 179 236 193L179 213Q125 232 91.5 260.5Q58 289 58 340ZM236 530Q220 530 213 547L148 687Q143 697 148.5 703.5Q154 710 161 710H209Q218 710 222.5 707Q227 704 231 696L280 607L361 696Q368 704 373.5 707Q379 710 387 710H445Q453 710 456.5 703.5Q460 697 452 687L337 547Q323 530 307 530H236Z" glyph-name="scaron" horiz-adv-x="452" unicode="š" /><glyph d="M57 340Q57 372 69.5 399Q82 426 105.5 445Q129 464 162 474.5Q195 485 236 485Q298 485 347 464.5Q396 444 425 416Q433 409 434.5 400.5Q436 392 425 381L402 358Q393 349 384.5 349.5Q376 350 365 358Q338 378 306 393Q274 408 238 408Q196 408 171.5 392Q147 376 147 353Q147 330 164.5 317Q182 304 215 293L282 270Q345 248 376.5 218.5Q408 189 408 139Q408 111 396.5 83.5Q385 56 361 34.5Q337 13 300 0Q263 -13 213 -13Q147 -13 97 9Q47 31 19 60Q5 74 5 85Q5 96 16 107L36 126Q47 137 57.5 135.5Q68 134 76 126Q104 100 139 81.5Q174 63 217 63Q265 63 288.5 82Q312 101 312 128Q312 153 292.5 166Q273 179 235 193L178 213Q124 232 90.5 260.5Q57 289 57 340ZM416 710Q427 710 430.5 701.5Q434 693 429 685L320 543Q311 530 297 530H252Q241 530 237.5 536.5Q234 543 239 553L315 693Q319 701 324 705.5Q329 710 339 710H416Z" glyph-name="sacute" horiz-adv-x="452" unicode="ś" /><glyph d="M57 340Q57 372 69.5 399Q82 426 105.5 445Q129 464 162 474.5Q195 485 236 485Q298 485 347 464.5Q396 444 425 416Q433 409 434.5 400.5Q436 392 425 381L402 358Q393 349 384.5 349.5Q376 350 365 358Q338 378 306 393Q274 408 238 408Q196 408 171.5 392Q147 376 147 353Q147 330 164.5 317Q182 304 215 293L282 270Q345 248 376.5 218.5Q408 189 408 139Q408 111 396.5 83.5Q385 56 361 34.5Q337 13 300 0Q263 -13 213 -13Q147 -13 97 9Q47 31 19 60Q5 74 5 85Q5 96 16 107L36 126Q47 137 57.5 135.5Q68 134 76 126Q104 100 139 81.5Q174 63 217 63Q265 63 288.5 82Q312 101 312 128Q312 153 292.5 166Q273 179 235 193L178 213Q124 232 90.5 260.5Q57 289 57 340ZM251 2 158 -141Q153 -149 147.5 -151Q142 -153 134 -153H88Q79 -153 74.5 -147.5Q70 -142 75 -132L153 12Z" glyph-name="scedilla" horiz-adv-x="452" unicode="ş" /><glyph d="M57 340Q57 372 69.5 399Q82 426 105.5 445Q129 464 162 474.5Q195 485 236 485Q298 485 347 464.5Q396 444 425 416Q433 409 434.5 400.5Q436 392 425 381L402 358Q393 349 384.5 349.5Q376 350 365 358Q338 378 306 393Q274 408 238 408Q196 408 171.5 392Q147 376 147 353Q147 330 164.5 317Q182 304 215 293L282 270Q345 248 376.5 218.5Q408 189 408 139Q408 111 396.5 83.5Q385 56 361 34.5Q337 13 300 0Q263 -13 213 -13Q147 -13 97 9Q47 31 19 60Q5 74 5 85Q5 96 16 107L36 126Q47 137 57.5 135.5Q68 134 76 126Q104 100 139 81.5Q174 63 217 63Q265 63 288.5 82Q312 101 312 128Q312 153 292.5 166Q273 179 235 193L178 213Q124 232 90.5 260.5Q57 289 57 340ZM337 710Q353 710 361 692L426 553Q431 543 425.5 536.5Q420 530 412 530H365Q355 530 351 533Q347 536 343 543L294 632L213 543Q206 536 200.5 533Q195 530 186 530H129Q121 530 117.5 536.5Q114 543 122 553L236 692Q251 710 268 710Z" glyph-name="scircumflex" horiz-adv-x="452" unicode="ŝ" /><glyph d="M57 340Q57 372 69.5 399Q82 426 105.5 445Q129 464 162 474.5Q195 485 236 485Q298 485 347 464.5Q396 444 425 416Q433 409 434.5 400.5Q436 392 425 381L402 358Q393 349 384.5 349.5Q376 350 365 358Q338 378 306 393Q274 408 238 408Q196 408 171.5 392Q147 376 147 353Q147 330 164.5 317Q182 304 215 293L282 270Q345 248 376.5 218.5Q408 189 408 139Q408 111 396.5 83.5Q385 56 361 34.5Q337 13 300 0Q263 -13 213 -13Q147 -13 97 9Q47 31 19 60Q5 74 5 85Q5 96 16 107L36 126Q47 137 57.5 135.5Q68 134 76 126Q104 100 139 81.5Q174 63 217 63Q265 63 288.5 82Q312 101 312 128Q312 153 292.5 166Q273 179 235 193L178 213Q124 232 90.5 260.5Q57 289 57 340ZM149 -53Q152 -46 156 -40.5Q160 -35 168 -35H236Q246 -35 248.5 -43Q251 -51 247 -57L170 -178Q160 -194 146 -194H102Q94 -194 91 -188.5Q88 -183 92 -175L149 -53Z" glyph-name="scommaaccent" horiz-adv-x="452" unicode="ș" /><glyph d="M316 24Q294 10 265.5 0.5Q237 -9 198 -9Q171 -9 146.5 0.5Q122 10 104.5 28.5Q87 47 80 74.5Q73 102 80 139L99 246H30Q22 246 18 251.5Q14 257 16 265L21 289Q24 308 43 308H110L124 391H56Q38 391 41 410L50 453Q55 472 71 472H138L164 615Q167 634 187 634H243Q262 634 259 615L233 472H370Q378 472 383 467Q388 462 386 453L378 408Q376 400 370.5 395.5Q365 391 357 391H219L204 308H342Q358 308 355 290L351 265Q349 255 343.5 250.5Q338 246 330 246H193L176 147Q169 109 182.5 93Q196 77 218 77Q237 77 250.5 82.5Q264 88 280 96Q299 106 309 86L326 52Q333 36 316 24Z" glyph-name="tbar" horiz-adv-x="367" unicode="ŧ" /><glyph d="M323 52Q330 36 312 24Q290 10 263.5 0.5Q237 -9 194 -9Q167 -9 143 0.5Q119 10 102.5 28.5Q86 47 78.5 74.5Q71 102 77 139L121 391H53Q35 391 38 410L47 453Q52 472 67 472H135L161 615Q164 634 184 634H241Q259 634 256 615L230 472H368Q375 472 380 467Q385 462 383 453L375 408Q372 391 353 391H216L173 147Q166 109 178.5 93Q191 77 213 77Q232 77 246.5 83Q261 89 277 97Q297 107 306 88ZM380 735Q383 743 387 748Q391 753 399 753H462Q472 753 477 745.5Q482 738 478 731L381 560Q371 544 358 544H318Q310 544 304.5 549.5Q299 555 303 563L380 735Z" glyph-name="tcaron" horiz-adv-x="363" unicode="ť" /><glyph d="M323 52Q330 36 312 24Q290 10 263.5 0.5Q237 -9 194 -9Q167 -9 143 0.5Q119 10 102.5 28.5Q86 47 78.5 74.5Q71 102 77 139L121 391H53Q35 391 38 410L47 453Q52 472 67 472H135L161 615Q164 634 184 634H241Q259 634 256 615L230 472H368Q375 472 380 467Q385 462 383 453L375 408Q372 391 353 391H216L173 147Q166 109 178.5 93Q191 77 213 77Q232 77 246.5 83Q261 89 277 97Q297 107 306 88ZM116 -53Q119 -46 123 -40.5Q127 -35 135 -35H203Q213 -35 215.5 -43Q218 -51 214 -57L137 -178Q127 -194 113 -194H69Q61 -194 58 -188.5Q55 -183 59 -175L116 -53Z" glyph-name="tcommaaccent" horiz-adv-x="363" unicode="ţ" /><glyph d="M323 52Q330 36 312 24Q290 10 263.5 0.5Q237 -9 194 -9Q167 -9 143 0.5Q119 10 102.5 28.5Q86 47 78.5 74.5Q71 102 77 139L121 391H53Q35 391 38 410L47 453Q52 472 67 472H135L161 615Q164 634 184 634H241Q259 634 256 615L230 472H368Q375 472 380 467Q385 462 383 453L375 408Q372 391 353 391H216L173 147Q166 109 178.5 93Q191 77 213 77Q232 77 246.5 83Q261 89 277 97Q297 107 306 88ZM116 -53Q119 -46 123 -40.5Q127 -35 135 -35H203Q213 -35 215.5 -43Q218 -51 214 -57L137 -178Q127 -194 113 -194H69Q61 -194 58 -188.5Q55 -183 59 -175L116 -53Z" glyph-name="uni021B" horiz-adv-x="363" unicode="ț" /><glyph d="M143 206Q131 140 159 104.5Q187 69 244 69Q307 69 346.5 108.5Q386 148 398 213L441 454Q443 463 448.5 467.5Q454 472 462 472H520Q537 472 534 453L458 18Q456 9 450.5 4.5Q445 0 437 0H379Q371 0 366 4.5Q361 9 363 17L374 70Q348 33 308 10Q268 -13 209 -13Q166 -13 132 2Q98 17 76.5 44.5Q55 72 46.5 110Q38 148 46 194L92 454Q94 463 100 467.5Q106 472 113 472H171Q190 472 187 454ZM464 710Q475 710 478.5 701.5Q482 693 477 685L368 543Q359 530 345 530H300Q289 530 285.5 536.5Q282 543 287 553L363 693Q367 701 372 705.5Q377 710 387 710H464Z" glyph-name="uacute" horiz-adv-x="554" unicode="ú" /><glyph d="M143 206Q131 140 159 104.5Q187 69 244 69Q307 69 346.5 108.5Q386 148 398 213L441 454Q443 463 448.5 467.5Q454 472 462 472H520Q537 472 534 453L458 18Q456 9 450.5 4.5Q445 0 437 0H379Q371 0 366 4.5Q361 9 363 17L374 70Q348 33 308 10Q268 -13 209 -13Q166 -13 132 2Q98 17 76.5 44.5Q55 72 46.5 110Q38 148 46 194L92 454Q94 463 100 467.5Q106 472 113 472H171Q190 472 187 454ZM385 710Q401 710 409 692L474 553Q479 543 473.5 536.5Q468 530 460 530H413Q403 530 399 533Q395 536 391 543L342 632L261 543Q254 536 248.5 533Q243 530 234 530H177Q169 530 165.5 536.5Q162 543 170 553L284 692Q299 710 316 710Z" glyph-name="ucircumflex" horiz-adv-x="554" unicode="û" /><glyph d="M143 206Q131 140 159 104.5Q187 69 244 69Q307 69 346.5 108.5Q386 148 398 213L441 454Q443 463 448.5 467.5Q454 472 462 472H520Q537 472 534 453L458 18Q456 9 450.5 4.5Q445 0 437 0H379Q371 0 366 4.5Q361 9 363 17L374 70Q348 33 308 10Q268 -13 209 -13Q166 -13 132 2Q98 17 76.5 44.5Q55 72 46.5 110Q38 148 46 194L92 454Q94 463 100 467.5Q106 472 113 472H171Q190 472 187 454ZM244 555Q220 555 202 572.5Q184 590 184 615Q184 640 202 658Q220 676 244 676Q270 676 287.5 658Q305 640 305 615Q305 590 287.5 572.5Q270 555 244 555ZM412 555Q387 555 369 572.5Q351 590 351 615Q351 640 369 658Q387 676 412 676Q436 676 454 658Q472 640 472 615Q472 590 454 572.5Q436 555 412 555Z" glyph-name="udieresis" horiz-adv-x="554" unicode="ü" /><glyph d="M143 206Q131 140 159 104.5Q187 69 244 69Q307 69 346.5 108.5Q386 148 398 213L441 454Q443 463 448.5 467.5Q454 472 462 472H520Q537 472 534 453L458 18Q456 9 450.5 4.5Q445 0 437 0H379Q371 0 366 4.5Q361 9 363 17L374 70Q348 33 308 10Q268 -13 209 -13Q166 -13 132 2Q98 17 76.5 44.5Q55 72 46.5 110Q38 148 46 194L92 454Q94 463 100 467.5Q106 472 113 472H171Q190 472 187 454ZM271 710Q281 710 286 705.5Q291 701 294 693L357 553Q362 542 358 536Q354 530 343 530H300Q287 530 278 543L180 685Q175 693 179 701.5Q183 710 195 710Z" glyph-name="ugrave" horiz-adv-x="554" unicode="ù" /><glyph d="M143 206Q131 140 159 104.5Q187 69 244 69Q307 69 346.5 108.5Q386 148 398 213L441 454Q443 463 448.5 467.5Q454 472 462 472H520Q537 472 534 453L458 18Q456 9 450.5 4.5Q445 0 437 0H379Q371 0 366 4.5Q361 9 363 17L374 70Q348 33 308 10Q268 -13 209 -13Q166 -13 132 2Q98 17 76.5 44.5Q55 72 46.5 110Q38 148 46 194L92 454Q94 463 100 467.5Q106 472 113 472H171Q190 472 187 454ZM276 659Q271 633 286 617.5Q301 602 333 602Q363 602 382.5 616Q402 630 407 658L409 669Q411 680 422 680H480Q493 680 491 668L489 649Q480 591 437 558Q394 525 328 525Q262 525 225 560Q188 595 197 652L199 668Q201 680 214 680H270Q274 680 277 677.5Q280 675 278 669L276 659Z" glyph-name="ubreve" horiz-adv-x="554" unicode="ŭ" /><glyph d="M143 206Q131 140 159 104.5Q187 69 244 69Q307 69 346.5 108.5Q386 148 398 213L441 454Q443 463 448.5 467.5Q454 472 462 472H520Q537 472 534 453L458 18Q456 9 450.5 4.5Q445 0 437 0H379Q371 0 366 4.5Q361 9 363 17L374 70Q348 33 308 10Q268 -13 209 -13Q166 -13 132 2Q98 17 76.5 44.5Q55 72 46.5 110Q38 148 46 194L92 454Q94 463 100 467.5Q106 472 113 472H171Q190 472 187 454ZM561 710Q572 710 575.5 701.5Q579 693 574 685L468 543Q458 530 443 530H403Q392 530 387.5 537Q383 544 388 553L460 693Q464 701 468.5 705.5Q473 710 483 710ZM378 710Q389 710 392.5 701.5Q396 693 391 685L285 543Q275 530 260 530H220Q209 530 204.5 537Q200 544 205 553L277 693Q281 701 285.5 705.5Q290 710 300 710Z" glyph-name="uhungarumlaut" horiz-adv-x="554" unicode="ű" /><glyph d="M143 206Q131 140 159 104.5Q187 69 244 69Q307 69 346.5 108.5Q386 148 398 213L441 454Q443 463 448.5 467.5Q454 472 462 472H520Q537 472 534 453L458 18Q456 9 450.5 4.5Q445 0 437 0H379Q371 0 366 4.5Q361 9 363 17L374 70Q348 33 308 10Q268 -13 209 -13Q166 -13 132 2Q98 17 76.5 44.5Q55 72 46.5 110Q38 148 46 194L92 454Q94 463 100 467.5Q106 472 113 472H171Q190 472 187 454ZM198 550Q191 550 186 555.5Q181 561 183 569L190 612Q193 630 213 630H471Q479 630 484 625Q489 620 487 612L480 569Q477 550 457 550Z" glyph-name="umacron" horiz-adv-x="554" unicode="ū" /><glyph d="M143 206Q131 140 159 104.5Q187 69 244 69Q307 69 346.5 108.5Q386 148 398 213L441 454Q443 463 448.5 467.5Q454 472 462 472H520Q537 472 534 453L458 18Q456 9 450.5 4.5Q445 0 437 0H379Q371 0 366 4.5Q361 9 363 17L374 70Q348 33 308 10Q268 -13 209 -13Q166 -13 132 2Q98 17 76.5 44.5Q55 72 46.5 110Q38 148 46 194L92 454Q94 463 100 467.5Q106 472 113 472H171Q190 472 187 454ZM274 -136Q274 -112 287 -88.5Q300 -65 320 -44Q340 -23 363.5 -5.5Q387 12 407 24L433 20L436 9Q403 -23 380 -56Q357 -89 357 -110Q357 -140 392 -140Q406 -140 415 -137.5Q424 -135 429 -135Q442 -135 439 -151L435 -176Q434 -183 425.5 -188Q417 -193 405 -196.5Q393 -200 379.5 -201.5Q366 -203 355 -203Q318 -203 296 -185.5Q274 -168 274 -136Z" glyph-name="uogonek" horiz-adv-x="554" unicode="ų" /><glyph d="M143 206Q131 140 159 104.5Q187 69 244 69Q307 69 346.5 108.5Q386 148 398 213L441 454Q443 463 448.5 467.5Q454 472 462 472H520Q537 472 534 453L458 18Q456 9 450.5 4.5Q445 0 437 0H379Q371 0 366 4.5Q361 9 363 17L374 70Q348 33 308 10Q268 -13 209 -13Q166 -13 132 2Q98 17 76.5 44.5Q55 72 46.5 110Q38 148 46 194L92 454Q94 463 100 467.5Q106 472 113 472H171Q190 472 187 454ZM330 765Q357 765 380 755.5Q403 746 420.5 729.5Q438 713 448 690.5Q458 668 458 641Q458 614 448 591.5Q438 569 420.5 552.5Q403 536 380 527Q357 518 330 518Q303 518 280 527Q257 536 239.5 552.5Q222 569 212 591.5Q202 614 202 641Q202 668 212 690.5Q222 713 239.5 729.5Q257 746 280 755.5Q303 765 330 765ZM330 579Q357 579 373.5 597Q390 615 390 641Q390 667 373.5 685.5Q357 704 330 704Q303 704 286.5 685.5Q270 667 270 641Q270 615 286.5 597Q303 579 330 579Z" glyph-name="uring" horiz-adv-x="554" unicode="ů" /><glyph d="M143 206Q131 140 159 104.5Q187 69 244 69Q307 69 346.5 108.5Q386 148 398 213L441 454Q443 463 448.5 467.5Q454 472 462 472H520Q537 472 534 453L458 18Q456 9 450.5 4.5Q445 0 437 0H379Q371 0 366 4.5Q361 9 363 17L374 70Q348 33 308 10Q268 -13 209 -13Q166 -13 132 2Q98 17 76.5 44.5Q55 72 46.5 110Q38 148 46 194L92 454Q94 463 100 467.5Q106 472 113 472H171Q190 472 187 454ZM257 666Q272 666 293 660.5Q314 655 334.5 648.5Q355 642 373 636.5Q391 631 400 631Q420 631 430.5 639Q441 647 453 659Q459 665 466.5 663.5Q474 662 479 654L494 633Q502 621 497 607Q488 582 462.5 563Q437 544 399 544Q383 544 362 549.5Q341 555 320.5 561Q300 567 282.5 572.5Q265 578 256 578Q236 578 226 570.5Q216 563 203 551Q197 546 189.5 546.5Q182 547 177 555L162 578Q155 589 159 602Q168 628 193.5 647Q219 666 257 666Z" glyph-name="utilde" horiz-adv-x="554" unicode="ũ" /><glyph d="M243 18Q239 10 231.5 5Q224 0 215 0H142Q124 0 121 18L52 449Q50 460 56 466Q62 472 71 472H132Q149 472 151 455L199 111L360 454Q367 472 385 472H445Q461 472 463 454L506 111L671 455Q679 472 696 472H754Q763 472 767 466Q771 460 766 449L549 18Q541 0 522 0H452Q444 0 438.5 5Q433 10 432 18L390 334L243 18ZM564 710Q575 710 578.5 701.5Q582 693 577 685L468 543Q459 530 445 530H400Q389 530 385.5 536.5Q382 543 387 553L463 693Q467 701 472 705.5Q477 710 487 710H564Z" glyph-name="wacute" horiz-adv-x="744" unicode="ẃ" /><glyph d="M243 18Q239 10 231.5 5Q224 0 215 0H142Q124 0 121 18L52 449Q50 460 56 466Q62 472 71 472H132Q149 472 151 455L199 111L360 454Q367 472 385 472H445Q461 472 463 454L506 111L671 455Q679 472 696 472H754Q763 472 767 466Q771 460 766 449L549 18Q541 0 522 0H452Q444 0 438.5 5Q433 10 432 18L390 334L243 18ZM485 710Q501 710 509 692L574 553Q579 543 573.5 536.5Q568 530 560 530H513Q503 530 499 533Q495 536 491 543L442 632L361 543Q354 536 348.5 533Q343 530 334 530H277Q269 530 265.5 536.5Q262 543 270 553L384 692Q399 710 416 710Z" glyph-name="wcircumflex" horiz-adv-x="744" unicode="ŵ" /><glyph d="M243 18Q239 10 231.5 5Q224 0 215 0H142Q124 0 121 18L52 449Q50 460 56 466Q62 472 71 472H132Q149 472 151 455L199 111L360 454Q367 472 385 472H445Q461 472 463 454L506 111L671 455Q679 472 696 472H754Q763 472 767 466Q771 460 766 449L549 18Q541 0 522 0H452Q444 0 438.5 5Q433 10 432 18L390 334L243 18ZM344 555Q320 555 302 572.5Q284 590 284 615Q284 640 302 658Q320 676 344 676Q370 676 387.5 658Q405 640 405 615Q405 590 387.5 572.5Q370 555 344 555ZM512 555Q487 555 469 572.5Q451 590 451 615Q451 640 469 658Q487 676 512 676Q536 676 554 658Q572 640 572 615Q572 590 554 572.5Q536 555 512 555Z" glyph-name="wdieresis" horiz-adv-x="744" unicode="ẅ" /><glyph d="M243 18Q239 10 231.5 5Q224 0 215 0H142Q124 0 121 18L52 449Q50 460 56 466Q62 472 71 472H132Q149 472 151 455L199 111L360 454Q367 472 385 472H445Q461 472 463 454L506 111L671 455Q679 472 696 472H754Q763 472 767 466Q771 460 766 449L549 18Q541 0 522 0H452Q444 0 438.5 5Q433 10 432 18L390 334L243 18ZM371 710Q381 710 386 705.5Q391 701 394 693L457 553Q462 542 458 536Q454 530 443 530H400Q387 530 378 543L280 685Q275 693 279 701.5Q283 710 295 710Z" glyph-name="wgrave" horiz-adv-x="744" unicode="ẁ" /><glyph d="M44 -230Q-1 -230 -35 -214Q-69 -198 -85 -178Q-90 -172 -90.5 -163.5Q-91 -155 -83 -146L-60 -119Q-51 -108 -42 -109Q-33 -110 -25 -117Q-14 -127 3 -136.5Q20 -146 45 -146Q74 -146 95.5 -129.5Q117 -113 131 -86L178 0H147Q131 0 128 16L55 448Q53 459 58.5 465.5Q64 472 76 472H139Q155 472 158 454L214 80L397 454Q401 462 407 467Q413 472 422 472H492Q502 472 505 465Q508 458 503 448L218 -108Q190 -164 148.5 -197Q107 -230 44 -230ZM422 710Q433 710 436.5 701.5Q440 693 435 685L326 543Q317 530 303 530H258Q247 530 243.5 536.5Q240 543 245 553L321 693Q325 701 330 705.5Q335 710 345 710H422Z" glyph-name="yacute" horiz-adv-x="483" unicode="ý" /><glyph d="M44 -230Q-1 -230 -35 -214Q-69 -198 -85 -178Q-90 -172 -90.5 -163.5Q-91 -155 -83 -146L-60 -119Q-51 -108 -42 -109Q-33 -110 -25 -117Q-14 -127 3 -136.5Q20 -146 45 -146Q74 -146 95.5 -129.5Q117 -113 131 -86L178 0H147Q131 0 128 16L55 448Q53 459 58.5 465.5Q64 472 76 472H139Q155 472 158 454L214 80L397 454Q401 462 407 467Q413 472 422 472H492Q502 472 505 465Q508 458 503 448L218 -108Q190 -164 148.5 -197Q107 -230 44 -230ZM202 555Q178 555 160 572.5Q142 590 142 615Q142 640 160 658Q178 676 202 676Q228 676 245.5 658Q263 640 263 615Q263 590 245.5 572.5Q228 555 202 555ZM370 555Q345 555 327 572.5Q309 590 309 615Q309 640 327 658Q345 676 370 676Q394 676 412 658Q430 640 430 615Q430 590 412 572.5Q394 555 370 555Z" glyph-name="ydieresis" horiz-adv-x="483" unicode="ÿ" /><glyph d="M44 -230Q-1 -230 -35 -214Q-69 -198 -85 -178Q-90 -172 -90.5 -163.5Q-91 -155 -83 -146L-60 -119Q-51 -108 -42 -109Q-33 -110 -25 -117Q-14 -127 3 -136.5Q20 -146 45 -146Q74 -146 95.5 -129.5Q117 -113 131 -86L178 0H147Q131 0 128 16L55 448Q53 459 58.5 465.5Q64 472 76 472H139Q155 472 158 454L214 80L397 454Q401 462 407 467Q413 472 422 472H492Q502 472 505 465Q508 458 503 448L218 -108Q190 -164 148.5 -197Q107 -230 44 -230ZM344 710Q360 710 368 692L433 553Q438 543 432.5 536.5Q427 530 419 530H372Q362 530 358 533Q354 536 350 543L301 632L220 543Q213 536 207.5 533Q202 530 193 530H136Q128 530 124.5 536.5Q121 543 129 553L243 692Q258 710 275 710Z" glyph-name="ycircumflex" horiz-adv-x="483" unicode="ŷ" /><glyph d="M44 -230Q-1 -230 -35 -214Q-69 -198 -85 -178Q-90 -172 -90.5 -163.5Q-91 -155 -83 -146L-60 -119Q-51 -108 -42 -109Q-33 -110 -25 -117Q-14 -127 3 -136.5Q20 -146 45 -146Q74 -146 95.5 -129.5Q117 -113 131 -86L178 0H147Q131 0 128 16L55 448Q53 459 58.5 465.5Q64 472 76 472H139Q155 472 158 454L214 80L397 454Q401 462 407 467Q413 472 422 472H492Q502 472 505 465Q508 458 503 448L218 -108Q190 -164 148.5 -197Q107 -230 44 -230ZM229 710Q239 710 244 705.5Q249 701 252 693L315 553Q320 542 316 536Q312 530 301 530H258Q245 530 236 543L138 685Q133 693 137 701.5Q141 710 153 710Z" glyph-name="ygrave" horiz-adv-x="483" unicode="ỳ" /><glyph d="M125 83 383 83Q400 83 397 66L388 16Q386 8 380.5 4Q375 0 367 0H1Q-6 0 -11 5.5Q-16 11 -14 19L-6 59Q-4 67 -1.5 71.5Q1 76 7 82L316 389H82Q74 389 70.5 394.5Q67 400 69 408L77 455Q80 472 96 472H439Q446 472 451 466.5Q456 461 454 453L446 414Q444 406 441 401Q438 396 433 391ZM230 530Q214 530 207 547L142 687Q137 697 142.5 703.5Q148 710 155 710H203Q212 710 216.5 707Q221 704 225 696L274 607L355 696Q362 704 367.5 707Q373 710 381 710H439Q447 710 450.5 703.5Q454 697 446 687L331 547Q317 530 301 530H230Z" glyph-name="zcaron" horiz-adv-x="451" unicode="ž" /><glyph d="M125 83 383 83Q400 83 397 66L388 16Q386 8 380.5 4Q375 0 367 0H1Q-6 0 -11 5.5Q-16 11 -14 19L-6 59Q-4 67 -1.5 71.5Q1 76 7 82L316 389H82Q74 389 70.5 394.5Q67 400 69 408L77 455Q80 472 96 472H439Q446 472 451 466.5Q456 461 454 453L446 414Q444 406 441 401Q438 396 433 391ZM410 710Q421 710 424.5 701.5Q428 693 423 685L314 543Q305 530 291 530H246Q235 530 231.5 536.5Q228 543 233 553L309 693Q313 701 318 705.5Q323 710 333 710H410Z" glyph-name="zacute" horiz-adv-x="451" unicode="ź" /><glyph d="M125 83 383 83Q400 83 397 66L388 16Q386 8 380.5 4Q375 0 367 0H1Q-6 0 -11 5.5Q-16 11 -14 19L-6 59Q-4 67 -1.5 71.5Q1 76 7 82L316 389H82Q74 389 70.5 394.5Q67 400 69 408L77 455Q80 472 96 472H439Q446 472 451 466.5Q456 461 454 453L446 414Q444 406 441 401Q438 396 433 391ZM279 557Q255 557 237 574.5Q219 592 219 617Q219 642 237 660Q255 678 279 678Q305 678 322.5 660Q340 642 340 617Q340 592 322.5 574.5Q305 557 279 557Z" glyph-name="zdotaccent" horiz-adv-x="451" unicode="ż" /><glyph d="M410 710Q421 710 424.5 701.5Q428 693 423 685L314 543Q305 530 291 530H246Q235 530 231.5 536.5Q228 543 233 553L309 693Q313 701 318 705.5Q323 710 333 710H410Z" glyph-name="acute" horiz-adv-x="230" unicode="´" /><glyph d="M229 710Q239 710 244 705.5Q249 701 252 693L315 553Q320 542 316 536Q312 530 301 530H258Q245 530 236 543L138 685Q133 693 137 701.5Q141 710 153 710Z" glyph-name="grave" horiz-adv-x="230" unicode="`" /><glyph d="M344 710Q360 710 368 692L433 553Q438 543 432.5 536.5Q427 530 419 530H372Q362 530 358 533Q354 536 350 543L301 632L220 543Q213 536 207.5 533Q202 530 193 530H136Q128 530 124.5 536.5Q121 543 129 553L243 692Q258 710 275 710Z" glyph-name="circumflex" horiz-adv-x="365" unicode="ˆ" /><glyph d="M230 530Q214 530 207 547L142 687Q137 697 142.5 703.5Q148 710 155 710H203Q212 710 216.5 707Q221 704 225 696L274 607L355 696Q362 704 367.5 707Q373 710 381 710H439Q447 710 450.5 703.5Q454 697 446 687L331 547Q317 530 301 530H230Z" glyph-name="caron" horiz-adv-x="365" unicode="ˇ" /><glyph d="M257 666Q272 666 293 660.5Q314 655 334.5 648.5Q355 642 373 636.5Q391 631 400 631Q420 631 430.5 639Q441 647 453 659Q459 665 466.5 663.5Q474 662 479 654L494 633Q502 621 497 607Q488 582 462.5 563Q437 544 399 544Q383 544 362 549.5Q341 555 320.5 561Q300 567 282.5 572.5Q265 578 256 578Q236 578 226 570.5Q216 563 203 551Q197 546 189.5 546.5Q182 547 177 555L162 578Q155 589 159 602Q168 628 193.5 647Q219 666 257 666Z" glyph-name="tilde" horiz-adv-x="368" unicode="˜" /><glyph d="M202 555Q178 555 160 572.5Q142 590 142 615Q142 640 160 658Q178 676 202 676Q228 676 245.5 658Q263 640 263 615Q263 590 245.5 572.5Q228 555 202 555ZM370 555Q345 555 327 572.5Q309 590 309 615Q309 640 327 658Q345 676 370 676Q394 676 412 658Q430 640 430 615Q430 590 412 572.5Q394 555 370 555Z" glyph-name="dieresis" horiz-adv-x="363" unicode="¨" /><glyph d="M330 765Q357 765 380 755.5Q403 746 420.5 729.5Q438 713 448 690.5Q458 668 458 641Q458 614 448 591.5Q438 569 420.5 552.5Q403 536 380 527Q357 518 330 518Q303 518 280 527Q257 536 239.5 552.5Q222 569 212 591.5Q202 614 202 641Q202 668 212 690.5Q222 713 239.5 729.5Q257 746 280 755.5Q303 765 330 765ZM330 579Q357 579 373.5 597Q390 615 390 641Q390 667 373.5 685.5Q357 704 330 704Q303 704 286.5 685.5Q270 667 270 641Q270 615 286.5 597Q303 579 330 579Z" glyph-name="ring" horiz-adv-x="312" unicode="˚" /><glyph d="M251 2 158 -141Q153 -149 147.5 -151Q142 -153 134 -153H88Q79 -153 74.5 -147.5Q70 -142 75 -132L153 12Z" glyph-name="cedilla" horiz-adv-x="216" unicode="¸" /><glyph d="M561 710Q572 710 575.5 701.5Q579 693 574 685L468 543Q458 530 443 530H403Q392 530 387.5 537Q383 544 388 553L460 693Q464 701 468.5 705.5Q473 710 483 710ZM378 710Q389 710 392.5 701.5Q396 693 391 685L285 543Q275 530 260 530H220Q209 530 204.5 537Q200 544 205 553L277 693Q281 701 285.5 705.5Q290 710 300 710Z" glyph-name="hungarumlaut" horiz-adv-x="401" unicode="˝" /><glyph d="M276 659Q271 633 286 617.5Q301 602 333 602Q363 602 382.5 616Q402 630 407 658L409 669Q411 680 422 680H480Q493 680 491 668L489 649Q480 591 437 558Q394 525 328 525Q262 525 225 560Q188 595 197 652L199 668Q201 680 214 680H270Q274 680 277 677.5Q280 675 278 669L276 659Z" glyph-name="breve" horiz-adv-x="337" unicode="˘" /><glyph d="M198 550Q191 550 186 555.5Q181 561 183 569L190 612Q193 630 213 630H471Q479 630 484 625Q489 620 487 612L480 569Q477 550 457 550Z" glyph-name="macron" horiz-adv-x="526" unicode="¯" /><glyph d="M279 557Q255 557 237 574.5Q219 592 219 617Q219 642 237 660Q255 678 279 678Q305 678 322.5 660Q340 642 340 617Q340 592 322.5 574.5Q305 557 279 557Z" glyph-name="dotaccent" horiz-adv-x="198" unicode="˙" /><glyph d="M143 286Q114 286 94 305.5Q74 325 74 353Q74 381 94 400.5Q114 420 143 420Q172 420 192 400.5Q212 381 212 353Q212 325 192 305.5Q172 286 143 286Z" glyph-name="periodcentered" horiz-adv-x="248" unicode="·" /><glyph d="M274 -136Q274 -112 287 -88.5Q300 -65 320 -44Q340 -23 363.5 -5.5Q387 12 407 24L433 20L436 9Q403 -23 380 -56Q357 -89 357 -110Q357 -140 392 -140Q406 -140 415 -137.5Q424 -135 429 -135Q442 -135 439 -151L435 -176Q434 -183 425.5 -188Q417 -193 405 -196.5Q393 -200 379.5 -201.5Q366 -203 355 -203Q318 -203 296 -185.5Q274 -168 274 -136Z" glyph-name="ogonek" horiz-adv-x="280" unicode="˛" /><glyph d="M116 -53Q119 -46 123 -40.5Q127 -35 135 -35H203Q213 -35 215.5 -43Q218 -51 214 -57L137 -178Q127 -194 113 -194H69Q61 -194 58 -188.5Q55 -183 59 -175L116 -53Z" glyph-name="commaaccent" horiz-adv-x="245" unicode="" /><glyph d="M296 553Q285 553 281 561Q277 569 282 577L373 718Q382 733 395 733H436Q447 733 452.5 726.5Q458 720 453 711L383 570Q379 562 374 557.5Q369 553 359 553H296Z" glyph-name="revcommaaccent" horiz-adv-x="251" unicode="" /><glyph d="M87 -5Q58 -5 39 14.5Q20 34 20 62Q20 91 39 111Q58 131 87 131Q116 131 136 111Q156 91 156 62Q156 34 136 14.5Q116 -5 87 -5Z" glyph-name="period" horiz-adv-x="216" unicode="." /><glyph d="M59 97Q62 105 66 110Q70 115 78 115H145Q155 115 158 107.5Q161 100 157 93L60 -78Q50 -94 37 -94H-7Q-15 -94 -18.5 -88.5Q-22 -83 -18 -75L59 97Z" glyph-name="comma" horiz-adv-x="239" unicode="," /><glyph d="M99 -5Q70 -5 51 14.5Q32 34 32 62Q32 91 51 111Q70 131 99 131Q128 131 148 111Q168 91 168 62Q168 34 148 14.5Q128 -5 99 -5ZM157 334Q128 334 109 353.5Q90 373 90 401Q90 430 109 450Q128 470 157 470Q186 470 206 450Q226 430 226 401Q226 373 206 353.5Q186 334 157 334Z" glyph-name="colon" horiz-adv-x="263" unicode=":" /><glyph d="M160 334Q131 334 112 353.5Q93 373 93 401Q93 430 112 450Q131 470 160 470Q189 470 209 450Q229 430 229 401Q229 373 209 353.5Q189 334 160 334ZM59 97Q62 105 66 110Q70 115 78 115H145Q155 115 158 107.5Q161 100 157 93L60 -78Q50 -94 37 -94H-7Q-15 -94 -18.5 -88.5Q-22 -83 -18 -75Z" glyph-name="semicolon" horiz-adv-x="269" unicode=";" /><glyph d="M87 -5Q58 -5 39 14.5Q20 34 20 62Q20 91 39 111Q58 131 87 131Q116 131 136 111Q156 91 156 62Q156 34 136 14.5Q116 -5 87 -5ZM327 -5Q298 -5 279 14.5Q260 34 260 62Q260 91 279 111Q298 131 327 131Q356 131 376 111Q396 91 396 62Q396 34 376 14.5Q356 -5 327 -5ZM567 -5Q538 -5 519 14.5Q500 34 500 62Q500 91 519 111Q538 131 567 131Q596 131 616 111Q636 91 636 62Q636 34 616 14.5Q596 -5 567 -5Z" glyph-name="ellipsis" horiz-adv-x="696" unicode="…" /><glyph d="M316 713Q359 713 394.5 700.5Q430 688 455 666Q480 644 493.5 614.5Q507 585 507 551Q507 513 493 482Q479 451 458 424.5Q437 398 412 375.5Q387 353 364 331.5Q341 310 324 287.5Q307 265 303 239L301 228Q298 212 281 212H219Q211 212 206.5 216.5Q202 221 204 229L208 251Q214 283 230.5 310Q247 337 268.5 360.5Q290 384 314 405Q338 426 357.5 447.5Q377 469 390 492Q403 515 403 541Q403 578 376 602Q349 626 307 626Q265 626 234 603.5Q203 581 174 544Q166 533 156.5 533Q147 533 138 538L102 561Q95 566 92 574.5Q89 583 100 600Q115 622 135 642Q155 662 181.5 678Q208 694 241.5 703.5Q275 713 316 713ZM227 -5Q198 -5 179 14.5Q160 34 160 62Q160 91 179 111Q198 131 227 131Q256 131 276 111Q296 91 296 62Q296 34 276 14.5Q256 -5 227 -5Z" glyph-name="question" horiz-adv-x="497" unicode="?" /><glyph d="M179 250Q177 242 172 237Q167 232 157 232H99Q91 232 86.5 237Q82 242 84 250L156 681Q158 691 164 695.5Q170 700 177 700H243Q251 700 255.5 694.5Q260 689 258 681ZM107 -5Q78 -5 59 14.5Q40 34 40 62Q40 91 59 111Q78 131 107 131Q136 131 156 111Q176 91 176 62Q176 34 156 14.5Q136 -5 107 -5Z" glyph-name="exclam" horiz-adv-x="264" unicode="!" /><glyph d="M225 -7Q182 -7 146.5 5.5Q111 18 86 40Q61 62 47.5 91.5Q34 121 34 155Q34 193 48 224Q62 255 83 281.5Q104 308 129 330.5Q154 353 177 374.5Q200 396 216.5 418.5Q233 441 238 467L240 478Q243 494 260 494H322Q330 494 334.5 489.5Q339 485 337 477L333 455Q327 423 310.5 396Q294 369 272.5 345.5Q251 322 227 301Q203 280 183.5 258.5Q164 237 151 214Q138 191 138 165Q138 128 165 104Q192 80 234 80Q276 80 307 102.5Q338 125 367 162Q375 173 384.5 173Q394 173 403 168L439 145Q446 140 449 131.5Q452 123 441 106Q426 84 406 63.5Q386 43 359.5 27.5Q333 12 299.5 2.5Q266 -7 225 -7ZM314 711Q343 711 362 691.5Q381 672 381 644Q381 615 362 595Q343 575 314 575Q285 575 265 595Q245 615 245 644Q245 672 265 691.5Q285 711 314 711Z" glyph-name="questiondown.alt" horiz-adv-x="497" unicode="" /><glyph d="M133 459Q135 467 140 472Q145 477 155 477H213Q221 477 225.5 472Q230 467 228 459L156 28Q154 18 148 13.5Q142 9 135 9H69Q61 9 56.5 14.5Q52 20 54 28ZM205 714Q234 714 253 694.5Q272 675 272 647Q272 618 253 598Q234 578 205 578Q176 578 156 598Q136 618 136 647Q136 675 156 694.5Q176 714 205 714Z" glyph-name="exclamdown.alt" horiz-adv-x="275" unicode="" /><glyph d="M225 -7Q182 -7 146.5 5.5Q111 18 86 40Q61 62 47.5 91.5Q34 121 34 155Q34 193 48 224Q62 255 83 281.5Q104 308 129 330.5Q154 353 177 374.5Q200 396 216.5 418.5Q233 441 238 467L240 478Q243 494 260 494H322Q330 494 334.5 489.5Q339 485 337 477L333 455Q327 423 310.5 396Q294 369 272.5 345.5Q251 322 227 301Q203 280 183.5 258.5Q164 237 151 214Q138 191 138 165Q138 128 165 104Q192 80 234 80Q276 80 307 102.5Q338 125 367 162Q375 173 384.5 173Q394 173 403 168L439 145Q446 140 449 131.5Q452 123 441 106Q426 84 406 63.5Q386 43 359.5 27.5Q333 12 299.5 2.5Q266 -7 225 -7ZM314 711Q343 711 362 691.5Q381 672 381 644Q381 615 362 595Q343 575 314 575Q285 575 265 595Q245 615 245 644Q245 672 265 691.5Q285 711 314 711Z" glyph-name="questiondown" horiz-adv-x="486" unicode="¿" /><glyph d="M133 459Q135 467 140 472Q145 477 155 477H213Q221 477 225.5 472Q230 467 228 459L156 28Q154 18 148 13.5Q142 9 135 9H69Q61 9 56.5 14.5Q52 20 54 28ZM205 714Q234 714 253 694.5Q272 675 272 647Q272 618 253 598Q234 578 205 578Q176 578 156 598Q136 618 136 647Q136 675 156 694.5Q176 714 205 714Z" glyph-name="exclamdown" horiz-adv-x="248" unicode="¡" /><glyph d="M133 -104Q95 -45 68 39Q41 123 41 220Q41 297 61.5 370.5Q82 444 115 510.5Q148 577 190 633.5Q232 690 275 734Q281 741 289.5 745.5Q298 750 309 750H336Q350 750 354.5 741Q359 732 349 718Q307 663 269 602Q231 541 201.5 475Q172 409 155 338Q138 267 138 191Q138 119 157 48Q176 -23 204 -84Q211 -99 207 -109.5Q203 -120 185 -120H163Q152 -120 145 -115.5Q138 -111 133 -104Z" glyph-name="parenleft" horiz-adv-x="287" unicode="(" /><glyph d="M183 734Q221 675 248 591Q275 507 275 410Q275 333 254.5 259.5Q234 186 201 119.5Q168 53 126 -4Q84 -61 41 -104Q35 -111 26.5 -115.5Q18 -120 7 -120H-20Q-34 -120 -38.5 -111Q-43 -102 -33 -88Q9 -33 47 27.5Q85 88 114.5 154Q144 220 161 291.5Q178 363 178 439Q178 511 159.5 582Q141 653 112 714Q105 729 109.5 739.5Q114 750 131 750H153Q165 750 171.5 745.5Q178 741 183 734Z" glyph-name="parenright" horiz-adv-x="287" unicode=")" /><glyph d="M157 18Q152 -8 160.5 -18Q169 -28 190 -28H250Q258 -28 262.5 -33.5Q267 -39 265 -47L258 -85Q256 -93 250 -98Q244 -103 237 -103H154Q100 -103 72.5 -77.5Q45 -52 56 8L101 267Q104 285 97.5 292Q91 299 76 299H52Q46 299 40 304.5Q34 310 36 321L42 353Q44 364 51.5 369Q59 374 65 374H89Q104 374 113.5 381.5Q123 389 126 407L167 638Q178 698 209 724Q240 750 294 750H387Q394 750 398.5 744.5Q403 739 401 731L395 693Q393 685 387 679.5Q381 674 373 674H313Q293 674 281 664Q269 654 264 628L228 423Q224 399 213.5 383Q203 367 191 357Q179 347 168 342Q157 337 151 336Q157 335 166.5 330.5Q176 326 184 316.5Q192 307 196.5 291Q201 275 197 251L157 18Z" glyph-name="braceleft" horiz-adv-x="329" unicode="{" /><glyph d="M138 251Q142 275 152.5 291Q163 307 175 316.5Q187 326 198 330.5Q209 335 215 336Q209 337 199.5 342Q190 347 181.5 357Q173 367 168.5 383Q164 399 168 423L205 628Q209 654 201 664Q193 674 172 674H112Q104 674 99.5 679.5Q95 685 97 693L103 731Q105 739 111 744.5Q117 750 125 750H207Q261 750 288.5 724Q316 698 305 638L264 407Q261 389 268 381.5Q275 374 290 374H314Q320 374 326 369Q332 364 330 353L324 321Q322 310 314.5 304.5Q307 299 301 299H277Q262 299 252.5 292Q243 285 240 267L194 8Q183 -52 152 -77.5Q121 -103 67 -103H-25Q-33 -103 -37.5 -98Q-42 -93 -40 -85L-34 -47Q-32 -39 -26 -33.5Q-20 -28 -12 -28H48Q69 -28 80.5 -18Q92 -8 97 18Z" glyph-name="braceright" horiz-adv-x="329" unicode="}" /><glyph d="M391 693Q389 685 383 679.5Q377 674 369 674H249L125 -28H245Q253 -28 257.5 -33.5Q262 -39 260 -47L253 -85Q250 -103 232 -103H38Q30 -103 25 -98.5Q20 -94 22 -86L166 732Q168 740 174 745Q180 750 188 750H382Q390 750 394.5 744.5Q399 739 397 731Z" glyph-name="bracketleft" horiz-adv-x="324" unicode="[" /><glyph d="M-35 -46Q-33 -38 -27 -33Q-21 -28 -13 -28H107L230 675H110Q102 675 97.5 680Q93 685 95 693L102 732Q104 740 109.5 745Q115 750 123 750H318Q325 750 330 745Q335 740 333 732L189 -85Q187 -93 181 -98Q175 -103 168 -103H-27Q-35 -103 -39.5 -98Q-44 -93 -42 -85Z" glyph-name="bracketright" horiz-adv-x="323" unicode="]" /><glyph d="M10 0Q-1 0 -3.5 7.5Q-6 15 -1 23L434 685Q444 700 458 700H498Q509 700 511.5 693Q514 686 508 677L76 16Q71 8 66 4Q61 0 50 0Z" glyph-name="slash" horiz-adv-x="465" unicode="/" /><glyph d="M502 23Q507 14 503.5 7Q500 0 489 0H448Q437 0 432.5 4Q428 8 424 16L106 677Q102 685 105 692.5Q108 700 119 700H158Q167 700 171.5 696.5Q176 693 180 685Z" glyph-name="backslash" horiz-adv-x="568" unicode="\" /><glyph d="M-46 -161Q-54 -161 -58.5 -155.5Q-63 -150 -61 -142L-51 -90Q-49 -82 -43 -76.5Q-37 -71 -29 -71H218Q226 -71 230.5 -76.5Q235 -82 233 -90L223 -142Q221 -150 215.5 -155.5Q210 -161 200 -161Z" glyph-name="underscore" horiz-adv-x="295" unicode="_" /><glyph d="M73 227Q65 227 60.5 232.5Q56 238 58 247L68 308Q70 317 76 322Q82 327 90 327H298Q305 327 310 321.5Q315 316 313 307L302 247Q300 237 294 232Q288 227 280 227Z" glyph-name="hyphen" horiz-adv-x="356" unicode="-" /><glyph d="M73 227Q65 227 60.5 232Q56 237 58 247L68 308Q70 317 76 322Q82 327 90 327H540Q548 327 553.5 321.5Q559 316 557 307L546 247Q541 227 523 227Z" glyph-name="endash" horiz-adv-x="600" unicode="–" /><glyph d="M73 227Q65 227 60.5 232.5Q56 238 58 247L68 308Q70 317 76 322Q82 327 90 327H934Q942 327 947 321.5Q952 316 950 307L939 247Q936 227 917 227Z" glyph-name="emdash" horiz-adv-x="993" unicode="—" /><glyph d="M207 439Q207 431 201.5 425.5Q196 420 188 420H143Q135 420 129.5 425.5Q124 431 124 439V807Q124 815 129.5 820Q135 825 143 825H188Q196 825 201.5 820Q207 815 207 807ZM207 -106Q207 -114 201.5 -119.5Q196 -125 188 -125H143Q135 -125 129.5 -119.5Q124 -114 124 -106V262Q124 270 129.5 275Q135 280 143 280H188Q196 280 201.5 275Q207 270 207 262Z" glyph-name="brokenbar" horiz-adv-x="289" unicode="¦" /><glyph d="M145 -125Q137 -125 131.5 -119.5Q126 -114 126 -106V807Q126 815 131.5 820Q137 825 145 825H189Q197 825 202 820Q207 815 207 807V-106Q207 -114 202 -119.5Q197 -125 189 -125Z" glyph-name="bar" horiz-adv-x="291" unicode="|" /><glyph d="M340 0Q324 0 317 16L231 231Q228 238 230 246Q232 254 237 261L377 457Q388 472 404 472H456Q464 472 466.5 465.5Q469 459 464 451L331 239L396 21Q398 13 393.5 6.5Q389 0 381 0ZM151 0Q135 0 128 16L42 231Q39 238 41 246Q43 254 48 261L188 457Q199 472 215 472H267Q275 472 277.5 465.5Q280 459 275 451L142 239L207 21Q209 13 204.5 6.5Q200 0 192 0Z" glyph-name="guillemotleft" horiz-adv-x="473" unicode="«" /><glyph d="M322 472Q338 472 345 456L431 241Q434 234 432 226Q430 218 425 211L285 15Q274 0 258 0H206Q198 0 195.5 6.5Q193 13 198 21L331 233L266 451Q264 459 268.5 465.5Q273 472 281 472ZM133 472Q149 472 156 456L242 241Q245 234 243 226Q241 218 236 211L96 15Q85 0 69 0H17Q9 0 6.5 6.5Q4 13 9 21L142 233L77 451Q75 459 79.5 465.5Q84 472 92 472Z" glyph-name="guillemotright" horiz-adv-x="473" unicode="»" /><glyph d="M151 0Q135 0 128 16L42 231Q39 238 41 246Q43 254 48 261L188 457Q199 472 215 472H267Q275 472 277.5 465.5Q280 459 275 451L142 239L207 21Q209 13 204.5 6.5Q200 0 192 0Z" glyph-name="guilsinglleft" horiz-adv-x="284" unicode="‹" /><glyph d="M133 472Q149 472 156 456L242 241Q245 234 243 226Q241 218 236 211L96 15Q85 0 69 0H17Q9 0 6.5 6.5Q4 13 9 21L142 233L77 451Q75 459 79.5 465.5Q84 472 92 472Z" glyph-name="guilsinglright" horiz-adv-x="284" unicode="›" /><glyph d="M59 97Q62 105 66 110Q70 115 78 115H145Q155 115 158 107.5Q161 100 157 93L60 -78Q50 -94 37 -94H-7Q-15 -94 -18.5 -88.5Q-22 -83 -18 -75L59 97Z" glyph-name="quotesinglbase" horiz-adv-x="239" unicode="‚" /><glyph d="M59 97Q62 105 66 110Q70 115 78 115H145Q155 115 158 107.5Q161 100 157 93L60 -78Q50 -94 37 -94H-7Q-15 -94 -18.5 -88.5Q-22 -83 -18 -75ZM239 97Q242 105 246 110Q250 115 258 115H325Q335 115 338 107.5Q341 100 337 93L240 -78Q230 -94 217 -94H173Q165 -94 161.5 -88.5Q158 -83 162 -75Z" glyph-name="quotedblbase" horiz-adv-x="419" unicode="„" /><glyph d="M190 509Q187 501 183 496Q179 491 171 491H104Q94 491 91 498.5Q88 506 92 513L189 684Q199 700 212 700H256Q264 700 267.5 694.5Q271 689 267 681L190 509Z" glyph-name="quoteleft" horiz-adv-x="239" unicode="‘" /><glyph d="M370 509Q367 501 363 496Q359 491 351 491H284Q274 491 271 498.5Q268 506 272 513L369 684Q379 700 392 700H436Q444 700 447.5 694.5Q451 689 447 681ZM190 509Q187 501 183 496Q179 491 171 491H104Q94 491 91 498.5Q88 506 92 513L189 684Q199 700 212 700H256Q264 700 267.5 694.5Q271 689 267 681Z" glyph-name="quotedblleft" horiz-adv-x="419" unicode="“" /><glyph d="M169 682Q172 690 176 695Q180 700 188 700H255Q265 700 268 692.5Q271 685 267 678L170 507Q160 491 147 491H103Q95 491 91.5 496.5Q88 502 92 510L169 682Z" glyph-name="quoteright" horiz-adv-x="239" unicode="’" /><glyph d="M169 682Q172 690 176 695Q180 700 188 700H255Q265 700 268 692.5Q271 685 267 678L170 507Q160 491 147 491H103Q95 491 91.5 496.5Q88 502 92 510ZM349 682Q352 690 356 695Q360 700 368 700H435Q445 700 448 692.5Q451 685 447 678L350 507Q340 491 327 491H283Q275 491 271.5 496.5Q268 502 272 510Z" glyph-name="quotedblright" horiz-adv-x="419" unicode="”" /><glyph d="M169 682Q172 690 176 695Q180 700 188 700H255Q265 700 268 692.5Q271 685 267 678L170 507Q160 491 147 491H103Q95 491 91.5 496.5Q88 502 92 510L169 682Z" glyph-name="quotesingle" horiz-adv-x="239" unicode="'" /><glyph d="M169 682Q172 690 176 695Q180 700 188 700H255Q265 700 268 692.5Q271 685 267 678L170 507Q160 491 147 491H103Q95 491 91.5 496.5Q88 502 92 510ZM349 682Q352 690 356 695Q360 700 368 700H435Q445 700 448 692.5Q451 685 447 678L350 507Q340 491 327 491H283Q275 491 271.5 496.5Q268 502 272 510Z" glyph-name="quotedbl" horiz-adv-x="419" unicode="&quot;" /><glyph d="M380 735Q383 743 387 748Q391 753 399 753H462Q472 753 477 745.5Q482 738 478 731L381 560Q371 544 358 544H318Q310 544 304.5 549.5Q299 555 303 563L380 735Z" glyph-name="apostrophemod" horiz-adv-x="207" unicode="" /><glyph d="M169 682Q172 690 176 695Q180 700 188 700H255Q265 700 268 692.5Q271 685 267 678L170 507Q160 491 147 491H103Q95 491 91.5 496.5Q88 502 92 510L169 682Z" glyph-name="apostrophe" horiz-adv-x="239" unicode="ʼ" /><glyph d="M193 248Q171 248 152 256.5Q133 265 119 279.5Q105 294 97 313.5Q89 333 90 355Q91 377 100 396.5Q109 416 124 430.5Q139 445 159 453.5Q179 462 201 462Q223 462 242 453.5Q261 445 275 430.5Q289 416 297 396.5Q305 377 304 355Q303 333 294 313.5Q285 294 270 279.5Q255 265 235 256.5Q215 248 193 248Z" glyph-name="bullet" horiz-adv-x="355" unicode="•" /><glyph d="M253 543Q253 516 265.5 489Q278 462 300 436L316 445Q347 463 367 478.5Q387 494 397.5 509Q408 524 412 538Q416 552 416 567Q416 598 395 619Q374 640 341 640Q305 640 279 615.5Q253 591 253 543ZM255 71Q301 71 342.5 91Q384 111 418 144L264 333L236 317Q176 281 152 247Q128 213 128 179Q128 159 136 139.5Q144 120 160 105Q176 90 200 80.5Q224 71 255 71ZM471 79Q420 31 363.5 9Q307 -13 239 -13Q191 -13 152.5 1.5Q114 16 86 40.5Q58 65 43 98Q28 131 28 168Q28 229 62.5 279.5Q97 330 173 372L215 394Q190 426 174.5 464Q159 502 159 537Q159 571 170.5 602.5Q182 634 205 658.5Q228 683 262 698Q296 713 341 713Q380 713 410.5 700.5Q441 688 461.5 668Q482 648 493 621.5Q504 595 504 568Q504 541 497 517.5Q490 494 474 472.5Q458 451 431.5 430Q405 409 366 387L347 376L475 220Q504 267 522.5 307Q541 347 557 392Q562 408 578 408H637Q645 408 648.5 404Q652 400 650 392Q639 351 610.5 286Q582 221 532 151L637 21Q643 14 639.5 7Q636 0 628 0H550Q536 0 527 10Z" glyph-name="ampersand" horiz-adv-x="683" unicode="&amp;" /><glyph d="M549 700Q556 700 561 695Q566 690 564 682L447 19Q444 0 427 0H386Q378 0 373.5 5Q369 10 371 18L479 632H376L267 18Q264 0 247 0H205Q197 0 192.5 5Q188 10 190 18L241 302H237Q201 302 171.5 315Q142 328 121 350.5Q100 373 88.5 403.5Q77 434 77 470Q77 520 96 562Q115 604 147.5 635Q180 666 223 683Q266 700 315 700Z" glyph-name="paragraph" horiz-adv-x="576" unicode="¶" /><glyph d="M248 163Q246 156 241 151Q236 146 228 146H178Q170 146 166 151Q162 156 164 163L216 456H97Q80 456 83 472L90 518Q93 534 111 534H230L257 683Q260 700 276 700H326Q333 700 338 695.5Q343 691 341 683L313 534H434Q450 534 447 518L439 472Q436 456 419 456H300Z" glyph-name="dagger" horiz-adv-x="437" unicode="†" /><glyph d="M222 17Q219 0 202 0H152Q145 0 140.5 4.5Q136 9 138 17L170 195H50Q33 195 36 212L44 257Q47 274 65 274H184L211 426H91Q84 426 79.5 430.5Q75 435 77 443L86 488Q89 505 106 505H225L256 683Q258 700 275 700H325Q333 700 337.5 695.5Q342 691 340 683L308 505H429Q436 505 440.5 500.5Q445 496 443 488L435 443Q432 426 415 426H294L267 274H388Q404 274 401 257L394 212Q391 195 374 195H253Z" glyph-name="daggerdbl" horiz-adv-x="437" unicode="‡" /><glyph d="M406 149Q433 133 457 114Q481 95 498 70Q540 85 560 110Q580 135 582 167Q585 209 558.5 237Q532 265 483 293L330 381Q304 396 280 415Q256 434 239 459Q157 429 155 362Q152 320 178 292.5Q204 265 254 236ZM526 -43Q522 -85 503 -121Q484 -157 452 -183Q420 -209 376.5 -223Q333 -237 279 -235Q239 -234 204.5 -225Q170 -216 141 -200.5Q112 -185 90 -164.5Q68 -144 53 -121Q45 -107 48.5 -98Q52 -89 59 -84L96 -58Q116 -45 131 -65Q160 -107 199.5 -126.5Q239 -146 285 -148Q316 -148 341 -139.5Q366 -131 383.5 -116.5Q401 -102 411 -82.5Q421 -63 422 -41Q424 -7 402.5 21Q381 49 330 78L170 170Q104 208 76 255.5Q48 303 53 358Q55 385 66 412Q77 439 97 462.5Q117 486 145.5 504Q174 522 211 533Q210 542 209.5 551.5Q209 561 211 572Q215 614 233.5 650Q252 686 283.5 712Q315 738 359 752Q403 766 457 765Q536 763 595 729.5Q654 696 683 650Q691 637 687.5 628Q684 619 676 613L641 588Q632 582 622.5 584Q613 586 606 594Q576 636 537 656Q498 676 452 677Q421 678 396 669.5Q371 661 353.5 646.5Q336 632 326 612.5Q316 593 315 571Q313 536 334.5 508.5Q356 481 407 452L567 359Q633 321 660.5 273.5Q688 226 683 171Q679 116 639 67.5Q599 19 524 -3Q527 -23 526 -43Z" glyph-name="section" horiz-adv-x="724" unicode="§" /><glyph d="M307 321Q304 304 289.5 294Q275 284 257 287Q237 289 227.5 304Q218 319 222 336Q223 343 231 363.5Q239 384 248.5 408Q258 432 267 453.5Q276 475 279 483Q271 479 251 467.5Q231 456 208.5 443Q186 430 166 419.5Q146 409 139 407Q122 402 106.5 409.5Q91 417 85 435Q80 452 88 468Q96 484 113 490Q121 493 143.5 495Q166 497 191.5 499.5Q217 502 240 503.5Q263 505 272 507Q264 511 243 521Q222 531 199 541.5Q176 552 156 562Q136 572 129 578Q113 590 110.5 607Q108 624 121 640Q133 654 150 656.5Q167 659 181 647Q187 642 202 625.5Q217 609 233.5 589.5Q250 570 265.5 552.5Q281 535 287 528Q287 538 286 561Q285 584 284 609Q283 634 282.5 655Q282 676 284 684Q288 701 302 711.5Q316 722 334 719Q352 715 362 701.5Q372 688 368 669Q367 662 359.5 641.5Q352 621 342.5 597.5Q333 574 324 552.5Q315 531 311 524Q319 528 339.5 539Q360 550 382.5 563Q405 576 425 586.5Q445 597 452 599Q469 605 484.5 597Q500 589 505 572Q510 555 502.5 538.5Q495 522 477 517Q469 515 447.5 512.5Q426 510 400.5 507.5Q375 505 352 502.5Q329 500 319 498Q326 494 347 484.5Q368 475 391 464Q414 453 434.5 443Q455 433 462 428Q476 417 478.5 398.5Q481 380 470 366Q457 350 440 349.5Q423 349 409 360Q403 364 388 381Q373 398 356.5 417.5Q340 437 324.5 455Q309 473 303 479Q303 470 304 446.5Q305 423 306 397.5Q307 372 307.5 350Q308 328 307 321Z" glyph-name="asterisk" horiz-adv-x="503" unicode="*" /><glyph d="M111 686Q113 700 125 700H423Q436 700 434 686L429 657Q427 644 415 644H297L249 370Q246 356 233 356H196Q191 356 187 359.5Q183 363 185 370L234 644H116Q104 644 106 657ZM644 499 765 686Q774 700 786 700H854Q859 700 863 696.5Q867 693 865 686L808 369Q806 356 792 356H758Q745 356 747 369L793 628L669 442Q661 428 648 428H618Q605 428 601 442L539 629L494 369Q492 356 478 356H444Q432 356 434 369L489 686Q490 692 495 696Q500 700 506 700H568Q580 700 584 686Z" glyph-name="trademark" horiz-adv-x="860" unicode="™" /></font>
</defs>
</svg>
