<?xml version="1.0" standalone="no"?>
<!DOCTYPE svg
  PUBLIC '-//W3C//DTD SVG 1.1//EN'
  'http://www.w3.org/Graphics/SVG/1.1/DTD/svg11.dtd'><svg version="1.1" xmlns="http://www.w3.org/2000/svg"><defs><font horiz-adv-x="0" id="font"><font-face ascent="750" bbox="-122 -258 4647 944" cap-height="700" descent="-250" font-family="Qualcomm Next WEB" font-stretch="normal" font-style="normal" font-weight="700" units-per-em="1000" x-height="456" /><missing-glyph d="" horiz-adv-x="0" /><glyph d="" glyph-name=".null" horiz-adv-x="0" unicode="" /><glyph d="" glyph-name="nonmarkingreturn" horiz-adv-x="0" unicode="" /><glyph d="" glyph-name="space" horiz-adv-x="253" unicode=" " /><glyph d="" glyph-name="uni00A0" horiz-adv-x="253" unicode=" " /><glyph d="M487 216 139 216L63 14Q58 0 46 0H25Q19 0 16.5 4.5Q14 9 16 14L276 686Q281 700 295 700H334Q348 700 353 686L614 14Q619 0 605 0H582Q569 0 564 14ZM154 255 472 255L316 666H310Z" glyph-name="A" horiz-adv-x="630" unicode="A" /><glyph d="M383 700Q434 700 471.5 685.5Q509 671 533.5 647.5Q558 624 570.5 594Q583 564 583 532Q583 499 574 473Q565 447 550 427.5Q535 408 515.5 394Q496 380 475 373Q507 365 534 349.5Q561 334 581 311.5Q601 289 612.5 259.5Q624 230 624 195Q624 156 610 120.5Q596 85 568 58Q540 31 498 15.5Q456 0 399 0H111Q105 0 100.5 4.5Q96 9 96 15V685Q96 691 100.5 695.5Q105 700 111 700ZM535 528Q535 561 522.5 586Q510 611 489 627.5Q468 644 439 652Q410 660 377 660H141V390H383Q416 390 443.5 399Q471 408 491.5 425.5Q512 443 523.5 468.5Q535 494 535 528ZM141 350 141 40H406Q437 40 467.5 49.5Q498 59 522.5 78Q547 97 562 126Q577 155 577 195Q577 234 562.5 263Q548 292 524 311.5Q500 331 469 340.5Q438 350 405 350Z" glyph-name="B" horiz-adv-x="667" unicode="B" /><glyph d="M394 -12Q321 -12 257.5 15Q194 42 146.5 90Q99 138 71.5 204.5Q44 271 44 350Q44 429 71.5 495.5Q99 562 146.5 610Q194 658 258 685Q322 712 394 712Q448 712 499 697Q550 682 593 653.5Q636 625 668.5 584Q701 543 719 492Q721 487 718 482.5Q715 478 709 478H688Q677 478 672 492Q636 578 564.5 625Q493 672 394 672Q328 672 272 647.5Q216 623 175.5 580Q135 537 112.5 478Q90 419 90 350Q90 281 112.5 222Q135 163 175.5 120Q216 77 272 52.5Q328 28 394 28Q493 28 564.5 75Q636 122 672 208Q677 222 688 222H709Q715 222 718 217.5Q721 213 719 208Q701 157 668.5 116Q636 75 593 46.5Q550 18 499 3Q448 -12 394 -12Z" glyph-name="C" horiz-adv-x="750" unicode="C" /><glyph d="M303 700Q397 700 467.5 674Q538 648 585.5 601.5Q633 555 657 490.5Q681 426 681 350Q681 273 657 209Q633 145 585.5 98.5Q538 52 467.5 26Q397 0 303 0H111Q105 0 100.5 4.5Q96 9 96 15V685Q96 691 100.5 695.5Q105 700 111 700ZM307 40Q380 40 440.5 60Q501 80 544.5 119Q588 158 611.5 216Q635 274 635 350Q635 426 611.5 484Q588 542 544.5 581Q501 620 440.5 640Q380 660 307 660H141V40Z" glyph-name="D" horiz-adv-x="727" unicode="D" /><glyph d="M558 700Q564 700 568.5 695.5Q573 691 573 685V673Q573 667 568.5 662.5Q564 658 558 658H141V376H354Q360 376 364.5 371.5Q369 367 369 361V351Q369 345 364.5 340.5Q360 336 354 336H141V42H558Q564 42 568.5 37.5Q573 33 573 27V15Q573 9 568.5 4.5Q564 0 558 0H111Q105 0 100.5 4.5Q96 9 96 15V685Q96 691 100.5 695.5Q105 700 111 700Z" glyph-name="E" horiz-adv-x="603" unicode="E" /><glyph d="M439 343Q439 337 434.5 332.5Q430 328 424 328H141V15Q141 9 136.5 4.5Q132 0 126 0H111Q105 0 100.5 4.5Q96 9 96 15V685Q96 691 100.5 695.5Q105 700 111 700H527Q533 700 537.5 695.5Q542 691 542 685V673Q542 667 537.5 662.5Q533 658 527 658H141V368H424Q430 368 434.5 363.5Q439 359 439 353Z" glyph-name="F" horiz-adv-x="557" unicode="F" /><glyph d="M396 712Q450 712 501 697Q552 682 595 653.5Q638 625 670.5 584Q703 543 721 492Q723 487 720 482.5Q717 478 711 478H690Q679 478 674 492Q638 578 566.5 625Q495 672 396 672Q330 672 274 647.5Q218 623 177 579.5Q136 536 113 477.5Q90 419 90 350Q90 281 112.5 222Q135 163 175 120Q215 77 270.5 52.5Q326 28 392 28Q458 28 509 50Q560 72 595.5 106Q631 140 649.5 181.5Q668 223 670 263H421Q415 263 410.5 267.5Q406 272 406 278V287Q406 293 410.5 297.5Q415 302 421 302H699Q705 302 709.5 297.5Q714 293 714 287V15Q714 9 709.5 4.5Q705 0 699 0H687Q681 0 676.5 4.5Q672 9 672 15V159Q664 134 642.5 104Q621 74 585.5 48.5Q550 23 500.5 5.5Q451 -12 387 -12Q315 -12 252 15Q189 42 143 90Q97 138 70.5 204.5Q44 271 44 350Q44 429 72 495.5Q100 562 148 610Q196 658 260 685Q324 712 396 712Z" glyph-name="G" horiz-adv-x="773" unicode="G" /><glyph d="M660 15Q660 9 655.5 4.5Q651 0 645 0H630Q624 0 619.5 4.5Q615 9 615 15V337H141V15Q141 9 136.5 4.5Q132 0 126 0H111Q105 0 100.5 4.5Q96 9 96 15V685Q96 691 100.5 695.5Q105 700 111 700H126Q132 700 136.5 695.5Q141 691 141 685V377H615V685Q615 691 619.5 695.5Q624 700 630 700H645Q651 700 655.5 695.5Q660 691 660 685Z" glyph-name="H" horiz-adv-x="756" unicode="H" /><glyph d="M111 0Q105 0 100.5 4.5Q96 9 96 15V685Q96 691 100.5 695.5Q105 700 111 700H126Q132 700 136.5 695.5Q141 691 141 685V15Q141 9 136.5 4.5Q132 0 126 0Z" glyph-name="I" horiz-adv-x="237" unicode="I" /><glyph d="M513 225Q513 175 496.5 132Q480 89 449 57Q418 25 372.5 6.5Q327 -12 269 -12Q211 -12 165.5 6Q120 24 89 55.5Q58 87 42 130Q26 173 26 223V249Q26 255 30.5 259.5Q35 264 41 264H55Q61 264 65.5 259.5Q70 255 70 249V220Q70 176 84 140.5Q98 105 124.5 80Q151 55 187.5 41Q224 27 269 27Q315 27 351.5 41.5Q388 56 414 82.5Q440 109 454 145Q468 181 468 225V685Q468 691 472.5 695.5Q477 700 483 700H498Q504 700 508.5 695.5Q513 691 513 685V225Z" glyph-name="J" horiz-adv-x="600" unicode="J" /><glyph d="M296 370 615 11Q618 8 616.5 4Q615 0 610 0H578Q570 0 565.5 3Q561 6 556 11L257 348H141V15Q141 9 136.5 4.5Q132 0 126 0H111Q105 0 100.5 4.5Q96 9 96 15V685Q96 691 100.5 695.5Q105 700 111 700H126Q132 700 136.5 695.5Q141 691 141 685V388H257L560 689Q565 694 569 697Q573 700 580 700H616Q621 700 622.5 696Q624 692 621 689Z" glyph-name="K" horiz-adv-x="626" unicode="K" /><glyph d="M523 15Q523 9 518.5 4.5Q514 0 508 0H111Q105 0 100.5 4.5Q96 9 96 15V685Q96 691 100.5 695.5Q105 700 111 700H126Q132 700 136.5 695.5Q141 691 141 685V42H508Q514 42 518.5 37.5Q523 33 523 27Z" glyph-name="L" horiz-adv-x="534" unicode="L" /><glyph d="M436 100Q420 100 414 113L141 655V15Q141 9 136.5 4.5Q132 0 126 0H111Q105 0 100.5 4.5Q96 9 96 15V685Q96 691 100.5 695.5Q105 700 111 700H154Q169 700 176 687L443 149L710 687Q716 700 732 700H773Q779 700 783.5 695.5Q788 691 788 685V15Q788 9 783.5 4.5Q779 0 773 0H758Q752 0 747.5 4.5Q743 9 743 15V655L470 113Q463 100 448 100Z" glyph-name="M" horiz-adv-x="884" unicode="M" /><glyph d="M141 635 141 15Q141 9 136.5 4.5Q132 0 126 0H111Q105 0 100.5 4.5Q96 9 96 15V685Q96 691 100.5 695.5Q105 700 111 700H133Q149 700 157 688L579 65V685Q579 691 583.5 695.5Q588 700 594 700H609Q615 700 619.5 695.5Q624 691 624 685V15Q624 9 619.5 4.5Q615 0 609 0H587Q570 0 563 12Z" glyph-name="N" horiz-adv-x="720" unicode="N" /><glyph d="M742 350Q742 271 714.5 204.5Q687 138 639.5 90Q592 42 528.5 15Q465 -12 393 -12Q321 -12 257.5 15Q194 42 146.5 90Q99 138 71.5 204.5Q44 271 44 350Q44 429 71.5 495.5Q99 562 146.5 610Q194 658 257.5 685Q321 712 393 712Q465 712 528.5 685Q592 658 639.5 610Q687 562 714.5 495.5Q742 429 742 350ZM696 350Q696 419 673.5 478Q651 537 610.5 580Q570 623 514.5 647.5Q459 672 393 672Q327 672 271.5 647.5Q216 623 175.5 580Q135 537 112.5 478Q90 419 90 350Q90 281 112.5 222Q135 163 175.5 120Q216 77 271.5 52.5Q327 28 393 28Q459 28 514.5 52.5Q570 77 610.5 120Q651 163 673.5 222Q696 281 696 350Z" glyph-name="O" horiz-adv-x="786" unicode="O" /><glyph d="M141 15Q141 9 136.5 4.5Q132 0 126 0H111Q105 0 100.5 4.5Q96 9 96 15V685Q96 691 100.5 695.5Q105 700 111 700H341Q404 700 450 683Q496 666 526 636.5Q556 607 570.5 569Q585 531 585 489Q585 447 570.5 409Q556 371 526 341.5Q496 312 450 295Q404 278 341 278H141ZM346 317Q385 317 420.5 327.5Q456 338 482 359.5Q508 381 523.5 413.5Q539 446 539 489Q539 532 523.5 564.5Q508 597 482 618.5Q456 640 420.5 650.5Q385 661 346 661H141V317Z" glyph-name="P" horiz-adv-x="611" unicode="P" /><glyph d="M742 350Q742 297 729.5 249.5Q717 202 694 162Q671 122 639.5 89.5Q608 57 569 35L620 -97Q624 -107 619 -113.5Q614 -120 603 -120H597Q586 -120 581.5 -115Q577 -110 574 -102L529 15Q497 2 463 -5Q429 -12 393 -12Q321 -12 257.5 15Q194 42 146.5 90Q99 138 71.5 204.5Q44 271 44 350Q44 429 71.5 495.5Q99 562 146.5 610Q194 658 257.5 685Q321 712 393 712Q465 712 528.5 685Q592 658 639.5 610Q687 562 714.5 495.5Q742 429 742 350ZM696 350Q696 419 673.5 478Q651 537 610.5 580Q570 623 514.5 647.5Q459 672 393 672Q327 672 271.5 647.5Q216 623 175.5 580Q135 537 112.5 478Q90 419 90 350Q90 281 112.5 222Q135 163 175.5 120Q216 77 271.5 52.5Q327 28 393 28Q460 28 514 52L436 257Q432 267 437 273.5Q442 280 453 280H459Q470 280 474.5 275Q479 270 482 262L554 73Q620 115 658 187Q696 259 696 350Z" glyph-name="Q" horiz-adv-x="786" unicode="Q" /><glyph d="M393 351Q479 351 525.5 394.5Q572 438 572 506Q572 574 525.5 617Q479 660 393 660H141V351ZM600 0Q588 0 581 13L409 311H141V15Q141 9 136.5 4.5Q132 0 126 0H111Q105 0 100.5 4.5Q96 9 96 15V685Q96 691 100.5 695.5Q105 700 111 700H384Q494 700 556 647.5Q618 595 618 507Q618 481 610.5 452.5Q603 424 584.5 397.5Q566 371 534.5 350Q503 329 455 318L632 13Q635 8 632.5 4Q630 0 624 0Z" glyph-name="R" horiz-adv-x="673" unicode="R" /><glyph d="M300 712Q373 712 434 687Q495 662 537 614Q546 603 535 595L525 587Q517 581 511.5 583.5Q506 586 501 591Q460 634 409 654Q358 674 300 674Q261 674 225.5 664.5Q190 655 163.5 636.5Q137 618 121 590.5Q105 563 105 528Q105 508 110 489.5Q115 471 129.5 454Q144 437 169 423Q194 409 234 398L395 354Q483 330 518.5 285.5Q554 241 554 180Q554 145 538.5 110.5Q523 76 491.5 49Q460 22 412 5Q364 -12 298 -12Q245 -12 202.5 0Q160 12 127 30Q94 48 71.5 69Q49 90 37 108Q34 113 35 119Q36 125 41 128L53 136Q65 144 75 131Q90 111 111.5 92Q133 73 161 58.5Q189 44 223.5 35Q258 26 299 26Q352 26 391.5 39Q431 52 457 73.5Q483 95 496 122.5Q509 150 509 178Q509 232 478.5 264.5Q448 297 381 315L217 360Q171 372 141 390Q111 408 93 429.5Q75 451 67.5 475.5Q60 500 60 526Q60 567 78 601.5Q96 636 128.5 660.5Q161 685 205 698.5Q249 712 300 712Z" glyph-name="S" horiz-adv-x="597" unicode="S" /><glyph d="M13 685Q13 691 17.5 695.5Q22 700 28 700H584Q590 700 594.5 695.5Q599 691 599 685V673Q599 667 594.5 662.5Q590 658 584 658H328V15Q328 9 323.5 4.5Q319 0 313 0H298Q292 0 287.5 4.5Q283 9 283 15V658H28Q22 658 17.5 662.5Q13 667 13 673Z" glyph-name="T" horiz-adv-x="612" unicode="T" /><glyph d="M615 235Q615 178 596 132.5Q577 87 542.5 54.5Q508 22 459 5Q410 -12 351 -12Q292 -12 243 5Q194 22 159.5 53.5Q125 85 106 130.5Q87 176 87 233V685Q87 691 91.5 695.5Q96 700 102 700H117Q123 700 127.5 695.5Q132 691 132 685V230Q132 181 149 143.5Q166 106 195.5 80Q225 54 265 40.5Q305 27 351 27Q396 27 436 40.5Q476 54 506 80Q536 106 553.5 143.5Q571 181 571 230V685Q571 691 575.5 695.5Q580 700 586 700H600Q606 700 610.5 695.5Q615 691 615 685V235Z" glyph-name="U" horiz-adv-x="702" unicode="U" /><glyph d="M296 0Q282 0 277 14L16 686Q11 700 25 700H48Q61 700 66 686L314 34H320L567 686Q572 700 584 700H605Q611 700 613.5 695.5Q616 691 614 686L354 14Q349 0 335 0Z" glyph-name="V" horiz-adv-x="630" unicode="V" /><glyph d="M777 14Q772 0 757 0H735Q720 0 715 14L505 646L296 14Q291 0 276 0H254Q239 0 234 14L-2 686Q-4 692 -1 696Q2 700 7 700H29Q41 700 45 686L265 49L475 686Q480 700 492 700H519Q531 700 536 686L747 52L965 686Q970 700 981 700H1004Q1018 700 1013 686L777 14Z" glyph-name="W" horiz-adv-x="1011" unicode="W" /><glyph d="M64 12Q55 0 44 0H18Q13 0 11 4Q9 8 12 12L268 355L21 688Q19 692 21 696Q23 700 29 700H54Q66 700 75 688L297 387L519 688Q528 700 539 700H564Q569 700 571 696.5Q573 693 570 688L322 356L577 12Q580 8 578 4Q576 0 571 0H542Q531 0 522 12L293 323L64 12Z" glyph-name="X" horiz-adv-x="591" unicode="X" /><glyph d="M281 311 21 688Q18 693 20.5 696.5Q23 700 28 700H55Q67 700 75 688L302 355H306L533 688Q540 700 552 700H581Q587 700 588.5 696.5Q590 693 587 688L326 311V15Q326 9 321.5 4.5Q317 0 311 0H296Q290 0 285.5 4.5Q281 9 281 15Z" glyph-name="Y" horiz-adv-x="607" unicode="Y" /><glyph d="M29 0Q21 0 17.5 4.5Q14 9 14 15V22Q14 29 16 35Q18 41 27 52L489 658H60Q54 658 49.5 662.5Q45 667 45 673V685Q45 691 49.5 695.5Q54 700 60 700H531Q537 700 541.5 696.5Q546 693 546 685V678Q546 668 542 660.5Q538 653 530 643L74 42H551Q557 42 561.5 37.5Q566 33 566 27V15Q566 9 561.5 4.5Q557 0 551 0Z" glyph-name="Z" horiz-adv-x="585" unicode="Z" /><glyph d="M314 656 157 255H472ZM62 14Q57 0 42 0H25Q18 0 15.5 4.5Q13 9 15 14L283 686Q288 700 304 700H854Q860 700 864.5 695.5Q869 691 869 685V673Q869 667 864.5 662.5Q860 658 854 658H359L472 376H720Q726 376 730.5 371.5Q735 367 735 361V351Q735 345 730.5 340.5Q726 336 720 336H487L606 42H854Q860 42 864.5 37.5Q869 33 869 27V15Q869 9 864.5 4.5Q860 0 854 0H588Q572 0 567 14L487 216H141Z" glyph-name="AE" horiz-adv-x="899" unicode="Æ" /><glyph d="M696 350Q696 419 673.5 478Q651 537 610.5 580Q570 623 514.5 647.5Q459 672 393 672Q327 672 271.5 647.5Q216 623 175.5 580Q135 537 112.5 478Q90 419 90 350Q90 281 112.5 222Q135 163 175.5 120Q216 77 271.5 52.5Q327 28 393 28Q459 28 514.5 52.5Q570 77 610.5 120Q651 163 673.5 222Q696 281 696 350ZM692 172Q671 130 640 96Q609 62 571 38Q533 14 487.5 1Q442 -12 393 -12Q321 -12 257.5 15Q194 42 146.5 90Q99 138 71.5 204.5Q44 271 44 350Q44 429 71.5 495.5Q99 562 146.5 610Q194 658 257.5 685Q321 712 393 712Q442 712 487.5 699Q533 686 571 662Q609 638 640 604Q671 570 692 528V685Q692 691 696.5 695.5Q701 700 707 700H1154Q1160 700 1164.5 695.5Q1169 691 1169 685V673Q1169 667 1164.5 662.5Q1160 658 1154 658H737V376H950Q956 376 960.5 371.5Q965 367 965 361V351Q965 345 960.5 340.5Q956 336 950 336H737V42H1154Q1160 42 1164.5 37.5Q1169 33 1169 27V15Q1169 9 1164.5 4.5Q1160 0 1154 0H707Q701 0 696.5 4.5Q692 9 692 15Z" glyph-name="OE" horiz-adv-x="1199" unicode="Œ" /><glyph d="M111 0Q105 0 100.5 4.5Q96 9 96 15V275L54 260Q47 258 43.5 261.5Q40 265 40 270V279Q40 294 54 299L96 314V685Q96 691 100.5 695.5Q105 700 111 700H126Q132 700 136.5 695.5Q141 691 141 685V330L367 412Q372 414 376.5 411Q381 408 381 403V390Q381 377 367 372L141 291V42H508Q514 42 518.5 37.5Q523 33 523 27V15Q523 9 518.5 4.5Q514 0 508 0Z" glyph-name="Lslash" horiz-adv-x="535" unicode="Ł" /><glyph d="M742 350Q742 271 714.5 204.5Q687 138 639.5 90Q592 42 528.5 15Q465 -12 393 -12Q321 -12 257.5 15Q194 42 146.5 90Q99 138 71.5 204.5Q44 271 44 350Q44 429 71.5 495.5Q99 562 146.5 610Q194 658 257.5 685Q321 712 393 712Q465 712 528.5 685Q592 658 639.5 610Q687 562 714.5 495.5Q742 429 742 350ZM696 350Q696 416 675 473Q654 530 616.5 573Q579 616 527.5 641.5Q476 667 414 671V29Q476 33 527.5 58.5Q579 84 616.5 127Q654 170 675 227Q696 284 696 350ZM90 350Q90 284 111 227Q132 170 169.5 127Q207 84 258.5 58.5Q310 33 372 29V671Q310 667 258.5 641.5Q207 616 169.5 573Q132 530 111 473Q90 416 90 350Z" glyph-name="Oslash" horiz-adv-x="786" unicode="Ø" /><glyph d="M118 0Q112 0 107.5 4.5Q103 9 103 15V336H15Q9 336 4.5 340.5Q0 345 0 351V361Q0 367 4.5 371.5Q9 376 15 376H103V685Q103 691 107.5 695.5Q112 700 118 700H310Q404 700 474.5 674Q545 648 592.5 601.5Q640 555 664 490.5Q688 426 688 350Q688 273 664 209Q640 145 592.5 98.5Q545 52 474.5 26Q404 0 310 0ZM314 40Q387 40 447.5 60Q508 80 551.5 119Q595 158 618.5 216Q642 274 642 350Q642 426 618.5 484Q595 542 551.5 581Q508 620 447.5 640Q387 660 314 660H148V376H375Q381 376 385.5 371.5Q390 367 390 361V351Q390 345 385.5 340.5Q381 336 375 336H148V40Z" glyph-name="Eth" horiz-adv-x="734" unicode="Ð" /><glyph d="M111 0Q105 0 100.5 4.5Q96 9 96 15V685Q96 691 100.5 695.5Q105 700 111 700H126Q132 700 136.5 695.5Q141 691 141 685V580H341Q404 580 450 563Q496 546 526 516.5Q556 487 570.5 449Q585 411 585 369Q585 327 570.5 289Q556 251 526 221.5Q496 192 450 175Q404 158 341 158H141V15Q141 9 136.5 4.5Q132 0 126 0ZM346 197Q385 197 420.5 207.5Q456 218 482 239.5Q508 261 523.5 293.5Q539 326 539 369Q539 412 523.5 444.5Q508 477 482 498.5Q456 520 420.5 530.5Q385 541 346 541H141V197Z" glyph-name="Thorn" horiz-adv-x="621" unicode="Þ" /><glyph d="M85 227Q85 185 98.5 148.5Q112 112 137 85.5Q162 59 196 43.5Q230 28 271 28Q312 28 346 43.5Q380 59 405 85.5Q430 112 443.5 148.5Q457 185 457 227Q457 269 443.5 306Q430 343 405 370Q380 397 346 412.5Q312 428 271 428Q230 428 196 412.5Q162 397 137 370Q112 343 98.5 306Q85 269 85 227ZM40 227Q40 279 58 323Q76 367 107 399.5Q138 432 180 450Q222 468 270 468Q334 468 383.5 436.5Q433 405 456 356V441Q456 447 460.5 451.5Q465 456 471 456H485Q491 456 495.5 451.5Q500 447 500 441V15Q500 9 495.5 4.5Q491 0 485 0H471Q465 0 460.5 4.5Q456 9 456 15V100Q432 51 383 19.5Q334 -12 270 -12Q222 -12 180 6Q138 24 107 55.5Q76 87 58 131Q40 175 40 227Z" glyph-name="a" horiz-adv-x="574" unicode="a" /><glyph d="M119 356Q142 405 191.5 436.5Q241 468 305 468Q353 468 395 450Q437 432 468 399.5Q499 367 517 323Q535 279 535 227Q535 175 517 131Q499 87 468 55.5Q437 24 395 6Q353 -12 305 -12Q241 -12 192 19.5Q143 51 119 100V15Q119 9 114.5 4.5Q110 0 104 0H90Q84 0 79.5 4.5Q75 9 75 15V685Q75 691 79.5 695.5Q84 700 90 700H104Q110 700 114.5 695.5Q119 691 119 685ZM118 227Q118 185 131.5 148.5Q145 112 170 85.5Q195 59 229 43.5Q263 28 304 28Q345 28 379 43.5Q413 59 438 85.5Q463 112 476.5 148.5Q490 185 490 227Q490 269 476.5 306Q463 343 438 370Q413 397 379 412.5Q345 428 304 428Q263 428 229 412.5Q195 397 170 370Q145 343 131.5 306Q118 269 118 227Z" glyph-name="b" horiz-adv-x="575" unicode="b" /><glyph d="M474 110Q445 52 391.5 20Q338 -12 272 -12Q224 -12 181.5 6Q139 24 107.5 56Q76 88 58 132Q40 176 40 228Q40 280 58 324Q76 368 107.5 400Q139 432 181.5 450Q224 468 272 468Q338 468 391.5 436Q445 404 474 346Q476 341 475.5 335.5Q475 330 467 326L455 321Q441 316 435 328Q412 373 370 400.5Q328 428 272 428Q231 428 196.5 412.5Q162 397 137 370Q112 343 98.5 306.5Q85 270 85 228Q85 186 98.5 149.5Q112 113 137 86Q162 59 196.5 43.5Q231 28 272 28Q328 28 370 55.5Q412 83 435 128Q441 139 455 134L468 129Q475 126 475.5 120.5Q476 115 474 110Z" glyph-name="c" horiz-adv-x="511" unicode="c" /><glyph d="M85 227Q85 185 98.5 148.5Q112 112 137 85.5Q162 59 196 43.5Q230 28 271 28Q312 28 346 43.5Q380 59 405 85.5Q430 112 443.5 148.5Q457 185 457 227Q457 269 443.5 306Q430 343 405 370Q380 397 346 412.5Q312 428 271 428Q230 428 196 412.5Q162 397 137 370Q112 343 98.5 306Q85 269 85 227ZM40 227Q40 279 58 323Q76 367 107 399.5Q138 432 180 450Q222 468 270 468Q334 468 383.5 436.5Q433 405 456 356V685Q456 691 460.5 695.5Q465 700 471 700H485Q491 700 495.5 695.5Q500 691 500 685V15Q500 9 495.5 4.5Q491 0 485 0H471Q465 0 460.5 4.5Q456 9 456 15V100Q432 51 383 19.5Q334 -12 270 -12Q222 -12 180 6Q138 24 107 55.5Q76 87 58 131Q40 175 40 227Z" glyph-name="d" horiz-adv-x="575" unicode="d" /><glyph d="M271 468Q317 468 358.5 452Q400 436 431.5 406Q463 376 481 333.5Q499 291 499 237V229Q499 223 495 218.5Q491 214 485 214H85Q88 174 103 140Q118 106 143 81Q168 56 201.5 42Q235 28 276 28Q331 28 369 49Q407 70 431 101Q436 106 441.5 108.5Q447 111 454 106L463 100Q476 91 469 80Q439 37 388 12.5Q337 -12 274 -12Q223 -12 180.5 6Q138 24 106.5 55.5Q75 87 57.5 131Q40 175 40 227Q40 277 57 321Q74 365 105 397.5Q136 430 178.5 449Q221 468 271 468ZM455 252Q452 292 437 324.5Q422 357 397.5 380Q373 403 340.5 415.5Q308 428 270 428Q231 428 199 414.5Q167 401 143 377Q119 353 104.5 321Q90 289 86 252Z" glyph-name="e" horiz-adv-x="531" unicode="e" /><glyph d="M100 456 100 576Q100 610 111 635.5Q122 661 140 677.5Q158 694 181 702Q204 710 229 710Q253 710 276 703.5Q299 697 317 684Q327 677 318 665L311 656Q306 650 300 651Q294 652 288 656Q272 665 256.5 668.5Q241 672 228 672Q190 672 167 646.5Q144 621 144 578V456H250Q256 456 260.5 451.5Q265 447 265 441V433Q265 427 260.5 422.5Q256 418 250 418H144V15Q144 9 139.5 4.5Q135 0 129 0H115Q109 0 104.5 4.5Q100 9 100 15V418H26Q20 418 15.5 422.5Q11 427 11 433V441Q11 447 15.5 451.5Q20 456 26 456Z" glyph-name="f" horiz-adv-x="273" unicode="f" /><glyph d="M84 228Q84 186 97.5 149Q111 112 136 85Q161 58 195 42.5Q229 27 270 27Q311 27 345 42.5Q379 58 404 85Q429 112 442.5 149Q456 186 456 228Q456 270 442.5 306.5Q429 343 404 370Q379 397 345 412.5Q311 428 270 428Q229 428 195 412.5Q161 397 136 370Q111 343 97.5 306.5Q84 270 84 228ZM272 -179Q318 -179 352.5 -166Q387 -153 410 -129.5Q433 -106 444.5 -73.5Q456 -41 456 -2V99Q432 50 383 18.5Q334 -13 270 -13Q221 -13 179 5Q137 23 106 55Q75 87 57.5 131Q40 175 40 228Q40 280 58 324Q76 368 107 400Q138 432 180 450Q222 468 270 468Q334 468 383.5 436Q433 404 456 355V440Q456 446 460.5 450.5Q465 455 471 455H485Q491 455 495.5 450.5Q500 446 500 440V-5Q500 -51 485 -90Q470 -129 441 -157Q412 -185 369.5 -200.5Q327 -216 272 -216Q224 -216 186 -204Q148 -192 120.5 -171.5Q93 -151 75.5 -124.5Q58 -98 51 -69Q48 -56 62 -52L75 -49Q88 -46 93 -60Q100 -83 114 -104.5Q128 -126 150 -142.5Q172 -159 202 -169Q232 -179 272 -179Z" glyph-name="g" horiz-adv-x="574" unicode="g" /><glyph d="M447 261Q447 340 406.5 384.5Q366 429 288 429Q249 429 217.5 416.5Q186 404 164.5 381.5Q143 359 131 328.5Q119 298 119 261V15Q119 9 114.5 4.5Q110 0 104 0H90Q84 0 79.5 4.5Q75 9 75 15V685Q75 691 79.5 695.5Q84 700 90 700H104Q110 700 114.5 695.5Q119 691 119 685V365Q139 411 185 439.5Q231 468 294 468Q340 468 376.5 453.5Q413 439 438.5 413Q464 387 477.5 350.5Q491 314 491 269V15Q491 9 486.5 4.5Q482 0 476 0H462Q456 0 451.5 4.5Q447 9 447 15Z" glyph-name="h" horiz-adv-x="558" unicode="h" /><glyph d="M96 587Q81 587 70 598Q59 609 59 625Q59 640 70 651Q81 662 96 662Q111 662 122 651Q133 640 133 625Q133 609 122 598Q111 587 96 587ZM89 0Q83 0 78.5 4.5Q74 9 74 15V441Q74 447 78.5 451.5Q83 456 89 456H103Q109 456 113.5 451.5Q118 447 118 441V15Q118 9 113.5 4.5Q109 0 103 0Z" glyph-name="i" horiz-adv-x="192" unicode="i" /><glyph d="M96 587Q81 587 70 598Q59 609 59 625Q59 640 70 651Q81 662 96 662Q111 662 122 651Q133 640 133 625Q133 609 122 598Q111 587 96 587ZM89 0Q83 0 78.5 4.5Q74 9 74 15V441Q74 447 78.5 451.5Q83 456 89 456H103Q109 456 113.5 451.5Q118 447 118 441V15Q118 9 113.5 4.5Q109 0 103 0Z" glyph-name="i.TRK" horiz-adv-x="192" unicode="" /><glyph d="M91 588Q76 588 65 599Q54 610 54 625Q54 640 65 651Q76 662 91 662Q106 662 117 651Q128 640 128 625Q128 610 117 599Q106 588 91 588ZM102 456Q108 456 112.5 451.5Q117 447 117 441V-83Q117 -121 106 -146Q95 -171 77 -187Q59 -203 36 -209.5Q13 -216 -11 -216Q-39 -216 -60.5 -209Q-82 -202 -99 -190Q-104 -187 -104 -182Q-104 -177 -101 -172L-96 -164Q-88 -151 -75 -159Q-60 -169 -42.5 -174Q-25 -179 -12 -179Q26 -179 49.5 -157.5Q73 -136 73 -85V441Q73 447 77.5 451.5Q82 456 88 456Z" glyph-name="j" horiz-adv-x="192" unicode="j" /><glyph d="M119 15Q119 9 114.5 4.5Q110 0 104 0H90Q84 0 79.5 4.5Q75 9 75 15V685Q75 691 79.5 695.5Q84 700 90 700H104Q110 700 114.5 695.5Q119 691 119 685V276H183L357 449Q364 456 372 456H407Q412 456 413.5 452Q415 448 410 444L218 257L445 11Q448 8 446.5 4Q445 0 440 0H412Q402 0 396.5 3Q391 6 386 11L179 238H119V15Z" glyph-name="k" horiz-adv-x="445" unicode="k" /><glyph d="M179 0Q157 0 137.5 5.5Q118 11 103.5 23.5Q89 36 80.5 57Q72 78 72 108V685Q72 691 76.5 695.5Q81 700 87 700H101Q107 700 111.5 695.5Q116 691 116 685V109Q116 74 132 56Q148 38 185 38H206Q212 38 216.5 33.5Q221 29 221 23V15Q221 9 216.5 4.5Q212 0 206 0H179Z" glyph-name="l" horiz-adv-x="222" unicode="l" /><glyph d="M118 15Q118 9 113.5 4.5Q109 0 103 0H89Q83 0 78.5 4.5Q74 9 74 15V441Q74 447 78.5 451.5Q83 456 89 456H103Q109 456 113.5 451.5Q118 447 118 441V366Q138 412 182 440Q226 468 286 468Q349 468 393.5 436Q438 404 455 352Q480 410 526.5 439Q573 468 636 468Q680 468 714.5 454Q749 440 773 414Q797 388 809.5 351.5Q822 315 822 270V15Q822 9 817.5 4.5Q813 0 807 0H793Q787 0 782.5 4.5Q778 9 778 15V262Q778 299 768.5 329.5Q759 360 740.5 382Q722 404 694 416.5Q666 429 629 429Q554 429 512 382.5Q470 336 470 262V15Q470 9 465.5 4.5Q461 0 455 0H441Q435 0 430.5 4.5Q426 9 426 15V262Q426 299 416.5 329.5Q407 360 388.5 382Q370 404 342 416.5Q314 429 277 429Q202 429 160 382.5Q118 336 118 262Z" glyph-name="m" horiz-adv-x="889" unicode="m" /><glyph d="M446 261Q446 340 405.5 384.5Q365 429 287 429Q248 429 216.5 416.5Q185 404 163.5 381.5Q142 359 130 328.5Q118 298 118 261V15Q118 9 113.5 4.5Q109 0 103 0H89Q83 0 78.5 4.5Q74 9 74 15V441Q74 447 78.5 451.5Q83 456 89 456H103Q109 456 113.5 451.5Q118 447 118 441V365Q138 411 184 439.5Q230 468 293 468Q339 468 375.5 453.5Q412 439 437.5 413Q463 387 476.5 350.5Q490 314 490 269V15Q490 9 485.5 4.5Q481 0 475 0H461Q455 0 450.5 4.5Q446 9 446 15Z" glyph-name="n" horiz-adv-x="557" unicode="n" /><glyph d="M40 228Q40 280 58 324Q76 368 107.5 400Q139 432 181 450Q223 468 271 468Q319 468 361 450Q403 432 434.5 400Q466 368 484 324Q502 280 502 228Q502 176 484 132Q466 88 434.5 56Q403 24 361 6Q319 -12 271 -12Q223 -12 181 6Q139 24 107.5 56Q76 88 58 132Q40 176 40 228ZM85 228Q85 186 98.5 149.5Q112 113 136.5 86Q161 59 195.5 43.5Q230 28 271 28Q312 28 346.5 43.5Q381 59 405.5 86Q430 113 443.5 149.5Q457 186 457 228Q457 270 443.5 306.5Q430 343 405.5 370Q381 397 346.5 412.5Q312 428 271 428Q230 428 195.5 412.5Q161 397 136.5 370Q112 343 98.5 306.5Q85 270 85 228Z" glyph-name="o" horiz-adv-x="542" unicode="o" /><glyph d="M117 228Q117 186 130.5 149.5Q144 113 168.5 86Q193 59 227.5 43.5Q262 28 303 28Q344 28 378 43.5Q412 59 436.5 86Q461 113 474.5 149.5Q488 186 488 228Q488 270 474.5 306.5Q461 343 436.5 370Q412 397 378 412.5Q344 428 303 428Q262 428 227.5 412.5Q193 397 168.5 370Q144 343 130.5 306.5Q117 270 117 228ZM118 356Q141 405 190.5 436.5Q240 468 304 468Q352 468 394 450Q436 432 467 400Q498 368 516 324Q534 280 534 228Q534 175 516 131Q498 87 467 55.5Q436 24 394 6Q352 -12 304 -12Q240 -12 190.5 19.5Q141 51 118 100V-187Q118 -193 113.5 -197.5Q109 -202 103 -202H89Q83 -202 78.5 -197.5Q74 -193 74 -187V441Q74 447 78.5 451.5Q83 456 89 456H103Q109 456 113.5 451.5Q118 447 118 441Z" glyph-name="p" horiz-adv-x="574" unicode="p" /><glyph d="M40 228Q40 280 58 324Q76 368 107 400Q138 432 180 450Q222 468 270 468Q334 468 383.5 436.5Q433 405 456 356V441Q456 447 460.5 451.5Q465 456 471 456H485Q491 456 495.5 451.5Q500 447 500 441V-187Q500 -193 495.5 -197.5Q491 -202 485 -202H471Q465 -202 460.5 -197.5Q456 -193 456 -187V100Q432 51 383 19.5Q334 -12 270 -12Q222 -12 180 6Q138 24 107 55.5Q76 87 58 131Q40 175 40 228ZM85 228Q85 186 98.5 149.5Q112 113 137 86Q162 59 196 43.5Q230 28 271 28Q312 28 346 43.5Q380 59 405 86Q430 113 443.5 149.5Q457 186 457 228Q457 270 443.5 306.5Q430 343 405 370Q380 397 346 412.5Q312 428 271 428Q230 428 196 412.5Q162 397 137 370Q112 343 98.5 306.5Q85 270 85 228Z" glyph-name="q" horiz-adv-x="574" unicode="q" /><glyph d="M267 456Q272 456 276.5 451.5Q281 447 281 442V427Q281 415 270 415H256Q228 415 203 405.5Q178 396 159 375Q140 354 129 320Q118 286 118 237V15Q118 9 113.5 4.5Q109 0 103 0H89Q83 0 78.5 4.5Q74 9 74 15V441Q74 447 78.5 451.5Q83 456 89 456H101Q107 456 111.5 451.5Q116 447 116 441V362Q121 378 132.5 395Q144 412 161 425.5Q178 439 200.5 447.5Q223 456 250 456Z" glyph-name="r" horiz-adv-x="289" unicode="r" /><glyph d="M217 469Q269 469 310.5 453.5Q352 438 381 413Q390 404 380 393L373 385Q364 374 351 384Q326 402 295.5 416.5Q265 431 216 431Q155 431 124 405Q93 379 93 344Q93 314 114 293.5Q135 273 178 265L269 248Q342 234 372.5 204Q403 174 403 122Q403 100 392.5 76.5Q382 53 360.5 33.5Q339 14 305 1Q271 -12 224 -12Q157 -12 109.5 9Q62 30 36 61Q27 72 38 82L49 91Q61 100 72 88Q101 59 137.5 42.5Q174 26 225 26Q257 26 282 34Q307 42 324 55.5Q341 69 349.5 86Q358 103 358 121Q358 158 333.5 178Q309 198 257 208L173 224Q49 248 49 341Q49 371 62 394.5Q75 418 98 434.5Q121 451 151.5 460Q182 469 217 469Z" glyph-name="s" horiz-adv-x="438" unicode="s" /><glyph d="M98 418 24 418Q18 418 13.5 422.5Q9 427 9 433V441Q9 447 13.5 451.5Q18 456 24 456H98V615Q98 621 102.5 625.5Q107 630 113 630H127Q133 630 137.5 625.5Q142 621 142 615V456H294Q300 456 304.5 451.5Q309 447 309 441V433Q309 427 304.5 422.5Q300 418 294 418H142V127Q142 84 162 58.5Q182 33 223 33Q255 33 288 51Q296 56 301.5 56Q307 56 312 49L318 39Q325 29 315 22Q301 11 276.5 3Q252 -5 219 -5Q196 -5 174.5 2Q153 9 136 24.5Q119 40 108.5 64.5Q98 89 98 123Z" glyph-name="t" horiz-adv-x="327" unicode="t" /><glyph d="M111 195Q111 116 152.5 71.5Q194 27 272 27Q311 27 342 39.5Q373 52 394.5 74.5Q416 97 427.5 127.5Q439 158 439 195V441Q439 447 443.5 451.5Q448 456 454 456H468Q474 456 478.5 451.5Q483 447 483 441V15Q483 9 478.5 4.5Q474 0 468 0H454Q448 0 443.5 4.5Q439 9 439 15V91Q419 45 373 16.5Q327 -12 264 -12Q218 -12 181.5 2.5Q145 17 119.5 43Q94 69 80.5 105.5Q67 142 67 187V441Q67 447 71.5 451.5Q76 456 82 456H96Q102 456 106.5 451.5Q111 447 111 441Z" glyph-name="u" horiz-adv-x="557" unicode="u" /><glyph d="M213 0Q198 0 193 14L27 442Q25 447 28 451.5Q31 456 36 456H58Q71 456 75 445L229 34L386 445Q390 456 403 456H422Q429 456 431 451.5Q433 447 431 442L264 14Q259 0 243 0Z" glyph-name="v" horiz-adv-x="458" unicode="v" /><glyph d="M258 14Q253 0 238 0H213Q198 0 193 14L27 442Q25 447 28 451.5Q31 456 37 456H55Q68 456 72 445L226 42L376 442Q382 456 395 456H417Q429 456 435 442L585 42L739 444Q743 456 756 456H775Q781 456 784 451.5Q787 447 785 442L618 14Q613 0 598 0H572Q557 0 552 14L405 412L258 14Z" glyph-name="w" horiz-adv-x="812" unicode="w" /><glyph d="M73 12Q69 7 65 3.5Q61 0 54 0H24Q19 0 17 4Q15 8 18 12L195 234L30 444Q27 448 29 452Q31 456 36 456H65Q72 456 75.5 453Q79 450 84 444L224 267L362 444Q366 449 370 452.5Q374 456 381 456H408Q413 456 415 452Q417 448 414 444L249 234L424 12Q427 8 425 4Q423 0 418 0H388Q381 0 377 3.5Q373 7 369 12L220 202L73 12Z" glyph-name="x" horiz-adv-x="443" unicode="x" /><glyph d="M88 -216Q56 -216 30 -204Q4 -192 -10 -177Q-18 -166 -8 -156L-2 -150Q9 -140 23 -152Q43 -168 57 -173.5Q71 -179 90 -179Q126 -179 144.5 -156Q163 -133 176 -100L215 0H210Q198 0 194 10L26 442Q24 447 27 451.5Q30 456 36 456H57Q70 456 75 442L228 35L384 442Q389 456 402 456H421Q428 456 430.5 451.5Q433 447 431 442L210 -121Q202 -142 191 -159Q180 -176 165.5 -189Q151 -202 132 -209Q113 -216 88 -216Z" glyph-name="y" horiz-adv-x="457" unicode="y" /><glyph d="M78 38 386 38Q392 38 396.5 33.5Q401 29 401 23V15Q401 9 396.5 4.5Q392 0 386 0H39Q33 0 28.5 4.5Q24 9 24 15V25Q24 36 32 45L334 418H57Q51 418 46.5 422.5Q42 427 42 433V441Q42 447 46.5 451.5Q51 456 57 456H374Q380 456 384.5 451.5Q389 447 389 441V432Q389 421 381 412Z" glyph-name="z" horiz-adv-x="427" unicode="z" /><glyph d="M644 -12Q583 -12 534.5 13Q486 38 454 82Q425 38 377.5 13Q330 -12 272 -12Q224 -12 181.5 6Q139 24 107.5 56Q76 88 58 132Q40 176 40 228Q40 280 58 324Q76 368 107.5 400Q139 432 181.5 450Q224 468 272 468Q330 468 378 443Q426 418 455 373Q486 417 533.5 442.5Q581 468 641 468Q687 468 728.5 452Q770 436 801.5 406Q833 376 851 333.5Q869 291 869 237V229Q869 223 865 218.5Q861 214 855 214H455Q458 174 473 140Q488 106 513 81Q538 56 571.5 42Q605 28 646 28Q701 28 739 49Q777 70 801 101Q806 106 811.5 108.5Q817 111 824 106L833 100Q846 91 839 80Q809 37 758 12.5Q707 -12 644 -12ZM825 252Q822 292 807 324.5Q792 357 767.5 380Q743 403 710.5 415.5Q678 428 640 428Q601 428 569 414.5Q537 401 513 377Q489 353 474.5 321Q460 289 456 252ZM272 28Q326 28 367.5 52.5Q409 77 433 119Q410 168 410 227Q410 285 433 336Q410 378 368 403Q326 428 272 428Q231 428 196.5 412.5Q162 397 137 370Q112 343 98.5 306.5Q85 270 85 228Q85 186 98.5 149.5Q112 113 137 86Q162 59 196.5 43.5Q231 28 272 28Z" glyph-name="ae" horiz-adv-x="901" unicode="æ" /><glyph d="M691 -12Q618 -12 562 24Q506 60 479 121Q451 60 395.5 24Q340 -12 271 -12Q223 -12 181 6Q139 24 107.5 56Q76 88 58 132Q40 176 40 228Q40 280 58 324Q76 368 107.5 400Q139 432 181 450Q223 468 271 468Q340 468 396 431.5Q452 395 480 334Q507 394 561.5 431Q616 468 688 468Q734 468 775.5 452Q817 436 848.5 406Q880 376 898 333.5Q916 291 916 237V229Q916 223 912 218.5Q908 214 902 214H502Q505 174 520 140Q535 106 560 81Q585 56 618.5 42Q652 28 693 28Q748 28 786 49Q824 70 848 101Q853 106 858.5 108.5Q864 111 871 106L880 100Q893 91 886 80Q856 37 805 12.5Q754 -12 691 -12ZM872 252Q869 292 854 324.5Q839 357 814.5 380Q790 403 757.5 415.5Q725 428 687 428Q648 428 616 414.5Q584 401 560 377Q536 353 521.5 321Q507 289 503 252ZM85 228Q85 186 98.5 149.5Q112 113 136.5 86Q161 59 195.5 43.5Q230 28 271 28Q312 28 346.5 43.5Q381 59 405.5 86Q430 113 443.5 149.5Q457 186 457 228Q457 270 443.5 306.5Q430 343 405.5 370Q381 397 346.5 412.5Q312 428 271 428Q230 428 195.5 412.5Q161 397 136.5 370Q112 343 98.5 306.5Q85 270 85 228Z" glyph-name="oe" horiz-adv-x="948" unicode="œ" /><glyph d="M183 0Q161 0 141.5 5.5Q122 11 107.5 23.5Q93 36 84.5 57Q76 78 76 108V294L41 273Q36 270 32 272.5Q28 275 28 280V299Q28 306 31.5 309.5Q35 313 41 317L76 337V685Q76 691 80.5 695.5Q85 700 91 700H105Q111 700 115.5 695.5Q120 691 120 685V363L188 403Q193 406 197 403.5Q201 401 201 396V378Q201 371 197.5 367.5Q194 364 188 360L120 320V109Q120 74 136 56Q152 38 189 38H210Q216 38 220.5 33.5Q225 29 225 23V15Q225 9 220.5 4.5Q216 0 210 0Z" glyph-name="lslash" horiz-adv-x="230" unicode="ł" /><glyph d="M40 228Q40 280 58 324Q76 368 107.5 400Q139 432 181 450Q223 468 271 468Q319 468 361 450Q403 432 434.5 400Q466 368 484 324Q502 280 502 228Q502 176 484 132Q466 88 434.5 56Q403 24 361 6Q319 -12 271 -12Q223 -12 181 6Q139 24 107.5 56Q76 88 58 132Q40 176 40 228ZM85 228Q85 189 97 154.5Q109 120 130.5 93.5Q152 67 182.5 50Q213 33 250 29V427Q213 423 182.5 406.5Q152 390 130.5 363.5Q109 337 97 302.5Q85 268 85 228ZM457 228Q457 268 445 302.5Q433 337 411.5 363.5Q390 390 359.5 406.5Q329 423 292 427V29Q329 33 359.5 50Q390 67 411.5 93.5Q433 120 445 154.5Q457 189 457 228Z" glyph-name="oslash" horiz-adv-x="542" unicode="ø" /><glyph d="M271 -12Q223 -12 181 6Q139 24 107.5 56Q76 88 58 132Q40 176 40 228Q40 280 58 324Q76 368 106.5 400.5Q137 433 179 451Q221 469 269 469Q289 469 312 464Q335 459 358 449.5Q381 440 401.5 425Q422 410 437 390Q412 447 374.5 497Q337 547 293 589L202 526Q197 522 191.5 522.5Q186 523 183 528L177 536Q174 541 174.5 546Q175 551 181 555L266 613Q237 639 207.5 661Q178 683 151 700Q147 702 147.5 706Q148 710 152 710L189 713Q198 713 203 710Q221 698 246 679.5Q271 661 299 637L390 699Q395 702 400 702Q405 702 409 696L414 689Q420 679 410 670L326 612Q359 580 390.5 541Q422 502 447.5 455.5Q473 409 488.5 355Q504 301 504 240Q504 184 486 137.5Q468 91 437 58Q406 25 363 6.5Q320 -12 271 -12ZM84 228Q84 186 97.5 149.5Q111 113 136 86Q161 59 195.5 43.5Q230 28 271 28Q312 28 346.5 43.5Q381 59 405.5 86Q430 113 444 149.5Q458 186 458 228Q458 270 444 307Q430 344 405.5 371Q381 398 346.5 413.5Q312 429 271 429Q230 429 195.5 413.5Q161 398 136 371Q111 344 97.5 307Q84 270 84 228Z" glyph-name="eth" horiz-adv-x="547" unicode="ð" /><glyph d="M118 228Q118 186 131.5 149.5Q145 113 169.5 86Q194 59 228.5 43.5Q263 28 304 28Q345 28 379 43.5Q413 59 437.5 86Q462 113 475.5 149.5Q489 186 489 228Q489 270 475.5 306.5Q462 343 437.5 370Q413 397 379 412.5Q345 428 304 428Q263 428 228.5 412.5Q194 397 169.5 370Q145 343 131.5 306.5Q118 270 118 228ZM119 356Q142 405 191.5 436.5Q241 468 305 468Q353 468 395 450Q437 432 468 400Q499 368 517 324Q535 280 535 228Q535 175 517 131Q499 87 468 55.5Q437 24 395 6Q353 -12 305 -12Q241 -12 191.5 19.5Q142 51 119 100V-187Q119 -193 114.5 -197.5Q110 -202 104 -202H90Q84 -202 79.5 -197.5Q75 -193 75 -187V685Q75 691 79.5 695.5Q84 700 90 700H104Q110 700 114.5 695.5Q119 691 119 685Z" glyph-name="thorn" horiz-adv-x="575" unicode="þ" /><glyph d="M75 515Q75 572 92 613.5Q109 655 137.5 682Q166 709 203 722Q240 735 280 735Q325 735 358.5 722Q392 709 414 688Q436 667 446.5 641.5Q457 616 457 592Q457 550 435.5 516.5Q414 483 387.5 455Q361 427 339.5 404Q318 381 318 360Q318 345 332 329Q346 313 367 295.5Q388 278 413 258Q438 238 459 216Q480 194 494 169.5Q508 145 508 118Q508 85 495.5 60.5Q483 36 463 19.5Q443 3 416 -5Q389 -13 361 -13Q340 -13 317.5 -10Q295 -7 278 1Q264 7 269 18L274 32Q279 45 293 40Q307 35 324.5 31Q342 27 361 27Q379 27 397 32Q415 37 429.5 47.5Q444 58 453 74.5Q462 91 462 115Q462 138 448 159.5Q434 181 412.5 200.5Q391 220 366.5 239Q342 258 320.5 277Q299 296 285 315.5Q271 335 271 356Q271 382 293 409Q315 436 342 464.5Q369 493 391 524Q413 555 413 588Q413 606 405.5 625Q398 644 382 660Q366 676 340.5 686Q315 696 278 696Q240 696 210.5 682.5Q181 669 161 645Q141 621 130.5 588Q120 555 120 515V15Q120 9 115.5 4.5Q111 0 105 0H90Q84 0 79.5 4.5Q75 9 75 15V515Z" glyph-name="germandbls" horiz-adv-x="530" unicode="ß" /><glyph d="M144 15Q144 9 139.5 4.5Q135 0 129 0H115Q109 0 104.5 4.5Q100 9 100 15V418H26Q20 418 15.5 422.5Q11 427 11 433V441Q11 447 15.5 451.5Q20 456 26 456H100V576Q100 610 111 635.5Q122 661 140 677.5Q158 694 181 702Q204 710 229 710Q253 710 276 703.5Q299 697 317 684Q327 677 318 665L311 656Q306 650 300 651Q294 652 288 656Q272 665 256.5 668.5Q241 672 228 672Q190 672 167 646.5Q144 621 144 578Z" glyph-name="longs" horiz-adv-x="229" unicode="ſ" /><glyph d="M89 0Q83 0 78.5 4.5Q74 9 74 15V441Q74 447 78.5 451.5Q83 456 89 456H103Q109 456 113.5 451.5Q118 447 118 441V15Q118 9 113.5 4.5Q109 0 103 0Z" glyph-name="dotlessi" horiz-adv-x="192" unicode="ı" /><glyph d="M102 456Q108 456 112.5 451.5Q117 447 117 441V-83Q117 -121 106 -146Q95 -171 77 -187Q59 -203 36 -209.5Q13 -216 -11 -216Q-39 -216 -60.5 -209Q-82 -202 -99 -190Q-104 -187 -104 -182Q-104 -177 -101 -172L-96 -164Q-88 -151 -75 -159Q-60 -169 -42.5 -174Q-25 -179 -12 -179Q26 -179 49.5 -157.5Q73 -136 73 -85V441Q73 447 77.5 451.5Q82 456 88 456Z" glyph-name="dotlessj" horiz-adv-x="192" unicode="ȷ" /><glyph d="M144 15Q144 9 139.5 4.5Q135 0 129 0H115Q109 0 104.5 4.5Q100 9 100 15V418H26Q20 418 15.5 422.5Q11 427 11 433V441Q11 447 15.5 451.5Q20 456 26 456H100V576Q100 610 111 635.5Q122 661 140 677.5Q158 694 181.5 702Q205 710 229 710Q253 710 276 703.5Q299 697 317 684Q322 681 322 675.5Q322 670 319 665L312 657Q307 651 300.5 651.5Q294 652 288 656Q272 665 256.5 668.5Q241 672 228 672Q190 672 167 646.5Q144 621 144 578V456H353Q359 456 363.5 451.5Q368 447 368 441V15Q368 9 363.5 4.5Q359 0 353 0H339Q333 0 328.5 4.5Q324 9 324 15V418H144Z" glyph-name="fi" horiz-adv-x="442" unicode="ﬁ" /><glyph d="M324 685Q324 691 328.5 695.5Q333 700 339 700H353Q359 700 363.5 695.5Q368 691 368 685V109Q368 74 384 56Q400 38 437 38H458Q464 38 468.5 33.5Q473 29 473 23V15Q473 9 468.5 4.5Q464 0 458 0H431Q409 0 389.5 5.5Q370 11 355.5 23.5Q341 36 332.5 57Q324 78 324 108V418H144V15Q144 9 139.5 4.5Q135 0 129 0H115Q109 0 104.5 4.5Q100 9 100 15V418H26Q20 418 15.5 422.5Q11 427 11 433V441Q11 447 15.5 451.5Q20 456 26 456H100V576Q100 610 110.5 633.5Q121 657 138.5 672Q156 687 177.5 693.5Q199 700 222 700H237Q250 700 250 687V673Q250 662 239 662H226Q144 661 144 578V456H324Z" glyph-name="fl" horiz-adv-x="474" unicode="ﬂ" /><glyph d="M368 456 474 456Q480 456 484.5 451.5Q489 447 489 441V433Q489 427 484.5 422.5Q480 418 474 418H368V15Q368 9 363.5 4.5Q359 0 353 0H339Q333 0 328.5 4.5Q324 9 324 15V418H144V15Q144 9 139.5 4.5Q135 0 129 0H115Q109 0 104.5 4.5Q100 9 100 15V418H26Q20 418 15.5 422.5Q11 427 11 433V441Q11 447 15.5 451.5Q20 456 26 456H100V576Q100 610 110.5 633.5Q121 657 138.5 672Q156 687 177.5 693.5Q199 700 222 700H237Q250 700 250 687V673Q250 662 239 662H226Q144 661 144 578V456H324V576Q324 610 335 635.5Q346 661 364 677.5Q382 694 405 702Q428 710 453 710Q477 710 500 703.5Q523 697 541 684Q551 677 542 665L535 656Q530 650 524 651Q518 652 512 656Q496 665 480.5 668.5Q465 672 452 672Q414 672 391 646.5Q368 621 368 578Z" glyph-name="f_f" horiz-adv-x="497" unicode="ﬀ" /><glyph d="M324 576Q324 610 335 635.5Q346 661 364 677.5Q382 694 405 702Q428 710 453 710Q477 710 500 703.5Q523 697 541 684Q551 677 542 665L535 656Q530 650 524 651Q518 652 512 656Q496 665 480.5 668.5Q465 672 452 672Q414 672 391 646.5Q368 621 368 578V456H577Q583 456 587.5 451.5Q592 447 592 441V15Q592 9 587.5 4.5Q583 0 577 0H563Q557 0 552.5 4.5Q548 9 548 15V418H368V15Q368 9 363.5 4.5Q359 0 353 0H339Q333 0 328.5 4.5Q324 9 324 15V418H144V15Q144 9 139.5 4.5Q135 0 129 0H115Q109 0 104.5 4.5Q100 9 100 15V418H26Q20 418 15.5 422.5Q11 427 11 433V441Q11 447 15.5 451.5Q20 456 26 456H100V576Q100 610 110.5 633.5Q121 657 138.5 672Q156 687 177.5 693.5Q199 700 222 700H237Q250 700 250 687V673Q250 662 239 662H226Q144 661 144 578V456H324V576Z" glyph-name="f_f_i" horiz-adv-x="666" unicode="ﬃ" /><glyph d="M324 685Q324 691 328.5 695.5Q333 700 339 700H353Q359 700 363.5 695.5Q368 691 368 685V356Q391 405 440.5 436.5Q490 468 554 468Q602 468 644 450Q686 432 717 399.5Q748 367 766 323Q784 279 784 227Q784 175 766 131Q748 87 717 55.5Q686 24 644 6Q602 -12 554 -12Q490 -12 441 19.5Q392 51 368 100V15Q368 9 363.5 4.5Q359 0 353 0H339Q333 0 328.5 4.5Q324 9 324 15V418H144V15Q144 9 139.5 4.5Q135 0 129 0H115Q109 0 104.5 4.5Q100 9 100 15V418H26Q20 418 15.5 422.5Q11 427 11 433V441Q11 447 15.5 451.5Q20 456 26 456H100V576Q100 610 110.5 633.5Q121 657 138.5 672Q156 687 177.5 693.5Q199 700 222 700H237Q250 700 250 687V673Q250 662 239 662H226Q144 661 144 578V456H324ZM367 227Q367 185 380.5 148.5Q394 112 419 85.5Q444 59 478 43.5Q512 28 553 28Q594 28 628 43.5Q662 59 687 85.5Q712 112 725.5 148.5Q739 185 739 227Q739 269 725.5 306Q712 343 687 370Q662 397 628 412.5Q594 428 553 428Q512 428 478 412.5Q444 397 419 370Q394 343 380.5 306Q367 269 367 227Z" glyph-name="f_b" horiz-adv-x="824" unicode="" /><glyph d="M1008 227Q1008 175 990 131Q972 87 941 55.5Q910 24 868 6Q826 -12 778 -12Q714 -12 665 19.5Q616 51 592 100V15Q592 9 587.5 4.5Q583 0 577 0H563Q557 0 552.5 4.5Q548 9 548 15V418H368V15Q368 9 363.5 4.5Q359 0 353 0H339Q333 0 328.5 4.5Q324 9 324 15V418H144V15Q144 9 139.5 4.5Q135 0 129 0H115Q109 0 104.5 4.5Q100 9 100 15V418H26Q20 418 15.5 422.5Q11 427 11 433V441Q11 447 15.5 451.5Q20 456 26 456H100V576Q100 610 110.5 633.5Q121 657 138.5 672Q156 687 177.5 693.5Q199 700 222 700H237Q250 700 250 687V673Q250 662 239 662H226Q144 661 144 578V456H324V576Q324 610 334.5 633.5Q345 657 362.5 672Q380 687 401.5 693.5Q423 700 446 700H461Q474 700 474 687V673Q474 662 463 662H450Q368 661 368 578V456H548V685Q548 691 552.5 695.5Q557 700 563 700H577Q583 700 587.5 695.5Q592 691 592 685V356Q615 405 664.5 436.5Q714 468 778 468Q826 468 868 450Q910 432 941 399.5Q972 367 990 323Q1008 279 1008 227ZM591 227Q591 185 604.5 148.5Q618 112 643 85.5Q668 59 702 43.5Q736 28 777 28Q818 28 852 43.5Q886 59 911 85.5Q936 112 949.5 148.5Q963 185 963 227Q963 269 949.5 306Q936 343 911 370Q886 397 852 412.5Q818 428 777 428Q736 428 702 412.5Q668 397 643 370Q618 343 604.5 306Q591 269 591 227Z" glyph-name="f_f_b" horiz-adv-x="1048" unicode="" /><glyph d="M592 456 698 456Q704 456 708.5 451.5Q713 447 713 441V433Q713 427 708.5 422.5Q704 418 698 418H592V15Q592 9 587.5 4.5Q583 0 577 0H563Q557 0 552.5 4.5Q548 9 548 15V418H368V15Q368 9 363.5 4.5Q359 0 353 0H339Q333 0 328.5 4.5Q324 9 324 15V418H144V15Q144 9 139.5 4.5Q135 0 129 0H115Q109 0 104.5 4.5Q100 9 100 15V418H26Q20 418 15.5 422.5Q11 427 11 433V441Q11 447 15.5 451.5Q20 456 26 456H100V576Q100 610 110.5 633.5Q121 657 138.5 672Q156 687 177.5 693.5Q199 700 222 700H237Q250 700 250 687V673Q250 662 239 662H226Q144 661 144 578V456H324V576Q324 610 334.5 633.5Q345 657 362.5 672Q380 687 401.5 693.5Q423 700 446 700H461Q474 700 474 687V673Q474 662 463 662H450Q368 661 368 578V456H548V576Q548 610 559 635.5Q570 661 588 677.5Q606 694 629 702Q652 710 677 710Q701 710 724 703.5Q747 697 765 684Q775 677 766 665L759 656Q754 650 748 651Q742 652 736 656Q720 665 704.5 668.5Q689 672 676 672Q638 672 615 646.5Q592 621 592 578Z" glyph-name="f_f_f" horiz-adv-x="721" unicode="" /><glyph d="M548 456 548 685Q548 691 552.5 695.5Q557 700 563 700H577Q583 700 587.5 695.5Q592 691 592 685V365Q612 411 658 439.5Q704 468 767 468Q813 468 849.5 453.5Q886 439 911.5 413Q937 387 950.5 350.5Q964 314 964 269V15Q964 9 959.5 4.5Q955 0 949 0H935Q929 0 924.5 4.5Q920 9 920 15V261Q920 340 879.5 384.5Q839 429 761 429Q722 429 690.5 416.5Q659 404 637.5 381.5Q616 359 604 328.5Q592 298 592 261V15Q592 9 587.5 4.5Q583 0 577 0H563Q557 0 552.5 4.5Q548 9 548 15V418H368V15Q368 9 363.5 4.5Q359 0 353 0H339Q333 0 328.5 4.5Q324 9 324 15V418H144V15Q144 9 139.5 4.5Q135 0 129 0H115Q109 0 104.5 4.5Q100 9 100 15V418H26Q20 418 15.5 422.5Q11 427 11 433V441Q11 447 15.5 451.5Q20 456 26 456H100V576Q100 610 110.5 633.5Q121 657 138.5 672Q156 687 177.5 693.5Q199 700 222 700H237Q250 700 250 687V673Q250 662 239 662H226Q144 661 144 578V456H324V576Q324 610 334.5 633.5Q345 657 362.5 672Q380 687 401.5 693.5Q423 700 446 700H461Q474 700 474 687V673Q474 662 463 662H450Q368 661 368 578V456Z" glyph-name="f_f_h" horiz-adv-x="1031" unicode="" /><glyph d="M368 456 577 456Q583 456 587.5 451.5Q592 447 592 441V-83Q592 -121 581 -146Q570 -171 552 -187Q534 -203 511 -209.5Q488 -216 464 -216Q436 -216 414.5 -209Q393 -202 376 -190Q371 -187 371 -182Q371 -177 374 -172L379 -164Q387 -151 400 -159Q415 -169 432.5 -174Q450 -179 463 -179Q501 -179 524.5 -157.5Q548 -136 548 -85V418H368V15Q368 9 363.5 4.5Q359 0 353 0H339Q333 0 328.5 4.5Q324 9 324 15V418H144V15Q144 9 139.5 4.5Q135 0 129 0H115Q109 0 104.5 4.5Q100 9 100 15V418H26Q20 418 15.5 422.5Q11 427 11 433V441Q11 447 15.5 451.5Q20 456 26 456H100V576Q100 610 110.5 633.5Q121 657 138.5 672Q156 687 177.5 693.5Q199 700 222 700H237Q250 700 250 687V673Q250 662 239 662H226Q144 661 144 578V456H324V576Q324 610 335 635.5Q346 661 364 677.5Q382 694 405 702Q428 710 453 710Q477 710 500 703.5Q523 697 541 684Q551 677 542 665L535 656Q530 650 524 651Q518 652 512 656Q496 665 480.5 668.5Q465 672 452 672Q414 672 391 646.5Q368 621 368 578Z" glyph-name="f_f_j" horiz-adv-x="666" unicode="" /><glyph d="M144 15Q144 9 139.5 4.5Q135 0 129 0H115Q109 0 104.5 4.5Q100 9 100 15V418H26Q20 418 15.5 422.5Q11 427 11 433V441Q11 447 15.5 451.5Q20 456 26 456H100V576Q100 610 110.5 633.5Q121 657 138.5 672Q156 687 177.5 693.5Q199 700 222 700H237Q250 700 250 687V673Q250 662 239 662H226Q144 661 144 578V456H324V576Q324 610 334.5 633.5Q345 657 362.5 672Q380 687 401.5 693.5Q423 700 446 700H461Q474 700 474 687V673Q474 662 463 662H450Q368 661 368 578V456H548V685Q548 691 552.5 695.5Q557 700 563 700H577Q583 700 587.5 695.5Q592 691 592 685V276H641L830 449Q839 456 844 456H882Q886 456 887.5 452.5Q889 449 886 446L675 257L918 11Q921 8 920 4Q919 0 914 0H885Q870 0 859 11L637 238H592V15Q592 9 587.5 4.5Q583 0 577 0H563Q557 0 552.5 4.5Q548 9 548 15V418H368V15Q368 9 363.5 4.5Q359 0 353 0H339Q333 0 328.5 4.5Q324 9 324 15V418H144V15Z" glyph-name="f_f_k" horiz-adv-x="918" unicode="" /><glyph d="M548 685Q548 691 552.5 695.5Q557 700 563 700H577Q583 700 587.5 695.5Q592 691 592 685V109Q592 74 608 56Q624 38 661 38H682Q688 38 692.5 33.5Q697 29 697 23V15Q697 9 692.5 4.5Q688 0 682 0H655Q633 0 613.5 5.5Q594 11 579.5 23.5Q565 36 556.5 57Q548 78 548 108V418H368V15Q368 9 363.5 4.5Q359 0 353 0H339Q333 0 328.5 4.5Q324 9 324 15V418H144V15Q144 9 139.5 4.5Q135 0 129 0H115Q109 0 104.5 4.5Q100 9 100 15V418H26Q20 418 15.5 422.5Q11 427 11 433V441Q11 447 15.5 451.5Q20 456 26 456H100V576Q100 610 110.5 633.5Q121 657 138.5 672Q156 687 177.5 693.5Q199 700 222 700H237Q250 700 250 687V673Q250 662 239 662H226Q144 661 144 578V456H324V576Q324 610 334.5 633.5Q345 657 362.5 672Q380 687 401.5 693.5Q423 700 446 700H461Q474 700 474 687V673Q474 662 463 662H450Q368 661 368 578V456H548Z" glyph-name="f_f_l" horiz-adv-x="698" unicode="ﬄ" /><glyph d="M592 127Q592 84 612 58.5Q632 33 673 33Q705 33 738 51Q746 56 751.5 56Q757 56 762 49L768 39Q775 29 765 22Q751 11 726.5 3Q702 -5 669 -5Q646 -5 624.5 2Q603 9 586 24.5Q569 40 558.5 64.5Q548 89 548 123V418H368V15Q368 9 363.5 4.5Q359 0 353 0H339Q333 0 328.5 4.5Q324 9 324 15V418H144V15Q144 9 139.5 4.5Q135 0 129 0H115Q109 0 104.5 4.5Q100 9 100 15V418H26Q20 418 15.5 422.5Q11 427 11 433V441Q11 447 15.5 451.5Q20 456 26 456H100V576Q100 610 110.5 633.5Q121 657 138.5 672Q156 687 177.5 693.5Q199 700 222 700H237Q250 700 250 687V673Q250 662 239 662H226Q144 661 144 578V456H324V576Q324 610 334.5 633.5Q345 657 362.5 672Q380 687 401.5 693.5Q423 700 446 700H461Q474 700 474 687V673Q474 662 463 662H450Q368 661 368 578V456H548V615Q548 621 552.5 625.5Q557 630 563 630H577Q583 630 587.5 625.5Q592 621 592 615V456H744Q750 456 754.5 451.5Q759 447 759 441V433Q759 427 754.5 422.5Q750 418 744 418H592V127Z" glyph-name="f_f_t" horiz-adv-x="777" unicode="" /><glyph d="M324 456 324 685Q324 691 328.5 695.5Q333 700 339 700H353Q359 700 363.5 695.5Q368 691 368 685V365Q388 411 434 439.5Q480 468 543 468Q589 468 625.5 453.5Q662 439 687.5 413Q713 387 726.5 350.5Q740 314 740 269V15Q740 9 735.5 4.5Q731 0 725 0H711Q705 0 700.5 4.5Q696 9 696 15V261Q696 340 655.5 384.5Q615 429 537 429Q498 429 466.5 416.5Q435 404 413.5 381.5Q392 359 380 328.5Q368 298 368 261V15Q368 9 363.5 4.5Q359 0 353 0H339Q333 0 328.5 4.5Q324 9 324 15V418H144V15Q144 9 139.5 4.5Q135 0 129 0H115Q109 0 104.5 4.5Q100 9 100 15V418H26Q20 418 15.5 422.5Q11 427 11 433V441Q11 447 15.5 451.5Q20 456 26 456H100V576Q100 610 110.5 633.5Q121 657 138.5 672Q156 687 177.5 693.5Q199 700 222 700H237Q250 700 250 687V673Q250 662 239 662H226Q144 661 144 578V456Z" glyph-name="f_h" horiz-adv-x="807" unicode="" /><glyph d="M144 456 353 456Q359 456 363.5 451.5Q368 447 368 441V-83Q368 -121 357 -146Q346 -171 328 -187Q310 -203 287 -209.5Q264 -216 240 -216Q212 -216 190.5 -209Q169 -202 152 -190Q147 -187 147 -182Q147 -177 150 -172L155 -164Q163 -151 176 -159Q191 -169 208.5 -174Q226 -179 239 -179Q277 -179 300.5 -157.5Q324 -136 324 -85V418H144V15Q144 9 139.5 4.5Q135 0 129 0H115Q109 0 104.5 4.5Q100 9 100 15V418H26Q20 418 15.5 422.5Q11 427 11 433V441Q11 447 15.5 451.5Q20 456 26 456H100V576Q100 610 111 635.5Q122 661 140 677.5Q158 694 181 702Q204 710 229 710Q253 710 276 703.5Q299 697 317 684Q327 677 318 665L311 656Q306 650 300 651Q294 652 288 656Q272 665 256.5 668.5Q241 672 228 672Q190 672 167 646.5Q144 621 144 578Z" glyph-name="f_j" horiz-adv-x="442" unicode="" /><glyph d="M144 15Q144 9 139.5 4.5Q135 0 129 0H115Q109 0 104.5 4.5Q100 9 100 15V418H26Q20 418 15.5 422.5Q11 427 11 433V441Q11 447 15.5 451.5Q20 456 26 456H100V576Q100 610 110.5 633.5Q121 657 138.5 672Q156 687 177.5 693.5Q199 700 222 700H237Q250 700 250 687V673Q250 662 239 662H226Q144 661 144 578V456H324V685Q324 691 328.5 695.5Q333 700 339 700H353Q359 700 363.5 695.5Q368 691 368 685V276H417L606 449Q615 456 620 456H658Q662 456 663.5 452.5Q665 449 662 446L451 257L694 11Q697 8 696 4Q695 0 690 0H661Q646 0 635 11L413 238H368V15Q368 9 363.5 4.5Q359 0 353 0H339Q333 0 328.5 4.5Q324 9 324 15V418H144V15Z" glyph-name="f_k" horiz-adv-x="694" unicode="" /><glyph d="M344 418 144 418V15Q144 9 139.5 4.5Q135 0 129 0H115Q109 0 104.5 4.5Q100 9 100 15V418H26Q20 418 15.5 422.5Q11 427 11 433V441Q11 447 15.5 451.5Q20 456 26 456H100V576Q100 610 110.5 633.5Q121 657 138.5 672Q156 687 177.5 693.5Q199 700 222 700H237Q250 700 250 687V673Q250 662 239 662H226Q144 661 144 578V456H344V615Q344 621 348.5 625.5Q353 630 359 630H373Q379 630 383.5 625.5Q388 621 388 615V456H540Q546 456 550.5 451.5Q555 447 555 441V433Q555 427 550.5 422.5Q546 418 540 418H388V127Q388 84 408 58.5Q428 33 469 33Q501 33 534 51Q542 56 547.5 56Q553 56 558 49L564 39Q571 29 561 22Q547 11 522.5 3Q498 -5 465 -5Q442 -5 420.5 2Q399 9 382 24.5Q365 40 354.5 64.5Q344 89 344 123Z" glyph-name="f_t" horiz-adv-x="573" unicode="" /><glyph d="M527 -5Q503 -5 480.5 2.5Q458 10 440.5 25.5Q423 41 412.5 65.5Q402 90 402 124V418H142V127Q142 84 165.5 58.5Q189 33 227 33Q241 33 256 36.5Q271 40 287 49Q303 59 312 48L318 39Q325 28 315 21Q297 8 274.5 1.5Q252 -5 223 -5Q199 -5 176.5 2.5Q154 10 136.5 25.5Q119 41 108.5 65.5Q98 90 98 124V418H24Q18 418 13.5 422.5Q9 427 9 433V441Q9 447 13.5 451.5Q18 456 24 456H98V615Q98 621 102.5 625.5Q107 630 113 630H127Q133 630 137.5 625.5Q142 621 142 615V456H402V615Q402 621 406.5 625.5Q411 630 417 630H431Q437 630 441.5 625.5Q446 621 446 615V456H598Q604 456 608.5 451.5Q613 447 613 441V433Q613 427 608.5 422.5Q604 418 598 418H446V127Q446 84 469.5 58.5Q493 33 531 33Q545 33 560 36.5Q575 40 591 49Q607 59 616 48L622 39Q629 28 619 21Q601 8 578.5 1.5Q556 -5 527 -5Z" glyph-name="t_t" horiz-adv-x="631" unicode="" /><glyph d="M487 216 139 216L63 14Q58 0 46 0H25Q19 0 16.5 4.5Q14 9 16 14L276 686Q281 700 295 700H334Q348 700 353 686L614 14Q619 0 605 0H582Q569 0 564 14ZM154 255 472 255L316 666H310ZM411 920Q416 920 418.5 916Q421 912 419 907L349 780Q346 774 342.5 770.5Q339 767 332 767H316Q303 767 308 779L364 906Q367 914 371.5 917Q376 920 385 920H411Z" glyph-name="Aacute" horiz-adv-x="630" unicode="Á" /><glyph d="M487 216 139 216L63 14Q58 0 46 0H25Q19 0 16.5 4.5Q14 9 16 14L276 686Q281 700 295 700H334Q348 700 353 686L614 14Q619 0 605 0H582Q569 0 564 14ZM154 255 472 255L316 666H310ZM320 920Q329 920 333.5 917Q338 914 343 907L432 780Q435 775 432.5 771Q430 767 425 767H408Q396 767 389 777L315 876L241 777Q232 767 222 767H205Q199 767 196.5 771Q194 775 198 780L287 907Q291 914 295.5 917Q300 920 311 920Z" glyph-name="Acircumflex" horiz-adv-x="630" unicode="Â" /><glyph d="M487 216 139 216L63 14Q58 0 46 0H25Q19 0 16.5 4.5Q14 9 16 14L276 686Q281 700 295 700H334Q348 700 353 686L614 14Q619 0 605 0H582Q569 0 564 14ZM154 255 472 255L316 666H310ZM356 808Q356 822 366 832Q376 842 390 842Q404 842 414 832Q424 822 424 808Q424 794 414 784Q404 774 390 774Q376 774 366 784Q356 794 356 808ZM205 808Q205 822 215 832Q225 842 239 842Q253 842 263 832Q273 822 273 808Q273 794 263 784Q253 774 239 774Q225 774 215 784Q205 794 205 808Z" glyph-name="Adieresis" horiz-adv-x="630" unicode="Ä" /><glyph d="M487 216 139 216L63 14Q58 0 46 0H25Q19 0 16.5 4.5Q14 9 16 14L276 686Q281 700 295 700H334Q348 700 353 686L614 14Q619 0 605 0H582Q569 0 564 14ZM154 255 472 255L316 666H310ZM249 920Q258 920 262.5 917Q267 914 270 906L326 779Q331 767 318 767H302Q291 767 285 780L215 907Q213 912 215.5 916Q218 920 223 920Z" glyph-name="Agrave" horiz-adv-x="630" unicode="À" /><glyph d="M487 216 139 216L63 14Q58 0 46 0H25Q19 0 16.5 4.5Q14 9 16 14L276 686Q281 700 295 700H334Q348 700 353 686L614 14Q619 0 605 0H582Q569 0 564 14ZM154 255 472 255L316 666H310ZM414 846Q413 803 384 775.5Q355 748 315 748Q275 748 246 775.5Q217 803 216 846Q217 889 246 916.5Q275 944 315 944Q355 944 384 916.5Q413 889 414 846ZM375 846Q375 872 358.5 890.5Q342 909 315 909Q288 909 271.5 890.5Q255 872 255 846Q255 820 271.5 801.5Q288 783 315 783Q342 783 358.5 801.5Q375 820 375 846Z" glyph-name="Aring" horiz-adv-x="630" unicode="Å" /><glyph d="M487 216 139 216L63 14Q58 0 46 0H25Q19 0 16.5 4.5Q14 9 16 14L276 686Q281 700 295 700H334Q348 700 353 686L614 14Q619 0 605 0H582Q569 0 564 14ZM154 255 472 255L316 666H310ZM373 782Q360 782 343.5 787.5Q327 793 310.5 799.5Q294 806 279.5 811.5Q265 817 257 817Q247 817 240.5 812.5Q234 808 226 793Q218 779 206 785L199 788Q194 790 191.5 795.5Q189 801 191 806Q199 826 215.5 841.5Q232 857 258 857Q271 857 287.5 851.5Q304 846 320.5 839.5Q337 833 351.5 827.5Q366 822 374 822Q384 822 390.5 826.5Q397 831 405 846Q413 860 425 854L432 851Q437 849 439.5 843.5Q442 838 440 833Q432 813 415.5 797.5Q399 782 373 782Z" glyph-name="Atilde" horiz-adv-x="630" unicode="Ã" /><glyph d="M487 216 139 216L63 14Q58 0 46 0H25Q19 0 16.5 4.5Q14 9 16 14L276 686Q281 700 295 700H334Q348 700 353 686L614 14Q619 0 605 0H582Q569 0 564 14ZM154 255 472 255L316 666H310ZM315 762Q269 762 241 786.5Q213 811 213 853V858Q213 869 224 869H240Q251 869 251 858V856Q251 827 269.5 812.5Q288 798 315 798Q342 798 360.5 812.5Q379 827 379 856V858Q379 869 390 869H406Q417 869 417 858V853Q417 811 389 786.5Q361 762 315 762Z" glyph-name="Abreve" horiz-adv-x="630" unicode="Ă" /><glyph d="M487 216 139 216L63 14Q58 0 46 0H25Q19 0 16.5 4.5Q14 9 16 14L276 686Q281 700 295 700H334Q348 700 353 686L614 14Q619 0 605 0H582Q569 0 564 14ZM154 255 472 255L316 666H310ZM215 790Q209 790 204.5 794.5Q200 799 200 805V812Q200 818 204.5 822.5Q209 827 215 827H415Q421 827 425.5 822.5Q430 818 430 812V805Q430 799 425.5 794.5Q421 790 415 790Z" glyph-name="Amacron" horiz-adv-x="630" unicode="Ā" /><glyph d="M487 216 139 216L63 14Q58 0 46 0H25Q19 0 16.5 4.5Q14 9 16 14L276 686Q281 700 295 700H334Q348 700 353 686L614 14Q619 0 605 0H582Q569 0 564 14ZM154 255 472 255L316 666H310ZM504 -117Q504 -98 513 -78.5Q522 -59 535 -42Q548 -25 563 -11Q578 3 590 12L607 10L610 1Q598 -11 586.5 -26.5Q575 -42 566 -57.5Q557 -73 551.5 -87.5Q546 -102 546 -113Q546 -133 557 -142Q568 -151 587 -151Q601 -151 616 -147Q621 -145 624.5 -148.5Q628 -152 627 -157L626 -167Q626 -172 620.5 -175Q615 -178 607.5 -180Q600 -182 592 -183Q584 -184 578 -184Q542 -184 523 -165Q504 -146 504 -117Z" glyph-name="Aogonek" horiz-adv-x="630" unicode="Ą" /><glyph d="M394 -12Q321 -12 257.5 15Q194 42 146.5 90Q99 138 71.5 204.5Q44 271 44 350Q44 429 71.5 495.5Q99 562 146.5 610Q194 658 258 685Q322 712 394 712Q448 712 499 697Q550 682 593 653.5Q636 625 668.5 584Q701 543 719 492Q721 487 718 482.5Q715 478 709 478H688Q677 478 672 492Q636 578 564.5 625Q493 672 394 672Q328 672 272 647.5Q216 623 175.5 580Q135 537 112.5 478Q90 419 90 350Q90 281 112.5 222Q135 163 175.5 120Q216 77 272 52.5Q328 28 394 28Q493 28 564.5 75Q636 122 672 208Q677 222 688 222H709Q715 222 718 217.5Q721 213 719 208Q701 157 668.5 116Q636 75 593 46.5Q550 18 499 3Q448 -12 394 -12ZM420 0 363 -129Q357 -143 346 -143H330Q325 -143 322 -139.5Q319 -136 322 -129L376 0Z" glyph-name="Ccedilla" horiz-adv-x="750" unicode="Ç" /><glyph d="M394 -12Q321 -12 257.5 15Q194 42 146.5 90Q99 138 71.5 204.5Q44 271 44 350Q44 429 71.5 495.5Q99 562 146.5 610Q194 658 258 685Q322 712 394 712Q448 712 499 697Q550 682 593 653.5Q636 625 668.5 584Q701 543 719 492Q721 487 718 482.5Q715 478 709 478H688Q677 478 672 492Q636 578 564.5 625Q493 672 394 672Q328 672 272 647.5Q216 623 175.5 580Q135 537 112.5 478Q90 419 90 350Q90 281 112.5 222Q135 163 175.5 120Q216 77 272 52.5Q328 28 394 28Q493 28 564.5 75Q636 122 672 208Q677 222 688 222H709Q715 222 718 217.5Q721 213 719 208Q701 157 668.5 116Q636 75 593 46.5Q550 18 499 3Q448 -12 394 -12ZM476 920Q481 920 483.5 916Q486 912 484 907L414 780Q411 774 407.5 770.5Q404 767 397 767H381Q368 767 373 779L429 906Q432 914 436.5 917Q441 920 450 920H476Z" glyph-name="Cacute" horiz-adv-x="750" unicode="Ć" /><glyph d="M394 -12Q321 -12 257.5 15Q194 42 146.5 90Q99 138 71.5 204.5Q44 271 44 350Q44 429 71.5 495.5Q99 562 146.5 610Q194 658 258 685Q322 712 394 712Q448 712 499 697Q550 682 593 653.5Q636 625 668.5 584Q701 543 719 492Q721 487 718 482.5Q715 478 709 478H688Q677 478 672 492Q636 578 564.5 625Q493 672 394 672Q328 672 272 647.5Q216 623 175.5 580Q135 537 112.5 478Q90 419 90 350Q90 281 112.5 222Q135 163 175.5 120Q216 77 272 52.5Q328 28 394 28Q493 28 564.5 75Q636 122 672 208Q677 222 688 222H709Q715 222 718 217.5Q721 213 719 208Q701 157 668.5 116Q636 75 593 46.5Q550 18 499 3Q448 -12 394 -12ZM376 767Q365 767 360.5 770Q356 773 352 780L263 907Q259 912 261.5 916Q264 920 270 920H287Q297 920 306 910L380 811L454 910Q461 920 473 920H490Q495 920 497.5 916Q500 912 497 907L408 780Q403 773 398.5 770Q394 767 385 767H376Z" glyph-name="Ccaron" horiz-adv-x="750" unicode="Č" /><glyph d="M394 -12Q321 -12 257.5 15Q194 42 146.5 90Q99 138 71.5 204.5Q44 271 44 350Q44 429 71.5 495.5Q99 562 146.5 610Q194 658 258 685Q322 712 394 712Q448 712 499 697Q550 682 593 653.5Q636 625 668.5 584Q701 543 719 492Q721 487 718 482.5Q715 478 709 478H688Q677 478 672 492Q636 578 564.5 625Q493 672 394 672Q328 672 272 647.5Q216 623 175.5 580Q135 537 112.5 478Q90 419 90 350Q90 281 112.5 222Q135 163 175.5 120Q216 77 272 52.5Q328 28 394 28Q493 28 564.5 75Q636 122 672 208Q677 222 688 222H709Q715 222 718 217.5Q721 213 719 208Q701 157 668.5 116Q636 75 593 46.5Q550 18 499 3Q448 -12 394 -12ZM385 920Q394 920 398.5 917Q403 914 408 907L497 780Q500 775 497.5 771Q495 767 490 767H473Q461 767 454 777L380 876L306 777Q297 767 287 767H270Q264 767 261.5 771Q259 775 263 780L352 907Q356 914 360.5 917Q365 920 376 920Z" glyph-name="Ccircumflex" horiz-adv-x="750" unicode="Ĉ" /><glyph d="M394 -12Q321 -12 257.5 15Q194 42 146.5 90Q99 138 71.5 204.5Q44 271 44 350Q44 429 71.5 495.5Q99 562 146.5 610Q194 658 258 685Q322 712 394 712Q448 712 499 697Q550 682 593 653.5Q636 625 668.5 584Q701 543 719 492Q721 487 718 482.5Q715 478 709 478H688Q677 478 672 492Q636 578 564.5 625Q493 672 394 672Q328 672 272 647.5Q216 623 175.5 580Q135 537 112.5 478Q90 419 90 350Q90 281 112.5 222Q135 163 175.5 120Q216 77 272 52.5Q328 28 394 28Q493 28 564.5 75Q636 122 672 208Q677 222 688 222H709Q715 222 718 217.5Q721 213 719 208Q701 157 668.5 116Q636 75 593 46.5Q550 18 499 3Q448 -12 394 -12ZM380 789Q365 789 354 800Q343 811 343 827Q343 842 354 853Q365 864 380 864Q395 864 406 853Q417 842 417 827Q417 811 406 800Q395 789 380 789Z" glyph-name="Cdotaccent" horiz-adv-x="750" unicode="Ċ" /><glyph d="M303 700Q397 700 467.5 674Q538 648 585.5 601.5Q633 555 657 490.5Q681 426 681 350Q681 273 657 209Q633 145 585.5 98.5Q538 52 467.5 26Q397 0 303 0H111Q105 0 100.5 4.5Q96 9 96 15V685Q96 691 100.5 695.5Q105 700 111 700ZM307 40Q380 40 440.5 60Q501 80 544.5 119Q588 158 611.5 216Q635 274 635 350Q635 426 611.5 484Q588 542 544.5 581Q501 620 440.5 640Q380 660 307 660H141V40ZM362 767Q351 767 346.5 770Q342 773 338 780L249 907Q245 912 247.5 916Q250 920 256 920H273Q283 920 292 910L366 811L440 910Q447 920 459 920H476Q481 920 483.5 916Q486 912 483 907L394 780Q389 773 384.5 770Q380 767 371 767H362Z" glyph-name="Dcaron" horiz-adv-x="727" unicode="Ď" /><glyph d="M118 0Q112 0 107.5 4.5Q103 9 103 15V336H15Q9 336 4.5 340.5Q0 345 0 351V361Q0 367 4.5 371.5Q9 376 15 376H103V685Q103 691 107.5 695.5Q112 700 118 700H310Q404 700 474.5 674Q545 648 592.5 601.5Q640 555 664 490.5Q688 426 688 350Q688 273 664 209Q640 145 592.5 98.5Q545 52 474.5 26Q404 0 310 0ZM314 40Q387 40 447.5 60Q508 80 551.5 119Q595 158 618.5 216Q642 274 642 350Q642 426 618.5 484Q595 542 551.5 581Q508 620 447.5 640Q387 660 314 660H148V376H375Q381 376 385.5 371.5Q390 367 390 361V351Q390 345 385.5 340.5Q381 336 375 336H148V40Z" glyph-name="Dcroat" horiz-adv-x="734" unicode="Đ" /><glyph d="M558 700Q564 700 568.5 695.5Q573 691 573 685V673Q573 667 568.5 662.5Q564 658 558 658H141V376H354Q360 376 364.5 371.5Q369 367 369 361V351Q369 345 364.5 340.5Q360 336 354 336H141V42H558Q564 42 568.5 37.5Q573 33 573 27V15Q573 9 568.5 4.5Q564 0 558 0H111Q105 0 100.5 4.5Q96 9 96 15V685Q96 691 100.5 695.5Q105 700 111 700ZM421 920Q426 920 428.5 916Q431 912 429 907L359 780Q356 774 352.5 770.5Q349 767 342 767H326Q313 767 318 779L374 906Q377 914 381.5 917Q386 920 395 920H421Z" glyph-name="Eacute" horiz-adv-x="603" unicode="É" /><glyph d="M558 700Q564 700 568.5 695.5Q573 691 573 685V673Q573 667 568.5 662.5Q564 658 558 658H141V376H354Q360 376 364.5 371.5Q369 367 369 361V351Q369 345 364.5 340.5Q360 336 354 336H141V42H558Q564 42 568.5 37.5Q573 33 573 27V15Q573 9 568.5 4.5Q564 0 558 0H111Q105 0 100.5 4.5Q96 9 96 15V685Q96 691 100.5 695.5Q105 700 111 700ZM330 920Q339 920 343.5 917Q348 914 353 907L442 780Q445 775 442.5 771Q440 767 435 767H418Q406 767 399 777L325 876L251 777Q242 767 232 767H215Q209 767 206.5 771Q204 775 208 780L297 907Q301 914 305.5 917Q310 920 321 920Z" glyph-name="Ecircumflex" horiz-adv-x="603" unicode="Ê" /><glyph d="M558 700Q564 700 568.5 695.5Q573 691 573 685V673Q573 667 568.5 662.5Q564 658 558 658H141V376H354Q360 376 364.5 371.5Q369 367 369 361V351Q369 345 364.5 340.5Q360 336 354 336H141V42H558Q564 42 568.5 37.5Q573 33 573 27V15Q573 9 568.5 4.5Q564 0 558 0H111Q105 0 100.5 4.5Q96 9 96 15V685Q96 691 100.5 695.5Q105 700 111 700ZM366 808Q366 822 376 832Q386 842 400 842Q414 842 424 832Q434 822 434 808Q434 794 424 784Q414 774 400 774Q386 774 376 784Q366 794 366 808ZM215 808Q215 822 225 832Q235 842 249 842Q263 842 273 832Q283 822 283 808Q283 794 273 784Q263 774 249 774Q235 774 225 784Q215 794 215 808Z" glyph-name="Edieresis" horiz-adv-x="603" unicode="Ë" /><glyph d="M558 700Q564 700 568.5 695.5Q573 691 573 685V673Q573 667 568.5 662.5Q564 658 558 658H141V376H354Q360 376 364.5 371.5Q369 367 369 361V351Q369 345 364.5 340.5Q360 336 354 336H141V42H558Q564 42 568.5 37.5Q573 33 573 27V15Q573 9 568.5 4.5Q564 0 558 0H111Q105 0 100.5 4.5Q96 9 96 15V685Q96 691 100.5 695.5Q105 700 111 700ZM259 920Q268 920 272.5 917Q277 914 280 906L336 779Q341 767 328 767H312Q301 767 295 780L225 907Q223 912 225.5 916Q228 920 233 920Z" glyph-name="Egrave" horiz-adv-x="603" unicode="È" /><glyph d="M558 700Q564 700 568.5 695.5Q573 691 573 685V673Q573 667 568.5 662.5Q564 658 558 658H141V376H354Q360 376 364.5 371.5Q369 367 369 361V351Q369 345 364.5 340.5Q360 336 354 336H141V42H558Q564 42 568.5 37.5Q573 33 573 27V15Q573 9 568.5 4.5Q564 0 558 0H111Q105 0 100.5 4.5Q96 9 96 15V685Q96 691 100.5 695.5Q105 700 111 700ZM325 762Q279 762 251 786.5Q223 811 223 853V858Q223 869 234 869H250Q261 869 261 858V856Q261 827 279.5 812.5Q298 798 325 798Q352 798 370.5 812.5Q389 827 389 856V858Q389 869 400 869H416Q427 869 427 858V853Q427 811 399 786.5Q371 762 325 762Z" glyph-name="Ebreve" horiz-adv-x="603" unicode="Ĕ" /><glyph d="M558 700Q564 700 568.5 695.5Q573 691 573 685V673Q573 667 568.5 662.5Q564 658 558 658H141V376H354Q360 376 364.5 371.5Q369 367 369 361V351Q369 345 364.5 340.5Q360 336 354 336H141V42H558Q564 42 568.5 37.5Q573 33 573 27V15Q573 9 568.5 4.5Q564 0 558 0H111Q105 0 100.5 4.5Q96 9 96 15V685Q96 691 100.5 695.5Q105 700 111 700ZM321 767Q310 767 305.5 770Q301 773 297 780L208 907Q204 912 206.5 916Q209 920 215 920H232Q242 920 251 910L325 811L399 910Q406 920 418 920H435Q440 920 442.5 916Q445 912 442 907L353 780Q348 773 343.5 770Q339 767 330 767H321Z" glyph-name="Ecaron" horiz-adv-x="603" unicode="Ě" /><glyph d="M558 700Q564 700 568.5 695.5Q573 691 573 685V673Q573 667 568.5 662.5Q564 658 558 658H141V376H354Q360 376 364.5 371.5Q369 367 369 361V351Q369 345 364.5 340.5Q360 336 354 336H141V42H558Q564 42 568.5 37.5Q573 33 573 27V15Q573 9 568.5 4.5Q564 0 558 0H111Q105 0 100.5 4.5Q96 9 96 15V685Q96 691 100.5 695.5Q105 700 111 700ZM325 789Q310 789 299 800Q288 811 288 827Q288 842 299 853Q310 864 325 864Q340 864 351 853Q362 842 362 827Q362 811 351 800Q340 789 325 789Z" glyph-name="Edotaccent" horiz-adv-x="603" unicode="Ė" /><glyph d="M558 700Q564 700 568.5 695.5Q573 691 573 685V673Q573 667 568.5 662.5Q564 658 558 658H141V376H354Q360 376 364.5 371.5Q369 367 369 361V351Q369 345 364.5 340.5Q360 336 354 336H141V42H558Q564 42 568.5 37.5Q573 33 573 27V15Q573 9 568.5 4.5Q564 0 558 0H111Q105 0 100.5 4.5Q96 9 96 15V685Q96 691 100.5 695.5Q105 700 111 700ZM225 790Q219 790 214.5 794.5Q210 799 210 805V812Q210 818 214.5 822.5Q219 827 225 827H425Q431 827 435.5 822.5Q440 818 440 812V805Q440 799 435.5 794.5Q431 790 425 790Z" glyph-name="Emacron" horiz-adv-x="603" unicode="Ē" /><glyph d="M524 -167Q524 -172 518.5 -175Q513 -178 505.5 -180Q498 -182 490 -183Q482 -184 476 -184Q440 -184 421 -165Q402 -146 402 -117Q402 -101 408.5 -84Q415 -67 425.5 -52Q436 -37 448.5 -23.5Q461 -10 473 0H111Q105 0 100.5 4.5Q96 9 96 15V685Q96 691 100.5 695.5Q105 700 111 700H558Q564 700 568.5 695.5Q573 691 573 685V673Q573 667 568.5 662.5Q564 658 558 658H141V376H354Q360 376 364.5 371.5Q369 367 369 361V351Q369 345 364.5 340.5Q360 336 354 336H141V42H558Q564 42 568.5 37.5Q573 33 573 27V15Q573 9 568.5 4.5Q564 0 558 0H507Q495 -12 484 -27Q473 -42 464 -57.5Q455 -73 449.5 -87.5Q444 -102 444 -113Q444 -133 455 -142Q466 -151 485 -151Q499 -151 514 -147Q519 -145 522.5 -148.5Q526 -152 525 -157L524 -167Z" glyph-name="Eogonek" horiz-adv-x="603" unicode="Ę" /><glyph d="M396 712Q450 712 501 697Q552 682 595 653.5Q638 625 670.5 584Q703 543 721 492Q723 487 720 482.5Q717 478 711 478H690Q679 478 674 492Q638 578 566.5 625Q495 672 396 672Q330 672 274 647.5Q218 623 177 579.5Q136 536 113 477.5Q90 419 90 350Q90 281 112.5 222Q135 163 175 120Q215 77 270.5 52.5Q326 28 392 28Q458 28 509 50Q560 72 595.5 106Q631 140 649.5 181.5Q668 223 670 263H421Q415 263 410.5 267.5Q406 272 406 278V287Q406 293 410.5 297.5Q415 302 421 302H699Q705 302 709.5 297.5Q714 293 714 287V15Q714 9 709.5 4.5Q705 0 699 0H687Q681 0 676.5 4.5Q672 9 672 15V159Q664 134 642.5 104Q621 74 585.5 48.5Q550 23 500.5 5.5Q451 -12 387 -12Q315 -12 252 15Q189 42 143 90Q97 138 70.5 204.5Q44 271 44 350Q44 429 72 495.5Q100 562 148 610Q196 658 260 685Q324 712 396 712ZM393 762Q347 762 319 786.5Q291 811 291 853V858Q291 869 302 869H318Q329 869 329 858V856Q329 827 347.5 812.5Q366 798 393 798Q420 798 438.5 812.5Q457 827 457 856V858Q457 869 468 869H484Q495 869 495 858V853Q495 811 467 786.5Q439 762 393 762Z" glyph-name="Gbreve" horiz-adv-x="773" unicode="Ğ" /><glyph d="M396 712Q450 712 501 697Q552 682 595 653.5Q638 625 670.5 584Q703 543 721 492Q723 487 720 482.5Q717 478 711 478H690Q679 478 674 492Q638 578 566.5 625Q495 672 396 672Q330 672 274 647.5Q218 623 177 579.5Q136 536 113 477.5Q90 419 90 350Q90 281 112.5 222Q135 163 175 120Q215 77 270.5 52.5Q326 28 392 28Q458 28 509 50Q560 72 595.5 106Q631 140 649.5 181.5Q668 223 670 263H421Q415 263 410.5 267.5Q406 272 406 278V287Q406 293 410.5 297.5Q415 302 421 302H699Q705 302 709.5 297.5Q714 293 714 287V15Q714 9 709.5 4.5Q705 0 699 0H687Q681 0 676.5 4.5Q672 9 672 15V159Q664 134 642.5 104Q621 74 585.5 48.5Q550 23 500.5 5.5Q451 -12 387 -12Q315 -12 252 15Q189 42 143 90Q97 138 70.5 204.5Q44 271 44 350Q44 429 72 495.5Q100 562 148 610Q196 658 260 685Q324 712 396 712ZM398 920Q407 920 411.5 917Q416 914 421 907L510 780Q513 775 510.5 771Q508 767 503 767H486Q474 767 467 777L393 876L319 777Q310 767 300 767H283Q277 767 274.5 771Q272 775 276 780L365 907Q369 914 373.5 917Q378 920 389 920Z" glyph-name="Gcircumflex" horiz-adv-x="773" unicode="Ĝ" /><glyph d="M396 712Q450 712 501 697Q552 682 595 653.5Q638 625 670.5 584Q703 543 721 492Q723 487 720 482.5Q717 478 711 478H690Q679 478 674 492Q638 578 566.5 625Q495 672 396 672Q330 672 274 647.5Q218 623 177 579.5Q136 536 113 477.5Q90 419 90 350Q90 281 112.5 222Q135 163 175 120Q215 77 270.5 52.5Q326 28 392 28Q458 28 509 50Q560 72 595.5 106Q631 140 649.5 181.5Q668 223 670 263H421Q415 263 410.5 267.5Q406 272 406 278V287Q406 293 410.5 297.5Q415 302 421 302H699Q705 302 709.5 297.5Q714 293 714 287V15Q714 9 709.5 4.5Q705 0 699 0H687Q681 0 676.5 4.5Q672 9 672 15V159Q664 134 642.5 104Q621 74 585.5 48.5Q550 23 500.5 5.5Q451 -12 387 -12Q315 -12 252 15Q189 42 143 90Q97 138 70.5 204.5Q44 271 44 350Q44 429 72 495.5Q100 562 148 610Q196 658 260 685Q324 712 396 712ZM364 -64Q366 -57 370 -53.5Q374 -50 383 -50H401Q406 -50 408.5 -54.5Q411 -59 409 -64L363 -183Q360 -190 356 -193.5Q352 -197 344 -197H329Q315 -197 320 -183Z" glyph-name="Gcommaaccent" horiz-adv-x="773" unicode="Ģ" /><glyph d="M396 712Q450 712 501 697Q552 682 595 653.5Q638 625 670.5 584Q703 543 721 492Q723 487 720 482.5Q717 478 711 478H690Q679 478 674 492Q638 578 566.5 625Q495 672 396 672Q330 672 274 647.5Q218 623 177 579.5Q136 536 113 477.5Q90 419 90 350Q90 281 112.5 222Q135 163 175 120Q215 77 270.5 52.5Q326 28 392 28Q458 28 509 50Q560 72 595.5 106Q631 140 649.5 181.5Q668 223 670 263H421Q415 263 410.5 267.5Q406 272 406 278V287Q406 293 410.5 297.5Q415 302 421 302H699Q705 302 709.5 297.5Q714 293 714 287V15Q714 9 709.5 4.5Q705 0 699 0H687Q681 0 676.5 4.5Q672 9 672 15V159Q664 134 642.5 104Q621 74 585.5 48.5Q550 23 500.5 5.5Q451 -12 387 -12Q315 -12 252 15Q189 42 143 90Q97 138 70.5 204.5Q44 271 44 350Q44 429 72 495.5Q100 562 148 610Q196 658 260 685Q324 712 396 712ZM393 789Q378 789 367 800Q356 811 356 827Q356 842 367 853Q378 864 393 864Q408 864 419 853Q430 842 430 827Q430 811 419 800Q408 789 393 789Z" glyph-name="Gdotaccent" horiz-adv-x="773" unicode="Ġ" /><glyph d="M615 377 615 517H141V377ZM141 15Q141 9 136.5 4.5Q132 0 126 0H111Q105 0 100.5 4.5Q96 9 96 15V517H36Q30 517 25.5 521.5Q21 526 21 532V542Q21 548 25.5 552.5Q30 557 36 557H96V685Q96 691 100.5 695.5Q105 700 111 700H126Q132 700 136.5 695.5Q141 691 141 685V557H615V685Q615 691 619.5 695.5Q624 700 630 700H645Q651 700 655.5 695.5Q660 691 660 685V557H720Q726 557 730.5 552.5Q735 548 735 542V532Q735 526 730.5 521.5Q726 517 720 517H660V15Q660 9 655.5 4.5Q651 0 645 0H630Q624 0 619.5 4.5Q615 9 615 15V337H141Z" glyph-name="Hbar" horiz-adv-x="756" unicode="Ħ" /><glyph d="M660 15Q660 9 655.5 4.5Q651 0 645 0H630Q624 0 619.5 4.5Q615 9 615 15V337H141V15Q141 9 136.5 4.5Q132 0 126 0H111Q105 0 100.5 4.5Q96 9 96 15V685Q96 691 100.5 695.5Q105 700 111 700H126Q132 700 136.5 695.5Q141 691 141 685V377H615V685Q615 691 619.5 695.5Q624 700 630 700H645Q651 700 655.5 695.5Q660 691 660 685ZM383 920Q392 920 396.5 917Q401 914 406 907L495 780Q498 775 495.5 771Q493 767 488 767H471Q459 767 452 777L378 876L304 777Q295 767 285 767H268Q262 767 259.5 771Q257 775 261 780L350 907Q354 914 358.5 917Q363 920 374 920Z" glyph-name="Hcircumflex" horiz-adv-x="756" unicode="Ĥ" /><glyph d="M111 0Q105 0 100.5 4.5Q96 9 96 15V685Q96 691 100.5 695.5Q105 700 111 700H126Q132 700 136.5 695.5Q141 691 141 685V15Q141 9 136.5 4.5Q132 0 126 0ZM214 920Q219 920 221.5 916Q224 912 222 907L152 780Q149 774 145.5 770.5Q142 767 135 767H119Q106 767 111 779L167 906Q170 914 174.5 917Q179 920 188 920H214Z" glyph-name="Iacute" horiz-adv-x="237" unicode="Í" /><glyph d="M111 0Q105 0 100.5 4.5Q96 9 96 15V685Q96 691 100.5 695.5Q105 700 111 700H126Q132 700 136.5 695.5Q141 691 141 685V15Q141 9 136.5 4.5Q132 0 126 0ZM123 920Q132 920 136.5 917Q141 914 146 907L235 780Q238 775 235.5 771Q233 767 228 767H211Q199 767 192 777L118 876L44 777Q35 767 25 767H8Q2 767 -0.5 771Q-3 775 1 780L90 907Q94 914 98.5 917Q103 920 114 920Z" glyph-name="Icircumflex" horiz-adv-x="237" unicode="Î" /><glyph d="M111 0Q105 0 100.5 4.5Q96 9 96 15V685Q96 691 100.5 695.5Q105 700 111 700H126Q132 700 136.5 695.5Q141 691 141 685V15Q141 9 136.5 4.5Q132 0 126 0ZM159 808Q159 822 169 832Q179 842 193 842Q207 842 217 832Q227 822 227 808Q227 794 217 784Q207 774 193 774Q179 774 169 784Q159 794 159 808ZM8 808Q8 822 18 832Q28 842 42 842Q56 842 66 832Q76 822 76 808Q76 794 66 784Q56 774 42 774Q28 774 18 784Q8 794 8 808Z" glyph-name="Idieresis" horiz-adv-x="237" unicode="Ï" /><glyph d="M111 0Q105 0 100.5 4.5Q96 9 96 15V685Q96 691 100.5 695.5Q105 700 111 700H126Q132 700 136.5 695.5Q141 691 141 685V15Q141 9 136.5 4.5Q132 0 126 0ZM52 920Q61 920 65.5 917Q70 914 73 906L129 779Q134 767 121 767H105Q94 767 88 780L18 907Q16 912 18.5 916Q21 920 26 920Z" glyph-name="Igrave" horiz-adv-x="237" unicode="Ì" /><glyph d="M111 0Q105 0 100.5 4.5Q96 9 96 15V685Q96 691 100.5 695.5Q105 700 111 700H126Q132 700 136.5 695.5Q141 691 141 685V15Q141 9 136.5 4.5Q132 0 126 0ZM118 762Q72 762 44 786.5Q16 811 16 853V858Q16 869 27 869H43Q54 869 54 858V856Q54 827 72.5 812.5Q91 798 118 798Q145 798 163.5 812.5Q182 827 182 856V858Q182 869 193 869H209Q220 869 220 858V853Q220 811 192 786.5Q164 762 118 762Z" glyph-name="Ibreve" horiz-adv-x="237" unicode="Ĭ" /><glyph d="M111 0Q105 0 100.5 4.5Q96 9 96 15V685Q96 691 100.5 695.5Q105 700 111 700H126Q132 700 136.5 695.5Q141 691 141 685V15Q141 9 136.5 4.5Q132 0 126 0ZM118 789Q103 789 92 800Q81 811 81 827Q81 842 92 853Q103 864 118 864Q133 864 144 853Q155 842 155 827Q155 811 144 800Q133 789 118 789Z" glyph-name="Idotaccent" horiz-adv-x="237" unicode="İ" /><glyph d="M111 0Q105 0 100.5 4.5Q96 9 96 15V685Q96 691 100.5 695.5Q105 700 111 700H126Q132 700 136.5 695.5Q141 691 141 685V15Q141 9 136.5 4.5Q132 0 126 0ZM18 790Q12 790 7.5 794.5Q3 799 3 805V812Q3 818 7.5 822.5Q12 827 18 827H218Q224 827 228.5 822.5Q233 818 233 812V805Q233 799 228.5 794.5Q224 790 218 790Z" glyph-name="Imacron" horiz-adv-x="237" unicode="Ī" /><glyph d="M111 0Q105 0 100.5 4.5Q96 9 96 15V685Q96 691 100.5 695.5Q105 700 111 700H126Q132 700 136.5 695.5Q141 691 141 685V15Q141 9 136.5 4.5Q132 0 126 0ZM25 -117Q25 -98 34 -78.5Q43 -59 56 -42Q69 -25 84 -11Q99 3 111 12L128 10L131 1Q119 -11 107.5 -26.5Q96 -42 87 -57.5Q78 -73 72.5 -87.5Q67 -102 67 -113Q67 -133 78 -142Q89 -151 108 -151Q122 -151 137 -147Q142 -145 145.5 -148.5Q149 -152 148 -157L147 -167Q147 -172 141.5 -175Q136 -178 128.5 -180Q121 -182 113 -183Q105 -184 99 -184Q63 -184 44 -165Q25 -146 25 -117Z" glyph-name="Iogonek" horiz-adv-x="237" unicode="Į" /><glyph d="M111 0Q105 0 100.5 4.5Q96 9 96 15V685Q96 691 100.5 695.5Q105 700 111 700H126Q132 700 136.5 695.5Q141 691 141 685V15Q141 9 136.5 4.5Q132 0 126 0ZM176 782Q163 782 146.5 787.5Q130 793 113.5 799.5Q97 806 82.5 811.5Q68 817 60 817Q50 817 43.5 812.5Q37 808 29 793Q21 779 9 785L2 788Q-3 790 -5.5 795.5Q-8 801 -6 806Q2 826 18.5 841.5Q35 857 61 857Q74 857 90.5 851.5Q107 846 123.5 839.5Q140 833 154.5 827.5Q169 822 177 822Q187 822 193.5 826.5Q200 831 208 846Q216 860 228 854L235 851Q240 849 242.5 843.5Q245 838 243 833Q235 813 218.5 797.5Q202 782 176 782Z" glyph-name="Itilde" horiz-adv-x="237" unicode="Ĩ" /><glyph d="M513 225Q513 175 496.5 132Q480 89 449 57Q418 25 372.5 6.5Q327 -12 269 -12Q211 -12 165.5 6Q120 24 89 55.5Q58 87 42 130Q26 173 26 223V249Q26 255 30.5 259.5Q35 264 41 264H55Q61 264 65.5 259.5Q70 255 70 249V220Q70 176 84 140.5Q98 105 124.5 80Q151 55 187.5 41Q224 27 269 27Q315 27 351.5 41.5Q388 56 414 82.5Q440 109 454 145Q468 181 468 225V685Q468 691 472.5 695.5Q477 700 483 700H498Q504 700 508.5 695.5Q513 691 513 685V225ZM497 920Q506 920 510.5 917Q515 914 520 907L609 780Q612 775 609.5 771Q607 767 602 767H585Q573 767 566 777L492 876L418 777Q409 767 399 767H382Q376 767 373.5 771Q371 775 375 780L464 907Q468 914 472.5 917Q477 920 488 920Z" glyph-name="Jcircumflex" horiz-adv-x="600" unicode="Ĵ" /><glyph d="M111 0Q105 0 100.5 4.5Q96 9 96 15V685Q96 691 100.5 695.5Q105 700 111 700H126Q132 700 136.5 695.5Q141 691 141 685V15Q141 9 136.5 4.5Q132 0 126 0ZM750 225Q750 175 733.5 132Q717 89 686 57Q655 25 609.5 6.5Q564 -12 506 -12Q448 -12 402.5 6Q357 24 326 55.5Q295 87 279 130Q263 173 263 223V249Q263 255 267.5 259.5Q272 264 278 264H292Q298 264 302.5 259.5Q307 255 307 249V220Q307 176 321 140.5Q335 105 361.5 80Q388 55 424.5 41Q461 27 506 27Q552 27 588.5 41.5Q625 56 651 82.5Q677 109 691 145Q705 181 705 225V685Q705 691 709.5 695.5Q714 700 720 700H735Q741 700 745.5 695.5Q750 691 750 685V225Z" glyph-name="IJ" horiz-adv-x="837" unicode="Ĳ" /><glyph d="M296 370 615 11Q618 8 616.5 4Q615 0 610 0H578Q570 0 565.5 3Q561 6 556 11L257 348H141V15Q141 9 136.5 4.5Q132 0 126 0H111Q105 0 100.5 4.5Q96 9 96 15V685Q96 691 100.5 695.5Q105 700 111 700H126Q132 700 136.5 695.5Q141 691 141 685V388H257L560 689Q565 694 569 697Q573 700 580 700H616Q621 700 622.5 696Q624 692 621 689ZM284 -64Q286 -57 290 -53.5Q294 -50 303 -50H321Q326 -50 328.5 -54.5Q331 -59 329 -64L283 -183Q280 -190 276 -193.5Q272 -197 264 -197H249Q235 -197 240 -183Z" glyph-name="Kcommaaccent" horiz-adv-x="626" unicode="Ķ" /><glyph d="M523 15Q523 9 518.5 4.5Q514 0 508 0H111Q105 0 100.5 4.5Q96 9 96 15V685Q96 691 100.5 695.5Q105 700 111 700H126Q132 700 136.5 695.5Q141 691 141 685V42H508Q514 42 518.5 37.5Q523 33 523 27ZM210 920Q215 920 217.5 916Q220 912 218 907L148 780Q145 774 141.5 770.5Q138 767 131 767H115Q102 767 107 779L163 906Q166 914 170.5 917Q175 920 184 920H210Z" glyph-name="Lacute" horiz-adv-x="534" unicode="Ĺ" /><glyph d="M394 686Q396 693 400 696.5Q404 700 413 700H431Q436 700 438.5 695.5Q441 691 439 686L386 550Q383 543 379 539.5Q375 536 367 536H352Q346 536 343.5 540.5Q341 545 343 550ZM523 15Q523 9 518.5 4.5Q514 0 508 0H111Q105 0 100.5 4.5Q96 9 96 15V685Q96 691 100.5 695.5Q105 700 111 700H126Q132 700 136.5 695.5Q141 691 141 685V42H508Q514 42 518.5 37.5Q523 33 523 27Z" glyph-name="Lcaron" horiz-adv-x="537" unicode="Ľ" /><glyph d="M523 15Q523 9 518.5 4.5Q514 0 508 0H111Q105 0 100.5 4.5Q96 9 96 15V685Q96 691 100.5 695.5Q105 700 111 700H126Q132 700 136.5 695.5Q141 691 141 685V42H508Q514 42 518.5 37.5Q523 33 523 27ZM274 -64Q276 -57 280 -53.5Q284 -50 293 -50H311Q316 -50 318.5 -54.5Q321 -59 319 -64L273 -183Q270 -190 266 -193.5Q262 -197 254 -197H239Q225 -197 230 -183Z" glyph-name="Lcommaaccent" horiz-adv-x="534" unicode="Ļ" /><glyph d="M523 15Q523 9 518.5 4.5Q514 0 508 0H111Q105 0 100.5 4.5Q96 9 96 15V685Q96 691 100.5 695.5Q105 700 111 700H126Q132 700 136.5 695.5Q141 691 141 685V42H508Q514 42 518.5 37.5Q523 33 523 27ZM326 312Q307 312 294 325Q281 338 281 357Q281 376 294 389Q307 402 326 402Q345 402 358 389Q371 376 371 357Q371 338 358 325Q345 312 326 312Z" glyph-name="Ldot" horiz-adv-x="535" unicode="Ŀ" /><glyph d="M141 635 141 15Q141 9 136.5 4.5Q132 0 126 0H111Q105 0 100.5 4.5Q96 9 96 15V685Q96 691 100.5 695.5Q105 700 111 700H133Q149 700 157 688L579 65V685Q579 691 583.5 695.5Q588 700 594 700H609Q615 700 619.5 695.5Q624 691 624 685V15Q624 9 619.5 4.5Q615 0 609 0H587Q570 0 563 12ZM418 782Q405 782 388.5 787.5Q372 793 355.5 799.5Q339 806 324.5 811.5Q310 817 302 817Q292 817 285.5 812.5Q279 808 271 793Q263 779 251 785L244 788Q239 790 236.5 795.5Q234 801 236 806Q244 826 260.5 841.5Q277 857 303 857Q316 857 332.5 851.5Q349 846 365.5 839.5Q382 833 396.5 827.5Q411 822 419 822Q429 822 435.5 826.5Q442 831 450 846Q458 860 470 854L477 851Q482 849 484.5 843.5Q487 838 485 833Q477 813 460.5 797.5Q444 782 418 782Z" glyph-name="Ntilde" horiz-adv-x="720" unicode="Ñ" /><glyph d="M141 635 141 15Q141 9 136.5 4.5Q132 0 126 0H111Q105 0 100.5 4.5Q96 9 96 15V685Q96 691 100.5 695.5Q105 700 111 700H133Q149 700 157 688L579 65V685Q579 691 583.5 695.5Q588 700 594 700H609Q615 700 619.5 695.5Q624 691 624 685V15Q624 9 619.5 4.5Q615 0 609 0H587Q570 0 563 12ZM456 920Q461 920 463.5 916Q466 912 464 907L394 780Q391 774 387.5 770.5Q384 767 377 767H361Q348 767 353 779L409 906Q412 914 416.5 917Q421 920 430 920H456Z" glyph-name="Nacute" horiz-adv-x="720" unicode="Ń" /><glyph d="M141 635 141 15Q141 9 136.5 4.5Q132 0 126 0H111Q105 0 100.5 4.5Q96 9 96 15V685Q96 691 100.5 695.5Q105 700 111 700H133Q149 700 157 688L579 65V685Q579 691 583.5 695.5Q588 700 594 700H609Q615 700 619.5 695.5Q624 691 624 685V15Q624 9 619.5 4.5Q615 0 609 0H587Q570 0 563 12ZM356 767Q345 767 340.5 770Q336 773 332 780L243 907Q239 912 241.5 916Q244 920 250 920H267Q277 920 286 910L360 811L434 910Q441 920 453 920H470Q475 920 477.5 916Q480 912 477 907L388 780Q383 773 378.5 770Q374 767 365 767H356Z" glyph-name="Ncaron" horiz-adv-x="720" unicode="Ň" /><glyph d="M141 635 141 15Q141 9 136.5 4.5Q132 0 126 0H111Q105 0 100.5 4.5Q96 9 96 15V685Q96 691 100.5 695.5Q105 700 111 700H133Q149 700 157 688L579 65V685Q579 691 583.5 695.5Q588 700 594 700H609Q615 700 619.5 695.5Q624 691 624 685V15Q624 9 619.5 4.5Q615 0 609 0H587Q570 0 563 12ZM331 -64Q333 -57 337 -53.5Q341 -50 350 -50H368Q373 -50 375.5 -54.5Q378 -59 376 -64L330 -183Q327 -190 323 -193.5Q319 -197 311 -197H296Q282 -197 287 -183Z" glyph-name="Ncommaaccent" horiz-adv-x="720" unicode="Ņ" /><glyph d="M496 -216Q468 -216 446.5 -209Q425 -202 408 -190Q403 -187 403 -182Q403 -177 406 -172L411 -164Q419 -151 432 -159Q447 -169 464.5 -174Q482 -179 495 -179Q533 -179 556.5 -157.5Q580 -136 580 -85V0Q569 1 563 11L141 635V15Q141 9 136.5 4.5Q132 0 126 0H111Q105 0 100.5 4.5Q96 9 96 15V685Q96 691 100.5 695.5Q105 700 111 700H133Q149 700 157 688L579 65V685Q579 691 583.5 695.5Q588 700 594 700H609Q615 700 619.5 695.5Q624 691 624 685V-83Q624 -121 613 -146Q602 -171 584 -187Q566 -203 543 -209.5Q520 -216 496 -216Z" glyph-name="Eng" horiz-adv-x="720" unicode="Ŋ" /><glyph d="M742 350Q742 271 714.5 204.5Q687 138 639.5 90Q592 42 528.5 15Q465 -12 393 -12Q321 -12 257.5 15Q194 42 146.5 90Q99 138 71.5 204.5Q44 271 44 350Q44 429 71.5 495.5Q99 562 146.5 610Q194 658 257.5 685Q321 712 393 712Q465 712 528.5 685Q592 658 639.5 610Q687 562 714.5 495.5Q742 429 742 350ZM696 350Q696 419 673.5 478Q651 537 610.5 580Q570 623 514.5 647.5Q459 672 393 672Q327 672 271.5 647.5Q216 623 175.5 580Q135 537 112.5 478Q90 419 90 350Q90 281 112.5 222Q135 163 175.5 120Q216 77 271.5 52.5Q327 28 393 28Q459 28 514.5 52.5Q570 77 610.5 120Q651 163 673.5 222Q696 281 696 350ZM489 920Q494 920 496.5 916Q499 912 497 907L427 780Q424 774 420.5 770.5Q417 767 410 767H394Q381 767 386 779L442 906Q445 914 449.5 917Q454 920 463 920H489Z" glyph-name="Oacute" horiz-adv-x="786" unicode="Ó" /><glyph d="M742 350Q742 271 714.5 204.5Q687 138 639.5 90Q592 42 528.5 15Q465 -12 393 -12Q321 -12 257.5 15Q194 42 146.5 90Q99 138 71.5 204.5Q44 271 44 350Q44 429 71.5 495.5Q99 562 146.5 610Q194 658 257.5 685Q321 712 393 712Q465 712 528.5 685Q592 658 639.5 610Q687 562 714.5 495.5Q742 429 742 350ZM696 350Q696 419 673.5 478Q651 537 610.5 580Q570 623 514.5 647.5Q459 672 393 672Q327 672 271.5 647.5Q216 623 175.5 580Q135 537 112.5 478Q90 419 90 350Q90 281 112.5 222Q135 163 175.5 120Q216 77 271.5 52.5Q327 28 393 28Q459 28 514.5 52.5Q570 77 610.5 120Q651 163 673.5 222Q696 281 696 350ZM398 920Q407 920 411.5 917Q416 914 421 907L510 780Q513 775 510.5 771Q508 767 503 767H486Q474 767 467 777L393 876L319 777Q310 767 300 767H283Q277 767 274.5 771Q272 775 276 780L365 907Q369 914 373.5 917Q378 920 389 920Z" glyph-name="Ocircumflex" horiz-adv-x="786" unicode="Ô" /><glyph d="M742 350Q742 271 714.5 204.5Q687 138 639.5 90Q592 42 528.5 15Q465 -12 393 -12Q321 -12 257.5 15Q194 42 146.5 90Q99 138 71.5 204.5Q44 271 44 350Q44 429 71.5 495.5Q99 562 146.5 610Q194 658 257.5 685Q321 712 393 712Q465 712 528.5 685Q592 658 639.5 610Q687 562 714.5 495.5Q742 429 742 350ZM696 350Q696 419 673.5 478Q651 537 610.5 580Q570 623 514.5 647.5Q459 672 393 672Q327 672 271.5 647.5Q216 623 175.5 580Q135 537 112.5 478Q90 419 90 350Q90 281 112.5 222Q135 163 175.5 120Q216 77 271.5 52.5Q327 28 393 28Q459 28 514.5 52.5Q570 77 610.5 120Q651 163 673.5 222Q696 281 696 350ZM434 808Q434 822 444 832Q454 842 468 842Q482 842 492 832Q502 822 502 808Q502 794 492 784Q482 774 468 774Q454 774 444 784Q434 794 434 808ZM283 808Q283 822 293 832Q303 842 317 842Q331 842 341 832Q351 822 351 808Q351 794 341 784Q331 774 317 774Q303 774 293 784Q283 794 283 808Z" glyph-name="Odieresis" horiz-adv-x="786" unicode="Ö" /><glyph d="M742 350Q742 271 714.5 204.5Q687 138 639.5 90Q592 42 528.5 15Q465 -12 393 -12Q321 -12 257.5 15Q194 42 146.5 90Q99 138 71.5 204.5Q44 271 44 350Q44 429 71.5 495.5Q99 562 146.5 610Q194 658 257.5 685Q321 712 393 712Q465 712 528.5 685Q592 658 639.5 610Q687 562 714.5 495.5Q742 429 742 350ZM696 350Q696 419 673.5 478Q651 537 610.5 580Q570 623 514.5 647.5Q459 672 393 672Q327 672 271.5 647.5Q216 623 175.5 580Q135 537 112.5 478Q90 419 90 350Q90 281 112.5 222Q135 163 175.5 120Q216 77 271.5 52.5Q327 28 393 28Q459 28 514.5 52.5Q570 77 610.5 120Q651 163 673.5 222Q696 281 696 350ZM327 920Q336 920 340.5 917Q345 914 348 906L404 779Q409 767 396 767H380Q369 767 363 780L293 907Q291 912 293.5 916Q296 920 301 920Z" glyph-name="Ograve" horiz-adv-x="786" unicode="Ò" /><glyph d="M742 350Q742 271 714.5 204.5Q687 138 639.5 90Q592 42 528.5 15Q465 -12 393 -12Q321 -12 257.5 15Q194 42 146.5 90Q99 138 71.5 204.5Q44 271 44 350Q44 429 71.5 495.5Q99 562 146.5 610Q194 658 257.5 685Q321 712 393 712Q465 712 528.5 685Q592 658 639.5 610Q687 562 714.5 495.5Q742 429 742 350ZM696 350Q696 419 673.5 478Q651 537 610.5 580Q570 623 514.5 647.5Q459 672 393 672Q327 672 271.5 647.5Q216 623 175.5 580Q135 537 112.5 478Q90 419 90 350Q90 281 112.5 222Q135 163 175.5 120Q216 77 271.5 52.5Q327 28 393 28Q459 28 514.5 52.5Q570 77 610.5 120Q651 163 673.5 222Q696 281 696 350ZM451 782Q438 782 421.5 787.5Q405 793 388.5 799.5Q372 806 357.5 811.5Q343 817 335 817Q325 817 318.5 812.5Q312 808 304 793Q296 779 284 785L277 788Q272 790 269.5 795.5Q267 801 269 806Q277 826 293.5 841.5Q310 857 336 857Q349 857 365.5 851.5Q382 846 398.5 839.5Q415 833 429.5 827.5Q444 822 452 822Q462 822 468.5 826.5Q475 831 483 846Q491 860 503 854L510 851Q515 849 517.5 843.5Q520 838 518 833Q510 813 493.5 797.5Q477 782 451 782Z" glyph-name="Otilde" horiz-adv-x="786" unicode="Õ" /><glyph d="M742 350Q742 271 714.5 204.5Q687 138 639.5 90Q592 42 528.5 15Q465 -12 393 -12Q321 -12 257.5 15Q194 42 146.5 90Q99 138 71.5 204.5Q44 271 44 350Q44 429 71.5 495.5Q99 562 146.5 610Q194 658 257.5 685Q321 712 393 712Q465 712 528.5 685Q592 658 639.5 610Q687 562 714.5 495.5Q742 429 742 350ZM696 350Q696 419 673.5 478Q651 537 610.5 580Q570 623 514.5 647.5Q459 672 393 672Q327 672 271.5 647.5Q216 623 175.5 580Q135 537 112.5 478Q90 419 90 350Q90 281 112.5 222Q135 163 175.5 120Q216 77 271.5 52.5Q327 28 393 28Q459 28 514.5 52.5Q570 77 610.5 120Q651 163 673.5 222Q696 281 696 350ZM393 762Q347 762 319 786.5Q291 811 291 853V858Q291 869 302 869H318Q329 869 329 858V856Q329 827 347.5 812.5Q366 798 393 798Q420 798 438.5 812.5Q457 827 457 856V858Q457 869 468 869H484Q495 869 495 858V853Q495 811 467 786.5Q439 762 393 762Z" glyph-name="Obreve" horiz-adv-x="786" unicode="Ŏ" /><glyph d="M742 350Q742 271 714.5 204.5Q687 138 639.5 90Q592 42 528.5 15Q465 -12 393 -12Q321 -12 257.5 15Q194 42 146.5 90Q99 138 71.5 204.5Q44 271 44 350Q44 429 71.5 495.5Q99 562 146.5 610Q194 658 257.5 685Q321 712 393 712Q465 712 528.5 685Q592 658 639.5 610Q687 562 714.5 495.5Q742 429 742 350ZM696 350Q696 419 673.5 478Q651 537 610.5 580Q570 623 514.5 647.5Q459 672 393 672Q327 672 271.5 647.5Q216 623 175.5 580Q135 537 112.5 478Q90 419 90 350Q90 281 112.5 222Q135 163 175.5 120Q216 77 271.5 52.5Q327 28 393 28Q459 28 514.5 52.5Q570 77 610.5 120Q651 163 673.5 222Q696 281 696 350ZM557 920Q562 920 564.5 916Q567 912 565 907L495 780Q492 774 488.5 770.5Q485 767 478 767H462Q449 767 454 779L510 906Q515 920 531 920ZM421 920Q426 920 428.5 916Q431 912 429 907L359 780Q356 774 352.5 770.5Q349 767 342 767H326Q313 767 318 779L374 906Q379 920 395 920Z" glyph-name="Ohungarumlaut" horiz-adv-x="786" unicode="Ő" /><glyph d="M742 350Q742 271 714.5 204.5Q687 138 639.5 90Q592 42 528.5 15Q465 -12 393 -12Q321 -12 257.5 15Q194 42 146.5 90Q99 138 71.5 204.5Q44 271 44 350Q44 429 71.5 495.5Q99 562 146.5 610Q194 658 257.5 685Q321 712 393 712Q465 712 528.5 685Q592 658 639.5 610Q687 562 714.5 495.5Q742 429 742 350ZM696 350Q696 419 673.5 478Q651 537 610.5 580Q570 623 514.5 647.5Q459 672 393 672Q327 672 271.5 647.5Q216 623 175.5 580Q135 537 112.5 478Q90 419 90 350Q90 281 112.5 222Q135 163 175.5 120Q216 77 271.5 52.5Q327 28 393 28Q459 28 514.5 52.5Q570 77 610.5 120Q651 163 673.5 222Q696 281 696 350ZM293 790Q287 790 282.5 794.5Q278 799 278 805V812Q278 818 282.5 822.5Q287 827 293 827H493Q499 827 503.5 822.5Q508 818 508 812V805Q508 799 503.5 794.5Q499 790 493 790Z" glyph-name="Omacron" horiz-adv-x="786" unicode="Ō" /><glyph d="M393 351Q479 351 525.5 394.5Q572 438 572 506Q572 574 525.5 617Q479 660 393 660H141V351ZM600 0Q588 0 581 13L409 311H141V15Q141 9 136.5 4.5Q132 0 126 0H111Q105 0 100.5 4.5Q96 9 96 15V685Q96 691 100.5 695.5Q105 700 111 700H384Q494 700 556 647.5Q618 595 618 507Q618 481 610.5 452.5Q603 424 584.5 397.5Q566 371 534.5 350Q503 329 455 318L632 13Q635 8 632.5 4Q630 0 624 0ZM434 920Q439 920 441.5 916Q444 912 442 907L372 780Q369 774 365.5 770.5Q362 767 355 767H339Q326 767 331 779L387 906Q390 914 394.5 917Q399 920 408 920H434Z" glyph-name="Racute" horiz-adv-x="673" unicode="Ŕ" /><glyph d="M393 351Q479 351 525.5 394.5Q572 438 572 506Q572 574 525.5 617Q479 660 393 660H141V351ZM600 0Q588 0 581 13L409 311H141V15Q141 9 136.5 4.5Q132 0 126 0H111Q105 0 100.5 4.5Q96 9 96 15V685Q96 691 100.5 695.5Q105 700 111 700H384Q494 700 556 647.5Q618 595 618 507Q618 481 610.5 452.5Q603 424 584.5 397.5Q566 371 534.5 350Q503 329 455 318L632 13Q635 8 632.5 4Q630 0 624 0ZM334 767Q323 767 318.5 770Q314 773 310 780L221 907Q217 912 219.5 916Q222 920 228 920H245Q255 920 264 910L338 811L412 910Q419 920 431 920H448Q453 920 455.5 916Q458 912 455 907L366 780Q361 773 356.5 770Q352 767 343 767H334Z" glyph-name="Rcaron" horiz-adv-x="673" unicode="Ř" /><glyph d="M393 351Q479 351 525.5 394.5Q572 438 572 506Q572 574 525.5 617Q479 660 393 660H141V351ZM600 0Q588 0 581 13L409 311H141V15Q141 9 136.5 4.5Q132 0 126 0H111Q105 0 100.5 4.5Q96 9 96 15V685Q96 691 100.5 695.5Q105 700 111 700H384Q494 700 556 647.5Q618 595 618 507Q618 481 610.5 452.5Q603 424 584.5 397.5Q566 371 534.5 350Q503 329 455 318L632 13Q635 8 632.5 4Q630 0 624 0ZM309 -64Q311 -57 315 -53.5Q319 -50 328 -50H346Q351 -50 353.5 -54.5Q356 -59 354 -64L308 -183Q305 -190 301 -193.5Q297 -197 289 -197H274Q260 -197 265 -183Z" glyph-name="Rcommaaccent" horiz-adv-x="673" unicode="Ŗ" /><glyph d="M300 712Q373 712 434 687Q495 662 537 614Q546 603 535 595L525 587Q517 581 511.5 583.5Q506 586 501 591Q460 634 409 654Q358 674 300 674Q261 674 225.5 664.5Q190 655 163.5 636.5Q137 618 121 590.5Q105 563 105 528Q105 508 110 489.5Q115 471 129.5 454Q144 437 169 423Q194 409 234 398L395 354Q483 330 518.5 285.5Q554 241 554 180Q554 145 538.5 110.5Q523 76 491.5 49Q460 22 412 5Q364 -12 298 -12Q245 -12 202.5 0Q160 12 127 30Q94 48 71.5 69Q49 90 37 108Q34 113 35 119Q36 125 41 128L53 136Q65 144 75 131Q90 111 111.5 92Q133 73 161 58.5Q189 44 223.5 35Q258 26 299 26Q352 26 391.5 39Q431 52 457 73.5Q483 95 496 122.5Q509 150 509 178Q509 232 478.5 264.5Q448 297 381 315L217 360Q171 372 141 390Q111 408 93 429.5Q75 451 67.5 475.5Q60 500 60 526Q60 567 78 601.5Q96 636 128.5 660.5Q161 685 205 698.5Q249 712 300 712ZM292 767Q281 767 276.5 770Q272 773 268 780L179 907Q175 912 177.5 916Q180 920 186 920H203Q213 920 222 910L296 811L370 910Q377 920 389 920H406Q411 920 413.5 916Q416 912 413 907L324 780Q319 773 314.5 770Q310 767 301 767H292Z" glyph-name="Scaron" horiz-adv-x="597" unicode="Š" /><glyph d="M300 712Q373 712 434 687Q495 662 537 614Q546 603 535 595L525 587Q517 581 511.5 583.5Q506 586 501 591Q460 634 409 654Q358 674 300 674Q261 674 225.5 664.5Q190 655 163.5 636.5Q137 618 121 590.5Q105 563 105 528Q105 508 110 489.5Q115 471 129.5 454Q144 437 169 423Q194 409 234 398L395 354Q483 330 518.5 285.5Q554 241 554 180Q554 145 538.5 110.5Q523 76 491.5 49Q460 22 412 5Q364 -12 298 -12Q245 -12 202.5 0Q160 12 127 30Q94 48 71.5 69Q49 90 37 108Q34 113 35 119Q36 125 41 128L53 136Q65 144 75 131Q90 111 111.5 92Q133 73 161 58.5Q189 44 223.5 35Q258 26 299 26Q352 26 391.5 39Q431 52 457 73.5Q483 95 496 122.5Q509 150 509 178Q509 232 478.5 264.5Q448 297 381 315L217 360Q171 372 141 390Q111 408 93 429.5Q75 451 67.5 475.5Q60 500 60 526Q60 567 78 601.5Q96 636 128.5 660.5Q161 685 205 698.5Q249 712 300 712ZM392 920Q397 920 399.5 916Q402 912 400 907L330 780Q327 774 323.5 770.5Q320 767 313 767H297Q284 767 289 779L345 906Q348 914 352.5 917Q357 920 366 920H392Z" glyph-name="Sacute" horiz-adv-x="597" unicode="Ś" /><glyph d="M300 712Q373 712 434 687Q495 662 537 614Q546 603 535 595L525 587Q517 581 511.5 583.5Q506 586 501 591Q460 634 409 654Q358 674 300 674Q261 674 225.5 664.5Q190 655 163.5 636.5Q137 618 121 590.5Q105 563 105 528Q105 508 110 489.5Q115 471 129.5 454Q144 437 169 423Q194 409 234 398L395 354Q483 330 518.5 285.5Q554 241 554 180Q554 145 538.5 110.5Q523 76 491.5 49Q460 22 412 5Q364 -12 298 -12Q245 -12 202.5 0Q160 12 127 30Q94 48 71.5 69Q49 90 37 108Q34 113 35 119Q36 125 41 128L53 136Q65 144 75 131Q90 111 111.5 92Q133 73 161 58.5Q189 44 223.5 35Q258 26 299 26Q352 26 391.5 39Q431 52 457 73.5Q483 95 496 122.5Q509 150 509 178Q509 232 478.5 264.5Q448 297 381 315L217 360Q171 372 141 390Q111 408 93 429.5Q75 451 67.5 475.5Q60 500 60 526Q60 567 78 601.5Q96 636 128.5 660.5Q161 685 205 698.5Q249 712 300 712ZM319 0 262 -129Q256 -143 245 -143H229Q224 -143 221 -139.5Q218 -136 221 -129L275 0Z" glyph-name="Scedilla" horiz-adv-x="597" unicode="Ş" /><glyph d="M300 712Q373 712 434 687Q495 662 537 614Q546 603 535 595L525 587Q517 581 511.5 583.5Q506 586 501 591Q460 634 409 654Q358 674 300 674Q261 674 225.5 664.5Q190 655 163.5 636.5Q137 618 121 590.5Q105 563 105 528Q105 508 110 489.5Q115 471 129.5 454Q144 437 169 423Q194 409 234 398L395 354Q483 330 518.5 285.5Q554 241 554 180Q554 145 538.5 110.5Q523 76 491.5 49Q460 22 412 5Q364 -12 298 -12Q245 -12 202.5 0Q160 12 127 30Q94 48 71.5 69Q49 90 37 108Q34 113 35 119Q36 125 41 128L53 136Q65 144 75 131Q90 111 111.5 92Q133 73 161 58.5Q189 44 223.5 35Q258 26 299 26Q352 26 391.5 39Q431 52 457 73.5Q483 95 496 122.5Q509 150 509 178Q509 232 478.5 264.5Q448 297 381 315L217 360Q171 372 141 390Q111 408 93 429.5Q75 451 67.5 475.5Q60 500 60 526Q60 567 78 601.5Q96 636 128.5 660.5Q161 685 205 698.5Q249 712 300 712ZM301 920Q310 920 314.5 917Q319 914 324 907L413 780Q416 775 413.5 771Q411 767 406 767H389Q377 767 370 777L296 876L222 777Q213 767 203 767H186Q180 767 177.5 771Q175 775 179 780L268 907Q272 914 276.5 917Q281 920 292 920Z" glyph-name="Scircumflex" horiz-adv-x="597" unicode="Ŝ" /><glyph d="M300 712Q373 712 434 687Q495 662 537 614Q546 603 535 595L525 587Q517 581 511.5 583.5Q506 586 501 591Q460 634 409 654Q358 674 300 674Q261 674 225.5 664.5Q190 655 163.5 636.5Q137 618 121 590.5Q105 563 105 528Q105 508 110 489.5Q115 471 129.5 454Q144 437 169 423Q194 409 234 398L395 354Q483 330 518.5 285.5Q554 241 554 180Q554 145 538.5 110.5Q523 76 491.5 49Q460 22 412 5Q364 -12 298 -12Q245 -12 202.5 0Q160 12 127 30Q94 48 71.5 69Q49 90 37 108Q34 113 35 119Q36 125 41 128L53 136Q65 144 75 131Q90 111 111.5 92Q133 73 161 58.5Q189 44 223.5 35Q258 26 299 26Q352 26 391.5 39Q431 52 457 73.5Q483 95 496 122.5Q509 150 509 178Q509 232 478.5 264.5Q448 297 381 315L217 360Q171 372 141 390Q111 408 93 429.5Q75 451 67.5 475.5Q60 500 60 526Q60 567 78 601.5Q96 636 128.5 660.5Q161 685 205 698.5Q249 712 300 712ZM267 -64Q269 -57 273 -53.5Q277 -50 286 -50H304Q309 -50 311.5 -54.5Q314 -59 312 -64L266 -183Q263 -190 259 -193.5Q255 -197 247 -197H232Q218 -197 223 -183Z" glyph-name="Scommaaccent" horiz-adv-x="597" unicode="Ș" /><glyph d="M332 15Q332 9 327.5 4.5Q323 0 317 0H302Q296 0 291.5 4.5Q287 9 287 15V358H162Q156 358 151.5 362.5Q147 367 147 373V385Q147 391 151.5 395.5Q156 400 162 400H287V658H32Q26 658 21.5 662.5Q17 667 17 673V685Q17 691 21.5 695.5Q26 700 32 700H588Q594 700 598.5 695.5Q603 691 603 685V673Q603 667 598.5 662.5Q594 658 588 658H332V400H458Q464 400 468.5 395.5Q473 391 473 385V373Q473 367 468.5 362.5Q464 358 458 358H332V15Z" glyph-name="Tbar" horiz-adv-x="620" unicode="Ŧ" /><glyph d="M13 685Q13 691 17.5 695.5Q22 700 28 700H584Q590 700 594.5 695.5Q599 691 599 685V673Q599 667 594.5 662.5Q590 658 584 658H328V15Q328 9 323.5 4.5Q319 0 313 0H298Q292 0 287.5 4.5Q283 9 283 15V658H28Q22 658 17.5 662.5Q13 667 13 673ZM303 767Q292 767 287.5 770Q283 773 279 780L190 907Q186 912 188.5 916Q191 920 197 920H214Q224 920 233 910L307 811L381 910Q388 920 400 920H417Q422 920 424.5 916Q427 912 424 907L335 780Q330 773 325.5 770Q321 767 312 767H303Z" glyph-name="Tcaron" horiz-adv-x="612" unicode="Ť" /><glyph d="M13 685Q13 691 17.5 695.5Q22 700 28 700H584Q590 700 594.5 695.5Q599 691 599 685V673Q599 667 594.5 662.5Q590 658 584 658H328V15Q328 9 323.5 4.5Q319 0 313 0H298Q292 0 287.5 4.5Q283 9 283 15V658H28Q22 658 17.5 662.5Q13 667 13 673ZM277 -64Q279 -57 283 -53.5Q287 -50 296 -50H314Q319 -50 321.5 -54.5Q324 -59 322 -64L276 -183Q273 -190 269 -193.5Q265 -197 257 -197H242Q228 -197 233 -183Z" glyph-name="Tcommaaccent" horiz-adv-x="612" unicode="Ţ" /><glyph d="M13 685Q13 691 17.5 695.5Q22 700 28 700H584Q590 700 594.5 695.5Q599 691 599 685V673Q599 667 594.5 662.5Q590 658 584 658H328V15Q328 9 323.5 4.5Q319 0 313 0H298Q292 0 287.5 4.5Q283 9 283 15V658H28Q22 658 17.5 662.5Q13 667 13 673ZM278 -64Q280 -57 284 -53.5Q288 -50 297 -50H315Q320 -50 322.5 -54.5Q325 -59 323 -64L277 -183Q274 -190 270 -193.5Q266 -197 258 -197H243Q229 -197 234 -183Z" glyph-name="uni021A" horiz-adv-x="612" unicode="Ț" /><glyph d="M615 235Q615 178 596 132.5Q577 87 542.5 54.5Q508 22 459 5Q410 -12 351 -12Q292 -12 243 5Q194 22 159.5 53.5Q125 85 106 130.5Q87 176 87 233V685Q87 691 91.5 695.5Q96 700 102 700H117Q123 700 127.5 695.5Q132 691 132 685V230Q132 181 149 143.5Q166 106 195.5 80Q225 54 265 40.5Q305 27 351 27Q396 27 436 40.5Q476 54 506 80Q536 106 553.5 143.5Q571 181 571 230V685Q571 691 575.5 695.5Q580 700 586 700H600Q606 700 610.5 695.5Q615 691 615 685V235ZM447 920Q452 920 454.5 916Q457 912 455 907L385 780Q382 774 378.5 770.5Q375 767 368 767H352Q339 767 344 779L400 906Q403 914 407.5 917Q412 920 421 920H447Z" glyph-name="Uacute" horiz-adv-x="702" unicode="Ú" /><glyph d="M615 235Q615 178 596 132.5Q577 87 542.5 54.5Q508 22 459 5Q410 -12 351 -12Q292 -12 243 5Q194 22 159.5 53.5Q125 85 106 130.5Q87 176 87 233V685Q87 691 91.5 695.5Q96 700 102 700H117Q123 700 127.5 695.5Q132 691 132 685V230Q132 181 149 143.5Q166 106 195.5 80Q225 54 265 40.5Q305 27 351 27Q396 27 436 40.5Q476 54 506 80Q536 106 553.5 143.5Q571 181 571 230V685Q571 691 575.5 695.5Q580 700 586 700H600Q606 700 610.5 695.5Q615 691 615 685V235ZM356 920Q365 920 369.5 917Q374 914 379 907L468 780Q471 775 468.5 771Q466 767 461 767H444Q432 767 425 777L351 876L277 777Q268 767 258 767H241Q235 767 232.5 771Q230 775 234 780L323 907Q327 914 331.5 917Q336 920 347 920Z" glyph-name="Ucircumflex" horiz-adv-x="702" unicode="Û" /><glyph d="M615 235Q615 178 596 132.5Q577 87 542.5 54.5Q508 22 459 5Q410 -12 351 -12Q292 -12 243 5Q194 22 159.5 53.5Q125 85 106 130.5Q87 176 87 233V685Q87 691 91.5 695.5Q96 700 102 700H117Q123 700 127.5 695.5Q132 691 132 685V230Q132 181 149 143.5Q166 106 195.5 80Q225 54 265 40.5Q305 27 351 27Q396 27 436 40.5Q476 54 506 80Q536 106 553.5 143.5Q571 181 571 230V685Q571 691 575.5 695.5Q580 700 586 700H600Q606 700 610.5 695.5Q615 691 615 685V235ZM392 808Q392 822 402 832Q412 842 426 842Q440 842 450 832Q460 822 460 808Q460 794 450 784Q440 774 426 774Q412 774 402 784Q392 794 392 808ZM241 808Q241 822 251 832Q261 842 275 842Q289 842 299 832Q309 822 309 808Q309 794 299 784Q289 774 275 774Q261 774 251 784Q241 794 241 808Z" glyph-name="Udieresis" horiz-adv-x="702" unicode="Ü" /><glyph d="M615 235Q615 178 596 132.5Q577 87 542.5 54.5Q508 22 459 5Q410 -12 351 -12Q292 -12 243 5Q194 22 159.5 53.5Q125 85 106 130.5Q87 176 87 233V685Q87 691 91.5 695.5Q96 700 102 700H117Q123 700 127.5 695.5Q132 691 132 685V230Q132 181 149 143.5Q166 106 195.5 80Q225 54 265 40.5Q305 27 351 27Q396 27 436 40.5Q476 54 506 80Q536 106 553.5 143.5Q571 181 571 230V685Q571 691 575.5 695.5Q580 700 586 700H600Q606 700 610.5 695.5Q615 691 615 685V235ZM285 920Q294 920 298.5 917Q303 914 306 906L362 779Q367 767 354 767H338Q327 767 321 780L251 907Q249 912 251.5 916Q254 920 259 920Z" glyph-name="Ugrave" horiz-adv-x="702" unicode="Ù" /><glyph d="M615 235Q615 178 596 132.5Q577 87 542.5 54.5Q508 22 459 5Q410 -12 351 -12Q292 -12 243 5Q194 22 159.5 53.5Q125 85 106 130.5Q87 176 87 233V685Q87 691 91.5 695.5Q96 700 102 700H117Q123 700 127.5 695.5Q132 691 132 685V230Q132 181 149 143.5Q166 106 195.5 80Q225 54 265 40.5Q305 27 351 27Q396 27 436 40.5Q476 54 506 80Q536 106 553.5 143.5Q571 181 571 230V685Q571 691 575.5 695.5Q580 700 586 700H600Q606 700 610.5 695.5Q615 691 615 685V235ZM351 762Q305 762 277 786.5Q249 811 249 853V858Q249 869 260 869H276Q287 869 287 858V856Q287 827 305.5 812.5Q324 798 351 798Q378 798 396.5 812.5Q415 827 415 856V858Q415 869 426 869H442Q453 869 453 858V853Q453 811 425 786.5Q397 762 351 762Z" glyph-name="Ubreve" horiz-adv-x="702" unicode="Ŭ" /><glyph d="M615 235Q615 178 596 132.5Q577 87 542.5 54.5Q508 22 459 5Q410 -12 351 -12Q292 -12 243 5Q194 22 159.5 53.5Q125 85 106 130.5Q87 176 87 233V685Q87 691 91.5 695.5Q96 700 102 700H117Q123 700 127.5 695.5Q132 691 132 685V230Q132 181 149 143.5Q166 106 195.5 80Q225 54 265 40.5Q305 27 351 27Q396 27 436 40.5Q476 54 506 80Q536 106 553.5 143.5Q571 181 571 230V685Q571 691 575.5 695.5Q580 700 586 700H600Q606 700 610.5 695.5Q615 691 615 685V235ZM515 920Q520 920 522.5 916Q525 912 523 907L453 780Q450 774 446.5 770.5Q443 767 436 767H420Q407 767 412 779L468 906Q473 920 489 920ZM379 920Q384 920 386.5 916Q389 912 387 907L317 780Q314 774 310.5 770.5Q307 767 300 767H284Q271 767 276 779L332 906Q337 920 353 920Z" glyph-name="Uhungarumlaut" horiz-adv-x="702" unicode="Ű" /><glyph d="M615 235Q615 178 596 132.5Q577 87 542.5 54.5Q508 22 459 5Q410 -12 351 -12Q292 -12 243 5Q194 22 159.5 53.5Q125 85 106 130.5Q87 176 87 233V685Q87 691 91.5 695.5Q96 700 102 700H117Q123 700 127.5 695.5Q132 691 132 685V230Q132 181 149 143.5Q166 106 195.5 80Q225 54 265 40.5Q305 27 351 27Q396 27 436 40.5Q476 54 506 80Q536 106 553.5 143.5Q571 181 571 230V685Q571 691 575.5 695.5Q580 700 586 700H600Q606 700 610.5 695.5Q615 691 615 685V235ZM251 790Q245 790 240.5 794.5Q236 799 236 805V812Q236 818 240.5 822.5Q245 827 251 827H451Q457 827 461.5 822.5Q466 818 466 812V805Q466 799 461.5 794.5Q457 790 451 790Z" glyph-name="Umacron" horiz-adv-x="702" unicode="Ū" /><glyph d="M615 235Q615 178 596 132.5Q577 87 542.5 54.5Q508 22 459 5Q410 -12 351 -12Q292 -12 243 5Q194 22 159.5 53.5Q125 85 106 130.5Q87 176 87 233V685Q87 691 91.5 695.5Q96 700 102 700H117Q123 700 127.5 695.5Q132 691 132 685V230Q132 181 149 143.5Q166 106 195.5 80Q225 54 265 40.5Q305 27 351 27Q396 27 436 40.5Q476 54 506 80Q536 106 553.5 143.5Q571 181 571 230V685Q571 691 575.5 695.5Q580 700 586 700H600Q606 700 610.5 695.5Q615 691 615 685V235ZM368 -97Q368 -78 377 -58.5Q386 -39 399 -22Q412 -5 427 9Q442 23 454 32L471 30L474 21Q462 9 450.5 -6.5Q439 -22 430 -37.5Q421 -53 415.5 -67.5Q410 -82 410 -93Q410 -113 421 -122Q432 -131 451 -131Q465 -131 480 -127Q485 -125 488.5 -128.5Q492 -132 491 -137L490 -147Q490 -152 484.5 -155Q479 -158 471.5 -160Q464 -162 456 -163Q448 -164 442 -164Q406 -164 387 -145Q368 -126 368 -97Z" glyph-name="Uogonek" horiz-adv-x="702" unicode="Ų" /><glyph d="M615 235Q615 178 596 132.5Q577 87 542.5 54.5Q508 22 459 5Q410 -12 351 -12Q292 -12 243 5Q194 22 159.5 53.5Q125 85 106 130.5Q87 176 87 233V685Q87 691 91.5 695.5Q96 700 102 700H117Q123 700 127.5 695.5Q132 691 132 685V230Q132 181 149 143.5Q166 106 195.5 80Q225 54 265 40.5Q305 27 351 27Q396 27 436 40.5Q476 54 506 80Q536 106 553.5 143.5Q571 181 571 230V685Q571 691 575.5 695.5Q580 700 586 700H600Q606 700 610.5 695.5Q615 691 615 685V235ZM450 846Q449 803 420 775.5Q391 748 351 748Q311 748 282 775.5Q253 803 252 846Q253 889 282 916.5Q311 944 351 944Q391 944 420 916.5Q449 889 450 846ZM411 846Q411 872 394.5 890.5Q378 909 351 909Q324 909 307.5 890.5Q291 872 291 846Q291 820 307.5 801.5Q324 783 351 783Q378 783 394.5 801.5Q411 820 411 846Z" glyph-name="Uring" horiz-adv-x="702" unicode="Ů" /><glyph d="M615 235Q615 178 596 132.5Q577 87 542.5 54.5Q508 22 459 5Q410 -12 351 -12Q292 -12 243 5Q194 22 159.5 53.5Q125 85 106 130.5Q87 176 87 233V685Q87 691 91.5 695.5Q96 700 102 700H117Q123 700 127.5 695.5Q132 691 132 685V230Q132 181 149 143.5Q166 106 195.5 80Q225 54 265 40.5Q305 27 351 27Q396 27 436 40.5Q476 54 506 80Q536 106 553.5 143.5Q571 181 571 230V685Q571 691 575.5 695.5Q580 700 586 700H600Q606 700 610.5 695.5Q615 691 615 685V235ZM409 782Q396 782 379.5 787.5Q363 793 346.5 799.5Q330 806 315.5 811.5Q301 817 293 817Q283 817 276.5 812.5Q270 808 262 793Q254 779 242 785L235 788Q230 790 227.5 795.5Q225 801 227 806Q235 826 251.5 841.5Q268 857 294 857Q307 857 323.5 851.5Q340 846 356.5 839.5Q373 833 387.5 827.5Q402 822 410 822Q420 822 426.5 826.5Q433 831 441 846Q449 860 461 854L468 851Q473 849 475.5 843.5Q478 838 476 833Q468 813 451.5 797.5Q435 782 409 782Z" glyph-name="Utilde" horiz-adv-x="702" unicode="Ũ" /><glyph d="M777 14Q772 0 757 0H735Q720 0 715 14L505 646L296 14Q291 0 276 0H254Q239 0 234 14L-2 686Q-4 692 -1 696Q2 700 7 700H29Q41 700 45 686L265 49L475 686Q480 700 492 700H519Q531 700 536 686L747 52L965 686Q970 700 981 700H1004Q1018 700 1013 686L777 14ZM601 920Q606 920 608.5 916Q611 912 609 907L539 780Q536 774 532.5 770.5Q529 767 522 767H506Q493 767 498 779L554 906Q557 914 561.5 917Q566 920 575 920H601Z" glyph-name="Wacute" horiz-adv-x="1011" unicode="Ẃ" /><glyph d="M777 14Q772 0 757 0H735Q720 0 715 14L505 646L296 14Q291 0 276 0H254Q239 0 234 14L-2 686Q-4 692 -1 696Q2 700 7 700H29Q41 700 45 686L265 49L475 686Q480 700 492 700H519Q531 700 536 686L747 52L965 686Q970 700 981 700H1004Q1018 700 1013 686L777 14ZM510 920Q519 920 523.5 917Q528 914 533 907L622 780Q625 775 622.5 771Q620 767 615 767H598Q586 767 579 777L505 876L431 777Q422 767 412 767H395Q389 767 386.5 771Q384 775 388 780L477 907Q481 914 485.5 917Q490 920 501 920Z" glyph-name="Wcircumflex" horiz-adv-x="1011" unicode="Ŵ" /><glyph d="M777 14Q772 0 757 0H735Q720 0 715 14L505 646L296 14Q291 0 276 0H254Q239 0 234 14L-2 686Q-4 692 -1 696Q2 700 7 700H29Q41 700 45 686L265 49L475 686Q480 700 492 700H519Q531 700 536 686L747 52L965 686Q970 700 981 700H1004Q1018 700 1013 686L777 14ZM546 808Q546 822 556 832Q566 842 580 842Q594 842 604 832Q614 822 614 808Q614 794 604 784Q594 774 580 774Q566 774 556 784Q546 794 546 808ZM395 808Q395 822 405 832Q415 842 429 842Q443 842 453 832Q463 822 463 808Q463 794 453 784Q443 774 429 774Q415 774 405 784Q395 794 395 808Z" glyph-name="Wdieresis" horiz-adv-x="1011" unicode="Ẅ" /><glyph d="M777 14Q772 0 757 0H735Q720 0 715 14L505 646L296 14Q291 0 276 0H254Q239 0 234 14L-2 686Q-4 692 -1 696Q2 700 7 700H29Q41 700 45 686L265 49L475 686Q480 700 492 700H519Q531 700 536 686L747 52L965 686Q970 700 981 700H1004Q1018 700 1013 686L777 14ZM439 920Q448 920 452.5 917Q457 914 460 906L516 779Q521 767 508 767H492Q481 767 475 780L405 907Q403 912 405.5 916Q408 920 413 920Z" glyph-name="Wgrave" horiz-adv-x="1011" unicode="Ẁ" /><glyph d="M281 311 21 688Q18 693 20.5 696.5Q23 700 28 700H55Q67 700 75 688L302 355H306L533 688Q540 700 552 700H581Q587 700 588.5 696.5Q590 693 587 688L326 311V15Q326 9 321.5 4.5Q317 0 311 0H296Q290 0 285.5 4.5Q281 9 281 15ZM399 920Q404 920 406.5 916Q409 912 407 907L337 780Q334 774 330.5 770.5Q327 767 320 767H304Q291 767 296 779L352 906Q355 914 359.5 917Q364 920 373 920H399Z" glyph-name="Yacute" horiz-adv-x="607" unicode="Ý" /><glyph d="M281 311 21 688Q18 693 20.5 696.5Q23 700 28 700H55Q67 700 75 688L302 355H306L533 688Q540 700 552 700H581Q587 700 588.5 696.5Q590 693 587 688L326 311V15Q326 9 321.5 4.5Q317 0 311 0H296Q290 0 285.5 4.5Q281 9 281 15ZM344 808Q344 822 354 832Q364 842 378 842Q392 842 402 832Q412 822 412 808Q412 794 402 784Q392 774 378 774Q364 774 354 784Q344 794 344 808ZM193 808Q193 822 203 832Q213 842 227 842Q241 842 251 832Q261 822 261 808Q261 794 251 784Q241 774 227 774Q213 774 203 784Q193 794 193 808Z" glyph-name="Ydieresis" horiz-adv-x="607" unicode="Ÿ" /><glyph d="M281 311 21 688Q18 693 20.5 696.5Q23 700 28 700H55Q67 700 75 688L302 355H306L533 688Q540 700 552 700H581Q587 700 588.5 696.5Q590 693 587 688L326 311V15Q326 9 321.5 4.5Q317 0 311 0H296Q290 0 285.5 4.5Q281 9 281 15ZM308 920Q317 920 321.5 917Q326 914 331 907L420 780Q423 775 420.5 771Q418 767 413 767H396Q384 767 377 777L303 876L229 777Q220 767 210 767H193Q187 767 184.5 771Q182 775 186 780L275 907Q279 914 283.5 917Q288 920 299 920Z" glyph-name="Ycircumflex" horiz-adv-x="607" unicode="Ŷ" /><glyph d="M281 311 21 688Q18 693 20.5 696.5Q23 700 28 700H55Q67 700 75 688L302 355H306L533 688Q540 700 552 700H581Q587 700 588.5 696.5Q590 693 587 688L326 311V15Q326 9 321.5 4.5Q317 0 311 0H296Q290 0 285.5 4.5Q281 9 281 15ZM237 920Q246 920 250.5 917Q255 914 258 906L314 779Q319 767 306 767H290Q279 767 273 780L203 907Q201 912 203.5 916Q206 920 211 920Z" glyph-name="Ygrave" horiz-adv-x="607" unicode="Ỳ" /><glyph d="M29 0Q21 0 17.5 4.5Q14 9 14 15V22Q14 29 16 35Q18 41 27 52L489 658H60Q54 658 49.5 662.5Q45 667 45 673V685Q45 691 49.5 695.5Q54 700 60 700H531Q537 700 541.5 696.5Q546 693 546 685V678Q546 668 542 660.5Q538 653 530 643L74 42H551Q557 42 561.5 37.5Q566 33 566 27V15Q566 9 561.5 4.5Q557 0 551 0ZM298 767Q287 767 282.5 770Q278 773 274 780L185 907Q181 912 183.5 916Q186 920 192 920H209Q219 920 228 910L302 811L376 910Q383 920 395 920H412Q417 920 419.5 916Q422 912 419 907L330 780Q325 773 320.5 770Q316 767 307 767H298Z" glyph-name="Zcaron" horiz-adv-x="585" unicode="Ž" /><glyph d="M29 0Q21 0 17.5 4.5Q14 9 14 15V22Q14 29 16 35Q18 41 27 52L489 658H60Q54 658 49.5 662.5Q45 667 45 673V685Q45 691 49.5 695.5Q54 700 60 700H531Q537 700 541.5 696.5Q546 693 546 685V678Q546 668 542 660.5Q538 653 530 643L74 42H551Q557 42 561.5 37.5Q566 33 566 27V15Q566 9 561.5 4.5Q557 0 551 0ZM398 920Q403 920 405.5 916Q408 912 406 907L336 780Q333 774 329.5 770.5Q326 767 319 767H303Q290 767 295 779L351 906Q354 914 358.5 917Q363 920 372 920H398Z" glyph-name="Zacute" horiz-adv-x="585" unicode="Ź" /><glyph d="M29 0Q21 0 17.5 4.5Q14 9 14 15V22Q14 29 16 35Q18 41 27 52L489 658H60Q54 658 49.5 662.5Q45 667 45 673V685Q45 691 49.5 695.5Q54 700 60 700H531Q537 700 541.5 696.5Q546 693 546 685V678Q546 668 542 660.5Q538 653 530 643L74 42H551Q557 42 561.5 37.5Q566 33 566 27V15Q566 9 561.5 4.5Q557 0 551 0ZM302 789Q287 789 276 800Q265 811 265 827Q265 842 276 853Q287 864 302 864Q317 864 328 853Q339 842 339 827Q339 811 328 800Q317 789 302 789Z" glyph-name="Zdotaccent" horiz-adv-x="585" unicode="Ż" /><glyph d="M85 227Q85 185 98.5 148.5Q112 112 137 85.5Q162 59 196 43.5Q230 28 271 28Q312 28 346 43.5Q380 59 405 85.5Q430 112 443.5 148.5Q457 185 457 227Q457 269 443.5 306Q430 343 405 370Q380 397 346 412.5Q312 428 271 428Q230 428 196 412.5Q162 397 137 370Q112 343 98.5 306Q85 269 85 227ZM40 227Q40 279 58 323Q76 367 107 399.5Q138 432 180 450Q222 468 270 468Q334 468 383.5 436.5Q433 405 456 356V441Q456 447 460.5 451.5Q465 456 471 456H485Q491 456 495.5 451.5Q500 447 500 441V15Q500 9 495.5 4.5Q491 0 485 0H471Q465 0 460.5 4.5Q456 9 456 15V100Q432 51 383 19.5Q334 -12 270 -12Q222 -12 180 6Q138 24 107 55.5Q76 87 58 131Q40 175 40 227ZM367 676Q372 676 374.5 672Q377 668 375 663L305 536Q302 530 298.5 526.5Q295 523 288 523H272Q259 523 264 535L320 662Q323 670 327.5 673Q332 676 341 676H367Z" glyph-name="aacute" horiz-adv-x="574" unicode="á" /><glyph d="M85 227Q85 185 98.5 148.5Q112 112 137 85.5Q162 59 196 43.5Q230 28 271 28Q312 28 346 43.5Q380 59 405 85.5Q430 112 443.5 148.5Q457 185 457 227Q457 269 443.5 306Q430 343 405 370Q380 397 346 412.5Q312 428 271 428Q230 428 196 412.5Q162 397 137 370Q112 343 98.5 306Q85 269 85 227ZM40 227Q40 279 58 323Q76 367 107 399.5Q138 432 180 450Q222 468 270 468Q334 468 383.5 436.5Q433 405 456 356V441Q456 447 460.5 451.5Q465 456 471 456H485Q491 456 495.5 451.5Q500 447 500 441V15Q500 9 495.5 4.5Q491 0 485 0H471Q465 0 460.5 4.5Q456 9 456 15V100Q432 51 383 19.5Q334 -12 270 -12Q222 -12 180 6Q138 24 107 55.5Q76 87 58 131Q40 175 40 227ZM276 676Q285 676 289.5 673Q294 670 299 663L388 536Q391 531 388.5 527Q386 523 381 523H364Q352 523 345 533L271 632L197 533Q188 523 178 523H161Q155 523 152.5 527Q150 531 154 536L243 663Q247 670 251.5 673Q256 676 267 676Z" glyph-name="acircumflex" horiz-adv-x="574" unicode="â" /><glyph d="M85 227Q85 185 98.5 148.5Q112 112 137 85.5Q162 59 196 43.5Q230 28 271 28Q312 28 346 43.5Q380 59 405 85.5Q430 112 443.5 148.5Q457 185 457 227Q457 269 443.5 306Q430 343 405 370Q380 397 346 412.5Q312 428 271 428Q230 428 196 412.5Q162 397 137 370Q112 343 98.5 306Q85 269 85 227ZM40 227Q40 279 58 323Q76 367 107 399.5Q138 432 180 450Q222 468 270 468Q334 468 383.5 436.5Q433 405 456 356V441Q456 447 460.5 451.5Q465 456 471 456H485Q491 456 495.5 451.5Q500 447 500 441V15Q500 9 495.5 4.5Q491 0 485 0H471Q465 0 460.5 4.5Q456 9 456 15V100Q432 51 383 19.5Q334 -12 270 -12Q222 -12 180 6Q138 24 107 55.5Q76 87 58 131Q40 175 40 227ZM312 564Q312 578 322 588Q332 598 346 598Q360 598 370 588Q380 578 380 564Q380 550 370 540Q360 530 346 530Q332 530 322 540Q312 550 312 564ZM161 564Q161 578 171 588Q181 598 195 598Q209 598 219 588Q229 578 229 564Q229 550 219 540Q209 530 195 530Q181 530 171 540Q161 550 161 564Z" glyph-name="adieresis" horiz-adv-x="574" unicode="ä" /><glyph d="M85 227Q85 185 98.5 148.5Q112 112 137 85.5Q162 59 196 43.5Q230 28 271 28Q312 28 346 43.5Q380 59 405 85.5Q430 112 443.5 148.5Q457 185 457 227Q457 269 443.5 306Q430 343 405 370Q380 397 346 412.5Q312 428 271 428Q230 428 196 412.5Q162 397 137 370Q112 343 98.5 306Q85 269 85 227ZM40 227Q40 279 58 323Q76 367 107 399.5Q138 432 180 450Q222 468 270 468Q334 468 383.5 436.5Q433 405 456 356V441Q456 447 460.5 451.5Q465 456 471 456H485Q491 456 495.5 451.5Q500 447 500 441V15Q500 9 495.5 4.5Q491 0 485 0H471Q465 0 460.5 4.5Q456 9 456 15V100Q432 51 383 19.5Q334 -12 270 -12Q222 -12 180 6Q138 24 107 55.5Q76 87 58 131Q40 175 40 227ZM205 676Q214 676 218.5 673Q223 670 226 662L282 535Q287 523 274 523H258Q247 523 241 536L171 663Q169 668 171.5 672Q174 676 179 676Z" glyph-name="agrave" horiz-adv-x="574" unicode="à" /><glyph d="M85 227Q85 185 98.5 148.5Q112 112 137 85.5Q162 59 196 43.5Q230 28 271 28Q312 28 346 43.5Q380 59 405 85.5Q430 112 443.5 148.5Q457 185 457 227Q457 269 443.5 306Q430 343 405 370Q380 397 346 412.5Q312 428 271 428Q230 428 196 412.5Q162 397 137 370Q112 343 98.5 306Q85 269 85 227ZM40 227Q40 279 58 323Q76 367 107 399.5Q138 432 180 450Q222 468 270 468Q334 468 383.5 436.5Q433 405 456 356V441Q456 447 460.5 451.5Q465 456 471 456H485Q491 456 495.5 451.5Q500 447 500 441V15Q500 9 495.5 4.5Q491 0 485 0H471Q465 0 460.5 4.5Q456 9 456 15V100Q432 51 383 19.5Q334 -12 270 -12Q222 -12 180 6Q138 24 107 55.5Q76 87 58 131Q40 175 40 227ZM370 602Q369 559 340 531.5Q311 504 271 504Q231 504 202 531.5Q173 559 172 602Q173 645 202 672.5Q231 700 271 700Q311 700 340 672.5Q369 645 370 602ZM331 602Q331 628 314.5 646.5Q298 665 271 665Q244 665 227.5 646.5Q211 628 211 602Q211 576 227.5 557.5Q244 539 271 539Q298 539 314.5 557.5Q331 576 331 602Z" glyph-name="aring" horiz-adv-x="574" unicode="å" /><glyph d="M85 227Q85 185 98.5 148.5Q112 112 137 85.5Q162 59 196 43.5Q230 28 271 28Q312 28 346 43.5Q380 59 405 85.5Q430 112 443.5 148.5Q457 185 457 227Q457 269 443.5 306Q430 343 405 370Q380 397 346 412.5Q312 428 271 428Q230 428 196 412.5Q162 397 137 370Q112 343 98.5 306Q85 269 85 227ZM40 227Q40 279 58 323Q76 367 107 399.5Q138 432 180 450Q222 468 270 468Q334 468 383.5 436.5Q433 405 456 356V441Q456 447 460.5 451.5Q465 456 471 456H485Q491 456 495.5 451.5Q500 447 500 441V15Q500 9 495.5 4.5Q491 0 485 0H471Q465 0 460.5 4.5Q456 9 456 15V100Q432 51 383 19.5Q334 -12 270 -12Q222 -12 180 6Q138 24 107 55.5Q76 87 58 131Q40 175 40 227ZM329 538Q316 538 299.5 543.5Q283 549 266.5 555.5Q250 562 235.5 567.5Q221 573 213 573Q203 573 196.5 568.5Q190 564 182 549Q174 535 162 541L155 544Q150 546 147.5 551.5Q145 557 147 562Q155 582 171.5 597.5Q188 613 214 613Q227 613 243.5 607.5Q260 602 276.5 595.5Q293 589 307.5 583.5Q322 578 330 578Q340 578 346.5 582.5Q353 587 361 602Q369 616 381 610L388 607Q393 605 395.5 599.5Q398 594 396 589Q388 569 371.5 553.5Q355 538 329 538Z" glyph-name="atilde" horiz-adv-x="574" unicode="ã" /><glyph d="M85 227Q85 185 98.5 148.5Q112 112 137 85.5Q162 59 196 43.5Q230 28 271 28Q312 28 346 43.5Q380 59 405 85.5Q430 112 443.5 148.5Q457 185 457 227Q457 269 443.5 306Q430 343 405 370Q380 397 346 412.5Q312 428 271 428Q230 428 196 412.5Q162 397 137 370Q112 343 98.5 306Q85 269 85 227ZM40 227Q40 279 58 323Q76 367 107 399.5Q138 432 180 450Q222 468 270 468Q334 468 383.5 436.5Q433 405 456 356V441Q456 447 460.5 451.5Q465 456 471 456H485Q491 456 495.5 451.5Q500 447 500 441V15Q500 9 495.5 4.5Q491 0 485 0H471Q465 0 460.5 4.5Q456 9 456 15V100Q432 51 383 19.5Q334 -12 270 -12Q222 -12 180 6Q138 24 107 55.5Q76 87 58 131Q40 175 40 227ZM271 518Q225 518 197 542.5Q169 567 169 609V614Q169 625 180 625H196Q207 625 207 614V612Q207 583 225.5 568.5Q244 554 271 554Q298 554 316.5 568.5Q335 583 335 612V614Q335 625 346 625H362Q373 625 373 614V609Q373 567 345 542.5Q317 518 271 518Z" glyph-name="abreve" horiz-adv-x="574" unicode="ă" /><glyph d="M85 227Q85 185 98.5 148.5Q112 112 137 85.5Q162 59 196 43.5Q230 28 271 28Q312 28 346 43.5Q380 59 405 85.5Q430 112 443.5 148.5Q457 185 457 227Q457 269 443.5 306Q430 343 405 370Q380 397 346 412.5Q312 428 271 428Q230 428 196 412.5Q162 397 137 370Q112 343 98.5 306Q85 269 85 227ZM40 227Q40 279 58 323Q76 367 107 399.5Q138 432 180 450Q222 468 270 468Q334 468 383.5 436.5Q433 405 456 356V441Q456 447 460.5 451.5Q465 456 471 456H485Q491 456 495.5 451.5Q500 447 500 441V15Q500 9 495.5 4.5Q491 0 485 0H471Q465 0 460.5 4.5Q456 9 456 15V100Q432 51 383 19.5Q334 -12 270 -12Q222 -12 180 6Q138 24 107 55.5Q76 87 58 131Q40 175 40 227ZM171 546Q165 546 160.5 550.5Q156 555 156 561V568Q156 574 160.5 578.5Q165 583 171 583H371Q377 583 381.5 578.5Q386 574 386 568V561Q386 555 381.5 550.5Q377 546 371 546Z" glyph-name="amacron" horiz-adv-x="574" unicode="ā" /><glyph d="M85 227Q85 185 98.5 148.5Q112 112 137 85.5Q162 59 196 43.5Q230 28 271 28Q312 28 346 43.5Q380 59 405 85.5Q430 112 443.5 148.5Q457 185 457 227Q457 269 443.5 306Q430 343 405 370Q380 397 346 412.5Q312 428 271 428Q230 428 196 412.5Q162 397 137 370Q112 343 98.5 306Q85 269 85 227ZM40 227Q40 279 58 323Q76 367 107 399.5Q138 432 180 450Q222 468 270 468Q334 468 383.5 436.5Q433 405 456 356V441Q456 447 460.5 451.5Q465 456 471 456H485Q491 456 495.5 451.5Q500 447 500 441V15Q500 9 495.5 4.5Q491 0 485 0H471Q465 0 460.5 4.5Q456 9 456 15V100Q432 51 383 19.5Q334 -12 270 -12Q222 -12 180 6Q138 24 107 55.5Q76 87 58 131Q40 175 40 227ZM386 -107Q386 -88 395 -68.5Q404 -49 417 -32Q430 -15 445 -1Q460 13 472 22L489 20L492 11Q480 -1 468.5 -16.5Q457 -32 448 -47.5Q439 -63 433.5 -77.5Q428 -92 428 -103Q428 -123 439 -132Q450 -141 469 -141Q483 -141 498 -137Q503 -135 506.5 -138.5Q510 -142 509 -147L508 -157Q508 -162 502.5 -165Q497 -168 489.5 -170Q482 -172 474 -173Q466 -174 460 -174Q424 -174 405 -155Q386 -136 386 -107Z" glyph-name="aogonek" horiz-adv-x="574" unicode="ą" /><glyph d="M474 110Q445 52 391.5 20Q338 -12 272 -12Q224 -12 181.5 6Q139 24 107.5 56Q76 88 58 132Q40 176 40 228Q40 280 58 324Q76 368 107.5 400Q139 432 181.5 450Q224 468 272 468Q338 468 391.5 436Q445 404 474 346Q476 341 475.5 335.5Q475 330 467 326L455 321Q441 316 435 328Q412 373 370 400.5Q328 428 272 428Q231 428 196.5 412.5Q162 397 137 370Q112 343 98.5 306.5Q85 270 85 228Q85 186 98.5 149.5Q112 113 137 86Q162 59 196.5 43.5Q231 28 272 28Q328 28 370 55.5Q412 83 435 128Q441 139 455 134L468 129Q475 126 475.5 120.5Q476 115 474 110ZM297 0 240 -129Q234 -143 223 -143H207Q202 -143 199 -139.5Q196 -136 199 -129L253 0Z" glyph-name="ccedilla" horiz-adv-x="511" unicode="ç" /><glyph d="M474 110Q445 52 391.5 20Q338 -12 272 -12Q224 -12 181.5 6Q139 24 107.5 56Q76 88 58 132Q40 176 40 228Q40 280 58 324Q76 368 107.5 400Q139 432 181.5 450Q224 468 272 468Q338 468 391.5 436Q445 404 474 346Q476 341 475.5 335.5Q475 330 467 326L455 321Q441 316 435 328Q412 373 370 400.5Q328 428 272 428Q231 428 196.5 412.5Q162 397 137 370Q112 343 98.5 306.5Q85 270 85 228Q85 186 98.5 149.5Q112 113 137 86Q162 59 196.5 43.5Q231 28 272 28Q328 28 370 55.5Q412 83 435 128Q441 139 455 134L468 129Q475 126 475.5 120.5Q476 115 474 110ZM353 676Q358 676 360.5 672Q363 668 361 663L291 536Q288 530 284.5 526.5Q281 523 274 523H258Q245 523 250 535L306 662Q309 670 313.5 673Q318 676 327 676H353Z" glyph-name="cacute" horiz-adv-x="511" unicode="ć" /><glyph d="M474 110Q445 52 391.5 20Q338 -12 272 -12Q224 -12 181.5 6Q139 24 107.5 56Q76 88 58 132Q40 176 40 228Q40 280 58 324Q76 368 107.5 400Q139 432 181.5 450Q224 468 272 468Q338 468 391.5 436Q445 404 474 346Q476 341 475.5 335.5Q475 330 467 326L455 321Q441 316 435 328Q412 373 370 400.5Q328 428 272 428Q231 428 196.5 412.5Q162 397 137 370Q112 343 98.5 306.5Q85 270 85 228Q85 186 98.5 149.5Q112 113 137 86Q162 59 196.5 43.5Q231 28 272 28Q328 28 370 55.5Q412 83 435 128Q441 139 455 134L468 129Q475 126 475.5 120.5Q476 115 474 110ZM253 523Q242 523 237.5 526Q233 529 229 536L140 663Q136 668 138.5 672Q141 676 147 676H164Q174 676 183 666L257 567L331 666Q338 676 350 676H367Q372 676 374.5 672Q377 668 374 663L285 536Q280 529 275.5 526Q271 523 262 523H253Z" glyph-name="ccaron" horiz-adv-x="511" unicode="č" /><glyph d="M474 110Q445 52 391.5 20Q338 -12 272 -12Q224 -12 181.5 6Q139 24 107.5 56Q76 88 58 132Q40 176 40 228Q40 280 58 324Q76 368 107.5 400Q139 432 181.5 450Q224 468 272 468Q338 468 391.5 436Q445 404 474 346Q476 341 475.5 335.5Q475 330 467 326L455 321Q441 316 435 328Q412 373 370 400.5Q328 428 272 428Q231 428 196.5 412.5Q162 397 137 370Q112 343 98.5 306.5Q85 270 85 228Q85 186 98.5 149.5Q112 113 137 86Q162 59 196.5 43.5Q231 28 272 28Q328 28 370 55.5Q412 83 435 128Q441 139 455 134L468 129Q475 126 475.5 120.5Q476 115 474 110ZM262 676Q271 676 275.5 673Q280 670 285 663L374 536Q377 531 374.5 527Q372 523 367 523H350Q338 523 331 533L257 632L183 533Q174 523 164 523H147Q141 523 138.5 527Q136 531 140 536L229 663Q233 670 237.5 673Q242 676 253 676Z" glyph-name="ccircumflex" horiz-adv-x="511" unicode="ĉ" /><glyph d="M474 110Q445 52 391.5 20Q338 -12 272 -12Q224 -12 181.5 6Q139 24 107.5 56Q76 88 58 132Q40 176 40 228Q40 280 58 324Q76 368 107.5 400Q139 432 181.5 450Q224 468 272 468Q338 468 391.5 436Q445 404 474 346Q476 341 475.5 335.5Q475 330 467 326L455 321Q441 316 435 328Q412 373 370 400.5Q328 428 272 428Q231 428 196.5 412.5Q162 397 137 370Q112 343 98.5 306.5Q85 270 85 228Q85 186 98.5 149.5Q112 113 137 86Q162 59 196.5 43.5Q231 28 272 28Q328 28 370 55.5Q412 83 435 128Q441 139 455 134L468 129Q475 126 475.5 120.5Q476 115 474 110ZM257 545Q242 545 231 556Q220 567 220 583Q220 598 231 609Q242 620 257 620Q272 620 283 609Q294 598 294 583Q294 567 283 556Q272 545 257 545Z" glyph-name="cdotaccent" horiz-adv-x="511" unicode="ċ" /><glyph d="M85 227Q85 185 98.5 148.5Q112 112 137 85.5Q162 59 196 43.5Q230 28 271 28Q312 28 346 43.5Q380 59 405 85.5Q430 112 443.5 148.5Q457 185 457 227Q457 269 443.5 306Q430 343 405 370Q380 397 346 412.5Q312 428 271 428Q230 428 196 412.5Q162 397 137 370Q112 343 98.5 306Q85 269 85 227ZM40 227Q40 279 58 323Q76 367 107 399.5Q138 432 180 450Q222 468 270 468Q334 468 383.5 436.5Q433 405 456 356V685Q456 691 460.5 695.5Q465 700 471 700H485Q491 700 495.5 695.5Q500 691 500 685V15Q500 9 495.5 4.5Q491 0 485 0H471Q465 0 460.5 4.5Q456 9 456 15V100Q432 51 383 19.5Q334 -12 270 -12Q222 -12 180 6Q138 24 107 55.5Q76 87 58 131Q40 175 40 227ZM611 686Q613 693 617 696.5Q621 700 630 700H648Q653 700 655.5 695.5Q658 691 656 686L603 550Q600 543 596 539.5Q592 536 584 536H569Q563 536 560.5 540.5Q558 545 560 550Z" glyph-name="dcaron" horiz-adv-x="587" unicode="ď" /><glyph d="M85 227Q85 185 98.5 148.5Q112 112 137 85.5Q162 59 196 43.5Q230 28 271 28Q312 28 346 43.5Q380 59 405 85.5Q430 112 443.5 148.5Q457 185 457 227Q457 269 443.5 306Q430 343 405 370Q380 397 346 412.5Q312 428 271 428Q230 428 196 412.5Q162 397 137 370Q112 343 98.5 306Q85 269 85 227ZM456 100Q432 51 383 19.5Q334 -12 270 -12Q222 -12 180 6Q138 24 107 55.5Q76 87 58 131Q40 175 40 227Q40 279 58 323Q76 367 107 399.5Q138 432 180 450Q222 468 270 468Q334 468 383.5 436.5Q433 405 456 356V548H305Q299 548 294.5 552.5Q290 557 290 563V571Q290 577 294.5 581.5Q299 586 305 586H456V685Q456 691 460.5 695.5Q465 700 471 700H485Q491 700 495.5 695.5Q500 691 500 685V586H565Q571 586 575.5 581.5Q580 577 580 571V563Q580 557 575.5 552.5Q571 548 565 548H500V15Q500 9 495.5 4.5Q491 0 485 0H471Q465 0 460.5 4.5Q456 9 456 15Z" glyph-name="dcroat" horiz-adv-x="575" unicode="đ" /><glyph d="M271 468Q317 468 358.5 452Q400 436 431.5 406Q463 376 481 333.5Q499 291 499 237V229Q499 223 495 218.5Q491 214 485 214H85Q88 174 103 140Q118 106 143 81Q168 56 201.5 42Q235 28 276 28Q331 28 369 49Q407 70 431 101Q436 106 441.5 108.5Q447 111 454 106L463 100Q476 91 469 80Q439 37 388 12.5Q337 -12 274 -12Q223 -12 180.5 6Q138 24 106.5 55.5Q75 87 57.5 131Q40 175 40 227Q40 277 57 321Q74 365 105 397.5Q136 430 178.5 449Q221 468 271 468ZM455 252Q452 292 437 324.5Q422 357 397.5 380Q373 403 340.5 415.5Q308 428 270 428Q231 428 199 414.5Q167 401 143 377Q119 353 104.5 321Q90 289 86 252ZM362 676Q367 676 369.5 672Q372 668 370 663L300 536Q297 530 293.5 526.5Q290 523 283 523H267Q254 523 259 535L315 662Q318 670 322.5 673Q327 676 336 676H362Z" glyph-name="eacute" horiz-adv-x="531" unicode="é" /><glyph d="M271 468Q317 468 358.5 452Q400 436 431.5 406Q463 376 481 333.5Q499 291 499 237V229Q499 223 495 218.5Q491 214 485 214H85Q88 174 103 140Q118 106 143 81Q168 56 201.5 42Q235 28 276 28Q331 28 369 49Q407 70 431 101Q436 106 441.5 108.5Q447 111 454 106L463 100Q476 91 469 80Q439 37 388 12.5Q337 -12 274 -12Q223 -12 180.5 6Q138 24 106.5 55.5Q75 87 57.5 131Q40 175 40 227Q40 277 57 321Q74 365 105 397.5Q136 430 178.5 449Q221 468 271 468ZM455 252Q452 292 437 324.5Q422 357 397.5 380Q373 403 340.5 415.5Q308 428 270 428Q231 428 199 414.5Q167 401 143 377Q119 353 104.5 321Q90 289 86 252ZM271 676Q280 676 284.5 673Q289 670 294 663L383 536Q386 531 383.5 527Q381 523 376 523H359Q347 523 340 533L266 632L192 533Q183 523 173 523H156Q150 523 147.5 527Q145 531 149 536L238 663Q242 670 246.5 673Q251 676 262 676Z" glyph-name="ecircumflex" horiz-adv-x="531" unicode="ê" /><glyph d="M271 468Q317 468 358.5 452Q400 436 431.5 406Q463 376 481 333.5Q499 291 499 237V229Q499 223 495 218.5Q491 214 485 214H85Q88 174 103 140Q118 106 143 81Q168 56 201.5 42Q235 28 276 28Q331 28 369 49Q407 70 431 101Q436 106 441.5 108.5Q447 111 454 106L463 100Q476 91 469 80Q439 37 388 12.5Q337 -12 274 -12Q223 -12 180.5 6Q138 24 106.5 55.5Q75 87 57.5 131Q40 175 40 227Q40 277 57 321Q74 365 105 397.5Q136 430 178.5 449Q221 468 271 468ZM455 252Q452 292 437 324.5Q422 357 397.5 380Q373 403 340.5 415.5Q308 428 270 428Q231 428 199 414.5Q167 401 143 377Q119 353 104.5 321Q90 289 86 252ZM307 564Q307 578 317 588Q327 598 341 598Q355 598 365 588Q375 578 375 564Q375 550 365 540Q355 530 341 530Q327 530 317 540Q307 550 307 564ZM156 564Q156 578 166 588Q176 598 190 598Q204 598 214 588Q224 578 224 564Q224 550 214 540Q204 530 190 530Q176 530 166 540Q156 550 156 564Z" glyph-name="edieresis" horiz-adv-x="531" unicode="ë" /><glyph d="M271 468Q317 468 358.5 452Q400 436 431.5 406Q463 376 481 333.5Q499 291 499 237V229Q499 223 495 218.5Q491 214 485 214H85Q88 174 103 140Q118 106 143 81Q168 56 201.5 42Q235 28 276 28Q331 28 369 49Q407 70 431 101Q436 106 441.5 108.5Q447 111 454 106L463 100Q476 91 469 80Q439 37 388 12.5Q337 -12 274 -12Q223 -12 180.5 6Q138 24 106.5 55.5Q75 87 57.5 131Q40 175 40 227Q40 277 57 321Q74 365 105 397.5Q136 430 178.5 449Q221 468 271 468ZM455 252Q452 292 437 324.5Q422 357 397.5 380Q373 403 340.5 415.5Q308 428 270 428Q231 428 199 414.5Q167 401 143 377Q119 353 104.5 321Q90 289 86 252ZM200 676Q209 676 213.5 673Q218 670 221 662L277 535Q282 523 269 523H253Q242 523 236 536L166 663Q164 668 166.5 672Q169 676 174 676Z" glyph-name="egrave" horiz-adv-x="531" unicode="è" /><glyph d="M271 468Q317 468 358.5 452Q400 436 431.5 406Q463 376 481 333.5Q499 291 499 237V229Q499 223 495 218.5Q491 214 485 214H85Q88 174 103 140Q118 106 143 81Q168 56 201.5 42Q235 28 276 28Q331 28 369 49Q407 70 431 101Q436 106 441.5 108.5Q447 111 454 106L463 100Q476 91 469 80Q439 37 388 12.5Q337 -12 274 -12Q223 -12 180.5 6Q138 24 106.5 55.5Q75 87 57.5 131Q40 175 40 227Q40 277 57 321Q74 365 105 397.5Q136 430 178.5 449Q221 468 271 468ZM455 252Q452 292 437 324.5Q422 357 397.5 380Q373 403 340.5 415.5Q308 428 270 428Q231 428 199 414.5Q167 401 143 377Q119 353 104.5 321Q90 289 86 252ZM266 518Q220 518 192 542.5Q164 567 164 609V614Q164 625 175 625H191Q202 625 202 614V612Q202 583 220.5 568.5Q239 554 266 554Q293 554 311.5 568.5Q330 583 330 612V614Q330 625 341 625H357Q368 625 368 614V609Q368 567 340 542.5Q312 518 266 518Z" glyph-name="ebreve" horiz-adv-x="531" unicode="ĕ" /><glyph d="M271 468Q317 468 358.5 452Q400 436 431.5 406Q463 376 481 333.5Q499 291 499 237V229Q499 223 495 218.5Q491 214 485 214H85Q88 174 103 140Q118 106 143 81Q168 56 201.5 42Q235 28 276 28Q331 28 369 49Q407 70 431 101Q436 106 441.5 108.5Q447 111 454 106L463 100Q476 91 469 80Q439 37 388 12.5Q337 -12 274 -12Q223 -12 180.5 6Q138 24 106.5 55.5Q75 87 57.5 131Q40 175 40 227Q40 277 57 321Q74 365 105 397.5Q136 430 178.5 449Q221 468 271 468ZM455 252Q452 292 437 324.5Q422 357 397.5 380Q373 403 340.5 415.5Q308 428 270 428Q231 428 199 414.5Q167 401 143 377Q119 353 104.5 321Q90 289 86 252ZM262 523Q251 523 246.5 526Q242 529 238 536L149 663Q145 668 147.5 672Q150 676 156 676H173Q183 676 192 666L266 567L340 666Q347 676 359 676H376Q381 676 383.5 672Q386 668 383 663L294 536Q289 529 284.5 526Q280 523 271 523H262Z" glyph-name="ecaron" horiz-adv-x="531" unicode="ě" /><glyph d="M271 468Q317 468 358.5 452Q400 436 431.5 406Q463 376 481 333.5Q499 291 499 237V229Q499 223 495 218.5Q491 214 485 214H85Q88 174 103 140Q118 106 143 81Q168 56 201.5 42Q235 28 276 28Q331 28 369 49Q407 70 431 101Q436 106 441.5 108.5Q447 111 454 106L463 100Q476 91 469 80Q439 37 388 12.5Q337 -12 274 -12Q223 -12 180.5 6Q138 24 106.5 55.5Q75 87 57.5 131Q40 175 40 227Q40 277 57 321Q74 365 105 397.5Q136 430 178.5 449Q221 468 271 468ZM455 252Q452 292 437 324.5Q422 357 397.5 380Q373 403 340.5 415.5Q308 428 270 428Q231 428 199 414.5Q167 401 143 377Q119 353 104.5 321Q90 289 86 252ZM266 545Q251 545 240 556Q229 567 229 583Q229 598 240 609Q251 620 266 620Q281 620 292 609Q303 598 303 583Q303 567 292 556Q281 545 266 545Z" glyph-name="edotaccent" horiz-adv-x="531" unicode="ė" /><glyph d="M271 468Q317 468 358.5 452Q400 436 431.5 406Q463 376 481 333.5Q499 291 499 237V229Q499 223 495 218.5Q491 214 485 214H85Q88 174 103 140Q118 106 143 81Q168 56 201.5 42Q235 28 276 28Q331 28 369 49Q407 70 431 101Q436 106 441.5 108.5Q447 111 454 106L463 100Q476 91 469 80Q439 37 388 12.5Q337 -12 274 -12Q223 -12 180.5 6Q138 24 106.5 55.5Q75 87 57.5 131Q40 175 40 227Q40 277 57 321Q74 365 105 397.5Q136 430 178.5 449Q221 468 271 468ZM455 252Q452 292 437 324.5Q422 357 397.5 380Q373 403 340.5 415.5Q308 428 270 428Q231 428 199 414.5Q167 401 143 377Q119 353 104.5 321Q90 289 86 252ZM166 546Q160 546 155.5 550.5Q151 555 151 561V568Q151 574 155.5 578.5Q160 583 166 583H366Q372 583 376.5 578.5Q381 574 381 568V561Q381 555 376.5 550.5Q372 546 366 546Z" glyph-name="emacron" horiz-adv-x="531" unicode="ē" /><glyph d="M271 468Q317 468 358.5 452Q400 436 431.5 406Q463 376 481 333.5Q499 291 499 237V229Q499 223 495 218.5Q491 214 485 214H85Q88 174 103 140Q118 106 143 81Q168 56 201.5 42Q235 28 276 28Q331 28 369 49Q407 70 431 101Q436 106 441.5 108.5Q447 111 454 106L463 100Q476 91 469 80Q439 37 388 12.5Q337 -12 274 -12Q223 -12 180.5 6Q138 24 106.5 55.5Q75 87 57.5 131Q40 175 40 227Q40 277 57 321Q74 365 105 397.5Q136 430 178.5 449Q221 468 271 468ZM455 252Q452 292 437 324.5Q422 357 397.5 380Q373 403 340.5 415.5Q308 428 270 428Q231 428 199 414.5Q167 401 143 377Q119 353 104.5 321Q90 289 86 252ZM253 -97Q253 -78 262 -58.5Q271 -39 284 -22Q297 -5 312 9Q327 23 339 32L356 30L359 21Q347 9 335.5 -6.5Q324 -22 315 -37.5Q306 -53 300.5 -67.5Q295 -82 295 -93Q295 -113 306 -122Q317 -131 336 -131Q350 -131 365 -127Q370 -125 373.5 -128.5Q377 -132 376 -137L375 -147Q375 -152 369.5 -155Q364 -158 356.5 -160Q349 -162 341 -163Q333 -164 327 -164Q291 -164 272 -145Q253 -126 253 -97Z" glyph-name="eogonek" horiz-adv-x="531" unicode="ę" /><glyph d="M84 228Q84 186 97.5 149Q111 112 136 85Q161 58 195 42.5Q229 27 270 27Q311 27 345 42.5Q379 58 404 85Q429 112 442.5 149Q456 186 456 228Q456 270 442.5 306.5Q429 343 404 370Q379 397 345 412.5Q311 428 270 428Q229 428 195 412.5Q161 397 136 370Q111 343 97.5 306.5Q84 270 84 228ZM272 -179Q318 -179 352.5 -166Q387 -153 410 -129.5Q433 -106 444.5 -73.5Q456 -41 456 -2V99Q432 50 383 18.5Q334 -13 270 -13Q221 -13 179 5Q137 23 106 55Q75 87 57.5 131Q40 175 40 228Q40 280 58 324Q76 368 107 400Q138 432 180 450Q222 468 270 468Q334 468 383.5 436Q433 404 456 355V440Q456 446 460.5 450.5Q465 455 471 455H485Q491 455 495.5 450.5Q500 446 500 440V-5Q500 -51 485 -90Q470 -129 441 -157Q412 -185 369.5 -200.5Q327 -216 272 -216Q224 -216 186 -204Q148 -192 120.5 -171.5Q93 -151 75.5 -124.5Q58 -98 51 -69Q48 -56 62 -52L75 -49Q88 -46 93 -60Q100 -83 114 -104.5Q128 -126 150 -142.5Q172 -159 202 -169Q232 -179 272 -179ZM269 518Q223 518 195 542.5Q167 567 167 609V614Q167 625 178 625H194Q205 625 205 614V612Q205 583 223.5 568.5Q242 554 269 554Q296 554 314.5 568.5Q333 583 333 612V614Q333 625 344 625H360Q371 625 371 614V609Q371 567 343 542.5Q315 518 269 518Z" glyph-name="gbreve" horiz-adv-x="574" unicode="ğ" /><glyph d="M84 228Q84 186 97.5 149Q111 112 136 85Q161 58 195 42.5Q229 27 270 27Q311 27 345 42.5Q379 58 404 85Q429 112 442.5 149Q456 186 456 228Q456 270 442.5 306.5Q429 343 404 370Q379 397 345 412.5Q311 428 270 428Q229 428 195 412.5Q161 397 136 370Q111 343 97.5 306.5Q84 270 84 228ZM272 -179Q318 -179 352.5 -166Q387 -153 410 -129.5Q433 -106 444.5 -73.5Q456 -41 456 -2V99Q432 50 383 18.5Q334 -13 270 -13Q221 -13 179 5Q137 23 106 55Q75 87 57.5 131Q40 175 40 228Q40 280 58 324Q76 368 107 400Q138 432 180 450Q222 468 270 468Q334 468 383.5 436Q433 404 456 355V440Q456 446 460.5 450.5Q465 455 471 455H485Q491 455 495.5 450.5Q500 446 500 440V-5Q500 -51 485 -90Q470 -129 441 -157Q412 -185 369.5 -200.5Q327 -216 272 -216Q224 -216 186 -204Q148 -192 120.5 -171.5Q93 -151 75.5 -124.5Q58 -98 51 -69Q48 -56 62 -52L75 -49Q88 -46 93 -60Q100 -83 114 -104.5Q128 -126 150 -142.5Q172 -159 202 -169Q232 -179 272 -179ZM274 676Q283 676 287.5 673Q292 670 297 663L386 536Q389 531 386.5 527Q384 523 379 523H362Q350 523 343 533L269 632L195 533Q186 523 176 523H159Q153 523 150.5 527Q148 531 152 536L241 663Q245 670 249.5 673Q254 676 265 676Z" glyph-name="gcircumflex" horiz-adv-x="574" unicode="ĝ" /><glyph d="M84 228Q84 186 97.5 149Q111 112 136 85Q161 58 195 42.5Q229 27 270 27Q311 27 345 42.5Q379 58 404 85Q429 112 442.5 149Q456 186 456 228Q456 270 442.5 306.5Q429 343 404 370Q379 397 345 412.5Q311 428 270 428Q229 428 195 412.5Q161 397 136 370Q111 343 97.5 306.5Q84 270 84 228ZM272 -179Q318 -179 352.5 -166Q387 -153 410 -129.5Q433 -106 444.5 -73.5Q456 -41 456 -2V99Q432 50 383 18.5Q334 -13 270 -13Q221 -13 179 5Q137 23 106 55Q75 87 57.5 131Q40 175 40 228Q40 280 58 324Q76 368 107 400Q138 432 180 450Q222 468 270 468Q334 468 383.5 436Q433 404 456 355V440Q456 446 460.5 450.5Q465 455 471 455H485Q491 455 495.5 450.5Q500 446 500 440V-5Q500 -51 485 -90Q470 -129 441 -157Q412 -185 369.5 -200.5Q327 -216 272 -216Q224 -216 186 -204Q148 -192 120.5 -171.5Q93 -151 75.5 -124.5Q58 -98 51 -69Q48 -56 62 -52L75 -49Q88 -46 93 -60Q100 -83 114 -104.5Q128 -126 150 -142.5Q172 -159 202 -169Q232 -179 272 -179ZM259 553Q254 553 251.5 557Q249 561 251 566L321 693Q327 706 338 706H354Q367 706 362 694L306 566Q303 559 298.5 556Q294 553 285 553H259Z" glyph-name="gcommaaccent" horiz-adv-x="574" unicode="ģ" /><glyph d="M84 228Q84 186 97.5 149Q111 112 136 85Q161 58 195 42.5Q229 27 270 27Q311 27 345 42.5Q379 58 404 85Q429 112 442.5 149Q456 186 456 228Q456 270 442.5 306.5Q429 343 404 370Q379 397 345 412.5Q311 428 270 428Q229 428 195 412.5Q161 397 136 370Q111 343 97.5 306.5Q84 270 84 228ZM272 -179Q318 -179 352.5 -166Q387 -153 410 -129.5Q433 -106 444.5 -73.5Q456 -41 456 -2V99Q432 50 383 18.5Q334 -13 270 -13Q221 -13 179 5Q137 23 106 55Q75 87 57.5 131Q40 175 40 228Q40 280 58 324Q76 368 107 400Q138 432 180 450Q222 468 270 468Q334 468 383.5 436Q433 404 456 355V440Q456 446 460.5 450.5Q465 455 471 455H485Q491 455 495.5 450.5Q500 446 500 440V-5Q500 -51 485 -90Q470 -129 441 -157Q412 -185 369.5 -200.5Q327 -216 272 -216Q224 -216 186 -204Q148 -192 120.5 -171.5Q93 -151 75.5 -124.5Q58 -98 51 -69Q48 -56 62 -52L75 -49Q88 -46 93 -60Q100 -83 114 -104.5Q128 -126 150 -142.5Q172 -159 202 -169Q232 -179 272 -179ZM270 545Q255 545 244 556Q233 567 233 583Q233 598 244 609Q255 620 270 620Q285 620 296 609Q307 598 307 583Q307 567 296 556Q285 545 270 545Z" glyph-name="gdotaccent" horiz-adv-x="574" unicode="ġ" /><glyph d="M119 15Q119 9 114.5 4.5Q110 0 104 0H90Q84 0 79.5 4.5Q75 9 75 15V548H13Q7 548 2.5 552.5Q-2 557 -2 563V571Q-2 577 2.5 581.5Q7 586 13 586H75V685Q75 691 79.5 695.5Q84 700 90 700H104Q110 700 114.5 695.5Q119 691 119 685V586H273Q279 586 283.5 581.5Q288 577 288 571V563Q288 557 283.5 552.5Q279 548 273 548H119V365Q139 411 185 439.5Q231 468 294 468Q340 468 376.5 453.5Q413 439 438.5 413Q464 387 477.5 350.5Q491 314 491 269V15Q491 9 486.5 4.5Q482 0 476 0H462Q456 0 451.5 4.5Q447 9 447 15V261Q447 340 406.5 384.5Q366 429 288 429Q249 429 217.5 416.5Q186 404 164.5 381.5Q143 359 131 328.5Q119 298 119 261V15Z" glyph-name="hbar" horiz-adv-x="558" unicode="ħ" /><glyph d="M447 261Q447 340 406.5 384.5Q366 429 288 429Q249 429 217.5 416.5Q186 404 164.5 381.5Q143 359 131 328.5Q119 298 119 261V15Q119 9 114.5 4.5Q110 0 104 0H90Q84 0 79.5 4.5Q75 9 75 15V685Q75 691 79.5 695.5Q84 700 90 700H104Q110 700 114.5 695.5Q119 691 119 685V365Q139 411 185 439.5Q231 468 294 468Q340 468 376.5 453.5Q413 439 438.5 413Q464 387 477.5 350.5Q491 314 491 269V15Q491 9 486.5 4.5Q482 0 476 0H462Q456 0 451.5 4.5Q447 9 447 15ZM284 920Q293 920 297.5 917Q302 914 307 907L396 780Q399 775 396.5 771Q394 767 389 767H372Q360 767 353 777L279 876L205 777Q196 767 186 767H169Q163 767 160.5 771Q158 775 162 780L251 907Q255 914 259.5 917Q264 920 275 920Z" glyph-name="hcircumflex" horiz-adv-x="558" unicode="ĥ" /><glyph d="M89 0Q83 0 78.5 4.5Q74 9 74 15V441Q74 447 78.5 451.5Q83 456 89 456H103Q109 456 113.5 451.5Q118 447 118 441V15Q118 9 113.5 4.5Q109 0 103 0ZM192 676Q197 676 199.5 672Q202 668 200 663L130 536Q127 530 123.5 526.5Q120 523 113 523H97Q84 523 89 535L145 662Q148 670 152.5 673Q157 676 166 676H192Z" glyph-name="iacute" horiz-adv-x="192" unicode="í" /><glyph d="M89 0Q83 0 78.5 4.5Q74 9 74 15V441Q74 447 78.5 451.5Q83 456 89 456H103Q109 456 113.5 451.5Q118 447 118 441V15Q118 9 113.5 4.5Q109 0 103 0ZM101 676Q110 676 114.5 673Q119 670 124 663L213 536Q216 531 213.5 527Q211 523 206 523H189Q177 523 170 533L96 632L22 533Q13 523 3 523H-14Q-20 523 -22.5 527Q-25 531 -21 536L68 663Q72 670 76.5 673Q81 676 92 676Z" glyph-name="icircumflex" horiz-adv-x="192" unicode="î" /><glyph d="M89 0Q83 0 78.5 4.5Q74 9 74 15V441Q74 447 78.5 451.5Q83 456 89 456H103Q109 456 113.5 451.5Q118 447 118 441V15Q118 9 113.5 4.5Q109 0 103 0ZM137 564Q137 578 147 588Q157 598 171 598Q185 598 195 588Q205 578 205 564Q205 550 195 540Q185 530 171 530Q157 530 147 540Q137 550 137 564ZM-14 564Q-14 578 -4 588Q6 598 20 598Q34 598 44 588Q54 578 54 564Q54 550 44 540Q34 530 20 530Q6 530 -4 540Q-14 550 -14 564Z" glyph-name="idieresis" horiz-adv-x="192" unicode="ï" /><glyph d="M89 0Q83 0 78.5 4.5Q74 9 74 15V441Q74 447 78.5 451.5Q83 456 89 456H103Q109 456 113.5 451.5Q118 447 118 441V15Q118 9 113.5 4.5Q109 0 103 0ZM30 676Q39 676 43.5 673Q48 670 51 662L107 535Q112 523 99 523H83Q72 523 66 536L-4 663Q-6 668 -3.5 672Q-1 676 4 676Z" glyph-name="igrave" horiz-adv-x="192" unicode="ì" /><glyph d="M89 0Q83 0 78.5 4.5Q74 9 74 15V441Q74 447 78.5 451.5Q83 456 89 456H103Q109 456 113.5 451.5Q118 447 118 441V15Q118 9 113.5 4.5Q109 0 103 0ZM96 518Q50 518 22 542.5Q-6 567 -6 609V614Q-6 625 5 625H21Q32 625 32 614V612Q32 583 50.5 568.5Q69 554 96 554Q123 554 141.5 568.5Q160 583 160 612V614Q160 625 171 625H187Q198 625 198 614V609Q198 567 170 542.5Q142 518 96 518Z" glyph-name="ibreve" horiz-adv-x="192" unicode="ĭ" /><glyph d="M89 0Q83 0 78.5 4.5Q74 9 74 15V441Q74 447 78.5 451.5Q83 456 89 456H103Q109 456 113.5 451.5Q118 447 118 441V15Q118 9 113.5 4.5Q109 0 103 0ZM-4 546Q-10 546 -14.5 550.5Q-19 555 -19 561V568Q-19 574 -14.5 578.5Q-10 583 -4 583H196Q202 583 206.5 578.5Q211 574 211 568V561Q211 555 206.5 550.5Q202 546 196 546Z" glyph-name="imacron" horiz-adv-x="192" unicode="ī" /><glyph d="M96 587Q81 587 70 598Q59 609 59 625Q59 640 70 651Q81 662 96 662Q111 662 122 651Q133 640 133 625Q133 609 122 598Q111 587 96 587ZM89 0Q83 0 78.5 4.5Q74 9 74 15V441Q74 447 78.5 451.5Q83 456 89 456H103Q109 456 113.5 451.5Q118 447 118 441V15Q118 9 113.5 4.5Q109 0 103 0ZM2 -117Q2 -98 11 -78.5Q20 -59 33 -42Q46 -25 61 -11Q76 3 88 12L105 10L108 1Q96 -11 84.5 -26.5Q73 -42 64 -57.5Q55 -73 49.5 -87.5Q44 -102 44 -113Q44 -133 55 -142Q66 -151 85 -151Q99 -151 114 -147Q119 -145 122.5 -148.5Q126 -152 125 -157L124 -167Q124 -172 118.5 -175Q113 -178 105.5 -180Q98 -182 90 -183Q82 -184 76 -184Q40 -184 21 -165Q2 -146 2 -117Z" glyph-name="iogonek" horiz-adv-x="192" unicode="į" /><glyph d="M89 0Q83 0 78.5 4.5Q74 9 74 15V441Q74 447 78.5 451.5Q83 456 89 456H103Q109 456 113.5 451.5Q118 447 118 441V15Q118 9 113.5 4.5Q109 0 103 0ZM148 538Q135 538 118.5 543.5Q102 549 85.5 555.5Q69 562 54.5 567.5Q40 573 32 573Q22 573 15.5 568.5Q9 564 1 549Q-7 535 -19 541L-26 544Q-31 546 -33.5 551.5Q-36 557 -34 562Q-26 582 -9.5 597.5Q7 613 33 613Q46 613 62.5 607.5Q79 602 95.5 595.5Q112 589 126.5 583.5Q141 578 149 578Q159 578 165.5 582.5Q172 587 180 602Q188 616 200 610L207 607Q212 605 214.5 599.5Q217 594 215 589Q207 569 190.5 553.5Q174 538 148 538Z" glyph-name="itilde" horiz-adv-x="192" unicode="ĩ" /><glyph d="M102 456Q108 456 112.5 451.5Q117 447 117 441V-83Q117 -121 106 -146Q95 -171 77 -187Q59 -203 36 -209.5Q13 -216 -11 -216Q-39 -216 -60.5 -209Q-82 -202 -99 -190Q-104 -187 -104 -182Q-104 -177 -101 -172L-96 -164Q-88 -151 -75 -159Q-60 -169 -42.5 -174Q-25 -179 -12 -179Q26 -179 49.5 -157.5Q73 -136 73 -85V441Q73 447 77.5 451.5Q82 456 88 456ZM100 676Q109 676 113.5 673Q118 670 123 663L212 536Q215 531 212.5 527Q210 523 205 523H188Q176 523 169 533L95 632L21 533Q12 523 2 523H-15Q-21 523 -23.5 527Q-26 531 -22 536L67 663Q71 670 75.5 673Q80 676 91 676Z" glyph-name="jcircumflex" horiz-adv-x="192" unicode="ĵ" /><glyph d="M96 587Q81 587 70 598Q59 609 59 625Q59 640 70 651Q81 662 96 662Q111 662 122 651Q133 640 133 625Q133 609 122 598Q111 587 96 587ZM89 0Q83 0 78.5 4.5Q74 9 74 15V441Q74 447 78.5 451.5Q83 456 89 456H103Q109 456 113.5 451.5Q118 447 118 441V15Q118 9 113.5 4.5Q109 0 103 0ZM283 588Q268 588 257 599Q246 610 246 625Q246 640 257 651Q268 662 283 662Q298 662 309 651Q320 640 320 625Q320 610 309 599Q298 588 283 588ZM294 456Q300 456 304.5 451.5Q309 447 309 441V-83Q309 -121 298 -146Q287 -171 269 -187Q251 -203 228 -209.5Q205 -216 181 -216Q153 -216 131.5 -209Q110 -202 93 -190Q88 -187 88 -182Q88 -177 91 -172L96 -164Q104 -151 117 -159Q132 -169 149.5 -174Q167 -179 180 -179Q218 -179 241.5 -157.5Q265 -136 265 -85V441Q265 447 269.5 451.5Q274 456 280 456Z" glyph-name="ij" horiz-adv-x="383" unicode="ĳ" /><glyph d="M119 15Q119 9 114.5 4.5Q110 0 104 0H90Q84 0 79.5 4.5Q75 9 75 15V685Q75 691 79.5 695.5Q84 700 90 700H104Q110 700 114.5 695.5Q119 691 119 685V276H183L357 449Q364 456 372 456H407Q412 456 413.5 452Q415 448 410 444L218 257L445 11Q448 8 446.5 4Q445 0 440 0H412Q402 0 396.5 3Q391 6 386 11L179 238H119V15ZM190 -64Q192 -57 196 -53.5Q200 -50 209 -50H227Q232 -50 234.5 -54.5Q237 -59 235 -64L189 -183Q186 -190 182 -193.5Q178 -197 170 -197H155Q141 -197 146 -183Z" glyph-name="kcommaaccent" horiz-adv-x="445" unicode="ķ" /><glyph d="M118 15Q118 9 113.5 4.5Q109 0 103 0H89Q83 0 78.5 4.5Q74 9 74 15V441Q74 447 78.5 451.5Q83 456 89 456H103Q109 456 113.5 451.5Q118 447 118 441V276H182L356 449Q363 456 371 456H406Q411 456 412.5 452Q414 448 409 444L217 257L444 11Q447 8 445.5 4Q444 0 439 0H411Q401 0 395.5 3Q390 6 385 11L178 238H118V15Z" glyph-name="kgreenlandic" horiz-adv-x="444" unicode="ĸ" /><glyph d="M179 0Q157 0 137.5 5.5Q118 11 103.5 23.5Q89 36 80.5 57Q72 78 72 108V685Q72 691 76.5 695.5Q81 700 87 700H101Q107 700 111.5 695.5Q116 691 116 685V109Q116 74 132 56Q148 38 185 38H206Q212 38 216.5 33.5Q221 29 221 23V15Q221 9 216.5 4.5Q212 0 206 0H179ZM191 920Q196 920 198.5 916Q201 912 199 907L129 780Q126 774 122.5 770.5Q119 767 112 767H96Q83 767 88 779L144 906Q147 914 151.5 917Q156 920 165 920H191Z" glyph-name="lacute" horiz-adv-x="222" unicode="ĺ" /><glyph d="M179 0Q157 0 137.5 5.5Q118 11 103.5 23.5Q89 36 80.5 57Q72 78 72 108V685Q72 691 76.5 695.5Q81 700 87 700H101Q107 700 111.5 695.5Q116 691 116 685V109Q116 74 132 56Q148 38 185 38H206Q212 38 216.5 33.5Q221 29 221 23V15Q221 9 216.5 4.5Q212 0 206 0H179ZM244 686Q246 693 250 696.5Q254 700 263 700H281Q286 700 288.5 695.5Q291 691 289 686L236 550Q233 543 229 539.5Q225 536 217 536H202Q196 536 193.5 540.5Q191 545 193 550Z" glyph-name="lcaron" horiz-adv-x="234" unicode="ľ" /><glyph d="M179 0Q157 0 137.5 5.5Q118 11 103.5 23.5Q89 36 80.5 57Q72 78 72 108V685Q72 691 76.5 695.5Q81 700 87 700H101Q107 700 111.5 695.5Q116 691 116 685V109Q116 74 132 56Q148 38 185 38H206Q212 38 216.5 33.5Q221 29 221 23V15Q221 9 216.5 4.5Q212 0 206 0H179ZM94 -64Q96 -57 100 -53.5Q104 -50 113 -50H131Q136 -50 138.5 -54.5Q141 -59 139 -64L93 -183Q90 -190 86 -193.5Q82 -197 74 -197H59Q45 -197 50 -183Z" glyph-name="lcommaaccent" horiz-adv-x="222" unicode="ļ" /><glyph d="M179 0Q157 0 137.5 5.5Q118 11 103.5 23.5Q89 36 80.5 57Q72 78 72 108V685Q72 691 76.5 695.5Q81 700 87 700H101Q107 700 111.5 695.5Q116 691 116 685V109Q116 74 132 56Q148 38 185 38H206Q212 38 216.5 33.5Q221 29 221 23V15Q221 9 216.5 4.5Q212 0 206 0H179ZM223 212Q204 212 191 225Q178 238 178 257Q178 276 191 289Q204 302 223 302Q242 302 255 289Q268 276 268 257Q268 238 255 225Q242 212 223 212Z" glyph-name="ldot" horiz-adv-x="320" unicode="ŀ" /><glyph d="M446 261Q446 340 405.5 384.5Q365 429 287 429Q248 429 216.5 416.5Q185 404 163.5 381.5Q142 359 130 328.5Q118 298 118 261V15Q118 9 113.5 4.5Q109 0 103 0H89Q83 0 78.5 4.5Q74 9 74 15V441Q74 447 78.5 451.5Q83 456 89 456H103Q109 456 113.5 451.5Q118 447 118 441V365Q138 411 184 439.5Q230 468 293 468Q339 468 375.5 453.5Q412 439 437.5 413Q463 387 476.5 350.5Q490 314 490 269V15Q490 9 485.5 4.5Q481 0 475 0H461Q455 0 450.5 4.5Q446 9 446 15ZM330 538Q317 538 300.5 543.5Q284 549 267.5 555.5Q251 562 236.5 567.5Q222 573 214 573Q204 573 197.5 568.5Q191 564 183 549Q175 535 163 541L156 544Q151 546 148.5 551.5Q146 557 148 562Q156 582 172.5 597.5Q189 613 215 613Q228 613 244.5 607.5Q261 602 277.5 595.5Q294 589 308.5 583.5Q323 578 331 578Q341 578 347.5 582.5Q354 587 362 602Q370 616 382 610L389 607Q394 605 396.5 599.5Q399 594 397 589Q389 569 372.5 553.5Q356 538 330 538Z" glyph-name="ntilde" horiz-adv-x="557" unicode="ñ" /><glyph d="M446 261Q446 340 405.5 384.5Q365 429 287 429Q248 429 216.5 416.5Q185 404 163.5 381.5Q142 359 130 328.5Q118 298 118 261V15Q118 9 113.5 4.5Q109 0 103 0H89Q83 0 78.5 4.5Q74 9 74 15V441Q74 447 78.5 451.5Q83 456 89 456H103Q109 456 113.5 451.5Q118 447 118 441V365Q138 411 184 439.5Q230 468 293 468Q339 468 375.5 453.5Q412 439 437.5 413Q463 387 476.5 350.5Q490 314 490 269V15Q490 9 485.5 4.5Q481 0 475 0H461Q455 0 450.5 4.5Q446 9 446 15ZM375 676Q380 676 382.5 672Q385 668 383 663L313 536Q310 530 306.5 526.5Q303 523 296 523H280Q267 523 272 535L328 662Q331 670 335.5 673Q340 676 349 676H375Z" glyph-name="nacute" horiz-adv-x="557" unicode="ń" /><glyph d="M446 261Q446 340 405.5 384.5Q365 429 287 429Q248 429 216.5 416.5Q185 404 163.5 381.5Q142 359 130 328.5Q118 298 118 261V15Q118 9 113.5 4.5Q109 0 103 0H89Q83 0 78.5 4.5Q74 9 74 15V441Q74 447 78.5 451.5Q83 456 89 456H103Q109 456 113.5 451.5Q118 447 118 441V365Q138 411 184 439.5Q230 468 293 468Q339 468 375.5 453.5Q412 439 437.5 413Q463 387 476.5 350.5Q490 314 490 269V15Q490 9 485.5 4.5Q481 0 475 0H461Q455 0 450.5 4.5Q446 9 446 15ZM274 523Q263 523 258.5 526Q254 529 250 536L161 663Q157 668 159.5 672Q162 676 168 676H185Q195 676 204 666L278 567L352 666Q359 676 371 676H388Q393 676 395.5 672Q398 668 395 663L306 536Q301 529 296.5 526Q292 523 283 523H274Z" glyph-name="ncaron" horiz-adv-x="557" unicode="ň" /><glyph d="M446 261Q446 340 405.5 384.5Q365 429 287 429Q248 429 216.5 416.5Q185 404 163.5 381.5Q142 359 130 328.5Q118 298 118 261V15Q118 9 113.5 4.5Q109 0 103 0H89Q83 0 78.5 4.5Q74 9 74 15V441Q74 447 78.5 451.5Q83 456 89 456H103Q109 456 113.5 451.5Q118 447 118 441V365Q138 411 184 439.5Q230 468 293 468Q339 468 375.5 453.5Q412 439 437.5 413Q463 387 476.5 350.5Q490 314 490 269V15Q490 9 485.5 4.5Q481 0 475 0H461Q455 0 450.5 4.5Q446 9 446 15ZM250 -64Q252 -57 256 -53.5Q260 -50 269 -50H287Q292 -50 294.5 -54.5Q297 -59 295 -64L249 -183Q246 -190 242 -193.5Q238 -197 230 -197H215Q201 -197 206 -183Z" glyph-name="ncommaaccent" horiz-adv-x="557" unicode="ņ" /><glyph d="M362 -216Q334 -216 312.5 -209Q291 -202 274 -190Q269 -187 269 -182Q269 -177 272 -172L277 -164Q285 -151 298 -159Q313 -169 330.5 -174Q348 -179 361 -179Q399 -179 422.5 -157.5Q446 -136 446 -85V261Q446 340 405.5 384.5Q365 429 287 429Q248 429 216.5 416.5Q185 404 163.5 381.5Q142 359 130 328.5Q118 298 118 261V15Q118 9 113.5 4.5Q109 0 103 0H89Q83 0 78.5 4.5Q74 9 74 15V441Q74 447 78.5 451.5Q83 456 89 456H103Q109 456 113.5 451.5Q118 447 118 441V365Q138 411 184 439.5Q230 468 293 468Q339 468 375.5 453.5Q412 439 437.5 413Q463 387 476.5 350.5Q490 314 490 269V-83Q490 -121 479 -146Q468 -171 450 -187Q432 -203 409 -209.5Q386 -216 362 -216Z" glyph-name="eng" horiz-adv-x="557" unicode="ŋ" /><glyph d="M447 261Q447 340 406.5 384.5Q366 429 288 429Q249 429 217.5 416.5Q186 404 164.5 381.5Q143 359 131 328.5Q119 298 119 261V15Q119 9 114.5 4.5Q110 0 104 0H90Q84 0 79.5 4.5Q75 9 75 15V441Q75 447 79.5 451.5Q84 456 90 456H104Q110 456 114.5 451.5Q119 447 119 441V365Q139 411 185 439.5Q231 468 294 468Q340 468 376.5 453.5Q413 439 438.5 413Q464 387 477.5 350.5Q491 314 491 269V15Q491 9 486.5 4.5Q482 0 476 0H462Q456 0 451.5 4.5Q447 9 447 15ZM126 686Q128 693 132 696.5Q136 700 145 700H163Q168 700 170.5 695.5Q173 691 171 686L118 550Q115 543 111 539.5Q107 536 99 536H84Q78 536 75.5 540.5Q73 545 75 550Z" glyph-name="napostrophe" horiz-adv-x="558" unicode="ŉ" /><glyph d="M40 228Q40 280 58 324Q76 368 107.5 400Q139 432 181 450Q223 468 271 468Q319 468 361 450Q403 432 434.5 400Q466 368 484 324Q502 280 502 228Q502 176 484 132Q466 88 434.5 56Q403 24 361 6Q319 -12 271 -12Q223 -12 181 6Q139 24 107.5 56Q76 88 58 132Q40 176 40 228ZM85 228Q85 186 98.5 149.5Q112 113 136.5 86Q161 59 195.5 43.5Q230 28 271 28Q312 28 346.5 43.5Q381 59 405.5 86Q430 113 443.5 149.5Q457 186 457 228Q457 270 443.5 306.5Q430 343 405.5 370Q381 397 346.5 412.5Q312 428 271 428Q230 428 195.5 412.5Q161 397 136.5 370Q112 343 98.5 306.5Q85 270 85 228ZM367 676Q372 676 374.5 672Q377 668 375 663L305 536Q302 530 298.5 526.5Q295 523 288 523H272Q259 523 264 535L320 662Q323 670 327.5 673Q332 676 341 676H367Z" glyph-name="oacute" horiz-adv-x="542" unicode="ó" /><glyph d="M40 228Q40 280 58 324Q76 368 107.5 400Q139 432 181 450Q223 468 271 468Q319 468 361 450Q403 432 434.5 400Q466 368 484 324Q502 280 502 228Q502 176 484 132Q466 88 434.5 56Q403 24 361 6Q319 -12 271 -12Q223 -12 181 6Q139 24 107.5 56Q76 88 58 132Q40 176 40 228ZM85 228Q85 186 98.5 149.5Q112 113 136.5 86Q161 59 195.5 43.5Q230 28 271 28Q312 28 346.5 43.5Q381 59 405.5 86Q430 113 443.5 149.5Q457 186 457 228Q457 270 443.5 306.5Q430 343 405.5 370Q381 397 346.5 412.5Q312 428 271 428Q230 428 195.5 412.5Q161 397 136.5 370Q112 343 98.5 306.5Q85 270 85 228ZM276 676Q285 676 289.5 673Q294 670 299 663L388 536Q391 531 388.5 527Q386 523 381 523H364Q352 523 345 533L271 632L197 533Q188 523 178 523H161Q155 523 152.5 527Q150 531 154 536L243 663Q247 670 251.5 673Q256 676 267 676Z" glyph-name="ocircumflex" horiz-adv-x="542" unicode="ô" /><glyph d="M40 228Q40 280 58 324Q76 368 107.5 400Q139 432 181 450Q223 468 271 468Q319 468 361 450Q403 432 434.5 400Q466 368 484 324Q502 280 502 228Q502 176 484 132Q466 88 434.5 56Q403 24 361 6Q319 -12 271 -12Q223 -12 181 6Q139 24 107.5 56Q76 88 58 132Q40 176 40 228ZM85 228Q85 186 98.5 149.5Q112 113 136.5 86Q161 59 195.5 43.5Q230 28 271 28Q312 28 346.5 43.5Q381 59 405.5 86Q430 113 443.5 149.5Q457 186 457 228Q457 270 443.5 306.5Q430 343 405.5 370Q381 397 346.5 412.5Q312 428 271 428Q230 428 195.5 412.5Q161 397 136.5 370Q112 343 98.5 306.5Q85 270 85 228ZM312 564Q312 578 322 588Q332 598 346 598Q360 598 370 588Q380 578 380 564Q380 550 370 540Q360 530 346 530Q332 530 322 540Q312 550 312 564ZM161 564Q161 578 171 588Q181 598 195 598Q209 598 219 588Q229 578 229 564Q229 550 219 540Q209 530 195 530Q181 530 171 540Q161 550 161 564Z" glyph-name="odieresis" horiz-adv-x="542" unicode="ö" /><glyph d="M40 228Q40 280 58 324Q76 368 107.5 400Q139 432 181 450Q223 468 271 468Q319 468 361 450Q403 432 434.5 400Q466 368 484 324Q502 280 502 228Q502 176 484 132Q466 88 434.5 56Q403 24 361 6Q319 -12 271 -12Q223 -12 181 6Q139 24 107.5 56Q76 88 58 132Q40 176 40 228ZM85 228Q85 186 98.5 149.5Q112 113 136.5 86Q161 59 195.5 43.5Q230 28 271 28Q312 28 346.5 43.5Q381 59 405.5 86Q430 113 443.5 149.5Q457 186 457 228Q457 270 443.5 306.5Q430 343 405.5 370Q381 397 346.5 412.5Q312 428 271 428Q230 428 195.5 412.5Q161 397 136.5 370Q112 343 98.5 306.5Q85 270 85 228ZM205 676Q214 676 218.5 673Q223 670 226 662L282 535Q287 523 274 523H258Q247 523 241 536L171 663Q169 668 171.5 672Q174 676 179 676Z" glyph-name="ograve" horiz-adv-x="542" unicode="ò" /><glyph d="M40 228Q40 280 58 324Q76 368 107.5 400Q139 432 181 450Q223 468 271 468Q319 468 361 450Q403 432 434.5 400Q466 368 484 324Q502 280 502 228Q502 176 484 132Q466 88 434.5 56Q403 24 361 6Q319 -12 271 -12Q223 -12 181 6Q139 24 107.5 56Q76 88 58 132Q40 176 40 228ZM85 228Q85 186 98.5 149.5Q112 113 136.5 86Q161 59 195.5 43.5Q230 28 271 28Q312 28 346.5 43.5Q381 59 405.5 86Q430 113 443.5 149.5Q457 186 457 228Q457 270 443.5 306.5Q430 343 405.5 370Q381 397 346.5 412.5Q312 428 271 428Q230 428 195.5 412.5Q161 397 136.5 370Q112 343 98.5 306.5Q85 270 85 228ZM329 538Q316 538 299.5 543.5Q283 549 266.5 555.5Q250 562 235.5 567.5Q221 573 213 573Q203 573 196.5 568.5Q190 564 182 549Q174 535 162 541L155 544Q150 546 147.5 551.5Q145 557 147 562Q155 582 171.5 597.5Q188 613 214 613Q227 613 243.5 607.5Q260 602 276.5 595.5Q293 589 307.5 583.5Q322 578 330 578Q340 578 346.5 582.5Q353 587 361 602Q369 616 381 610L388 607Q393 605 395.5 599.5Q398 594 396 589Q388 569 371.5 553.5Q355 538 329 538Z" glyph-name="otilde" horiz-adv-x="542" unicode="õ" /><glyph d="M40 228Q40 280 58 324Q76 368 107.5 400Q139 432 181 450Q223 468 271 468Q319 468 361 450Q403 432 434.5 400Q466 368 484 324Q502 280 502 228Q502 176 484 132Q466 88 434.5 56Q403 24 361 6Q319 -12 271 -12Q223 -12 181 6Q139 24 107.5 56Q76 88 58 132Q40 176 40 228ZM85 228Q85 186 98.5 149.5Q112 113 136.5 86Q161 59 195.5 43.5Q230 28 271 28Q312 28 346.5 43.5Q381 59 405.5 86Q430 113 443.5 149.5Q457 186 457 228Q457 270 443.5 306.5Q430 343 405.5 370Q381 397 346.5 412.5Q312 428 271 428Q230 428 195.5 412.5Q161 397 136.5 370Q112 343 98.5 306.5Q85 270 85 228ZM271 518Q225 518 197 542.5Q169 567 169 609V614Q169 625 180 625H196Q207 625 207 614V612Q207 583 225.5 568.5Q244 554 271 554Q298 554 316.5 568.5Q335 583 335 612V614Q335 625 346 625H362Q373 625 373 614V609Q373 567 345 542.5Q317 518 271 518Z" glyph-name="obreve" horiz-adv-x="542" unicode="ŏ" /><glyph d="M40 228Q40 280 58 324Q76 368 107.5 400Q139 432 181 450Q223 468 271 468Q319 468 361 450Q403 432 434.5 400Q466 368 484 324Q502 280 502 228Q502 176 484 132Q466 88 434.5 56Q403 24 361 6Q319 -12 271 -12Q223 -12 181 6Q139 24 107.5 56Q76 88 58 132Q40 176 40 228ZM85 228Q85 186 98.5 149.5Q112 113 136.5 86Q161 59 195.5 43.5Q230 28 271 28Q312 28 346.5 43.5Q381 59 405.5 86Q430 113 443.5 149.5Q457 186 457 228Q457 270 443.5 306.5Q430 343 405.5 370Q381 397 346.5 412.5Q312 428 271 428Q230 428 195.5 412.5Q161 397 136.5 370Q112 343 98.5 306.5Q85 270 85 228ZM435 676Q440 676 442.5 672Q445 668 443 663L373 536Q370 530 366.5 526.5Q363 523 356 523H340Q327 523 332 535L388 662Q393 676 409 676ZM299 676Q304 676 306.5 672Q309 668 307 663L237 536Q234 530 230.5 526.5Q227 523 220 523H204Q191 523 196 535L252 662Q257 676 273 676Z" glyph-name="ohungarumlaut" horiz-adv-x="542" unicode="ő" /><glyph d="M40 228Q40 280 58 324Q76 368 107.5 400Q139 432 181 450Q223 468 271 468Q319 468 361 450Q403 432 434.5 400Q466 368 484 324Q502 280 502 228Q502 176 484 132Q466 88 434.5 56Q403 24 361 6Q319 -12 271 -12Q223 -12 181 6Q139 24 107.5 56Q76 88 58 132Q40 176 40 228ZM85 228Q85 186 98.5 149.5Q112 113 136.5 86Q161 59 195.5 43.5Q230 28 271 28Q312 28 346.5 43.5Q381 59 405.5 86Q430 113 443.5 149.5Q457 186 457 228Q457 270 443.5 306.5Q430 343 405.5 370Q381 397 346.5 412.5Q312 428 271 428Q230 428 195.5 412.5Q161 397 136.5 370Q112 343 98.5 306.5Q85 270 85 228ZM171 546Q165 546 160.5 550.5Q156 555 156 561V568Q156 574 160.5 578.5Q165 583 171 583H371Q377 583 381.5 578.5Q386 574 386 568V561Q386 555 381.5 550.5Q377 546 371 546Z" glyph-name="omacron" horiz-adv-x="542" unicode="ō" /><glyph d="M267 456Q272 456 276.5 451.5Q281 447 281 442V427Q281 415 270 415H256Q228 415 203 405.5Q178 396 159 375Q140 354 129 320Q118 286 118 237V15Q118 9 113.5 4.5Q109 0 103 0H89Q83 0 78.5 4.5Q74 9 74 15V441Q74 447 78.5 451.5Q83 456 89 456H101Q107 456 111.5 451.5Q116 447 116 441V362Q121 378 132.5 395Q144 412 161 425.5Q178 439 200.5 447.5Q223 456 250 456ZM263 676Q268 676 270.5 672Q273 668 271 663L201 536Q198 530 194.5 526.5Q191 523 184 523H168Q155 523 160 535L216 662Q219 670 223.5 673Q228 676 237 676H263Z" glyph-name="racute" horiz-adv-x="289" unicode="ŕ" /><glyph d="M267 456Q272 456 276.5 451.5Q281 447 281 442V427Q281 415 270 415H256Q228 415 203 405.5Q178 396 159 375Q140 354 129 320Q118 286 118 237V15Q118 9 113.5 4.5Q109 0 103 0H89Q83 0 78.5 4.5Q74 9 74 15V441Q74 447 78.5 451.5Q83 456 89 456H101Q107 456 111.5 451.5Q116 447 116 441V362Q121 378 132.5 395Q144 412 161 425.5Q178 439 200.5 447.5Q223 456 250 456ZM162 523Q151 523 146.5 526Q142 529 138 536L49 663Q45 668 47.5 672Q50 676 56 676H73Q83 676 92 666L166 567L240 666Q247 676 259 676H276Q281 676 283.5 672Q286 668 283 663L194 536Q189 529 184.5 526Q180 523 171 523H162Z" glyph-name="rcaron" horiz-adv-x="289" unicode="ř" /><glyph d="M267 456Q272 456 276.5 451.5Q281 447 281 442V427Q281 415 270 415H256Q228 415 203 405.5Q178 396 159 375Q140 354 129 320Q118 286 118 237V15Q118 9 113.5 4.5Q109 0 103 0H89Q83 0 78.5 4.5Q74 9 74 15V441Q74 447 78.5 451.5Q83 456 89 456H101Q107 456 111.5 451.5Q116 447 116 441V362Q121 378 132.5 395Q144 412 161 425.5Q178 439 200.5 447.5Q223 456 250 456ZM67 -64Q69 -57 73 -53.5Q77 -50 86 -50H104Q109 -50 111.5 -54.5Q114 -59 112 -64L66 -183Q63 -190 59 -193.5Q55 -197 47 -197H32Q18 -197 23 -183Z" glyph-name="rcommaaccent" horiz-adv-x="289" unicode="ŗ" /><glyph d="M217 469Q269 469 310.5 453.5Q352 438 381 413Q390 404 380 393L373 385Q364 374 351 384Q326 402 295.5 416.5Q265 431 216 431Q155 431 124 405Q93 379 93 344Q93 314 114 293.5Q135 273 178 265L269 248Q342 234 372.5 204Q403 174 403 122Q403 100 392.5 76.5Q382 53 360.5 33.5Q339 14 305 1Q271 -12 224 -12Q157 -12 109.5 9Q62 30 36 61Q27 72 38 82L49 91Q61 100 72 88Q101 59 137.5 42.5Q174 26 225 26Q257 26 282 34Q307 42 324 55.5Q341 69 349.5 86Q358 103 358 121Q358 158 333.5 178Q309 198 257 208L173 224Q49 248 49 341Q49 371 62 394.5Q75 418 98 434.5Q121 451 151.5 460Q182 469 217 469ZM220 523Q209 523 204.5 526Q200 529 196 536L107 663Q103 668 105.5 672Q108 676 114 676H131Q141 676 150 666L224 567L298 666Q305 676 317 676H334Q339 676 341.5 672Q344 668 341 663L252 536Q247 529 242.5 526Q238 523 229 523H220Z" glyph-name="scaron" horiz-adv-x="438" unicode="š" /><glyph d="M217 469Q269 469 310.5 453.5Q352 438 381 413Q390 404 380 393L373 385Q364 374 351 384Q326 402 295.5 416.5Q265 431 216 431Q155 431 124 405Q93 379 93 344Q93 314 114 293.5Q135 273 178 265L269 248Q342 234 372.5 204Q403 174 403 122Q403 100 392.5 76.5Q382 53 360.5 33.5Q339 14 305 1Q271 -12 224 -12Q157 -12 109.5 9Q62 30 36 61Q27 72 38 82L49 91Q61 100 72 88Q101 59 137.5 42.5Q174 26 225 26Q257 26 282 34Q307 42 324 55.5Q341 69 349.5 86Q358 103 358 121Q358 158 333.5 178Q309 198 257 208L173 224Q49 248 49 341Q49 371 62 394.5Q75 418 98 434.5Q121 451 151.5 460Q182 469 217 469ZM320 676Q325 676 327.5 672Q330 668 328 663L258 536Q255 530 251.5 526.5Q248 523 241 523H225Q212 523 217 535L273 662Q276 670 280.5 673Q285 676 294 676H320Z" glyph-name="sacute" horiz-adv-x="438" unicode="ś" /><glyph d="M217 469Q269 469 310.5 453.5Q352 438 381 413Q390 404 380 393L373 385Q364 374 351 384Q326 402 295.5 416.5Q265 431 216 431Q155 431 124 405Q93 379 93 344Q93 314 114 293.5Q135 273 178 265L269 248Q342 234 372.5 204Q403 174 403 122Q403 100 392.5 76.5Q382 53 360.5 33.5Q339 14 305 1Q271 -12 224 -12Q157 -12 109.5 9Q62 30 36 61Q27 72 38 82L49 91Q61 100 72 88Q101 59 137.5 42.5Q174 26 225 26Q257 26 282 34Q307 42 324 55.5Q341 69 349.5 86Q358 103 358 121Q358 158 333.5 178Q309 198 257 208L173 224Q49 248 49 341Q49 371 62 394.5Q75 418 98 434.5Q121 451 151.5 460Q182 469 217 469ZM247 0 190 -129Q184 -143 173 -143H157Q152 -143 149 -139.5Q146 -136 149 -129L203 0Z" glyph-name="scedilla" horiz-adv-x="438" unicode="ş" /><glyph d="M217 469Q269 469 310.5 453.5Q352 438 381 413Q390 404 380 393L373 385Q364 374 351 384Q326 402 295.5 416.5Q265 431 216 431Q155 431 124 405Q93 379 93 344Q93 314 114 293.5Q135 273 178 265L269 248Q342 234 372.5 204Q403 174 403 122Q403 100 392.5 76.5Q382 53 360.5 33.5Q339 14 305 1Q271 -12 224 -12Q157 -12 109.5 9Q62 30 36 61Q27 72 38 82L49 91Q61 100 72 88Q101 59 137.5 42.5Q174 26 225 26Q257 26 282 34Q307 42 324 55.5Q341 69 349.5 86Q358 103 358 121Q358 158 333.5 178Q309 198 257 208L173 224Q49 248 49 341Q49 371 62 394.5Q75 418 98 434.5Q121 451 151.5 460Q182 469 217 469ZM229 676Q238 676 242.5 673Q247 670 252 663L341 536Q344 531 341.5 527Q339 523 334 523H317Q305 523 298 533L224 632L150 533Q141 523 131 523H114Q108 523 105.5 527Q103 531 107 536L196 663Q200 670 204.5 673Q209 676 220 676Z" glyph-name="scircumflex" horiz-adv-x="438" unicode="ŝ" /><glyph d="M217 469Q269 469 310.5 453.5Q352 438 381 413Q390 404 380 393L373 385Q364 374 351 384Q326 402 295.5 416.5Q265 431 216 431Q155 431 124 405Q93 379 93 344Q93 314 114 293.5Q135 273 178 265L269 248Q342 234 372.5 204Q403 174 403 122Q403 100 392.5 76.5Q382 53 360.5 33.5Q339 14 305 1Q271 -12 224 -12Q157 -12 109.5 9Q62 30 36 61Q27 72 38 82L49 91Q61 100 72 88Q101 59 137.5 42.5Q174 26 225 26Q257 26 282 34Q307 42 324 55.5Q341 69 349.5 86Q358 103 358 121Q358 158 333.5 178Q309 198 257 208L173 224Q49 248 49 341Q49 371 62 394.5Q75 418 98 434.5Q121 451 151.5 460Q182 469 217 469ZM195 -64Q197 -57 201 -53.5Q205 -50 214 -50H232Q237 -50 239.5 -54.5Q242 -59 240 -64L194 -183Q191 -190 187 -193.5Q183 -197 175 -197H160Q146 -197 151 -183Z" glyph-name="scommaaccent" horiz-adv-x="438" unicode="ș" /><glyph d="M321 21Q303 8 280.5 1.5Q258 -5 229 -5Q205 -5 182.5 2.5Q160 10 142.5 25.5Q125 41 114.5 65.5Q104 90 104 124V268H30Q24 268 19.5 272.5Q15 277 15 283V291Q15 297 19.5 301.5Q24 306 30 306H104V418H30Q24 418 19.5 422.5Q15 427 15 433V441Q15 447 19.5 451.5Q24 456 30 456H104V615Q104 621 108.5 625.5Q113 630 119 630H133Q139 630 143.5 625.5Q148 621 148 615V456H300Q306 456 310.5 451.5Q315 447 315 441V433Q315 427 310.5 422.5Q306 418 300 418H148V306H300Q306 306 310.5 301.5Q315 297 315 291V283Q315 277 310.5 272.5Q306 268 300 268H148V127Q148 84 171.5 58.5Q195 33 233 33Q247 33 262 36.5Q277 40 293 49Q309 59 318 48L324 39Q331 28 321 21Z" glyph-name="tbar" horiz-adv-x="335" unicode="ŧ" /><glyph d="M98 418 24 418Q18 418 13.5 422.5Q9 427 9 433V441Q9 447 13.5 451.5Q18 456 24 456H98V615Q98 621 102.5 625.5Q107 630 113 630H127Q133 630 137.5 625.5Q142 621 142 615V456H294Q300 456 304.5 451.5Q309 447 309 441V433Q309 427 304.5 422.5Q300 418 294 418H142V127Q142 84 162 58.5Q182 33 223 33Q255 33 288 51Q296 56 301.5 56Q307 56 312 49L318 39Q325 29 315 22Q301 11 276.5 3Q252 -5 219 -5Q196 -5 174.5 2Q153 9 136 24.5Q119 40 108.5 64.5Q98 89 98 123ZM293 761Q295 768 299 771.5Q303 775 312 775H330Q335 775 337.5 770.5Q340 766 338 761L285 625Q282 618 278 614.5Q274 611 266 611H251Q245 611 242.5 615.5Q240 620 242 625Z" glyph-name="tcaron" horiz-adv-x="327" unicode="ť" /><glyph d="M98 418 24 418Q18 418 13.5 422.5Q9 427 9 433V441Q9 447 13.5 451.5Q18 456 24 456H98V615Q98 621 102.5 625.5Q107 630 113 630H127Q133 630 137.5 625.5Q142 621 142 615V456H294Q300 456 304.5 451.5Q309 447 309 441V433Q309 427 304.5 422.5Q300 418 294 418H142V127Q142 84 162 58.5Q182 33 223 33Q255 33 288 51Q296 56 301.5 56Q307 56 312 49L318 39Q325 29 315 22Q301 11 276.5 3Q252 -5 219 -5Q196 -5 174.5 2Q153 9 136 24.5Q119 40 108.5 64.5Q98 89 98 123ZM166 -64Q168 -57 172 -53.5Q176 -50 185 -50H203Q208 -50 210.5 -54.5Q213 -59 211 -64L165 -183Q162 -190 158 -193.5Q154 -197 146 -197H131Q117 -197 122 -183Z" glyph-name="tcommaaccent" horiz-adv-x="327" unicode="ţ" /><glyph d="M98 418 24 418Q18 418 13.5 422.5Q9 427 9 433V441Q9 447 13.5 451.5Q18 456 24 456H98V615Q98 621 102.5 625.5Q107 630 113 630H127Q133 630 137.5 625.5Q142 621 142 615V456H294Q300 456 304.5 451.5Q309 447 309 441V433Q309 427 304.5 422.5Q300 418 294 418H142V127Q142 84 162 58.5Q182 33 223 33Q255 33 288 51Q296 56 301.5 56Q307 56 312 49L318 39Q325 29 315 22Q301 11 276.5 3Q252 -5 219 -5Q196 -5 174.5 2Q153 9 136 24.5Q119 40 108.5 64.5Q98 89 98 123ZM166 -64Q168 -57 172 -53.5Q176 -50 185 -50H203Q208 -50 210.5 -54.5Q213 -59 211 -64L165 -183Q162 -190 158 -193.5Q154 -197 146 -197H131Q117 -197 122 -183Z" glyph-name="uni021B" horiz-adv-x="327" unicode="ț" /><glyph d="M111 195Q111 116 152.5 71.5Q194 27 272 27Q311 27 342 39.5Q373 52 394.5 74.5Q416 97 427.5 127.5Q439 158 439 195V441Q439 447 443.5 451.5Q448 456 454 456H468Q474 456 478.5 451.5Q483 447 483 441V15Q483 9 478.5 4.5Q474 0 468 0H454Q448 0 443.5 4.5Q439 9 439 15V91Q419 45 373 16.5Q327 -12 264 -12Q218 -12 181.5 2.5Q145 17 119.5 43Q94 69 80.5 105.5Q67 142 67 187V441Q67 447 71.5 451.5Q76 456 82 456H96Q102 456 106.5 451.5Q111 447 111 441ZM374 676Q379 676 381.5 672Q384 668 382 663L312 536Q309 530 305.5 526.5Q302 523 295 523H279Q266 523 271 535L327 662Q330 670 334.5 673Q339 676 348 676H374Z" glyph-name="uacute" horiz-adv-x="557" unicode="ú" /><glyph d="M111 195Q111 116 152.5 71.5Q194 27 272 27Q311 27 342 39.5Q373 52 394.5 74.5Q416 97 427.5 127.5Q439 158 439 195V441Q439 447 443.5 451.5Q448 456 454 456H468Q474 456 478.5 451.5Q483 447 483 441V15Q483 9 478.5 4.5Q474 0 468 0H454Q448 0 443.5 4.5Q439 9 439 15V91Q419 45 373 16.5Q327 -12 264 -12Q218 -12 181.5 2.5Q145 17 119.5 43Q94 69 80.5 105.5Q67 142 67 187V441Q67 447 71.5 451.5Q76 456 82 456H96Q102 456 106.5 451.5Q111 447 111 441ZM283 676Q292 676 296.5 673Q301 670 306 663L395 536Q398 531 395.5 527Q393 523 388 523H371Q359 523 352 533L278 632L204 533Q195 523 185 523H168Q162 523 159.5 527Q157 531 161 536L250 663Q254 670 258.5 673Q263 676 274 676Z" glyph-name="ucircumflex" horiz-adv-x="557" unicode="û" /><glyph d="M111 195Q111 116 152.5 71.5Q194 27 272 27Q311 27 342 39.5Q373 52 394.5 74.5Q416 97 427.5 127.5Q439 158 439 195V441Q439 447 443.5 451.5Q448 456 454 456H468Q474 456 478.5 451.5Q483 447 483 441V15Q483 9 478.5 4.5Q474 0 468 0H454Q448 0 443.5 4.5Q439 9 439 15V91Q419 45 373 16.5Q327 -12 264 -12Q218 -12 181.5 2.5Q145 17 119.5 43Q94 69 80.5 105.5Q67 142 67 187V441Q67 447 71.5 451.5Q76 456 82 456H96Q102 456 106.5 451.5Q111 447 111 441ZM319 564Q319 578 329 588Q339 598 353 598Q367 598 377 588Q387 578 387 564Q387 550 377 540Q367 530 353 530Q339 530 329 540Q319 550 319 564ZM168 564Q168 578 178 588Q188 598 202 598Q216 598 226 588Q236 578 236 564Q236 550 226 540Q216 530 202 530Q188 530 178 540Q168 550 168 564Z" glyph-name="udieresis" horiz-adv-x="557" unicode="ü" /><glyph d="M111 195Q111 116 152.5 71.5Q194 27 272 27Q311 27 342 39.5Q373 52 394.5 74.5Q416 97 427.5 127.5Q439 158 439 195V441Q439 447 443.5 451.5Q448 456 454 456H468Q474 456 478.5 451.5Q483 447 483 441V15Q483 9 478.5 4.5Q474 0 468 0H454Q448 0 443.5 4.5Q439 9 439 15V91Q419 45 373 16.5Q327 -12 264 -12Q218 -12 181.5 2.5Q145 17 119.5 43Q94 69 80.5 105.5Q67 142 67 187V441Q67 447 71.5 451.5Q76 456 82 456H96Q102 456 106.5 451.5Q111 447 111 441ZM212 676Q221 676 225.5 673Q230 670 233 662L289 535Q294 523 281 523H265Q254 523 248 536L178 663Q176 668 178.5 672Q181 676 186 676Z" glyph-name="ugrave" horiz-adv-x="557" unicode="ù" /><glyph d="M111 195Q111 116 152.5 71.5Q194 27 272 27Q311 27 342 39.5Q373 52 394.5 74.5Q416 97 427.5 127.5Q439 158 439 195V441Q439 447 443.5 451.5Q448 456 454 456H468Q474 456 478.5 451.5Q483 447 483 441V15Q483 9 478.5 4.5Q474 0 468 0H454Q448 0 443.5 4.5Q439 9 439 15V91Q419 45 373 16.5Q327 -12 264 -12Q218 -12 181.5 2.5Q145 17 119.5 43Q94 69 80.5 105.5Q67 142 67 187V441Q67 447 71.5 451.5Q76 456 82 456H96Q102 456 106.5 451.5Q111 447 111 441ZM278 518Q232 518 204 542.5Q176 567 176 609V614Q176 625 187 625H203Q214 625 214 614V612Q214 583 232.5 568.5Q251 554 278 554Q305 554 323.5 568.5Q342 583 342 612V614Q342 625 353 625H369Q380 625 380 614V609Q380 567 352 542.5Q324 518 278 518Z" glyph-name="ubreve" horiz-adv-x="557" unicode="ŭ" /><glyph d="M111 195Q111 116 152.5 71.5Q194 27 272 27Q311 27 342 39.5Q373 52 394.5 74.5Q416 97 427.5 127.5Q439 158 439 195V441Q439 447 443.5 451.5Q448 456 454 456H468Q474 456 478.5 451.5Q483 447 483 441V15Q483 9 478.5 4.5Q474 0 468 0H454Q448 0 443.5 4.5Q439 9 439 15V91Q419 45 373 16.5Q327 -12 264 -12Q218 -12 181.5 2.5Q145 17 119.5 43Q94 69 80.5 105.5Q67 142 67 187V441Q67 447 71.5 451.5Q76 456 82 456H96Q102 456 106.5 451.5Q111 447 111 441ZM442 676Q447 676 449.5 672Q452 668 450 663L380 536Q377 530 373.5 526.5Q370 523 363 523H347Q334 523 339 535L395 662Q400 676 416 676ZM306 676Q311 676 313.5 672Q316 668 314 663L244 536Q241 530 237.5 526.5Q234 523 227 523H211Q198 523 203 535L259 662Q264 676 280 676Z" glyph-name="uhungarumlaut" horiz-adv-x="557" unicode="ű" /><glyph d="M111 195Q111 116 152.5 71.5Q194 27 272 27Q311 27 342 39.5Q373 52 394.5 74.5Q416 97 427.5 127.5Q439 158 439 195V441Q439 447 443.5 451.5Q448 456 454 456H468Q474 456 478.5 451.5Q483 447 483 441V15Q483 9 478.5 4.5Q474 0 468 0H454Q448 0 443.5 4.5Q439 9 439 15V91Q419 45 373 16.5Q327 -12 264 -12Q218 -12 181.5 2.5Q145 17 119.5 43Q94 69 80.5 105.5Q67 142 67 187V441Q67 447 71.5 451.5Q76 456 82 456H96Q102 456 106.5 451.5Q111 447 111 441ZM178 546Q172 546 167.5 550.5Q163 555 163 561V568Q163 574 167.5 578.5Q172 583 178 583H378Q384 583 388.5 578.5Q393 574 393 568V561Q393 555 388.5 550.5Q384 546 378 546Z" glyph-name="umacron" horiz-adv-x="557" unicode="ū" /><glyph d="M111 195Q111 116 152.5 71.5Q194 27 272 27Q311 27 342 39.5Q373 52 394.5 74.5Q416 97 427.5 127.5Q439 158 439 195V441Q439 447 443.5 451.5Q448 456 454 456H468Q474 456 478.5 451.5Q483 447 483 441V15Q483 9 478.5 4.5Q474 0 468 0H454Q448 0 443.5 4.5Q439 9 439 15V91Q419 45 373 16.5Q327 -12 264 -12Q218 -12 181.5 2.5Q145 17 119.5 43Q94 69 80.5 105.5Q67 142 67 187V441Q67 447 71.5 451.5Q76 456 82 456H96Q102 456 106.5 451.5Q111 447 111 441ZM363 -117Q363 -98 372 -78.5Q381 -59 394 -42Q407 -25 422 -11Q437 3 449 12L466 10L469 1Q457 -11 445.5 -26.5Q434 -42 425 -57.5Q416 -73 410.5 -87.5Q405 -102 405 -113Q405 -133 416 -142Q427 -151 446 -151Q460 -151 475 -147Q480 -145 483.5 -148.5Q487 -152 486 -157L485 -167Q485 -172 479.5 -175Q474 -178 466.5 -180Q459 -182 451 -183Q443 -184 437 -184Q401 -184 382 -165Q363 -146 363 -117Z" glyph-name="uogonek" horiz-adv-x="557" unicode="ų" /><glyph d="M111 195Q111 116 152.5 71.5Q194 27 272 27Q311 27 342 39.5Q373 52 394.5 74.5Q416 97 427.5 127.5Q439 158 439 195V441Q439 447 443.5 451.5Q448 456 454 456H468Q474 456 478.5 451.5Q483 447 483 441V15Q483 9 478.5 4.5Q474 0 468 0H454Q448 0 443.5 4.5Q439 9 439 15V91Q419 45 373 16.5Q327 -12 264 -12Q218 -12 181.5 2.5Q145 17 119.5 43Q94 69 80.5 105.5Q67 142 67 187V441Q67 447 71.5 451.5Q76 456 82 456H96Q102 456 106.5 451.5Q111 447 111 441ZM377 602Q376 559 347 531.5Q318 504 278 504Q238 504 209 531.5Q180 559 179 602Q180 645 209 672.5Q238 700 278 700Q318 700 347 672.5Q376 645 377 602ZM338 602Q338 628 321.5 646.5Q305 665 278 665Q251 665 234.5 646.5Q218 628 218 602Q218 576 234.5 557.5Q251 539 278 539Q305 539 321.5 557.5Q338 576 338 602Z" glyph-name="uring" horiz-adv-x="557" unicode="ů" /><glyph d="M111 195Q111 116 152.5 71.5Q194 27 272 27Q311 27 342 39.5Q373 52 394.5 74.5Q416 97 427.5 127.5Q439 158 439 195V441Q439 447 443.5 451.5Q448 456 454 456H468Q474 456 478.5 451.5Q483 447 483 441V15Q483 9 478.5 4.5Q474 0 468 0H454Q448 0 443.5 4.5Q439 9 439 15V91Q419 45 373 16.5Q327 -12 264 -12Q218 -12 181.5 2.5Q145 17 119.5 43Q94 69 80.5 105.5Q67 142 67 187V441Q67 447 71.5 451.5Q76 456 82 456H96Q102 456 106.5 451.5Q111 447 111 441ZM336 538Q323 538 306.5 543.5Q290 549 273.5 555.5Q257 562 242.5 567.5Q228 573 220 573Q210 573 203.5 568.5Q197 564 189 549Q181 535 169 541L162 544Q157 546 154.5 551.5Q152 557 154 562Q162 582 178.5 597.5Q195 613 221 613Q234 613 250.5 607.5Q267 602 283.5 595.5Q300 589 314.5 583.5Q329 578 337 578Q347 578 353.5 582.5Q360 587 368 602Q376 616 388 610L395 607Q400 605 402.5 599.5Q405 594 403 589Q395 569 378.5 553.5Q362 538 336 538Z" glyph-name="utilde" horiz-adv-x="557" unicode="ũ" /><glyph d="M258 14Q253 0 238 0H213Q198 0 193 14L27 442Q25 447 28 451.5Q31 456 37 456H55Q68 456 72 445L226 42L376 442Q382 456 395 456H417Q429 456 435 442L585 42L739 444Q743 456 756 456H775Q781 456 784 451.5Q787 447 785 442L618 14Q613 0 598 0H572Q557 0 552 14L405 412L258 14ZM502 676Q507 676 509.5 672Q512 668 510 663L440 536Q437 530 433.5 526.5Q430 523 423 523H407Q394 523 399 535L455 662Q458 670 462.5 673Q467 676 476 676H502Z" glyph-name="wacute" horiz-adv-x="812" unicode="ẃ" /><glyph d="M258 14Q253 0 238 0H213Q198 0 193 14L27 442Q25 447 28 451.5Q31 456 37 456H55Q68 456 72 445L226 42L376 442Q382 456 395 456H417Q429 456 435 442L585 42L739 444Q743 456 756 456H775Q781 456 784 451.5Q787 447 785 442L618 14Q613 0 598 0H572Q557 0 552 14L405 412L258 14ZM411 676Q420 676 424.5 673Q429 670 434 663L523 536Q526 531 523.5 527Q521 523 516 523H499Q487 523 480 533L406 632L332 533Q323 523 313 523H296Q290 523 287.5 527Q285 531 289 536L378 663Q382 670 386.5 673Q391 676 402 676Z" glyph-name="wcircumflex" horiz-adv-x="812" unicode="ŵ" /><glyph d="M258 14Q253 0 238 0H213Q198 0 193 14L27 442Q25 447 28 451.5Q31 456 37 456H55Q68 456 72 445L226 42L376 442Q382 456 395 456H417Q429 456 435 442L585 42L739 444Q743 456 756 456H775Q781 456 784 451.5Q787 447 785 442L618 14Q613 0 598 0H572Q557 0 552 14L405 412L258 14ZM447 564Q447 578 457 588Q467 598 481 598Q495 598 505 588Q515 578 515 564Q515 550 505 540Q495 530 481 530Q467 530 457 540Q447 550 447 564ZM296 564Q296 578 306 588Q316 598 330 598Q344 598 354 588Q364 578 364 564Q364 550 354 540Q344 530 330 530Q316 530 306 540Q296 550 296 564Z" glyph-name="wdieresis" horiz-adv-x="812" unicode="ẅ" /><glyph d="M258 14Q253 0 238 0H213Q198 0 193 14L27 442Q25 447 28 451.5Q31 456 37 456H55Q68 456 72 445L226 42L376 442Q382 456 395 456H417Q429 456 435 442L585 42L739 444Q743 456 756 456H775Q781 456 784 451.5Q787 447 785 442L618 14Q613 0 598 0H572Q557 0 552 14L405 412L258 14ZM340 676Q349 676 353.5 673Q358 670 361 662L417 535Q422 523 409 523H393Q382 523 376 536L306 663Q304 668 306.5 672Q309 676 314 676Z" glyph-name="wgrave" horiz-adv-x="812" unicode="ẁ" /><glyph d="M88 -216Q56 -216 30 -204Q4 -192 -10 -177Q-18 -166 -8 -156L-2 -150Q9 -140 23 -152Q43 -168 57 -173.5Q71 -179 90 -179Q126 -179 144.5 -156Q163 -133 176 -100L215 0H210Q198 0 194 10L26 442Q24 447 27 451.5Q30 456 36 456H57Q70 456 75 442L228 35L384 442Q389 456 402 456H421Q428 456 430.5 451.5Q433 447 431 442L210 -121Q202 -142 191 -159Q180 -176 165.5 -189Q151 -202 132 -209Q113 -216 88 -216ZM323 676Q328 676 330.5 672Q333 668 331 663L261 536Q258 530 254.5 526.5Q251 523 244 523H228Q215 523 220 535L276 662Q279 670 283.5 673Q288 676 297 676H323Z" glyph-name="yacute" horiz-adv-x="457" unicode="ý" /><glyph d="M88 -216Q56 -216 30 -204Q4 -192 -10 -177Q-18 -166 -8 -156L-2 -150Q9 -140 23 -152Q43 -168 57 -173.5Q71 -179 90 -179Q126 -179 144.5 -156Q163 -133 176 -100L215 0H210Q198 0 194 10L26 442Q24 447 27 451.5Q30 456 36 456H57Q70 456 75 442L228 35L384 442Q389 456 402 456H421Q428 456 430.5 451.5Q433 447 431 442L210 -121Q202 -142 191 -159Q180 -176 165.5 -189Q151 -202 132 -209Q113 -216 88 -216ZM268 564Q268 578 278 588Q288 598 302 598Q316 598 326 588Q336 578 336 564Q336 550 326 540Q316 530 302 530Q288 530 278 540Q268 550 268 564ZM117 564Q117 578 127 588Q137 598 151 598Q165 598 175 588Q185 578 185 564Q185 550 175 540Q165 530 151 530Q137 530 127 540Q117 550 117 564Z" glyph-name="ydieresis" horiz-adv-x="457" unicode="ÿ" /><glyph d="M88 -216Q56 -216 30 -204Q4 -192 -10 -177Q-18 -166 -8 -156L-2 -150Q9 -140 23 -152Q43 -168 57 -173.5Q71 -179 90 -179Q126 -179 144.5 -156Q163 -133 176 -100L215 0H210Q198 0 194 10L26 442Q24 447 27 451.5Q30 456 36 456H57Q70 456 75 442L228 35L384 442Q389 456 402 456H421Q428 456 430.5 451.5Q433 447 431 442L210 -121Q202 -142 191 -159Q180 -176 165.5 -189Q151 -202 132 -209Q113 -216 88 -216ZM232 676Q241 676 245.5 673Q250 670 255 663L344 536Q347 531 344.5 527Q342 523 337 523H320Q308 523 301 533L227 632L153 533Q144 523 134 523H117Q111 523 108.5 527Q106 531 110 536L199 663Q203 670 207.5 673Q212 676 223 676Z" glyph-name="ycircumflex" horiz-adv-x="457" unicode="ŷ" /><glyph d="M88 -216Q56 -216 30 -204Q4 -192 -10 -177Q-18 -166 -8 -156L-2 -150Q9 -140 23 -152Q43 -168 57 -173.5Q71 -179 90 -179Q126 -179 144.5 -156Q163 -133 176 -100L215 0H210Q198 0 194 10L26 442Q24 447 27 451.5Q30 456 36 456H57Q70 456 75 442L228 35L384 442Q389 456 402 456H421Q428 456 430.5 451.5Q433 447 431 442L210 -121Q202 -142 191 -159Q180 -176 165.5 -189Q151 -202 132 -209Q113 -216 88 -216ZM161 676Q170 676 174.5 673Q179 670 182 662L238 535Q243 523 230 523H214Q203 523 197 536L127 663Q125 668 127.5 672Q130 676 135 676Z" glyph-name="ygrave" horiz-adv-x="457" unicode="ỳ" /><glyph d="M78 38 386 38Q392 38 396.5 33.5Q401 29 401 23V15Q401 9 396.5 4.5Q392 0 386 0H39Q33 0 28.5 4.5Q24 9 24 15V25Q24 36 32 45L334 418H57Q51 418 46.5 422.5Q42 427 42 433V441Q42 447 46.5 451.5Q51 456 57 456H374Q380 456 384.5 451.5Q389 447 389 441V432Q389 421 381 412ZM207 523Q196 523 191.5 526Q187 529 183 536L94 663Q90 668 92.5 672Q95 676 101 676H118Q128 676 137 666L211 567L285 666Q292 676 304 676H321Q326 676 328.5 672Q331 668 328 663L239 536Q234 529 229.5 526Q225 523 216 523H207Z" glyph-name="zcaron" horiz-adv-x="427" unicode="ž" /><glyph d="M78 38 386 38Q392 38 396.5 33.5Q401 29 401 23V15Q401 9 396.5 4.5Q392 0 386 0H39Q33 0 28.5 4.5Q24 9 24 15V25Q24 36 32 45L334 418H57Q51 418 46.5 422.5Q42 427 42 433V441Q42 447 46.5 451.5Q51 456 57 456H374Q380 456 384.5 451.5Q389 447 389 441V432Q389 421 381 412ZM307 676Q312 676 314.5 672Q317 668 315 663L245 536Q242 530 238.5 526.5Q235 523 228 523H212Q199 523 204 535L260 662Q263 670 267.5 673Q272 676 281 676H307Z" glyph-name="zacute" horiz-adv-x="427" unicode="ź" /><glyph d="M78 38 386 38Q392 38 396.5 33.5Q401 29 401 23V15Q401 9 396.5 4.5Q392 0 386 0H39Q33 0 28.5 4.5Q24 9 24 15V25Q24 36 32 45L334 418H57Q51 418 46.5 422.5Q42 427 42 433V441Q42 447 46.5 451.5Q51 456 57 456H374Q380 456 384.5 451.5Q389 447 389 441V432Q389 421 381 412ZM211 545Q196 545 185 556Q174 567 174 583Q174 598 185 609Q196 620 211 620Q226 620 237 609Q248 598 248 583Q248 567 237 556Q226 545 211 545Z" glyph-name="zdotaccent" horiz-adv-x="427" unicode="ż" /><glyph d="M307 676Q312 676 314.5 672Q317 668 315 663L245 536Q242 530 238.5 526.5Q235 523 228 523H212Q199 523 204 535L260 662Q263 670 267.5 673Q272 676 281 676H307Z" glyph-name="acute" horiz-adv-x="181" unicode="´" /><glyph d="M161 676Q170 676 174.5 673Q179 670 182 662L238 535Q243 523 230 523H214Q203 523 197 536L127 663Q125 668 127.5 672Q130 676 135 676Z" glyph-name="grave" horiz-adv-x="181" unicode="`" /><glyph d="M232 676Q241 676 245.5 673Q250 670 255 663L344 536Q347 531 344.5 527Q342 523 337 523H320Q308 523 301 533L227 632L153 533Q144 523 134 523H117Q111 523 108.5 527Q106 531 110 536L199 663Q203 670 207.5 673Q212 676 223 676Z" glyph-name="circumflex" horiz-adv-x="291" unicode="ˆ" /><glyph d="M207 523Q196 523 191.5 526Q187 529 183 536L94 663Q90 668 92.5 672Q95 676 101 676H118Q128 676 137 666L211 567L285 666Q292 676 304 676H321Q326 676 328.5 672Q331 668 328 663L239 536Q234 529 229.5 526Q225 523 216 523H207Z" glyph-name="caron" horiz-adv-x="291" unicode="ˇ" /><glyph d="M336 538Q323 538 306.5 543.5Q290 549 273.5 555.5Q257 562 242.5 567.5Q228 573 220 573Q210 573 203.5 568.5Q197 564 189 549Q181 535 169 541L162 544Q157 546 154.5 551.5Q152 557 154 562Q162 582 178.5 597.5Q195 613 221 613Q234 613 250.5 607.5Q267 602 283.5 595.5Q300 589 314.5 583.5Q329 578 337 578Q347 578 353.5 582.5Q360 587 368 602Q376 616 388 610L395 607Q400 605 402.5 599.5Q405 594 403 589Q395 569 378.5 553.5Q362 538 336 538Z" glyph-name="tilde" horiz-adv-x="298" unicode="˜" /><glyph d="M268 564Q268 578 278 588Q288 598 302 598Q316 598 326 588Q336 578 336 564Q336 550 326 540Q316 530 302 530Q288 530 278 540Q268 550 268 564ZM117 564Q117 578 127 588Q137 598 151 598Q165 598 175 588Q185 578 185 564Q185 550 175 540Q165 530 151 530Q137 530 127 540Q117 550 117 564Z" glyph-name="dieresis" horiz-adv-x="274" unicode="¨" /><glyph d="M377 602Q376 559 347 531.5Q318 504 278 504Q238 504 209 531.5Q180 559 179 602Q180 645 209 672.5Q238 700 278 700Q318 700 347 672.5Q376 645 377 602ZM338 602Q338 628 321.5 646.5Q305 665 278 665Q251 665 234.5 646.5Q218 628 218 602Q218 576 234.5 557.5Q251 539 278 539Q305 539 321.5 557.5Q338 576 338 602Z" glyph-name="ring" horiz-adv-x="260" unicode="˚" /><glyph d="M247 0 190 -129Q184 -143 173 -143H157Q152 -143 149 -139.5Q146 -136 149 -129L203 0Z" glyph-name="cedilla" horiz-adv-x="157" unicode="¸" /><glyph d="M442 676Q447 676 449.5 672Q452 668 450 663L380 536Q377 530 373.5 526.5Q370 523 363 523H347Q334 523 339 535L395 662Q400 676 416 676ZM306 676Q311 676 313.5 672Q316 668 314 663L244 536Q241 530 237.5 526.5Q234 523 227 523H211Q198 523 203 535L259 662Q264 676 280 676Z" glyph-name="hungarumlaut" horiz-adv-x="302" unicode="˝" /><glyph d="M278 518Q232 518 204 542.5Q176 567 176 609V614Q176 625 187 625H203Q214 625 214 614V612Q214 583 232.5 568.5Q251 554 278 554Q305 554 323.5 568.5Q342 583 342 612V614Q342 625 353 625H369Q380 625 380 614V609Q380 567 352 542.5Q324 518 278 518Z" glyph-name="breve" horiz-adv-x="263" unicode="˘" /><glyph d="M178 546Q172 546 167.5 550.5Q163 555 163 561V568Q163 574 167.5 578.5Q172 583 178 583H378Q384 583 388.5 578.5Q393 574 393 568V561Q393 555 388.5 550.5Q384 546 378 546Z" glyph-name="macron" horiz-adv-x="562" unicode="¯" /><glyph d="M211 545Q196 545 185 556Q174 567 174 583Q174 598 185 609Q196 620 211 620Q226 620 237 609Q248 598 248 583Q248 567 237 556Q226 545 211 545Z" glyph-name="dotaccent" horiz-adv-x="136" unicode="˙" /><glyph d="M223 212Q204 212 191 225Q178 238 178 257Q178 276 191 289Q204 302 223 302Q242 302 255 289Q268 276 268 257Q268 238 255 225Q242 212 223 212Z" glyph-name="periodcentered" horiz-adv-x="192" unicode="·" /><glyph d="M363 -117Q363 -98 372 -78.5Q381 -59 394 -42Q407 -25 422 -11Q437 3 449 12L466 10L469 1Q457 -11 445.5 -26.5Q434 -42 425 -57.5Q416 -73 410.5 -87.5Q405 -102 405 -113Q405 -133 416 -142Q427 -151 446 -151Q460 -151 475 -147Q480 -145 483.5 -148.5Q487 -152 486 -157L485 -167Q485 -172 479.5 -175Q474 -178 466.5 -180Q459 -182 451 -183Q443 -184 437 -184Q401 -184 382 -165Q363 -146 363 -117Z" glyph-name="ogonek" horiz-adv-x="224" unicode="˛" /><glyph d="M166 -64Q168 -57 172 -53.5Q176 -50 185 -50H203Q208 -50 210.5 -54.5Q213 -59 211 -64L165 -183Q162 -190 158 -193.5Q154 -197 146 -197H131Q117 -197 122 -183Z" glyph-name="commaaccent" horiz-adv-x="233" unicode="" /><glyph d="M259 553Q254 553 251.5 557Q249 561 251 566L321 693Q327 706 338 706H354Q367 706 362 694L306 566Q303 559 298.5 556Q294 553 285 553H259Z" glyph-name="revcommaaccent" horiz-adv-x="241" unicode="" /><glyph d="M94 -1Q75 -1 62 12Q49 25 49 44Q49 63 62 76Q75 89 94 89Q112 89 125 76Q138 63 138 44Q138 25 125 12Q112 -1 94 -1Z" glyph-name="period" horiz-adv-x="187" unicode="." /><glyph d="M111 88Q113 95 117 98.5Q121 102 130 102H148Q153 102 155.5 97.5Q158 93 156 88L84 -97Q81 -104 77 -107.5Q73 -111 65 -111H50Q44 -111 41.5 -106.5Q39 -102 41 -97Z" glyph-name="comma" horiz-adv-x="237" unicode="," /><glyph d="M118 368Q100 368 87 380.5Q74 393 74 412Q74 431 87 443.5Q100 456 118 456Q136 456 149 443.5Q162 431 162 412Q162 393 149 380.5Q136 368 118 368ZM118 -1Q100 -1 87 12Q74 25 74 43Q74 62 87 74.5Q100 87 118 87Q136 87 149 74.5Q162 62 162 43Q162 25 149 12Q136 -1 118 -1Z" glyph-name="colon" horiz-adv-x="236" unicode=":" /><glyph d="M119 368Q101 368 88 380.5Q75 393 75 412Q75 431 88 443.5Q101 456 119 456Q138 456 151 443.5Q164 431 164 412Q164 393 151 380.5Q138 368 119 368ZM101 88Q103 95 107 98.5Q111 102 120 102H138Q143 102 145.5 97.5Q148 93 146 88L74 -97Q71 -104 67 -107.5Q63 -111 55 -111H40Q34 -111 31.5 -106.5Q29 -102 31 -97Z" glyph-name="semicolon" horiz-adv-x="239" unicode=";" /><glyph d="M541 -1Q522 -1 509 12Q496 25 496 44Q496 63 509 76Q522 89 541 89Q560 89 573 76Q586 63 586 44Q586 25 573 12Q560 -1 541 -1ZM317 -1Q298 -1 285 12Q272 25 272 44Q272 63 285 76Q298 89 317 89Q336 89 349 76Q362 63 362 44Q362 25 349 12Q336 -1 317 -1ZM94 -1Q75 -1 62 12Q49 25 49 44Q49 63 62 76Q75 89 94 89Q112 89 125 76Q138 63 138 44Q138 25 125 12Q112 -1 94 -1Z" glyph-name="ellipsis" horiz-adv-x="635" unicode="…" /><glyph d="M227 712Q267 712 301 700Q335 688 360 666Q385 644 399.5 614Q414 584 414 547Q414 508 401.5 477Q389 446 370 420Q351 394 329.5 371Q308 348 289 324Q270 300 257.5 274Q245 248 245 216V202Q245 197 241.5 193.5Q238 190 233 190H215Q202 190 202 203V215Q202 253 214.5 282Q227 311 245.5 336Q264 361 285.5 383.5Q307 406 325.5 430Q344 454 356.5 481.5Q369 509 369 545Q369 575 357 599Q345 623 325.5 639.5Q306 656 280.5 664.5Q255 673 227 673Q179 673 136.5 646Q94 619 74 567Q72 561 66 559Q60 557 54 559L41 564Q29 569 34 582Q57 644 108.5 678Q160 712 227 712ZM224 -1Q205 -1 192 12Q179 25 179 44Q179 63 192 76Q205 89 224 89Q242 89 255 76Q268 63 268 44Q268 25 255 12Q242 -1 224 -1Z" glyph-name="question" horiz-adv-x="461" unicode="?" /><glyph d="M141 238Q141 232 136.5 227.5Q132 223 126 223H116Q110 223 105.5 227.5Q101 232 101 238L94 685Q94 691 98.5 695.5Q103 700 109 700H132Q138 700 142.5 695.5Q147 691 147 685ZM121 -1Q102 -1 89 12Q76 25 76 44Q76 63 89 76Q102 89 121 89Q139 89 152 76Q165 63 165 44Q165 25 152 12Q139 -1 121 -1Z" glyph-name="exclam" horiz-adv-x="241" unicode="!" /><glyph d="M234 -13Q194 -13 160 -1Q126 11 101 32.5Q76 54 61.5 84.5Q47 115 47 152Q47 191 59.5 222Q72 253 91 279Q110 305 131.5 328Q153 351 172 375Q191 399 203.5 425Q216 451 216 483V497Q216 502 219.5 505.5Q223 509 228 509H246Q259 509 259 496V484Q259 446 246.5 417Q234 388 215.5 363Q197 338 175.5 315.5Q154 293 135.5 269Q117 245 104.5 217Q92 189 92 154Q92 124 104 100Q116 76 135.5 59.5Q155 43 180.5 34.5Q206 26 234 26Q282 26 324.5 53Q367 80 387 132Q389 138 395 140Q401 142 407 140L420 135Q432 130 427 117Q404 55 352.5 21Q301 -13 234 -13ZM237 701Q256 701 269 688Q282 675 282 656Q282 638 269 625Q256 612 237 612Q219 612 206 625Q193 638 193 656Q193 675 206 688Q219 701 237 701Z" glyph-name="questiondown.alt" horiz-adv-x="462" unicode="" /><glyph d="M156 15Q156 9 151.5 4.5Q147 0 141 0H118Q112 0 107.5 4.5Q103 9 103 15L109 462Q109 468 113.5 472.5Q118 477 124 477H134Q140 477 144.5 472.5Q149 468 149 462ZM129 701Q148 701 161 688Q174 675 174 656Q174 637 161 624Q148 611 129 611Q111 611 98 624Q85 637 85 656Q85 675 98 688Q111 701 129 701Z" glyph-name="exclamdown.alt" horiz-adv-x="258" unicode="" /><glyph d="M234 -13Q194 -13 160 -1Q126 11 101 32.5Q76 54 61.5 84.5Q47 115 47 152Q47 191 59.5 222Q72 253 91 279Q110 305 131.5 328Q153 351 172 375Q191 399 203.5 425Q216 451 216 483V497Q216 502 219.5 505.5Q223 509 228 509H246Q259 509 259 496V484Q259 446 246.5 417Q234 388 215.5 363Q197 338 175.5 315.5Q154 293 135.5 269Q117 245 104.5 217Q92 189 92 154Q92 124 104 100Q116 76 135.5 59.5Q155 43 180.5 34.5Q206 26 234 26Q282 26 324.5 53Q367 80 387 132Q389 138 395 140Q401 142 407 140L420 135Q432 130 427 117Q404 55 352.5 21Q301 -13 234 -13ZM237 701Q256 701 269 688Q282 675 282 656Q282 638 269 625Q256 612 237 612Q219 612 206 625Q193 638 193 656Q193 675 206 688Q219 701 237 701Z" glyph-name="questiondown" horiz-adv-x="449" unicode="¿" /><glyph d="M156 15Q156 9 151.5 4.5Q147 0 141 0H118Q112 0 107.5 4.5Q103 9 103 15L109 462Q109 468 113.5 472.5Q118 477 124 477H134Q140 477 144.5 472.5Q149 468 149 462ZM129 701Q148 701 161 688Q174 675 174 656Q174 637 161 624Q148 611 129 611Q111 611 98 624Q85 637 85 656Q85 675 98 688Q111 701 129 701Z" glyph-name="exclamdown" horiz-adv-x="215" unicode="¡" /><glyph d="M88 317Q88 209 127.5 111Q167 13 249 -93Q251 -96 253.5 -99.5Q256 -103 256 -107Q256 -116 245 -116H231Q222 -116 216.5 -112.5Q211 -109 207 -104Q133 -12 88 91.5Q43 195 43 317Q43 439 88 542.5Q133 646 207 738Q211 743 216.5 746.5Q222 750 231 750H245Q256 750 256 741Q256 737 253.5 733.5Q251 730 249 727Q208 674 178 623.5Q148 573 128 523Q108 473 98 422Q88 371 88 317Z" glyph-name="parenleft" horiz-adv-x="265" unicode="(" /><glyph d="M177 317Q177 371 167 422Q157 473 137 523Q117 573 87 623.5Q57 674 16 727Q14 730 11.5 733.5Q9 737 9 741Q9 750 20 750H34Q43 750 48.5 746.5Q54 743 58 738Q95 692 125 643.5Q155 595 176.5 542.5Q198 490 210 434Q222 378 222 317Q222 256 210 200Q198 144 176.5 91.5Q155 39 125 -9.5Q95 -58 58 -104Q54 -109 48.5 -112.5Q43 -116 34 -116H20Q9 -116 9 -107Q9 -103 11.5 -99.5Q14 -96 16 -93Q98 13 137.5 111Q177 209 177 317Z" glyph-name="parenright" horiz-adv-x="265" unicode=")" /><glyph d="M149 -6Q149 -36 160.5 -48.5Q172 -61 196 -61H277Q283 -61 287.5 -65.5Q292 -70 292 -76V-88Q292 -94 287.5 -98.5Q283 -103 277 -103H188Q155 -103 129 -82Q103 -61 103 -13V294Q103 308 95.5 315Q88 322 76 322H38Q32 322 27.5 326.5Q23 331 23 337V346Q23 352 27.5 356.5Q32 361 38 361H76Q88 361 95.5 368Q103 375 103 389V660Q103 708 129 729Q155 750 188 750H277Q283 750 287.5 745.5Q292 741 292 735V723Q292 717 287.5 712.5Q283 708 277 708H196Q172 708 160.5 695.5Q149 683 149 653V402Q149 379 137.5 362Q126 345 106 341Q126 337 137.5 320.5Q149 304 149 281V-6Z" glyph-name="braceleft" horiz-adv-x="306" unicode="{" /><glyph d="M157 281Q157 304 168.5 320.5Q180 337 200 341Q180 345 168.5 362Q157 379 157 402V653Q157 683 145.5 695.5Q134 708 110 708H29Q23 708 18.5 712.5Q14 717 14 723V735Q14 741 18.5 745.5Q23 750 29 750H118Q151 750 177 729Q203 708 203 660V389Q203 375 210.5 368Q218 361 230 361H268Q274 361 278.5 356.5Q283 352 283 346V337Q283 331 278.5 326.5Q274 322 268 322H230Q218 322 210.5 315Q203 308 203 294V-13Q203 -61 177 -82Q151 -103 118 -103H29Q23 -103 18.5 -98.5Q14 -94 14 -88V-76Q14 -70 18.5 -65.5Q23 -61 29 -61H110Q134 -61 145.5 -48.5Q157 -36 157 -6Z" glyph-name="braceright" horiz-adv-x="306" unicode="}" /><glyph d="M278 723Q278 717 273.5 712.5Q269 708 263 708H132V-61H263Q269 -61 273.5 -65.5Q278 -70 278 -76V-88Q278 -94 273.5 -98.5Q269 -103 263 -103H103Q97 -103 92.5 -98.5Q88 -94 88 -88V735Q88 741 92.5 745.5Q97 750 103 750H263Q269 750 273.5 745.5Q278 741 278 735Z" glyph-name="bracketleft" horiz-adv-x="292" unicode="[" /><glyph d="M13 735Q13 741 17.5 745.5Q22 750 28 750H188Q194 750 198.5 745.5Q203 741 203 735V-88Q203 -94 198.5 -98.5Q194 -103 188 -103H28Q22 -103 17.5 -98.5Q13 -94 13 -88V-76Q13 -70 17.5 -65.5Q22 -61 28 -61H159V708H28Q22 708 17.5 712.5Q13 717 13 723V735Z" glyph-name="bracketright" horiz-adv-x="291" unicode="]" /><glyph d="M343 686Q345 693 349.5 696.5Q354 700 363 700H380Q385 700 387.5 695.5Q390 691 388 686L81 -107Q76 -121 62 -121H45Q39 -121 36.5 -116.5Q34 -112 36 -107Z" glyph-name="slash" horiz-adv-x="424" unicode="/" /><glyph d="M81 686 388 -107Q390 -112 387.5 -116.5Q385 -121 379 -121H362Q348 -121 343 -107L36 686Q34 691 36.5 695.5Q39 700 44 700H61Q70 700 74.5 696.5Q79 693 81 686Z" glyph-name="backslash" horiz-adv-x="424" unicode="\" /><glyph d="M20 -134Q14 -134 9.5 -129.5Q5 -125 5 -119V-107Q5 -101 9.5 -96.5Q14 -92 20 -92H228Q234 -92 238.5 -96.5Q243 -101 243 -107V-119Q243 -125 238.5 -129.5Q234 -134 228 -134Z" glyph-name="underscore" horiz-adv-x="248" unicode="_" /><glyph d="M79 236Q73 236 68.5 240.5Q64 245 64 251V265Q64 271 68.5 275.5Q73 280 79 280H256Q262 280 266.5 275.5Q271 271 271 265V251Q271 245 266.5 240.5Q262 236 256 236Z" glyph-name="hyphen" horiz-adv-x="335" unicode="-" /><glyph d="M79 236Q73 236 68.5 240.5Q64 245 64 251V265Q64 271 68.5 275.5Q73 280 79 280H476Q482 280 486.5 275.5Q491 271 491 265V251Q491 245 486.5 240.5Q482 236 476 236Z" glyph-name="endash" horiz-adv-x="555" unicode="–" /><glyph d="M79 236Q73 236 68.5 240.5Q64 245 64 251V265Q64 271 68.5 275.5Q73 280 79 280H946Q952 280 956.5 275.5Q961 271 961 265V251Q961 245 956.5 240.5Q952 236 946 236Z" glyph-name="emdash" horiz-adv-x="1025" unicode="—" /><glyph d="M139 425Q139 419 134.5 414.5Q130 410 124 410H106Q100 410 95.5 414.5Q91 419 91 425V810Q91 816 95.5 820.5Q100 825 106 825H124Q130 825 134.5 820.5Q139 816 139 810ZM139 -110Q139 -116 134.5 -120.5Q130 -125 124 -125H106Q100 -125 95.5 -120.5Q91 -116 91 -110V275Q91 281 95.5 285.5Q100 290 106 290H124Q130 290 134.5 285.5Q139 281 139 275Z" glyph-name="brokenbar" horiz-adv-x="230" unicode="¦" /><glyph d="M103 -125Q97 -125 92.5 -120.5Q88 -116 88 -110V810Q88 816 92.5 820.5Q97 825 103 825H119Q125 825 129.5 820.5Q134 816 134 810V-110Q134 -116 129.5 -120.5Q125 -125 119 -125Z" glyph-name="bar" horiz-adv-x="222" unicode="|" /><glyph d="M182 13Q184 7 181 3.5Q178 0 173 0H151Q139 0 134 13L53 215Q48 228 53 241L134 443Q139 456 151 456H173Q178 456 181 452.5Q184 449 182 443L97 228ZM352 13Q354 7 351 3.5Q348 0 343 0H321Q309 0 304 13L223 215Q218 228 223 241L304 443Q309 456 321 456H343Q348 456 351 452.5Q354 449 352 443L267 228Z" glyph-name="guillemotleft" horiz-adv-x="418" unicode="«" /><glyph d="M236 443Q234 449 237 452.5Q240 456 245 456H267Q279 456 284 443L365 241Q370 228 365 215L284 13Q279 0 267 0H245Q240 0 237 3.5Q234 7 236 13L321 228ZM66 443Q64 449 67 452.5Q70 456 75 456H97Q109 456 114 443L195 241Q200 228 195 215L114 13Q109 0 97 0H75Q70 0 67 3.5Q64 7 66 13L151 228Z" glyph-name="guillemotright" horiz-adv-x="418" unicode="»" /><glyph d="M182 13Q184 7 181 3.5Q178 0 173 0H151Q139 0 134 13L53 215Q48 228 53 241L134 443Q139 456 151 456H173Q178 456 181 452.5Q184 449 182 443L97 228Z" glyph-name="guilsinglleft" horiz-adv-x="248" unicode="‹" /><glyph d="M66 443Q64 449 67 452.5Q70 456 75 456H97Q109 456 114 443L195 241Q200 228 195 215L114 13Q109 0 97 0H75Q70 0 67 3.5Q64 7 66 13L151 228Z" glyph-name="guilsinglright" horiz-adv-x="248" unicode="›" /><glyph d="M111 88Q113 95 117 98.5Q121 102 130 102H148Q153 102 155.5 97.5Q158 93 156 88L84 -97Q81 -104 77 -107.5Q73 -111 65 -111H50Q44 -111 41.5 -106.5Q39 -102 41 -97Z" glyph-name="quotesinglbase" horiz-adv-x="237" unicode="‚" /><glyph d="M111 88Q113 95 117 98.5Q121 102 130 102H148Q153 102 155.5 97.5Q158 93 156 88L84 -97Q81 -104 77 -107.5Q73 -111 65 -111H50Q44 -111 41.5 -106.5Q39 -102 41 -97ZM261 88Q263 95 267 98.5Q271 102 280 102H298Q303 102 305.5 97.5Q308 93 306 88L234 -97Q231 -104 227 -107.5Q223 -111 215 -111H200Q194 -111 191.5 -106.5Q189 -102 191 -97Z" glyph-name="quotedblbase" horiz-adv-x="387" unicode="„" /><glyph d="M126 501Q124 494 120 490.5Q116 487 107 487H89Q84 487 81.5 491.5Q79 496 81 501L153 686Q156 693 160 696.5Q164 700 172 700H187Q193 700 195.5 695.5Q198 691 196 686Z" glyph-name="quoteleft" horiz-adv-x="237" unicode="‘" /><glyph d="M276 501Q274 494 270 490.5Q266 487 257 487H239Q234 487 231.5 491.5Q229 496 231 501L303 686Q306 693 310 696.5Q314 700 322 700H337Q343 700 345.5 695.5Q348 691 346 686ZM126 501Q124 494 120 490.5Q116 487 107 487H89Q84 487 81.5 491.5Q79 496 81 501L153 686Q156 693 160 696.5Q164 700 172 700H187Q193 700 195.5 695.5Q198 691 196 686Z" glyph-name="quotedblleft" horiz-adv-x="387" unicode="“" /><glyph d="M111 686Q113 693 117 696.5Q121 700 130 700H148Q153 700 155.5 695.5Q158 691 156 686L84 501Q81 494 77 490.5Q73 487 65 487H50Q44 487 41.5 491.5Q39 496 41 501Z" glyph-name="quoteright" horiz-adv-x="237" unicode="’" /><glyph d="M111 686Q113 693 117 696.5Q121 700 130 700H148Q153 700 155.5 695.5Q158 691 156 686L84 501Q81 494 77 490.5Q73 487 65 487H50Q44 487 41.5 491.5Q39 496 41 501ZM261 686Q263 693 267 696.5Q271 700 280 700H298Q303 700 305.5 695.5Q308 691 306 686L234 501Q231 494 227 490.5Q223 487 215 487H200Q194 487 191.5 491.5Q189 496 191 501Z" glyph-name="quotedblright" horiz-adv-x="387" unicode="”" /><glyph d="M111 686Q113 693 117 696.5Q121 700 130 700H148Q153 700 155.5 695.5Q158 691 156 686L84 501Q81 494 77 490.5Q73 487 65 487H50Q44 487 41.5 491.5Q39 496 41 501Z" glyph-name="quotesingle" horiz-adv-x="237" unicode="'" /><glyph d="M111 686Q113 693 117 696.5Q121 700 130 700H148Q153 700 155.5 695.5Q158 691 156 686L84 501Q81 494 77 490.5Q73 487 65 487H50Q44 487 41.5 491.5Q39 496 41 501ZM261 686Q263 693 267 696.5Q271 700 280 700H298Q303 700 305.5 695.5Q308 691 306 686L234 501Q231 494 227 490.5Q223 487 215 487H200Q194 487 191.5 491.5Q189 496 191 501Z" glyph-name="quotedbl" horiz-adv-x="387" unicode="&quot;" /><glyph d="M293 761Q295 768 299 771.5Q303 775 312 775H330Q335 775 337.5 770.5Q340 766 338 761L285 625Q282 618 278 614.5Q274 611 266 611H251Q245 611 242.5 615.5Q240 620 242 625Z" glyph-name="apostrophemod" horiz-adv-x="237" unicode="" /><glyph d="M111 686Q113 693 117 696.5Q121 700 130 700H148Q153 700 155.5 695.5Q158 691 156 686L84 501Q81 494 77 490.5Q73 487 65 487H50Q44 487 41.5 491.5Q39 496 41 501Z" glyph-name="apostrophe" horiz-adv-x="237" unicode="" /><glyph d="M166 282Q134 282 111.5 304.5Q89 327 89 359Q89 390 111.5 412.5Q134 435 166 435Q197 435 219.5 412.5Q242 390 242 359Q242 327 219.5 304.5Q197 282 166 282Z" glyph-name="bullet" horiz-adv-x="331" unicode="•" /><glyph d="M163 553Q163 514 182.5 478Q202 442 245 400L278 420Q340 458 366 493Q392 528 392 570Q392 597 382.5 617Q373 637 357.5 649.5Q342 662 322.5 668.5Q303 675 283 675Q260 675 238.5 667Q217 659 200 643.5Q183 628 173 605Q163 582 163 553ZM262 27Q325 27 376 55.5Q427 84 460 126L235 353L213 339Q147 297 120 258.5Q93 220 93 169Q93 144 103.5 118.5Q114 93 135.5 73Q157 53 188.5 40Q220 27 262 27ZM488 97Q448 50 390 19Q332 -12 258 -12Q205 -12 165.5 3.5Q126 19 99.5 44.5Q73 70 60 102.5Q47 135 47 168Q47 196 54 221.5Q61 247 77 271Q93 295 119.5 318Q146 341 184 364L209 379Q155 432 137.5 474Q120 516 120 552Q120 589 133 618.5Q146 648 168.5 669Q191 690 220.5 701Q250 712 283 712Q319 712 347 701Q375 690 394.5 671Q414 652 424.5 626Q435 600 435 570Q435 547 428.5 525Q422 503 407 481.5Q392 460 366.5 438Q341 416 303 393L271 374L486 158Q515 205 536 265.5Q557 326 557 392Q557 401 561.5 404Q566 407 572 407H585Q598 407 598 392Q598 323 574.5 253Q551 183 515 129L634 11Q637 8 636 4Q635 0 630 0H596Q586 0 580 6Z" glyph-name="ampersand" horiz-adv-x="659" unicode="&amp;" /><glyph d="M35 528Q35 564 48.5 595Q62 626 85.5 649.5Q109 673 140 686.5Q171 700 207 700H399Q405 700 409.5 695.5Q414 691 414 685V15Q414 9 409.5 4.5Q405 0 399 0H386Q380 0 375.5 4.5Q371 9 371 15V658H254V15Q254 9 249.5 4.5Q245 0 239 0H225Q219 0 214.5 4.5Q210 9 210 15V356H207Q171 356 140 369.5Q109 383 85.5 406.5Q62 430 48.5 461Q35 492 35 528Z" glyph-name="paragraph" horiz-adv-x="514" unicode="¶" /><glyph d="M227 165Q227 159 222.5 154.5Q218 150 212 150H199Q193 150 188.5 154.5Q184 159 184 165V493H60Q54 493 49.5 497.5Q45 502 45 508V519Q45 525 49.5 529.5Q54 534 60 534H184V685Q184 691 188.5 695.5Q193 700 199 700H212Q218 700 222.5 695.5Q227 691 227 685V534H351Q357 534 361.5 529.5Q366 525 366 519V508Q366 502 361.5 497.5Q357 493 351 493H227Z" glyph-name="dagger" horiz-adv-x="411" unicode="†" /><glyph d="M227 15Q227 9 222.5 4.5Q218 0 212 0H199Q193 0 188.5 4.5Q184 9 184 15V216H60Q54 216 49.5 220.5Q45 225 45 231V242Q45 248 49.5 252.5Q54 257 60 257H184V443H60Q54 443 49.5 447.5Q45 452 45 458V469Q45 475 49.5 479.5Q54 484 60 484H184V685Q184 691 188.5 695.5Q193 700 199 700H212Q218 700 222.5 695.5Q227 691 227 685V484H351Q357 484 361.5 479.5Q366 475 366 469V458Q366 452 361.5 447.5Q357 443 351 443H227V257H351Q357 257 361.5 252.5Q366 248 366 242V231Q366 225 361.5 220.5Q357 216 351 216H227Z" glyph-name="daggerdbl" horiz-adv-x="411" unicode="‡" /><glyph d="M375 147Q419 127 448.5 107Q478 87 497 64Q542 84 565 114Q588 144 588 180Q588 208 577.5 229Q567 250 545 268Q523 286 489 303Q455 320 408 341L292 393Q248 413 218.5 433Q189 453 170 476Q125 456 102 426Q79 396 79 360Q79 332 89.5 311Q100 290 122 272Q144 254 178 237Q212 220 259 199ZM311 -222Q244 -222 185.5 -198Q127 -174 85 -126Q78 -115 88 -107L99 -98Q111 -90 121 -102Q160 -147 209.5 -165.5Q259 -184 309 -184Q348 -184 381 -173Q414 -162 438 -143.5Q462 -125 475 -99.5Q488 -74 488 -45Q488 6 457.5 41.5Q427 77 354 111L174 193Q133 211 106.5 230.5Q80 250 64 270.5Q48 291 41.5 312.5Q35 334 35 358Q35 405 66.5 446Q98 487 150 507Q135 540 135 583Q135 618 150.5 650.5Q166 683 195 707.5Q224 732 265 747Q306 762 356 762Q423 762 481.5 738Q540 714 582 666Q589 655 579 647L568 638Q556 630 546 642Q507 687 457.5 705.5Q408 724 358 724Q319 724 286 713Q253 702 229 683.5Q205 665 192 639.5Q179 614 179 585Q179 559 186 538Q193 517 209 498.5Q225 480 250.5 463Q276 446 313 429L493 347Q533 329 560 309.5Q587 290 603 269.5Q619 249 625.5 227.5Q632 206 632 182Q632 135 600.5 94Q569 53 517 33Q532 0 532 -43Q532 -78 516.5 -110.5Q501 -143 472 -167.5Q443 -192 402 -207Q361 -222 311 -222Z" glyph-name="section" horiz-adv-x="667" unicode="§" /></font>
</defs>
</svg>
